<?xml version="1.0" encoding="utf-8"?>
<!-- Generator: Adobe Illustrator 19.1.0, SVG Export Plug-In . SVG Version: 6.00 Build 0)  -->
<svg version="1.1" id="Layer_1" xmlns="http://www.w3.org/2000/svg" xmlns:xlink="http://www.w3.org/1999/xlink" x="0px" y="0px"
	 viewBox="-143.2 379.3 168.3 35.9" style="enable-background:new -143.2 379.3 168.3 35.9;" xml:space="preserve">
<style type="text/css">
	.st0{fill:#F5D3A5;}
</style>
<g>
	<g>
		<path class="st0" d="M-68.9,405.9c0,0,7.1,2.8,18.5-0.6c0,0,1-0.4,0.8,0.5c-0.2,0.8-6.1,2.7-13.8,2.6c0,0-5.9-0.1-6-0.7
			c-0.1-0.7,0.8,0.2,1.1-0.5c0.3-0.7-0.8-0.4-1.1-0.8C-69.8,406-69.3,405.8-68.9,405.9z"/>
		<path class="st0" d="M-70.8,409.2c0,0,9.2,2.7,23.5-1.4c0,0,1.2-0.4,1,0.5c-0.2,0.9-7.7,3-17.6,3.2c0,0-7.5,0.1-7.6-0.5
			c-0.1-0.7,1.1,0.1,1.4-0.6c0.3-0.8-1.1-0.4-1.4-0.7C-71.9,409.4-71.4,409.1-70.8,409.2z"/>
		<path class="st0" d="M-72.8,413c0,0,10.4,2,28.2-2.3c0,0,1.6-0.5,1.3,0.4c-0.3,0.8-9.8,3.1-21.7,3.7c0,0-8.4,0.4-8.5-0.1
			c-0.1-0.6,1.2,0.1,1.5-0.5c0.4-0.6-1.2-0.2-1.6-0.6C-73.9,413.1-73.4,412.9-72.8,413z"/>
	</g>
	<g>
		<path class="st0" d="M-75,412.6h-66.6c-0.2,0-0.4-0.2-0.4-0.4c0-0.2,0.2-0.4,0.4-0.4H-75c0.2,0,0.4,0.2,0.4,0.4
			C-74.6,412.4-74.7,412.6-75,412.6z"/>
	</g>
	<g>
		<path class="st0" d="M-9.7,412.6h-31.9c-0.2,0-0.4-0.2-0.4-0.4c0-0.2,0.2-0.4,0.4-0.4h31.9c0.2,0,0.4,0.2,0.4,0.4
			C-9.3,412.4-9.4,412.6-9.7,412.6z"/>
	</g>
	<g>
		<path class="st0" d="M-58.5,382.3c26.9,0,50.3,4.5,63.1,11.3c-12.8-8.3-36.2-14-63.1-14s-50.3,5.6-63.1,14
			C-108.8,386.8-85.4,382.3-58.5,382.3z"/>
	</g>
	<g>
		<path class="st0" d="M-142.9,394.1c0.7-0.1,1.6-0.1,2.8-0.1c1.4,0,2.5,0.2,3.2,0.6c0.6,0.4,1,1,1,1.7c0,0.7-0.3,1.3-0.8,1.7
			c-0.8,0.6-2,0.9-3.5,0.9c-0.4,0-0.8,0-1.2-0.1v3.2h-1.5V394.1z M-141.5,397.9c0.4,0.1,0.7,0.1,1.2,0.1c1.8,0,2.8-0.6,2.8-1.7
			c0-1.1-1.1-1.6-2.7-1.6c-0.6,0-1.1,0.1-1.3,0.1V397.9z"/>
		<path class="st0" d="M-135.6,400.6l-0.6,1.3h-1.3l2.1-4.8h1.6l2.2,4.8h-1.3l-0.6-1.3H-135.6z M-133.7,400l-0.5-1.2
			c-0.1-0.3-0.2-0.6-0.4-0.9l0,0c-0.1,0.3-0.2,0.6-0.4,0.9l-0.5,1.2H-133.7z"/>
		<path class="st0" d="M-130.5,397.2h1.2v4h2.7v0.7h-3.9V397.2z"/>
		<path class="st0" d="M-124.1,400.6l-0.6,1.3h-1.3l2.1-4.8h1.6l2.2,4.8h-1.3l-0.6-1.3H-124.1z M-122.2,400l-0.5-1.2
			c-0.1-0.3-0.2-0.6-0.4-0.9l0,0c-0.1,0.3-0.2,0.6-0.4,0.9l-0.5,1.2H-122.2z"/>
		<path class="st0" d="M-117.4,397.2v4.8h-1.3v-4.8H-117.4z"/>
		<path class="st0" d="M-116.3,401c0.4,0.1,1,0.3,1.6,0.3c0.8,0,1.2-0.3,1.2-0.6c0-0.4-0.4-0.6-1.2-0.8c-1.1-0.3-1.8-0.7-1.8-1.4
			c0-0.8,0.9-1.3,2.3-1.3c0.7,0,1.3,0.1,1.6,0.2l-0.3,0.7c-0.2-0.1-0.7-0.2-1.3-0.2c-0.8,0-1.1,0.3-1.1,0.6c0,0.4,0.4,0.6,1.3,0.8
			c1.1,0.3,1.7,0.7,1.7,1.4c0,0.8-0.8,1.4-2.5,1.4c-0.7,0-1.4-0.1-1.8-0.3L-116.3,401z"/>
		<path class="st0" d="M-109.1,398.1c0.4-0.1,1-0.1,1.6-0.1c1.1,0,1.8,0.1,2.3,0.4c0.6,0.3,0.8,0.8,0.8,1.5c0,0.7-0.4,1.2-0.8,1.6
			c-0.6,0.4-1.4,0.6-2.5,0.6c-0.6,0-1.1,0-1.3-0.1L-109.1,398.1L-109.1,398.1z M-108.1,401.5c0.1,0,0.4,0,0.6,0
			c1.3,0,2.1-0.5,2.1-1.5c0-0.8-0.7-1.3-2-1.3c-0.4,0-0.6,0-0.7,0.1V401.5z"/>
		<path class="st0" d="M-100.8,400.3h-2.1v1.1h2.3v0.6h-3.3v-3.9h3.2v0.6h-2.2v1h2.1V400.3L-100.8,400.3z"/>
		<path class="st0" d="M-100,401.3c0.4,0.1,0.8,0.3,1.3,0.3c0.6,0,1-0.2,1-0.6c0-0.3-0.3-0.5-1-0.6c-0.9-0.2-1.5-0.6-1.5-1.1
			c0-0.6,0.8-1.1,2-1.1c0.6,0,1.1,0.1,1.3,0.2l-0.2,0.6c-0.2-0.1-0.6-0.2-1.1-0.2c-0.6,0-0.9,0.2-0.9,0.5c0,0.3,0.4,0.4,1.1,0.6
			c1,0.3,1.4,0.6,1.4,1.2s-0.7,1.2-2.1,1.2c-0.6,0-1.2-0.1-1.5-0.2L-100,401.3z"/>
		<path class="st0" d="M-93.5,393.9h6.1v0.8H-92v2.7h4.3v0.8H-92v3.7h-1.5V393.9L-93.5,393.9z"/>
		<path class="st0" d="M-83.2,399.9h-2.5v1.4h2.8v0.7h-4v-4.8h3.9v0.7h-2.7v1.2h2.5C-83.2,399.1-83.2,399.9-83.2,399.9z"/>
		<path class="st0" d="M-81.8,401c0.4,0.1,1,0.3,1.6,0.3c0.8,0,1.2-0.3,1.2-0.6c0-0.4-0.4-0.6-1.2-0.8c-1.1-0.3-1.8-0.7-1.8-1.4
			c0-0.8,0.9-1.3,2.3-1.3c0.7,0,1.3,0.1,1.6,0.2l-0.3,0.7c-0.2-0.1-0.7-0.2-1.3-0.2c-0.8,0-1.1,0.3-1.1,0.6c0,0.4,0.4,0.6,1.3,0.8
			c1.1,0.3,1.7,0.7,1.7,1.4c0,0.8-0.8,1.4-2.5,1.4c-0.7,0-1.4-0.1-1.8-0.3L-81.8,401z"/>
		<path class="st0" d="M-75.8,397.9h-1.9v-0.7h5.1v0.7h-1.9v4h-1.2L-75.8,397.9L-75.8,397.9z"/>
		<path class="st0" d="M-70.8,397.2v4.8H-72v-4.8H-70.8z"/>
		<path class="st0" d="M-67.7,402l-2.2-4.8h1.3l0.9,2.2c0.3,0.6,0.5,1.1,0.6,1.8l0,0c0.2-0.6,0.4-1.1,0.7-1.8l1-2.2h1.3l-2.3,4.8
			H-67.7z"/>
		<path class="st0" d="M-62.9,400.6l-0.6,1.3h-1.3l2.1-4.8h1.6l2.2,4.8h-1.3l-0.6-1.3H-62.9z M-61,400l-0.5-1.2
			c-0.1-0.3-0.2-0.6-0.4-0.9l0,0c-0.1,0.3-0.2,0.6-0.4,0.9l-0.5,1.2H-61z"/>
		<path class="st0" d="M-57.7,397.2h1.2v4h2.7v0.7h-3.9L-57.7,397.2L-57.7,397.2z"/>
		<path class="st0" d="M-53.2,401c0.4,0.1,1,0.3,1.6,0.3c0.8,0,1.2-0.3,1.2-0.6c0-0.4-0.4-0.6-1.2-0.8c-1.1-0.3-1.8-0.7-1.8-1.4
			c0-0.8,0.9-1.3,2.3-1.3c0.7,0,1.3,0.1,1.6,0.2l-0.3,0.7c-0.2-0.1-0.7-0.2-1.3-0.2c-0.8,0-1.1,0.3-1.1,0.6c0,0.4,0.4,0.6,1.3,0.8
			c1.1,0.3,1.7,0.7,1.7,1.4c0,0.8-0.8,1.4-2.5,1.4c-0.7,0-1.4-0.1-1.8-0.3L-53.2,401z"/>
		<path class="st0" d="M-42.8,400.3H-45v1.1h2.3v0.6H-46v-3.9h3.2v0.6H-45v1h2.1L-42.8,400.3L-42.8,400.3z"/>
		<path class="st0" d="M-40.4,398.6H-42V398h4.2v0.6h-1.6v3.4h-1L-40.4,398.6L-40.4,398.6z"/>
		<path class="st0" d="M-34.9,398.1c0.4-0.1,1-0.1,1.6-0.1c1.1,0,1.8,0.1,2.3,0.4c0.6,0.3,0.8,0.8,0.8,1.5c0,0.7-0.4,1.2-0.8,1.6
			c-0.6,0.4-1.4,0.6-2.5,0.6c-0.6,0-1.1,0-1.3-0.1v-3.9H-34.9z M-33.8,401.5c0.1,0,0.4,0,0.6,0c1.3,0,2.1-0.5,2.1-1.5
			c0-0.8-0.7-1.3-2-1.3c-0.4,0-0.6,0-0.7,0.1L-33.8,401.5L-33.8,401.5z"/>
		<path class="st0" d="M-26.6,400.3h-2.1v1.1h2.3v0.6h-3.3v-3.9h3.2v0.6h-2.2v1h2.1V400.3L-26.6,400.3z"/>
		<path class="st0" d="M-26.1,401.3c0.4,0.1,0.8,0.3,1.3,0.3c0.6,0,1-0.2,1-0.6c0-0.3-0.3-0.5-1-0.6c-0.9-0.2-1.5-0.6-1.5-1.1
			c0-0.6,0.8-1.1,2-1.1c0.6,0,1.1,0.1,1.3,0.2l-0.2,0.6c-0.2-0.1-0.6-0.2-1.1-0.2c-0.6,0-0.9,0.2-0.9,0.5c0,0.3,0.4,0.4,1.1,0.6
			c1,0.3,1.4,0.6,1.4,1.2s-0.7,1.2-2.1,1.2c-0.6,0-1.2-0.1-1.5-0.2L-26.1,401.3z"/>
		<path class="st0" d="M-10.7,401.7c-0.6,0.2-1.6,0.4-3,0.4c-3.2,0-5.6-1.4-5.6-4.1c0-2.5,2.4-4.2,5.9-4.2c1.4,0,2.3,0.2,2.7,0.4
			l-0.4,0.8c-0.6-0.2-1.3-0.4-2.3-0.4c-2.7,0-4.4,1.2-4.4,3.3c0,2,1.6,3.2,4.3,3.2c0.9,0,1.8-0.1,2.4-0.4L-10.7,401.7z"/>
		<path class="st0" d="M-4.2,399.6c0,1.6-1.3,2.5-3.2,2.5s-3.1-1.1-3.1-2.4c0-1.5,1.3-2.5,3.2-2.5C-5.3,397.2-4.2,398.2-4.2,399.6z
			 M-9.2,399.6c0,1,0.7,1.8,1.8,1.8c1.2,0,1.8-0.8,1.8-1.8c0-0.9-0.6-1.8-1.8-1.8C-8.6,397.9-9.2,398.6-9.2,399.6z"/>
		<path class="st0" d="M-2.9,402v-4.8h1.4l1.7,2c0.4,0.6,0.8,1.1,1.1,1.6l0,0c-0.1-0.6-0.1-1.3-0.1-2v-1.7h1.1v4.8H1l-1.8-2.1
			c-0.4-0.5-0.8-1.1-1.2-1.6l0,0c0.1,0.6,0.1,1.3,0.1,2v1.7L-2.9,402L-2.9,402z"/>
		<path class="st0" d="M8.9,401.8c-0.4,0.1-1.3,0.3-2.2,0.3c-1.1,0-2-0.2-2.6-0.6s-0.9-1.1-0.9-1.8c0-1.5,1.5-2.5,3.7-2.5
			c0.8,0,1.5,0.1,1.8,0.2l-0.3,0.7c-0.4-0.1-0.8-0.2-1.6-0.2c-1.4,0-2.4,0.6-2.4,1.7s0.9,1.8,2.3,1.8c0.4,0,0.8-0.1,0.9-0.1v-1.2
			H6.4v-0.7h2.3L8.9,401.8L8.9,401.8z"/>
		<path class="st0" d="M10.2,397.3c0.4-0.1,1.1-0.1,1.8-0.1c1,0,1.6,0.1,2,0.4c0.4,0.2,0.6,0.6,0.6,1c0,0.6-0.6,1.1-1.2,1.2l0,0
			c0.5,0.1,0.8,0.5,0.9,0.9c0.2,0.6,0.4,1.1,0.5,1.3h-1.3c-0.1-0.1-0.3-0.6-0.4-1.1c-0.2-0.6-0.5-0.8-1.2-0.8h-0.6v2h-1.2
			L10.2,397.3L10.2,397.3z M11.4,399.4h0.7c0.8,0,1.3-0.3,1.3-0.8s-0.5-0.8-1.3-0.8c-0.4,0-0.6,0-0.8,0.1L11.4,399.4L11.4,399.4z"/>
		<path class="st0" d="M19.5,399.9H17v1.4h2.8v0.7h-4v-4.8h3.9v0.7H17v1.2h2.5V399.9z"/>
		<path class="st0" d="M20.9,401c0.4,0.1,1,0.3,1.6,0.3c0.8,0,1.2-0.3,1.2-0.6c0-0.4-0.4-0.6-1.2-0.8c-1.1-0.3-1.8-0.7-1.8-1.4
			c0-0.8,0.9-1.3,2.3-1.3c0.7,0,1.3,0.1,1.6,0.2l-0.3,0.7c-0.2-0.1-0.7-0.2-1.3-0.2c-0.8,0-1.1,0.3-1.1,0.6c0,0.4,0.4,0.6,1.3,0.8
			c1.1,0.3,1.7,0.7,1.7,1.4c0,0.8-0.8,1.4-2.5,1.4c-0.7,0-1.4-0.1-1.8-0.3L20.9,401z"/>
	</g>
	<g>
		<path class="st0" d="M-2.7,414.6c-0.3,0.1-0.9,0.3-1.8,0.3c-2.2,0-3.5-1.3-3.5-3.5c0-2.3,1.6-3.6,3.7-3.6c0.8,0,1.4,0.1,1.7,0.3
			l-0.3,1c-0.4-0.1-0.8-0.3-1.3-0.3c-1.4,0-2.4,0.8-2.4,2.5c0,1.5,0.8,2.5,2.4,2.5c0.5,0,1.1-0.1,1.3-0.3L-2.7,414.6z"/>
		<path class="st0" d="M1.2,414.8l-0.1-0.6l0,0c-0.3,0.4-0.8,0.6-1.5,0.6c-1,0-1.6-0.7-1.6-1.5c0-1.3,1.1-1.9,2.9-1.8l0,0
			c0-0.4-0.1-0.8-1-0.8c-0.5,0-1,0.1-1.3,0.4l-0.2-0.8c0.4-0.2,1-0.4,1.8-0.4c1.6,0,2,1,2,2v1.8c0,0.4,0,0.8,0.1,1.2L1.2,414.8
			L1.2,414.8z M1,412.3c-0.8,0-1.7,0.1-1.7,0.9c0,0.5,0.3,0.7,0.7,0.7c0.5,0,0.8-0.4,1-0.7c0-0.1,0.1-0.2,0.1-0.3L1,412.3L1,412.3z"
			/>
		<path class="st0" d="M3.8,411.3c0-0.6,0-1.1-0.1-1.5h1.1l0.1,0.7l0,0c0.2-0.4,0.8-0.8,1.6-0.8s1.8,0.6,1.8,2.1v2.9H7V412
			c0-0.7-0.3-1.3-0.9-1.3c-0.5,0-0.8,0.4-1,0.7C5,411.5,5,411.7,5,411.8v2.9H3.7L3.8,411.3L3.8,411.3z"/>
		<path class="st0" d="M9.7,411.3c0-0.6,0-1.1-0.1-1.5h1.1l0.1,0.7l0,0c0.2-0.4,0.8-0.8,1.6-0.8s1.8,0.6,1.8,2.1v2.9h-1.3V412
			c0-0.7-0.3-1.3-0.9-1.3c-0.5,0-0.8,0.4-1,0.7c-0.1,0.1-0.1,0.3-0.1,0.4v2.9H9.6L9.7,411.3L9.7,411.3z"/>
		<path class="st0" d="M16.7,412.7c0,0.9,0.7,1.3,1.6,1.3c0.6,0,1-0.1,1.3-0.2l0.2,0.8c-0.4,0.1-1,0.3-1.7,0.3c-1.6,0-2.5-1-2.5-2.5
			c0-1.3,0.8-2.7,2.4-2.7c1.6,0,2.1,1.3,2.1,2.4c0,0.2,0,0.4-0.1,0.5L16.7,412.7L16.7,412.7z M18.8,411.8c0-0.4-0.2-1.2-1.1-1.2
			c-0.8,0-1.1,0.7-1.1,1.2H18.8z"/>
		<path class="st0" d="M21.1,413.6c0.3,0.1,0.8,0.4,1.3,0.4c0.6,0,0.8-0.2,0.8-0.6s-0.2-0.5-0.8-0.7c-1-0.4-1.3-0.8-1.3-1.4
			c0-0.8,0.7-1.6,1.8-1.6c0.6,0,1,0.1,1.3,0.3l-0.2,0.8c-0.2-0.1-0.6-0.3-1.1-0.3c-0.4,0-0.7,0.2-0.7,0.5s0.2,0.5,0.8,0.7
			c0.9,0.4,1.3,0.8,1.3,1.5c0,0.9-0.7,1.6-2,1.6c-0.6,0-1.1-0.1-1.5-0.4L21.1,413.6z"/>
	</g>
</g>
</svg>
