<?xml version="1.0" encoding="utf-8"?>
<!-- Generator: Adobe Illustrator 19.1.0, SVG Export Plug-In . SVG Version: 6.00 Build 0)  -->
<svg version="1.1" id="Layer_1" xmlns="http://www.w3.org/2000/svg" xmlns:xlink="http://www.w3.org/1999/xlink" x="0px" y="0px"
	 viewBox="-65 303 85.2 33" style="enable-background:new -65 303 85.2 33;" xml:space="preserve">
<style type="text/css">
	.st0{fill:#F5D3A5;}
</style>
<g id="brand-lock-up">
	<g id="brand-text">
		<g>
			<g>
				<path class="st0" d="M18.9,334l-2.7-3.1h-1.8v0.2c0.6,0,0.6,0.1,0.6,0.5v2.6c0,0.9-0.2,1-0.6,1v0.2h1.7v-0.2
					c-0.5,0-0.7-0.1-0.7-0.7v-3.1l3.7,4.1h0.3v-3.9c0-0.6,0.3-0.6,0.6-0.6v-0.2h-1.7v0.2c0.4,0,0.8,0.1,0.8,0.6L18.9,334"/>
				<path class="st0" d="M10.9,330.8c-1.3,0-2.6,0.8-2.6,2.5s1.3,2.5,2.6,2.5s2.6-0.8,2.6-2.5S12.2,330.8,10.9,330.8 M10.9,335.5
					c-0.9,0-1.3-0.8-1.3-2.2c0-1.5,0.4-2.2,1.3-2.2c0.9,0,1.3,0.8,1.3,2.2C12.2,334.7,11.8,335.5,10.9,335.5z"/>
			</g>
		</g>
		<g>
			<path class="st0" d="M4.7,334.9c0,0.3-0.1,0.4-0.6,0.4v0.2h2.3v-0.2c-0.5,0-0.6,0-0.6-0.4v-3.6c0-0.2,0.1-0.2,0.2-0.2
				c0.4,0,1.1,0.4,1.5,1.1l0.2-0.1l-0.3-1.4H7.3c-0.1,0.1-0.3,0.1-0.5,0.1H3.7c-0.1,0-0.2,0-0.2,0c-0.1,0-0.2-0.1-0.2-0.1H3.1
				l-0.3,1.4l0.2,0.1c0.4-0.7,1.1-1.1,1.5-1.1c0.2,0,0.2,0.1,0.2,0.2L4.7,334.9 M-0.9,334.9c0,0.3-0.1,0.4-0.6,0.4v0.2h4.4l0.3-1.4
				H3c-0.6,0.9-1.1,1.1-2.2,1.1c-0.5,0-0.6-0.1-0.6-0.3v-3.5c0-0.3,0.1-0.4,0.6-0.4v-0.2h-2.3v0.2c0.5,0,0.6,0,0.6,0.4L-0.9,334.9"
				/>
			<path class="st0" d="M-3,334.8l-0.8-1.2c-0.2-0.3-0.4-0.4-0.6-0.4v0c0.8-0.1,1.2-0.4,1.2-1c0-0.6-0.5-1.3-2-1.3h-2.3v0.2
				c0.5,0,0.6,0,0.6,0.4v3.4c0,0.3-0.1,0.4-0.6,0.4v0.2h2.3v-0.2c-0.5,0-0.6,0-0.6-0.4v-1.6c0.5,0,0.7,0.1,0.8,0.3l1.1,2h1.6v-0.2
				C-2.5,335.3-2.7,335.3-3,334.8 M-5.4,333.1h-0.4v-2h0.3c1,0,1.2,0.6,1.2,1C-4.3,332.8-4.8,333.1-5.4,333.1L-5.4,333.1z"/>
		</g>
		<g>
			<g>
				<path class="st0" d="M-8.8,334.8l-2-3.8c-0.1-0.1-0.1-0.2-0.2-0.2c-0.1,0-0.2,0.4-0.8,0.8c0.1,0,0.1,0.1,0.1,0.2
					c0,0.1,0,0.1-0.1,0.2l-1.2,2.5c-0.3,0.6-0.5,0.8-0.9,0.8v0.2h1.7v-0.2c-0.5,0-0.6-0.1-0.6-0.3c0-0.1,0.1-0.3,0.3-0.6h2.1
					c0.3,0.4,0.4,0.7,0.4,0.8c0,0.2-0.1,0.2-0.6,0.2v0.2h2.5v-0.2C-8.5,335.3-8.6,335.2-8.8,334.8 M-12.3,334.1l0.9-2l1,2H-12.3z
					 M-14.8,334c-0.4,0.8-1,1.5-1.8,1.5c-0.7,0-1.5-0.5-1.5-2.2c0-1.5,0.6-2.2,1.5-2.2c0.9,0,1.4,0.6,1.8,1.3h0.2v-1.5h-0.2
					c-0.1,0.1-0.2,0.2-0.3,0.2c-0.3,0-0.9-0.2-1.5-0.2c-1.7,0-2.7,1.1-2.7,2.6c0,1.3,1.1,2.4,2.6,2.4c0.9,0,1.5-0.3,1.7-0.3
					c0.2,0,0.3,0.1,0.4,0.3h0.2V334L-14.8,334"/>
			</g>
		</g>
		<g>
			<path class="st0" d="M-29.2,335.6h4.1l0.5-1.4h-0.2c-0.7,0.9-1.1,1.2-1.8,1.2h-1.2l3-4.3v-0.1h-4l-0.4,1.3h0.2
				c0.5-0.7,1.1-1.1,1.7-1.1h1.1l-2.9,4.3L-29.2,335.6 M-32.8,334.9c0,0.3-0.1,0.4-0.6,0.4v0.2h2.3v-0.2c-0.5,0-0.6,0-0.6-0.4v-3.6
				c0-0.2,0.1-0.2,0.2-0.2c0.4,0,1.1,0.4,1.5,1.1l0.2-0.1l-0.3-1.4h-0.2c-0.1,0.1-0.3,0.1-0.5,0.1h-3.1c-0.1,0-0.2,0-0.2,0
				c-0.1,0-0.2-0.1-0.2-0.1h-0.2l-0.3,1.4l0.2,0.1c0.4-0.7,1.1-1.1,1.5-1.1c0.2,0,0.2,0.1,0.2,0.2L-32.8,334.9 M-37.1,334.9
				c0,0.3-0.1,0.4-0.6,0.4v0.2h2.3v-0.2c-0.5,0-0.6,0-0.6-0.4v-3.4c0-0.3,0.1-0.4,0.6-0.4v-0.2h-2.3v0.2c0.5,0,0.6,0,0.6,0.4V334.9"
				/>
			<path class="st0" d="M-39,334.8l-0.8-1.2c-0.2-0.3-0.4-0.4-0.6-0.4v0c0.8-0.1,1.2-0.4,1.2-1c0-0.6-0.5-1.3-2-1.3h-2.3v0.2
				c0.5,0,0.6,0,0.6,0.4v3.4c0,0.3-0.1,0.4-0.6,0.4v0.2h2.3v-0.2c-0.5,0-0.6,0-0.6-0.4v-1.6c0.5,0,0.7,0.1,0.8,0.3l1.1,2h1.6v-0.2
				C-38.5,335.3-38.7,335.3-39,334.8 M-41.4,333.1h-0.4v-2h0.3c1,0,1.2,0.6,1.2,1C-40.3,332.8-40.8,333.1-41.4,333.1L-41.4,333.1z
				 M-51,334.9c0,0.3-0.1,0.4-0.6,0.4v0.2h4.3l0.4-1.4h-0.2c-0.5,0.9-1,1.1-2,1.1c-0.6,0-0.7-0.1-0.7-0.3v-1.8h0.3
				c0.8,0,1.2,0.2,1.4,0.9h0.2v-2.1h-0.2c-0.2,0.7-0.5,0.9-1.4,0.9h-0.3v-1.6c0-0.3,0.1-0.3,0.4-0.3c1,0,1.6,0.3,2.2,1h0.2l-0.5-1.3
				h-4.1v0.2c0.5,0,0.6,0,0.6,0.4V334.9 M-54.3,334.9c0,0.3-0.1,0.4-0.6,0.4v0.2h2.3v-0.2c-0.5,0-0.6,0-0.6-0.4v-3.4
				c0-0.3,0.1-0.4,0.6-0.4v-0.2h-2.3v0.2c0.5,0,0.6,0,0.6,0.4v1.4h-2.4v-1.4c0-0.3,0.1-0.4,0.6-0.4v-0.2h-2.3v0.2
				c0.5,0,0.6,0,0.6,0.4v3.4c0,0.3-0.1,0.4-0.6,0.4v0.2h2.3v-0.2c-0.5,0-0.6,0-0.6-0.4v-1.7h2.4L-54.3,334.9 M-62.2,334.9
				c0,0.3-0.1,0.4-0.6,0.4v0.2h2.3v-0.2c-0.5,0-0.6,0-0.6-0.4v-3.6c0-0.2,0.1-0.2,0.2-0.2c0.4,0,1.1,0.4,1.5,1.1l0.2-0.1l-0.3-1.4
				h-0.2c-0.1,0.1-0.3,0.1-0.5,0.1h-3.1c-0.1,0-0.2,0-0.2,0c-0.1,0-0.2-0.1-0.2-0.1h-0.2l-0.3,1.4l0.2,0.1c0.4-0.7,1.1-1.1,1.5-1.1
				c0.2,0,0.2,0.1,0.2,0.2L-62.2,334.9 M-23.1,333.6h1.6l0.6-0.9h-1.6L-23.1,333.6"/>
		</g>
	</g>
	<g id="brand-mark">
		<path class="st0" d="M-24.9,321.9c0-0.1,0.3-0.4,0.3-0.4c0,0,0.3,0.3,0.3,0.4c0,0-0.3,0.3-0.3,0.3
			C-24.6,322.2-24.9,321.9-24.9,321.9 M-19.7,321.9c0-0.1,0.3-0.4,0.3-0.4c0,0,0.3,0.3,0.3,0.4c0,0-0.3,0.3-0.3,0.3
			C-19.5,322.2-19.7,321.9-19.7,321.9L-19.7,321.9z M-22.3,321.9c0-0.1,0.3-0.4,0.3-0.4c0,0,0.3,0.3,0.3,0.4c0,0-0.3,0.3-0.3,0.3
			C-22.1,322.2-22.3,321.9-22.3,321.9z M-25.2,322.4h1.3c0.1,0,0.2-0.1,0.2-0.2v-0.7c0-0.1-0.1-0.2-0.2-0.2c-0.3,0-0.9,0-1.3,0.1
			c-0.1,0-0.1,0-0.1,0.1v0.7C-25.3,322.4-25.3,322.4-25.2,322.4z M-26.1,321.9c0-0.1,0.2-0.3,0.2-0.3c0,0,0.2,0.2,0.2,0.3
			c0,0-0.2,0.3-0.2,0.3C-25.9,322.2-26.1,322-26.1,321.9z M-23.5,321.9c0-0.1,0.2-0.3,0.2-0.3s0.2,0.2,0.2,0.3c0,0-0.2,0.3-0.2,0.3
			C-23.3,322.1-23.5,321.9-23.5,321.9z M-21.4,322.4c0.1,0,0.2-0.1,0.2-0.2v-0.8c0-0.1-0.1-0.2-0.2-0.2h-1.3c-0.1,0-0.2,0.1-0.2,0.2
			v0.8c0,0.1,0.1,0.2,0.2,0.2H-21.4L-21.4,322.4z M-18.8,322.4c0.1,0,0.1,0,0.1-0.1v-0.7c0-0.1-0.1-0.1-0.1-0.1
			c-0.4,0-1-0.1-1.3-0.1c-0.1,0-0.2,0.1-0.2,0.2v0.7c0,0.1,0.1,0.2,0.2,0.2L-18.8,322.4L-18.8,322.4z M-17.9,321.9
			c0,0-0.2,0.3-0.2,0.3c0,0-0.2-0.2-0.2-0.3c0-0.1,0.2-0.3,0.2-0.3C-18.1,321.7-17.9,321.9-17.9,321.9z M-20.5,321.9
			c0,0-0.2,0.3-0.2,0.3c0,0-0.2-0.2-0.2-0.3c0-0.1,0.2-0.3,0.2-0.3C-20.7,321.6-20.5,321.8-20.5,321.9z M-23.9,306.5L-23.9,306.5
			c0.2,0.6,0.9,0.7,1.1,1.4l0,0c-0.4-0.5-0.9-0.6-1.1-0.9C-23.9,307-23.9,306.8-23.9,306.5z M-22.6,315c0,1-0.9,1.5-1.8,1.5
			c1.2-1.3,0.3-3.1,1.4-4.3C-23.1,313.3-22.6,314.3-22.6,315z M-17.1,317.8c1.2,0,1.9-0.6,1.9-1.6c0-0.3-0.1-0.6-0.1-0.6
			c-0.3,0.3-0.7,0.3-1,0.3c-0.5,0-1.2-0.3-1.2-1.1c0-1,1.1-1.6,1.1-2.7c0-0.3-0.1-0.5-0.1-0.5c0.5-0.7,0.7-1.3,0.7-1.8
			c0-0.9-0.5-1.5-0.5-1.5l0.5,0.3c-0.2-0.9-0.7-1.5-0.7-1.5s0.3,0.1,0.4,0.1c-0.3-0.1-0.7-0.6-0.7-1.5c0-0.9-0.2-1.4-1.9-1.7
			c-0.2-0.4-0.7-0.8-0.9-1c-0.4,0.2-1,0.4-1.2,0.6c0,0-0.5,0-0.7,0c-0.3,0-0.5-0.1-0.7-0.1c-0.4,0-0.7,0.4-0.7,0.4s-0.9,0-1.5,0.1
			c-0.3,0.1-0.5,0.3-0.8,0.9l-1.6,0.9c-0.3,0.2-0.5,0.3-0.5,0.5c0,0.1,0.1,0.4,0.3,0.7c0.2,1,0.3,1.2,0.6,1.2c0.1,0,0.2,0,0.2,0
			c0.1,0.1,0.2,0.3,0.3,0.4c-0.3,0.1-0.6-0.2-1-0.2c-0.2,0-0.6,0.1-0.6,0.5c0,0.1,0.1,0.2,0.1,0.2c0.1,0,0.2,0,0.4,0
			c0.3,0,0.5,0.3,1,0.3c0.2,0,0.3,0,0.3,0c-0.2,0.2-0.4,0.3-0.3,0.5c0.1,0.4,0.5,0.9,0.7,0.9c0.2,0,0.5-0.1,0.5-0.1l-0.2,0.2
			c-1.3,1.1-1,2.4-1,3.6c0,1-0.3,1.6-1,1.6c-0.5,0-1.2-0.3-1.7-1c-0.1,0.2-0.1,0.5-0.1,0.8c0,1.2,1.1,1.9,2.1,1.9
			c0.9,0,1.6-0.3,2.3-0.8c1.9,0,2.5-1.3,2.5-1.3c0.9,1.3,2.6,1.2,2.8,1.2C-18.6,317.6-17.8,317.8-17.1,317.8L-17.1,317.8z
			 M-17,310.8c0,1.4-1.8,1.6-1.8,2.9c0,0.5,0.2,0.9,0.1,1.2c0,0,0.4-0.4,0.4-0.7c0,1,0.5,2.2,1.9,2.2c0.2,0,0.5,0,0.8-0.2
			c0,0-0.1,1-1.2,1c-1.4,0-2.6-1.2-2.6-3.3c0-0.4,0.1-0.9,0.3-1.2c0,0-0.7,0.4-0.7,1.5c0,0-0.3-0.4-0.3-0.9
			C-20.2,311.7-18.2,312.3-17,310.8L-17,310.8z M-18.6,304.5c1.2,0.3,1.1,1.1,1.3,1.6c-0.5-0.7-1.2-1.1-1.2-1.1
			C-18.4,304.7-18.6,304.5-18.6,304.5z M-26,307.8c0.1,0,0.3-0.1,0.3-0.1c0.1,0.1,0.1,0.4,0,0.6C-25.9,308.3-26,308-26,307.8z
			 M-25.3,308.8c-0.1,0.2-0.2,0.5-0.6,0.5c-0.4,0-0.7-0.3-1-0.3c-0.1,0-0.2,0-0.3,0c-0.1,0-0.1,0-0.1-0.1c0-0.1,0.1-0.2,0.3-0.2
			c0.2,0,0.4,0.1,0.7,0.2c0.4,0.1,0.7-0.2,0.9-0.4c0.2-0.2,0.4-0.2,0.5-0.2c0.3,0,0.6,0.2,0.6,0.2c-0.2,0-0.5,0.2-0.8,0.3
			C-25.2,308.8-25.2,308.8-25.3,308.8L-25.3,308.8z M-24.9,309.2c-0.1,0.1-0.3,0.1-0.3,0.1c-0.1-0.2,0-0.4,0-0.4
			C-25.1,309-24.9,309.1-24.9,309.2z M-27,316.5c1.6,0,1.5-1.8,1.5-2.4c0-2.7,0.8-3.3,2.6-4.2c1.4-0.7,2.6-0.9,2.6-2.3
			c0-0.5-0.1-1-0.7-1c0,0,0.2,0.2,0.2,0.5c0,0.1,0,0.3-0.1,0.4c0-0.1,0-0.3-0.1-0.4c-0.2,0.3-0.1,0.7-0.2,0.8c0,0-0.1,0.2-0.5,0.4
			c0,0-0.1,0.1,0.2,0.1c0,0,0.6,0,0.8-0.2c-0.2,0.5-0.4,0.6-0.7,0.6c-0.2,0-0.4,0-0.7,0c-0.4,0-1.3,0.2-1.7,0.8
			c-0.3,0.4-1,0.8-1.3,0.8c-0.2,0-0.6-0.5-0.6-0.8c0-0.3,0.5-0.1,0.8-0.5c0.6-0.6,0.8-0.7,1.5-0.7c0,0,0.4,0,0-0.3l-1-1
			c-0.1-0.1-0.2-0.2-0.4-0.2c-0.1,0-0.2,0-0.5,0.3c-0.6,0.1-0.8,0.2-1,0.3c-0.1,0.1-0.2,0.1-0.2,0.1c-0.1,0-0.2-0.5-0.2-0.6
			c0-0.3,0.3-0.4,0.3-0.6c0-0.1-0.1-0.1-0.1-0.1l-0.4,0.2c0,0-0.2-0.3,0-0.4c0,0,0.7-0.4,1.9-1c0.1,0.4,0.2,0.4,0.5,0.4l-0.1,0
			l-0.1,0.1c0.1,0,0.3,0,0.5-0.1c0.2-0.1,0.4-0.1,0.4-0.1s0.1-0.1,0.1-0.2c-0.1,0-0.3,0-0.4,0.1c0.2-0.1,0.3-0.2,0.3-0.3
			c0,0,0-0.1,0-0.1c-0.1,0-0.2,0.1-0.3,0c-0.1,0-0.1-0.1-0.1-0.2c0-0.1,0.1-0.1,0.3-0.1h0.2c0-0.1-0.3-0.2-0.5-0.2
			c-0.2,0-0.4,0.1-0.6,0.2c0,0,0-0.3,0.3-0.4c0.2-0.1,1-0.2,1.9-0.2c1.2,0,2.1,1,2.3,1c0.1,0,0.1-0.1,0-0.1
			c-0.4-0.3-0.7-0.5-0.7-0.8c0-0.1,0-0.7,1.4-1c0.6,0.5,0.8,0.9,0.8,1.2c0,0.6-0.6,0.6-0.7,0.9c1.6,0.1,2.7,2.2,2.7,3.2
			c0,1.9-1.8,2.6-2.9,2.9c1.6-1.2,2.2-2.4,2.2-3.2c0-1.4-1.2-2.2-1.5-2.3c0.7,0.8,0.9,1.6,0.9,2.2c0,1.2-0.7,1.7-0.7,1.7
			c0.1-0.3,0.2-0.5,0.2-0.7c0-0.2,0-0.3,0-0.3c-0.6,1.5-2.1,2.5-2.2,3.8c-0.1-0.3-0.1-0.6-0.1-0.9c0-1.1,0.7-1.7,0.7-1.7
			c-1.3,0.9-1.6,1.9-1.6,2.7s0.3,1.4,0.3,1.4c-0.1-0.3,0-0.8,0-1.2c0.1,1.1,0.7,2.5,2.3,3.4c-2.7,0-3.8-3.2-2.7-5.3
			c-1.9,0.5-2.1,2.5-2.2,3.6c-0.1-0.6-0.2-1.1-0.2-1.4c0-2,1.7-2.6,2.9-3.1c1.9-0.8,2.6-1.5,2.6-2.7c0-1.3-1.5-2-2.6-1.8l0.4,0.4
			c0.1,0.1,0.2,0.1,0.2,0.1c1.2,0.6,1.3,1.3,1.3,1.7c0,1.1-1.2,1.6-2,2c-2.8,1.2-3.3,1.7-3.3,3.4c0,1.3,0.4,3.2-1,3.4
			c0.1,0.2,0.6,0.2,0.6,0.2c-0.4,0.3-0.8,0.4-1.3,0.4c-0.5,0-1.4-0.1-1.7-1.1C-28,316.3-27.6,316.5-27,316.5L-27,316.5z
			 M-19.8,305.1l0.1,0.1c0,0,0.6-0.3,0.6-0.7c0,0,0-0.2-0.1-0.4c-0.1,0-0.1,0.1-0.1,0.2c0,0.1-0.1,0.2-0.3,0.2
			c-0.1,0-0.4-0.1-0.4-0.4c0-0.2,0.1-0.3,0.1-0.4c0,0,0,0,0,0c-0.5,0.2-0.6,0.4-0.6,0.6C-20.4,304.6-20.3,304.8-19.8,305.1
			L-19.8,305.1z M-26.2,306.5c0,0.1,0.1,0.1,0.2,0.1c0.1-0.1,0.3-0.3,0.3-0.5C-25.9,306.2-26.2,306.2-26.2,306.5z M-15.4,317.5
			l-0.1,0c-0.1,0.2-0.6,0.6-1.3,0.6l0,0.1c0.3,0.3,0.2,1-0.1,1c-0.2,0-0.3-0.2-0.4-0.4l-0.1,0c-0.1,0.1-0.4,0.3-0.4,0.3
			c0,0.2,0,0.5,0.1,0.6h0.1c0.1-0.1,0.2-0.2,0.3-0.2c0.2,0,0.3,0.1,0.3,0.3c0,0.3-0.2,0.6-0.7,0.6c-0.5,0-0.9-0.2-0.9-0.8
			c0-0.3,0.1-0.6,0.5-0.7v-0.1c-0.3-0.2-0.5-0.5-0.6-0.7h-0.1c-0.1,0.1-0.4,0.4-0.7,0.5v0.1c0.3,0.3,0.3,0.5,0.3,0.7
			c0,0.4-0.4,0.7-1.1,0.7c-0.6,0-1.1-0.2-1.1-0.7c0-0.3,0.2-0.5,0.4-0.5c0.2,0,0.4,0.1,0.5,0.3h0.1c0.1-0.2,0.2-0.3,0.4-0.5v-0.1
			c-0.1-0.1-0.3-0.3-0.4-0.5h-0.1c-0.2,0.3-0.4,0.3-0.6,0.3c-0.1,0-0.3-0.1-0.3-0.3c0-0.3,0.4-0.4,0.7-0.5v-0.1
			c-0.5-0.2-1-0.7-1.1-1.1h-0.1c-0.1,0.3-0.6,0.9-1.1,1.1v0.1c0.3,0.1,0.7,0.2,0.7,0.5c0,0.2-0.2,0.3-0.3,0.3c-0.2,0-0.4,0-0.6-0.3
			h-0.1c-0.2,0.2-0.3,0.4-0.4,0.5v0.1c0.2,0.2,0.3,0.3,0.4,0.5h0.1c0.1-0.2,0.3-0.3,0.5-0.3c0.2,0,0.4,0.2,0.4,0.5
			c0,0.6-0.6,0.7-1.1,0.7c-0.8,0-1.1-0.3-1.1-0.7c0-0.2,0-0.4,0.3-0.7v-0.1c-0.3-0.1-0.6-0.4-0.7-0.5h-0.1c-0.1,0.2-0.3,0.5-0.6,0.7
			v0.1c0.4,0.2,0.5,0.5,0.5,0.7c0,0.5-0.4,0.8-0.9,0.8c-0.5,0-0.7-0.3-0.7-0.6c0-0.2,0.1-0.3,0.3-0.3c0.1,0,0.2,0,0.3,0.2h0.1
			c0-0.2,0.1-0.4,0.1-0.6c-0.1-0.1-0.3-0.3-0.4-0.3l-0.1,0c0,0.2-0.1,0.4-0.4,0.4c-0.4,0-0.4-0.7-0.1-1l0-0.1
			c-0.7,0-1.2-0.4-1.3-0.6l0,0l1.4,3.2c0,0-0.3,0.1-0.2,0.4c0.1,0.5,0.5,1.1,0.5,1.8c0,0.3,0,0.3,0,0.5c0,0.1,0.1,0.2,0.2,0.2h9.4
			c0.1,0,0.2-0.1,0.2-0.2c0-0.1,0-0.2,0-0.5c0-0.7,0.4-1.3,0.5-1.8c0.1-0.2-0.2-0.4-0.2-0.4L-15.4,317.5L-15.4,317.5z M-22,322.7
			c-2.6,0-4.3,0-4.3,0l-0.4-1.4c0,0,2.3-0.3,4.7-0.3c2.3,0,4.7,0.3,4.7,0.3l-0.4,1.4C-17.7,322.7-19.4,322.7-22,322.7L-22,322.7z"/>
	</g>
</g>
</svg>
