<svg id="Layer_1" data-name="Layer 1" xmlns="http://www.w3.org/2000/svg" width="64.52mm" height="23.28mm" viewBox="0 0 182.88 66"><defs><style>.cls-1{fill:#fff;}</style></defs><title>logo-ielpe-milp</title><path class="cls-1" d="M69.68,41.25c2.76-5.79,2.59-11-.48-14.23a8.21,8.21,0,0,0-6.14-2.6,11.84,11.84,0,0,0-8.27,3.67,20.52,20.52,0,0,0-5.35,10.56,3,3,0,0,0-.08.32c-1.49,8.44.25,17.32,3.21,25.26A2.71,2.71,0,0,0,55.11,66a2.6,2.6,0,0,0,.94-.17,2.7,2.7,0,0,0,1.6-3.48c-.55-1.49-1.12-3.09-1.55-4.71-.2-.74-.39-1.49-.57-2.27C60.94,52.33,67,46.91,69.68,41.25ZM59.56,45.34c-.37.32-.75.65-1.12,1a49.36,49.36,0,0,1-3.95,3.28,33.77,33.77,0,0,1,.14-9.29c0-.11.06-.23.08-.34a15.16,15.16,0,0,1,4-8.16,6.48,6.48,0,0,1,4.34-2,2.88,2.88,0,0,1,2.2.9c1.68,1.79.86,5.4-.47,8.18A20.56,20.56,0,0,1,59.56,45.34Z" transform="translate(-0.74 0)"/><path class="cls-1" d="M44.33.51C40.25-1,35.53,1,33,3.67a20.58,20.58,0,0,0-2.47,3.17c-2.24,3.57-5.58,11.55-7.6,19.89C21.4,32.9,20.36,39.47,21.33,45.8A16.89,16.89,0,0,0,27,55.66c3.13,2.73,7.51,4.15,12.83,4.15l1.47,0a26.55,26.55,0,0,0,6.93-1.39c-.35-1.47-.77-3.53-1.1-5.35A21.94,21.94,0,0,1,41,54.36c-3.43.16-8-.28-11-3.22C35.62,45.38,39.89,37.76,42.63,32c3.55-7.45,6-14.91,6.6-18.43C50.5,6.86,48.72,2.1,44.33.51ZM43.9,12.63v.07a79.24,79.24,0,0,1-6.15,17C35.32,34.77,31.64,41.4,27,46.52c-1-4.67-.6-11.08,1.21-18.51,1.87-7.69,5-15.16,6.92-18.28A15.71,15.71,0,0,1,36.91,7.4C38.21,6,40.71,5,42.49,5.6,44.88,6.47,44.17,11.2,43.9,12.63Z" transform="translate(-0.74 0)"/><path class="cls-1" d="M13.11,21.29a2.69,2.69,0,1,0-1.32-3.59A2.71,2.71,0,0,0,13.11,21.29Z" transform="translate(-0.74 0)"/><path class="cls-1" d="M7.73,25.54a39.39,39.39,0,0,0-6.87,18C.07,52,3.13,58,9.05,59.45a13.15,13.15,0,0,0,3.17.38c4,0,8-1.68,11.3-3.5l.13-.07A16.29,16.29,0,0,1,20.14,52L20,52a18.06,18.06,0,0,1-7.81,2.37,7.5,7.5,0,0,1-1.85-.21C5.91,53.07,6,46.69,6.25,44a34.17,34.17,0,0,1,6-15.45,2.71,2.71,0,0,0-4.5-3Z" transform="translate(-0.74 0)"/><path class="cls-1" d="M82.38,20.5H81V9.88h1.4Z" transform="translate(-0.74 0)"/><path class="cls-1" d="M86,12.6l0,1a2.87,2.87,0,0,1,2.36-1.14q2.5,0,2.52,2.82V20.5H89.58V15.27A1.78,1.78,0,0,0,89.19,14,1.56,1.56,0,0,0,88,13.6a2,2,0,0,0-1.15.35,2.38,2.38,0,0,0-.77.92V20.5H84.73V12.6Z" transform="translate(-0.74 0)"/><path class="cls-1" d="M94.8,10.69V12.6h1.47v1.05H94.8v4.9a1.11,1.11,0,0,0,.2.71.81.81,0,0,0,.67.24,3.2,3.2,0,0,0,.64-.09V20.5a4.19,4.19,0,0,1-1,.14,1.69,1.69,0,0,1-1.36-.54,2.36,2.36,0,0,1-.46-1.56V13.65H92V12.6h1.44V10.69Z" transform="translate(-0.74 0)"/><path class="cls-1" d="M101.12,20.64a3.45,3.45,0,0,1-2.61-1.05,3.91,3.91,0,0,1-1-2.82v-.25a4.76,4.76,0,0,1,.45-2.1A3.44,3.44,0,0,1,99.21,13a3.14,3.14,0,0,1,1.75-.52,3,3,0,0,1,2.39,1,4.41,4.41,0,0,1,.85,2.91v.56H98.86a2.77,2.77,0,0,0,.68,1.88,2.14,2.14,0,0,0,1.66.72,2.41,2.41,0,0,0,1.21-.29,3,3,0,0,0,.87-.77l.82.64A3.32,3.32,0,0,1,101.12,20.64ZM101,13.57a1.79,1.79,0,0,0-1.37.59,2.91,2.91,0,0,0-.69,1.67h3.95v-.1a2.6,2.6,0,0,0-.55-1.6A1.71,1.71,0,0,0,101,13.57Z" transform="translate(-0.74 0)"/><path class="cls-1" d="M109.58,13.82a3.52,3.52,0,0,0-.66-.06,1.79,1.79,0,0,0-1.81,1.13V20.5h-1.35V12.6h1.32l0,.92A2.09,2.09,0,0,1,109,12.46a1.38,1.38,0,0,1,.6.1Z" transform="translate(-0.74 0)"/><path class="cls-1" d="M112.1,12.6l0,1a2.87,2.87,0,0,1,2.36-1.14c1.67,0,2.51.94,2.53,2.82V20.5h-1.35V15.27a1.88,1.88,0,0,0-.39-1.26,1.6,1.6,0,0,0-1.2-.41,2,2,0,0,0-1.15.35,2.38,2.38,0,0,0-.77.92V20.5h-1.35V12.6Z" transform="translate(-0.74 0)"/><path class="cls-1" d="M123.93,20.5a3.3,3.3,0,0,1-.19-.83,3,3,0,0,1-2.24,1,2.8,2.8,0,0,1-1.92-.66,2.12,2.12,0,0,1-.74-1.67,2.26,2.26,0,0,1,.93-1.92,4.48,4.48,0,0,1,2.64-.68h1.31v-.62A1.53,1.53,0,0,0,123.3,14a1.74,1.74,0,0,0-1.25-.41,2,2,0,0,0-1.21.36,1.09,1.09,0,0,0-.49.88H119a1.87,1.87,0,0,1,.42-1.14,2.77,2.77,0,0,1,1.13-.87,3.91,3.91,0,0,1,1.58-.32,3.16,3.16,0,0,1,2.14.68,2.45,2.45,0,0,1,.8,1.88v3.63a4.34,4.34,0,0,0,.28,1.73v.12Zm-2.23-1a2.36,2.36,0,0,0,1.2-.33,2,2,0,0,0,.82-.85V16.67h-1c-1.66,0-2.48.48-2.48,1.45a1.23,1.23,0,0,0,.42,1A1.61,1.61,0,0,0,121.7,19.47Z" transform="translate(-0.74 0)"/><path class="cls-1" d="M129,10.69V12.6h1.47v1.05H129v4.9a1.06,1.06,0,0,0,.2.71.81.81,0,0,0,.67.24,3.2,3.2,0,0,0,.64-.09V20.5a4.26,4.26,0,0,1-1,.14,1.69,1.69,0,0,1-1.36-.54,2.36,2.36,0,0,1-.46-1.56V13.65h-1.44V12.6h1.44V10.69Z" transform="translate(-0.74 0)"/><path class="cls-1" d="M132.08,10.51a.76.76,0,0,1,.2-.55.75.75,0,0,1,.59-.23.78.78,0,0,1,.6.23.77.77,0,0,1-.6,1.32.78.78,0,0,1-.59-.22A.76.76,0,0,1,132.08,10.51Zm1.45,10h-1.35V12.6h1.35Z" transform="translate(-0.74 0)"/><path class="cls-1" d="M135.34,16.48a4.72,4.72,0,0,1,.45-2.09,3.34,3.34,0,0,1,3.13-1.93,3.36,3.36,0,0,1,2.61,1.11,4.33,4.33,0,0,1,1,3v.1a4.76,4.76,0,0,1-.44,2.07,3.35,3.35,0,0,1-1.26,1.42,3.52,3.52,0,0,1-1.89.51,3.34,3.34,0,0,1-2.6-1.11,4.31,4.31,0,0,1-1-3Zm1.35.16a3.43,3.43,0,0,0,.61,2.11,2.08,2.08,0,0,0,3.27,0,3.73,3.73,0,0,0,.6-2.26,3.39,3.39,0,0,0-.61-2.11,2,2,0,0,0-1.64-.8,1.91,1.91,0,0,0-1.61.79A3.66,3.66,0,0,0,136.69,16.64Z" transform="translate(-0.74 0)"/><path class="cls-1" d="M145.49,12.6l0,1a2.89,2.89,0,0,1,2.37-1.14q2.5,0,2.52,2.82V20.5h-1.35V15.27a1.78,1.78,0,0,0-.39-1.26,1.56,1.56,0,0,0-1.19-.41,2,2,0,0,0-1.15.35,2.49,2.49,0,0,0-.78.92V20.5h-1.35V12.6Z" transform="translate(-0.74 0)"/><path class="cls-1" d="M157.33,20.5a2.91,2.91,0,0,1-.19-.83,3,3,0,0,1-2.25,1A2.77,2.77,0,0,1,153,20a2.13,2.13,0,0,1-.75-1.67,2.24,2.24,0,0,1,.94-1.92,4.43,4.43,0,0,1,2.63-.68h1.32v-.62a1.5,1.5,0,0,0-.43-1.13,1.72,1.72,0,0,0-1.24-.41,2,2,0,0,0-1.21.36,1.06,1.06,0,0,0-.49.88h-1.36a1.87,1.87,0,0,1,.42-1.14,2.8,2.8,0,0,1,1.14-.87,3.88,3.88,0,0,1,1.58-.32,3.11,3.11,0,0,1,2.13.68,2.46,2.46,0,0,1,.81,1.88v3.63a4.54,4.54,0,0,0,.27,1.73v.12Zm-2.24-1a2.36,2.36,0,0,0,1.2-.33,2,2,0,0,0,.83-.85V16.67h-1.06c-1.65,0-2.48.48-2.48,1.45a1.23,1.23,0,0,0,.42,1A1.63,1.63,0,0,0,155.09,19.47Z" transform="translate(-0.74 0)"/><path class="cls-1" d="M162.05,20.5H160.7V9.29h1.35Z" transform="translate(-0.74 0)"/><path class="cls-1" d="M82.28,36.16h5V37.3H80.87V26.68h1.41Z" transform="translate(-0.74 0)"/><path class="cls-1" d="M93.45,36.52a2.86,2.86,0,0,1-2.31.93,2.44,2.44,0,0,1-1.92-.73,3.17,3.17,0,0,1-.67-2.17V29.41H89.9v5.1c0,1.2.48,1.79,1.46,1.79a2,2,0,0,0,2-1.15V29.41h1.35V37.3H93.48Z" transform="translate(-0.74 0)"/><path class="cls-1" d="M99.46,32.29l1.75-2.88h1.58l-2.58,3.9,2.66,4h-1.56l-1.83-2.95L97.66,37.3H96.09l2.66-4-2.58-3.9h1.56Z" transform="translate(-0.74 0)"/><path class="cls-1" d="M109.09,36.52a2.87,2.87,0,0,1-2.31.93,2.44,2.44,0,0,1-1.92-.73,3.17,3.17,0,0,1-.67-2.17V29.41h1.35v5.1c0,1.2.48,1.79,1.46,1.79a2,2,0,0,0,2-1.15V29.41h1.35V37.3h-1.28Z" transform="translate(-0.74 0)"/><path class="cls-1" d="M116.27,30.62a4.68,4.68,0,0,0-.67-.05,1.79,1.79,0,0,0-1.8,1.13v5.6h-1.35V29.41h1.32l0,.91a2.1,2.1,0,0,1,1.88-1.05,1.38,1.38,0,0,1,.6.1Z" transform="translate(-0.74 0)"/><path class="cls-1" d="M120.22,35.33l1.84-5.92h1.44l-3.17,9.11c-.49,1.31-1.27,2-2.34,2l-.26,0-.5-.1V39.28l.37,0a1.73,1.73,0,0,0,1.06-.28,2,2,0,0,0,.64-1l.29-.8-2.81-7.81h1.47Z" transform="translate(-0.74 0)"/><path class="cls-1" d="M130,33.15V37.3h-1.4V26.68h3.91a4,4,0,0,1,2.74.89,3,3,0,0,1,1,2.36,3,3,0,0,1-1,2.38,4.11,4.11,0,0,1-2.77.84ZM130,32h2.51a2.56,2.56,0,0,0,1.73-.53,1.92,1.92,0,0,0,.59-1.53,2,2,0,0,0-.59-1.52,2.34,2.34,0,0,0-1.64-.59H130Z" transform="translate(-0.74 0)"/><path class="cls-1" d="M141.65,30.62a4.68,4.68,0,0,0-.67-.05,1.79,1.79,0,0,0-1.8,1.13v5.6h-1.35V29.41h1.31l0,.91a2.1,2.1,0,0,1,1.88-1.05,1.38,1.38,0,0,1,.6.1Z" transform="translate(-0.74 0)"/><path class="cls-1" d="M142.28,33.28a4.57,4.57,0,0,1,.46-2.08A3.28,3.28,0,0,1,144,29.77a3.4,3.4,0,0,1,1.85-.5,3.33,3.33,0,0,1,2.61,1.11,4.32,4.32,0,0,1,1,3v.09a4.63,4.63,0,0,1-.45,2.07,3.31,3.31,0,0,1-1.26,1.43,3.46,3.46,0,0,1-1.88.51,3.3,3.3,0,0,1-2.6-1.12,4.24,4.24,0,0,1-1-2.95Zm1.36.16a3.35,3.35,0,0,0,.61,2.11,2.05,2.05,0,0,0,3.26,0,3.72,3.72,0,0,0,.61-2.26,3.38,3.38,0,0,0-.62-2.1,2,2,0,0,0-3.25,0A3.65,3.65,0,0,0,143.64,33.44Z" transform="translate(-0.74 0)"/><path class="cls-1" d="M157.83,33.44a4.74,4.74,0,0,1-.83,2.91,2.65,2.65,0,0,1-2.23,1.1,2.88,2.88,0,0,1-2.26-.91v3.8h-1.35V29.41h1.23l.07.88a2.78,2.78,0,0,1,2.29-1A2.68,2.68,0,0,1,157,30.34a4.78,4.78,0,0,1,.83,3Zm-1.35-.15a3.5,3.5,0,0,0-.57-2.11,1.84,1.84,0,0,0-1.56-.77,2,2,0,0,0-1.84,1.09v3.77a2,2,0,0,0,1.85,1.08,1.82,1.82,0,0,0,1.54-.77A3.82,3.82,0,0,0,156.48,33.29Z" transform="translate(-0.74 0)"/><path class="cls-1" d="M162.81,37.45a3.45,3.45,0,0,1-2.61-1.05,3.94,3.94,0,0,1-1-2.82v-.25a4.76,4.76,0,0,1,.45-2.1,3.38,3.38,0,0,1,1.25-1.44,3.14,3.14,0,0,1,1.75-.52,3,3,0,0,1,2.39,1,4.38,4.38,0,0,1,.85,2.9v.56h-5.34a2.79,2.79,0,0,0,.68,1.89,2.14,2.14,0,0,0,1.66.72,2.41,2.41,0,0,0,1.21-.29,3.21,3.21,0,0,0,.87-.78l.82.64A3.31,3.31,0,0,1,162.81,37.45Zm-.16-7.08a1.77,1.77,0,0,0-1.37.6,2.88,2.88,0,0,0-.69,1.67h3.95v-.11a2.59,2.59,0,0,0-.55-1.59A1.69,1.69,0,0,0,162.65,30.37Z" transform="translate(-0.74 0)"/><path class="cls-1" d="M171.27,30.62a4.65,4.65,0,0,0-.66-.05,1.79,1.79,0,0,0-1.81,1.13v5.6h-1.35V29.41h1.32l0,.91a2.1,2.1,0,0,1,1.88-1.05,1.38,1.38,0,0,1,.6.1Z" transform="translate(-0.74 0)"/><path class="cls-1" d="M174.7,27.5v1.91h1.48v1H174.7v4.9a1.12,1.12,0,0,0,.2.72.83.83,0,0,0,.67.23,3,3,0,0,0,.64-.08V37.3a3.77,3.77,0,0,1-1,.15,1.69,1.69,0,0,1-1.37-.55,2.37,2.37,0,0,1-.45-1.55v-4.9h-1.44v-1h1.44V27.5Z" transform="translate(-0.74 0)"/><path class="cls-1" d="M180.34,35.33l1.83-5.92h1.45l-3.17,9.11c-.5,1.31-1.28,2-2.35,2l-.25,0-.5-.1V39.28l.36,0a1.77,1.77,0,0,0,1.07-.28,2,2,0,0,0,.63-1l.3-.8-2.82-7.81h1.48Z" transform="translate(-0.74 0)"/><path class="cls-1" d="M86.88,49.2h-4.6V53h5.34v1.14H80.87V43.49h6.68v1.14H82.28v3.43h4.6Z" transform="translate(-0.74 0)"/><path class="cls-1" d="M91.8,49.1l1.75-2.88h1.58l-2.58,3.9,2.66,4H93.65l-1.83-3-1.82,3H88.43l2.66-4-2.58-3.9h1.56Z" transform="translate(-0.74 0)"/><path class="cls-1" d="M103.23,50.25a4.71,4.71,0,0,1-.83,2.9,2.63,2.63,0,0,1-2.23,1.11,2.89,2.89,0,0,1-2.26-.92v3.8H96.56V46.22h1.23l.07.87a2.78,2.78,0,0,1,2.29-1,2.7,2.7,0,0,1,2.25,1.07,4.81,4.81,0,0,1,.83,3Zm-1.35-.15a3.5,3.5,0,0,0-.57-2.11,1.82,1.82,0,0,0-1.56-.77,2,2,0,0,0-1.84,1.08v3.78a2,2,0,0,0,1.85,1.07,1.81,1.81,0,0,0,1.54-.76A3.84,3.84,0,0,0,101.88,50.1Z" transform="translate(-0.74 0)"/><path class="cls-1" d="M104.58,50.09A4.62,4.62,0,0,1,105,48a3.4,3.4,0,0,1,1.27-1.43,3.49,3.49,0,0,1,1.85-.5,3.3,3.3,0,0,1,2.61,1.12,4.25,4.25,0,0,1,1,3v.09a4.76,4.76,0,0,1-.44,2.07,3.4,3.4,0,0,1-1.27,1.43,3.46,3.46,0,0,1-1.88.51,3.33,3.33,0,0,1-2.6-1.12,4.24,4.24,0,0,1-1-3Zm1.36.16a3.35,3.35,0,0,0,.61,2.11,2.07,2.07,0,0,0,3.26,0,3.66,3.66,0,0,0,.61-2.26,3.36,3.36,0,0,0-.62-2.1,2,2,0,0,0-3.25,0A3.63,3.63,0,0,0,105.94,50.25Z" transform="translate(-0.74 0)"/></svg>