<?xml version="1.0" encoding="utf-8"?>
<!-- Generator: Adobe Illustrator 19.1.0, SVG Export Plug-In . SVG Version: 6.00 Build 0)  -->
<svg version="1.1" id="Layer_1" xmlns="http://www.w3.org/2000/svg" xmlns:xlink="http://www.w3.org/1999/xlink" x="0px" y="0px"
	 width="552.5px" height="89.9px" viewBox="0 0 552.5 89.9" style="enable-background:new 0 0 552.5 89.9;" xml:space="preserve">
<style type="text/css">
	.st0{fill:#F6D3A3;}
</style>
<g>
	<g>
		<g>
			<path class="st0" d="M163.1,25.6h1.3v19.1h-1.3V25.6z"/>
			<path class="st0" d="M169.5,30.8h1.1l0.1,2.1h0.1c1.4-1.4,2.9-2.5,4.8-2.5c2.9,0,4.2,1.7,4.2,5.3v8.9h-1.3v-8.8
				c0-3-0.9-4.4-3.2-4.4c-1.7,0-2.8,0.9-4.6,2.6v10.5h-1.3L169.5,30.8L169.5,30.8z"/>
			<path class="st0" d="M184.7,40.9v-9h-2.2v-1l2.2-0.1l0.2-4h1.1v4h4v1.1h-4V41c0,1.8,0.4,3,2.4,3c0.5,0,1.2-0.2,1.7-0.4l0.3,1
				c-0.8,0.3-1.7,0.5-2.3,0.5C185.5,45.1,184.7,43.4,184.7,40.9z"/>
			<path class="st0" d="M191.8,37.8c0-4.6,3-7.3,6.1-7.3c3.3,0,5.3,2.4,5.3,6.4c0,0.3,0,0.7-0.1,1h-10c0.1,3.5,2.1,6,5.3,6
				c1.5,0,2.7-0.5,3.7-1.2l0.5,1c-1.1,0.7-2.4,1.4-4.4,1.4C194.7,45.1,191.8,42.4,191.8,37.8z M202,36.9c0-3.6-1.6-5.3-4.1-5.3
				c-2.4,0-4.5,2-4.8,5.3H202z"/>
			<path class="st0" d="M206.9,30.8h1.1l0.1,2.6h0.1c0.9-1.7,2.3-2.9,3.9-2.9c0.5,0,0.9,0.1,1.4,0.3l-0.3,1.2
				c-0.5-0.2-0.7-0.2-1.3-0.2c-1.2,0-2.7,1-3.8,3.6v9.5h-1.2V30.8L206.9,30.8z"/>
			<path class="st0" d="M216.3,30.8h1.1l0.1,2.1h0.1c1.4-1.4,2.9-2.5,4.8-2.5c2.9,0,4.2,1.7,4.2,5.3v8.9h-1.3v-8.8
				c0-3-0.9-4.4-3.2-4.4c-1.7,0-2.8,0.9-4.6,2.6v10.5h-1.3L216.3,30.8L216.3,30.8z"/>
			<path class="st0" d="M230.2,41.3c0-3.1,2.8-4.6,9-5.3c0-2.1-0.6-4.4-3.3-4.4c-1.9,0-3.5,0.9-4.4,1.6l-0.6-1
				c1-0.7,2.9-1.8,5.2-1.8c3.3,0,4.4,2.4,4.4,5.4v8.9h-1.1l-0.1-1.8h-0.1c-1.4,1.1-3.1,2.1-4.9,2.1
				C232.1,45.1,230.2,43.9,230.2,41.3z M239.2,41.8v-4.7c-5.7,0.7-7.7,2-7.7,4.2c0,2,1.4,2.8,3,2.8C236.1,44,237.5,43.2,239.2,41.8z
				"/>
			<path class="st0" d="M245.3,40.9v-9h-2.2v-1l2.2-0.1l0.2-4h1.1v4h4v1.1h-4V41c0,1.8,0.4,3,2.4,3c0.5,0,1.2-0.2,1.7-0.4l0.3,1
				c-0.8,0.3-1.7,0.5-2.3,0.5C246.1,45.1,245.3,43.4,245.3,40.9z"/>
			<path class="st0" d="M253.6,26.3c0-0.7,0.5-1.2,1.2-1.2c0.6,0,1.2,0.4,1.2,1.2c0,0.7-0.5,1.1-1.2,1.1
				C254.1,27.5,253.6,27,253.6,26.3z M254.1,30.8h1.3v13.9h-1.3V30.8z"/>
			<path class="st0" d="M259.2,37.8c0-4.7,2.9-7.3,6.2-7.3c3.4,0,6.3,2.7,6.3,7.3c0,4.6-2.9,7.3-6.3,7.3
				C262.1,45.1,259.2,42.4,259.2,37.8z M270.3,37.8c0-3.7-2.1-6.2-4.9-6.2s-4.9,2.5-4.9,6.2s2.1,6.2,4.9,6.2
				C268.2,44,270.3,41.5,270.3,37.8z"/>
			<path class="st0" d="M275.6,30.8h1.1l0.1,2.1h0.1c1.4-1.4,2.9-2.5,4.8-2.5c2.9,0,4.2,1.7,4.2,5.3v8.9h-1.3v-8.8
				c0-3-0.9-4.4-3.2-4.4c-1.7,0-2.8,0.9-4.6,2.6v10.5h-1.3L275.6,30.8L275.6,30.8z"/>
			<path class="st0" d="M289.6,41.3c0-3.1,2.8-4.6,9-5.3c0-2.1-0.6-4.4-3.3-4.4c-1.9,0-3.5,0.9-4.4,1.6l-0.6-1
				c1-0.7,2.9-1.8,5.2-1.8c3.3,0,4.4,2.4,4.4,5.4v8.9h-1.1l-0.1-1.8h-0.1c-1.4,1.1-3.1,2.1-4.9,2.1
				C291.4,45.1,289.6,43.9,289.6,41.3z M298.6,41.8v-4.7c-5.7,0.7-7.7,2-7.7,4.2c0,2,1.4,2.8,3,2.8C295.5,44,296.9,43.2,298.6,41.8z
				"/>
			<path class="st0" d="M304.5,42.9v-19h1.3v19.2c0,0.6,0.3,0.9,0.6,0.9c0.1,0,0.2,0,0.5-0.1l0.2,1c-0.3,0.1-0.5,0.1-0.9,0.1
				C305.1,45.1,304.5,44.4,304.5,42.9z"/>
			<path class="st0" d="M317.6,25.6h10.5v1.2H319V34h7.7v1.2H319v8.4h9.4v1.2h-10.8L317.6,25.6L317.6,25.6z"/>
			<path class="st0" d="M335.5,37.5l-4.4-6.6h1.4l2.3,3.5c0.5,0.8,1,1.5,1.5,2.3h0.1c0.5-0.8,0.9-1.5,1.4-2.3l2.2-3.5h1.3l-4.3,6.8
				l4.7,7.2h-1.4l-2.4-3.9c-0.5-0.9-1.1-1.7-1.7-2.6h-0.1c-0.6,0.8-1,1.7-1.6,2.6l-2.4,3.8h-1.4L335.5,37.5z"/>
			<path class="st0" d="M344.8,30.8h1.1l0.1,1.7h0.1c1.4-1.1,3-2.1,4.7-2.1c3.7,0,5.6,2.8,5.6,7.1c0,4.7-2.9,7.5-6.2,7.5
				c-1.3,0-2.7-0.6-4.2-1.7V51h-1.3V30.8H344.8z M355.1,37.6c0-3.4-1.2-6-4.4-6c-1.4,0-2.9,0.8-4.6,2.3v8.3c1.6,1.3,3,1.8,4.1,1.8
				C353,44,355.1,41.4,355.1,37.6z"/>
			<path class="st0" d="M359.5,37.8c0-4.7,2.9-7.3,6.2-7.3c3.4,0,6.3,2.7,6.3,7.3c0,4.6-2.9,7.3-6.3,7.3
				C362.4,45.1,359.5,42.4,359.5,37.8z M370.7,37.8c0-3.7-2.1-6.2-4.9-6.2s-4.9,2.5-4.9,6.2s2.1,6.2,4.9,6.2S370.7,41.5,370.7,37.8z
				"/>
			<path class="st0" d="M162.7,60.9h11.4v2.8H166v4.9h6.8v2.8H166V77h8.4v2.8h-11.7L162.7,60.9L162.7,60.9z"/>
			<path class="st0" d="M177.6,65.7h2.8l0.2,1.9h0.1c1.2-1.3,2.6-2.3,4.4-2.3c2.1,0,3.3,1,3.9,2.6c1.4-1.5,2.8-2.6,4.6-2.6
				c3,0,4.4,2.1,4.4,5.7v8.9h-3.4v-8.5c0-2.4-0.7-3.2-2.2-3.2c-0.9,0-1.9,0.6-3,1.8v10h-3.3v-8.5c0-2.4-0.7-3.2-2.2-3.2
				c-0.9,0-1.9,0.6-3,1.8v10h-3.3V65.7L177.6,65.7z"/>
			<path class="st0" d="M201.6,61.3c0-1.1,0.9-1.9,2.1-1.9s2.1,0.8,2.1,1.9s-0.9,1.9-2.1,1.9C202.5,63.2,201.6,62.4,201.6,61.3z
				 M202,65.7h3.3V80H202V65.7z"/>
			<path class="st0" d="M208.4,82.5c0-1.2,0.7-2.2,2-3v-0.1c-0.7-0.5-1.3-1.2-1.3-2.4c0-1.1,0.8-2.1,1.6-2.6v-0.1
				c-1-0.7-1.9-2.1-1.9-3.8c0-3.3,2.6-5.1,5.6-5.1c0.8,0,1.5,0.1,2.1,0.3h5.1v2.5H219c0.5,0.6,0.8,1.4,0.8,2.4
				c0,3.2-2.4,4.8-5.4,4.8c-0.6,0-1.3-0.1-1.9-0.4c-0.4,0.4-0.7,0.7-0.7,1.4c0,0.8,0.6,1.3,2.3,1.3h2.5c3.4,0,5.2,1,5.2,3.5
				c0,2.8-3,5-7.6,5C211,86.2,208.4,85,208.4,82.5z M218.7,81.8c0-1.1-0.9-1.4-2.5-1.4h-1.9c-0.8,0-1.4-0.1-1.9-0.2
				c-0.8,0.6-1.1,1.2-1.1,1.9c0,1.3,1.4,2,3.7,2C217.2,84,218.7,83,218.7,81.8z M217,70.4c0-1.8-1.1-2.8-2.5-2.8s-2.5,1-2.5,2.8
				s1.1,2.9,2.5,2.9S217,72.3,217,70.4z"/>
			<path class="st0" d="M224.3,65.7h2.8l0.2,2.5h0.1c1-1.9,2.5-2.9,4-2.9c0.7,0,1.2,0.1,1.6,0.3l-0.6,2.9c-0.5-0.1-0.9-0.2-1.5-0.2
				c-1.1,0-2.5,0.8-3.4,2.9v8.7h-3.3L224.3,65.7L224.3,65.7z"/>
			<path class="st0" d="M234.6,76.1c0-3,2.5-4.6,8.4-5.3c-0.1-1.5-0.7-2.8-2.6-2.8c-1.4,0-2.7,0.6-4,1.4l-1.2-2.2
				c1.6-1,3.6-1.9,5.9-1.9c3.5,0,5.3,2.2,5.3,6.2v8.4h-2.8l-0.2-1.6h-0.1c-1.3,1.1-2.7,1.9-4.4,1.9
				C236.3,80.3,234.6,78.6,234.6,76.1z M243,76.1v-3.2c-3.9,0.5-5.2,1.5-5.2,2.9c0,1.3,0.9,1.8,2.1,1.8
				C241,77.7,241.9,77.1,243,76.1z"/>
			<path class="st0" d="M250.6,75.1v-6.8h-2v-2.5l2.2-0.1l0.4-3.9h2.8v3.9h3.6v2.6h-3.7v6.8c0,1.7,0.6,2.5,2,2.5
				c0.5,0,1.1-0.1,1.5-0.3l0.6,2.5c-0.8,0.3-1.8,0.5-2.9,0.5C251.8,80.3,250.6,78.2,250.6,75.1z"/>
			<path class="st0" d="M260.1,61.3c0-1.1,0.9-1.9,2.1-1.9c1.2,0,2.1,0.8,2.1,1.9s-0.9,1.9-2.1,1.9
				C260.9,63.2,260.1,62.4,260.1,61.3z M260.4,65.7h3.3V80h-3.3V65.7z"/>
			<path class="st0" d="M266.9,72.8c0-4.8,3.2-7.5,6.8-7.5s6.8,2.7,6.8,7.5c0,4.7-3.2,7.5-6.8,7.5S266.9,77.5,266.9,72.8z
				 M277.1,72.8c0-2.9-1.3-4.8-3.4-4.8s-3.3,1.9-3.3,4.8c0,2.8,1.2,4.7,3.3,4.7S277.1,75.7,277.1,72.8z"/>
			<path class="st0" d="M283.7,65.7h2.8l0.2,1.9h0.1c1.3-1.2,2.7-2.3,4.7-2.3c3,0,4.4,2.1,4.4,5.7v8.9h-3.3v-8.5
				c0-2.4-0.7-3.2-2.2-3.2c-1.2,0-2.1,0.6-3.3,1.8v10h-3.3V65.7H283.7z"/>
			<path class="st0" d="M304.8,74.9c0-2.6,1.7-4.2,3.6-5.4c-0.8-1.5-1.2-2.9-1.2-4.2c0-2.6,1.9-4.7,4.8-4.7c2.6,0,4.2,1.6,4.2,4
				c0,2.5-2.1,4.1-4.1,5.5c1.2,1.6,2.7,3.1,4.3,4.4c1-1.4,1.9-3.1,2.4-5.1h3.1c-0.7,2.4-1.8,4.6-3.3,6.6c1.2,0.8,2.4,1.3,3.4,1.5
				l-0.8,2.7c-1.5-0.3-3-1-4.6-2c-1.5,1.2-3.4,2-5.7,2C307.1,80.3,304.8,77.9,304.8,74.9z M314.3,76.6c-1.7-1.4-3.3-3.1-4.5-4.8
				c-1.1,0.9-1.8,1.8-1.8,3c0,1.8,1.4,3,3.3,3C312.3,77.7,313.3,77.3,314.3,76.6z M310.7,68.1c1.6-1,2.8-1.9,2.8-3.4
				c0-1-0.4-1.8-1.5-1.8c-1.2,0-2,1-2,2.4C310,66.2,310.3,67.1,310.7,68.1z"/>
			<path class="st0" d="M331,60.9h3.4V77h7.9v2.8H331L331,60.9L331,60.9z"/>
			<path class="st0" d="M344.9,74.6v-8.9h3.3v8.5c0,2.4,0.7,3.2,2.2,3.2c1.2,0,2.1-0.6,3.2-2v-9.8h3.3v14.3h-2.7l-0.3-2.1l0,0
				c-1.2,1.5-2.6,2.4-4.6,2.4C346.2,80.3,344.9,78.2,344.9,74.6z"/>
			<path class="st0" d="M363.9,72.5l-4.2-6.8h3.6l1.6,2.7c0.4,0.8,0.9,1.6,1.3,2.4h0.1c0.3-0.8,0.8-1.6,1.1-2.4l1.4-2.7h3.5
				l-4.2,7.2l4.5,7.1h-3.7l-1.7-2.8c-0.5-0.8-1-1.7-1.5-2.5h-0.1c-0.4,0.8-0.8,1.7-1.2,2.5l-1.5,2.8h-3.5L363.9,72.5z"/>
			<path class="st0" d="M374.8,74.6v-8.9h3.3v8.5c0,2.4,0.7,3.2,2.2,3.2c1.2,0,2.1-0.6,3.2-2v-9.8h3.3v14.3h-2.7l-0.3-2.1h-0.1
				c-1.2,1.5-2.6,2.4-4.6,2.4C376.1,80.3,374.8,78.2,374.8,74.6z"/>
			<path class="st0" d="M390.9,65.7h2.8l0.2,2.5h0.1c1-1.9,2.5-2.9,4-2.9c0.7,0,1.2,0.1,1.6,0.3l-0.6,2.9c-0.5-0.1-0.9-0.2-1.5-0.2
				c-1.1,0-2.5,0.8-3.4,2.9v8.7h-3.2V65.7L390.9,65.7z"/>
			<path class="st0" d="M401.9,85.5l0.6-2.6c0.3,0.1,0.7,0.2,1,0.2c1.5,0,2.4-1,2.8-2.4l0.3-0.9L401,65.7h3.4l2.5,7
				c0.4,1.2,0.8,2.7,1.2,4h0.1c0.3-1.3,0.7-2.7,1.1-4l2.1-7h3.2l-5.2,14.9c-1.2,3.2-2.7,5.2-5.8,5.2
				C402.9,85.8,402.4,85.7,401.9,85.5z"/>
			<path class="st0" d="M423.5,60.9h6c4.2,0,7.3,1.5,7.3,5.9c0,4.2-3.1,6.2-7.2,6.2h-2.7v7h-3.4V60.9L423.5,60.9z M429.4,70.3
				c2.8,0,4.2-1.1,4.2-3.5s-1.5-3.2-4.3-3.2h-2.4v6.6h2.5V70.3z"/>
			<path class="st0" d="M439.8,65.7h2.8l0.2,2.5h0.1c1-1.9,2.5-2.9,4-2.9c0.7,0,1.2,0.1,1.6,0.3l-0.6,2.9c-0.5-0.1-0.9-0.2-1.5-0.2
				c-1.1,0-2.5,0.8-3.4,2.9v8.7h-3.3V65.7H439.8z"/>
			<path class="st0" d="M449.6,72.8c0-4.8,3.2-7.5,6.8-7.5s6.8,2.7,6.8,7.5c0,4.7-3.2,7.5-6.8,7.5S449.6,77.5,449.6,72.8z
				 M459.7,72.8c0-2.9-1.3-4.8-3.4-4.8s-3.3,1.9-3.3,4.8c0,2.8,1.2,4.7,3.3,4.7S459.7,75.7,459.7,72.8z"/>
			<path class="st0" d="M466.4,65.7h2.8l0.2,1.5h0.1c1.2-1,2.7-1.9,4.3-1.9c3.5,0,5.6,2.8,5.6,7.3c0,4.9-2.9,7.7-6.1,7.7
				c-1.2,0-2.5-0.6-3.7-1.6l0.1,2.4v4.5h-3.3L466.4,65.7L466.4,65.7z M475.9,72.6c0-2.8-0.9-4.5-3.1-4.5c-1,0-2,0.5-3.1,1.6v6.6
				c1,0.9,2,1.2,2.9,1.2C474.5,77.5,475.9,75.8,475.9,72.6z"/>
			<path class="st0" d="M481.9,72.8c0-4.6,3.2-7.5,6.6-7.5c3.9,0,5.9,2.8,5.9,6.8c0,0.6-0.1,1.3-0.1,1.6h-9.1c0.3,2.5,1.9,4,4.2,4
				c1.2,0,2.3-0.4,3.3-1l1.1,2.1c-1.4,0.9-3.1,1.5-4.9,1.5C484.9,80.3,481.9,77.5,481.9,72.8z M491.4,71.4c0-2.2-1-3.5-2.9-3.5
				c-1.7,0-3.1,1.2-3.4,3.5H491.4z"/>
			<path class="st0" d="M497.5,65.7h2.8l0.2,2.5h0.1c1-1.9,2.5-2.9,4-2.9c0.7,0,1.2,0.1,1.6,0.3l-0.6,2.9c-0.5-0.1-0.9-0.2-1.5-0.2
				c-1.1,0-2.5,0.8-3.4,2.9v8.7h-3.3V65.7H497.5z"/>
			<path class="st0" d="M509.8,75.1v-6.8h-2v-2.5l2.2-0.1l0.4-3.9h2.8v3.9h3.6v2.6h-3.6v6.8c0,1.7,0.6,2.5,2,2.5
				c0.5,0,1.1-0.1,1.5-0.3l0.6,2.5c-0.8,0.3-1.8,0.5-2.9,0.5C511,80.3,509.8,78.2,509.8,75.1z"/>
			<path class="st0" d="M519.5,85.5l0.6-2.6c0.3,0.1,0.7,0.2,1,0.2c1.5,0,2.4-1,2.8-2.4l0.3-0.9l-5.6-14.1h3.4l2.5,7
				c0.4,1.2,0.8,2.7,1.2,4h0.1c0.3-1.3,0.7-2.7,1.1-4l2.1-7h3.2L527,80.6c-1.2,3.2-2.7,5.2-5.8,5.2C520.5,85.8,520,85.7,519.5,85.5z
				"/>
		</g>
	</g>
	<g>
		<path class="st0" d="M132.9,36.8c-2.2-2.3-5.1-3.5-8.4-3.6c-4,0-8.3,1.9-11.3,5c-3.8,4-6.3,9-7.3,14.4c0,0.1-0.1,0.3-0.1,0.4
			c-2,11.5,0.3,23.6,4.4,34.5c0.6,1.5,2,2.4,3.5,2.4c0.4,0,0.9-0.1,1.3-0.2c1.9-0.7,2.9-2.8,2.2-4.8c-0.8-2-1.5-4.2-2.1-6.4
			c-0.3-1-0.5-2-0.8-3.1c7.4-4.2,15.6-11.5,19.3-19.3C137.3,48.4,137.1,41.3,132.9,36.8z M126.9,53.1c-1.4,2.9-3.7,5.8-7.1,8.8
			c-0.5,0.4-1,0.9-1.5,1.4c-1.8,1.6-3.6,3.2-5.4,4.5c-0.5-4-0.5-8.3,0.2-12.7c0-0.2,0.1-0.3,0.1-0.5c0.6-4.2,2.5-8,5.5-11.1
			c1.5-1.6,3.9-2.7,5.9-2.7c1.2,0,2.2,0.4,3,1.2C129.8,44.3,128.7,49.3,126.9,53.1z"/>
		<g>
			<path class="st0" d="M94.4,74.1c-4.7,0.2-11-0.4-14.9-4.4c7.6-7.9,13.4-18.2,17.2-26.1c4.8-10.2,8.2-20.3,9-25.1
				C107.4,9.3,105,2.8,99,0.7c-5.6-2-12,0.6-15.5,4.3c-1.3,1.3-2.4,2.8-3.4,4.3C77,14.2,72.5,25,69.7,36.4c-2,8.4-3.5,17.4-2.1,26
				c0.8,5.1,3.7,10,7.7,13.4c4.3,3.7,10.2,5.7,17.5,5.7c0.7,0,1.3,0,2,0c2.9-0.1,6.2-0.8,9.5-1.9c-0.5-2-1.1-4.8-1.5-7.3
				C99.9,73.3,96.9,74,94.4,74.1z M76.9,38.2c2.6-10.5,6.8-20.7,9.4-24.9c0.7-1.1,1.6-2.2,2.5-3.2c1.8-1.9,5.2-3.3,7.6-2.5
				c3.3,1.2,2.3,7.6,1.9,9.6l0,0l0,0c-0.6,3.3-3.3,12.6-8.4,23.2c-3.3,6.9-8.3,16-14.7,23C73.9,57.1,74.5,48.3,76.9,38.2z"/>
			<ellipse class="st0" cx="19.3" cy="25.7" rx="3.7" ry="3.7"/>
			<path class="st0" d="M55.3,74.1c-4.1,0.2-9.5-0.3-13.4-3.1c0.4-0.3,0.9-0.6,1.3-0.9c5.5-3.9,9.7-8.8,12.2-14
				c3.8-7.9,3.5-15-0.7-19.4c-2.2-2.3-5.1-3.5-8.4-3.6l0,0c-4,0-8.3,1.9-11.3,5c-2.1,2.2-4.1,5.1-5.4,7.9c-2.5,5.5-3.2,12-1.7,17.9
				c2.9,11.4,14.6,17.6,25.7,17.6c0.7,0,1.3,0,2,0c5.8-0.3,11.3-2,15.8-4.9c-1.8-1.8-3.3-3.8-4.4-6C63.7,72.6,59.5,73.9,55.3,74.1z
				 M36.6,65.6c-2.2-3.6-2.1-7.8-1.8-10.3c0-0.1,0-0.3,0.1-0.4c0.1-0.2,0.1-0.4,0.1-0.5c0.6-4.2,2.5-8,5.5-11.1
				c1.5-1.6,3.9-2.7,5.9-2.7l0,0c1.2,0,2.2,0.4,3,1.2c2.3,2.4,1.2,7.4-0.6,11.2c-1.9,4.1-5.3,7.9-9.8,11.1
				C38.1,64.6,37.3,65.2,36.6,65.6z"/>
			<path class="st0" d="M27.4,70.9L27.3,71c-3.4,1.8-7.2,3.2-10.6,3.2c-0.9,0-1.7-0.1-2.5-0.3c-6.1-1.5-6-10.2-5.6-13.9
				c0.6-6.7,3.4-14,8.1-21.1c1.1-1.7,0.7-4-1-5.1s-4-0.7-5.1,1C5.2,42.9,2,51.3,1.2,59.3C0.1,70.9,4.3,79,12.4,81
				c1.4,0.4,2.9,0.5,4.3,0.5c5.4,0,10.9-2.3,15.4-4.8c0.1,0,0.1-0.1,0.2-0.1C30.2,75.1,28.6,73.1,27.4,70.9z"/>
		</g>
	</g>
	<g>
		<g>
			<path class="st0" d="M540.2,66.9h-2.1v-1.5h6v1.5H542v6.3h-1.8L540.2,66.9L540.2,66.9z"/>
			<path class="st0" d="M545.3,65.4h1.9l1.3,3.5c0.2,0.5,0.3,1,0.5,1.4l0,0c0.2-0.5,0.3-1,0.4-1.4l1.2-3.5h1.9v7.8h-1.6v-2.9
				c0-0.8,0.1-1.9,0.2-2.6l0,0l-0.6,1.8l-1.1,3h-1l-1.1-3l-0.6-1.8l0,0c0.1,0.8,0.2,1.9,0.2,2.6v2.9h-1.6L545.3,65.4L545.3,65.4z"/>
		</g>
	</g>
</g>
<g>
</g>
<g>
</g>
<g>
</g>
<g>
</g>
<g>
</g>
<g>
</g>
<g>
</g>
<g>
</g>
<g>
</g>
<g>
</g>
<g>
</g>
<g>
</g>
<g>
</g>
<g>
</g>
<g>
</g>
</svg>
