<?xml version="1.0" encoding="utf-8"?>
<!-- Generator: Adobe Illustrator 19.1.0, SVG Export Plug-In . SVG Version: 6.00 Build 0)  -->
<svg version="1.1" id="Layer_1" xmlns="http://www.w3.org/2000/svg" xmlns:xlink="http://www.w3.org/1999/xlink" x="0px" y="0px"
	 width="326.6px" height="46.5px" viewBox="974 -120.1 326.6 46.5" style="enable-background:new 974 -120.1 326.6 46.5;"
	 xml:space="preserve">
<style type="text/css">
	.st0{fill:#FFFFFF;}
</style>
<path class="st0" d="M999.1-114.4c0-3.6-3.4-4.7-6.3-4.6v0.3c1.7,0.1,3,0.8,3,2c0,0.8-0.6,1.8-2.3,1.8c-2-0.2-3.9-0.8-5.7-1.5
	c-2-0.8-4.2-1.3-6.3-1.5c-3.3-0.1-6.1,2.5-6.3,5.8c0,0,0,0.1,0,0.1c0,1.8,1.2,3.4,2.9,3.9v-0.1c-0.6-0.4-1-1.1-0.9-1.9
	c0-1.3,1.1-2.3,2.3-2.3c0.1,0,0.1,0,0.2,0c2.3,0.3,4.6,0.8,6.7,1.6c2.2,0.7,4.4,1.2,6.7,1.5v5.8l-2.8,2.3l2.8,2.4v8
	c-1.4,0.8-3,1.2-4.6,1.2c-2.7,0.1-5.3-1-7.1-3l7.6-3.7v-12.6l-9.2,4.1c0.9-2.3,2.6-4.2,4.7-5.5v-0.1c-5.5,1.5-10.4,6.5-10.4,12.7
	c-0.1,7.1,5.6,12.9,12.7,13c0,0,0.1,0,0.1,0c6.3,0.1,11.6-4.9,11.7-11.2c0-0.3,0-0.5,0-0.8h-0.1c-1.1,2.4-2.8,4.4-5,5.7v-7.8
	l2.9-2.4l-2.9-2.3v-5.8c2.9,0.2,5.3-2.1,5.5-4.9C999-114.3,999-114.4,999.1-114.4L999.1-114.4z M983.5-93.9l-2.1,1.2
	c-1.5-2.1-2.3-4.6-2.2-7.2c0-1.4,0.2-2.9,0.6-4.2l3.8-1.7L983.5-93.9L983.5-93.9z M1018.1-104.1l-1.4,1.2l-4.4-3.9l-5.1,3.9v-15.2
	l-6.9,4.8c1.2,0.3,1.9,1.4,1.8,2.5v21l-2.4,1.8l0.2,0.2l1.2-0.8l4.1,3.8l5.5-3.7l-0.2-0.3l-1.4,0.9l-1.9-1.9v-12.6l1.3-1l3,2.6v11
	c0,7-1.5,8.4-4.7,9.5v0.2c5.2,0.2,9.9-1.5,9.9-10.5v-12l1.6-1.3L1018.1-104.1L1018.1-104.1z M1027.4-85l8-6.4l-0.2-0.3l-4.2,3.3
	l-4.8-3.8v-2.4l8.3-5.9l-4.2-6.5l-9.2,5.1v12.1l-1.8,1.4l0.2,0.3l1.7-1.3L1027.4-85L1027.4-85z M1026.2-95v-9.2l4,6.3L1026.2-95
	L1026.2-95z M1068.5-116.2c0-0.6-0.1-1.2-0.4-1.7h-0.1c-0.6,1.5-1.2,2.4-3,2.4c-1.3-0.1-2.6-0.7-3.4-1.7l-5.2,6.1l0.3,0.2l1.5-1.7
	c1.2,1.2,2.9,1.9,4.7,1.9v15.3L1052-114c-0.8-1.4-2.3-3.5-4.7-3.5c-2.9,0-5.1,2.5-4.7,6.7h0.2c0.2-1.1,0.8-2.4,2.1-2.4
	c1,0,1.8,1,2.3,1.8v6c-3.3,0-5.2,1.5-5.2,4.2c0,1.8,1.3,3.4,3.1,3.8v-0.1c-0.4-0.3-0.6-0.7-0.6-1.2c0-1,0.7-1.6,2.1-1.6
	c0.2,0,0.4,0,0.7,0.1v7.8c-3.9,0-6.9,2.2-6.9,5.9c0,3.5,3,5.1,6.2,5v-0.1c-2-0.2-3-1.2-3-2.7c-0.1-1.3,0.9-2.4,2.2-2.4
	c0.1,0,0.3,0,0.4,0c1.4,0.1,2.6,0.8,3.4,2l5.2-5.9l-0.2-0.2l-1.3,1.5c-1.5-1.6-3.5-2.6-5.6-3v-18.5l14.9,25.9h0.7v-25.8
	C1066.1-110.8,1068.5-113.2,1068.5-116.2L1068.5-116.2z M1073.5-85l8-6.4l-0.2-0.3l-4.2,3.3l-4.8-3.8v-2.4l8.3-5.9l-4.2-6.5
	l-9.2,5.1v12.1l-1.8,1.3l0.2,0.3l1.7-1.3L1073.5-85L1073.5-85z M1072.3-95.1v-9.2l4,6.3L1072.3-95.1z M1110-104.9l-1.2,0.9l-3.5-3
	l-4.1,3.7l1.7,1.6V-88l-4.2-2.8V-102l1.4-1l-4.3-4l-4,3.7l1.7,1.6v13.3l-0.3,0.2l-3.9-2.8V-102c0-2.5-1.3-3.3-2.9-4.3
	c-1.3-0.8-2.1-1.6-2.1-2.9c0.1-1,0.7-1.8,1.6-2.2c-1.4,0-5.3,1.3-5.4,4.9c0,1.4,0.6,2.7,1.8,3.5c1.1,0.8,1.7,1.9,1.8,3.2v10.7
	l-1.9,1.5l0.2,0.2l1.8-1.4l4.7,3.8l4.5-3.1l4.9,3.1l9.6-5.7v-12.3l2.1-1.7L1110-104.9L1110-104.9z M1142.2-115.2l-1.8,1.7l-4.1-3.6
	l-5.5,4.4v-4.2h-0.4v30c-0.6-0.1-1.9-0.4-3.3-0.7v-25.1c0-2.4-1.9-4.4-4.4-4.4c-0.1,0-0.2,0-0.2,0c-2.9,0-5.3,2.3-5.3,5.2h0.1
	c0.1-1.1,0.9-2,2-2.1c1.2,0,2.1,0.7,2.1,3.2v7.2c-3.1,0.1-5,2.1-5,4.2c-0.1,1.8,1.3,3.4,3.1,3.5v-0.2c-0.8-0.4-1-0.7-1-1.2
	c0-1.1,1-1.4,2.4-1.4h0.4v11.6c-2.7,0.9-3.9,2.7-3.9,5c0,3.1,2.5,5.4,6.1,5.4c2.3,0,4.5-0.4,6.7-1c1.7-0.4,3.3-0.7,5-0.8
	c1.4,0,2,0.6,2,1.6c0,1.3-0.5,1.9-1.2,2.1v0.2c3-0.6,4.8-2.3,4.8-5c0-2.7-2.7-4.5-5.6-4.5c-2.2,0.1-4.4,0.5-6.6,1
	c-1.8,0.4-3.7,0.7-5.5,0.8c-1.3,0-2.8-0.6-2.8-2.3c0-1.5,1.3-2.7,4.4-2.7c1.8,0,3.7,0.3,5.5,0.7c2.2,0.5,3.8,1.2,5.7,1.2
	c2.7,0,4.8-1,4.8-4.9v-22.9l2-1.8l-0.2-0.3L1142.2-115.2z M1134.7-103.2c-0.5,0.6-1.2,1-2,1c-0.8,0-1.5-0.4-2-1v-9.1l1.3-1.1
	l2.7,2.3V-103.2L1134.7-103.2z M1134.7-98.9c-0.5-0.5-1.2-0.9-2-0.8c-0.8,0-1.5,0.3-2,0.8v-3.8c0.5,0.5,1.3,0.9,2,0.9
	c0.8,0,1.5-0.3,2-0.9V-98.9z M1134.7-89.8c0,1.5-0.7,3.2-2.7,3.2c-0.3,0-1,0-1.3-0.1v-11.7c0.5-0.6,1.3-0.9,2-0.9
	c0.8,0,1.5,0.3,2,0.9V-89.8L1134.7-89.8z M1150.3-85l8.9-5.6v-12.2l-5.7-4.2l-8.9,5.1v12l-1.8,1.4l0.2,0.3l1.4-1.2L1150.3-85
	L1150.3-85z M1149.6-91.3v-13l4.5,3.3v12.9L1149.6-91.3L1149.6-91.3z M1176.3-106.7c-0.6,0.4-1.2,0.7-2,0.7c-0.8,0-1.5-0.4-2-1
	l-3.3,3.6l-3.3-3.6l-5.4,3.8l0.2,0.3l1.4-1l2,2.1V-90l-2.4,1.8l0.2,0.2l1.2-0.8l4.4,3.8l5.6-3.7l-0.2-0.3l-1.4,0.9l-2.3-2.1v-12.9
	c0.8,1.1,1.9,1.7,3.2,1.9C1174.5-101.2,1176-103.9,1176.3-106.7L1176.3-106.7L1176.3-106.7z M1197.4-89.3l-1.7,1.1l-9.2-13.8
	l0.5-0.7c1.1,0.9,2.5,1.4,3.8,1.4c1.9,0,4.4-2,4.6-5.7c-0.7,0.9-1.8,1.5-3,1.4c-1.1-0.1-2.2-0.6-3-1.4l-6.3,9.3l8.4,12.7l6.1-4
	L1197.4-89.3L1197.4-89.3z M1186.2-88.9l-1.4,0.9l-1.9-1.9v-28.3l-6.9,4.8c1.2,0.3,1.9,1.4,1.8,2.5v21l-2.4,1.8l0.2,0.2l1.2-0.8
	l4.1,3.8l5.5-3.7L1186.2-88.9L1186.2-88.9z M1226.9-114.4c0-3.6-3.4-4.7-6.3-4.6v0.3c1.7,0.1,3,0.8,3,2c0,0.8-0.6,1.8-2.3,1.8
	c-2-0.2-3.9-0.8-5.7-1.5c-2-0.8-4.2-1.3-6.3-1.5c-3.4-0.1-6.2,2.5-6.3,5.8c0,0,0,0.1,0,0.1c0,1.8,1.2,3.4,2.9,3.9v-0.1
	c-0.6-0.4-1-1.1-0.9-1.9c0-1.3,1.1-2.3,2.3-2.3c0.1,0,0.1,0,0.2,0c2.3,0.3,4.6,0.8,6.7,1.6c2.2,0.7,4.4,1.2,6.7,1.5v5.8l-2.8,2.3
	l2.8,2.4v8c-1.4,0.8-3,1.2-4.6,1.2c-2.7,0.1-5.3-1-7.1-3l7.6-3.7v-12.6l-9.1,4.1c0.9-2.3,2.6-4.2,4.7-5.5v-0.1
	c-5.5,1.5-10.5,6.5-10.5,12.7c-0.1,7.1,5.6,12.9,12.7,13c0,0,0.1,0,0.1,0c6.3,0.1,11.6-4.9,11.7-11.2c0-0.3,0-0.5,0-0.8h-0.1
	c-1.1,2.4-2.8,4.4-5,5.7v-7.8l2.9-2.4l-2.9-2.4v-5.8c2.9,0.2,5.3-2.1,5.5-4.9C1226.9-114.3,1226.9-114.4,1226.9-114.4L1226.9-114.4z
	 M1211.3-93.9l-2.1,1.2c-1.5-2.1-2.3-4.6-2.2-7.2c0-1.4,0.2-2.9,0.6-4.2l3.8-1.7L1211.3-93.9L1211.3-93.9z M1232.5-115.8l-3.8,3.2
	l3.3,3.7l3.9-3.3L1232.5-115.8L1232.5-115.8z M1238.3-88.9l-1.4,0.9l-1.9-1.9v-12.8l1.6-1.3l-0.2-0.3l-1.3,1.1l-3.2-3.8l-5.2,3.7
	l0.2,0.3l1.3-0.9l1.8,2.2v11.7l-2.4,1.8l0.2,0.2l1.2-0.8l4.1,3.8l5.5-3.7L1238.3-88.9L1238.3-88.9z M1267.9-89l-1.3,0.9l-2.1-2
	v-12.5l1.7-1.3l-0.2-0.3l-1.5,1.2l-4.4-3.9l-5,3.8l-4.3-3.9l-4.9,3.8l-3.3-3.8l-5.2,3.7l0.2,0.3l1.3-0.9l1.9,2.1V-90l-1.4,1.4
	l4.2,3.6l4.1-3.7l-1.7-1.6v-12.5l1.2-0.8l3,2.6V-90l-1.4,1.4l4.2,3.6l4-3.7l-1.7-1.6v-12.5l1.1-0.8l3.1,2.7v10.8l-1.3,1.3l4.3,3.9
	l5.6-3.8L1267.9-89L1267.9-89z M1283.1-91.7l-4.2,3.3l-4.8-3.8v-2.4l8.3-5.9l-4.2-6.5l-9.2,5.1v12.3l6.3,4.6l8-6.4L1283.1-91.7
	L1283.1-91.7z M1274.1-95v-9.2l4,6.3L1274.1-95L1274.1-95z M1299.2-96.8l-3.6-2.8c2-1.6,3.1-4,3.2-6.6c0-0.3,0-0.7-0.1-1.2h-0.1
	c-0.4,1.1-1.5,1.8-2.7,1.7c-1.2-0.1-2.4-0.7-3.1-1.8l-8.1,4.5v6.7l3.1,2.5c-3.1,2.7-3.7,4.5-3.7,6.1c0,1.6,1,3.1,2.5,3.6l0.1-0.2
	c-0.5-0.3-0.8-0.8-0.7-1.4c0.1-1,1-1.7,2-1.6c1.4,0.1,2.6,0.8,3.4,1.9l7.8-4.8L1299.2-96.8L1299.2-96.8z M1297.4-102.2
	c-1.2,2.2-3.9,4.3-5.5,5.6l-2-1.8v-6.4c0.7,1.9,2.5,3.1,4.5,3.2C1295.4-101.5,1296.5-101.8,1297.4-102.2L1297.4-102.2z M1294-87.7
	c-0.9-2.1-2.8-3.5-5.1-3.6c-1.2-0.1-2.5,0.2-3.6,0.8c1.7-2.4,3.9-4.4,6.5-5.8l2.1,1.8L1294-87.7L1294-87.7z"/>
</svg>
