<?xml version="1.0" encoding="utf-8"?>
<!-- Generator: Adobe Illustrator 19.1.0, SVG Export Plug-In . SVG Version: 6.00 Build 0)  -->
<svg version="1.1" id="Layer_1" xmlns="http://www.w3.org/2000/svg" xmlns:xlink="http://www.w3.org/1999/xlink" x="0px" y="0px"
	 width="54.4px" height="52px" viewBox="591.8 -498 54.4 52" style="enable-background:new 591.8 -498 54.4 52;"
	 xml:space="preserve">
<style type="text/css">
	.st0{fill:#E1D8C8;}
</style>
<path class="st0" d="M604.2-481.1v35.1h-11.7v-35.1H604.2z M604.9-491.9c0,1.7-0.6,3.2-1.8,4.3s-2.8,1.7-4.8,1.7h-0.1
	c-1.9,0-3.5-0.6-4.7-1.7s-1.8-2.6-1.8-4.3c0-1.7,0.6-3.2,1.8-4.3c1.2-1.1,2.8-1.7,4.8-1.7s3.5,0.6,4.7,1.7
	C604.3-495.1,604.9-493.7,604.9-491.9z M646.2-466.1v20.1h-11.7v-18.8c0-2.5-0.5-4.4-1.4-5.8c-1-1.4-2.5-2.1-4.5-2.1
	c-1.5,0-2.7,0.4-3.7,1.2c-1,0.8-1.8,1.8-2.2,3c-0.3,0.7-0.4,1.7-0.4,2.9v19.6h-11.7c0-9.4,0.1-17.1,0.1-22.9c0-5.9,0-9.4,0-10.5
	l0-1.7h11.7v5.1h-0.1c0.5-0.8,1-1.4,1.5-2c0.5-0.6,1.2-1.2,2-1.8s1.9-1.2,3.1-1.5s2.6-0.5,4.1-0.5c4,0,7.3,1.3,9.7,4
	S646.2-471.3,646.2-466.1z"/>
</svg>
