<?xml version="1.0" encoding="utf-8"?>
<!-- Generator: Adobe Illustrator 19.1.0, SVG Export Plug-In . SVG Version: 6.00 Build 0)  -->
<svg version="1.1" id="Layer_1" xmlns="http://www.w3.org/2000/svg" xmlns:xlink="http://www.w3.org/1999/xlink" x="0px" y="0px"
	 width="714px" height="102px" viewBox="0 0 714 102" style="enable-background:new 0 0 714 102;" xml:space="preserve">
<style type="text/css">
	.st0{display:none;}
	.st1{display:inline;fill:#565656;}
	.st2{display:inline;}
	.st3{fill:none;stroke:#FFFFFF;stroke-width:2;stroke-miterlimit:10;}
	.st4{fill:none;stroke:#FFFFFF;stroke-width:2;stroke-linecap:round;stroke-linejoin:round;stroke-miterlimit:22.9256;}
	.st5{fill:none;stroke:#FFFFFF;stroke-width:2;stroke-miterlimit:22.9256;}
	.st6{fill:none;stroke:#FFFFFF;stroke-width:2;}
</style>
<rect x="-530" y="-1817" class="st0" width="1199" height="3751.1"/>
<g class="st0">
	<rect x="0" class="st1" width="102" height="102"/>
	<rect x="102" class="st2" width="102" height="102"/>
	<rect x="204" class="st1" width="102" height="102"/>
	<rect x="306" class="st2" width="102" height="102"/>
	<rect x="408" class="st1" width="102" height="102"/>
	<rect x="510" class="st2" width="102" height="102"/>
	<rect x="612" class="st1" width="102" height="102"/>
</g>
<circle class="st3" cx="358" cy="51" r="50"/>
<circle class="st3" cx="152.9" cy="51.1" r="50"/>
<circle class="st3" cx="254.9" cy="51.1" r="50"/>
<circle class="st3" cx="51" cy="51.1" r="50"/>
<g>
	<g>
		<path class="st4" d="M361.8,42.1c-1.3,4.6-4.9,7.9-8.3,8.1c-3.4-0.2-7-3.5-8.3-8.1l-0.6,0.1c-0.7,0.1-1.4-0.4-1.5-1.1l-0.6-4.1
			c-0.1-0.7,0.4-1.4,1.1-1.5l0.5-0.1c-0.2-0.6-0.3-1.3-0.3-2v-1.5c0-3.7,3-6.7,6.7-6.7h0.8c0-0.1,0-0.2,0-0.4c0.4-1.1,3.1-1,6.1,0.1
			c0.6,0.2,1.2,0.5,1.8,0.8c2.4,1,4.1,3.4,4.1,6.2v1.5c0,0.7-0.1,1.4-0.3,2l0.5,0.1c0.7,0.1,1.2,0.8,1.1,1.5l-0.6,4.1
			c-0.1,0.7-0.8,1.2-1.5,1.1L361.8,42.1L361.8,42.1z"/>
		<line class="st4" x1="341.3" y1="69.5" x2="334.1" y2="69.5"/>
		<path class="st4" d="M329.9,73.5c-0.3-4.9-3.5-10.4,0.4-14.3c3.1-3.9,9.4-3.9,14.9-5.8c1.4,6.7,2.9,13.4,4.3,20.1
			c0.3-6.5,3.5-12.8,0.4-18.9c2.3,0,4.7,0,7,0c-3.2,6.1-0.9,12.4,0.3,18.9c1.5-6.7,2.9-13.4,4.4-20.1c1.5,0.8,3.1,2.8,4.8,3.3"/>
		<g>
			<path class="st4" d="M391.2,66v11c0,0.5-0.4,1-1,1H366c-0.5,0-1-0.4-1-1V66.2"/>
			<path class="st4" d="M373.8,56.6v-2.8c0-0.9,0.7-1.6,1.6-1.6h5.6c0.9,0,1.6,0.7,1.6,1.6v2.8"/>
			<path class="st4" d="M375.5,68.2c-4.1-0.2-8.2-1-11.8-2.8l0-7.7c0-0.5,0.4-1,1-1h27.1c0.5,0,1,0.4,1,1l0,7.5
				c-3.7,1.9-7.9,2.8-12,3"/>
			<path class="st4" d="M376.4,66.8h3.5c0.3,0,0.5,0.2,0.5,0.5v2.4c0,0.3-0.2,0.5-0.5,0.5h-3.5c-0.3,0-0.5-0.2-0.5-0.5v-2.4
				C375.9,67.1,376.1,66.8,376.4,66.8L376.4,66.8z"/>
		</g>
	</g>
</g>
<g>
	<path class="st4" d="M272.4,50.2c8.3,0,15,6.7,15,15c0,8.3-6.7,15-15,15c-8.3,0-15-6.7-15-15C257.4,56.9,264.1,50.2,272.4,50.2
		L272.4,50.2z"/>
	<g>
		<path class="st5" d="M263.2,66.2c-1,0-1.9,0.8-1.9,1.9c0,1,0.8,1.9,1.9,1.9c1,0,1.9-0.8,1.9-1.9C265.1,67,264.2,66.2,263.2,66.2
			L263.2,66.2z M269.3,59.9c-1,0-1.9,0.8-1.9,1.9c0,1,0.8,1.9,1.9,1.9s1.9-0.8,1.9-1.9C271.2,60.8,270.4,59.9,269.3,59.9L269.3,59.9
			z M275.5,65.5c-1,0-1.9,0.8-1.9,1.9c0,1,0.8,1.9,1.9,1.9c1,0,1.9-0.8,1.9-1.9C277.3,66.3,276.5,65.5,275.5,65.5L275.5,65.5z
			 M281.6,62.7c-1,0-1.9,0.8-1.9,1.9c0,1,0.8,1.9,1.9,1.9c1,0,1.9-0.8,1.9-1.9C283.5,63.5,282.6,62.7,281.6,62.7L281.6,62.7z"/>
		<path class="st4" d="M264.9,66.3l2.9-2.9 M271,63.3l2.9,2.7 M277.3,66.6l2.2-1.1"/>
	</g>
	<g>
		<path class="st4" d="M259.2,73.6H226c-1,0-1.9-0.9-1.9-1.9v-21"/>
		<path class="st4" d="M241,32.1v-5.4c0-1.7,1.4-3.1,3.1-3.1H255c1.7,0,3.1,1.4,3.1,3.1v5.4"/>
		<path class="st4" d="M244.3,54.6c-7.9-0.4-15.9-2-23-5.5l0-15.1c0-1,0.9-1.9,1.9-1.9h52.7c1,0,1.9,0.9,1.9,1.9l0,17.1"/>
		<path class="st4" d="M246.2,51.9h6.8c0.6,0,1.1,0.5,1.1,1.1v4.7c0,0.6-0.5,1.1-1.1,1.1h-6.8c-0.6,0-1.1-0.5-1.1-1.1V53
			C245.1,52.4,245.6,51.9,246.2,51.9L246.2,51.9z"/>
		<path class="st4" d="M262.1,54.3c-1.4,0.4-2.6,0.4-7.6,0.4"/>
	</g>
</g>
<g>
	<g>
		<rect x="65.2" y="51.6" class="st6" width="12.9" height="27"/>
		<g>
			<line class="st6" x1="67.3" y1="58.6" x2="69.1" y2="58.6"/>
			<line class="st6" x1="70.8" y1="58.6" x2="72.5" y2="58.6"/>
			<line class="st6" x1="74.2" y1="58.6" x2="76" y2="58.6"/>
		</g>
		<g>
			<line class="st6" x1="67.3" y1="61.9" x2="69.1" y2="61.9"/>
			<line class="st6" x1="70.8" y1="61.9" x2="72.5" y2="61.9"/>
			<line class="st6" x1="74.2" y1="61.9" x2="76" y2="61.9"/>
		</g>
		<g>
			<line class="st6" x1="67.3" y1="65.2" x2="69.1" y2="65.2"/>
			<line class="st6" x1="70.8" y1="65.2" x2="72.5" y2="65.2"/>
			<line class="st6" x1="74.2" y1="65.2" x2="76" y2="65.2"/>
		</g>
		<g>
			<line class="st6" x1="67.3" y1="68.5" x2="69.1" y2="68.5"/>
			<line class="st6" x1="70.8" y1="68.5" x2="72.5" y2="68.5"/>
			<line class="st6" x1="74.2" y1="68.5" x2="76" y2="68.5"/>
		</g>
		<g>
			<line class="st6" x1="67.3" y1="71.8" x2="69.1" y2="71.8"/>
			<line class="st6" x1="70.8" y1="71.8" x2="72.5" y2="71.8"/>
			<line class="st6" x1="74.2" y1="71.8" x2="76" y2="71.8"/>
		</g>
		<g>
			<line class="st6" x1="67.3" y1="75.1" x2="69.1" y2="75.1"/>
			<line class="st6" x1="70.8" y1="75.1" x2="72.5" y2="75.1"/>
			<line class="st6" x1="74.2" y1="75.1" x2="76" y2="75.1"/>
		</g>
		<g>
			<rect x="53.2" y="48.7" class="st6" width="12" height="29.8"/>
			<rect x="54.8" y="45.6" class="st6" width="8.7" height="3"/>
			<line class="st6" x1="55.7" y1="52.2" x2="62.7" y2="52.2"/>
			<line class="st6" x1="55.7" y1="56" x2="62.7" y2="56"/>
			<line class="st6" x1="55.7" y1="59.7" x2="62.7" y2="59.7"/>
			<line class="st6" x1="55.7" y1="63.4" x2="62.7" y2="63.4"/>
			<line class="st6" x1="55.7" y1="67.1" x2="62.7" y2="67.1"/>
			<line class="st6" x1="55.7" y1="70.9" x2="62.7" y2="70.9"/>
			<line class="st6" x1="55.7" y1="74.6" x2="62.7" y2="74.6"/>
			<line class="st6" x1="59.2" y1="45.2" x2="59.2" y2="40.8"/>
		</g>
		<line class="st6" x1="65.1" y1="55.2" x2="72.4" y2="55.2"/>
	</g>
	<g>
		<path class="st4" d="M52.2,73.6H20.1c-1,0-1.9-0.9-1.9-1.9v-21"/>
		<path class="st4" d="M35.1,32.1v-5.4c0-1.7,1.4-3.1,3.1-3.1h10.9c1.7,0,3.1,1.4,3.1,3.1v5.4"/>
		<path class="st4" d="M38.4,54.6c-7.9-0.4-15.9-2-23-5.5l0-15.1c0-1,0.9-1.9,1.9-1.9H70c1,0,1.9,0.9,1.9,1.9l0,17.1"/>
		<path class="st4" d="M40.2,51.9h6.8c0.6,0,1.1,0.5,1.1,1.1v4.7c0,0.6-0.5,1.1-1.1,1.1h-6.8c-0.6,0-1.1-0.5-1.1-1.1V53
			C39.2,52.4,39.7,51.9,40.2,51.9L40.2,51.9z"/>
		<path class="st4" d="M52.2,54.6c-1.4,0-1.9,0-3.6,0"/>
	</g>
</g>
<g>
	<g>
		<g>
			<g>
				<ellipse class="st6" cx="172.2" cy="65.2" rx="14.8" ry="15"/>
				<ellipse class="st6" cx="172.2" cy="65.2" rx="8.6" ry="15"/>
				<path class="st6" d="M172.2,80.2c8.2,0,14.8-6.7,14.8-15c0-8.3-6.6-15-14.8-15V80.2z"/>
				<path class="st6" d="M157.4,65.2c0,1.9,0.4,3.6,1,5.3h27.7c0.6-1.6,1-3.4,1-5.3c0-1.9-0.4-3.6-1-5.3h-27.7
					C157.8,61.6,157.4,63.3,157.4,65.2z"/>
			</g>
		</g>
	</g>
	<g>
		<path class="st4" d="M159.2,73.6H126c-1,0-1.9-0.9-1.9-1.9v-21"/>
		<path class="st4" d="M141,32.1v-5.4c0-1.7,1.4-3.1,3.1-3.1H155c1.7,0,3.1,1.4,3.1,3.1v5.4"/>
		<path class="st4" d="M144.3,54.6c-7.9-0.4-15.9-2-23-5.5l0-15.1c0-1,0.9-1.9,1.9-1.9h52.7c1,0,1.9,0.9,1.9,1.9l0,17.1"/>
		<path class="st4" d="M146.2,51.9h6.8c0.6,0,1.1,0.5,1.1,1.1v4.7c0,0.6-0.5,1.1-1.1,1.1h-6.8c-0.6,0-1.1-0.5-1.1-1.1V53
			C145.1,52.4,145.6,51.9,146.2,51.9L146.2,51.9z"/>
		<path class="st4" d="M162.1,54.3c-1.4,0.4-2.6,0.4-7.6,0.4"/>
	</g>
</g>
<circle class="st3" cx="459" cy="51" r="50"/>
<circle class="st3" cx="561" cy="51" r="50"/>
<circle class="st3" cx="663" cy="51" r="50"/>
<g>
	<path class="st4" d="M462.8,40.9c-1.3,4.6-4.9,7.9-8.3,8.1c-3.4-0.2-7-3.5-8.3-8.1l-0.6,0.1c-0.7,0.1-1.4-0.4-1.5-1.1l-0.6-4.1
		c-0.1-0.7,0.4-1.4,1.1-1.5l0.5-0.1c-0.2-0.6-0.3-1.3-0.3-2v-1.5c0-3.7,3-6.7,6.7-6.7h0.8c0-0.1,0-0.2,0-0.4c0.4-1.1,3.1-1,6.1,0.1
		c0.6,0.2,1.2,0.5,1.7,0.8c2.4,1,4.1,3.4,4.1,6.1v1.5c0,0.7-0.1,1.4-0.3,2l0.5,0.1c0.7,0.1,1.2,0.8,1.1,1.5l-0.6,4.1
		c-0.1,0.7-0.8,1.2-1.5,1.1L462.8,40.9L462.8,40.9z"/>
	<line class="st4" x1="442.4" y1="68.3" x2="435.2" y2="68.3"/>
	<path class="st4" d="M431,72.3c-0.3-4.9-3.5-10.4,0.4-14.3c3.1-3.9,9.4-3.9,14.9-5.8c1.4,6.7,2.9,13.4,4.3,20.1
		c0.3-6.5,3.4-12.8,0.4-18.9c2.3,0,4.7,0,7,0c-3.2,6.1-0.9,12.4,0.3,18.9c1.5-6.7,2.9-13.4,4.4-20.1c1.5,0.8,3.1,1.4,4.8,1.9"/>
	<g>
		<g>
			<ellipse class="st6" cx="476.7" cy="63.9" rx="13.3" ry="13.4"/>
			<ellipse class="st6" cx="476.7" cy="63.9" rx="7.7" ry="13.4"/>
			<path class="st6" d="M476.7,77.4c7.3,0,13.3-6,13.3-13.4c0-7.4-5.9-13.4-13.3-13.4V77.4z"/>
			<path class="st6" d="M463.5,63.9c0,1.7,0.3,3.3,0.9,4.7h24.8c0.5-1.5,0.9-3.1,0.9-4.7c0-1.7-0.3-3.3-0.9-4.7h-24.8
				C463.8,60.7,463.5,62.3,463.5,63.9z"/>
		</g>
	</g>
</g>
<g>
	<g>
		<path class="st4" d="M563.6,40.3c-1.3,4.4-4.7,7.6-8,7.8c-3.3-0.2-6.8-3.4-8-7.8l-0.6,0.1c-0.7,0.1-1.4-0.4-1.5-1.1l-0.6-3.9
			c-0.1-0.7,0.4-1.4,1.1-1.5l0.4-0.1c-0.2-0.6-0.3-1.3-0.3-1.9v-1.4c0-3.5,2.9-6.4,6.4-6.4h0.8c0-0.1,0-0.2,0-0.3c0.4-1,3-1,5.9,0.1
			c0.6,0.2,1.2,0.5,1.7,0.8c2.3,1,4,3.3,4,5.9v1.4c0,0.7-0.1,1.3-0.3,1.9l0.4,0.1c0.7,0.1,1.2,0.8,1.1,1.5l-0.6,3.9
			c-0.1,0.7-0.8,1.2-1.5,1.1L563.6,40.3L563.6,40.3z"/>
		<line class="st4" x1="543.9" y1="66.7" x2="537" y2="66.7"/>
		<path class="st4" d="M533,70.6c-0.3-4.8-3.3-10,0.4-13.8c3-3.8,9-3.8,14.3-5.6c1.4,6.5,2.8,12.9,4.1,19.4
			c0.3-6.3,3.3-12.3,0.4-18.2c2.3,0,4.5,0,6.8,0c-3.1,5.9-0.8,11.9,0.3,18.2c1.4-6.5,2.8-12.9,4.2-19.4c1.5,0.7,3,1.4,4.6,1.8"/>
	</g>
	<g>
		<rect x="579.1" y="51" class="st6" width="11.7" height="24.5"/>
		<g>
			<line class="st6" x1="581" y1="57.4" x2="582.6" y2="57.4"/>
			<line class="st6" x1="584.1" y1="57.4" x2="585.7" y2="57.4"/>
			<line class="st6" x1="587.3" y1="57.4" x2="588.8" y2="57.4"/>
		</g>
		<g>
			<line class="st6" x1="581" y1="60.3" x2="582.6" y2="60.3"/>
			<line class="st6" x1="584.1" y1="60.3" x2="585.7" y2="60.3"/>
			<line class="st6" x1="587.3" y1="60.3" x2="588.8" y2="60.3"/>
		</g>
		<g>
			<line class="st6" x1="581" y1="63.3" x2="582.6" y2="63.3"/>
			<line class="st6" x1="584.1" y1="63.3" x2="585.7" y2="63.3"/>
			<line class="st6" x1="587.3" y1="63.3" x2="588.8" y2="63.3"/>
		</g>
		<g>
			<line class="st6" x1="581" y1="66.3" x2="582.6" y2="66.3"/>
			<line class="st6" x1="584.1" y1="66.3" x2="585.7" y2="66.3"/>
			<line class="st6" x1="587.3" y1="66.3" x2="588.8" y2="66.3"/>
		</g>
		<g>
			<line class="st6" x1="581" y1="69.3" x2="582.6" y2="69.3"/>
			<line class="st6" x1="584.1" y1="69.3" x2="585.7" y2="69.3"/>
			<line class="st6" x1="587.3" y1="69.3" x2="588.8" y2="69.3"/>
		</g>
		<g>
			<line class="st6" x1="581" y1="72.3" x2="582.6" y2="72.3"/>
			<line class="st6" x1="584.1" y1="72.3" x2="585.7" y2="72.3"/>
			<line class="st6" x1="587.3" y1="72.3" x2="588.8" y2="72.3"/>
		</g>
		<g>
			<rect x="568.2" y="48.4" class="st6" width="10.9" height="27.1"/>
			<rect x="569.7" y="45.6" class="st6" width="7.9" height="2.8"/>
			<line class="st6" x1="570.4" y1="51.6" x2="576.8" y2="51.6"/>
			<line class="st6" x1="570.4" y1="55" x2="576.8" y2="55"/>
			<line class="st6" x1="570.4" y1="58.3" x2="576.8" y2="58.3"/>
			<line class="st6" x1="570.4" y1="61.7" x2="576.8" y2="61.7"/>
			<line class="st6" x1="570.4" y1="65.1" x2="576.8" y2="65.1"/>
			<line class="st6" x1="570.4" y1="68.5" x2="576.8" y2="68.5"/>
			<line class="st6" x1="570.4" y1="71.9" x2="576.8" y2="71.9"/>
			<line class="st6" x1="573.6" y1="45.2" x2="573.6" y2="41.2"/>
		</g>
		<line class="st6" x1="579" y1="54.3" x2="585.6" y2="54.3"/>
	</g>
</g>
<g>
	<g>
		<path class="st4" d="M665.9,41c-1.3,4.6-4.9,7.9-8.3,8.1c-3.4-0.2-7-3.5-8.3-8.1l-0.6,0.1c-0.7,0.1-1.4-0.4-1.5-1.1l-0.6-4.1
			c-0.1-0.7,0.4-1.4,1.1-1.5l0.5-0.1c-0.2-0.6-0.3-1.3-0.3-2v-1.5c0-3.7,3-6.7,6.7-6.7h0.8c0-0.1,0-0.2,0-0.4c0.4-1.1,3.1-1,6.1,0.1
			c0.6,0.2,1.2,0.5,1.8,0.8c2.4,1,4.1,3.4,4.1,6.2v1.5c0,0.7-0.1,1.4-0.3,2l0.5,0.1c0.7,0.1,1.2,0.8,1.1,1.5l-0.6,4.1
			c-0.1,0.7-0.8,1.2-1.5,1.1L665.9,41L665.9,41z"/>
		<line class="st4" x1="645.4" y1="68.4" x2="638.2" y2="68.4"/>
		<path class="st4" d="M634,72.4c-0.3-4.9-3.5-10.4,0.4-14.3c3.1-3.9,9.4-3.9,14.9-5.8c1.4,6.7,2.9,13.4,4.3,20.1
			c0.3-6.5,3.5-12.8,0.4-18.9c2.3,0,4.7,0,7,0c-3.2,6.1-0.9,12.4,0.3,18.9c1.5-6.7,2.9-13.4,4.4-20.1c1.5,0.8,3.1,1.4,4.8,1.9"/>
		<line class="st4" x1="679.9" y1="54.8" x2="679.9" y2="57.7"/>
		<line class="st4" x1="679.9" y1="70.3" x2="679.9" y2="73.2"/>
		<path class="st4" d="M679.9,50.7c7.3,0,13.3,5.9,13.3,13.3c0,7.3-5.9,13.3-13.3,13.3s-13.3-5.9-13.3-13.3
			C666.6,56.7,672.5,50.7,679.9,50.7L679.9,50.7z"/>
		<path class="st4" d="M684,59.2c-1.3-0.4-2.5-0.9-3.7-1c-6.5-0.7-7.3,5.8-0.4,5.8c6.7,0,6.1,6.5-0.4,5.8c-1.2-0.1-2.4-0.6-3.7-1"/>
	</g>
</g>
</svg>
