<?xml version="1.0" encoding="utf-8"?>
<!-- Generator: Adobe Illustrator 19.2.1, SVG Export Plug-In . SVG Version: 6.00 Build 0)  -->
<svg version="1.1" id="Layer_1" xmlns="http://www.w3.org/2000/svg" xmlns:xlink="http://www.w3.org/1999/xlink" x="0px" y="0px"
	 viewBox="0 0 26.7 26.7" style="enable-background:new 0 0 26.7 26.7;" xml:space="preserve">
<style type="text/css">
	.st0{clip-path:url(#SVGID_2_);fill:#FFFFFF;}
</style>
<g>
	<defs>
		<rect id="SVGID_1_" y="0" width="26.7" height="26.7"/>
	</defs>
	<clipPath id="SVGID_2_">
		<use xlink:href="#SVGID_1_"  style="overflow:visible;"/>
	</clipPath>
	<path class="st0" d="M13.3,26.7C6,26.7,0,20.7,0,13.3C0,6,6,0,13.3,0c7.4,0,13.3,6,13.3,13.3C26.7,20.7,20.7,26.7,13.3,26.7
		 M13.3,0.7c-7,0-12.6,5.7-12.6,12.6c0,7,5.7,12.6,12.6,12.6S26,20.3,26,13.3C26,6.4,20.3,0.7,13.3,0.7"/>
	<path class="st0" d="M11.7,20.2c-0.1,0-0.3-0.1-0.3-0.2c-0.1-0.2,0-0.4,0.2-0.5l1.6-0.8c0.1,0,0.2,0,0.3,0l1.1,0.6v-0.8l-1.3-0.6
		l-1.5,0.7c-0.1,0.1-0.2,0-0.3,0c-0.1-0.1-0.2-0.2-0.2-0.3v-1.6c0-0.1,0.1-0.3,0.2-0.3l1.4-0.7v-5.5c0-0.2,0.2-0.4,0.4-0.4h1.1
		l-1.1-2.1L12,10.3c-0.1,0.2-0.3,0.2-0.5,0.2c-0.2-0.1-0.2-0.3-0.2-0.5L13,6.7c0.1-0.1,0.2-0.2,0.3-0.2c0.1,0,0.3,0.1,0.3,0.2
		l1.6,3.2c0.1,0.1,0,0.2,0,0.3c-0.1,0.1-0.2,0.2-0.3,0.2h-1.3v5.3c0,0.1-0.1,0.3-0.2,0.3l-1.4,0.7v0.8l1.1-0.6c0.1,0,0.2,0,0.3,0
		l1.6,0.8c0.1,0.1,0.2,0.2,0.2,0.3v1.6c0,0.1-0.1,0.2-0.2,0.3c-0.1,0.1-0.2,0.1-0.3,0l-1.5-0.7l-1.5,0.7
		C11.8,20.2,11.8,20.2,11.7,20.2"/>
</g>
</svg>
