<svg xmlns="http://www.w3.org/2000/svg" viewBox="0 0 26.56 26.56"><defs><style>.cls-1{fill:#00aacd;}</style></defs><title>имидж свг</title><g id="Layer_2" data-name="Layer 2"><g id="Слой_1" data-name="Слой 1"><path class="cls-1" d="M13.28,26.56A13.28,13.28,0,1,1,26.56,13.28,13.29,13.29,0,0,1,13.28,26.56ZM13.28.7A12.58,12.58,0,1,0,25.85,13.28,12.59,12.59,0,0,0,13.28.7Z"/><path class="cls-1" d="M19.64,17.68a.35.35,0,0,1-.3-.16,5,5,0,0,0-4.51-1.92,1.66,1.66,0,0,0-1.21,1.75.35.35,0,0,1-.35.33h0a.35.35,0,0,1-.35-.33,1.66,1.66,0,0,0-1.25-1.74,5.06,5.06,0,0,0-4.46,1.88.35.35,0,0,1-.46.14,5.05,5.05,0,0,1-2.32-4.55c0-1.17.49-3.63,2.32-4.56a.35.35,0,0,1,.51.31,4,4,0,0,0,1.27,3,3.38,3.38,0,0,0,2.28.87V8.82a.35.35,0,0,1,.34-.35h0a.35.35,0,0,1,.35.34c0,.87,1,1.34,1.83,1.36A1.5,1.5,0,0,0,15,8.91a.35.35,0,0,1,.37-.32.35.35,0,0,1,.33.35v3.78a3.74,3.74,0,0,0,3.54-3.88.35.35,0,0,1,.55-.29,7.28,7.28,0,0,1,2.27,4.55.35.35,0,0,1-.7,0,6.79,6.79,0,0,0-1.48-3.43,4.44,4.44,0,0,1-4.54,3.81.35.35,0,0,1-.35-.35V10.33a2.63,2.63,0,0,1-1.71.54,3,3,0,0,1-1.82-.64v2.86a.35.35,0,0,1-.31.35,4,4,0,0,1-3.14-1A4.58,4.58,0,0,1,6.6,9.46a5,5,0,0,0-1.46,3.62,4.62,4.62,0,0,0,1.67,3.77,5.83,5.83,0,0,1,5-1.92A2.14,2.14,0,0,1,13.27,16a2.15,2.15,0,0,1,1.39-1.06,5.66,5.66,0,0,1,5.28,2.23.35.35,0,0,1-.11.48A.37.37,0,0,1,19.64,17.68Z"/></g></g></svg>