<svg xmlns="http://www.w3.org/2000/svg" viewBox="0 0 26.69 26.69"><defs><style>.cls-1{fill:#0095da;}</style></defs><title>Asset 4</title><g id="Layer_2" data-name="Layer 2"><g id="Слой_1" data-name="Слой 1"><path class="cls-1" d="M16.59,20.19H6.85a.35.35,0,0,1-.35-.35V16.59a.35.35,0,0,1,.35-.35H9.74v-2.9A.35.35,0,0,1,10.1,13H13V10.45H11.72a.35.35,0,0,1-.25-.6L14.72,6.6a.35.35,0,0,1,.5,0l3.25,3.25a.35.35,0,1,1-.5.5l-3-3-2.4,2.4h.77a.35.35,0,0,1,.35.35v3.25a.35.35,0,0,1-.35.35h-2.9v2.9a.35.35,0,0,1-.35.35H7.2v2.54h9V11.72a.35.35,0,0,1,.71,0v8.12A.35.35,0,0,1,16.59,20.19Z"/><path class="cls-1" d="M13.34,26.69A13.35,13.35,0,1,1,26.69,13.34,13.36,13.36,0,0,1,13.34,26.69Zm0-26A12.64,12.64,0,1,0,26,13.34,12.65,12.65,0,0,0,13.34.71Z"/></g></g></svg>