<?xml version="1.0" encoding="utf-8"?>
<!-- Generator: Adobe Illustrator 16.0.2, SVG Export Plug-In . SVG Version: 6.00 Build 0)  -->
<!DOCTYPE svg PUBLIC "-//W3C//DTD SVG 1.0//EN" "http://www.w3.org/TR/2001/REC-SVG-20010904/DTD/svg10.dtd" [
	<!ENTITY ns_flows "http://ns.adobe.com/Flows/1.0/">
	<!ENTITY ns_extend "http://ns.adobe.com/Extensibility/1.0/">
	<!ENTITY ns_ai "http://ns.adobe.com/AdobeIllustrator/10.0/">
	<!ENTITY ns_graphs "http://ns.adobe.com/Graphs/1.0/">
]>
<svg version="1.0" id="Слой_1" xmlns:x="&ns_extend;" xmlns:i="&ns_ai;" xmlns:graph="&ns_graphs;"
	 xmlns="http://www.w3.org/2000/svg" xmlns:xlink="http://www.w3.org/1999/xlink" xmlns:a="http://ns.adobe.com/AdobeSVGViewerExtensions/3.0/"
	 x="0px" y="0px" width="2847.569px" height="2750.119px" viewBox="0 0 2847.569 2750.119"
	 enable-background="new 0 0 2847.569 2750.119" xml:space="preserve">
<g>
	<path fill="#3953A3" d="M2634.326,0.253l-773.043,508.191l-1.136,1238.135c-8.114,162.266-62.756,314.461-158.792,443.716
		c-391.572-47.972-693.745-368.739-713.72-768.31l-0.969-1208.911L773.596,0L0,508.54l1.136,1240.979l0.137,5.287
		c26.205,558.123,484.743,995.314,1043.863,995.314c287.253,0,560.085-117.643,757.068-324.61c0.136,0,0.269,0,0.421,0
		c559.115,0,1017.646-437.195,1043.864-995.317l1.079-1216.706L2634.326,0.253z M1045.136,2521.063
		c-435.712,0-793.213-339.979-814.968-774.464l-1.004-1114.621l528.51-347.445l0.914,1140.375l0.132,5.283
		c12.162,258.906,119.706,502.91,302.79,687.093c123.824,124.51,275.169,214.625,440.193,264.169
		C1368.212,2471.602,1209.684,2521.063,1045.136,2521.063z M2617.593,1421.985c-18.747,374.563-286.957,678.872-639.769,755.701
		c66.301-130.236,104.205-273.244,111.239-422.881l0.11-2.627l1.025-1120.124l528.303-347.295L2617.593,1421.985z"/>
</g>
</svg>
