<svg xmlns="http://www.w3.org/2000/svg" viewBox="0 0 548.4 529.63"><defs><style>.cls-1{fill:#e0195a;}</style></defs><title>decor1</title><g id="Layer_2" data-name="Layer 2"><g id="Слой_1" data-name="Слой 1"><path class="cls-1" d="M507.33,0,358.46,97.92l-.22,238.45a155.23,155.23,0,0,1-30.58,85.45,156.47,156.47,0,0,1-137.45-148L190,41,149,0,0,97.94l.22,239,0,1A201.27,201.27,0,0,0,347.08,467.12h.08a200.92,200.92,0,0,0,201-191.68l.21-234.32ZM201.28,485.52a156.88,156.88,0,0,1-157-149.15l-.19-214.66L145.92,54.8l.18,219.62,0,1a201.39,201.39,0,0,0,143.09,183.2A157,157,0,0,1,201.28,485.52ZM504.11,273.86A156.84,156.84,0,0,1,380.9,419.39,199.41,199.41,0,0,0,402.32,338l0-.51.2-215.72L504.29,54.84Z"/></g></g></svg>