<?xml version="1.0" encoding="utf-8"?>
<!-- Generator: Adobe Illustrator 16.0.2, SVG Export Plug-In . SVG Version: 6.00 Build 0)  -->
<!DOCTYPE svg PUBLIC "-//W3C//DTD SVG 1.0//EN" "http://www.w3.org/TR/2001/REC-SVG-20010904/DTD/svg10.dtd" [
	<!ENTITY ns_flows "http://ns.adobe.com/Flows/1.0/">
	<!ENTITY ns_extend "http://ns.adobe.com/Extensibility/1.0/">
	<!ENTITY ns_ai "http://ns.adobe.com/AdobeIllustrator/10.0/">
	<!ENTITY ns_graphs "http://ns.adobe.com/Graphs/1.0/">
]>
<svg version="1.0" id="Слой_1" xmlns:x="&ns_extend;" xmlns:i="&ns_ai;" xmlns:graph="&ns_graphs;"
	 xmlns="http://www.w3.org/2000/svg" xmlns:xlink="http://www.w3.org/1999/xlink" xmlns:a="http://ns.adobe.com/AdobeSVGViewerExtensions/3.0/"
	 x="0px" y="0px" width="2847.567px" height="2750.119px" viewBox="0 0 2847.567 2750.119"
	 enable-background="new 0 0 2847.567 2750.119" xml:space="preserve">
<g>
	<g>
		<path fill="#E0195A" d="M2634.328,0.253l-773.043,508.191l-1.137,1238.135c-8.113,162.266-62.754,314.461-158.798,443.716
			c-391.567-47.972-693.747-368.739-713.712-768.31l-0.975-1208.911L773.596,0L0,508.54l1.134,1240.979l0.143,5.287
			c26.208,558.123,484.739,995.314,1043.862,995.314c287.254,0,560.082-117.643,757.061-324.61c0.144,0,0.275,0,0.428,0
			c559.116,0,1017.647-437.195,1043.865-995.317l1.075-1216.706L2634.328,0.253z M1045.139,2521.063
			c-435.712,0-793.211-339.979-814.969-774.464l-1-1114.621l528.505-347.445l0.916,1140.375l0.132,5.283
			c12.157,258.906,119.701,502.91,302.786,687.093c123.827,124.51,275.175,214.625,440.196,264.169
			C1368.212,2471.602,1209.689,2521.063,1045.139,2521.063z M2617.598,1421.985c-18.753,374.563-286.959,678.872-639.777,755.701
			c66.309-130.236,104.209-273.244,111.248-422.881l0.107-2.627l1.024-1120.124l528.3-347.295L2617.598,1421.985z"/>
	</g>
</g>
</svg>
