<?xml version="1.0" encoding="utf-8"?>
<!-- Generator: Adobe Illustrator 19.2.1, SVG Export Plug-In . SVG Version: 6.00 Build 0)  -->
<svg version="1.1" id="Layer_1" xmlns="http://www.w3.org/2000/svg" xmlns:xlink="http://www.w3.org/1999/xlink" x="0px" y="0px"
	 viewBox="0 0 95.4 109.8" style="enable-background:new 0 0 95.4 109.8;" xml:space="preserve">
<style type="text/css">
	.st0{fill:#E2185B;}
	.st1{fill:#FFFFFF;}
</style>
<title>скачать файл</title>
<g id="Layer_2">
	<g id="Layer_1-2">
		<path class="st0" d="M76.2,0H17c-2.2,0-4.1,1.8-4.1,4.1v101.6c0,2.2,1.8,4.1,4.1,4.1h74.3c2.2,0,4.1-1.8,4.1-4.1V19.9L76.2,0z
			 M76.2,9.5l10,10.4h-10V9.5z M88.9,103.3H19.4V6.5h50.3v15.8c0,2.2,1.8,4.1,4.1,4.1h15.2L88.9,103.3z"/>
		<path class="st0" d="M4.1,15.8h35.5c2.2,0,4.1,1.8,4.1,4.1v12.9c0,2.2-1.8,4.1-4.1,4.1H4.1C1.8,36.8,0,35,0,32.8V19.8
			C0,17.6,1.8,15.8,4.1,15.8z"/>
		<path class="st0" d="M73.1,71.8L55,89.9c-0.5,0.6-1.4,0.6-2,0c0,0,0,0,0,0L34.8,71.8c-0.5-0.5-0.5-1.4,0-2c0.3-0.3,0.6-0.4,1-0.4
			h7.8V45.8c0-1.1,0.9-1.9,1.9-1.9h16.9c1.1,0,1.9,0.9,1.9,1.9v23.6h7.8c0.8,0,1.4,0.6,1.4,1.4C73.6,71.1,73.4,71.5,73.1,71.8z"/>
		<path class="st1" d="M9.7,30.6V22h3.8c0.8,0,1.6,0.2,2.2,0.7c0.5,0.5,0.8,1.2,0.8,1.9c0,0.7-0.3,1.4-0.8,1.9
			c-0.6,0.5-1.4,0.8-2.2,0.7h-2v3.4L9.7,30.6z M11.5,25.6h1.9c0.9,0,1.4-0.4,1.4-1.1s-0.5-1.1-1.4-1.1h-1.9V25.6z"/>
		<path class="st1" d="M17.9,30.6V22h3.3c1.3-0.1,2.5,0.4,3.4,1.2c1.7,1.7,1.8,4.4,0.1,6.2c0,0-0.1,0.1-0.1,0.1
			c-1,0.8-2.2,1.3-3.4,1.2L17.9,30.6z M19.7,29H21c1.9,0,3.1-1,3.1-2.7s-1.2-2.7-3.1-2.7h-1.3V29z"/>
		<path class="st1" d="M27.5,30.6V22h6.4v1.6h-4.6v1.8h3.5v1.5h-3.5v3.8H27.5z"/>
	</g>
</g>
</svg>
