<svg xmlns="http://www.w3.org/2000/svg" viewBox="0 0 95.41 109.75"><defs><style>.cls-1{fill:#00aacd;}.cls-2{fill:#fff;}</style></defs><title>скачать файл</title><g id="Layer_2" data-name="Layer 2"><g id="Layer_1-2" data-name="Layer 1"><path class="cls-1" d="M76.19,0H17a4.06,4.06,0,0,0-4.06,4.06V105.69A4.06,4.06,0,0,0,17,109.75H91.35a4.06,4.06,0,0,0,4.06-4.06V19.91Zm0,9.54,10,10.37h-10Zm12.73,93.72H19.41V6.5H69.69V22.34a4.06,4.06,0,0,0,4.06,4.06H88.91Z"/><rect class="cls-1" y="15.78" width="43.59" height="21.05" rx="4.06" ry="4.06"/><path class="cls-1" d="M73.14,71.76,54.95,89.95a1.38,1.38,0,0,1-2,0L34.8,71.76a1.38,1.38,0,0,1,1-2.36h7.81V45.79a1.91,1.91,0,0,1,1.91-1.91H62.44a1.91,1.91,0,0,1,1.91,1.91V69.4h7.81A1.38,1.38,0,0,1,73.14,71.76Z"/><path class="cls-2" d="M9.7,30.65V22h3.8a3.19,3.19,0,0,1,2.21.73,2.39,2.39,0,0,1,.82,1.89,2.42,2.42,0,0,1-.82,1.9,3.19,3.19,0,0,1-2.21.73h-2v3.44Zm1.79-5h1.89c.86,0,1.37-.38,1.37-1.08s-.51-1.08-1.37-1.08H11.49Z"/><path class="cls-2" d="M17.88,30.65V22h3.25a4.91,4.91,0,0,1,3.44,1.22,4.36,4.36,0,0,1,0,6.27,4.91,4.91,0,0,1-3.44,1.2ZM19.67,29H21c1.94,0,3.08-1,3.08-2.74S22.92,23.56,21,23.56H19.67Z"/><path class="cls-2" d="M27.52,30.65V22h6.37v1.6H29.3v1.76h3.54V26.9H29.3v3.75Z"/></g></g></svg>