<?xml version="1.0" encoding="utf-8"?>
<!-- Generator: Adobe Illustrator 19.2.1, SVG Export Plug-In . SVG Version: 6.00 Build 0)  -->
<svg version="1.1" id="Layer_1" xmlns="http://www.w3.org/2000/svg" xmlns:xlink="http://www.w3.org/1999/xlink" x="0px" y="0px"
	 viewBox="0 0 44.2 44.2" style="enable-background:new 0 0 44.2 44.2;" xml:space="preserve">
<style type="text/css">
	.st0{clip-path:url(#SVGID_2_);fill:#E1195B;}
	.st1{clip-path:url(#SVGID_2_);fill:none;stroke:#E1195B;stroke-miterlimit:10;}
</style>
<g>
	<defs>
		<rect id="SVGID_1_" y="0" width="44.2" height="44.2"/>
	</defs>
	<clipPath id="SVGID_2_">
		<use xlink:href="#SVGID_1_"  style="overflow:visible;"/>
	</clipPath>
	<path class="st0" d="M22.1,43.7C10.2,43.7,0.5,34,0.5,22.1c0-11.9,9.7-21.6,21.6-21.6c11.9,0,21.6,9.7,21.6,21.6
		C43.7,34,34,43.7,22.1,43.7 M22.1,1.6c-11.3,0-20.5,9.2-20.5,20.5c0,11.3,9.2,20.5,20.5,20.5c11.3,0,20.5-9.2,20.5-20.5
		C42.5,10.8,33.4,1.6,22.1,1.6"/>
	<path class="st1" d="M22.1,43.7C10.2,43.7,0.5,34,0.5,22.1c0-11.9,9.7-21.6,21.6-21.6c11.9,0,21.6,9.7,21.6,21.6
		C43.7,34,34,43.7,22.1,43.7z M22.1,1.6c-11.3,0-20.5,9.2-20.5,20.5c0,11.3,9.2,20.5,20.5,20.5c11.3,0,20.5-9.2,20.5-20.5
		C42.5,10.8,33.4,1.6,22.1,1.6z"/>
	<path class="st0" d="M19,34.5V20.2h-2.3v-2.3H19v-0.8c0-2.3,0.5-4.5,1.9-5.8c1.1-1.1,2.6-1.5,4.1-1.5c1.1,0,2,0.2,2.6,0.5l-0.4,2.3
		c-0.4-0.2-1.1-0.4-1.9-0.4c-2.6,0-3.2,2.3-3.2,4.8v0.9h4v2.3h-4v14.3H19z"/>
</g>
</svg>
