<?xml version="1.0" encoding="utf-8"?>
<!-- Generator: Adobe Illustrator 19.2.1, SVG Export Plug-In . SVG Version: 6.00 Build 0)  -->
<svg version="1.1" id="Layer_1" xmlns="http://www.w3.org/2000/svg" xmlns:xlink="http://www.w3.org/1999/xlink" x="0px" y="0px"
	 viewBox="0 0 26.7 26.7" style="enable-background:new 0 0 26.7 26.7;" xml:space="preserve">
<style type="text/css">
	.st0{clip-path:url(#SVGID_2_);fill:#FFFFFF;}
</style>
<g>
	<defs>
		<rect id="SVGID_1_" y="0" width="26.7" height="26.7"/>
	</defs>
	<clipPath id="SVGID_2_">
		<use xlink:href="#SVGID_1_"  style="overflow:visible;"/>
	</clipPath>
	<path class="st0" d="M13.4,26.7C6,26.7,0,20.7,0,13.4C0,6,6,0,13.4,0c7.4,0,13.4,6,13.4,13.4C26.7,20.7,20.7,26.7,13.4,26.7
		 M13.4,0.7c-7,0-12.7,5.7-12.7,12.7c0,7,5.7,12.7,12.7,12.7c7,0,12.7-5.7,12.7-12.7C26,6.4,20.4,0.7,13.4,0.7"/>
	<path class="st0" d="M16.6,19.4h-6.5c-0.2,0-0.4-0.2-0.4-0.4v-1.6c0-0.2,0.2-0.4,0.4-0.4h9.4V8H7.2v7.6h1.7v-3
		c0-0.2,0.2-0.4,0.4-0.4h1.6c0.2,0,0.4,0.2,0.4,0.4v2.2h0.9v-3.8c0-0.2,0.2-0.4,0.4-0.4h1.6c0.2,0,0.4,0.2,0.4,0.4v2.9h0.9v-3.7
		c0-0.2,0.2-0.4,0.4-0.4h1.6c0.2,0,0.4,0.2,0.4,0.4v4.1c0,0.2-0.2,0.4-0.4,0.4S17,14.4,17,14.2v-3.7h-0.9v3.7c0,0.2-0.2,0.4-0.4,0.4
		h-1.7c-0.2,0-0.4-0.2-0.4-0.4v-2.9h-0.9v3.8c0,0.2-0.2,0.4-0.4,0.4h-1.6c-0.2,0-0.4-0.2-0.4-0.4v-2.2H9.6v3c0,0.2-0.2,0.4-0.4,0.4
		H6.8c-0.1,0-0.2,0-0.3-0.1c-0.1-0.1-0.1-0.2-0.1-0.3V7.7c0-0.2,0.2-0.4,0.4-0.4h13c0.2,0,0.4,0.2,0.4,0.4v9.8
		c0,0.2-0.2,0.4-0.4,0.4h-9.4v0.9h6.2c0.2,0,0.4,0.2,0.4,0.4C17,19.3,16.8,19.4,16.6,19.4"/>
</g>
</svg>
