<svg xmlns="http://www.w3.org/2000/svg" viewBox="0 0 26.74 26.75"><defs><style>.cls-1{fill:#00aacd;}</style></defs><title>Asset 1</title><g id="Layer_2" data-name="Layer 2"><g id="Слой_1" data-name="Слой 1"><path class="cls-1" d="M13.37,26.75A13.37,13.37,0,1,1,26.74,13.37,13.39,13.39,0,0,1,13.37,26.75Zm0-26A12.67,12.67,0,1,0,26,13.37,12.68,12.68,0,0,0,13.37.71Z"/><path class="cls-1" d="M16.63,19.42H10.12a.35.35,0,0,1-.35-.35V17.44a.35.35,0,0,1,.35-.35H19.5V8H7.19V15.6h1.7v-3a.35.35,0,0,1,.35-.35h1.63a.35.35,0,0,1,.35.35v2.2h.89V10.93a.35.35,0,0,1,.35-.35H14.1a.35.35,0,0,1,.35.35v2.9h.95V10.12a.35.35,0,0,1,.35-.35h1.63a.35.35,0,0,1,.35.35v4.07a.35.35,0,1,1-.71,0V10.47H16.1v3.72a.35.35,0,0,1-.35.35H14.1a.35.35,0,0,1-.35-.35v-2.9h-.92v3.83a.35.35,0,0,1-.35.35h-1.6a.35.35,0,0,1-.35-.35v-2.2H9.6v3a.35.35,0,0,1-.35.35H6.84a.35.35,0,0,1-.25-.1.35.35,0,0,1-.1-.25V7.68a.35.35,0,0,1,.35-.35h13a.35.35,0,0,1,.35.35v9.77a.35.35,0,0,1-.35.35H10.47v.92h6.16a.35.35,0,1,1,0,.71Z"/></g></g></svg>