<svg xmlns="http://www.w3.org/2000/svg" viewBox="0 0 178.1 141.7"><defs><style>.cls-1{fill:#e71e59;}.cls-2{fill:#fff;}</style></defs><title>logosvg</title><g id="Layer_2" data-name="Layer 2"><g id="Слой_1" data-name="Слой 1"><path class="cls-1" d="M135.73,0,95.9,26.2,95.84,90a41.52,41.52,0,0,1-8.18,22.86A41.86,41.86,0,0,1,50.89,73.27L50.84,11l-11-11L0,26.2.06,90.14v.27A53.85,53.85,0,0,0,92.86,125h0a53.76,53.76,0,0,0,53.79-51.28L146.72,11ZM53.85,129.9a42,42,0,0,1-42-39.9l-.05-57.43L39,14.66l0,58.76v.27a53.88,53.88,0,0,0,38.28,49A42,42,0,0,1,53.85,129.9Zm81-56.63a42,42,0,0,1-33,38.94,53.33,53.33,0,0,0,5.73-21.79v-.14l.05-57.71,27.22-17.89Z"/><path class="cls-2" d="M83.32,47.28v7.28c0,1.14.57,1.71,1.58,1.71s1.6-.6,1.6-1.81V47.28h3.66v6.89c0,3.31-2.34,4.92-5.29,4.92-2.75,0-5.19-1.25-5.19-4.59V47.28Z"/><path class="cls-2" d="M100.33,58.78l-2.54-4.59-1.71,1.87v2.72H92.45V47.28h3.63v4.35l3.61-4.35h4.43l-4,4.36,4.28,7.13Z"/><path class="cls-2" d="M111.48,47.28c1.94,0,4.09.77,4.09,3.68a3.12,3.12,0,0,1-2.36,3.17L116,58.78H112l-2.23-4.05h-1.06v4.05H105V47.28Zm-1.3,5.08c.77,0,1.76-.12,1.76-1.34s-1.06-1.33-1.79-1.33h-1.48v2.67Z"/><path class="cls-2" d="M124.58,58.78l-.51-1.6h-4l-.5,1.6h-3.91l4.4-11.5h4.13l4.3,11.5Zm-2.48-8.22-1.25,4.06h2.48Z"/><path class="cls-2" d="M129.14,58.78V47.28h3.65v11.5Z"/><path class="cls-2" d="M142.29,58.78l-3.79-6.59v6.59h-3.39V47.28H139l3.84,6.51V47.28h3.4v11.5Z"/><path class="cls-2" d="M148.54,58.78V47.28h3.64v11.5Z"/><path class="cls-2" d="M161.68,58.78l-.51-1.6h-4l-.5,1.6h-3.91l4.39-11.5h4.14l4.3,11.5Zm-2.47-8.22L158,54.61h2.47Z"/><path class="cls-2" d="M173.41,58.78l-3.79-6.59v6.59h-3.38V47.28h3.86l3.84,6.51V47.28h3.4v11.5Z"/><path class="cls-2" d="M79.71,65.53h7.44c4.92,0,9,1.62,9,8.45,0,5.69-2.81,8.65-7.92,8.65H79.71ZM87.27,78.7c3.12,0,3.49-3.15,3.49-4.63s-.41-4.55-3.34-4.55H85.13V78.7Z"/><path class="cls-2" d="M98.4,82.63V65.53h5.43v17.1Z"/><path class="cls-2" d="M119,71.46a3,3,0,0,0-3.32-2.54c-3.1,0-4,2.52-4,4.89,0,3.88,2,5.18,4.19,5.18,1.38,0,3.05-.65,3.22-2.4h-3.17V73.15h7.85v9.47h-4V81.44a8.57,8.57,0,0,1-5.13,1.65,8.44,8.44,0,0,1-8.41-8.89c0-5,3.25-9.37,9.11-9.37,3.44,0,7.58,1.67,8.57,5.28Z"/><path class="cls-2" d="M127,82.63V65.53h5.43v17.1Z"/><path class="cls-2" d="M143,69.74V82.63h-5.4V69.74h-4.36V65.53h14.1v4.21Z"/><path class="cls-2" d="M158.47,82.63l-.75-2.37h-6L151,82.63h-5.81l6.54-17.1h6.15l6.39,17.1Zm-3.68-12.23-1.86,6h3.68Z"/><path class="cls-2" d="M165.25,82.63V65.53h5.4V78.31h6.61v4.31Z"/><path class="cls-2" d="M90.79,104.62l-.67-2.12H84.81l-.67,2.12H79l5.83-15.24h5.48L96,104.62Zm-3.28-10.9-1.66,5.38h3.28Z"/><path class="cls-2" d="M107.28,94.66a2.7,2.7,0,0,0-3-2.27c-2.76,0-3.61,2.25-3.61,4.36,0,3.46,1.75,4.62,3.73,4.62a2.61,2.61,0,0,0,2.87-2.14H104.5V96.17h7v8.44h-3.61v-1.06a7.63,7.63,0,0,1-4.58,1.47,7.53,7.53,0,0,1-7.49-7.92c0-4.49,2.89-8.36,8.12-8.36,3.07,0,6.76,1.49,7.64,4.7Z"/><path class="cls-2" d="M114.45,104.62V89.37h12.07v3.35h-7.23V95H126v3.3h-6.78v3h7.9v3.3Z"/><path class="cls-2" d="M139.09,104.62l-5-8.75v8.75h-4.49V89.37h5.12l5.1,8.64V89.37h4.51v15.24Z"/><path class="cls-2" d="M161.65,100.69a7.74,7.74,0,0,1-7.43,4.41c-5.63,0-7.9-4.38-7.9-8,0-4.81,3.35-8.27,7.93-8.27a8.08,8.08,0,0,1,7.38,4.25l-4,2c-.39-.73-1-2.53-3.13-2.53-2.29,0-3.24,2-3.24,4.12,0,3.56,1.64,4.53,3.22,4.53,2,0,2.68-1.47,3.09-2.5Z"/><path class="cls-2" d="M172,98.2v6.41h-4.84V98.2L161,89.37h5.57l3,5.07,2.94-5.07h5.57Z"/></g></g></svg>