<?xml version="1.0" encoding="utf-8"?>
<!-- Generator: Adobe Illustrator 19.2.1, SVG Export Plug-In . SVG Version: 6.00 Build 0)  -->
<svg version="1.1" id="Layer_1" xmlns="http://www.w3.org/2000/svg" xmlns:xlink="http://www.w3.org/1999/xlink" x="0px" y="0px"
	 viewBox="0 0 44.2 44.2" style="enable-background:new 0 0 44.2 44.2;" xml:space="preserve">
<style type="text/css">
	.st0{clip-path:url(#SVGID_2_);fill:#E1195B;}
	.st1{clip-path:url(#SVGID_2_);fill:none;stroke:#E1195B;stroke-miterlimit:10;}
</style>
<g>
	<defs>
		<rect id="SVGID_1_" y="0" width="44.2" height="44.2"/>
	</defs>
	<clipPath id="SVGID_2_">
		<use xlink:href="#SVGID_1_"  style="overflow:visible;"/>
	</clipPath>
	<path class="st0" d="M22.1,43.7C10.2,43.7,0.5,34,0.5,22.1c0-11.9,9.7-21.6,21.6-21.6c11.9,0,21.6,9.7,21.6,21.6
		C43.7,34,34,43.7,22.1,43.7 M22.1,1.6c-11.3,0-20.5,9.2-20.5,20.5c0,11.3,9.2,20.5,20.5,20.5c11.3,0,20.5-9.2,20.5-20.5
		C42.5,10.8,33.4,1.6,22.1,1.6"/>
	<path class="st1" d="M22.1,43.7C10.2,43.7,0.5,34,0.5,22.1c0-11.9,9.7-21.6,21.6-21.6c11.9,0,21.6,9.7,21.6,21.6
		C43.7,34,34,43.7,22.1,43.7z M22.1,1.6c-11.3,0-20.5,9.2-20.5,20.5c0,11.3,9.2,20.5,20.5,20.5c11.3,0,20.5-9.2,20.5-20.5
		C42.5,10.8,33.4,1.6,22.1,1.6z"/>
	<path class="st0" d="M32.6,29.9h-21c-0.3,0-0.6-0.3-0.6-0.6V14.9c0-0.3,0.3-0.6,0.6-0.6h21c0.3,0,0.6,0.3,0.6,0.6
		c0,0.3-0.3,0.6-0.6,0.6H12.2v13.3H32V17.2l-9.6,6c-0.2,0.1-0.4,0.1-0.6,0l-7.9-4.9c-0.3-0.2-0.4-0.5-0.2-0.8
		c0.2-0.3,0.5-0.3,0.8-0.2l7.6,4.7l10.2-6.4c0.2-0.1,0.4-0.1,0.6,0c0.2,0.1,0.3,0.3,0.3,0.5v13.1C33.2,29.6,32.9,29.9,32.6,29.9"/>
	<path class="st1" d="M32.6,29.9h-21c-0.3,0-0.6-0.3-0.6-0.6V14.9c0-0.3,0.3-0.6,0.6-0.6h21c0.3,0,0.6,0.3,0.6,0.6
		c0,0.3-0.3,0.6-0.6,0.6H12.2v13.3H32V17.2l-9.6,6c-0.2,0.1-0.4,0.1-0.6,0l-7.9-4.9c-0.3-0.2-0.4-0.5-0.2-0.8
		c0.2-0.3,0.5-0.3,0.8-0.2l7.6,4.7l10.2-6.4c0.2-0.1,0.4-0.1,0.6,0c0.2,0.1,0.3,0.3,0.3,0.5v13.1C33.2,29.6,32.9,29.9,32.6,29.9z"/>
</g>
</svg>
