<?xml version="1.0" encoding="utf-8"?>
<!-- Generator: Adobe Illustrator 19.2.1, SVG Export Plug-In . SVG Version: 6.00 Build 0)  -->
<svg version="1.1" id="Layer_1" xmlns="http://www.w3.org/2000/svg" xmlns:xlink="http://www.w3.org/1999/xlink" x="0px" y="0px"
	 viewBox="0 0 26.7 26.7" style="enable-background:new 0 0 26.7 26.7;" xml:space="preserve">
<style type="text/css">
	.st0{clip-path:url(#SVGID_2_);fill:#FFFFFF;}
</style>
<g>
	<defs>
		<rect id="SVGID_1_" y="0" width="26.7" height="26.7"/>
	</defs>
	<clipPath id="SVGID_2_">
		<use xlink:href="#SVGID_1_"  style="overflow:visible;"/>
	</clipPath>
	<path class="st0" d="M16.6,20.2H6.8c-0.2,0-0.4-0.2-0.4-0.4v-3.2c0-0.2,0.2-0.4,0.4-0.4h2.9v-2.9c0-0.2,0.2-0.4,0.4-0.4H13v-2.5
		h-1.3c-0.1,0-0.3-0.1-0.3-0.2c-0.1-0.1,0-0.3,0.1-0.4l3.2-3.2c0.1-0.1,0.4-0.1,0.5,0l3.2,3.2c0.1,0.1,0.1,0.4,0,0.5
		c-0.1,0.1-0.4,0.1-0.5,0l-3-3l-2.4,2.4h0.8c0.2,0,0.4,0.2,0.4,0.4v3.2c0,0.2-0.2,0.4-0.4,0.4h-2.9v2.9c0,0.2-0.2,0.4-0.4,0.4H7.2
		v2.5h9v-7.8c0-0.2,0.2-0.4,0.4-0.4c0.2,0,0.4,0.2,0.4,0.4v8.1C16.9,20,16.8,20.2,16.6,20.2"/>
	<path class="st0" d="M13.3,26.7C6,26.7,0,20.7,0,13.3C0,6,6,0,13.3,0s13.3,6,13.3,13.3C26.7,20.7,20.7,26.7,13.3,26.7 M13.3,0.7
		c-7,0-12.6,5.7-12.6,12.6c0,7,5.7,12.6,12.6,12.6c7,0,12.6-5.7,12.6-12.6C26,6.4,20.3,0.7,13.3,0.7"/>
</g>
</svg>
