<svg xmlns="http://www.w3.org/2000/svg" viewBox="0 0 113.39 113.38"><defs><style>.cls-1{fill:#626168;}</style></defs><title>task</title><g id="Layer_2" data-name="Layer 2"><g id="Слой_1" data-name="Слой 1"><path class="cls-1" d="M56.69,113.38a56.69,56.69,0,1,1,56.69-56.69A56.75,56.75,0,0,1,56.69,113.38ZM56.69,3a53.69,53.69,0,1,0,53.69,53.69A53.75,53.75,0,0,0,56.69,3Z"/><path class="cls-1" d="M49.79,85.78a1.5,1.5,0,0,1-.66-2.84L56,79.5a1.46,1.46,0,0,1,1.34,0l4.73,2.36V78.32l-5.4-2.71-6.22,3.11a1.51,1.51,0,0,1-2.18-1.34v-6.9a1.52,1.52,0,0,1,.84-1.35l6.07-3V42.89a1.51,1.51,0,0,1,1.5-1.5h4.48l-4.48-8.95L51.14,43.56a1.5,1.5,0,0,1-2.68-1.34l6.9-13.8a1.49,1.49,0,0,1,1.34-.83h0a1.51,1.51,0,0,1,1.34.83l6.9,13.8a1.5,1.5,0,0,1-1.35,2.16h-5.4V67a1.49,1.49,0,0,1-.82,1.34l-6.07,3V75L56,72.6a1.52,1.52,0,0,1,1.34,0L64.27,76a1.51,1.51,0,0,1,.82,1.34v6.91a1.5,1.5,0,0,1-.71,1.27,1.47,1.47,0,0,1-1.46.06l-6.23-3.11-6.22,3.11A1.5,1.5,0,0,1,49.79,85.78Z"/></g></g></svg>