<?xml version="1.0" encoding="utf-8"?>
<!-- Generator: Adobe Illustrator 19.2.1, SVG Export Plug-In . SVG Version: 6.00 Build 0)  -->
<svg version="1.1" id="Layer_1" xmlns="http://www.w3.org/2000/svg" xmlns:xlink="http://www.w3.org/1999/xlink" x="0px" y="0px"
	 viewBox="0 0 26.6 26.6" style="enable-background:new 0 0 26.6 26.6;" xml:space="preserve">
<style type="text/css">
	.st0{clip-path:url(#SVGID_2_);fill:#FFFFFF;}
</style>
<g>
	<defs>
		<rect id="SVGID_1_" y="0" width="26.6" height="26.6"/>
	</defs>
	<clipPath id="SVGID_2_">
		<use xlink:href="#SVGID_1_"  style="overflow:visible;"/>
	</clipPath>
	<path class="st0" d="M13.3,26.6C6,26.6,0,20.6,0,13.3C0,6,6,0,13.3,0c7.3,0,13.3,6,13.3,13.3C26.6,20.6,20.6,26.6,13.3,26.6
		 M13.3,0.7C6.3,0.7,0.7,6.3,0.7,13.3c0,6.9,5.6,12.6,12.6,12.6c6.9,0,12.6-5.6,12.6-12.6C25.9,6.3,20.2,0.7,13.3,0.7"/>
	<path class="st0" d="M19.6,17.7c-0.1,0-0.2-0.1-0.3-0.2c-0.7-1.2-3-2.3-4.5-1.9c-0.8,0.2-1.2,0.8-1.2,1.7c0,0.2-0.2,0.3-0.4,0.3h0
		c-0.2,0-0.3-0.1-0.3-0.3c-0.1-1-0.5-1.6-1.2-1.7c-1.5-0.4-3.8,0.8-4.5,1.9c-0.1,0.2-0.3,0.2-0.5,0.1c-1.4-0.7-2.3-2.5-2.3-4.5
		c0-1.2,0.5-3.6,2.3-4.6c0.1-0.1,0.2,0,0.3,0c0.1,0.1,0.2,0.2,0.2,0.3c0,1.2,0.5,2.3,1.3,3c0.6,0.6,1.5,0.9,2.3,0.9V8.8
		c0-0.2,0.2-0.3,0.3-0.4h0c0.2,0,0.3,0.1,0.4,0.3c0,0.9,1,1.3,1.8,1.4c0.7,0,1.6-0.3,1.7-1.3c0-0.2,0.2-0.3,0.4-0.3
		c0.2,0,0.3,0.2,0.3,0.3v3.8c1.8-0.2,3.5-1.5,3.5-3.9c0-0.1,0.1-0.3,0.2-0.3c0.1-0.1,0.3-0.1,0.4,0c1,0.7,2.4,3.3,2.3,4.6
		c0,0.2-0.2,0.3-0.4,0.3c-0.2,0-0.3-0.2-0.3-0.4c0.1-0.8-0.7-2.5-1.5-3.4c-0.4,2.5-2.5,3.8-4.5,3.8c-0.2,0-0.4-0.2-0.4-0.4v-2.8
		c-0.5,0.4-1.1,0.5-1.7,0.5c-0.7,0-1.3-0.2-1.8-0.6v2.9c0,0.2-0.1,0.3-0.3,0.4c-1.1,0.1-2.3-0.2-3.1-1c-0.8-0.7-1.3-1.8-1.5-2.9
		c-1.1,0.9-1.5,2.6-1.5,3.6c0,1.6,0.7,3.1,1.7,3.8c1-1.2,3.4-2.3,5-1.9c0.6,0.2,1.1,0.5,1.4,1.1c0.3-0.5,0.8-0.9,1.4-1.1
		c1.8-0.5,4.4,0.8,5.3,2.2c0.1,0.2,0.1,0.4-0.1,0.5C19.8,17.7,19.7,17.7,19.6,17.7"/>
</g>
</svg>
