<svg id="Слой_1" data-name="Слой 1" xmlns="http://www.w3.org/2000/svg" viewBox="0 0 233.32 121.96"><defs><style>.cls-1{fill:#00c0b5;}.cls-2{fill:#747678;}</style></defs><title>grace_horizontal_logo</title><path class="cls-1" d="M82.88 56.06a10.94 10.94 0 0 0-10.91-10.89H59.69v35.1h3.44v-13.3h7.21l7.63 13.2.06.11h4l-.18-.32-7.62-13.22A10.91 10.91 0 0 0 82.9 56.1m-3-7.2q-.35-.38-.73-.73.38.35.73.73m-.93 4.19a7.71 7.71 0 0 0-1-1.74 7.71 7.71 0 0 1 1 1.74 7.62 7.62 0 0 1 .45 1.43 7.62 7.62 0 0 0-.45-1.43m.39 3a7.48 7.48 0 0 1-7.4 7.44h-8.83V48.58h8.84a7.51 7.51 0 0 1 7.4 7.49m-2-5.41a7.66 7.66 0 0 0-5.38-2.29 7.66 7.66 0 0 1 5.38 2.29m2.08 6.94a7.72 7.72 0 0 1-5.93 6 7.72 7.72 0 0 0 5.93-6M59.94 45.36zm3 21.38h7.54l4.11 7.12-4.11-7.12h-7.54zm11-.18l7.77 13.48-7.77-13.48a10.82 10.82 0 0 0 6.82-4.37 10.6 10.6 0 0 0 .67-11.22 10.73 10.73 0 0 0-1.15-1.71 10.68 10.68 0 0 1 2.45 6.81 10.54 10.54 0 0 1-2 6.12 10.82 10.82 0 0 1-6.82 4.37M120.14 45.26l-.06-.12h-2.62l-.06.12-16.18 34.68-.14.3h3.89l.06-.12 4.79-10.32h18l4.79 10.32.06.12h3.84l-.14-.3zm-8.72 21.06l7.35-15.78 7.35 15.78h-14.7zm7.35-16.29l-7.68 16.5 7.68-16.5 7.68 16.5zm-17.36 30l16.18-34.68zm3.37 0l2.43-5.22zm28 0l-4.85-10.44zm-12.81-34.68l16.18 34.68zM226.56 45.17h-22.59v35.1h22.8v-3.48h-19.41V64.04h8.32v-3.48h-8.32V48.62h19.41v-3.45h-.21zm-19.41 31.8zm8.32-16.2zm11.09-12.37h-19.41 19.41zM181.28 72.27l-.15-.16-.15.16-.75.76a14.67 14.67 0 1 1-.08-20.83l.7.69.15.14.15-.14 2.13-2 .16-.15-.16-.16-.76-.75a18 18 0 1 0 .1 25.58l.7-.7.15-.15-.14-.15zM25.29 121.96l-.33-.34c-16.1-16.93-25-38.47-25-60.63s8.87-43.72 25-60.65l.33-.34v122zm-.38-121C9.08 17.77.37 39.07.37 60.96s8.71 43.22 24.54 60V.94z"/><path class="cls-1" d="M25.24 121.62l-.27-.26a52.89 52.89 0 0 0 0-74.49l.27-.26a53.27 53.27 0 0 1 0 75"/><path class="cls-1" d="M25.29 47.17l-.32-.3a33 33 0 0 1 0-46.53L25.3 0v47.17zM24.91.9a32.63 32.63 0 0 0 0 45.32V.94z"/><path class="cls-1" d="M25.15 62.76h10.7v.83a19.84 19.84 0 0 1-3.45 11.39 16.15 16.15 0 0 1-13.43 6.47 18.625 18.625 0 1 1 .11-37.25 17.93 17.93 0 0 1 11 3.56 22 22 0 0 1 4.16 4.27l-3 2.7a19 19 0 0 0-3.4-3.73 13.22 13.22 0 0 0-8.74-3c-8.69 0-14.74 6.53-14.74 14.9a14.43 14.43 0 0 0 14.63 14.79 12.53 12.53 0 0 0 11-6 11.38 11.38 0 0 0 1.46-5.13h-6.38v-3.74z"/></svg>