<svg xmlns="http://www.w3.org/2000/svg" xmlns:xlink="http://www.w3.org/1999/xlink" viewBox="0 0 161 172"><defs><linearGradient id="linear-gradient" y1="86.02" x2="160.96" y2="86.02" gradientUnits="userSpaceOnUse"><stop offset="0" stop-color="#75b7ce"/><stop offset="1" stop-color="#f2d4ec"/></linearGradient></defs><title>Icon2</title><g id="Layer_2" data-name="Layer 2"><g id="Isolation_Mode" data-name="Isolation Mode"><path d="M154.3,87.7a43.3,43.3,0,0,0-36.7-66.5,43.3,43.3,0,0,0-73.4-1.7A43.3,43.3,0,0,0,6.7,84.3a43.3,43.3,0,0,0,36.7,66.5h0a43.3,43.3,0,0,0,73.4,1.7,43.6,43.6,0,0,0,10.9-1.5A43.4,43.4,0,0,0,158.5,98,43.6,43.6,0,0,0,154.3,87.7Zm0-44.3a42.4,42.4,0,0,1-.6,43.4,43.4,43.4,0,0,0-36.4-20.9,43.3,43.3,0,0,0,.8-43.6A42.4,42.4,0,0,1,154.3,43.4Zm-38,108.2a42.4,42.4,0,0,1-35.9-20.3l.2.2a44.2,44.2,0,0,0,5.5-35.7,44.5,44.5,0,0,0,31.5,13.1h.3v-.4a42.3,42.3,0,0,1-1.6,43.1ZM44.6,20.5a42.5,42.5,0,0,1,36,20.4l-.4-.2a44.3,44.3,0,0,0-5.4,35.7A44.5,44.5,0,0,0,43.3,63.1H43v.5a42.3,42.3,0,0,1,1.6-43.1Zm78,22.9a42.1,42.1,0,0,1-6.2,22v-.6A44,44,0,0,0,86.5,76.6a44.4,44.4,0,0,0-3.8-35.9l-.3.2a42.2,42.2,0,0,1,34.4-18.6A42.1,42.1,0,0,1,122.6,43.4ZM85,84.5H83.5a40.9,40.9,0,0,1,29.9-16.5A41.3,41.3,0,0,1,85,84.5Zm30.2,21.3A41.5,41.5,0,0,1,83.3,87.6H85A41.5,41.5,0,0,1,115.2,105.8ZM45.8,66.2A41.6,41.6,0,0,1,77.7,84.4H76.2A41.2,41.2,0,0,1,45.8,66.2ZM80.5,82.9a41.3,41.3,0,0,1,.9-38.4A41.3,41.3,0,0,1,80.5,82.9Zm-4.3,4.6h1.2a40.9,40.9,0,0,1-29.9,16.5A41.1,41.1,0,0,1,76.2,87.5Zm4.2,1.6a41.2,41.2,0,0,1-.9,38.4A41.6,41.6,0,0,1,80.4,89.1ZM68.2,86.1a44.2,44.2,0,0,0-25,18.8l.5.3A42.2,42.2,0,0,1,7.9,84.4,42.2,42.2,0,0,1,42.1,65.2l-.3.2A44.2,44.2,0,0,0,68.2,86.1ZM44.5,106.6v.6A44,44,0,0,0,74.4,95.4a44.7,44.7,0,0,0,3.7,35.9l.4-.2A42.3,42.3,0,0,1,44,149.8a42.2,42.2,0,0,1,.5-43.2ZM92.8,86a44.3,44.3,0,0,0,24.9-18.9l-.5-.3a42.4,42.4,0,0,1,35.8,20.8,42.2,42.2,0,0,1-34.2,19.2l.4-.2A44.7,44.7,0,0,0,92.8,86ZM80.3,1a42.4,42.4,0,0,1,36.1,20.2A43.3,43.3,0,0,0,81.5,40.5a43.3,43.3,0,0,0-36.3-21A42.3,42.3,0,0,1,80.3,1ZM7.7,41.7A42.1,42.1,0,0,1,33.4,21.9a42.6,42.6,0,0,1,10-1.4,43.3,43.3,0,0,0-1.2,43.6A43.3,43.3,0,0,0,7.3,83.4,42.4,42.4,0,0,1,7.7,41.7Zm-1,87a42.4,42.4,0,0,1,.6-43.4,43.2,43.2,0,0,0,36.4,20.9,43.3,43.3,0,0,0-.8,43.6A42.4,42.4,0,0,1,6.7,128.7Zm74,42.4a42.4,42.4,0,0,1-36.1-20.2,43.2,43.2,0,0,0,34.8-19.3,43.4,43.4,0,0,0,36.3,21A42.3,42.3,0,0,1,80.7,171Zm72.6-40.7a42.1,42.1,0,0,1-25.7,19.7,42.6,42.6,0,0,1-10,1.4,43.2,43.2,0,0,0,1.2-43.7,43.2,43.2,0,0,0,34.9-19.2,42.7,42.7,0,0,1,3.9,9.6A42.1,42.1,0,0,1,153.3,130.4Z" fill="url(#linear-gradient)"/></g></g></svg>