<svg xmlns="http://www.w3.org/2000/svg" xmlns:xlink="http://www.w3.org/1999/xlink" viewBox="0 0 163 161"><defs><linearGradient id="linear-gradient" x1="24.61" y1="137.39" x2="138.39" y2="23.61" gradientUnits="userSpaceOnUse"><stop offset="0" stop-color="#75b7ce"/><stop offset="1" stop-color="#f2d4ec"/></linearGradient></defs><title>icon3</title><g id="Layer_2" data-name="Layer 2"><g id="Isolation_Mode" data-name="Isolation Mode"><path d="M162.6,79.4l-.6-.6A80.5,80.5,0,0,0,1,78.9l-.6.6a1.5,1.5,0,0,0,0,2.1l.6.6a80.5,80.5,0,0,0,160.9,0l.6-.6A1.5,1.5,0,0,0,162.6,79.4ZM81.5,159.8,43.4,121.7l.8-.8-.7-.7-.7.8L15.8,94.1a140.4,140.4,0,0,0,35,18.4l-.5.6.7.7.8-.8-.2-.2a96.4,96.4,0,0,0,25.8,5.1l4.3.3,4.3-.3a97.1,97.1,0,0,0,26.9-5.5h.1a140.7,140.7,0,0,0,34.5-18.2ZM41,41.7l.7.7.7-.7-.7-.7L81.5,1.2l65.7,65.7a140.3,140.3,0,0,0-35.1-18.4h.1l-.7-.7-.4.5a96.1,96.1,0,0,0-25.3-4.9L81.5,43l-4.3.3a97.4,97.4,0,0,0-27.5,5.7l-.3-.3-.6.6a141.9,141.9,0,0,0-33,17.7Zm70.4,67.8-.3-.3-.5.6c-3.1,1-6.3,2-9.6,2.7a37.7,37.7,0,0,0,6.7-5.2l.4.4.7-.7-.4-.3a37.4,37.4,0,0,0-.9-53.1l.3-.3-.7-.7-.3.3a37.7,37.7,0,0,0-5.8-4.4c29.8,6.9,53.1,27.2,58.4,32.1C154.7,84.8,136.1,101.1,111.3,109.6Zm-29.8,5.3H77.4a34.5,34.5,0,0,1,0-68.5h8.2a34.5,34.5,0,0,1,0,68.5ZM54,109l-.8.8.5.5C27.9,102,8.4,84.9,3.7,80.5,8.3,76.2,26.6,60.2,51,51.6h.1a103.5,103.5,0,0,1,11-3.2,37.5,37.5,0,0,0-6.6,59l-.7.8.7.7.7-.8a37.7,37.7,0,0,0,5.9,4.5c-2.7-.6-5.4-1.4-8-2.2l.7-.7Zm107-31.1c-1.6-1.5-4.4-3.9-8.2-6.9L120.9,39.2l.4-.4-.7-.7-.4.4L82.7,1a79.2,79.2,0,0,1,52.8,21.2l-.6.7.7.7.6-.7A79.3,79.3,0,0,1,160.9,77.9ZM24.3,25.3h.1l.7-.7H25A79.2,79.2,0,0,1,80.3,1l-70,70C6.5,74,3.7,76.4,2.1,77.9A79.2,79.2,0,0,1,24.3,25.3ZM2.1,83.1C3.7,84.6,6.5,87,10.3,90l70,70a79.2,79.2,0,0,1-52.9-21.3l.2-.2-.7-.7-.2.2A79.3,79.3,0,0,1,2.1,83.1Zm136.2,53-.6-.6-.7.7.6.6A79.2,79.2,0,0,1,82.7,160l38.9-38.9.5.5.7-.7-.5-.5L152.7,90c3.8-2.9,6.6-5.4,8.2-6.9A79.2,79.2,0,0,1,138.3,136.1Zm-46-45.3.8.8-.7.7-.8-.8ZM97,95.4l.8.8-.7.7-.8-.8Zm7.8,7.7.8.8-.7.7-.8-.8Zm-11-10.8.8.8-.7.7-.8-.8Zm1.6,1.5.8.8-.7.7-.8-.8Zm14.1,13.9.8.8-.7.7-.8-.8ZM90.7,89.3l.8.8-.7.7L90,90ZM98.5,97l.8.8-.7.7-.8-.8Zm3.1,3.1.8.8-.7.7-.8-.8Zm14.1,13.9.8.8-.7.7-.8-.8Zm14.1,13.9.8.8-.7.7-.8-.8Zm1.6,1.5.8.8-.7.7-.8-.8Zm-4.7-4.6.8.8-.7.7-.8-.8Zm1.6,1.5.8.8-.7.7-.8-.8Zm7.8,7.7.8.8-.7.7-.8-.8Zm-1.6-1.5.8.8-.7.7-.8-.8Zm-1.6-1.5.8.8-.7.7-.8-.8ZM100.1,98.5l.8.8-.7.7-.8-.8ZM118.9,117l.8.8-.7.7-.8-.8Zm2.4,2.3-.7.7-.8-.8.7-.7Zm3.9,3.9.8.8-.7.7-.8-.8Zm-21.9-21.6.8.8-.7.7-.8-.8Zm20.4,20,.8.8-.7.7-.8-.8Zm-6.3-6.2.8.8-.7.7-.8-.8Zm-3.1-3.1.8.8-.7.7-.8-.8Zm-46.7-46-.7.7-.8-.8.7-.7ZM44.8,45.5l-.8-.8.7-.7.8.8ZM43.2,44l-.8-.8.7-.7.8.8ZM73,71.8l-.7.7.7-.8Zm-1.5-.1-.8-.8.7-.7.8.8ZM47.9,48.6l-.8-.8.7-.7.8.8ZM46.4,47l-.8-.8.7-.7.8.8ZM63.6,64l-.8-.8.7-.7.8.8Zm6.3,6.2-.8-.8.7-.7.8.8Zm-11-10.8-.8-.8.7-.7.8.8Zm1.6,1.5-.8-.8.7-.7.8.8ZM62,62.5l-.8-.8L62,61l.8.8Zm3.1,3.1-.8-.8.7-.7.8.8Zm3.1,3.1-.8-.8.7-.7.8.8ZM58,57.1l-.7.7-.8-.8.7-.7ZM35.4,36.2l-.8-.8.7-.7.8.8Zm-3.1-3.1-.8-.8.7-.7.8.8Zm1.6,1.5-.8-.8.7-.7.8.8ZM37,37.8l-.8-.8.7-.7.8.8ZM26,27l-.8-.8.7-.7.8.8Zm4.7,4.6-.8-.8.7-.7.8.8Zm9.4,9.3-.8-.8.7-.7.8.8Zm-11-10.8-.8-.8.7-.7.8.8Zm-1.6-1.5-.8-.8.7-.7.8.8Zm11,10.8-.8-.8.7-.7.8.8ZM52.6,53.2l-.8-.8.7-.7.8.8Zm1.6,1.5-.8-.8.7-.7.8.8Zm-4.8,59,.7.7-.8.8-.7-.7ZM38.9,126.5l-.7-.7.8-.8.7.7Zm9.1-11.1.7.7-.8.8-.7-.7ZM28.3,137.7l-.7-.7.8-.8.7.7Zm1.5-1.6-.7-.7.8-.8.7.7Zm7.5-8-.7-.7.8-.8.7.7ZM72,89.8l.7.7-.8.8-.7-.7ZM40.4,124.9l-.7-.7.8-.8.7.7Zm6-7.9.7.7-.8.8-.7-.7Zm-4.5,6.3-.7-.7.8-.8.7.7Zm3-4.7.7.7-.8.8-.7-.7ZM61.5,101l.7.7-.8.8-.7-.7ZM31.3,134.5l-.7-.7.8-.8.7.7ZM63,99.4l.7.7-.8.8-.7-.7Zm1.5-1.6.7.7-.8.8-.7-.7ZM35.9,129.7l-.7-.7.8-.8.7.7ZM69,93l.7.7-.8.8-.7-.7Zm-1.5,1.6.7.7-.8.8-.7-.7ZM66,96.2l.7.7-.8.8-.7-.7ZM32.8,132.9l-.7-.7.8-.8.7.7ZM70.5,91.4l.7.7-.8.8-.7-.7ZM34.4,131.3l-.7-.7.8-.8.7.7ZM60,102.6l.7.7-.8.8-.7-.7Zm-1.5,1.6.7.7-.8.8-.7-.7ZM114.5,46l-.7-.7.8-.8.7.7Zm4.5-4.8-.7-.7.8-.8.7.7ZM103.2,58l-.8.8-.7-.7.8-.8ZM113,47.6l-.7-.7.8-.8.7.7Zm3-3.2-.7-.7.8-.8.7.7Zm1.5-1.6-.7-.7.8-.8.7.7Zm16.6-19.1.7.7-.8.8-.7-.7ZM108.5,50.9l.7.7-.8.8-.7-.7Zm22.6-24,.7.7-.8.8-.7-.7Zm1.5-1.6.7.7-.8.8-.7-.7Zm-4.5,4.8.7.7-.8.8-.7-.7Zm-6,6.4.7.7-.8.8-.7-.7Zm4.5-4.8.7.7-.8.8-.7-.7Zm-3,3.2.7.7-.8.8-.7-.7Zm1.5-1.6.7.7-.8.8-.7-.7Zm4.5-4.8.7.7-.8.8-.7-.7ZM98,63.6l-.7-.7.8-.8.7.7ZM99.5,62l-.7-.7.8-.8.7.7Zm1.5-1.6-.7-.7.8-.8.7.7Zm3-3.2-.7-.7.8-.8.7.7Zm-7.5,8-.7-.7.8-.8.7.7ZM95,66.8l-.7-.7.8-.8.7.7Zm-1.5,1.6-.7-.7.8-.8.7.7ZM91.9,70l-.7-.7.8-.8.7.7Zm-1.5,1.6-.7-.7.8-.8.7.7Zm2.1,8.9a11.6,11.6,0,0,0-3-7.8l.2-.2-.7-.7-.2.2a11.7,11.7,0,0,0-16,17h0l.7.7h0a11.6,11.6,0,0,0,15.4-.7l.3.3.7-.7-.3-.3A11.6,11.6,0,0,0,92.5,80.5ZM80.8,91.2a10.6,10.6,0,0,1-6.6-2.3h0l-.7-.7h0a10.7,10.7,0,1,1,7.4,3Z" fill="url(#linear-gradient)"/></g></g></svg>