<svg xmlns="http://www.w3.org/2000/svg" xmlns:xlink="http://www.w3.org/1999/xlink" viewBox="0 0 161 148.4"><defs><linearGradient id="linear-gradient" x1="24.28" y1="128.87" x2="137.1" y2="16.04" gradientUnits="userSpaceOnUse"><stop offset="0" stop-color="#75b7ce"/><stop offset="1" stop-color="#f2d4ec"/></linearGradient></defs><title>Icon6</title><g id="Layer_2" data-name="Layer 2"><g id="Layer_4" data-name="Layer 4"><path d="M159.8,82.1,161,62.4a.5.5,0,0,0-.1-.3L129.3,8.3l-.2-.2L115,0l-.2.3h-66L31.1,9.3l-.2.2L.1,63.8V80.3h0a.5.5,0,0,0,.1.2l33,57.1.3.2,15.1,10.5h.3l64-.5h.3l14.4-9.3-.2-.3L160,82.8a.5.5,0,0,0-.1-.6Zm.1-19.7V63l-.3-.3-.6.6.7.7h.1l-1,17.1L129,48.2a.5.5,0,0,0,.1-.5L115.7,1.6l12.4,7.1.3.8h.4ZM114.6,1.3l3.1,10.5-.6.2.3,1,.5-.2,10.1,34.8H128L98,63.8,80.7,73l-.9-.5h1v-.8h-1v.8h0l-42.1-24L49.4,1.3ZM31.6,10.1l.7-.4-.3.8.8.2.3-1-.6-.2L48.3,1.8,45.3,13.5H45l-.3,1h.4L36.7,48.2h-.3L1.1,79.2V64.8l.2.3.8-.7-.5-.6-.5.4H1ZM1.2,80.4l7.6-6.7h0l.8-.7h0L36.7,49.3,79.4,73.5l.4.7h.4l.2,49.4L33.8,136.8Zm47.7,67h-.2V147h-.3l-.8-.6.8-.3-.3-.8-.9.3.2.6-12.7-8.8,8.8-2.5.2.6.9-.3-.2-.5,36.7-10.5h0l34.2,10.9v.7l1,.2v-.6l9.4,3-12.3,7.9h-.6v.6h-.1Zm77.4-9.8-10.5-3.3h.6l.2-.8-1-.2-.2.8-34-10.8-.3-48.6.6.4.5-.9-.7-.4-.4.7v-.7l17.2-9.2,29.7-15.9,21.8,24h0l.4.4,8.6,9.4ZM34.1,104.2l-.9.3-.3-.8.9-.3Zm-.2,2.7.9-.3.3.8-.9.3Zm.7-1.1-.9.3-.3-.8.9-.3Zm-1.1-3.1-.9.3-.3-.8.9-.3Zm-.5-1.6-.9.3-.3-.8h.4v-.2l.4-.4h-.1l.4-.2.2.3h0l.3.5-.4.2h0Zm14.3,42-.9.3-.3-.8.9-.3ZM36,109.6l.3.8-.9.3L35,110Zm10.8,31.9-.9.3-.3-.8.9-.3Zm.8,2.3.3.8-.9.3-.3-.8ZM46.3,140l-.9.3-.3-.8.9-.3Zm-1.1-3.1-.9.3-.3-.8.9-.3Zm.5,1.6-.9.3-.3-.8.9-.3Zm-4-11.7.3.8-.9.3-.3-.8Zm-6.1-17.9-.9.3-.3-.8.9-.3Zm1.1,3.1-.9.3-.3-.8.9-.3Zm.8,2.3.3.8-.9.3-.3-.8Zm4,11.7-.9.3-.3-.8.9-.3Zm-4.2-12.4-.9.3-.3-.8.9-.3Zm2.6,7.8-.9.3-.3-.8.9-.3Zm.5,1.6-.9.3-.3-.8.9-.3Zm-2.1-6.2-.9.3-.3-.8.9-.3Zm4.8,14-.9.3-.3-.8.9-.3ZM39.8,124l.9-.3.3.8-.9.3Zm4.1,9,.3.8-.9.3-.3-.8Zm-5.7-13.7.9-.3.3.8-.9.3Zm.7-1.1-.9.3-.3-.8.9-.3Zm4.8,14-.9.3-.3-.8.9-.3Zm-1.1-3.1-.9.3-.3-.8.9-.3Zm73.5,2.8,1,.2-.2.8-1-.2Zm-.3,5.8-1-.2.2-.8,1,.2Zm.7-7.4,1,.2-.2.8-1-.2ZM114,145.7l-1-.2.2-.8,1,.2Zm1.5-6.4-1-.2.2-.8,1,.2Zm-1.1,4.8-1-.2.2-.8,1,.2Zm.4-1.6-1-.2.2-.8,1,.2Zm.4-1.6-1-.2.2-.8,1,.2Zm4.3-23.5,1,.2-.2.8-1-.2Zm.4-1.6,1,.2-.2.8-1-.2Zm.4-1.6,1,.2-.2.8-1-.2Zm.4-1.6,1,.2-.2.8-1-.2Zm.4-1.6,1,.2-.2.8-1-.2Zm-1.8,8,1,.2-.2.8-1-.2Zm-.7,3.2,1,.2-.2.8-1-.2Zm.4-1.6,1,.2-.2.8-1-.2Zm4-17.6,1,.2-.2.8-1-.2Zm-4.7,20.8,1,.2-.2.8-1-.2Zm5.1-22.4,1,.2-.2.8-1-.2Zm-6.2,27.2,1,.2-.2.8-1-.2Zm4.7-20.8,1,.2-.2.8-1-.2Zm-.4,1.6,1,.2-.2.8-1-.2Zm1.1-4.8,1,.2-.2.8-1-.2Zm-.4,1.6,1,.2-.2.8-1-.2Zm-4.4,19.2,1,.2-.2.8-1-.2Zm-.4,1.6,1,.2-.2.8-1-.2ZM83,24.1l-.3-1,.8-.3.3,1Zm1.6-.5-.3-1,.8-.3.3,1Zm1.6-.5-.3-1,.8-.3.3,1Zm1.6-.5-.3-1,.8-.3.3,1Zm1.6-.5-.3-1,.8-.3.3,1Zm1.6-.5-.3-1,.8-.3.3,1Zm-9.4,3-.3-1,.8-.3.3,1ZM80.6,47h.1v.8H79.6V47h1Zm0-1.6h.1v.8H79.6v-.8h1ZM92.4,21l-.3-1,.8-.3.3,1Zm-11.8,21h.1v.8H79.6V42h1ZM80.8,70h0v.8h-1V70h1Zm64,8,.7.7-.6.6-.7-.7ZM129.9,93.3l.7.7-.6.6-.7-.7ZM101.7,18l-.3-1,.8-.3.3,1ZM131,92.2l.7.7-.6.6-.7-.7ZM103.3,17.5l-.3-1,.8-.3.3,1Zm25.4,77,.7.7-.6.6-.7-.7Zm-34.8-74-.3-1,.8-.3.3,1ZM104.9,17l-.3-1,.8-.3.3,1Zm-7.8,2.5-.3-1,.8-.3.3,1Zm-1.6.5-.3-1,.8-.3.3,1Zm4.7-1.5-.3-1,.8-.3.3,1Zm33.1,71.3.7.7-.6.6-.7-.7ZM132.2,91l.7.7-.6.6-.7-.7ZM98.6,19l-.3-1,.8-.3.3,1Zm-18,24.7h.1v.8H79.6v-.8h1Zm.2,23h0v.8h-1v-.8h1Zm53.7,21.9.7.7-.6.6-.7-.7Zm1.1-1.2.7.7-.6.6L135,88ZM80.7,61.8h0v.8h-1v-.8h1Zm0,3.3h0v.8h-1v-.8h1Zm0-1.6h0v.8h-1v-.8h1ZM150.1,74l-.6.6-.7-.7.6-.6Zm-7.6,6.4.7.7-.6.6-.7-.7ZM80.6,48.7h.1v.8H79.6v-.8h1Zm63,30.6.7.7-.6.6-.7-.7Zm-5.7,5.9.7.7-.6.6-.7-.7Zm2.3-2.4.7.7-.6.6-.7-.7ZM139,83.9l.7.7-.6.6-.7-.7Zm2.3-2.4.7.7-.6.6-.7-.7Zm-60.7-28h.1v.8h-1v-.8h1Zm0,3.3h0v.8h-1v-.8h1Zm0-4.9h.1v.8H79.6v-.8h1Zm0,3.3h0v.8h-1v-.8h1Zm.1,13.1h0v.8h-1v-.8h1Zm-.1-18.1h.1v.8H79.6v-.8h1Zm66.5,25.4.7.7-.6.6-.7-.7ZM80.7,58.5h0v.8h-1v-.8h1Zm46.9,37.2.7.7-.6.6-.7-.7Zm18.4-18.8.7.7-.6.6-.7-.7ZM80.7,60.2h0V61h-1v-.8h1Zm67.5,14.4.7.7-.6.6-.7-.7ZM136.7,86.3l.7.7-.6.6-.7-.7ZM87.3,77.2l.7.4-.5.9-.7-.4Zm-4.2-2.5.7.4-.5.9-.7-.4ZM120,97.8l-.7-.4.5-.9.7.4Zm-1.4-.8-.7-.4.5-.9.7.4ZM84.5,75.5l.7.4-.5.9-.7-.4Zm1.4.8.7.4-.5.9-.7-.4Zm31.3,19.7-.7-.4.5-.9.7.4Zm2.2-84.8.3,1-.8.3-.3-1Zm2,87.3-.7-.4.5-.9.7.4Zm-15-82.1-.3-1,.8-.3.3,1Zm18,83,.4.4-.2.2-.4.2h0v.6l-1-.2.2-.8h.2l.5-.8.5.3ZM107.1,88.9l.7.4-.5.9-.7-.4Zm1.4.8.7.4-.5.9-.7-.4Zm14.3,9.7-.7-.4.5-.9.7.4ZM100,84.7l.7.4-.5.9-.7-.4ZM88.7,78l.7.4-.5.9-.7-.4Zm9.9,5.9.7.4-.5.9-.7-.4Zm4.2,2.5.7.4-.5.9-.7-.4Zm1.4.8.7.4-.5.9-.7-.4Zm-7.1-4.2.7.4-.5.9-.7-.4Zm4.2,2.5.7.4-.5.9-.7-.4ZM90.1,78.9l.7.4-.5.9-.7-.4Zm1.4.8.7.4-.5.9-.7-.4Zm4.2,2.5.7.4-.5.9-.7-.4Zm-1.4-.8.7.4-.5.9-.7-.4ZM93,80.5l.7.4-.5.9-.7-.4Zm16.6-65-.3-1,.8-.3.3,1ZM153,71.1l-.7-.7.6-.6.7.7Zm-1.1,1.2-.7-.7.6-.6.7.7ZM126.4,96.9l.7.7-.6.6-.7-.7ZM125.3,98l.7.7-.6.6-.7-.7Zm30-29.3-.7-.7.6-.6.7.7Zm-1.1,1.2-.7-.7.6-.6.7.7ZM112.7,14.5l-.3-1,.8-.3.3,1Zm-2.8,76.1.7.4-.5.9-.7-.4Zm-4.2-2.5.7.4-.5.9-.7-.4Zm10.1-74.6-.3-1,.8-.3.3,1ZM108,16l-.3-1,.8-.3.3,1Zm48.4,51.6-.7-.7.6-.6.7.7ZM114.3,14l-.3-1,.8-.3.3,1Zm-3.1,1-.3-1,.8-.3.3,1Zm46.4,51.4-.7-.7.6-.6.7.7Zm-41.3,28-.5.9-.7-.4.5-.9Zm-4.9-2.9.7.4-.5.9-.7-.4ZM121,10.8l.3,1-.8.3-.3-1Zm-6.8,82.4.7.4-.5.9-.7-.4Zm-1.4-.8.7.4-.5.9-.7-.4Zm45.9-27.1-.7-.7.6-.6.7.7Zm-36.1-55,.3,1-.8.3-.3-1Zm4.7-1.5.3,1-.8.3-.3-1Zm-1.6.5.3,1-.8.3-.3-1Zm-1.6.5.3,1-.8.3-.3-1ZM79.9,25.2l-.6-.2.3-1h.2l.5-.2.3,1-.5.2v-.2h0Zm-1.4-.4-.8-.2.3-1,.8.2Zm-7.9-2.4-.8-.2.3-1,.8.2Zm-1.6-.5-.8-.2.3-1,.8.2Zm3.1,1-.8-.2.3-1,.8.2Zm-4.7-1.4-.8-.2.3-1,.8.2Zm7.9,2.4-.8-.2.3-1,.8.2Zm1.6.5-.8-.2.3-1,.8.2Zm-11-3.4-.8-.2.3-1,.8.2Zm7.9,2.4L73,23l.3-1,.8.2Zm5.8,16.3h-.1v-.8h1.1v.8h-1Zm0-11.5h-.1v-.8h1.1v.8h-1Zm0,3.3h-.1v-.8h1.1v.8h-1Zm0-1.6h-.1v-.8h1.1v.8h-1Zm0-3.3h-.1v-.8h1.1v.8h-1Zm-15.2-6-.8-.2.3-1,.8.2ZM79.6,37.9h-.1v-.8h1.1V38h-1Zm0-4.9h-.1v-.8h1.1V33h-1Zm1,7.4v.8H79.6v-.8h1.1Zm-1-4.1h-.1v-.8h1.1v.8h-1Zm0-1.6h-.1v-.8h1.1v.8h-1ZM18.3,83l-.8.7L17,83l.8-.7ZM41.2,96l-.5-.9.7-.4.5.9Zm-1.4.8-.5-.9.7-.4.5.9Zm2.9-1.6-.5-.9.7-.4.5.9Zm-4.3,2.4-.5-.9.7-.4.5.9Zm-4.3,2.4-.5-.9.7-.4.5.9Zm10-5.7-.5-.9.7-.4.5.9ZM37,98.5l-.5-.9.7-.4.5.9ZM10.7,74.3l-.8.7-.5-.6.8-.7ZM35.5,99.3l-.5-.9.7-.4.5.9Zm22.9-13-.5-.9.7-.4.5.9ZM45.5,93.6l-.5-.9.7-.4.5.9Zm8.6-4.9-.5-.9.7-.4.5.9ZM57,87.1l-.5-.9.7-.4.5.9Zm-4.3,2.4-.5-.9.7-.4.5.9Zm2.9-1.6-.5-.9.7-.4.5.9ZM47,92.8l-.5-.9.7-.4.5.9Zm1.4-.8-.5-.9.7-.4.5.9Zm1.4-.8-.5-.9.7-.4.5.9ZM11.8,75.6l-.8.7-.5-.6.8-.7ZM51.3,90.4l-.5-.9.7-.4.5.9ZM26.9,92.9l-.8.7-.5-.6.8-.7ZM28,94.1l-.8.7-.5-.6.8-.7Zm-2.2-2.5-.8.7-.5-.6.8-.7Zm-1.1-1.2-.8.7-.5-.6.8-.7Zm4.3,4.9-.8.7-.5-.6.8-.7Zm2.2,2.5-.8.7-.5-.6.8-.7ZM32.3,99l-.8.7-.5-.6.8-.7Zm-2.2-2.5-.8.7-.5-.6.8-.7Zm-6.5-7.4-.8.7-.5-.6.8-.7Zm-2.2-2.5-.8.7-.5-.6.8-.7Zm-5.4-6.2-.8.7-.5-.6.8-.7ZM15,79.3l-.8.7-.5-.6.8-.7ZM13.9,78l-.8.7-.5-.6.8-.7Zm3.3,3.7-.8.7-.5-.6.8-.7Zm5.4,6.2-.8.7-.5-.6.8-.7Zm-3.2-3.7-.8.7-.5-.6.8-.7Zm-6.5-7.4-.8.7-.5-.6.8-.7Zm7.6,8.6-.8.7-.5-.6.8-.7ZM40.8,13.2,40,13l.3-1,.8.2Zm22,6.7-.8-.2.3-1,.8.2ZM43.9,14.2l-.8-.2.3-1,.8.2Zm-1.6-.5-.8-.2.3-1,.8.2Zm3.9,1.2.3-1,.8.2-.3,1ZM34.5,11.3l-.8-.2.3-1,.8.2Zm1.6.5-.8-.2.3-1,.8.2Zm12.6,3.8-.8-.2.3-1,.8.2Zm-11-3.4-.8-.2.3-1,.8.2ZM7.2,71.9l.8-.7.5.6-.8.7Zm32-59.2-.8-.2.3-1,.8.2Zm18.9,5.8-.8-.2.3-1,.8.2Zm1.6.5-.8-.2.3-1,.8.2Zm-3.1-1-.8-.2.3-1,.8.2Zm4.7,1.4-.8-.2.3-1,.8.2Zm-9.4-2.9-.8-.2.3-1,.8.2Zm3.1,1-.8-.2.3-1,.8.2Zm-4.7-1.4-.8-.2.3-1,.8.2Zm3.1,1-.8-.2.3-1,.8.2ZM65.6,82.3l-.5-.9.7-.4.5.9Zm4.3-2.4-.5-.9.7-.4.5.9Zm-1.4.8-.5-.9.7-.4.5.9Zm-1.4.8-.5-.9.7-.4.5.9ZM71.3,79l-.5-.9.7-.4.5.9Zm-10,5.7-.5-.9.7-.4.5.9Zm1.4-.8-.5-.9.7-.4.5.9Zm-2.9,1.6-.5-.9.7-.4.5.9Zm12.9-7.3-.5-.9.7-.4.5.9Zm-8.6,4.9-.5-.9.7-.4.5.9ZM4,68.2l.8-.7.5.6-.8.7ZM1.8,65.7l.8-.7.5.6-.8.7ZM2.9,67l.8-.7.5.6-.8.7Zm3.3,3.7.8-.7.5.6-.8.7ZM5,69.4l.8-.7.5.6-.8.7ZM78.4,75l-.5-.9.7-.4.5.9Zm-2.9,1.6-.5-.9.7-.4.5.9Zm-1.4.8-.5-.9.7-.4.5.9ZM77,75.8l-.5-.9.7-.4.5.9Z" fill="url(#linear-gradient)"/></g></g></svg>