<svg xmlns="http://www.w3.org/2000/svg" xmlns:xlink="http://www.w3.org/1999/xlink" viewBox="0 0 161 161"><defs><linearGradient id="linear-gradient" x1="23.6" y1="137.4" x2="137.4" y2="23.6" gradientUnits="userSpaceOnUse"><stop offset="0" stop-color="#75b7ce"/><stop offset="1" stop-color="#f2d4ec"/></linearGradient></defs><title>icon5</title><g id="Layer_2" data-name="Layer 2"><g id="Isolation_Mode" data-name="Isolation Mode"><path d="M80.5,0A80.5,80.5,0,1,0,161,80.5,80.6,80.6,0,0,0,80.5,0Zm69.1,119.7L126.9,80.5l22.7-39.2a79.2,79.2,0,0,1,0,78.5Zm-46.9,0v.8L80.5,158.9,58.2,120.4v-.7h-.4L46.8,100.5h67.5l-11.1,19.2ZM81,42.5l32.1,55.6L81,79Zm-.5,37.4,33,19.6h-66ZM47.9,98.1,80,42.5V79Zm78.5-16.6,21.5,37.3L115.8,99.7ZM115,99.2h-.1L81.4,41.3h67ZM81,40.3V2.9l21.6,37.4Zm-1,0H58.4L80,2.9Zm-.4,1L46.1,99.2H46L12.6,41.3ZM45.2,99.7,13.1,118.8,34.6,81.5Zm.5.9,11,19.1H13.5Zm69.7,0,32.1,19.1H104.3ZM149,40.3H103.7L81.1,1A79.5,79.5,0,0,1,149,40.3ZM79.9,1,57.3,40.3H12A79.5,79.5,0,0,1,79.9,1ZM11.4,41.3,34.1,80.5,11.4,119.7a79.2,79.2,0,0,1,0-78.5Zm.6,79.5H57.3L79.9,160A79.5,79.5,0,0,1,12,120.7ZM81.1,160l22.7-39.3H149A79.5,79.5,0,0,1,81.1,160Z" fill="url(#linear-gradient)"/></g></g></svg>