<svg xmlns="http://www.w3.org/2000/svg" xmlns:xlink="http://www.w3.org/1999/xlink" viewBox="0 0 161 170.4"><defs><linearGradient id="linear-gradient" x1="14.76" y1="150.92" x2="146.24" y2="19.44" gradientUnits="userSpaceOnUse"><stop offset="0" stop-color="#75b7ce"/><stop offset="1" stop-color="#f2d4ec"/></linearGradient></defs><title>Icon4</title><g id="Layer_2" data-name="Layer 2"><g id="Isolation_Mode" data-name="Isolation Mode"><path d="M160.7,33.9h-.5L80.7,0h-.4L.8,33.7H.3a.5.5,0,0,0-.3.5V136a.5.5,0,0,0,.3.5l80,33.9h.4l80-33.9a.5.5,0,0,0,.3-.5V34.4A.5.5,0,0,0,160.7,33.9Zm-.8,101-.4.9L81,169.1V120.4l20.1-10-.2.6.8.3.4-.9-.5-.2,5.5-2.7h0l.4-.3h.2l16.3-23.6a1.5,1.5,0,0,0-.1-1.9l-26-28.6L160,34.9V135ZM46.2,91.8,80,100.7v16.8l-7.4,3.7Zm60.7,10.9L91.2,54.8l3.4-1,26.2,28.8ZM80.5,56.9l-5.8-1.7,10-10.9,3.4,10.4Zm-.5.9V97.6L44.5,88.3,73.9,56Zm1,0,7.4-2.1L104.1,104,81,97.9Zm9.9-3.9-2.1-6.3,5,5.5Zm-19.5.4H71l1.8-1.3Zm-.8.8L43.9,84.5l1.6-10.7L70,54.9ZM81,101l21.1,5.6L81,117ZM80,1.3V3.6h1V1.3l77.7,32.9L97.1,52.1,86.4,40.4h0L86,40H84.9l-.4.2h0L81,42.7v-.4H80v.8h.6l-13.1,10L2.3,34.2ZM1,34.9l65.5,19L43.1,71.7a1.5,1.5,0,0,0-.6,1L40.2,88.9s0,.1,0,.1a1.5,1.5,0,0,0,0,.3v.5l.2.2h.1l18.3,20.3-.7.3.4.9.8-.3-.3-.7,12.1,13.5a1.5,1.5,0,0,0,1.1.5l.7-.2,7.1-3.5v48.2L1.5,135.8l.8-.3-.4-.9-.8.3.4.9-.5-.2Zm127.2,86.6.8.3-.4.9-.8-.3Zm-1.6-.7.8.3-.4.9-.8-.3Zm-6.3-2.7.8.3-.4.9-.8-.3Zm4.8,2,.8.3-.4.9-.8-.3Zm-1.6-.7.8.3-.4.9-.8-.3Zm-1.6-.7.8.3-.4.9-.8-.3Zm-12.7-5.4.8.3-.4.9-.8-.3Zm6.3,2.7.8.3-.4.9-.8-.3Zm-1.6-.7.8.3-.4.9-.8-.3Zm-3.2-1.3.8.3-.4.9-.8-.3Zm-7.9-3.4.8.3-.4.9-.8-.3Zm15.9,6.7.8.3-.4.9-.8-.3Zm-1.6-.7.8.3-.4.9-.8-.3Zm12.7,5.4.8.3-.4.9-.8-.3Zm-25.4-10.8.8.3-.4.9-.8-.3Zm1.6.7.8.3-.4.9-.8-.3Zm1.6.7.8.3-.4.9-.8-.3Zm4.8,2,.8.3-.4.9-.8-.3Zm42.8,18.1.8.3-.4.9-.8-.3Zm-6.3-2.7.8.3-.4.9-.8-.3Zm1.6.7.8.3-.4.9-.8-.3Zm3.2,1.3.8.3-.4.9-.8-.3Zm-1.6-.7.8.3-.4.9-.8-.3Zm-4.8-2,.8.3-.4.9-.8-.3Zm-3.2-1.3.8.3-.4.9-.8-.3Zm-1.6-.7.8.3-.4.9-.8-.3Zm3.2,1.3.8.3-.4.9-.8-.3Zm-14.3-6,.8.3-.4.9-.8-.3Zm25.4,10.8.8.3-.4.9-.8-.3Zm-22.2-9.4.8.3-.4.9-.8-.3Zm1.6.7.8.3-.4.9-.8-.3Zm-3.2-1.3.8.3-.4.9-.8-.3Zm4.8,2,.8.3-.4.9-.8-.3Zm1.6.7.8.3-.4.9-.8-.3Zm19,8.1.8.3-.4.9-.8-.3Zm-17.4-7.4.8.3-.4.9-.8-.3Zm-120.4.9-.4-.9.8-.3.4.9Zm-1.6.7-.4-.9.8-.3.4.9ZM30,123.8l-.4-.9.8-.3.4.9Zm-12.7,5.4-.4-.9.8-.3.4.9Zm6.3-2.7-.4-.9.8-.3.4.9Zm-1.6.7-.4-.9.8-.3.4.9Zm6.3-2.7-.4-.9.8-.3.4.9Zm-3.2,1.3-.4-.9.8-.3.4.9Zm1.6-.7-.4-.9.8-.3.4.9Zm-11.1,4.7-.4-.9.8-.3.4.9ZM4.6,134.5l-.4-.9.8-.3.4.9Zm1.6-.7-.4-.9.8-.3.4.9Zm1.6-.7-.4-.9.8-.3.4.9Zm-4.8,2-.4-.9.8-.3.4.9Zm7.9-3.4-.4-.9.8-.3.4.9Zm1.6-.7-.4-.9.8-.3.4.9Zm-3.2,1.3-.4-.9.8-.3.4.9Zm4.8-2-.4-.9.8-.3.4.9Zm17.4-7.4-.4-.9.8-.3.4.9Zm15.8-6.7-.4-.9.8-.3.4.9Zm-3.2,1.3-.4-.9.8-.3.4.9Zm1.6-.7-.4-.9.8-.3.4.9Zm4.8-2-.4-.9.8-.3.4.9Zm-1.6.7-.4-.9.8-.3.4.9Zm6.3-2.7-.4-.9.8-.3.4.9Zm-3.2,1.3-.4-.9.8-.3.4.9Zm4.8-2-.4-.9.8-.3.4.9Zm-3.2,1.3-.4-.9.8-.3.4.9Zm-19,8.1-.4-.9.8-.3.4.9Zm1.6-.7-.4-.9.8-.3.4.9Zm-3.2,1.3-.4-.9.8-.3.4.9Zm4.8-2-.4-.9.8-.3.4.9Zm3.2-1.3-.4-.9.8-.3.4.9Zm-1.6.7-.4-.9.8-.3.4.9Zm3.2-1.3-.4-.9.8-.3.4.9ZM81,24.8H80V24h1Zm0,4.6H80v-.8h1Zm0,4.6H80v-.8h1Zm0-1.5H80v-.8h1Zm0-9.1H80v-.8h1Zm0,4.6H80v-.8h1Zm0-1.5H80v-.8h1Zm0,4.6H80v-.8h1ZM81,40H80v-.8h1Zm0,1.5H80v-.8h1ZM81,37H80v-.8h1Zm0-1.5H80v-.8h1ZM81,5H80V4.3h1Zm0,33.5H80v-.8h1Zm0-16.8H80V21h1ZM81,9.5H80V8.8h1Zm0-3H80V5.7h1ZM81,8H80V7.3h1Zm0,4.6H80v-.8h1Zm0-1.5H80v-.8h1Zm0,7.6H80v-.8h1Zm0-4.6H80v-.8h1Zm0,6.1H80v-.8h1Zm0-4.6H80v-.8h1Zm0,1.5H80v-.8h1Z" fill="url(#linear-gradient)"/></g></g></svg>