<svg xmlns="http://www.w3.org/2000/svg" xmlns:xlink="http://www.w3.org/1999/xlink" viewBox="0 0 284.5 35.3"><defs><linearGradient id="linear-gradient" x1="67" y1="90.99" x2="217.21" y2="-59.22" gradientUnits="userSpaceOnUse"><stop offset="0" stop-color="#75b7ce"/><stop offset="1" stop-color="#f2d4ec"/></linearGradient></defs><title>operations</title><g id="Layer_2" data-name="Layer 2"><g id="Isolation_Mode" data-name="Isolation Mode"><path d="M11.5,13.5c3.9-.8,6.2-3.1,6.2-6.6S14.4,0,9.2,0,.2,1.8.2,5.3A2.3,2.3,0,0,0,2.6,7.8,2.4,2.4,0,0,0,5,5.2V1.8A6.2,6.2,0,0,1,8.5.8c3,0,5.1,2.1,5.1,6.1S11,13.2,7.1,13.2H5.5V14H7.2c4.4,0,7.5,2,7.5,6.6S12.1,27,8.5,27a6.5,6.5,0,0,1-3.7-1V22.5A2.4,2.4,0,0,0,2.4,20,2.3,2.3,0,0,0,0,22.4c0,3.5,4.8,5.3,9.2,5.3s9.6-2.8,9.6-7.3S15.9,14.3,11.5,13.5ZM37.5,24.8h-13c7-5,14.7-10.8,14.7-17.9,0-4.6-3.4-6.9-8.9-6.9s-8.6,2.5-8.6,5.7a2.3,2.3,0,0,0,2.4,2.5,2.4,2.4,0,0,0,2.5-2.6V1.8A5.2,5.2,0,0,1,30,.7c3.2,0,5.1,1.9,5.1,5.7,0,7.7-6.7,13.6-13.4,19.7v1.5H39.5V21.3h-.7ZM59.3,8.3l-.5-.5-3.5,3.5v9.6H43.9c5.7-6.6,10-12.7,10-20.7H49.9c0,7.4-2.7,13.6-6.8,20.9v.6H55.2v4.7l-2.3.7v.4h8.7v-.4l-2.3-.7V21.7h2.8v-.8H59.3ZM76.2,0C69.8,0,65.3,5.4,65.3,13.9s4.5,13.9,10.9,13.9S87,22.5,87,13.9,82.5,0,76.2,0Zm0,27.2c-3.9,0-6.6-4.5-6.6-13.3S72.3.6,76.2.6s6.6,4.5,6.6,13.3S80,27.2,76.2,27.2ZM109.5,7.9c-5.9,0-9.9,3.9-9.9,9.9s4,9.9,9.9,9.9,9.8-3.8,9.8-9.9S115.4,7.9,109.5,7.9Zm0,19.3c-3.4,0-5.7-3.2-5.7-9.3s2.3-9.4,5.7-9.4,5.7,3.2,5.7,9.4S112.9,27.1,109.5,27.1ZM121.6,8.4,124,9V26.4l-2.3.7v.4h8.4v-.4l-2-.7V8.8h9.5V26.4l-2,.7v.4h8.4v-.4l-2.3-.7V9l2.3-.6V8H121.6ZM156,7.9c-5.7,0-9.8,3.9-9.8,10.1s3.3,9.7,10.1,9.7a10.5,10.5,0,0,0,7.8-3l-.4-.5a7.6,7.6,0,0,1-5.7,2.3c-5.1,0-7.6-3.3-7.6-8.7H164l.5-.5a5.5,5.5,0,0,0,.2-1.6C164.7,11.1,161.1,7.9,156,7.9Zm-5.6,9.3c.2-6,3-8.7,5.8-8.7s4.6,2.7,4.6,8.2Zm29.4-9.3a8.7,8.7,0,0,0-6.4,2.7h-.1V8.3l-.5-.5-5.9.6v.4l2.3.5V34.2l-2.3.7v.4h9.9v-.4l-3.5-.7V26.7a9.4,9.4,0,0,0,4.6,1.1c6,0,9.5-3.7,9.5-10.4S184.9,7.9,179.8,7.9Zm-2.6,19.3a8,8,0,0,1-3.8-1.1V11.4a5.7,5.7,0,0,1,4.4-2.2c3.3,0,5.5,3.5,5.5,8.7S181.1,27.1,177.2,27.1Zm30.8-.4c-.6,0-.9-.2-.9-1V13.8c0-3.4-2.8-5.9-8-5.9s-7.7,1.7-7.7,4.8a2.2,2.2,0,0,0,2.3,2.5,2.3,2.3,0,0,0,2.4-2.6V9.4a5,5,0,0,1,2.9-.9c2.6,0,4.1,1.9,4.1,4.6v3.7c-7.6,1.2-12.2,1.9-12.2,6.5,0,2.7,1.6,4.5,5.3,4.5a10.2,10.2,0,0,0,7-2.7h.1c.2,1.8,1.2,2.4,2.9,2.4a5,5,0,0,0,3.5-1.1l-.3-.3A2,2,0,0,1,208,26.7Zm-5-2.5a6.9,6.9,0,0,1-4.9,2.2c-2,0-3.2-1.2-3.2-3.7,0-4.2,2.6-4.5,8.1-5.4Zm28.8-15,2.3-.7V8h-8.5v.4l2.1.7V26.8h-9.4V9.2l2-.7V8H212v.4l2.3.7V26.6l-2.3.6v.3H232l1.6,5.2h.9v-6h-2.6ZM251,8.4l2.1.7v.7l-9.5,14.1h-.1V9.2l2.1-.7V8h-8.5v.4l2.3.7V26.4l-2.3.7v.4h8.5v-.4l-2.1-.7v-.7l9.5-14.1h.1V26.4l-2.1.7v.4h8.5v-.4l-2.3-.7V9.2l2.3-.7V8H251Zm33.4,0V8H276v.4l2.1.7v.7l-9.5,14.1h-.1V9.2l2.1-.7V8h-8.5v.4l2.3.7V26.4l-2.3.7v.4h8.5v-.4l-2.1-.7v-.7l9.5-14.1h.1V26.4l-2.1.7v.4h8.5v-.4l-2.3-.7V9.2Z" fill="url(#linear-gradient)"/></g></g></svg>