<svg xmlns="http://www.w3.org/2000/svg" xmlns:xlink="http://www.w3.org/1999/xlink" viewBox="0 0 33 26"><defs><linearGradient id="linear-gradient" x1="0.46" y1="25.48" x2="28.01" y2="-2.06" gradientUnits="userSpaceOnUse"><stop offset="0" stop-color="#75b7ce"/><stop offset="1" stop-color="#f2d4ec"/></linearGradient></defs><title>Quotes</title><g id="Layer_2" data-name="Layer 2"><g id="Layer_1-2" data-name="Layer 1"><path d="M1,26c4.9-4.1,13-11.2,14.5-18.5,1-5.2-1.9-7.5-5.2-7.5a8.3,8.3,0,0,0-8,6.6c-.8,3.9,1.6,6.6,5.3,6.6a2,2,0,0,1,.1,1.2c-.4,2.2-4,7-7.7,10.2Zm17.3,0c4.9-4.1,13-11.2,14.5-18.5C33.8,2.3,31,0,27.6,0a8.2,8.2,0,0,0-7.8,6.6c-.8,3.9,1.5,6.6,5.2,6.6a1.4,1.4,0,0,1,.2,1.2c-.5,2.2-4,7-7.7,10.2Z" fill="url(#linear-gradient)"/></g></g></svg>