<svg xmlns="http://www.w3.org/2000/svg" xmlns:xlink="http://www.w3.org/1999/xlink" viewBox="0 0 107.9 27.8"><defs><linearGradient id="linear-gradient" x1="19.41" y1="46.48" x2="82.87" y2="-16.98" gradientUnits="userSpaceOnUse"><stop offset="0" stop-color="#75b7ce"/><stop offset="1" stop-color="#f2d4ec"/></linearGradient></defs><title>years</title><g id="Layer_2" data-name="Layer 2"><g id="Isolation_Mode" data-name="Isolation Mode"><path d="M7.8.5,7.3,0,0,1.2v.6H3.7V26.4l-3.2.7v.4H11.1v-.4l-3.3-.7Zm17.4,13c3.9-.8,6.2-3.1,6.2-6.6S28.1,0,22.9,0s-9,1.8-9,5.3a2.3,2.3,0,0,0,2.4,2.5,2.4,2.4,0,0,0,2.4-2.6V1.8a6.2,6.2,0,0,1,3.5-1c3,0,5.1,2.1,5.1,6.1s-2.6,6.3-6.4,6.3H19.2V14h1.7c4.4,0,7.5,2,7.5,6.6s-2.6,6.5-6.2,6.5a6.5,6.5,0,0,1-3.7-1V22.6A2.4,2.4,0,0,0,16.1,20a2.3,2.3,0,0,0-2.4,2.5c0,3.5,4.8,5.3,9.2,5.3s9.6-2.8,9.6-7.3S29.6,14.3,25.2,13.6ZM49.6,8.4l2.3.6L50.6,21.8c-.3,2.8-1.1,4.5-1.8,4.5h-.4V24.9a2,2,0,0,0-2.1-2.1,1.9,1.9,0,0,0-2,2.2c0,2.1,1.7,2.8,3.1,2.8s3.5-2,4-6.1L52.7,8.9h6.5V26.4l-2.1.7v.4h8.4v-.4l-2.3-.7V9l2.3-.6V8.1h-16Zm28.1-.5c-5.7,0-9.8,3.9-9.8,10.1s3.3,9.7,10.1,9.7a10.5,10.5,0,0,0,7.8-3l-.4-.5a7.6,7.6,0,0,1-5.7,2.3c-5.1,0-7.6-3.3-7.6-8.7H85.6l.5-.5a5.5,5.5,0,0,0,.2-1.6C86.4,11.1,82.7,7.9,77.6,7.9ZM72,17.2c.2-6,3-8.7,5.8-8.7s4.6,2.7,4.6,8.2ZM89.5,8.1v4.3h.6l1.2-3.5h5.3V26.4l-2.3.7v.4h8.7v-.4l-2.3-.7V8.9h5.3l1.2,3.5h.7V8.1Z" fill="url(#linear-gradient)"/></g></g></svg>