<?xml version="1.0" encoding="utf-8"?>
<!-- Generator: Adobe Illustrator 21.0.2, SVG Export Plug-In . SVG Version: 6.00 Build 0)  -->
<svg version="1.1" id="Layer_1" xmlns="http://www.w3.org/2000/svg" xmlns:xlink="http://www.w3.org/1999/xlink" x="0px" y="0px"
	 viewBox="0 0 40 40" style="enable-background:new 0 0 40 40;" xml:space="preserve">
<style type="text/css">
	.st0{fill:#7D3DAF;}
	.st1{fill:#FFFFFF;}
</style>
<title></title>
<g>
	<circle class="st0" cx="20" cy="20" r="20"/>
	<g>
		<path class="st1" d="M30.9,14L30.9,14c-0.8-2.5-2.8-4.4-5.2-5.2l0,0c-3.6-0.7-7.5-0.7-11.1,0l0,0C12,9.5,10,11.5,9.2,13.9l0,0
			c-0.7,3.1-0.7,6.3,0,9.3l0,0c0.8,2.4,2.7,4.3,5.1,5.1v2.5c0,0.5,0.4,0.9,1.1,0.9c0.3,0,0.5-0.1,0.7-0.3l2.5-2.7c0.5,0,1.1,0,1.6,0
			c1.9,0,3.7-0.1,5.6-0.5l0,0c2.5-0.7,4.5-2.7,5.3-5.1l0,0C31.6,20.1,31.6,17.1,30.9,14z M28.9,22.8c-0.7,1.7-2,3.1-3.7,3.6
			c-2,0.4-3.9,0.5-5.9,0.5h-0.1l-1.7,1.9l-2,2c-0.1,0.1-0.3,0.1-0.3,0v-0.1v-4.1c0,0,0-0.1-0.1-0.1l0,0c-1.7-0.5-3.1-1.9-3.7-3.6
			c-0.7-2.8-0.7-5.6,0-8.4c0.7-1.7,2-3.1,3.7-3.6c3.5-0.7,6.9-0.7,10.3,0c1.7,0.5,3.1,1.9,3.7,3.6C29.6,17.2,29.6,20,28.9,22.8
			L28.9,22.8z"/>
		<path class="st1" d="M25.1,22.1c-0.3-0.3-0.7-0.5-0.9-0.7c-0.4-0.3-0.7-0.5-1.1-0.7c-0.3-0.3-0.8-0.3-1.1,0s-0.5,0.8-0.9,0.8
			c-0.3,0-0.5,0-0.8-0.1c-1.5-0.7-2.5-1.9-2.9-3.3c-0.1-0.1-0.1-0.4,0-0.5c0-0.1,0.1-0.1,0.3-0.3l0.3-0.3c0.4-0.3,0.5-0.8,0.3-1.3
			c-0.4-0.7-0.9-1.3-1.5-2c-0.3-0.3-0.7-0.4-0.9-0.3c-0.4,0.3-0.8,0.5-1.2,0.9s-0.5,0.9-0.4,1.5c0.3,0.5,0.5,1.2,0.8,1.7
			c0.5,1.2,1.3,2.3,2.1,3.2c1.6,1.6,3.5,2.9,5.6,3.7c0.3,0.1,0.4,0.1,0.7,0.3c0.3,0,0.4-0.1,0.5-0.1c0.7-0.3,1.1-0.8,1.3-1.5
			C25.5,22.8,25.3,22.4,25.1,22.1z"/>
		<path class="st1" d="M20.1,12.8H20c-0.1,0-0.4,0.1-0.4,0.4l0,0c0,0.3,0.3,0.3,0.5,0.3s0.7,0,0.9,0.1c2.1,0.4,3.6,2,4,4.1
			c0,0.4,0.1,0.8,0.1,1.2s0.1,0.4,0.4,0.4c0.1,0,0.3-0.1,0.3-0.3l0,0c0-0.5,0-0.9-0.1-1.5C25.1,14.7,22.8,12.8,20.1,12.8z"/>
		<path class="st1" d="M23.6,18.1c0,0.1,0,0.1,0,0.3c0,0.1,0.3,0.3,0.4,0.3c0.1,0,0.1-0.1,0.3-0.3v-0.1c0-0.1,0-0.4,0-0.5
			s0-0.1,0-0.1c-0.1-1.2-0.9-2.3-2-2.8c-0.5-0.3-1.2-0.4-1.9-0.5c-0.1,0-0.3,0.1-0.3,0.3l0,0c0,0.1,0.1,0.3,0.3,0.4l0,0l0.5,0.1
			c0.4,0,0.7,0.1,1.1,0.3c0.5,0.3,1.1,0.7,1.3,1.2C23.6,17.1,23.7,17.6,23.6,18.1z"/>
		<path class="st1" d="M22.8,18c0-0.1,0-0.1,0-0.3c0-1.1-0.8-1.9-1.9-1.9l0,0c-0.1,0-0.3,0.1-0.4,0.3c0,0.1,0.1,0.3,0.3,0.4l0,0
			c0.1,0,0.4,0,0.5,0.1c0.1,0,0.3,0.1,0.4,0.1c0.3,0.1,0.4,0.4,0.4,0.7c0,0.1,0,0.3,0,0.4s0.1,0.4,0.4,0.4l0,0l0,0
			C22.7,18.1,22.8,18.1,22.8,18z"/>
	</g>
</g>
</svg>
