<?xml version="1.0" encoding="utf-8"?>
<!-- Generator: Adobe Illustrator 21.0.2, SVG Export Plug-In . SVG Version: 6.00 Build 0)  -->
<svg version="1.1" id="Layer_1" xmlns="http://www.w3.org/2000/svg" xmlns:xlink="http://www.w3.org/1999/xlink" x="0px" y="0px"
	 viewBox="0 0 40 40" style="enable-background:new 0 0 40 40;" xml:space="preserve">
<style type="text/css">
	.st0{fill:#FFFFFF;}
	.st1{fill:#3E9DD7;}
</style>
<g>
	<circle class="st0" cx="20" cy="20" r="20"/>
	<path class="st1" d="M21.2,28.3c-3.2,0.1-4.7-0.5-6.1-1.9c-1.6-1.5-0.9-3.2,0.3-3.2c1.2-0.1,2,1.5,2.7,1.9c0.7,0.4,3.2,1.3,4.5-0.1
		c1.5-1.7-0.9-2.5-2.8-2.8c-2.5-0.4-5.7-1.7-5.5-4.5s2.3-4.1,4.4-4.4c2.8-0.3,4.5,0.4,6,1.6c1.6,1.5,0.8,3.1-0.3,3.2
		c-1.1,0.1-2.3-2.4-4.5-2.4c-2.4,0-4,2.5-1.1,3.2c2.9,0.7,6,1.1,7.2,3.7C27.3,25.2,24.4,28.1,21.2,28.3z M30.3,21.7
		c0-0.4,0.1-0.9,0.1-1.3c0-5.6-4.5-10.1-10.1-10.1c-0.5,0-1.1,0-1.6,0.1c-0.9-0.7-2.1-1.1-3.3-1.1c-3.3,0-6,2.8-6,6.1
		c0,1.2,0.4,2.4,0.9,3.3c-0.1,0.5-0.1,1.1-0.1,1.6c0,5.6,4.5,10.1,10.1,10.1c0.7,0,1.2,0,1.9-0.1c0.9,0.5,2,0.9,3.2,0.9
		c3.3,0,6-2.8,6-6.1C31.3,24,30.9,22.8,30.3,21.7z M20,40C8.9,40,0,31.1,0,20S8.9,0,20,0s20,8.9,20,20S31.1,40,20,40z"/>
</g>
</svg>
