<?xml version="1.0" encoding="utf-8"?>
<!-- Generator: Adobe Illustrator 21.0.2, SVG Export Plug-In . SVG Version: 6.00 Build 0)  -->
<svg version="1.1" id="Layer_1" xmlns="http://www.w3.org/2000/svg" xmlns:xlink="http://www.w3.org/1999/xlink" x="0px" y="0px"
	 viewBox="0 0 28 28.1" style="enable-background:new 0 0 28 28.1;" xml:space="preserve">
<style type="text/css">
	.st0{display:none;fill:#FEFEFE;}
	.st1{fill:#0087CB;}
	.st2{fill:#FCFDFE;}
	.st3{fill:#CCD9E9;}
	.st4{fill:#B1C8DB;}
</style>
<g id="Layer_1_1_">
</g>
<g id="Layer_2">
	<g>
		<path class="st0" d="M-6.1,34c0-13.3,0-26.7,0-40c13.3,0,26.7,0,40,0c0,13.3,0,26.7,0,40C20.5,34,7.2,34-6.1,34z"/>
		<path class="st1" d="M13.7,0c3.9,0,7.1,1.3,9.9,3.9c2.7,2.5,4.3,5.7,4.4,9.5c0.1,4-1.1,7.5-3.9,10.4c-2.7,2.8-6.1,4.3-10,4.4
			c-3.7,0-6.9-1.2-9.6-3.7C1.3,21.5-0.1,17.7,0,13.5c0.1-3.6,1.5-6.8,4.1-9.3C6.7,1.5,10,0.1,13.7,0z"/>
		<path class="st2" d="M9.6,16c-0.8-0.3-1.6-0.5-2.3-0.7c-0.4-0.1-0.8-0.3-1.1-0.4c-0.1,0-0.3-0.1-0.4-0.1c-0.3-0.1-0.3-0.4,0-0.5
			C6,14.1,6.1,14,6.3,14c0.4-0.1,0.9-0.4,1.3-0.5c3.1-1.2,6.3-2.4,9.3-3.6c0.9-0.5,2-0.9,2.9-1.3c0.1,0,0.3-0.1,0.4,0
			c0.3,0,0.5,0.3,0.5,0.7c0,0.1,0,0.4,0,0.5c-0.4,1.7-0.8,3.6-1.2,5.3c-0.3,1.5-0.7,2.9-0.9,4.4c-0.1,0.4-0.1,0.7-0.3,1.1
			c0,0.1-0.1,0.3-0.1,0.5c-0.1,0.3-0.4,0.4-0.7,0.4c-0.1,0-0.4-0.1-0.5-0.3c-1.1-0.8-2.1-1.6-3.2-2.4l-0.1-0.1
			c-0.1,0-0.3-0.1-0.5-0.3c-0.5-0.4-1.1-0.8-1.6-1.2c0,0-0.1,0-0.1-0.1c0-0.1,0-0.1,0-0.1c0.7-0.7,1.3-1.2,2.1-1.9
			c0.5-0.4,1.1-0.9,1.5-1.3c0.5-0.4,1.1-0.9,1.5-1.3c0.4-0.4,0.8-0.7,1.2-1.1c0,0,0,0,0.1-0.1c0,0,0,0,0-0.1c0,0,0,0-0.1,0
			s-0.3,0-0.4,0.1c-0.4,0.3-0.8,0.5-1.2,0.8c-1.3,0.8-2.5,1.6-3.9,2.4c-0.9,0.5-1.7,1.1-2.7,1.7C9.9,15.9,9.7,16,9.6,16z"/>
		<path class="st3" d="M9.6,16c0.3-0.1,0.4-0.3,0.5-0.4c0.5-0.4,1.1-0.7,1.7-1.1c0.4-0.3,0.8-0.5,1.2-0.8c0.7-0.4,1.3-0.8,2-1.2
			c0.4-0.3,0.9-0.5,1.3-0.9c0.4-0.3,0.8-0.5,1.2-0.8c0.1-0.1,0.3-0.1,0.4-0.1h0.1v0.1c-0.1,0.1-0.1,0.1-0.3,0.3
			c-0.1,0.1-0.4,0.4-0.5,0.5c-0.3,0.3-0.5,0.5-0.9,0.8c-0.1,0.1-0.3,0.3-0.4,0.4c-0.1,0.3-0.3,0.4-0.4,0.5c-0.3,0.3-0.5,0.5-0.8,0.7
			c-0.1,0.1-0.3,0.3-0.4,0.3c-0.3,0.3-0.5,0.5-0.9,0.8c-0.4,0.3-0.7,0.7-1.1,0.9c-0.3,0.3-0.5,0.4-0.8,0.7c0,0,0,0,0,0.1
			c0,0.9-0.1,1.7-0.1,2.7c0,0.3,0,0.4,0,0.7c0,0.1,0,0.1,0,0.1h-0.1c-0.1,0-0.3-0.1-0.3-0.3c0-0.1-0.1-0.3-0.1-0.4
			c-0.5-0.9-0.9-2.3-1.2-3.5C9.6,16,9.6,16,9.6,16z"/>
		<path class="st4" d="M11.3,20.5c0-0.3,0-0.7,0-0.9s0-0.7,0-0.9c0-0.4,0-0.7,0.1-0.9c0-0.1,0-0.4,0-0.5c0,0,0-0.1,0.1-0.1
			c0.7,0.5,1.2,0.9,1.9,1.3c0.1,0,0.1,0.1,0.3,0.1c-0.5,0.5-1.2,1.2-1.7,1.7C11.9,20.4,11.6,20.5,11.3,20.5z"/>
	</g>
</g>
</svg>
