<?xml version="1.0" encoding="utf-8"?>
<!-- Generator: Adobe Illustrator 21.0.2, SVG Export Plug-In . SVG Version: 6.00 Build 0)  -->
<svg version="1.1" id="Layer_1" xmlns="http://www.w3.org/2000/svg" xmlns:xlink="http://www.w3.org/1999/xlink" x="0px" y="0px"
	 viewBox="0 0 46.7 52.3" style="enable-background:new 0 0 46.7 52.3;" xml:space="preserve">
<style type="text/css">
	.st0{fill:#FFFFFF;}
</style>
<g>
	<g>
		<g>
			<path class="st0" d="M31.3,31L4,31.1c-2.3,0-4-1.8-4-4s1.8-4,4-4h35.2"/>
		</g>
		<g>
			<path class="st0" d="M35.3,27.2"/>
		</g>
	</g>
	<g>
		<g>
			<path class="st0" d="M18.9,52.3c-1,0-2-0.4-2.8-1.2c-1.6-1.6-1.6-4.1,0-5.7l19.3-19.3L16.1,6.9c-1.6-1.6-1.6-4.1,0-5.7
				c1.6-1.6,4.1-1.6,5.7,0l24.9,24.9l-25,25C20.9,51.9,19.9,52.3,18.9,52.3z"/>
		</g>
		<g>
			<path class="st0" d="M41,26.2"/>
		</g>
	</g>
</g>
</svg>
