<svg xmlns="http://www.w3.org/2000/svg" viewBox="0 0 112.04 112.04"><defs><style>.cls-1{fill:#fff;}.cls-2{fill:#00293f;}</style></defs><title>in</title><g id="Layer_2" data-name="Layer 2"><g id="_1" data-name="1"><circle id="_Path_" data-name="&lt;Path&gt;" class="cls-1" cx="56.02" cy="56.02" r="56.02"/><polygon id="_Path_2" data-name="&lt;Path&gt;" class="cls-2" points="24.27 53.85 24.27 86.35 39.76 86.35 39.76 51.24 39.76 42.11 24.27 42.11 24.27 53.85"/><circle id="_Path_3" data-name="&lt;Path&gt;" class="cls-2" cx="32.01" cy="27.74" r="7.74"/><path id="_Path_4" data-name="&lt;Path&gt;" class="cls-2" d="M90.29,55.7c-1-8.34-4.88-13.58-16.15-13.58-6.69,0-11.18,2.48-13,6h-.19v-6H48.6V86.35H61.49V64.43c0-5.78,1.09-11.38,8.24-11.38s7.61,6.61,7.61,11.75V86.35H90.63V62h0A51.45,51.45,0,0,0,90.29,55.7Z"/></g></g></svg>