<?xml version="1.0" encoding="utf-8"?>
<!-- Generator: Adobe Illustrator 21.0.2, SVG Export Plug-In . SVG Version: 6.00 Build 0)  -->
<svg version="1.1" id="_x31_" xmlns="http://www.w3.org/2000/svg" xmlns:xlink="http://www.w3.org/1999/xlink" x="0px" y="0px"
	 viewBox="0 0 112 112" style="enable-background:new 0 0 112 112;" xml:space="preserve">
<style type="text/css">
	.st0{fill:#FFFFFF;}
	.st1{fill:#A9C9DD;}
	.st2{fill:#00293F;}
	.st3{fill:#C8DAEA;}
</style>
<g>
	<circle id="_Path_" class="st0" cx="56" cy="56" r="56"/>
	<g>
		<path class="st1" d="M46.6,58.8L57,71.2c-2.2,1.1-4.4,2.3-7,3.8c-2.8,1.6-5.6,3.1-8.7,4.6C40.8,79.8,46.6,58.8,46.6,58.8z"/>
		<path class="st2" d="M92.3,27.3c-0.2-0.3-1-0.4-1.4-0.6c-0.2,0-0.4,0-0.6,0c-2.2,0.4-4.4,1.1-6.7,1.7c-0.8,0.2-1.7,0.4-2.4,0.7
			C64.6,33.6,46.9,38.5,26.5,44c-0.4,0.1-1.1,0.2-1.7,0.3c-2.1,0.4-5.6,1.1-5.6,2.7c0,0.7,1.3,1.2,2.4,1.8c0.2,0.1,0.4,0.2,0.7,0.3
			c2.4,1,4.9,2.1,7.3,3.1h0.1c2.8,1.1,5.6,2.2,8.2,3.4l0.1,0.1c0.4,2.8,0.6,5.7,0.8,7.9c0.2,3.3,0.4,6.8,1.1,10.2
			c0,0.3,0.1,0.8,0.2,1.4c0.3,2.4,0.6,3.8,0.9,4.2l5.9-17.9l8,7.9l0.6,0.4c3.4,3.3,7.1,6.7,10.2,9.7l2.8,2.6
			c0.2,0.2,0.4,0.4,0.7,0.7c1,1,2.2,2.2,3.6,2.3c0.1,0,0.3,0,0.4,0c1.4-0.1,2.6-3.4,3.1-5.1c3.1-9.7,6.1-18.8,9.1-28l6.1-18.7
			C92.3,31.2,93.3,28.5,92.3,27.3z"/>
		<path class="st3" d="M38.3,55.8c0.4,2.8,0.6,5.7,0.8,7.9c0.2,3.3,0.4,6.8,1.1,10.2c0,0.3,0.1,0.8,0.2,1.4c0.3,2.4,0.6,3.8,0.9,4.2
			l5.9-17.9l33-26.2L38.3,55.8z"/>
	</g>
</g>
</svg>
