<?xml version="1.0" encoding="utf-8"?>
<!-- Generator: Adobe Illustrator 21.0.2, SVG Export Plug-In . SVG Version: 6.00 Build 0)  -->
<svg version="1.1" id="Ñëîé_1" xmlns="http://www.w3.org/2000/svg" xmlns:xlink="http://www.w3.org/1999/xlink" x="0px" y="0px"
	 viewBox="0 0 112 112" style="enable-background:new 0 0 112 112;" xml:space="preserve">
<style type="text/css">
	.st0{fill:#FFFFFF;}
	.st1{fill:#00293F;}
</style>
<circle id="_Path_" class="st0" cx="56" cy="56" r="56"/>
<g>
	<path class="st1" d="M60.5,71.8c-1.4,1.2-2.4,1.1-3.4,0.4c-8.4-5.3-15-12-18.6-21.2c-0.8-1.8-0.6-2.9,0.2-3.6l6.6-5.3
		c1.1-1,1.1-2,0.6-3.1l-6.4-13.3c-0.2-0.7-0.7-1.1-1.3-1.1C36,24.8,34,25.2,32,25.4c-1.7,0.2-3.2,1.8-4.9,3.5
		C22.3,34,22.9,40.6,25,47.6c6.6,20,20.6,35.5,38.6,41.3C71.9,90,78.3,88,82.7,82c0.5-0.8,0.7-1.7,0.7-2.4v-3.2c0-1.7-0.7-2.6-1.7-3
		l-13-5.4c-1.7-0.8-2.8-0.6-3.6,0L60.5,71.8z"/>
	<g>
		<g>
			<path class="st1" d="M54.6,24.3L54.6,24.3c-0.1,0.8,0.5,1.7,1.3,1.7c20.2,2.3,30.5,14.5,29.6,35.3c0,0.8,0.6,1.6,1.4,1.6
				c0.8,0,1.6-0.6,1.6-1.4c1-22.3-10.6-36-32.4-38.5C55.4,22.9,54.6,23.5,54.6,24.3z"/>
		</g>
		<g>
			<path class="st1" d="M57.2,33.7c-0.1,0.8,0.5,1.7,1.3,1.7c12.6,1.4,18.7,8.8,18.2,21.7c0,0.8,0.6,1.6,1.4,1.6s1.6-0.6,1.6-1.4
				c0.6-14.5-6.8-23.3-21-25C58.1,32.2,57.2,32.8,57.2,33.7z"/>
		</g>
		<g>
			<path class="st1" d="M56.9,41.8c-0.1,0.8,0.5,1.7,1.3,1.7c7,0.8,10.3,4.8,10.1,12c0,0.8,0.6,1.6,1.4,1.6c0.8,0,1.6-0.6,1.6-1.4
				c0.4-8.9-4.2-14.3-12.8-15.2C57.7,40.4,57,41,56.9,41.8z"/>
		</g>
		<g>
			<path class="st1" d="M54.8,48.1c-0.1,0.8,0.5,1.7,1.3,1.7c3.5,0.4,5,2.3,4.9,5.9c0,0.8,0.6,1.6,1.4,1.6s1.6-0.6,1.6-1.4
				c0.2-5.3-2.6-8.5-7.7-9.1C55.7,46.5,55,47.1,54.8,48.1z"/>
		</g>
	</g>
</g>
</svg>
