<?xml version="1.0" encoding="utf-8"?>
<!-- Generator: Adobe Illustrator 21.0.2, SVG Export Plug-In . SVG Version: 6.00 Build 0)  -->
<svg version="1.1" id="Ñëîé_1" xmlns="http://www.w3.org/2000/svg" xmlns:xlink="http://www.w3.org/1999/xlink" x="0px" y="0px"
	 viewBox="0 0 112 112" style="enable-background:new 0 0 112 112;" xml:space="preserve">
<style type="text/css">
	.st0{fill:#FFFFFF;}
	.st1{fill:#00293F;}
	.st2{fill:#FEFEFE;}
</style>
<circle id="_Path_" class="st0" cx="56" cy="56" r="56"/>
<g>
	<path class="st1" d="M11.8,104.5c-1,0-2-0.4-2.8-1.2c-1-1-1.4-2.6-0.9-4l6.5-19.2c-4.4-7.4-6.7-15.8-6.7-24.5
		C7.9,29.1,29.5,7.5,56,7.5s48.1,21.6,48.1,48.1S82.6,103.8,56,103.8c-8,0-16-2-23-5.8l-20,6.3C12.6,104.4,12.2,104.5,11.8,104.5z"
		/>
	<path class="st2" d="M35.5,28.4c1.8-0.8,3.5-0.8,4.9,0c3.5,4.1,6.4,7.9,7.8,11.2c0.8,2.1,0.4,3.9-1.1,5.1l-2.7,1.9
		c-1.2,1-1.4,2.4-0.8,4.2c3.5,8.2,8.9,14.1,17.1,16.6c1.5,0.5,3,0.5,4-1l1.4-2.2c1.3-1.7,3.7-2.6,6.1-1c4,2.5,7.7,5.1,10.7,7.7
		c1.1,1.2,1,2.6,0.4,4.1c-1.5,3.1-3.9,5.2-6.5,7.1c-1.7,1.1-3.5,1.2-5.5,0.4c-21.8-8.3-36.1-22.2-42.6-42.2
		c-0.8-2.5-0.6-4.9,0.8-7.1C31.4,31.1,33.4,29.4,35.5,28.4z"/>
	<path class="st2" d="M39.5,27.3c0.4,0.1,1.3,0.5,1.7,0.9c0.7,0.6,5.5,6.3,7.7,11c0.3,0.7,0.5,1.7,0.6,2.7c0.4-0.9,0.7-1.9,0.3-3.2
		c-2.1-3.8-4.6-7.2-7.7-10.9C41.1,27,40,27.1,39.5,27.3z"/>
	<path class="st2" d="M68.8,62.1c0.9-0.3,2-0.1,2.5,0c0.8,0.2,8.3,5,12.1,8.2c0.5,0.5,0.8,1.1,1,1.8c0.2-1.2-0.3-2.1-1.2-3
		c-3.8-3-7.3-5.5-11.1-7.3C70.8,61.3,69.7,61.5,68.8,62.1z"/>
</g>
</svg>
