<svg xmlns="http://www.w3.org/2000/svg" xmlns:xlink="http://www.w3.org/1999/xlink" viewBox="0 0 47.5 72.5"><defs><linearGradient id="linear-gradient" x1="9.37" y1="60.63" x2="58.16" y2="11.83" gradientUnits="userSpaceOnUse"><stop offset="0" stop-color="#75b7ce"/><stop offset="1" stop-color="#f2d4ec"/></linearGradient></defs><title>sound</title><g id="Layer_2" data-name="Layer 2"><g id="Layer_1-2" data-name="Layer 1"><path d="M46.4.2a2,2,0,0,0-2.1.2L16.7,21.2H0V51.3H16.8L44.3,72a2,2,0,0,0,1.2.4l.9-.2a2,2,0,0,0,1.1-1.8V2A2,2,0,0,0,46.4.2ZM43.5,66.4,18.1,47.3H4V25.2H17.4a2,2,0,0,0,1.2-.4L43.5,6Z" fill="url(#linear-gradient)"/></g></g></svg>