<?xml version="1.0" encoding="utf-8"?>
<!-- Generator: Adobe Illustrator 21.0.2, SVG Export Plug-In . SVG Version: 6.00 Build 0)  -->
<svg version="1.1" id="Capa_1" xmlns="http://www.w3.org/2000/svg" xmlns:xlink="http://www.w3.org/1999/xlink" x="0px" y="0px"
	 viewBox="0 0 52.5 52.5" style="enable-background:new 0 0 52.5 52.5;" xml:space="preserve">
<style type="text/css">
	.st0{fill:none;stroke:#000000;stroke-miterlimit:10;}
</style>
<g>
	<g>
		<path d="M29.7,7.9h-7c-7.3,0-13.3,6-13.3,13.3v6.3c0,5.4,3.3,10.3,8.4,12.3v4.1c0,0.3,0.2,0.5,0.4,0.6c0.1,0,0.2,0.1,0.3,0.1
			c0.2,0,0.3-0.1,0.5-0.2l4.1-3.7h6.7c7.3,0,13.3-6,13.3-13.3v-6.3C43,13.9,37.1,7.9,29.7,7.9z M41.6,27.5c0,6.5-5.3,11.9-11.9,11.9
			h-6.9c-0.2,0-0.3,0.1-0.5,0.2l-3.1,2.8v-3c0-0.3-0.2-0.6-0.5-0.7c-4.7-1.7-7.9-6.2-7.9-11.2v-6.3c0-6.5,5.3-11.9,11.9-11.9h7
			c6.5,0,11.9,5.3,11.9,11.9V27.5z"/>
		<path d="M35.5,29.2l-4.3-2.8c-0.5-0.3-1-0.4-1.6-0.3c-0.5,0.1-1,0.4-1.3,0.9l-0.2,0.3c-1.9-0.6-3.9-1.4-5.1-4.9l0.5-0.4l0,0
			c0.9-0.8,1-2.1,0.2-3l-3.4-3.9c-0.3-0.3-0.7-0.3-1-0.1l-2.1,1.8c-1.8,1.6-1,4-0.7,4.8c0,0,0,0.1,0,0.1c0.1,0.1,1.8,3.3,4.7,6.1
			c2.8,2.9,8,5.6,8.1,5.6c0.6,0.4,1.2,0.6,1.9,0.6c1.1,0,2.3-0.6,2.9-1.6l1.5-2.3C35.9,29.9,35.8,29.4,35.5,29.2z M33,31.8
			c-0.6,1-1.9,1.2-3,0.6c-0.1,0-5.1-2.7-7.8-5.4c-2.5-2.6-4.2-5.4-4.4-5.8c-0.6-1.6-0.5-2.5,0.3-3.2l1.6-1.4l2.9,3.3
			c0.3,0.3,0.2,0.7-0.1,1l-0.9,0.7c-0.2,0.2-0.3,0.5-0.2,0.7c1.5,4.7,4.3,5.7,6.4,6.4l0.3,0.1c0.3,0.1,0.6,0,0.8-0.3l0.5-0.8
			c0.1-0.2,0.3-0.3,0.4-0.3c0.2,0,0.4,0,0.5,0.1l3.7,2.4L33,31.8z"/>
		<path d="M27.9,19.3c-0.4-0.1-0.8,0.1-0.9,0.5c-0.1,0.4,0.1,0.8,0.5,0.9c1,0.3,1.9,1.1,2.2,2.2c0.1,0.3,0.4,0.5,0.7,0.5
			c0.1,0,0.1,0,0.2,0c0.4-0.1,0.6-0.5,0.5-0.9C30.6,20.9,29.4,19.7,27.9,19.3z"/>
		<path d="M33.2,23.4c0.1,0,0.1,0,0.2,0c0.4-0.1,0.6-0.5,0.5-0.9c-0.8-2.9-3.1-5.3-6.1-6.1c-0.4-0.1-0.8,0.1-0.9,0.5
			c-0.1,0.4,0.1,0.8,0.5,0.9c2.5,0.7,4.4,2.7,5.1,5.1C32.6,23.2,32.9,23.4,33.2,23.4z"/>
		<path d="M27.5,13.2c-0.4-0.1-0.8,0.1-0.9,0.5c-0.1,0.4,0.1,0.8,0.5,0.9c4.2,1.2,7.5,4.5,8.7,8.7c0.1,0.3,0.4,0.5,0.7,0.5
			c0.1,0,0.1,0,0.2,0c0.4-0.1,0.6-0.5,0.5-0.9C35.8,18.2,32.1,14.5,27.5,13.2z"/>
	</g>
</g>
<circle class="st0" cx="26.3" cy="26.3" r="26.3"/>
</svg>
