<?xml version="1.0" encoding="utf-8"?>
<!-- Generator: Adobe Illustrator 21.0.2, SVG Export Plug-In . SVG Version: 6.00 Build 0)  -->
<svg version="1.1" id="Capa_1" xmlns="http://www.w3.org/2000/svg" xmlns:xlink="http://www.w3.org/1999/xlink" x="0px" y="0px"
	 viewBox="0 0 512.1 512.1" style="enable-background:new 0 0 512.1 512.1;" xml:space="preserve">
<style type="text/css">
	.st0{fill:none;stroke:#000000;stroke-width:10;stroke-miterlimit:10;}
    .st0:hover{stroke:#229292}
</style>
<g transform="translate(-1 -1)">
	<g>
		<g>
			<path d="M411.5,345.5l-66-44c-8.4-5.5-19.6-3.7-25.8,4.2l-19.2,24.7c-2.5,3.3-7,4.2-10.5,2.2l-3.7-2
				c-12.1-6.6-27.2-14.8-57.6-45.2s-38.6-45.5-45.2-57.6l-2-3.7c-2-3.6-1.1-8.1,2.2-10.6l24.7-19.2c7.9-6.2,9.7-17.4,4.2-25.8
				l-44-66c-5.7-8.5-17-11.1-25.8-5.8l-27.6,16.6c-8.7,5.1-15,13.3-17.7,23c-9.9,36.2-2.5,98.7,89.6,190.7
				c73.2,73.2,127.7,92.9,165.2,92.9c8.6,0,17.2-1.1,25.5-3.3c9.7-2.7,17.9-9.1,23-17.7l16.6-27.6
				C422.5,362.6,420,351.2,411.5,345.5z M407.9,365.8l-16.6,27.6c-3.7,6.3-9.6,10.9-16.6,12.8c-33.4,9.2-91.8,1.6-180.1-86.8
				s-95.9-146.7-86.8-180.1c2-7,6.6-12.9,12.9-16.6l27.6-16.6c3.8-2.3,8.7-1.2,11.2,2.5l23.9,35.9l20.1,30.1
				c2.4,3.6,1.6,8.5-1.8,11.2L177,205c-7.5,5.7-9.7,16.1-5,24.4l2,3.6c6.9,12.7,15.6,28.6,47.1,60.1c31.5,31.5,47.3,40.1,60.1,47.1
				l3.6,2c8.3,4.6,18.7,2.5,24.4-5l19.2-24.7c2.7-3.4,7.6-4.2,11.2-1.8l66,44C409.1,357,410.2,362,407.9,365.8z"/>
			<path d="M278.8,148.4c51,0.1,92.3,41.4,92.3,92.3c0,3,2.4,5.4,5.4,5.4c3,0,5.4-2.4,5.4-5.4c-0.1-57-46.2-103.1-103.2-103.2
				c-3,0-5.4,2.4-5.4,5.4C273.3,146,275.8,148.4,278.8,148.4z"/>
			<path d="M278.8,181c33,0,59.7,26.8,59.7,59.7c0,3,2.4,5.4,5.4,5.4c3,0,5.4-2.4,5.4-5.4c0-39-31.6-70.6-70.6-70.6
				c-3,0-5.4,2.4-5.4,5.4C273.3,178.6,275.8,181,278.8,181z"/>
			<path d="M278.8,213.6c15,0,27.1,12.2,27.2,27.2c0,3,2.4,5.4,5.4,5.4c3,0,5.4-2.4,5.4-5.4c0-21-17-38-38-38c-3,0-5.4,2.4-5.4,5.4
				C273.3,211.2,275.8,213.6,278.8,213.6z"/>
		</g>
	</g>
</g>
<!--<circle class="st0" cx="256" cy="256" r="255.3"/>-->
</svg>
