<?xml version="1.0" encoding="utf-8"?>
<!-- Generator: Adobe Illustrator 21.0.2, SVG Export Plug-In . SVG Version: 6.00 Build 0)  -->
<svg version="1.1" id="Capa_1" xmlns="http://www.w3.org/2000/svg" xmlns:xlink="http://www.w3.org/1999/xlink" x="0px" y="0px"
	 viewBox="0 0 512 512" style="enable-background:new 0 0 512 512;" xml:space="preserve">
<style type="text/css">
	.st0{fill:#739CD2;}
</style>
<g>
	<g>
		<path class="st0" d="M256,174.6c-44.9,0-81.4,36.5-81.4,81.4s36.5,81.4,81.4,81.4s81.4-36.5,81.4-81.4S300.9,174.6,256,174.6z"/>
	</g>
</g>
<g>
	<g>
		<path class="st0" d="M416.7,0H95.3C42.8,0,0,42.8,0,95.3v321.3C0,469.2,42.8,512,95.3,512h321.3c52.6,0,95.3-42.8,95.3-95.3V95.3
			C512,42.8,469.2,0,416.7,0z M256,367.4c-61.4,0-111.4-50-111.4-111.4s50-111.4,111.4-111.4s111.4,50,111.4,111.4
			S317.4,367.4,256,367.4z M411.2,122c-2.8,2.8-6.6,4.4-10.6,4.4c-4,0-7.8-1.6-10.6-4.4c-2.8-2.8-4.4-6.7-4.4-10.6
			c0-3.9,1.6-7.8,4.4-10.6c2.8-2.8,6.7-4.4,10.6-4.4c3.9,0,7.8,1.6,10.6,4.4c2.8,2.8,4.4,6.7,4.4,10.6S414,119.2,411.2,122z"/>
	</g>
</g>
</svg>
