<?xml version="1.0" encoding="utf-8"?>
<!-- Generator: Adobe Illustrator 21.0.2, SVG Export Plug-In . SVG Version: 6.00 Build 0)  -->
<svg version="1.1" id="Layer_1" xmlns="http://www.w3.org/2000/svg" xmlns:xlink="http://www.w3.org/1999/xlink" x="0px" y="0px"
	 viewBox="0 0 512 512" style="enable-background:new 0 0 512 512;" xml:space="preserve">
<style type="text/css">
	.st0{fill:none;stroke:#000000;stroke-width:10;stroke-miterlimit:10;}
</style>
<g>
	<g>
		<g>
			<path d="M404.5,283.4c1.6-9,2.6-17.9,2.6-26.9c0-82.7-67.4-150.1-150.1-150.1c-9,0-17.9,1.1-26.9,2.6C217,101.7,202.3,98,187,98
				c-49,0-89,40-89,89c0,14.7,3.7,30,11.1,43.2c-1.6,9-2.6,17.9-2.6,26.9c0,82.7,67.4,150.1,150.1,150.1c9,0,17.9-1.1,26.9-2.6
				c11.6,6.3,25.8,9.5,43.2,9.5c49,0,87.4-38.4,87.4-87.4C414,309.2,410.8,295,404.5,283.4z M326.6,403.5c-16.3,0-29-3.2-39.5-9
				l-1.6-1.1l-2.1,0.5c-9,1.6-17.9,2.6-26.9,2.6c-76.9,0-139.6-62.7-139.6-139.6c0-9,1.1-17.9,2.6-26.9l0.5-2.1l-1.1-1.6
				c-6.8-12.1-10.5-25.8-10.5-39.5c0-43.2,35.3-78.5,78.5-78.5c13.7,0,27.4,3.7,39.5,10.5l1.6,1.1l2.1-0.5c9-1.6,17.9-2.6,26.9-2.6
				c76.9,0,139.6,62.7,139.6,139.6c0,9-1.1,17.9-2.6,26.9l-0.5,2.1l1.1,1.6c5.8,10.5,9,23.2,9,39.5
				C403.5,369.8,369.8,403.5,326.6,403.5z"/>
			<path d="M269.7,230.7c-39.5-7.9-45.3-17.9-45.8-20.5c-1.1-3.7,1.6-6.8,4.2-9c6.8-5.8,23.2-10.5,37.4-7.9
				c5.3,1.1,12.6,3.7,16.3,10c9,17.4,18.4,31.1,37.9,26.3c6.3-1.6,11.1-5.8,14.2-12.1c3.7-8.4,3.7-20-1.1-29
				c-5.3-10-27.9-35.8-72.2-35.8c-42.1,0-90.6,15.3-90.6,58.5c0,34.2,30,58.5,82.2,65.8c26.3,3.7,34.8,12.1,37.4,16.9
				c1.6,3.2,1.6,6.3,0.5,9.5c-4.2,10-18.4,19.5-40.6,17.4c-25.3-2.6-33.7-25.3-35.3-30c-4.2-13.2-18.4-15.3-25.8-14.7
				c-3.7,0.5-12.1,3.2-17.4,11.1c-3.2,4.7-6.3,13.7-1.6,27.4c5.8,17.9,25.3,47.4,90.1,47.4c54.2,0,86.9-34.2,87.4-65.8
				C347.1,261.3,323.4,241.3,269.7,230.7z M259.2,351.3c-43.2,0-71.6-14.2-80.1-40c-2.6-7.9-2.6-14.2,0.5-18.4s7.9-6.3,10-6.3
				c0,0,0.5,0,1.6,0c3.2,0,11.1,0.5,12.1,6.8c2.1,5.8,12.6,34.2,44.2,37.4c27.9,2.6,45.8-10.5,51.6-24.2c2.6-6.3,2.1-13.2-1.1-19
				c-4.2-7.9-15.8-17.9-44.8-22.1c-27.4-4.2-73.2-16.3-73.2-55.3c0-35.3,43.2-47.9,80.1-47.9c39,0,58.5,21.6,62.7,30
				c2.6,5.8,3.2,14.2,0.5,20c-1.6,3.7-4.2,5.8-7.4,6.3c-9.5,2.1-15.3,0-26.3-21.1c-4.2-7.9-12.6-13.2-23.7-15.3
				c-16.3-2.6-36.3,1.6-46.3,10.5c-6.3,5.8-9,12.6-7.4,19.5c3.7,12.6,21.1,21.6,54.2,27.9c60.6,12.1,69,34.2,69,54.8
				C335.5,322.4,307.1,351.3,259.2,351.3z"/>
		</g>
	</g>
</g>
<circle class="st0" cx="255" cy="257" r="255"/>
</svg>
