<?xml version="1.0" encoding="utf-8"?>
<!-- Generator: Adobe Illustrator 21.0.2, SVG Export Plug-In . SVG Version: 6.00 Build 0)  -->
<svg version="1.1" xmlns="http://www.w3.org/2000/svg" xmlns:xlink="http://www.w3.org/1999/xlink" x="0px" y="0px"
	 viewBox="0 0 2557 2557" style="enable-background:new 0 0 2557 2557;" xml:space="preserve">
<g id="Layer_1_copy">
	<g id="XMLID_6_">
		<g>
			<path id="XMLID_77_" d="M2456.5,780.8c-32-75.8-71.7-148.8-117.9-217.2c-45.7-67.7-98.3-131.3-156.1-189.2
				c-57.8-57.8-121.5-110.4-189.2-156.1c-68.3-46.2-141.4-85.8-217.2-117.9C1618.5,33.8,1451.1,0,1278.5,0s-340,33.8-497.7,100.5
				c-75.8,32-148.8,71.7-217.2,117.9c-67.7,45.7-131.3,98.3-189.2,156.1C316.6,432.3,264.1,496,218.4,563.7
				c-46.2,68.3-85.8,141.4-117.9,217.2C33.8,938.5,0,1105.9,0,1278.5s33.8,340,100.5,497.7c32,75.8,71.7,148.8,117.9,217.2
				c45.7,67.7,98.3,131.3,156.1,189.2c57.8,57.8,121.5,110.4,189.2,156.1c68.3,46.2,141.4,85.8,217.2,117.9
				c157.6,66.7,325.1,100.5,497.7,100.5s340-33.8,497.7-100.5c75.8-32,148.8-71.7,217.2-117.9c67.7-45.7,131.3-98.3,189.2-156.1
				c57.8-57.8,110.4-121.5,156.1-189.2c46.2-68.3,85.8-141.4,117.9-217.2c66.7-157.6,100.5-325.1,100.5-497.7
				S2523.2,938.5,2456.5,780.8z M1278.5,2497C606.6,2497,60,1950.4,60,1278.5S606.6,60,1278.5,60S2497,606.6,2497,1278.5
				S1950.4,2497,1278.5,2497z"/>
			<path id="XMLID_71_" d="M1904.2,772.5c-25.5-22.1-61-28.4-92.6-16.5L564.9,1226.3c-33.7,12.7-54.7,44.2-53.5,80.1
				c1.2,36,24.2,66,58.6,76.5l306.2,93.2l101,345.4c1.4,4.8,4,9.2,7.6,12.8c0,0,41.9,39.3,41.8,38c3.3,3.5,7.2,6.6,11.7,8.8
				c5.9,3,12.3,4.5,18.6,4.5c9.7,0,19.3-3.5,27-10.2l185.3-162.1l282,208.6c17.9,13.2,39.1,20,60.6,20c11.9,0,24-2.1,35.5-6.4
				c32.4-12,56.4-39.3,64.1-72.9v0c52.8-230.6,173-776.7,222.3-1000.8C1941.1,828.8,1929.7,794.6,1904.2,772.5z M1053.3,1507.3
				c-6.2,5.2-10,12.6-10.7,20.5c0,0,0,0,0,0l-20,234.9l-86.8-296.7l569.1-333.8L1053.3,1507.3z M1079.7,1799.5l18.1-213l122.1,90.3
				L1079.7,1799.5z M1875.2,848.9c-49.2,224-169.5,769.9-222.2,1000.3v0c-3.2,14.1-12.8,25-26.4,30.1c-13.6,5-28,3-39.6-5.6
				l-465.9-344.6l554.6-460.4c0.5-0.4,1-0.9,1.5-1.4c18-17.1,20.4-43,5.8-61.6c-15.2-19.4-42.1-23.4-64.2-9.6l-722.2,423.5
				l-309.1-94.1c-14.5-4.4-16-17.2-16.1-21c-0.1-3.8,0.6-16.7,14.7-22l1246.6-470.3c16.1-6.1,27.9,2,32.2,5.7
				C1869.2,821.6,1878.9,832.1,1875.2,848.9z"/>
		</g>
	</g>
</g>
<g id="Layer_1">
</g>
<g id="Layer_1_copy_2">
</g>
</svg>
