<?xml version="1.0" encoding="utf-8"?>
<!-- Generator: Adobe Illustrator 21.0.2, SVG Export Plug-In . SVG Version: 6.00 Build 0)  -->
<svg version="1.1" id="Layer_1" xmlns="http://www.w3.org/2000/svg" xmlns:xlink="http://www.w3.org/1999/xlink" x="0px" y="0px"
	 viewBox="0 0 470 470" style="enable-background:new 0 0 470 470;" xml:space="preserve">
<style type="text/css">
	.st0{fill:none;stroke:#000000;stroke-width:10;stroke-miterlimit:10;}
    .st0:hover {stroke:#909090}
</style>
<g class="icon">
	<g>
		<g>
			<path d="M235,86c-78.7,0-142.7,64-142.7,142.7c0,36.4,13.6,70.9,38.4,97.4l-22,49c-1,2.2-0.6,4.8,0.9,6.6c1.2,1.5,3,2.3,4.9,2.3
				c0.5,0,1-0.1,1.5-0.2l77.6-18.6c13.6,4.1,27.5,6.1,41.4,6.1c78.7,0,142.7-64,142.7-142.7S313.7,86,235,86z M235,358.6
				c-13.1,0-26.1-2-38.9-5.9c-0.9-0.4-1.8-0.5-2.5-0.5v0.1c-0.5,0-0.9,0.1-1.4,0.2l-66.7,16l18.5-41.1c1.1-2.4,0.6-5.2-1.3-7.1
				c-24.4-24.6-37.8-57.1-37.8-91.7c0-71.7,58.3-130,130-130s130,58.3,130,130S306.7,358.6,235,358.6z"/>
			<path d="M276,229.3C276,229.3,276,229.3,276,229.3c-2.5-2.4-5.7-3.7-9-3.7c-3.4,0-6.6,1.3-9,3.7l-9,9l-26.9-26.9l9-9
				c4.9-5,4.9-13,0-18l-31.4-31.4c-2.4-2.4-5.6-3.7-9-3.7s-6.6,1.3-9,3.7l-29.2,29.2c-1.4,1.4-2.1,3.3-1.8,5.3
				c0.2,1.2,4.3,30.5,48,74.1c43.6,43.6,72.9,47.8,74.1,47.9c0.3,0,0.5,0,0.8,0c1.7,0,3.3-0.7,4.5-1.9l29.1-29.1
				c2.4-2.4,3.8-5.6,3.8-9c0-3.4-1.3-6.6-3.8-9L276,229.3z M298.4,269.7l-26.7,26.7c-7.8-2.1-31-10.7-63.9-43.7
				c-32.6-32.6-41.5-56.1-43.7-64l26.7-26.7l31.4,31.4l-13.4,13.4c-1.2,1.2-1.9,2.8-1.9,4.5c0,1.7,0.7,3.3,1.9,4.5l35.9,35.8
				c2.5,2.5,6.5,2.5,9,0l13.4-13.4c0,0,0.1,0,0.1,0L298.4,269.7C298.4,269.7,298.4,269.7,298.4,269.7
				C298.4,269.7,298.4,269.7,298.4,269.7z"/>
		</g>
	</g>
</g>
<circle class="st0" cx="235" cy="235" r="235"/>
</svg>
