<?xml version="1.0" encoding="utf-8"?>
<!-- Generator: Adobe Illustrator 21.0.2, SVG Export Plug-In . SVG Version: 6.00 Build 0)  -->
<svg version="1.1" id="Capa_1" xmlns="http://www.w3.org/2000/svg" xmlns:xlink="http://www.w3.org/1999/xlink" x="0px" y="0px"
	 viewBox="0 0 496 496" style="enable-background:new 0 0 496 496;" xml:space="preserve">
<path d="M456,112h-74.2C370.4,48.4,314.8,0,248,0S125.6,48.4,114.2,112H40c-22.1,0-40,17.9-40,40v256c0,22.1,17.9,40,40,40h88v32H96
	v16h304v-16h-32v-32h88c22.1,0,40-17.9,40-40V152C496,129.9,478.1,112,456,112z M330.6,49.1c21.2,20.2,35,47.9,37,78.9H352v16h15.6
	c-1.6,25-10.8,48.4-26.6,67.7c-4.4-14.8-13.4-27.6-25.3-36.8c2.3-10,3.6-20.3,4.1-30.9H336v-16h-16.4c-1-23.9-6.4-44.2-13.8-61.1
	C318.1,60.6,326.2,53.6,330.6,49.1z M318.2,38.9c-3.5,3.5-9.9,8.8-19.5,13.8c-8.2-14.5-17.5-25.7-25.6-34
	C289.6,22.2,304.9,29.2,318.2,38.9z M256,24.4c8,7.2,18.5,18.5,27.7,34.3c-7.9,2.5-17.1,4.4-27.7,5V24.4z M256,128V79.7
	c13.6-0.7,25.2-3.2,35.1-6.6c6.7,15.1,11.6,33.4,12.6,54.9L256,128L256,128z M256,144h47.8c-0.4,7.6-1.2,15-2.6,22.2
	c-8.9-4-18.8-6.2-29.2-6.2c-5.5,0-10.8,0.7-16,1.8V144z M272,176c30.9,0,56,25.1,56,56c0,2.9-0.3,5.9-0.8,8.8
	C300.5,245,280,268.1,280,296h16c0-22.1,17.9-40,40-40s40,17.9,40,40s-17.9,40-40,40H160c-17.6,0-32-14.4-32-32s14.4-32,32-32
	s32,14.4,32,32h16c0-23.7-17.3-43.4-39.9-47.3c0-0.2-0.1-0.5-0.1-0.7c0-17.6,14.4-32,32-32s32,14.4,32,32h16
	c0-19.4-11.6-36.2-28.2-43.7C227.9,190.7,248.5,176,272,176z M128.4,144h47.8c1,23,6.2,44.7,15.7,64.7c-10.4,1.8-19.6,6.8-26.6,14.1
	C143.5,202.1,130.4,174.1,128.4,144z M240,144v23.6c-14.6,7.3-26.6,19.3-33.5,34.5c-8.5-17.9-13.3-37.4-14.3-58.1H240z M192.4,128
	c1-21.5,5.9-39.8,12.6-54.9c9.9,3.4,21.5,5.9,35.1,6.6V128H192.4z M240,24.4v39.3c-10.6-0.6-19.8-2.5-27.7-5
	C221.5,43,232,31.6,240,24.4z M223,18.7c-8.2,8.3-17.5,19.5-25.7,34c-9.6-4.9-16-10.3-19.5-13.8C191.1,29.3,206.4,22.2,223,18.7z
	 M165.4,49.1c4.3,4.4,12.4,11.5,24.7,17.8c-7.4,16.9-12.8,37.2-13.8,61.1h-47.9C130.5,97,144.3,69.3,165.4,49.1z M352,480H144v-32
	h208V480z M480,408c0,13.2-10.8,24-24,24H40c-13.2,0-24-10.8-24-24v-8h464V408z M480,384H16V152c0-13.2,10.8-24,24-24h72.4
	c-0.2,2.7-0.4,5.3-0.4,8c0,38.5,16.2,74.4,44.3,100.2c-2.8,6-4.3,12.7-4.3,19.8c0,0.2,0,0.5,0,0.7c-22.7,3.8-40,23.5-40,47.3
	c0,26.5,21.5,48,48,48h176c30.9,0,56-25.1,56-56c0-28.3-21.2-51.8-48.5-55.4c0.3-2.8,0.5-5.6,0.5-8.4c25.8-25.7,40-59.6,40-96.2
	c0-2.7-0.2-5.3-0.4-8H456c13.2,0,24,10.8,24,24V384z"/>
<rect x="432" y="216" width="16" height="16"/>
<rect x="432" y="248" width="16" height="16"/>
<rect x="432" y="280" width="16" height="16"/>
<rect x="48" y="216" width="16" height="16"/>
<rect x="48" y="248" width="16" height="16"/>
<rect x="48" y="280" width="16" height="16"/>
</svg>
