<?xml version="1.0" encoding="utf-8"?>
<!-- Generator: Adobe Illustrator 21.0.2, SVG Export Plug-In . SVG Version: 6.00 Build 0)  -->
<svg version="1.1" id="Capa_1" xmlns="http://www.w3.org/2000/svg" xmlns:xlink="http://www.w3.org/1999/xlink" x="0px" y="0px"
	 viewBox="0 0 512 512" style="enable-background:new 0 0 512 512;" xml:space="preserve">
<g>
	<g>
		<path d="M240.8,136.7c-0.1-4.5-3.1-8.3-7.4-9.4L138,102.1c0,0,0,0,0,0L102,92.7c-4.3-1.1-8.8,0.7-11.1,4.4
			c-14.4,23.3-25.7,49.3-32.7,75.1c-11.7,43-9.7,79.9,5.7,106.7c9,15.5,22.1,26.9,38.3,33.4L65.6,447.3l-53-14
			c-5.3-1.4-10.8,1.8-12.2,7.1c-1.4,5.3,1.8,10.8,7.1,12.2c0,0,62.5,16.5,62.5,16.5c0,0,62.7,16.5,62.7,16.5
			c0.9,0.2,1.7,0.3,2.6,0.3c4.4,0,8.5-3,9.7-7.5c1.4-5.3-1.8-10.8-7.1-12.2l-52.9-13.9l36.8-135c3.6,0.5,7.2,0.8,10.8,0.8
			c44.6,0,81.4-37.5,98.5-100.3C238,192.1,241.4,164,240.8,136.7z M211.7,212.6c-14.6,53.6-44.2,85.5-79.2,85.5
			c-5.1,0-10.3-0.7-15.4-2c-15.4-4.1-27.8-13.5-35.7-27.2c-9.4-16.3-12.6-37.8-9.5-63.1c13.4,2.2,26,3,37.9,3
			c19.7,0,37.6-2.2,54.2-4.3c18.8-2.3,35.5-4.4,50.3-2.5C213.5,205.5,212.6,209.1,211.7,212.6z M218,182.3
			c-17.7-2.4-36.6-0.1-56.4,2.4c-25.3,3.1-53.7,6.6-86.2,1.4c0.7-2.9,1.4-5.7,2.2-8.7c5.9-21.6,15.1-43.4,26.6-63.5l15.9,4.2
			c-2.9,5.6-5.5,11.3-7.6,15.9c-2.2,5,0,11,5.1,13.2c1.3,0.6,2.7,0.9,4.1,0.9c3.8,0,7.5-2.2,9.1-5.9c3.2-7.3,6.4-13.7,9.2-18.8
			l80.9,21.3C220.8,157.2,219.8,169.9,218,182.3z"/>
	</g>
</g>
<g>
	<g>
		<g>
			<path d="M442,469.1C442,469.1,442,469.1,442,469.1l-62.2,16.4C385.7,484,442,469.1,442,469.1z"/>
			<path d="M379.8,485.5c-0.3,0.1-0.5,0.1-0.5,0.1L379.8,485.5z"/>
			<path d="M511.7,440.4c-1.4-5.3-6.9-8.5-12.2-7.1l-53,14l-36.8-135.1c16.2-6.5,29.4-17.9,38.3-33.4c15.5-26.8,17.5-63.7,5.8-106.7
				c-7-25.8-18.3-51.7-32.7-75.1c-2.3-3.7-6.8-5.5-11.1-4.4l-131.3,34.6c-4.3,1.1-7.3,5-7.4,9.4c-0.5,24.6,2.2,49.7,7.8,73.3
				c0.1,0.3,0.1,0.7,0.2,1c0.6,2.3,1.1,4.6,1.8,6.8c17.1,62.8,53.9,100.3,98.5,100.3c0,0,0,0,0,0c3.6,0,7.2-0.3,10.8-0.8l36.8,135
				l-52.9,13.9c-5.3,1.4-8.5,6.9-7.1,12.2c1.2,4.5,5.2,7.5,9.7,7.5c0.8,0,1.7-0.1,2.6-0.3l62.7-16.5c0,0,0,0,0,0l62.5-16.5
				C509.9,451.2,513.1,445.8,511.7,440.4z M291.2,144.7l116.6-30.8c11.6,20,20.8,41.8,26.6,63.5c1.7,6.3,3.1,12.4,4.2,18.3
				c-6.1-0.6-12.3-0.7-18.6-0.4c-1.1-7.3-2.7-15-4-20.9c-1.2-5.4-6.6-8.8-12-7.5c-5.4,1.2-8.8,6.6-7.5,12c1.5,6.7,2.7,12.8,3.5,18.1
				c-4.5,0.5-9.1,1.1-13.7,1.7c-26,3.3-55.2,7-89.1,1C293.3,181.8,291.3,163.1,291.2,144.7z M379.5,298.1
				C379.5,298.1,379.5,298.1,379.5,298.1c-33.2,0-61.6-28.8-76.8-77.4c11.1,1.5,21.8,2.2,31.9,2.2c19.7,0,37.6-2.3,54.2-4.4
				c19.6-2.5,36.9-4.7,52.2-2.3c1.2,20.8-2.3,38.7-10.4,52.7c-7.9,13.7-20.3,23.1-35.7,27.2C389.8,297.4,384.6,298.1,379.5,298.1z"
				/>
		</g>
	</g>
</g>
<g>
	<g>
		<path d="M256,26c-5.5,0-10,4.5-10,10v26.1c0,5.5,4.5,10,10,10s10-4.5,10-10V36C266,30.5,261.5,26,256,26z"/>
	</g>
</g>
<g>
	<g>
		<path d="M223.6,75l-13.3-22.6c-2.8-4.8-8.9-6.4-13.7-3.6c-4.8,2.8-6.4,8.9-3.6,13.7l13.3,22.6c1.9,3.2,5.2,4.9,8.6,4.9
			c1.7,0,3.5-0.4,5.1-1.4C224.8,85.9,226.4,79.8,223.6,75z"/>
	</g>
</g>
<g>
	<g>
		<path d="M315.3,48.9c-4.8-2.8-10.9-1.2-13.7,3.6L288.4,75c-2.8,4.8-1.2,10.9,3.6,13.7c1.6,0.9,3.3,1.4,5,1.4
			c3.4,0,6.8-1.8,8.6-4.9l13.3-22.6C321.7,57.8,320.1,51.7,315.3,48.9z"/>
	</g>
</g>
<g>
	<g>
		<path d="M408.6,146.7C408.6,146.7,408.6,146.7,408.6,146.7c-1.7-5.3-7.2-8.2-12.5-6.7c-5.3,1.6-8.3,7.2-6.7,12.5
			c0,0.1,0,0.2,0.1,0.2c1.4,4.3,5.3,7,9.5,7c1,0,2-0.1,3-0.5C407.3,157.6,410.2,152,408.6,146.7z"/>
	</g>
</g>
<g>
	<g>
		<circle cx="110" cy="164" r="10"/>
	</g>
</g>
</svg>
