<?xml version="1.0" encoding="utf-8"?>
<!-- Generator: Adobe Illustrator 21.0.2, SVG Export Plug-In . SVG Version: 6.00 Build 0)  -->
<svg version="1.1" id="Capa_1" xmlns="http://www.w3.org/2000/svg" xmlns:xlink="http://www.w3.org/1999/xlink" x="0px" y="0px"
	 viewBox="0 0 512 512" style="enable-background:new 0 0 512 512;" xml:space="preserve">
<g>
	<g>
		<path d="M256,0C114.6,0,0,114.6,0,256s114.6,256,256,256s256-114.6,256-256C511.8,114.7,397.3,0.2,256,0z M256,490.7
			C126.4,490.7,21.3,385.6,21.3,256S126.4,21.3,256,21.3S490.7,126.4,490.7,256C490.5,385.5,385.5,490.5,256,490.7z"/>
	</g>
</g>
<g>
	<g>
		<path d="M312.5,355.1l-45.8,45.8V74.7h-21.3v326.3l-45.8-45.8l-15.1,15.1l64,64c4.2,4.2,10.9,4.2,15.1,0l64-64L312.5,355.1z"/>
	</g>
</g>
</svg>
