<?xml version="1.0" encoding="utf-8"?>
<!-- Generator: Adobe Illustrator 21.0.2, SVG Export Plug-In . SVG Version: 6.00 Build 0)  -->
<svg version="1.1" id="Capa_1" xmlns="http://www.w3.org/2000/svg" xmlns:xlink="http://www.w3.org/1999/xlink" x="0px" y="0px"
	 viewBox="0 0 512 512" style="enable-background:new 0 0 512 512;" xml:space="preserve">
<g>
	<g>
		<path d="M458.8,340.3h-12.5v-97.8c0-1.6-0.5-3.2-1.5-4.5l-36.1-47.3c3.5-4.6,5.6-10.4,5.6-16.6c0-15.1-12.3-27.4-27.4-27.4
			s-27.4,12.3-27.4,27.4c0,15.1,12.3,27.4,27.4,27.4c3.5,0,6.8-0.7,9.8-1.8l34.6,45.3v95.3h-35.9v-21.7c0-4.1-3.4-7.5-7.5-7.5
			s-7.5,3.4-7.5,7.5v21.7h-32.5v-58.7c0-4.1-3.4-7.5-7.5-7.5s-7.5,3.4-7.5,7.5v58.7h-45.4l-13-76.5l3.6-5.5
			c3.2,2.3,6.4,3.9,11.1,2.7c3.4-0.9,6.3-3.1,7.8-6.3l18.3-36.7l41.8,16.2c1.1,0.5,23.2,10.4,23.2,36.4v12.9c0,4.1,3.4,7.5,7.5,7.5
			s7.5-3.4,7.5-7.5v-12.9c0-36.4-31.3-49.7-32.6-50.3c0,0-0.1,0-0.1-0.1L292,192.9v-15.1c11.1-8.8,18.9-21.7,21.1-36.3
			c5.5-0.6,10.6-2.8,14.9-6.4c6-5.1,9.4-12.6,9.4-20.4c0-6.3-2.2-12.4-6.2-17.2V75.8c0-41.8-34-75.8-75.8-75.8s-75.8,34-75.8,75.8
			V98c-4,4.7-6.2,10.5-6.2,16.6c0,7.9,3.4,15.3,9.4,20.4c4.2,3.7,9.4,5.8,14.9,6.5c2.3,14.3,10,28,22.3,37.2v14.1l-70.6,27.4
			c0,0-0.1,0-0.1,0.1c-1.3,0.5-32.6,13.8-32.6,50.3v69.7H80.7V245l34.6-45.3c3.1,1.2,6.4,1.8,9.8,1.8c15.1,0,27.4-12.3,27.4-27.4
			s-12.3-27.4-27.4-27.4S97.7,159,97.7,174.1c0,6.2,2.1,12,5.6,16.6l-36.1,47.3c-1,1.3-1.5,2.9-1.5,4.5v97.8H53.2
			c-9.1,0-16.6,7.4-16.6,16.6v38.9c0,9.1,7.4,16.6,16.6,16.6v84c0,8.6,7,15.6,15.6,15.6h169.7c4.1,0,7.5-3.4,7.5-7.5
			s-3.4-7.5-7.5-7.5H68.8c-0.3,0-0.6-0.3-0.6-0.6v-84h375.7v84c0,0.3-0.3,0.6-0.6,0.6H273.5c-4.1,0-7.5,3.4-7.5,7.5s3.4,7.5,7.5,7.5
			h169.7c8.6,0,15.6-7,15.6-15.6v-84c9.1,0,16.6-7.4,16.6-16.6v-38.9C475.4,347.7,468,340.3,458.8,340.3z M386.9,186.5
			c-6.9,0-12.4-5.6-12.4-12.4s5.6-12.4,12.4-12.4s12.4,5.6,12.4,12.4C399.3,181,393.6,186.5,386.9,186.5z M125.1,161.7
			c6.9,0,12.4,5.6,12.4,12.4s-5.6,12.4-12.4,12.4c-6.7,0-12.4-5.5-12.4-12.4C112.7,167.2,118.3,161.7,125.1,161.7z M301.4,212.6
			l-16.1,32.3c-0.1,0-4.9-3.5-18.5-13.1c12.9-15.9,13.5-16.7,20.1-24.8L301.4,212.6z M256,242.5l10,7.1l-3.3,5h-13.3l-3.3-5
			L256,242.5z M234.9,195.3v-8.5c6.9,2.5,14.3,3.6,21.2,3.6c7.3,0,14.6-1.5,20.9-3.9v8.9l-21,26L234.9,195.3z M251.6,269.6h8.7
			l12,70.7h-32.6L251.6,269.6z M322.4,114.7c0,3.5-1.5,6.8-4.1,9.1c-1.3,1.1-2.8,1.9-4.4,2.4v-23
			C318.9,104.8,322.4,109.4,322.4,114.7z M196.9,126.2c-1.6-0.5-3.1-1.3-4.4-2.4c-2.6-2.3-4.1-5.6-4.1-9.1c0-3.9,2.2-6.6,3.7-8.1
			c0,0,0.1,0,0.1-0.1c1.4-1.3,3-2.3,4.8-2.9V126.2z M200.8,83c-1.5,1.4-2.6,3.2-3.2,5c-1,0.2-2.1,0.4-3.1,0.6V75.8h0
			c0-33.5,27.3-60.8,60.8-60.8s60.8,27.3,60.8,60.8v12.5c-0.8-0.2-1.6-0.3-2.4-0.4c-0.1-2.7-0.7-4.3-3.2-7.3
			c-2.3-2.8-6.5-7.1-16.1-17.4c-4-4.3-10.5-5.2-15.5-1.9c-20.5,13.4-45.6,20.2-68.9,18.6C206.7,79.6,203.3,80.7,200.8,83z
			 M211.9,132.8V95.4V95c14.1,0.6,28.6-1.4,42.3-5.7c10.8-3.4,21.3-8.1,30.9-14.2c2.7,2.9,5,5.4,6.9,7.3c0.1,0.1,0.2,0.3,0.4,0.4
			c0.7,0.7,1.3,1.4,1.9,2c2,2.2,3.6,3.9,4.5,4.9v43c0,23.6-19.2,42.7-42.7,42.7C230.2,175.5,211.9,155.5,211.9,132.8z M225,207
			l20.1,24.8c-8.7,6.2-17.5,12.4-18.4,13.1l-16.1-32.3L225,207z M131.5,270.6L131.5,270.6c0-25.9,21.8-35.8,23.2-36.4l41.7-16.2
			l18.3,36.7v0c2.1,4.1,6.2,6.6,10.7,6.6c4.1,0,6.6-1.9,8.2-3.1l3.6,5.5l-13,76.5h-45.4v-58.7c0-4.1-3.4-7.5-7.5-7.5
			s-7.5,3.4-7.5,7.5v58.7h-32.5L131.5,270.6L131.5,270.6z M460.4,395.8c0,0.9-0.7,1.6-1.6,1.6c-10.7,0-396.6,0-405.7,0
			c-0.9,0-1.6-0.7-1.6-1.6v-38.9c0-0.9,0.7-1.6,1.6-1.6c13.3,0,395.7,0,405.7,0c0.9,0,1.6,0.7,1.6,1.6V395.8z"/>
	</g>
</g>
</svg>
