<?xml version="1.0" encoding="utf-8"?>
<!-- Generator: Adobe Illustrator 21.0.2, SVG Export Plug-In . SVG Version: 6.00 Build 0)  -->
<svg version="1.1" id="Capa_1" xmlns="http://www.w3.org/2000/svg" xmlns:xlink="http://www.w3.org/1999/xlink" x="0px" y="0px"
	 viewBox="0 0 480 480" style="enable-background:new 0 0 480 480;" xml:space="preserve">
<g>
	<g>
		<rect x="168" y="160" width="16" height="16"/>
	</g>
</g>
<g>
	<g>
		<rect x="168" y="192" width="16" height="16"/>
	</g>
</g>
<g>
	<g>
		<rect x="168" y="224" width="16" height="16"/>
	</g>
</g>
<g>
	<g>
		<rect x="168" y="256" width="16" height="16"/>
	</g>
</g>
<g>
	<g>
		<rect x="200" y="160" width="16" height="16"/>
	</g>
</g>
<g>
	<g>
		<rect x="200" y="192" width="16" height="16"/>
	</g>
</g>
<g>
	<g>
		<rect x="200" y="224" width="16" height="16"/>
	</g>
</g>
<g>
	<g>
		<rect x="200" y="256" width="16" height="16"/>
	</g>
</g>
<g>
	<g>
		<rect x="232" y="160" width="16" height="16"/>
	</g>
</g>
<g>
	<g>
		<rect x="232" y="192" width="16" height="16"/>
	</g>
</g>
<g>
	<g>
		<rect x="232" y="224" width="16" height="16"/>
	</g>
</g>
<g>
	<g>
		<rect x="232" y="256" width="16" height="16"/>
	</g>
</g>
<g>
	<g>
		<rect x="264" y="160" width="16" height="16"/>
	</g>
</g>
<g>
	<g>
		<rect x="200" y="128" width="16" height="16"/>
	</g>
</g>
<g>
	<g>
		<rect x="232" y="128" width="16" height="16"/>
	</g>
</g>
<g>
	<g>
		<rect x="264" y="128" width="16" height="16"/>
	</g>
</g>
<g>
	<g>
		<rect x="264" y="192" width="16" height="16"/>
	</g>
</g>
<g>
	<g>
		<rect x="264" y="224" width="16" height="16"/>
	</g>
</g>
<g>
	<g>
		<rect x="264" y="256" width="16" height="16"/>
	</g>
</g>
<g>
	<g>
		<rect x="296" y="160" width="16" height="16"/>
	</g>
</g>
<g>
	<g>
		<rect x="296" y="192" width="16" height="16"/>
	</g>
</g>
<g>
	<g>
		<rect x="296" y="224" width="16" height="16"/>
	</g>
</g>
<g>
	<g>
		<rect x="296" y="256" width="16" height="16"/>
	</g>
</g>
<g>
	<g>
		<path d="M472,120C472,120,472,120,472,120H352V8c0-4.4-3.6-8-8-8c0,0,0,0,0,0H136c-4.4,0-8,3.6-8,8c0,0,0,0,0,0v112H8
			c-4.4,0-8,3.6-8,8c0,0,0,0,0,0v288c0,4.4,3.6,8,8,8c0,0,0,0,0,0h16.7c-0.5,2.6-0.7,5.3-0.7,8v40c0,4.4,3.6,8,8,8c0,0,0,0,0,0h416
			c4.4,0,8-3.6,8-8c0,0,0,0,0,0v-40c0-2.7-0.3-5.4-0.7-8H472c4.4,0,8-3.6,8-8c0,0,0,0,0,0V128C480,123.6,476.4,120,472,120z
			 M344,344c0,8.8-7.2,16-16,16s-16-7.2-16-16s7.2-16,16-16C336.8,328,344,335.2,344,344z M152,328c8.8,0,16,7.2,16,16
			s-7.2,16-16,16s-16-7.2-16-16C136,335.2,143.2,328,152,328z M104,464H40v-32c0-17.7,14.3-32,32-32s32,14.3,32,32V464z M56,368
			c0-8.8,7.2-16,16-16s16,7.2,16,16s-7.2,16-16,16C63.2,384,56,376.8,56,368z M105.2,397.4c-3-2.9-6.4-5.4-10.1-7.4
			c12.2-12.8,11.7-33-1.1-45.2s-33-11.7-45.2,1.1C37,358.2,37,377.6,48.9,390c-7.6,4.2-14,10.5-18.4,18H16V136h112v187.1
			c-11,12.3-10.6,31,0.9,42.9C116.9,372.6,108.3,384.1,105.2,397.4z M184,464h-64v-56c0-17.7,14.3-32,32-32s32,14.3,32,32V464z
			 M280,464h-80v-56c0-22.1,17.9-40,40-40s40,17.9,40,40V464z M216,328c0-13.3,10.7-24,24-24s24,10.7,24,24s-10.7,24-24,24
			C226.8,352,216,341.2,216,328z M288.7,380.5c-5.4-9.4-13.3-17.1-23-22.2c16.9-14.2,19.1-39.5,4.8-56.4
			c-14.2-16.9-39.5-19.1-56.4-4.8c-16.9,14.2-19.1,39.5-4.8,56.4c1.5,1.7,3.1,3.4,4.8,4.8c-9.6,5-17.6,12.7-23,22.2
			c-4.2-6-9.7-11-16.1-14.5c12.3-12.5,12-32.7-0.5-44.9c-8.1-7.9-19.7-10.9-30.6-7.9V16h192v297.1c-2.6-0.7-5.3-1.1-8-1.1
			c-17.6,0-32,14.2-32,31.8c0,8.2,3.2,16.2,8.9,22.1C298.4,369.5,292.9,374.5,288.7,380.5z M360,432v32h-64v-56
			c0-17.7,14.3-32,32-32s32,14.3,32,32V432z M440,464h-64v-32c0-17.7,14.3-32,32-32s32,14.3,32,32V464z M392,368c0-8.8,7.2-16,16-16
			s16,7.2,16,16s-7.2,16-16,16C399.2,384,392,376.8,392,368z M464,408h-14.5c-4.4-7.6-10.7-13.8-18.4-18c12.2-12.8,11.7-33-1.1-45.2
			c-12.8-12.2-33-11.7-45.2,1.1c-11.8,12.4-11.8,31.8,0,44.2c-3.7,2-7,4.5-10.1,7.4c-3-13.4-11.6-24.8-23.6-31.4
			c11.5-11.9,11.8-30.6,0.9-42.9V136h112L464,408L464,408z"/>
	</g>
</g>
<g>
	<g>
		<rect x="376" y="184" width="16" height="128"/>
	</g>
</g>
<g>
	<g>
		<rect x="424" y="184" width="16" height="128"/>
	</g>
</g>
<g>
	<g>
		<rect x="40" y="184" width="16" height="128"/>
	</g>
</g>
<g>
	<g>
		<rect x="88" y="184" width="16" height="128"/>
	</g>
</g>
<g>
	<g>
		<path d="M288,32C288,32,288,32,288,32h-96c-4.4,0-8,3.6-8,8c0,0,0,0,0,0v64c0,4.4,3.6,8,8,8c0,0,0,0,0,0h96c4.4,0,8-3.6,8-8
			c0,0,0,0,0,0V40C296,35.6,292.4,32,288,32z M280,96h-80V48h80V96z"/>
	</g>
</g>
</svg>
