<?xml version="1.0" encoding="utf-8"?>
<!-- Generator: Adobe Illustrator 21.0.2, SVG Export Plug-In . SVG Version: 6.00 Build 0)  -->
<svg version="1.1" id="Layer_1" xmlns="http://www.w3.org/2000/svg" xmlns:xlink="http://www.w3.org/1999/xlink" x="0px" y="0px"
	 viewBox="0 0 512 512" style="enable-background:new 0 0 512 512;" xml:space="preserve">
<g>
	<g>
		<path d="M494.9,38.4H85.3c-9.4,0-17.1,7.7-17.1,17.1v17.1H51.2c-9.4,0-17.1,7.7-17.1,17.1v17.1H17.1c-9.4,0-17.1,7.7-17.1,17.1
			v332.8c0,9.4,7.7,17.1,17.1,17.1h409.6c9.4,0,17.1-7.7,17.1-17.1v-17.1h17.1c9.4,0,17.1-7.7,17.1-17.1v-17.1h17.1
			c9.4,0,17.1-7.7,17.1-17.1V55.5C512,46.1,504.3,38.4,494.9,38.4z M17.1,123.7h409.6l0,190.6l-44.8-51.2c-3.3-3.7-9.6-3.7-12.9,0
			L315,325L167.8,194.2c-3.2-2.9-8.1-2.9-11.3,0L17.1,318.1V123.7z M426.7,431v25.5H17.1V340.9l145.1-128.9l147.9,131.5
			c1.7,1.5,3.9,2.2,6.2,2.1c2.3-0.1,4.4-1.2,5.9-2.9l53.3-60.9l51.2,58.5l0,90.6C426.7,430.9,426.7,430.9,426.7,431
			C426.7,431,426.7,431,426.7,431z M460.8,422.4h-17.1V123.7c0-9.4-7.7-17.1-17.1-17.1H51.2V89.6h409.6L460.8,422.4L460.8,422.4z
			 M494.9,388.3h-17.1V89.6c0-9.4-7.7-17.1-17.1-17.1H85.3V55.5h409.6V388.3z"/>
	</g>
</g>
<g>
	<g>
		<path d="M307.2,174.9c-18.8,0-34.1,15.3-34.1,34.1s15.3,34.1,34.1,34.1s34.1-15.3,34.1-34.1S326,174.9,307.2,174.9z M307.2,226.1
			c-9.4,0-17.1-7.7-17.1-17.1c0-9.4,7.7-17.1,17.1-17.1s17.1,7.7,17.1,17.1C324.3,218.5,316.6,226.1,307.2,226.1z"/>
	</g>
</g>
</svg>
