<?xml version="1.0" encoding="utf-8"?>
<!-- Generator: Adobe Illustrator 21.0.2, SVG Export Plug-In . SVG Version: 6.00 Build 0)  -->
<svg version="1.1" id="Capa_1" xmlns="http://www.w3.org/2000/svg" xmlns:xlink="http://www.w3.org/1999/xlink" x="0px" y="0px"
	 viewBox="0 0 480 480" style="enable-background:new 0 0 480 480;" xml:space="preserve">
<g>
	<g>
		<path d="M406.6,111.9c-4.4-12.5-18.1-19-30.6-14.6s-19,18.1-14.6,30.6c2.4,6.8,7.8,12.2,14.6,14.6V184h16v-41.5
			C404.5,138.1,411,124.4,406.6,111.9z M384,128c-4.4,0-8-3.6-8-8c0-4.4,3.6-8,8-8c4.4,0,8,3.6,8,8S388.4,128,384,128z"/>
	</g>
</g>
<g>
	<g>
		<path d="M260.8,201.3c-2.8-0.9-5.8-1.4-8.8-1.3h-24c-15.5,0-28,12.5-28,28s12.5,28,28,28h24c7.4,0,14.5-2.9,19.8-8.2l0,0l0,0
			c0.6-0.6,1-1.3,1.5-1.9c0.7-0.8,1.3-1.5,1.9-2.4l0.1-0.2c1.5-2.3,2.6-4.8,3.3-7.4C283.3,221.5,275.3,205.9,260.8,201.3z
			 M260.5,236.5c-2.3,2.2-5.3,3.5-8.5,3.5h-24c-6.6,0-12-5.4-12-12s5.4-12,12-12h24c6.6,0,12,5.4,12,12
			C264,231.2,262.7,234.3,260.5,236.5z"/>
	</g>
</g>
<g>
	<g>
		<path d="M240,0C107.5,0,0,107.5,0,240s107.5,240,240,240s240-107.5,240-240C479.9,107.5,372.5,0.2,240,0z M279.6,19.6
			c91.9,16.7,163.9,88.5,180.7,180.4H359.6c-8.7,0-15.7-7.1-15.6-15.7c0-0.1,0-0.3,0-0.4c0-17.6-14.3-31.8-31.8-31.8h-64.3
			c-8.8-0.1-15.9-7.3-15.8-16.2c0.1-8.7,7.1-15.8,15.8-15.8h24.3c17.7,0,32-14.3,32-32s-14.3-32-32-32H256c-4.4,0-8-3.6-8-8
			c0-2.2,0.9-4.2,2.5-5.7c1.5-1.5,3.5-2.3,5.5-2.3C267.8,40,277.9,31.3,279.6,19.6z M16,240c0-45.8,14-90.5,40.3-128h24.5
			c4.3,0.3,7.5,4.1,7.2,8.3c0.2,13.1,10.9,23.6,24,23.7h24v8h16v-8h4c11,0,20,9,20,20s-9,20-20,20h-12.8c-13,0.3-23.4,11-23.2,24.1
			c0,0,0,0,0,0c-0.1,4.4-3.6,7.9-8,7.9H72c-13.2,0-24,10.8-24,24v15.8c0,4.4-3.6,8-8,8c0,0,0,0-0.1,0l-22.7-0.2
			C16.4,255.8,16,247.9,16,240z M136,88c0-4.4,3.6-8,8-8s8,3.6,8,8s-3.6,8-8,8C139.6,96,136,92.4,136,88z M288,458.8
			c-85,18.7-173.1-13.6-225.8-82.8H88v8h16v-8h12c2.2,0,4,1.8,4,4c0,11,9,20,20,20h40c11,0,20-9,20-20v-16c0-11,9-20,20-20
			s20,9,20,20v40c0,11,9,20,20,20h24c2.2,0,4,1.8,4,4V458.8z M88,320c0-4.4,3.6-8,8-8s8,3.6,8,8s-3.6,8-8,8
			C91.6,328,88,324.4,88,320z M304,454.6V428c0-11-9-20-20-20h-24c-2.2,0-4-1.8-4-4v-40c0-19.9-16.1-36-36-36s-36,16.1-36,36v16
			c0,2.2-1.8,4-4,4h-40c-2.2,0-4-1.8-4-4c0-11-9-20-20-20h-12v-17.5c12.5-4.4,19-18.1,14.6-30.6c-4.4-12.5-18.1-19-30.6-14.6
			c-12.5,4.4-19,18.1-14.6,30.6c2.4,6.8,7.8,12.2,14.6,14.6V360H51c-15.6-24.5-26.3-51.8-31.4-80.4l20.2,0.2H40
			c13.2,0,24-10.7,24-24V240c0-4.4,3.6-8,8-8h40c13.1-0.1,23.8-10.6,24-23.7c-0.3-4.3,2.9-8,7.2-8.3H156c19.9,0,36-16.1,36-36
			s-16.1-36-36-36h-4v-17.5c12.5-4.4,19-18.1,14.6-30.6c-4.4-12.5-18.1-19-30.6-14.6c-12.5,4.4-19,18.1-14.6,30.6
			c2.4,6.8,7.8,12.2,14.6,14.6V128h-24c-4.4,0-7.9-3.5-8-7.9c0.3-13.1-10.1-23.8-23.2-24.1H68.6c47.9-57.1,121-86.7,195.1-78.7
			c-0.5,3.9-3.8,6.7-7.7,6.7c-13.2,0.1-23.9,10.8-24,24c0,13.2,10.8,24,24,24h16.2c8.8,0.1,15.9,7.3,15.8,16.2
			c-0.1,8.7-7.1,15.8-15.8,15.8h-24.3c-17.7,0-32,14.3-32,32s14.3,32,32,32h64.3c8.8,0.1,15.9,7.3,15.9,16.2c0,0.1,0,0.2,0,0.3
			c-0.1,17.4,14,31.5,31.3,31.5c0.1,0,0.1,0,0.2,0h103.2c0.9,8,1.3,16,1.3,24h-20.7c-5.1,0-9.9,2-13.5,5.6
			c-3.7,3.7-5.8,8.7-5.8,13.9v25.4c0,1.8-1.4,3.2-3.2,3.2h-1.6c-10.6,0-19.2,8.6-19.2,19.2v25.6c0,1.8-1.4,3.2-3.2,3.2H360v-17.5
			c12.5-4.4,19-18.1,14.6-30.6c-4.4-12.5-18.1-19-30.6-14.6c-12.5,4.4-19,18.1-14.6,30.6c2.4,6.8,7.8,12.2,14.6,14.6V336h-12.8
			c-10.6,0-19.2,8.6-19.2,19.2v33.6c0,10.6,8.6,19.2,19.2,19.2h56.7C363.7,429.4,335,445.3,304,454.6z M352,304c-4.4,0-8-3.6-8-8
			s3.6-8,8-8s8,3.6,8,8C360,300.4,356.4,304,352,304z M404.3,392h-73.1c-1.8,0-3.2-1.4-3.2-3.2v-33.6c0-1.8,1.4-3.2,3.2-3.2H344v8
			h16v-8h36.8c10.6,0,19.2-8.6,19.2-19.2v-25.6c0-1.8,1.4-3.2,3.2-3.2h1.6c10.6,0,19.2-8.6,19.2-19.2v-25.4c0-0.9,0.4-1.8,1-2.5
			c0.6-0.6,1.5-1,2.4-0.9h19.9C459.8,306.7,438.9,354.7,404.3,392z"/>
	</g>
</g>
</svg>
