<?xml version="1.0" encoding="utf-8"?>
<!-- Generator: Adobe Illustrator 21.0.2, SVG Export Plug-In . SVG Version: 6.00 Build 0)  -->
<svg version="1.1" id="Layer_1" xmlns="http://www.w3.org/2000/svg" xmlns:xlink="http://www.w3.org/1999/xlink" x="0px" y="0px"
	 viewBox="0 0 2503 595.6" style="enable-background:new 0 0 2503 595.6;" xml:space="preserve">
<style type="text/css">
	.st0{fill:#F5D3A5;}
</style>
<path class="st0" d="M759.6,364c-171,47.5-335.7,120.5-498.4,222.6c-1.7,1.1-2.2,3.5-1.1,5.2l0,0c1.1,1.7,3.6,2.1,5.3,1
	c143.2-72.3,313.4-131.5,494.2-172.1L759.6,364"/>
<path class="st0" d="M1507.7,589.8h70.2L1314.2,0.5h-17.6l-253.3,589.7h44.9L1289,75.5L1507.7,589.8 M832.8,256.4v196.7h-58.7V265
	L611.2,12.6h64.1l135.2,230.1l140-230.1h43.6L832.8,256.4 M310.5,453.1V231.2h-252v221.9H1V12.3h57.5v189.1h252V12.3h57.6v440.8
	H310.5 M1991.2,41.9V12.2h-351.3v29.7h147V453h58V41.9H1991.2 M2500.7,41.9V12.2H2178v29.7h132.7V453h58V41.9H2500.7"/>
<path class="st0" d="M1859.6,432.8c151.4,39.6,292.1,93,415.6,155.4c1.7,1.1,4,0.7,5.1-1c1.1-1.6,0.6-3.8-1-4.9c0,0-0.1,0-0.1-0.1
	c-139.3-87.4-276.6-154.3-419.6-201.6V432.8 M1494.9,368.8c93.3,8.6,186,23,277.5,43.1v-57.4c-100.8-27.1-203.8-44.9-307.9-53.2
	L1494.9,368.8 M1152.4,298.9c-104.4,6.6-205.9,20.8-305.1,43.1v60.5c91.3-17.2,183.6-29.4,276.3-36.4L1152.4,298.9 M1192.8,361.9
	c34.3-1.6,68.4-2.4,102.4-2.4c33.2,0,66.4,0.8,99.3,2.4l-27.5-66.2c-24.1-0.8-48.1-1.2-72.2-1.2c-25.5,0-50.8,0.4-75.9,1.2
	L1192.8,361.9"/>
</svg>
