<?xml version="1.0" encoding="utf-8"?>
<!-- Generator: Adobe Illustrator 21.0.2, SVG Export Plug-In . SVG Version: 6.00 Build 0)  -->
<svg version="1.1" id="Layer_1" xmlns="http://www.w3.org/2000/svg" xmlns:xlink="http://www.w3.org/1999/xlink" x="0px" y="0px"
	 viewBox="0 0 54.4 52" style="enable-background:new 0 0 54.4 52;" xml:space="preserve">
<style type="text/css">
	.st0{fill:#212121;}
</style>
<path class="st0" d="M12.4,16.9V52H0.7V16.9H12.4z M13.1,6.1c0,1.7-0.6,3.2-1.8,4.3s-2.8,1.7-4.8,1.7H6.4c-1.9,0-3.5-0.6-4.7-1.7
	s-1.8-2.6-1.8-4.3c0-1.7,0.6-3.2,1.8-4.3c1.2-1.1,2.8-1.7,4.8-1.7s3.5,0.6,4.7,1.7C12.5,2.9,13.1,4.3,13.1,6.1z M54.4,31.9V52H42.7
	V33.2c0-2.5-0.5-4.4-1.4-5.8c-1-1.4-2.5-2.1-4.5-2.1c-1.5,0-2.7,0.4-3.7,1.2c-1,0.8-1.8,1.8-2.2,3c-0.3,0.7-0.4,1.7-0.4,2.9V52H18.8
	c0-9.4,0.1-17.1,0.1-22.9c0-5.9,0-9.4,0-10.5v-1.7h11.7V22h-0.1c0.5-0.8,1-1.4,1.5-2s1.2-1.2,2-1.8s1.9-1.2,3.1-1.5s2.6-0.5,4.1-0.5
	c4,0,7.3,1.3,9.7,4S54.4,26.7,54.4,31.9z"/>
</svg>
