<?xml version="1.0" encoding="utf-8"?>
<!-- Generator: Adobe Illustrator 21.0.2, SVG Export Plug-In . SVG Version: 6.00 Build 0)  -->
<svg version="1.1" id="Layer_1" xmlns="http://www.w3.org/2000/svg" xmlns:xlink="http://www.w3.org/1999/xlink" x="0px" y="0px"
	 viewBox="0 0 101.1 102" style="enable-background:new 0 0 101.1 102;" xml:space="preserve">
<style type="text/css">
	.st0{display:none;}
	.st1{display:inline;fill:#54504F;}
	.st2{display:inline;fill:#0A0B0A;}
	.st3{fill:none;stroke:#FFFFFF;stroke-width:2;stroke-miterlimit:10;}
	.st4{fill:#FFFFFF;}
</style>
<rect x="-530" y="-1817" class="st0" width="1199" height="3751.1"/>
<g class="st0">
	<rect class="st1" width="102" height="102"/>
	<rect x="102" class="st2" width="102" height="102"/>
	<rect x="204" class="st1" width="102" height="102"/>
	<rect x="306" class="st2" width="102" height="102"/>
	<rect x="408" class="st1" width="102" height="102"/>
	<rect x="510" class="st2" width="102" height="102"/>
	<rect x="612" class="st1" width="102" height="102"/>
</g>
<circle class="st3" cx="50.7" cy="51" r="50"/>
<path class="st4" d="M75.1,40.7c-0.7-0.7-1.7-1.1-2.7-1.1c-0.2,0-0.3,0-0.5,0c-0.1-0.2-0.2-0.3-0.3-0.4L60.4,28
	c-0.1-0.1-0.3-0.2-0.4-0.3c0-0.2,0-0.3,0-0.5c0-1-0.4-2-1.1-2.7l-0.1-0.1c-0.7-0.7-1.6-1.1-2.6-1.1l0,0c-0.7,0-1.5,0.2-2.2,0.6
	C50.3,26,45.6,30.7,42.8,35c-1,1.6-0.9,3.6,0.4,4.9l0.1,0.1c0.7,0.7,1.7,1.1,2.7,1.1c0.1,0,0.1,0,0.2,0c0.1,0.2,0.2,0.5,0.4,0.6
	l2.4,2.4l-21.6,19c-1.3,1.1-2,2.7-2,4.4c0,1.4,0.4,2.7,1.2,3.8c0.1,0.1,0.2,0.2,0.3,0.3c0.1,0.1,0.2,0.3,0.4,0.4
	c0.2,0.2,0.3,0.3,0.4,0.4s0.2,0.2,0.3,0.3c1.1,0.8,2.4,1.2,3.7,1.2h0.1c1.7,0,3.3-0.8,4.4-2l19.2-21.5l2.4,2.4
	c0.2,0.2,0.4,0.3,0.6,0.4c0,0.1,0,0.1,0,0.2c0,1,0.4,2,1.1,2.7l0.1,0.1c0.7,0.7,1.6,1.1,2.6,1.1c0.8,0,1.6-0.2,2.3-0.7
	c4.4-2.8,9.1-7.5,11.2-11.2c0.9-1.7,0.8-3.5-0.5-4.8L75.1,40.7z M44.7,38.5c-0.6-0.6-0.6-1.5-0.1-2.2c2.7-4.2,7.1-8.6,10.5-10.4
	c0.4-0.2,0.8-0.3,1.1-0.3c0.4,0,0.8,0.1,1.1,0.4l0.1,0.1c0.5,0.5,0.6,1.1,0.4,1.7c-0.1,0.2-0.2,0.5-0.4,0.6L47.2,38.6
	c-0.2,0.2-0.5,0.3-0.7,0.4c-0.2,0-0.3,0.1-0.5,0.1C45.6,39.1,45.1,38.9,44.7,38.5L44.7,38.5z M34.6,70.7c-0.7,0.8-1.8,1.3-2.9,1.3
	h-0.1c-0.9,0-1.7-0.3-2.4-0.8c-0.1-0.2-0.4-0.3-0.5-0.5c-0.2-0.1-0.3-0.3-0.5-0.5c-0.5-0.7-0.8-1.6-0.8-2.5c0-1.1,0.5-2.2,1.3-2.9
	l21.7-19.1l3.4,3.4L34.6,70.7z M55.9,48.1l-4.4-4.4l-3.2-3.2c0.2-0.1,0.3-0.2,0.4-0.4l10.2-10.2c0.1-0.1,0.1-0.1,0.2-0.2L70,40.6
	c-0.1,0.1-0.1,0.1-0.2,0.2L59.5,50.9c-0.1,0.1-0.3,0.3-0.4,0.4L55.9,48.1z M73.8,44.6c-1.9,3.3-6.3,7.8-10.5,10.4
	c-0.4,0.2-0.7,0.3-1.1,0.3c-0.4,0-0.8-0.1-1.1-0.5H61c-0.4-0.4-0.6-1.1-0.4-1.7c0.1-0.3,0.2-0.5,0.4-0.7l10.2-10.2
	c0.2-0.2,0.4-0.3,0.6-0.4c0.2-0.1,0.4-0.1,0.5-0.1c0.4,0,0.9,0.2,1.2,0.5l0.1,0.1C74.3,42.9,74.3,43.8,73.8,44.6z"/>
<path class="st4" d="M71.8,65.7c-0.2-0.2-0.3-0.3-0.5-0.4c-0.1-0.3-0.2-0.6-0.4-0.9l-1.1-1.3c-0.4-0.4-0.9-0.6-1.4-0.6H48.6
	c-0.5,0-1.1,0.2-1.4,0.6L46,64.4c-0.2,0.3-0.4,0.6-0.4,0.9c-0.2,0.1-0.4,0.2-0.5,0.4l-1.4,1.4c-0.4,0.4-0.6,0.8-0.6,1.3v3.8
	c0,1.1,0.9,1.9,1.9,1.9h26.9c1.1,0,1.9-0.9,1.9-1.9v-3.8c0-0.5-0.2-1-0.6-1.3L71.8,65.7z M71.9,72.2H45v-3.8l1.4-1.4h1.1v-1.3
	l1.1-1.3h19.7l1.1,1.3V67h1.1l1.4,1.4V72.2z"/>
</svg>
