<?xml version="1.0" encoding="utf-8"?>
<!-- Generator: Adobe Illustrator 21.0.2, SVG Export Plug-In . SVG Version: 6.00 Build 0)  -->
<svg version="1.1" id="Layer_1" xmlns="http://www.w3.org/2000/svg" xmlns:xlink="http://www.w3.org/1999/xlink" x="0px" y="0px"
	 viewBox="0 0 135.2 89.9" style="enable-background:new 0 0 135.2 89.9;" xml:space="preserve">
<style type="text/css">
	.st0{fill:#FFFFFF;}
</style>
<path class="st0" d="M131.9,36.8c-2.2-2.3-5.1-3.5-8.4-3.6c-4,0-8.3,1.9-11.3,5c-3.8,4-6.3,9-7.3,14.4c0,0.1-0.1,0.3-0.1,0.4
	c-2,11.5,0.3,23.6,4.4,34.5c0.6,1.5,2,2.4,3.5,2.4c0.4,0,0.9-0.1,1.3-0.2c1.9-0.7,2.9-2.8,2.2-4.8c-0.8-2-1.5-4.2-2.1-6.4
	c-0.3-1-0.5-2-0.8-3.1c7.4-4.2,15.6-11.5,19.3-19.3C136.3,48.4,136.1,41.3,131.9,36.8z M125.9,53.1c-1.4,2.9-3.7,5.8-7.1,8.8
	c-0.5,0.4-1,0.9-1.5,1.4c-1.8,1.6-3.6,3.2-5.4,4.5c-0.5-4-0.5-8.3,0.2-12.7c0-0.2,0.1-0.3,0.1-0.5c0.6-4.2,2.5-8,5.5-11.1
	c1.5-1.6,3.9-2.7,5.9-2.7c1.2,0,2.2,0.4,3,1.2C128.8,44.3,127.7,49.3,125.9,53.1z"/>
<path class="st0" d="M93.4,74.1c-4.7,0.2-11-0.4-14.9-4.4c7.6-7.9,13.4-18.2,17.2-26.1c4.8-10.2,8.2-20.3,9-25.1
	C106.4,9.3,104,2.8,98,0.7c-5.6-2-12,0.6-15.5,4.3c-1.3,1.3-2.4,2.8-3.4,4.3C76,14.2,71.5,25,68.7,36.4c-2,8.4-3.5,17.4-2.1,26
	c0.8,5.1,3.7,10,7.7,13.4c4.3,3.7,10.2,5.7,17.5,5.7c0.7,0,1.3,0,2,0c2.9-0.1,6.2-0.8,9.5-1.9c-0.5-2-1.1-4.8-1.5-7.3
	C98.9,73.3,95.9,74,93.4,74.1z M75.9,38.2c2.6-10.5,6.8-20.7,9.4-24.9c0.7-1.1,1.6-2.2,2.5-3.2c1.8-1.9,5.2-3.3,7.6-2.5
	c3.3,1.2,2.3,7.6,1.9,9.6l0,0l0,0c-0.6,3.3-3.3,12.6-8.4,23.2c-3.3,6.9-8.3,16-14.7,23C72.9,57.1,73.5,48.3,75.9,38.2z"/>
<ellipse class="st0" cx="18.3" cy="25.7" rx="3.7" ry="3.7"/>
<path class="st0" d="M54.3,74.1c-4.1,0.2-9.5-0.3-13.4-3.1c0.4-0.3,0.9-0.6,1.3-0.9c5.5-3.9,9.7-8.8,12.2-14
	c3.8-7.9,3.5-15-0.7-19.4c-2.2-2.3-5.1-3.5-8.4-3.6l0,0c-4,0-8.3,1.9-11.3,5c-2.1,2.2-4.1,5.1-5.4,7.9c-2.5,5.5-3.2,12-1.7,17.9
	c2.9,11.4,14.6,17.6,25.7,17.6c0.7,0,1.3,0,2,0c5.8-0.3,11.3-2,15.8-4.9c-1.8-1.8-3.3-3.8-4.4-6C62.7,72.6,58.5,73.9,54.3,74.1z
	 M35.6,65.6c-2.2-3.6-2.1-7.8-1.8-10.3c0-0.1,0-0.3,0.1-0.4c0.1-0.2,0.1-0.4,0.1-0.5c0.6-4.2,2.5-8,5.5-11.1
	c1.5-1.6,3.9-2.7,5.9-2.7l0,0c1.2,0,2.2,0.4,3,1.2c2.3,2.4,1.2,7.4-0.6,11.2c-1.9,4.1-5.3,7.9-9.8,11.1
	C37.1,64.6,36.3,65.2,35.6,65.6z"/>
<path class="st0" d="M26.4,70.9L26.3,71c-3.4,1.8-7.2,3.2-10.6,3.2c-0.9,0-1.7-0.1-2.5-0.3c-6.1-1.5-6-10.2-5.6-13.9
	c0.6-6.7,3.4-14,8.1-21.1c1.1-1.7,0.7-4-1-5.1s-4-0.7-5.1,1C4.2,42.9,1,51.3,0.2,59.3C-0.9,70.9,3.3,79,11.4,81
	c1.4,0.4,2.9,0.5,4.3,0.5c5.4,0,10.9-2.3,15.4-4.8c0.1,0,0.1-0.1,0.2-0.1C29.2,75.1,27.6,73.1,26.4,70.9z"/>
</svg>
