<?xml version="1.0" encoding="utf-8"?>
<!-- Generator: Adobe Illustrator 21.0.2, SVG Export Plug-In . SVG Version: 6.00 Build 0)  -->
<svg version="1.1" id="Capa_1" xmlns="http://www.w3.org/2000/svg" xmlns:xlink="http://www.w3.org/1999/xlink" x="0px" y="0px"
	 viewBox="0 0 496 496" style="enable-background:new 0 0 496 496;" xml:space="preserve">
<path d="M248,128c-66.2,0-120,53.8-120,120s53.8,120,120,120s120-53.8,120-120S314.2,128,248,128z M224.6,146.8
	c-6.7,7.3-14.2,16.9-21,28.8c-8.7-3.6-14.8-7.6-18.3-10.2C196.7,156.5,210.1,150.1,224.6,146.8z M173.1,176.1
	c3.8,3.1,11.5,8.8,23.2,13.8c-6.3,14.3-10.9,31.1-11.9,50.1h-40C146.3,215.3,156.8,193,173.1,176.1z M144.4,256h40
	c1,19.1,5.6,35.8,11.9,50.1c-11.7,5-19.5,10.7-23.2,13.8C156.8,303,146.3,280.7,144.4,256z M185.2,330.7c3.5-2.6,9.6-6.6,18.3-10.2
	c6.8,11.8,14.3,21.4,21,28.8C210.1,345.9,196.7,339.5,185.2,330.7z M240,342.2c-6.2-6.4-13.8-15.4-20.7-26.8
	c6.2-1.5,13.1-2.6,20.7-3.1V342.2z M240,256v40.2c-10.7,0.6-20.2,2.3-28.4,4.6c-5.8-12.8-10.1-27.8-11.2-44.8L240,256L240,256z
	 M240,240h-39.6c1.1-17,5.4-32,11.2-44.8c8.2,2.3,17.7,4,28.4,4.6V240z M240,183.8c-7.6-0.5-14.5-1.6-20.7-3.1
	c6.9-11.4,14.5-20.4,20.7-26.8V183.8z M351.6,240h-40c-1-19.1-5.6-35.8-11.9-50.1c11.7-5,19.5-10.7,23.2-13.8
	C339.1,193,349.7,215.3,351.6,240z M310.8,165.3c-3.5,2.6-9.6,6.6-18.3,10.2c-6.8-11.8-14.3-21.4-21-28.8
	C285.9,150.1,299.3,156.5,310.8,165.3z M256,153.8c6.2,6.4,13.8,15.4,20.7,26.8c-6.2,1.5-13.1,2.6-20.7,3.1V153.8z M256,199.8
	c10.7-0.6,20.2-2.3,28.4-4.6c5.8,12.8,10.1,27.8,11.2,44.8H256V199.8z M256,256h39.6c-1.1,17-5.4,32-11.2,44.8
	c-8.2-2.3-17.7-4-28.4-4.6V256z M256,312.2c7.6,0.5,14.5,1.6,20.7,3.1c-6.9,11.4-14.5,20.4-20.7,26.8V312.2z M271.4,349.2
	c6.7-7.3,14.3-16.9,21-28.8c8.7,3.6,14.8,7.6,18.3,10.2C299.3,339.5,285.9,345.9,271.4,349.2z M322.9,319.9
	c-3.8-3.1-11.5-8.8-23.2-13.8c6.3-14.3,10.9-31.1,11.9-50.1h40C349.7,280.7,339.2,303,322.9,319.9z"/>
<path d="M456,208c-2,0-4,0.3-6,0.6l-29-78.7c11.3-7.1,19-19.6,19-33.9c0-22.1-17.9-40-40-40c-14.3,0-26.8,7.6-33.9,19l-78.7-29
	c0.3-2,0.6-3.9,0.6-6c0-22.1-17.9-40-40-40s-40,17.9-40,40c0,2,0.3,4,0.6,6l-78.7,29c-7.1-11.3-19.6-19-33.9-19
	c-22.1,0-40,17.9-40,40c0,14.3,7.6,26.8,19,33.9l-29,78.7c-2-0.3-3.9-0.6-6-0.6c-22.1,0-40,17.9-40,40s17.9,40,40,40
	c2,0,4-0.3,6-0.6l29,78.7c-11.3,7.1-19,19.6-19,33.9c0,22.1,17.9,40,40,40c14.3,0,26.8-7.6,33.9-19l78.7,29c-0.3,2-0.6,3.9-0.6,6
	c0,22.1,17.9,40,40,40s40-17.9,40-40c0-2-0.3-4-0.6-6l78.7-29c7.1,11.3,19.6,19,33.9,19c22.1,0,40-17.9,40-40
	c0-14.3-7.6-26.8-19-33.9l29-78.7c2,0.3,3.9,0.6,6,0.6c22.1,0,40-17.9,40-40S478.1,208,456,208z M400,72c13.2,0,24,10.8,24,24
	s-10.8,24-24,24s-24-10.8-24-24S386.8,72,400,72z M248,16c13.2,0,24,10.8,24,24s-10.8,24-24,24s-24-10.8-24-24S234.8,16,248,16z
	 M72,96c0-13.2,10.8-24,24-24s24,10.8,24,24s-10.8,24-24,24S72,109.2,72,96z M40,272c-13.2,0-24-10.8-24-24s10.8-24,24-24
	s24,10.8,24,24S53.2,272,40,272z M96,424c-13.2,0-24-10.8-24-24s10.8-24,24-24s24,10.8,24,24S109.2,424,96,424z M248,480
	c-13.2,0-24-10.8-24-24s10.8-24,24-24s24,10.8,24,24S261.2,480,248,480z M424,400c0,13.2-10.8,24-24,24s-24-10.8-24-24
	s10.8-24,24-24S424,386.8,424,400z M406,360.6c-2-0.3-3.9-0.6-6-0.6c-8.1,0-15.7,2.5-22,6.7l-22.5-22.5l-11.3,11.3l22.5,22.5
	c-4.2,6.3-6.7,13.9-6.7,22c0,2,0.3,4,0.6,6l-78.7,29c-5.7-9.2-14.9-16-25.9-18.2V392h-16v24.8c-10.9,2.2-20.2,9-25.9,18.2l-78.7-29
	c0.3-2,0.6-3.9,0.6-6c0-8.1-2.5-15.7-6.7-22l22.5-22.5l-11.3-11.3L118,366.7c-6.3-4.2-13.9-6.7-22-6.7c-2,0-4,0.3-6,0.6l-29-78.7
	c9.2-5.7,16-14.9,18.2-25.9H104v-16H79.2c-2.2-10.9-9-20.2-18.2-25.9l29-78.7c2,0.3,3.9,0.6,6,0.6c8.1,0,15.7-2.5,22-6.7l22.5,22.5
	l11.3-11.3L129.3,118c4.2-6.3,6.7-13.9,6.7-22c0-2-0.3-4-0.6-6l78.7-29c5.7,9.2,14.9,16,25.9,18.2V104h16V79.2
	c10.9-2.2,20.2-9,25.9-18.2l78.7,29c-0.3,2-0.6,3.9-0.6,6c0,8.1,2.5,15.7,6.7,22l-22.5,22.5l11.3,11.3l22.5-22.5
	c6.3,4.2,13.9,6.7,22,6.7c2,0,4-0.3,6-0.6l29,78.7c-9.2,5.7-16,14.9-18.2,25.9H392v16h24.8c2.2,10.9,9,20.2,18.2,25.9L406,360.6z
	 M456,272c-13.2,0-24-10.8-24-24s10.8-24,24-24s24,10.8,24,24S469.2,272,456,272z"/>
</svg>
