<?xml version="1.0" encoding="utf-8"?>
<!-- Generator: Adobe Illustrator 21.0.2, SVG Export Plug-In . SVG Version: 6.00 Build 0)  -->
<svg version="1.1" id="Layer_1" xmlns="http://www.w3.org/2000/svg" xmlns:xlink="http://www.w3.org/1999/xlink" x="0px" y="0px"
	 viewBox="0 0 326.6 46.5" style="enable-background:new 0 0 326.6 46.5;" xml:space="preserve">
<style type="text/css">
	.st0{fill:#FFFFFF;}
</style>
<path class="st0" d="M25.1,5.7c0-3.6-3.4-4.7-6.3-4.6v0.3c1.7,0.1,3,0.8,3,2c0,0.8-0.6,1.8-2.3,1.8c-2-0.2-3.9-0.8-5.7-1.5
	c-2-0.8-4.2-1.3-6.3-1.5C4.2,2.1,1.4,4.7,1.2,8v0.1c0,1.8,1.2,3.4,2.9,3.9v-0.1c-0.6-0.4-1-1.1-0.9-1.9c0-1.3,1.1-2.3,2.3-2.3
	c0.1,0,0.1,0,0.2,0C8,8,10.3,8.5,12.4,9.3c2.2,0.7,4.4,1.2,6.7,1.5v5.8l-2.8,2.3l2.8,2.4v8c-1.4,0.8-3,1.2-4.6,1.2
	c-2.7,0.1-5.3-1-7.1-3l7.6-3.7V11.2l-9.2,4.1c0.9-2.3,2.6-4.2,4.7-5.5V9.7C5,11.2,0.1,16.2,0.1,22.4c-0.1,7.1,5.6,12.9,12.7,13h0.1
	c6.3,0.1,11.6-4.9,11.7-11.2c0-0.3,0-0.5,0-0.8h-0.1c-1.1,2.4-2.8,4.4-5,5.7v-7.8l2.9-2.4l-2.9-2.3v-5.8c2.9,0.2,5.3-2.1,5.5-4.9
	C25,5.8,25,5.7,25.1,5.7L25.1,5.7z M9.5,26.2l-2.1,1.2c-1.5-2.1-2.3-4.6-2.2-7.2c0-1.4,0.2-2.9,0.6-4.2l3.8-1.7L9.5,26.2L9.5,26.2z
	 M44.1,16l-1.4,1.2l-4.4-3.9l-5.1,3.9V2l-6.9,4.8c1.2,0.3,1.9,1.4,1.8,2.5v21l-2.4,1.8l0.2,0.2l1.2-0.8l4.1,3.8l5.5-3.7l-0.2-0.3
	l-1.4,0.9l-1.9-1.9V17.7l1.3-1l3,2.6v11c0,7-1.5,8.4-4.7,9.5V40c5.2,0.2,9.9-1.5,9.9-10.5v-12l1.6-1.3L44.1,16L44.1,16z M53.4,35.1
	l8-6.4l-0.2-0.3L57,31.7l-4.8-3.8v-2.4l8.3-5.9l-4.2-6.5l-9.2,5.1v12.1l-1.8,1.4l0.2,0.3l1.7-1.3L53.4,35.1L53.4,35.1z M52.2,25.1
	v-9.2l4,6.3L52.2,25.1L52.2,25.1z M94.5,3.9c0-0.6-0.1-1.2-0.4-1.7H94c-0.6,1.5-1.2,2.4-3,2.4c-1.3-0.1-2.6-0.7-3.4-1.7L82.4,9
	l0.3,0.2l1.5-1.7c1.2,1.2,2.9,1.9,4.7,1.9v15.3L78,6.1c-0.8-1.4-2.3-3.5-4.7-3.5c-2.9,0-5.1,2.5-4.7,6.7h0.2
	c0.2-1.1,0.8-2.4,2.1-2.4c1,0,1.8,1,2.3,1.8v6c-3.3,0-5.2,1.5-5.2,4.2c0,1.8,1.3,3.4,3.1,3.8v-0.1c-0.4-0.3-0.6-0.7-0.6-1.2
	c0-1,0.7-1.6,2.1-1.6c0.2,0,0.4,0,0.7,0.1v7.8c-3.9,0-6.9,2.2-6.9,5.9c0,3.5,3,5.1,6.2,5v-0.1c-2-0.2-3-1.2-3-2.7
	c-0.1-1.3,0.9-2.4,2.2-2.4c0.1,0,0.3,0,0.4,0c1.4,0.1,2.6,0.8,3.4,2l5.2-5.9l-0.2-0.2l-1.3,1.5c-1.5-1.6-3.5-2.6-5.6-3V9.3
	l14.9,25.9h0.7V9.4C92.1,9.3,94.5,6.9,94.5,3.9L94.5,3.9z M99.5,35.1l8-6.4l-0.2-0.3l-4.2,3.3l-4.8-3.8v-2.4l8.3-5.9l-4.2-6.5
	l-9.2,5.1v12.1l-1.8,1.3l0.2,0.3l1.7-1.3L99.5,35.1L99.5,35.1z M98.3,25v-9.2l4,6.3L98.3,25z M136,15.2l-1.2,0.9l-3.5-3l-4.1,3.7
	l1.7,1.6v13.7l-4.2-2.8V18.1l1.4-1l-4.3-4l-4,3.7l1.7,1.6v13.3l-0.3,0.2l-3.9-2.8v-11c0-2.5-1.3-3.3-2.9-4.3
	c-1.3-0.8-2.1-1.6-2.1-2.9c0.1-1,0.7-1.8,1.6-2.2c-1.4,0-5.3,1.3-5.4,4.9c0,1.4,0.6,2.7,1.8,3.5c1.1,0.8,1.7,1.9,1.8,3.2V31
	l-1.9,1.5l0.2,0.2l1.8-1.4l4.7,3.8l4.5-3.1l4.9,3.1l9.6-5.7V17.1l2.1-1.7L136,15.2L136,15.2z M168.2,4.9l-1.8,1.7L162.3,3l-5.5,4.4
	V3.2h-0.4v30c-0.6-0.1-1.9-0.4-3.3-0.7V7.4c0-2.4-1.9-4.4-4.4-4.4c-0.1,0-0.2,0-0.2,0c-2.9,0-5.3,2.3-5.3,5.2h0.1
	c0.1-1.1,0.9-2,2-2.1c1.2,0,2.1,0.7,2.1,3.2v7.2c-3.1,0.1-5,2.1-5,4.2c-0.1,1.8,1.3,3.4,3.1,3.5V24c-0.8-0.4-1-0.7-1-1.2
	c0-1.1,1-1.4,2.4-1.4h0.4V33c-2.7,0.9-3.9,2.7-3.9,5c0,3.1,2.5,5.4,6.1,5.4c2.3,0,4.5-0.4,6.7-1c1.7-0.4,3.3-0.7,5-0.8
	c1.4,0,2,0.6,2,1.6c0,1.3-0.5,1.9-1.2,2.1v0.2c3-0.6,4.8-2.3,4.8-5s-2.7-4.5-5.6-4.5c-2.2,0.1-4.4,0.5-6.6,1
	c-1.8,0.4-3.7,0.7-5.5,0.8c-1.3,0-2.8-0.6-2.8-2.3c0-1.5,1.3-2.7,4.4-2.7c1.8,0,3.7,0.3,5.5,0.7c2.2,0.5,3.8,1.2,5.7,1.2
	c2.7,0,4.8-1,4.8-4.9V6.9l2-1.8l-0.2-0.3L168.2,4.9z M160.7,16.9c-0.5,0.6-1.2,1-2,1s-1.5-0.4-2-1V7.8l1.3-1.1l2.7,2.3V16.9
	L160.7,16.9z M160.7,21.2c-0.5-0.5-1.2-0.9-2-0.8c-0.8,0-1.5,0.3-2,0.8v-3.8c0.5,0.5,1.3,0.9,2,0.9c0.8,0,1.5-0.3,2-0.9V21.2z
	 M160.7,30.3c0,1.5-0.7,3.2-2.7,3.2c-0.3,0-1,0-1.3-0.1V21.7c0.5-0.6,1.3-0.9,2-0.9c0.8,0,1.5,0.3,2,0.9V30.3L160.7,30.3z
	 M176.3,35.1l8.9-5.6V17.3l-5.7-4.2l-8.9,5.1v12l-1.8,1.4l0.2,0.3l1.4-1.2L176.3,35.1L176.3,35.1z M175.6,28.8v-13l4.5,3.3V32
	L175.6,28.8L175.6,28.8z M202.3,13.4c-0.6,0.4-1.2,0.7-2,0.7s-1.5-0.4-2-1l-3.3,3.6l-3.3-3.6l-5.4,3.8l0.2,0.3l1.4-1l2,2.1v11.8
	l-2.4,1.8l0.2,0.2l1.2-0.8l4.4,3.8l5.6-3.7l-0.2-0.3l-1.4,0.9l-2.3-2.1V17c0.8,1.1,1.9,1.7,3.2,1.9C200.5,18.9,202,16.2,202.3,13.4
	L202.3,13.4L202.3,13.4z M223.4,30.8l-1.7,1.1l-9.2-13.8l0.5-0.7c1.1,0.9,2.5,1.4,3.8,1.4c1.9,0,4.4-2,4.6-5.7
	c-0.7,0.9-1.8,1.5-3,1.4c-1.1-0.1-2.2-0.6-3-1.4l-6.3,9.3l8.4,12.7l6.1-4L223.4,30.8L223.4,30.8z M212.2,31.2l-1.4,0.9l-1.9-1.9V1.9
	L202,6.7c1.2,0.3,1.9,1.4,1.8,2.5v21l-2.4,1.8l0.2,0.2l1.2-0.8l4.1,3.8l5.5-3.7L212.2,31.2L212.2,31.2z M252.9,5.7
	c0-3.6-3.4-4.7-6.3-4.6v0.3c1.7,0.1,3,0.8,3,2c0,0.8-0.6,1.8-2.3,1.8c-2-0.2-3.9-0.8-5.7-1.5c-2-0.8-4.2-1.3-6.3-1.5
	c-3.4-0.1-6.2,2.5-6.3,5.8v0.1c0,1.8,1.2,3.4,2.9,3.9v-0.1c-0.6-0.4-1-1.1-0.9-1.9c0-1.3,1.1-2.3,2.3-2.3c0.1,0,0.1,0,0.2,0
	c2.3,0.3,4.6,0.8,6.7,1.6c2.2,0.7,4.4,1.2,6.7,1.5v5.8l-2.8,2.3l2.8,2.4v8c-1.4,0.8-3,1.2-4.6,1.2c-2.7,0.1-5.3-1-7.1-3l7.6-3.7
	V11.2l-9.1,4.1c0.9-2.3,2.6-4.2,4.7-5.5V9.7c-5.5,1.5-10.5,6.5-10.5,12.7c-0.1,7.1,5.6,12.9,12.7,13h0.1c6.3,0.1,11.6-4.9,11.7-11.2
	c0-0.3,0-0.5,0-0.8h-0.1c-1.1,2.4-2.8,4.4-5,5.7v-7.8l2.9-2.4l-2.9-2.4v-5.8c2.9,0.2,5.3-2.1,5.5-4.9C252.9,5.8,252.9,5.7,252.9,5.7
	L252.9,5.7z M237.3,26.2l-2.1,1.2c-1.5-2.1-2.3-4.6-2.2-7.2c0-1.4,0.2-2.9,0.6-4.2l3.8-1.7L237.3,26.2L237.3,26.2z M258.5,4.3
	l-3.8,3.2l3.3,3.7l3.9-3.3L258.5,4.3L258.5,4.3z M264.3,31.2l-1.4,0.9l-1.9-1.9V17.4l1.6-1.3l-0.2-0.3l-1.3,1.1l-3.2-3.8l-5.2,3.7
	l0.2,0.3l1.3-0.9l1.8,2.2v11.7l-2.4,1.8l0.2,0.2l1.2-0.8l4.1,3.8l5.5-3.7L264.3,31.2L264.3,31.2z M293.9,31.1l-1.3,0.9l-2.1-2V17.5
	l1.7-1.3l-0.2-0.3l-1.5,1.2l-4.4-3.9l-5,3.8l-4.3-3.9l-4.9,3.8l-3.3-3.8l-5.2,3.7l0.2,0.3l1.3-0.9l1.9,2.1v11.8l-1.4,1.4l4.2,3.6
	l4.1-3.7l-1.7-1.6V17.3l1.2-0.8l3,2.6v11l-1.4,1.4l4.2,3.6l4-3.7l-1.7-1.6V17.3l1.1-0.8l3.1,2.7V30l-1.3,1.3l4.3,3.9l5.6-3.8
	L293.9,31.1L293.9,31.1z M309.1,28.4l-4.2,3.3l-4.8-3.8v-2.4l8.3-5.9l-4.2-6.5l-9.2,5.1v12.3l6.3,4.6l8-6.4L309.1,28.4L309.1,28.4z
	 M300.1,25.1v-9.2l4,6.3L300.1,25.1L300.1,25.1z M325.2,23.3l-3.6-2.8c2-1.6,3.1-4,3.2-6.6c0-0.3,0-0.7-0.1-1.2h-0.1
	c-0.4,1.1-1.5,1.8-2.7,1.7c-1.2-0.1-2.4-0.7-3.1-1.8l-8.1,4.5v6.7l3.1,2.5c-3.1,2.7-3.7,4.5-3.7,6.1s1,3.1,2.5,3.6l0.1-0.2
	c-0.5-0.3-0.8-0.8-0.7-1.4c0.1-1,1-1.7,2-1.6c1.4,0.1,2.6,0.8,3.4,1.9l7.8-4.8L325.2,23.3L325.2,23.3z M323.4,17.9
	c-1.2,2.2-3.9,4.3-5.5,5.6l-2-1.8v-6.4c0.7,1.9,2.5,3.1,4.5,3.2C321.4,18.6,322.5,18.3,323.4,17.9L323.4,17.9z M320,32.4
	c-0.9-2.1-2.8-3.5-5.1-3.6c-1.2-0.1-2.5,0.2-3.6,0.8c1.7-2.4,3.9-4.4,6.5-5.8l2.1,1.8L320,32.4L320,32.4z"/>
</svg>
