<?xml version="1.0" encoding="utf-8"?>
<!-- Generator: Adobe Illustrator 21.0.2, SVG Export Plug-In . SVG Version: 6.00 Build 0)  -->
<svg version="1.1" id="Layer_1" xmlns="http://www.w3.org/2000/svg" xmlns:xlink="http://www.w3.org/1999/xlink" x="0px" y="0px"
	 viewBox="0 0 1020 408" style="enable-background:new 0 0 1020 408;" xml:space="preserve">
<style type="text/css">
	.st0{display:none;}
	.st1{display:inline;fill:#565656;}
	.st2{display:inline;}
	.st3{fill:none;stroke:#FFFFFF;stroke-width:2;stroke-miterlimit:10;}
	.st4{fill:none;stroke:#FFFFFF;stroke-width:2;stroke-linecap:round;stroke-linejoin:round;stroke-miterlimit:22.9256;}
	.st5{fill:none;stroke:#FFFFFF;stroke-width:2;stroke-miterlimit:22.9256;}
	.st6{fill:none;stroke:#FFFFFF;stroke-width:2;}
	.st7{fill-rule:evenodd;clip-rule:evenodd;fill:none;stroke:#FFFFFF;stroke-width:2;stroke-miterlimit:22.9256;}
	.st8{fill:#FFFFFF;stroke:#FFFFFF;stroke-width:0.75;stroke-miterlimit:10;}
	.st9{fill:none;stroke:#FFFFFF;stroke-width:2;stroke-linejoin:round;stroke-miterlimit:10;}
</style>
<rect x="-530" y="-1817" class="st0" width="1199" height="3751.1"/>
<g class="st0">
	<rect x="0" class="st1" width="102" height="102"/>
	<rect x="102" class="st2" width="102" height="102"/>
	<rect x="204" class="st1" width="102" height="102"/>
	<rect x="306" class="st2" width="102" height="102"/>
	<rect x="408" class="st1" width="102" height="102"/>
	<rect x="510" class="st2" width="102" height="102"/>
	<rect x="612" class="st1" width="102" height="102"/>
	<rect x="714" class="st2" width="102" height="102"/>
	<rect x="816" class="st1" width="102" height="102"/>
	<rect x="918" class="st2" width="102" height="102"/>
	<rect x="0" y="102" class="st2" width="102" height="102"/>
	<rect x="102" y="102" class="st1" width="102" height="102"/>
	<rect x="204" y="102" class="st2" width="102" height="102"/>
	<rect x="306" y="102" class="st1" width="102" height="102"/>
	<rect x="408" y="102" class="st2" width="102" height="102"/>
	<rect x="510" y="102" class="st1" width="102" height="102"/>
	<rect x="612" y="102" class="st2" width="102" height="102"/>
	<rect x="714" y="102" class="st1" width="102" height="102"/>
	<rect x="816" y="102" class="st2" width="102" height="102"/>
	<rect x="918" y="102" class="st1" width="102" height="102"/>
	<rect x="0" y="204" class="st1" width="102" height="102"/>
	<rect x="102" y="204" class="st2" width="102" height="102"/>
	<rect x="204" y="204" class="st1" width="102" height="102"/>
	<rect x="306" y="204" class="st2" width="102" height="102"/>
	<rect x="408" y="204" class="st1" width="102" height="102"/>
	<rect x="510" y="204" class="st2" width="102" height="102"/>
	<rect x="612" y="204" class="st1" width="102" height="102"/>
	<rect x="714" y="204" class="st2" width="102" height="102"/>
	<rect x="816" y="204" class="st1" width="102" height="102"/>
	<rect x="918" y="204" class="st2" width="102" height="102"/>
	<rect x="0" y="306" class="st2" width="102" height="102"/>
	<rect x="102" y="306" class="st1" width="102" height="102"/>
	<rect x="204" y="306" class="st2" width="102" height="102"/>
	<rect x="306" y="306" class="st1" width="102" height="102"/>
</g>
<circle class="st3" cx="51" cy="51" r="50"/>
<circle class="st3" cx="153" cy="51" r="50"/>
<circle class="st3" cx="255" cy="51" r="50"/>
<circle class="st3" cx="357" cy="51" r="50"/>
<circle class="st3" cx="459" cy="51" r="50"/>
<circle class="st3" cx="561" cy="51" r="50"/>
<circle class="st3" cx="663" cy="51" r="50"/>
<circle class="st3" cx="765" cy="51" r="50"/>
<circle class="st3" cx="867" cy="51" r="50"/>
<circle class="st3" cx="969" cy="51" r="50"/>
<circle class="st3" cx="51" cy="153" r="50"/>
<circle class="st3" cx="153" cy="153" r="50"/>
<circle class="st3" cx="255" cy="153" r="50"/>
<circle class="st3" cx="357" cy="153" r="50"/>
<circle class="st3" cx="459" cy="153" r="50"/>
<circle class="st3" cx="561" cy="153" r="50"/>
<circle class="st3" cx="663" cy="153" r="50"/>
<circle class="st3" cx="765" cy="153" r="50"/>
<circle class="st3" cx="867" cy="153" r="50"/>
<circle class="st3" cx="969" cy="153" r="50"/>
<circle class="st3" cx="51" cy="255" r="50"/>
<circle class="st3" cx="153" cy="255" r="50"/>
<circle class="st3" cx="255" cy="255" r="50"/>
<circle class="st3" cx="357" cy="255" r="50"/>
<circle class="st3" cx="459" cy="255" r="50"/>
<circle class="st3" cx="561" cy="255" r="50"/>
<circle class="st3" cx="663" cy="255" r="50"/>
<circle class="st3" cx="765" cy="255" r="50"/>
<circle class="st3" cx="867" cy="255" r="50"/>
<circle class="st3" cx="969" cy="255" r="50"/>
<circle class="st3" cx="51" cy="357" r="50"/>
<circle class="st3" cx="153" cy="357" r="50"/>
<circle class="st3" cx="255" cy="357" r="50"/>
<circle class="st3" cx="357" cy="357" r="50"/>
<g>
	<path class="st4" d="M43.8,25.2c1.7-2.9,3.6-4.6,5.7-4.6c6,0,10.9,13.6,10.9,30.4c0,16.8-4.9,30.4-10.9,30.4
		c-6,0-10.9-13.6-10.9-30.4c0-7.8,1-14.9,2.8-20.3 M30.7,68.9c-3.7,0.1-6.3-0.7-7.4-2.7c-3-5.2,6.4-16.2,20.9-24.6
		c14.5-8.4,28.8-11,31.8-5.8C78.9,41,69.6,52,55,60.4c-6.4,3.7-12.7,6.3-18,7.5 M75.2,67.1c-4.1,3.9-17.4,1.1-31-6.7
		C29.6,52,20.2,41,23.2,35.8c3-5.2,17.2-2.6,31.8,5.8c11.1,6.4,19.2,14.3,21,20"/>
	<path class="st5" d="M42.4,25c1.6,0,2.9,1.3,2.9,2.9c0,1.6-1.3,2.9-2.9,2.9s-2.9-1.3-2.9-2.9C39.4,26.3,40.8,25,42.4,25L42.4,25z
		 M33.9,65.8c1.6,0,2.9,1.3,2.9,2.9s-1.3,2.9-2.9,2.9c-1.6,0-2.9-1.3-2.9-2.9S32.3,65.8,33.9,65.8L33.9,65.8z M76.7,61.5
		c1.6,0,2.9,1.3,2.9,2.9s-1.3,2.9-2.9,2.9s-2.9-1.3-2.9-2.9S75.1,61.5,76.7,61.5L76.7,61.5z M49.6,46c2.8,0,5,2.2,5,5
		c0,2.8-2.2,5-5,5c-2.8,0-5-2.2-5-5C44.6,48.2,46.8,46,49.6,46L49.6,46z"/>
</g>
<g>
	<line class="st4" x1="125.8" y1="80.5" x2="183" y2="80.5"/>
	<polyline class="st4" points="130.6,80.5 130.6,20 165.5,20 165.5,80.5 	"/>
	<polyline class="st4" points="166.3,30.1 178.1,30.1 178.1,78.7 	"/>
	<polyline class="st4" points="144.9,79.7 144.9,68.7 151.3,68.7 151.3,79.7 	"/>
	<path class="st4" d="M138.6,30.3v-3.1 M148.1,30.3v-3.1 M157.6,30.3v-3.1 M138.6,40.8v-3.1 M148.1,40.8v-3.1 M157.6,40.8v-3.1
		 M138.6,51.3v-3.1 M148.1,51.3v-3.1 M157.6,51.3v-3.1 M138.6,61.9v-3.1 M148.1,61.9v-3.1 M157.6,61.9v-3.1 M138.6,72.4v-3.1
		 M157.6,72.4v-3.1 M171.6,40.8v-3.1 M171.6,51.3v-3.1 M171.6,61.9v-3.1 M171.6,72.4v-3.1"/>
</g>
<g>
	<path class="st4" d="M258.8,40.9c-1.3,4.6-4.9,7.9-8.3,8.1c-3.4-0.2-7-3.5-8.3-8.1l-0.6,0.1c-0.7,0.1-1.4-0.4-1.5-1.1l-0.6-4.1
		c-0.1-0.7,0.4-1.4,1.1-1.5l0.5-0.1c-0.2-0.6-0.3-1.3-0.3-2v-1.5c0-3.7,3-6.7,6.7-6.7h0.8c0-0.1,0-0.2,0-0.4c0.4-1.1,3.1-1,6.1,0.1
		c0.6,0.2,1.2,0.5,1.7,0.8c2.4,1,4.1,3.4,4.1,6.1v1.5c0,0.7-0.1,1.4-0.3,2l0.5,0.1c0.7,0.1,1.2,0.8,1.1,1.5l-0.6,4.1
		c-0.1,0.7-0.8,1.2-1.5,1.1L258.8,40.9L258.8,40.9z"/>
	<line class="st4" x1="238.4" y1="68.3" x2="231.2" y2="68.3"/>
	<path class="st4" d="M227,72.3c-0.3-4.9-3.5-10.4,0.4-14.3c3.1-3.9,9.4-3.9,14.9-5.8c1.4,6.7,2.9,13.4,4.3,20.1
		c0.3-6.5,3.4-12.8,0.4-18.9c2.3,0,4.7,0,7,0c-3.2,6.1-0.9,12.4,0.3,18.9c1.5-6.7,2.9-13.4,4.4-20.1c1.5,0.8,3.1,1.4,4.8,1.9"/>
	<g>
		<g>
			<ellipse class="st6" cx="272.7" cy="63.9" rx="13.3" ry="13.4"/>
			<ellipse class="st6" cx="272.7" cy="63.9" rx="7.7" ry="13.4"/>
			<path class="st6" d="M272.7,77.4c7.3,0,13.3-6,13.3-13.4c0-7.4-5.9-13.4-13.3-13.4V77.4z"/>
			<path class="st6" d="M259.5,63.9c0,1.7,0.3,3.3,0.9,4.7h24.8c0.5-1.5,0.9-3.1,0.9-4.7c0-1.7-0.3-3.3-0.9-4.7h-24.8
				C259.8,60.7,259.5,62.3,259.5,63.9z"/>
		</g>
	</g>
</g>
<g>
	<g>
		<path class="st4" d="M359.6,40.3c-1.3,4.4-4.7,7.6-8,7.8c-3.3-0.2-6.8-3.4-8-7.8l-0.6,0.1c-0.7,0.1-1.4-0.4-1.5-1.1l-0.6-3.9
			c-0.1-0.7,0.4-1.4,1.1-1.5l0.4-0.1c-0.2-0.6-0.3-1.3-0.3-1.9v-1.4c0-3.5,2.9-6.4,6.4-6.4h0.8c0-0.1,0-0.2,0-0.3c0.4-1,3-1,5.9,0.1
			c0.6,0.2,1.2,0.5,1.7,0.8c2.3,1,4,3.3,4,5.9v1.4c0,0.7-0.1,1.3-0.3,1.9l0.4,0.1c0.7,0.1,1.2,0.8,1.1,1.5l-0.6,3.9
			c-0.1,0.7-0.8,1.2-1.5,1.1L359.6,40.3L359.6,40.3z"/>
		<line class="st4" x1="339.9" y1="66.7" x2="333" y2="66.7"/>
		<path class="st4" d="M329,70.6c-0.3-4.8-3.3-10,0.4-13.8c3-3.8,9-3.8,14.3-5.6c1.4,6.5,2.8,12.9,4.1,19.4
			c0.3-6.3,3.3-12.3,0.4-18.2c2.3,0,4.5,0,6.8,0c-3.1,5.9-0.8,11.9,0.3,18.2c1.4-6.5,2.8-12.9,4.2-19.4c1.5,0.7,3,1.4,4.6,1.8"/>
	</g>
	<g>
		<rect x="375.1" y="51" class="st6" width="11.7" height="24.5"/>
		<g>
			<line class="st6" x1="377" y1="57.4" x2="378.6" y2="57.4"/>
			<line class="st6" x1="380.1" y1="57.4" x2="381.7" y2="57.4"/>
			<line class="st6" x1="383.3" y1="57.4" x2="384.8" y2="57.4"/>
		</g>
		<g>
			<line class="st6" x1="377" y1="60.3" x2="378.6" y2="60.3"/>
			<line class="st6" x1="380.1" y1="60.3" x2="381.7" y2="60.3"/>
			<line class="st6" x1="383.3" y1="60.3" x2="384.8" y2="60.3"/>
		</g>
		<g>
			<line class="st6" x1="377" y1="63.3" x2="378.6" y2="63.3"/>
			<line class="st6" x1="380.1" y1="63.3" x2="381.7" y2="63.3"/>
			<line class="st6" x1="383.3" y1="63.3" x2="384.8" y2="63.3"/>
		</g>
		<g>
			<line class="st6" x1="377" y1="66.3" x2="378.6" y2="66.3"/>
			<line class="st6" x1="380.1" y1="66.3" x2="381.7" y2="66.3"/>
			<line class="st6" x1="383.3" y1="66.3" x2="384.8" y2="66.3"/>
		</g>
		<g>
			<line class="st6" x1="377" y1="69.3" x2="378.6" y2="69.3"/>
			<line class="st6" x1="380.1" y1="69.3" x2="381.7" y2="69.3"/>
			<line class="st6" x1="383.3" y1="69.3" x2="384.8" y2="69.3"/>
		</g>
		<g>
			<line class="st6" x1="377" y1="72.3" x2="378.6" y2="72.3"/>
			<line class="st6" x1="380.1" y1="72.3" x2="381.7" y2="72.3"/>
			<line class="st6" x1="383.3" y1="72.3" x2="384.8" y2="72.3"/>
		</g>
		<g>
			<rect x="364.2" y="48.4" class="st6" width="10.9" height="27.1"/>
			<rect x="365.7" y="45.6" class="st6" width="7.9" height="2.8"/>
			<line class="st6" x1="366.4" y1="51.6" x2="372.8" y2="51.6"/>
			<line class="st6" x1="366.4" y1="55" x2="372.8" y2="55"/>
			<line class="st6" x1="366.4" y1="58.3" x2="372.8" y2="58.3"/>
			<line class="st6" x1="366.4" y1="61.7" x2="372.8" y2="61.7"/>
			<line class="st6" x1="366.4" y1="65.1" x2="372.8" y2="65.1"/>
			<line class="st6" x1="366.4" y1="68.5" x2="372.8" y2="68.5"/>
			<line class="st6" x1="366.4" y1="71.9" x2="372.8" y2="71.9"/>
			<line class="st6" x1="369.6" y1="45.2" x2="369.6" y2="41.2"/>
		</g>
		<line class="st6" x1="375" y1="54.3" x2="381.6" y2="54.3"/>
	</g>
</g>
<g>
	<g>
		<path class="st4" d="M461.9,41c-1.3,4.6-4.9,7.9-8.3,8.1c-3.4-0.2-7-3.5-8.3-8.1l-0.6,0.1c-0.7,0.1-1.4-0.4-1.5-1.1l-0.6-4.1
			c-0.1-0.7,0.4-1.4,1.1-1.5l0.5-0.1c-0.2-0.6-0.3-1.3-0.3-2v-1.5c0-3.7,3-6.7,6.7-6.7h0.8c0-0.1,0-0.2,0-0.4c0.4-1.1,3.1-1,6.1,0.1
			c0.6,0.2,1.2,0.5,1.8,0.8c2.4,1,4.1,3.4,4.1,6.2v1.5c0,0.7-0.1,1.4-0.3,2l0.5,0.1c0.7,0.1,1.2,0.8,1.1,1.5l-0.6,4.1
			c-0.1,0.7-0.8,1.2-1.5,1.1L461.9,41L461.9,41z"/>
		<line class="st4" x1="441.4" y1="68.4" x2="434.2" y2="68.4"/>
		<path class="st4" d="M430,72.4c-0.3-4.9-3.5-10.4,0.4-14.3c3.1-3.9,9.4-3.9,14.9-5.8c1.4,6.7,2.9,13.4,4.3,20.1
			c0.3-6.5,3.5-12.8,0.4-18.9c2.3,0,4.7,0,7,0c-3.2,6.1-0.9,12.4,0.3,18.9c1.5-6.7,2.9-13.4,4.4-20.1c1.5,0.8,3.1,1.4,4.8,1.9"/>
		<line class="st4" x1="475.9" y1="54.8" x2="475.9" y2="57.7"/>
		<line class="st4" x1="475.9" y1="70.3" x2="475.9" y2="73.2"/>
		<path class="st4" d="M475.9,50.7c7.3,0,13.3,5.9,13.3,13.3c0,7.3-5.9,13.3-13.3,13.3c-7.3,0-13.3-5.9-13.3-13.3
			C462.6,56.7,468.5,50.7,475.9,50.7L475.9,50.7z"/>
		<path class="st4" d="M480,59.2c-1.3-0.4-2.5-0.9-3.7-1c-6.5-0.7-7.3,5.8-0.4,5.8c6.7,0,6.1,6.5-0.4,5.8c-1.2-0.1-2.4-0.6-3.7-1"/>
	</g>
</g>
<g>
	<polyline class="st4" points="533.2,55.9 533.2,22.4 588.4,22.4 588.4,55.9 	"/>
	<path class="st4" d="M546.7,62.9v-3.3c0-1.7,1.2-3.1,2.6-3.1h6.6c1.4,0,2.6,1.4,2.6,3.1v3.3"/>
	<path class="st4" d="M562.8,62.9v-3.3c0-1.7,1.2-3.1,2.6-3.1h6.6c1.4,0,2.6,1.4,2.6,3.1v3.3"/>
	<path class="st4" d="M578.9,62.9v-3.3c0-1.7,1.2-3.1,2.6-3.1h6.6c1.4,0,2.6,1.4,2.6,3.1v6.2"/>
	<path class="st4" d="M530.9,65.9v-6.2c0-1.7,1.2-3.1,2.6-3.1h6.6c1.4,0,2.6,1.4,2.6,3.1v3.3"/>
	<path class="st4" d="M538.8,69.8v-3.3c0-1.7,1.2-3.1,2.6-3.1h6.6c1.4,0,2.6,1.4,2.6,3.1v3.3"/>
	<path class="st4" d="M554.9,69.8v-3.3c0-1.7,1.2-3.1,2.6-3.1h6.6c1.4,0,2.6,1.4,2.6,3.1v3.3"/>
	<path class="st4" d="M571,69.8v-3.3c0-1.7,1.2-3.1,2.6-3.1h6.6c1.4,0,2.6,1.4,2.6,3.1v3.3"/>
	<path class="st4" d="M546.6,79.5v-6.2c0-1.7,1.2-3.1,2.6-3.1h6.6c1.4,0,2.6,1.4,2.6,3.1v6.2"/>
	<path class="st4" d="M562.7,79.5v-6.2c0-1.7,1.2-3.1,2.6-3.1h6.6c1.4,0,2.6,1.4,2.6,3.1v6.2"/>
	<path class="st4" d="M578.8,79.5v-6.2c0-1.7,1.2-3.1,2.6-3.1h6.6c1.4,0,2.6,1.4,2.6,3.1v6.2"/>
	<path class="st4" d="M530.8,80.1v-6.7c0-1.7,1.2-3.1,2.6-3.1h6.6c1.4,0,2.6,1.4,2.6,3.1V80"/>
	<line class="st4" x1="531.3" y1="80.1" x2="590.2" y2="80.1"/>
	<path class="st4" d="M555.4,29.7c5.1-3,11.7-1.2,14.7,3.9c3,5.1,1.2,11.7-3.9,14.7c-5.1,3-11.7,1.2-14.7-3.9
		C548.5,39.3,550.3,32.7,555.4,29.7L555.4,29.7z"/>
	<polygon class="st4" points="557.3,33.8 562.1,36.6 566.9,39.4 562.1,42.2 557.3,45 557.3,39.4 557.3,33.8 	"/>
</g>
<g>
	<polygon class="st4" points="677.3,50.9 662.1,66.2 677.3,66.2 677.3,50.9 	"/>
	<line class="st4" x1="690.9" y1="71.1" x2="684.2" y2="71.1"/>
	<line class="st4" x1="690.9" y1="62.4" x2="686.7" y2="62.4"/>
	<line class="st4" x1="690.9" y1="53.8" x2="684.2" y2="53.8"/>
	<line class="st4" x1="690.9" y1="45.1" x2="686.7" y2="45.1"/>
	<line class="st4" x1="690.9" y1="36.4" x2="684.2" y2="36.4"/>
	<polygon class="st4" points="671.3,26.9 665.4,21.1 635,51.5 632.3,60.1 640.8,57.4 671.3,26.9 	"/>
	<line class="st4" x1="660.6" y1="25.9" x2="666.5" y2="31.8"/>
	<polygon class="st4" points="690.9,19.7 630.9,79.7 690.9,79.7 690.9,19.7 	"/>
</g>
<g>
	<path class="st6" d="M763.2,82.7c-11.4-3.3-26.6-10-26.6-29.8V27.3l7.4,1.2c0.9,0.1,1.9,0.2,3,0.2c1.4,0,2.8-0.1,4.2-0.4
		c3.8-0.7,7.3-2.3,9.3-4.2l4.5-4.4l4.5,4.4c2,1.9,5.5,3.5,9.3,4.2c1.4,0.3,2.8,0.4,4.2,0.4c1,0,2-0.1,3-0.2l7.4-1.2v25.6
		c0,19.8-15.2,26.5-26.6,29.8l-1.8,0.5L763.2,82.7z"/>
	<path class="st6" d="M764.7,77.4c-20.1-5.9-22.6-16.2-22.6-24.6V33.7l1.1,0.2c1.2,0.2,2.5,0.3,3.8,0.3c1.7,0,3.5-0.2,5.2-0.5
		c4.9-0.9,9.3-3,12.1-5.7l0.7-0.7l0.7,0.7c2.8,2.7,7.2,4.8,12.1,5.7c1.8,0.3,3.5,0.5,5.2,0.5c1.3,0,2.6-0.1,3.8-0.3l1.1-0.2v19.2
		c0,15.9-12.1,21.5-22.6,24.6l-0.3,0.1L764.7,77.4z"/>
	<circle class="st6" cx="765" cy="52.9" r="12.7"/>
	<g>
		<line class="st6" x1="765.1" y1="27.4" x2="765.1" y2="40.3"/>
	</g>
	<g>
		<line class="st6" x1="765.1" y1="65.5" x2="765.1" y2="77.1"/>
	</g>
	<circle class="st6" cx="765.3" cy="50" r="4.3"/>
	<path class="st6" d="M772.8,64V59c0-2.4-1.9-4.3-4.3-4.3h-6.4c-2.4,0-4.3,1.9-4.3,4.3V64"/>
</g>
<g>
	<polygon class="st4" points="836.2,31.5 886.7,31.5 886.7,68.9 861.6,68.9 845.9,82 845.9,68.9 836.2,68.9 836.2,31.5 	"/>
	<polyline class="st4" points="845.8,31.5 845.8,21.9 896.2,21.9 896.2,59.3 887.5,59.3 	"/>
	<line class="st4" x1="850.8" y1="42.6" x2="873.4" y2="42.6"/>
	<line class="st4" x1="850.8" y1="48.8" x2="873.4" y2="48.8"/>
	<line class="st4" x1="850.8" y1="55.1" x2="862.1" y2="55.1"/>
</g>
<g>
	<path class="st5" d="M983.9,23.9c3.5,0,6.3,2.8,6.3,6.3c0,3.5-2.8,6.3-6.3,6.3c-3.5,0-6.3-2.8-6.3-6.3
		C977.6,26.7,980.4,23.9,983.9,23.9L983.9,23.9z"/>
	<path class="st4" d="M990.3,43.7c1.9,3.7,3,7.9,3,12.4c0,15-12.2,27.2-27.2,27.2c-15,0-27.2-12.2-27.2-27.2
		c0-15,12.2-27.2,27.2-27.2c1.5,0,2.9,0.1,4.3,0.3"/>
	<line class="st4" x1="938.9" y1="56" x2="993.2" y2="56"/>
	<path class="st4" d="M975.3,42.2c-2.8,0.7-5.9,1.2-9.2,1.2c-8,0-15-2.5-19.2-6.2"/>
	<path class="st4" d="M985.3,75c-4.2-3.7-11.2-6.2-19.2-6.2c-8,0-15,2.5-19.2,6.2"/>
	<path class="st4" d="M965.9,82.9c-6.3-5.8-10.5-15.6-10.5-26.8c0-11.2,4.2-21,10.5-26.8"/>
	<path class="st4" d="M966.6,82.9c6.3-5.8,10.5-15.6,10.5-26.8c0-11.2-4.2-21-10.5-26.8"/>
	<path class="st4" d="M983.9,17.6c3.5,0,6.7,1.4,9,3.7c2.3,2.3,3.7,5.5,3.7,9c0,2-0.5,4-1.3,5.7c-1.6,3.3-9.9,9-11.4,15.2
		c-2.4-6-9.8-11.9-11.4-15.2c-0.9-1.7-1.3-3.7-1.3-5.7C971.1,23.3,976.9,17.6,983.9,17.6L983.9,17.6z"/>
</g>
<path class="st7" d="M950.6,152.1l9.7-3.7l5.5,6.3h0.1l0.4-5.3h3.2l0.4,5.3h0.1l5.5-6.3l9.7,3.7 M961.8,121.1
	c-2.5,1.9-4.4,4.8-4.7,8.1c0,0.8-0.7,0.3-0.9,1.9c-0.1,0.8-0.1,1.5-0.1,2.2c0,0.2,0.1,0.3,0.1,0.4h1.9c0.2,2.6,0.6,5.4,1.3,6.8
	c1.1,2.1,3.6,4.1,6.4,4.8c1.3,0.2,1.8,0.2,3.1,0c2.9-0.7,5.5-2.7,6.7-4.8c0.8-1.4,1.4-4.2,1.7-6.8h2c0.1-0.1,0.1-0.2,0.1-0.4
	c0-0.7,0-1.5-0.1-2.2c-0.2-1.6-0.9-1.1-0.9-1.9c-0.3-3.3-2.1-6.3-4.7-8.1 M970.8,128.8l1.6-8.8c-0.4-2.2-8.9-2.2-9.3,0l1.6,8.8
	 M958.2,133.8h19.2 M939.5,167.1l0.7-2l1.3-0.6l0.3,1.7l5.4,0l1,0.7l1.1,5.8l-0.3,0.9l-3.8,1.5l-1.7-0.1l-2.5-1.2l-1-4.9
	L939.5,167.1L939.5,167.1z M945.3,153c-0.7,0.1-1.6,0.5-1.1,1.3c0.3,0.5,1,0.9,2.2,0.9c0.9,0,2.9-0.5,2.9-1.7c0-0.8-0.5-1.5-1.3-2.1
	c-2.1-1.5-6.7-1.5-8,1c-0.5,1-0.4,2.2,0.2,3.2c0.9,1.6,3,2.9,6.2,2.9c14.3,0,28.6,0,42.9,0c3.2,0,5.3-1.3,6.2-2.9
	c0.5-1,0.7-2.2,0.2-3.2c-1.3-2.5-5.9-2.5-8-1c-0.8,0.5-1.3,1.3-1.3,2.1c0,1.2,1.9,1.7,2.9,1.7c1.2,0,1.9-0.4,2.2-0.9
	c0.5-0.8-0.4-1.1-1.1-1.3 M943.3,174.9l0.9,5.2c0.5,3,2.6,5.8,5.9,5.8c11.7,0,23.5,0,35.2,0c3.3,0,5.4-2.8,5.9-5.8l0.9-5.2
	 M941.5,164.5l-1.8-10.4 M996.1,167.1l-0.7-2l-1.3-0.6l-0.3,1.7l-5.4,0l-1,0.7l-1.1,5.8l0.3,0.9l3.8,1.5l1.7-0.1l2.5-1.2l1-4.9
	L996.1,167.1L996.1,167.1z M994.1,164.5l1.8-10.4"/>
<g>
	<path class="st4" d="M874.5,131v-4.2c0-0.7-0.3-1.2-0.7-1.7c-0.4-0.4-1-0.7-1.7-0.7h-11.1c-0.7,0-1.2,0.3-1.7,0.7l0,0
		c-0.4,0.4-0.7,1-0.7,1.7v4.2 M885.9,152.1V132h6.9c2.1,0,3.8,1.7,3.8,3.8v39.4c0,2.1-1.7,3.8-3.8,3.8h-6.9v-16.7 M881.5,149.6
		l-6.8,11.8l8.4,4.9l6.8-11.8C887.5,153.1,884.3,151.3,881.5,149.6L881.5,149.6z M885.9,178.9h-38.6 M846.9,132h39.4 M840.4,132h6.9
		v46.9h-6.9c-2.1,0-3.8-1.7-3.8-3.8v-39.4C836.6,133.7,838.3,132,840.4,132L840.4,132z M863.4,154l-8.6-4l-2.8,6.1l8.6,4
		C861.4,158.4,862.4,156.1,863.4,154L863.4,154z"/>
	<path class="st5" d="M872.3,141.9c3.1,0,5.6,1.8,5.6,4.1c0,2.2-2.5,4.1-5.6,4.1s-5.6-1.8-5.6-4.1
		C866.7,143.8,869.2,141.9,872.3,141.9L872.3,141.9z"/>
</g>
<g>
	<polyline class="st4" points="779.4,131.1 794.4,131.1 794.4,179.9 734.4,179.9 734.4,131.1 749.4,131.1 	"/>
	<polygon class="st4" points="750.6,126.3 778.3,126.3 778.3,135.5 750.6,135.5 750.6,126.3 	"/>
	<line class="st4" x1="770.3" y1="148.3" x2="786.2" y2="148.3"/>
	<line class="st4" x1="770.3" y1="154.8" x2="786.2" y2="154.8"/>
	<line class="st4" x1="770.3" y1="161.2" x2="786.2" y2="161.2"/>
	<line class="st4" x1="770.3" y1="167.7" x2="780.4" y2="167.7"/>
	<path class="st4" d="M751.4,158.2c-3.4-1.2-4.3-3.5-4.3-6.3c0-2.8,1.9-4.7,4.3-4.7c2.4,0,4.3,1.9,4.3,4.7
		C755.7,154.7,754.9,157.1,751.4,158.2L751.4,158.2z"/>
	<path class="st4" d="M747.5,158.9h7.9c2.7,0,4.8,2.2,4.8,4.8v3.9h-17.6v-3.9C742.6,161.1,744.8,158.9,747.5,158.9L747.5,158.9z"/>
</g>
<g>
	<path class="st4" d="M673.1,143.6c-1.6,5.5-6,9.6-10.1,9.8c-4.1-0.2-8.5-4.3-10.1-9.8l-0.8,0.1c-0.9,0.1-1.7-0.5-1.9-1.4l-0.8-4.9
		c-0.1-0.9,0.5-1.7,1.4-1.9l0.6-0.1c-0.2-0.8-0.4-1.6-0.4-2.4v-1.8c0-4.4,3.6-8.1,8.1-8.1h1c0-0.2,0-0.3,0.1-0.4
		c0.5-1.3,3.8-1.3,7.4,0.1c0.8,0.3,1.5,0.6,2.1,1c2.9,1.2,5,4.1,5,7.5v1.8c0,0.9-0.1,1.7-0.4,2.4l0.6,0.1c0.9,0.1,1.5,1,1.4,1.9
		l-0.8,4.9c-0.1,0.9-1,1.5-1.9,1.4L673.1,143.6L673.1,143.6z"/>
	<line class="st4" x1="682" y1="176.9" x2="673.3" y2="176.9"/>
	<path class="st4" d="M634.5,181.7l-1.5-13.2v-1.4c0-3.1,3.1-4.9,5.7-5.4c2.4-0.5,11.3-2.4,14.1-4.4l0.2,0l5.2,24.4l3.1-16.1
		l-2.6-6.8h8.5l-2.6,6.8l3,16.1l5.3-24.4l0.2,0c2.9,2,11.8,3.9,14.1,4.4c2.6,0.5,5.7,2.3,5.7,5.4v1.4l-1.4,13.2"/>
</g>
<g>
	<path class="st4" d="M587.4,153.9v22.6c0,1.1-0.9,2-2,2h-50.1c-1.1,0-2-0.9-2-2v-22.3"/>
	<path class="st4" d="M551.3,134.5v-5.8c0-1.8,1.5-3.3,3.3-3.3h11.6c1.8,0,3.3,1.5,3.3,3.3v5.8"/>
	<path class="st4" d="M554.8,158.4c-8.4-0.4-16.9-2.1-24.5-5.8l0-16c0-1.1,0.9-2,2-2h55.9c1.1,0,2,0.9,2,2l0,15.6
		c-7.6,4-16.3,5.8-24.8,6.2"/>
	<path class="st4" d="M556.8,155.5h7.2c0.6,0,1.1,0.5,1.1,1.1v5c0,0.6-0.5,1.1-1.1,1.1h-7.2c-0.6,0-1.1-0.5-1.1-1.1v-5
		C555.7,156,556.2,155.5,556.8,155.5L556.8,155.5z"/>
</g>
<g>
	<path class="st4" d="M445.8,141.5L445.8,141.5c1.8-1.1,4.3-0.6,5.4,1.3l5.5,9c0.2-1,0.8-1.9,1.8-2.5h0c1.7-1,3.9-0.7,5.1,0.8
		c0.1-1.2,0.7-2.4,1.9-3.1l0,0c1.7-1,3.9-0.7,5.1,0.8c0.1-1.2,0.7-2.4,1.9-3.1h0c1.8-1.1,4.4-0.6,5.4,1.3l7.7,14
		c6.2,11.4-5.8,26-17.9,20.3l-21-9.9c-2-0.9-2.8-3.3-1.9-5.3c1.8-1.1,5.8-1.6,7.7-0.7l4,1.9l-12-19.4
		C443.4,145.1,444,142.6,445.8,141.5L445.8,141.5z"/>
	<path class="st4" d="M443.5,155c-4.5-1.6-7.6-5.8-7.6-10.8c0-6.3,5.1-11.5,11.5-11.5c5.7,0,10.5,4.2,11.3,9.7"/>
	<path class="st4" d="M438.9,162.3c-6.9-3.2-11.6-10.1-11.6-18.2c0-11.1,9-20,20-20c9.3,0,17.1,6.3,19.4,14.9"/>
</g>
<g>
	<path class="st4" d="M367.1,128.2h0.5c1.6,0,3,1.3,3,3V170c0,1.6-1.3,3-3,3h-0.5c-1.7,0-12-15.2-23-15.2h-13.7
		c-2.2,0-4.1-1.8-4.1-4.1v-6.3c0-2.2,1.8-4.1,4.1-4.1h13.7C355.1,143.4,365.4,128.2,367.1,128.2L367.1,128.2z"/>
	<path class="st4" d="M370.5,143.3c3.2,0.9,5.5,3.8,5.5,7.3c0,3.4-2.3,6.4-5.5,7.3"/>
	<line class="st4" x1="344.3" y1="143.4" x2="344.3" y2="157.8"/>
	<path class="st4" d="M341.1,157.8c0.6,3.2-0.3,6.5,1.7,9.5l3.3,5.1c0.8,1.3-0.5,3.5-2,3.5h-4.9c-1.5,0-3.1-1.2-3.4-2.7l-3.7-15.5
		H341.1L341.1,157.8z"/>
	<path class="st4" d="M384.1,160c1.5-2.9,2.3-6.2,2.2-9.4c0-3.2-0.8-6.4-2.4-9.4"/>
	<path class="st4" d="M379.3,156c0.9-1.7,1.3-3.6,1.3-5.5c0-1.9-0.5-3.8-1.4-5.5"/>
	<path class="st4" d="M365.9,139.4c-2.5,4.3-7.1,7.5-12.9,8.4c-1,0.2-2,0.2-3,0.2"/>
</g>
<g>
	<line class="st4" x1="224.7" y1="171.8" x2="254.1" y2="171.8"/>
	<polyline class="st4" points="226.7,171.5 226.7,145.9 236.6,145.9 236.6,171.5 	"/>
	<polyline class="st4" points="242.4,171.5 242.4,134.8 252.3,134.8 252.3,171.5 	"/>
	<polyline class="st4" points="258.2,154.2 258.2,122.7 268.1,122.7 268.1,149.4 	"/>
	<path class="st4" d="M269.1,150c-8.6,0-15.6,7-15.6,15.6c0,8.6,7,15.6,15.6,15.6c8.6,0,15.6-7,15.6-15.6
		C284.7,157,277.7,150,269.1,150L269.1,150z"/>
	<path class="st4" d="M275,158.8c-1.2,0.5-11.2,11.4-12.9,13"/>
	<polyline class="st4" points="275,169.9 275,158.8 263.9,158.8 	"/>
</g>
<g>
	<path class="st8" d="M182.6,152.5c-1.3,0-2.4,1.1-2.4,2.4s1.1,2.4,2.4,2.4c1.3,0,2.4-1.1,2.4-2.4S183.9,152.5,182.6,152.5z
		 M182.6,155.9c-0.6,0-1-0.5-1-1s0.5-1,1-1c0.6,0,1,0.5,1,1S183.2,155.9,182.6,155.9z"/>
	<path class="st8" d="M188,155.6l-7.1-20.1c-0.2-0.7-0.9-1.2-1.7-1.2c-0.2,0-0.4,0-0.6,0.1l-6,2.1c-0.4,0.2-0.8,0.5-1,0.9
		c-0.2,0.4-0.2,0.9-0.1,1.3l0.2,0.6c-4.7,1.3-8.5,0.3-11.8-0.5c-0.7-0.2-1.3-0.3-2-0.5c-2.9-0.6-5.8-1.2-7.4-0.9
		c-1.9,0.3-4.4,1.6-6.3,3.3c-0.1,0-0.1,0.1-0.2,0.1c-0.3,0-0.6,0-1,0c-2.9,0-6.2,0.1-9.1-1.6l0.2-0.5c0.2-0.4,0.1-0.9-0.1-1.3
		c-0.2-0.4-0.6-0.7-1-0.9l-6-2.1c-0.2-0.1-0.4-0.1-0.6-0.1c-0.7,0-1.4,0.5-1.7,1.2l-7.1,20.1c-0.3,0.9,0.2,1.9,1.1,2.3l6,2.1
		c0.2,0.1,0.4,0.1,0.6,0.1h0c0.7,0,1.4-0.5,1.7-1.2l0,0c0.7,0.7,1.7,1.8,2.8,3.2c0.7,0.8,1.4,1.7,2.2,2.6l-0.7,0.9
		c-0.5,0.6-0.7,1.5-0.6,2.3c0.1,0.8,0.5,1.5,1.2,2c0.5,0.4,1.2,0.6,1.9,0.6c0.3,0,0.7-0.1,1-0.2c0,0.2,0,0.3,0,0.5
		c0.1,0.9,0.6,1.7,1.3,2.3c0.6,0.4,1.3,0.7,2,0.7c0.4,0,0.9-0.1,1.3-0.2c0,0.2,0,0.3,0,0.5c0.1,0.9,0.6,1.7,1.3,2.3
		c0.6,0.4,1.3,0.7,2,0.7c0.5,0,1-0.1,1.5-0.3c0.1,0.8,0.5,1.7,1.2,2.2c0.5,0.4,1.2,0.6,1.9,0.6c0.9,0,1.7-0.4,2.3-1l3.5,2.1l0,0
		c0.6,0.4,1.3,0.6,2.1,0.6c0.4,0,0.7,0,1.1-0.2c1.1-0.3,2-1,2.5-2c0.4-0.6,0.5-1.3,0.5-2l1.7,0.9c0.6,0.4,1.3,0.6,2.1,0.6
		c0.4,0,0.7-0.1,1.1-0.2c1.1-0.3,2-1,2.5-2c0.3-0.6,0.5-1.3,0.5-1.9c0.5,0.2,1.1,0.3,1.6,0.3c0.4,0,0.7-0.1,1.1-0.2
		c1.1-0.3,2-1,2.5-2c0.4-0.8,0.6-1.7,0.5-2.5c0.1,0,0.2,0,0.4,0c1.5,0,2.9-0.8,3.6-2.1c0.5-1,0.7-2.1,0.4-3.1c-0.3-1-1-1.9-1.9-2.5
		c-0.2-0.2-0.5-0.4-0.8-0.6c0.6-0.6,1.9-2,3.8-2.9l0,0c0.2,0.7,0.9,1.2,1.7,1.2c0.2,0,0.4,0,0.6-0.1l6-2.1
		C187.9,157.5,188.4,156.5,188,155.6z M125.6,158.6c0,0-0.1,0-0.1,0l-6-2.1c-0.2-0.1-0.3-0.3-0.2-0.5l7.1-20.1
		c0.1-0.2,0.2-0.3,0.4-0.3c0,0,0.1,0,0.1,0l6,2.1c0.1,0,0.2,0.1,0.2,0.2c0,0.1,0.1,0.2,0,0.3l-7.1,20.1
		C125.9,158.5,125.7,158.6,125.6,158.6z M133,168.7c-0.4-0.3-0.6-0.7-0.6-1.1c-0.1-0.4,0.1-0.9,0.3-1.2l1-1.4c0,0,0,0,0,0
		c0.3-0.4,0.8-0.7,1.3-0.7c0.4,0,0.7,0.1,1,0.3c0.7,0.6,0.9,1.6,0.3,2.4l-1,1.4c-0.3,0.4-0.8,0.7-1.3,0.7
		C133.7,169.1,133.3,169,133,168.7z M137.1,172c-0.4-0.3-0.7-0.8-0.8-1.3c-0.1-0.6,0.1-1.1,0.4-1.6l1.2-1.6c0.4-0.5,1.1-0.9,1.7-0.9
		c0.4,0,0.8,0.1,1.2,0.4c0.9,0.7,1,2,0.3,2.9l-1.2,1.6c-0.4,0.5-1.1,0.9-1.7,0.9C137.9,172.4,137.5,172.3,137.1,172z M141.7,175.2
		c-0.4-0.3-0.7-0.8-0.8-1.3c-0.1-0.6,0.1-1.1,0.4-1.6l1.2-1.6c0.4-0.5,1.1-0.9,1.7-0.9c0.4,0,0.8,0.1,1.2,0.4
		c0.4,0.3,0.7,0.8,0.8,1.3c0.1,0.6-0.1,1.1-0.4,1.6l-1.2,1.6c-0.4,0.5-1.1,0.9-1.7,0.9C142.5,175.6,142.1,175.5,141.7,175.2z
		 M147.5,178.1c-0.4,0-0.7-0.1-1-0.3c-0.7-0.6-0.9-1.6-0.3-2.4l1-1.4c0.3-0.4,0.8-0.7,1.3-0.7c0.4,0,0.7,0.1,1,0.3
		c0.7,0.6,0.9,1.6,0.3,2.4l-0.8,1c0,0,0,0,0,0l-0.2,0.3C148.5,177.9,148,178.1,147.5,178.1z M176.1,167.3c-0.7,1.2-2.1,1.7-3.4,1.3
		c-0.2-0.1-0.3-0.1-0.5-0.2l-8.9-5.1c-0.3-0.2-0.8-0.1-0.9,0.3c-0.2,0.3-0.1,0.8,0.3,0.9l8.9,5.1c0.1,0,0.2,0.1,0.2,0.1
		c0,0,0,0.1,0,0.1c0.2,0.7,0.1,1.5-0.3,2.1c-0.4,0.7-1,1.1-1.7,1.3c-0.7,0.2-1.5,0.1-2.1-0.3l-9.1-5.2c-0.3-0.2-0.8-0.1-0.9,0.3
		c-0.2,0.3-0.1,0.8,0.3,0.9l8.1,4.6c0.2,0.7,0.1,1.4-0.3,2c-0.4,0.7-1,1.1-1.7,1.3c-0.7,0.2-1.5,0.1-2.1-0.3l-8.2-4.7
		c-0.3-0.2-0.8-0.1-0.9,0.3s-0.1,0.8,0.3,0.9l5,2.9c0.2,0.7,0.1,1.5-0.3,2.2c-0.4,0.7-1,1.1-1.7,1.3c-0.7,0.2-1.5,0.1-2.1-0.3
		l-3.4-2l0.3-0.5c1-1.3,0.8-3.3-0.6-4.3c-0.5-0.4-1.2-0.6-1.9-0.6c-0.3,0-0.6,0-0.8,0.1c0-0.2,0-0.5,0-0.7c-0.1-0.9-0.6-1.7-1.3-2.3
		c-0.6-0.4-1.3-0.7-2-0.7c-0.4,0-0.9,0.1-1.3,0.2c0-1.1-0.4-2.1-1.3-2.8c-0.6-0.4-1.3-0.7-2-0.7c-0.6,0-1.2,0.2-1.7,0.4
		c-0.1-0.8-0.5-1.5-1.2-2c-0.5-0.4-1.2-0.6-1.9-0.6c-0.7,0-1.3,0.2-1.8,0.6c-0.8-0.9-1.4-1.7-2.1-2.5c-1.4-1.7-2.5-3-3.4-3.7
		l5.9-16.8c2.7,1.5,5.7,1.7,8.3,1.7c0.3,0,0.6,0,0.9,0c-0.1,0.1-0.2,0.2-0.3,0.3c-0.6,0.6-1.2,1.2-1.8,1.8c-0.3,0.3-0.7,0.6-1,0.9
		c-0.8,0.7-1.6,1.4-1.9,2.1c-0.3,0.6-0.4,1.2-0.3,1.7c0.1,0.5,0.3,1,0.7,1.3c0.9,0.9,2.4,1,3.5,1c1.3,0,2.6-0.3,3.4-0.7
		c0.8-0.4,1.6-1,2.4-1.6c0.8-0.6,1.6-1.1,2.3-1.4c0.6-0.2,2.4-0.6,3.3-0.3c4.2,1.4,11.1,7.2,16.1,11.5c2.3,2,4.4,3.7,5.7,4.6
		C176.3,164.4,176.8,166,176.1,167.3z M173.8,160.9c-1.1-0.8-2.3-1.9-3.7-3.1c-2.6-2.2-5.6-4.7-8.5-6.9c-3.4-2.6-6-4.1-8-4.8
		c-1.4-0.5-3.7,0.1-4.3,0.4c-0.9,0.4-1.7,1-2.6,1.6c-0.7,0.5-1.5,1.1-2.2,1.4c-0.7,0.3-1.8,0.5-2.9,0.6c-1.2,0-2.1-0.2-2.5-0.6
		c-0.1-0.1-0.5-0.5-0.1-1.5c0.2-0.5,0.9-1,1.5-1.6c0.4-0.3,0.7-0.6,1.1-1c0.6-0.6,1.2-1.3,1.8-1.9c0.6-0.7,1.2-1.3,1.7-1.7
		c1.9-1.7,4.2-2.7,5.6-3c1.4-0.2,4.3,0.3,6.9,0.9c0.6,0.1,1.3,0.3,2,0.5c1.8,0.5,3.8,0.9,5.9,1.1c2.3,0.2,4.5,0,6.7-0.6l5.9,16.8
		C176,158.6,174.5,160.1,173.8,160.9z M186.5,156.5l-6,2.1c0,0-0.1,0-0.1,0c-0.2,0-0.3-0.1-0.4-0.3l-7.1-20.1c0-0.1,0-0.2,0-0.3
		c0-0.1,0.1-0.2,0.2-0.2l6-2.1c0,0,0.1,0,0.1,0c0.2,0,0.3,0.1,0.4,0.3l7.1,20.1C186.8,156.2,186.7,156.4,186.5,156.5z"/>
	<path class="st8" d="M123.4,152.5c-1.3,0-2.4,1.1-2.4,2.4c0,1.3,1.1,2.4,2.4,2.4c1.3,0,2.4-1.1,2.4-2.4
		C125.8,153.6,124.7,152.5,123.4,152.5z M123.4,155.9c-0.6,0-1-0.5-1-1c0-0.6,0.5-1,1-1c0.6,0,1,0.5,1,1
		C124.4,155.5,123.9,155.9,123.4,155.9z"/>
</g>
<g>
	<path class="st4" d="M65.9,143.9c7.2,9.8,6.3,23.7-2.5,32.6c-9.8,9.8-25.7,9.8-35.6,0c-9.8-9.8-9.8-25.7,0-35.6
		c8.9-8.9,22.8-9.7,32.6-2.5"/>
	<path class="st4" d="M60.9,148.9c4.5,7.1,3.7,16.6-2.5,22.7c-7.1,7.1-18.7,7.1-25.8,0c-7.1-7.1-7.1-18.7,0-25.8
		c6.2-6.2,15.7-7,22.7-2.5"/>
	<path class="st4" d="M55.8,154c1.9,4.2,1.2,9.3-2.3,12.8c-4.4,4.4-11.6,4.4-16,0c-4.4-4.4-4.4-11.6,0-16c3.5-3.5,8.6-4.2,12.8-2.3"
		/>
	<path class="st4" d="M49.8,160c-0.2,0.7-0.6,1.3-1.1,1.8c-1.7,1.7-4.5,1.7-6.3,0c-1.7-1.7-1.7-4.5,0-6.3c0.5-0.5,1.2-0.9,1.8-1.1"
		/>
	<line class="st4" x1="45.9" y1="158.5" x2="77.3" y2="127.1"/>
	<polyline class="st4" points="66.6,139 73,141 80.4,133.6 74,131.6 	"/>
	<polyline class="st4" points="65.5,137.9 63.5,131.5 70.9,124.1 72.9,130.5 	"/>
</g>
<g>
	<path class="st4" d="M55.1,227.1c1.8,0.3,3.5,0.8,5.1,1.4c1.6,0.6,3.2,1.4,4.7,2.3c1.5,0.9,2.9,1.9,4.1,3c1.3,1.1,2.5,2.4,3.5,3.7
		c1.1,1.3,2,2.8,2.8,4.3c0.8,1.5,1.5,3.1,2,4.8c0.5,1.7,0.9,3.4,1.1,5.1"/>
	<path class="st4" d="M43.3,283.4c-1.8-0.3-3.5-0.8-5.1-1.4c-1.6-0.6-3.2-1.4-4.7-2.3c-1.5-0.9-2.9-1.9-4.1-3
		c-1.3-1.1-2.5-2.4-3.5-3.7c-1.1-1.3-2-2.8-2.8-4.3c-0.8-1.5-1.5-3.1-2-4.8c-0.5-1.7-0.9-3.4-1.1-5.1"/>
	<polyline class="st4" points="40.2,276.9 44.4,283.1 38.2,287.3 	"/>
	<polyline class="st4" points="58.3,233.6 54,227.4 60.3,223.1 	"/>
	<path class="st4" d="M35.4,225.1c8.9,0,16.2,7.2,16.2,16.2c0,8.9-7.2,16.2-16.2,16.2c-8.9,0-16.2-7.2-16.2-16.2
		C19.2,232.3,26.5,225.1,35.4,225.1L35.4,225.1z"/>
	<line class="st4" x1="26.6" y1="238.5" x2="39" y2="238.5"/>
	<line class="st4" x1="25.7" y1="244" x2="38.2" y2="244"/>
	<path class="st4" d="M41.9,247.4c-0.6,0.8-1.4,1.4-2.3,1.9c-0.8,0.4-1.8,0.7-2.8,0.7c-1,0-1.9-0.2-2.8-0.7
		c-0.8-0.4-1.6-1.1-2.3-1.9c-0.6-0.8-1.2-1.7-1.5-2.8c-0.4-1-0.6-2.2-0.6-3.4c0-1.2,0.2-2.3,0.6-3.4c0.4-1,0.9-2,1.5-2.8
		c0.6-0.8,1.4-1.4,2.3-1.9c0.8-0.4,1.8-0.7,2.8-0.7c1,0,1.9,0.2,2.8,0.7c0.8,0.4,1.6,1.1,2.3,1.9"/>
	<line class="st4" x1="63.1" y1="258.2" x2="63.1" y2="261.6"/>
	<line class="st4" x1="63.1" y1="276.8" x2="63.1" y2="280.2"/>
	<path class="st4" d="M63.1,253c8.9,0,16.2,7.2,16.2,16.2s-7.2,16.2-16.2,16.2c-8.9,0-16.2-7.2-16.2-16.2S54.1,253,63.1,253
		L63.1,253z"/>
	<path class="st4" d="M68.1,263.4c-1.6-0.5-3-1-4.5-1.2c-7.8-0.9-8.8,7-0.5,6.9c8.1,0,7.3,7.8-0.5,6.9c-1.4-0.2-2.9-0.7-4.5-1.2"/>
</g>
<g>
	<line class="st4" x1="165.5" y1="255.6" x2="165.5" y2="259.5"/>
	<line class="st4" x1="165.5" y1="276.3" x2="165.5" y2="280.2"/>
	<path class="st4" d="M165.5,250.1c9.8,0,17.8,8,17.8,17.8c0,9.8-8,17.8-17.8,17.8s-17.8-8-17.8-17.8
		C147.7,258.1,155.7,250.1,165.5,250.1L165.5,250.1z"/>
	<path class="st4" d="M171.1,261.5c-1.8-0.6-3.4-1.1-5-1.3c-8.7-1-9.8,7.8-0.6,7.7c9,0,8.1,8.7-0.6,7.7c-1.6-0.2-3.2-0.7-5-1.3"/>
	<polyline class="st4" points="134,231.3 127,231.3 127,224.3 163.3,224.3 163.3,231.3 	"/>
	<polyline class="st4" points="133.8,238.3 133.8,231.3 170.1,231.3 170.1,238.3 159.8,238.3 	"/>
	<polyline class="st4" points="123.3,245.3 123.3,238.3 159.6,238.3 159.6,245.3 	"/>
	<polyline class="st4" points="123.3,252.3 123.3,245.3 159.6,245.3 159.6,250.4 	"/>
	<polyline class="st4" points="123.3,259.3 123.3,252.3 156.7,252.3 	"/>
	<polyline class="st4" points="123.3,266.3 123.3,259.3 149.8,259.3 	"/>
	<polyline class="st4" points="123.3,273.3 123.3,266.3 147.5,266.3 	"/>
	<polyline class="st4" points="152.3,280.3 123.3,280.3 123.3,273.3 148.3,273.3 	"/>
</g>
<g>
	<path class="st5" d="M232.1,243.3c-2.6,0-4.6,2.1-4.6,4.6c0,2.6,2.1,4.6,4.6,4.6s4.6-2.1,4.6-4.6
		C236.7,245.4,234.6,243.3,232.1,243.3L232.1,243.3z M247.2,227.9c-2.6,0-4.6,2.1-4.6,4.6c0,2.6,2.1,4.6,4.6,4.6s4.6-2.1,4.6-4.6
		C251.9,230,249.8,227.9,247.2,227.9L247.2,227.9z M262.4,241.7c-2.6,0-4.6,2.1-4.6,4.6c0,2.6,2.1,4.6,4.6,4.6
		c2.6,0,4.6-2.1,4.6-4.6C267,243.8,264.9,241.7,262.4,241.7L262.4,241.7z M277.5,234.7c-2.6,0-4.6,2.1-4.6,4.6
		c0,2.6,2.1,4.6,4.6,4.6s4.6-2.1,4.6-4.6C282.2,236.8,280.1,234.7,277.5,234.7L277.5,234.7z"/>
	<line class="st4" x1="224.8" y1="279.3" x2="284.8" y2="279.3"/>
	<polygon class="st4" points="228.1,262.3 236.1,262.3 236.1,279.2 228.1,279.2 228.1,262.3 	"/>
	<polygon class="st4" points="243.2,247.1 251.3,247.1 251.3,279.2 243.2,279.2 243.2,247.1 	"/>
	<polygon class="st4" points="258.4,260.7 266.4,260.7 266.4,279.2 258.4,279.2 258.4,260.7 	"/>
	<polygon class="st4" points="273.5,253.6 281.6,253.6 281.6,279.2 273.5,279.2 273.5,253.6 	"/>
	<path class="st4" d="M236.2,243.7l7.2-7.1 M251.4,236.3l7.2,6.6 M267,244.4l5.4-2.6"/>
</g>
<g>
	<path class="st5" d="M373.1,228c3.5,0,6.3,2.8,6.3,6.3c0,3.5-2.8,6.3-6.3,6.3c-3.5,0-6.3-2.8-6.3-6.3
		C366.7,230.8,369.6,228,373.1,228L373.1,228z"/>
	<path class="st4" d="M379.4,247.8c1.9,3.7,3,7.9,3,12.4c0,15-12.2,27.2-27.2,27.2c-15,0-27.2-12.2-27.2-27.2
		c0-15,12.2-27.2,27.2-27.2c1.5,0,2.9,0.1,4.3,0.3"/>
	<line class="st4" x1="328" y1="260.1" x2="382.4" y2="260.1"/>
	<path class="st4" d="M364.4,246.2c-2.8,0.7-5.9,1.2-9.2,1.2c-8,0-15-2.5-19.2-6.2"/>
	<path class="st4" d="M374.4,279c-4.2-3.7-11.2-6.2-19.2-6.2c-8,0-15,2.5-19.2,6.2"/>
	<path class="st4" d="M355.1,287c-6.3-5.8-10.5-15.6-10.5-26.8c0-11.2,4.2-21,10.5-26.8"/>
	<path class="st4" d="M355.8,287c6.3-5.8,10.5-15.6,10.5-26.8c0-11.2-4.2-21-10.5-26.8"/>
	<path class="st4" d="M373.1,221.7c3.5,0,6.7,1.4,9,3.7c2.3,2.3,3.7,5.5,3.7,9c0,2-0.5,4-1.3,5.7c-1.6,3.3-9.9,9-11.4,15.2
		c-2.4-6-9.8-11.9-11.4-15.2c-0.9-1.7-1.3-3.7-1.3-5.7C360.3,227.4,366,221.7,373.1,221.7L373.1,221.7z"/>
</g>
<g>
	<path class="st4" d="M556.8,239.8h19 M545.2,238.7l2.4,3.1l2.8-3.6 M556.8,247.9h19 M545.2,246.7l2.4,3.1l2.8-3.6 M556.8,255.9h19
		 M545.2,254.7l2.4,3.1l2.8-3.6"/>
	<polygon class="st4" points="534.8,229.9 586.3,229.9 586.3,266.6 534.8,266.6 534.8,229.9 	"/>
	<line class="st4" x1="530.5" y1="229.8" x2="590.5" y2="229.8"/>
	<line class="st4" x1="560.5" y1="266.6" x2="560.5" y2="282.6"/>
	<line class="st4" x1="560.5" y1="229.8" x2="560.5" y2="225.3"/>
	<line class="st4" x1="560.6" y1="274.9" x2="577.2" y2="285.4"/>
	<line class="st4" x1="560.4" y1="274.9" x2="543.8" y2="285.4"/>
</g>
<g>
	<path class="st4" d="M636.9,231.6h52.8c2,0,3.6,1.6,3.6,3.6v42.1c0,2-1.6,3.6-3.6,3.6h-52.8c-2,0-3.6-1.6-3.6-3.6v-42.1
		C633.3,233.2,634.9,231.6,636.9,231.6L636.9,231.6z M645,227.6v8.4 M657.2,227.6v8.4 M669.4,227.6v8.4 M681.6,227.6v8.4
		 M644.1,249.3v2.1 M653.7,249.3v2.1 M663.3,249.3v2.1 M673,249.3v2.1 M644.1,270.5v2.1 M653.7,270.5v2.1 M663.3,270.5v2.1
		 M682.5,249.2v2.1 M644.1,259.9v2.1 M670.7,257.2h4.2c1,0,1.7,0.8,1.7,1.7v4.2c0,1-0.8,1.7-1.7,1.7h-4.2c-1,0-1.7-0.8-1.7-1.7v-4.2
		C669,258,669.8,257.2,670.7,257.2L670.7,257.2z M682.5,259.9v2.1 M663.3,259.9v2.1 M653.6,259.9v2.1"/>
	<line class="st5" x1="633.3" y1="241.1" x2="693.3" y2="241.1"/>
</g>
<g>
	<line class="st6" x1="845.5" y1="243" x2="837.9" y2="252.4"/>
	<line class="st6" x1="895.5" y1="252.4" x2="887.8" y2="242.9"/>
	<polyline class="st6" points="895.3,251.7 895.3,284.4 838.1,284.4 838.1,251.7 	"/>
	<g>
		<line class="st6" x1="855.4" y1="269.2" x2="838.3" y2="284.7"/>
		<line class="st6" x1="895.1" y1="284.7" x2="878" y2="269.2"/>
	</g>
	<polygon class="st6" points="887.6,224.1 845.8,224.1 845.8,258.8 855.5,268.7 877.9,268.7 887.6,258.8 	"/>
	<polyline class="st6" points="838.5,251.7 856.2,268.7 877.2,268.7 894.9,251.7 	"/>
	<g>
		<path class="st6" d="M874.4,241.1c0.1,0,0.2-0.1,0.3-0.1h0.1c0.7,0,1.3,0.6,1.3,1.3v2.4c0,0.7-0.6,1.3-1.3,1.3h-0.1"/>
		<path class="st6" d="M858.2,260.5v-3.3c0-1.5,1.4-2.6,3-2.6h13.3c1.7,0,3,1.2,3,2.6v3.3"/>
		<path class="st6" d="M874.6,240.6v5.6c0,3.7-3,6.7-6.8,6.7l0,0c-3.7,0-6.8-3-6.8-6.7v-5.3"/>
		<path class="st6" d="M865.4,233.8c-1.1,0-2.1,0.6-2.6,1.4h-1.1c-1.3,0-2.4,1.1-2.4,2.4v8.7h1.7V241c0-0.9,0.8-1.7,1.7-1.7h1h8.4
			h1.6c1.7,0,3.1-1.4,3.1-3.1v-2.5H865.4z"/>
		<path class="st6" d="M861.1,241.1c-0.7,0.1-1.8,0.6-1.8,1.3v2.4c0,0.7,1.1,1.2,1.8,1.3V241.1z"/>
		<line class="st6" x1="869.6" y1="254.9" x2="869.6" y2="258"/>
		<line class="st6" x1="867.4" y1="254.9" x2="867.4" y2="258"/>
	</g>
</g>
<g>
	<line class="st4" x1="989.5" y1="282.3" x2="969.7" y2="266.1"/>
	<line class="st4" x1="958.4" y1="266.2" x2="938.7" y2="282.3"/>
	<polygon class="st4" points="937.2,248 990.2,248 990.2,282.8 937.2,282.8 937.2,248 	"/>
	<polyline class="st4" points="990.2,248 963.7,269.7 937.2,248 	"/>
	<polyline class="st4" points="944.2,247 944.2,225.8 997.2,225.8 997.2,260.6 990.5,260.6 	"/>
	<polygon class="st4" points="984,232.4 990.8,232.4 990.8,240.5 984,240.5 984,232.4 	"/>
	<line class="st4" x1="949.6" y1="234.9" x2="972.1" y2="234.9"/>
	<line class="st4" x1="949.6" y1="240.4" x2="972.1" y2="240.4"/>
</g>
<g>
	<polygon class="st4" points="121.9,337.8 172.4,337.8 172.4,375.1 147.3,375.1 131.6,388.3 131.6,375.1 121.9,375.1 121.9,337.8 	
		"/>
	<polyline class="st4" points="131.5,337.7 131.5,328.2 181.9,328.2 181.9,365.5 173.2,365.5 	"/>
	<line class="st4" x1="136.5" y1="348.8" x2="159.1" y2="348.8"/>
	<line class="st4" x1="136.5" y1="355.1" x2="159.1" y2="355.1"/>
	<line class="st4" x1="136.5" y1="361.3" x2="147.8" y2="361.3"/>
</g>
<g>
	<path class="st4" d="M244,345.6L244,345.6c1.8-1.1,4.3-0.6,5.4,1.3l5.5,9c0.2-1,0.8-1.9,1.8-2.5h0c1.7-1,3.9-0.7,5.1,0.8
		c0.1-1.2,0.7-2.4,1.9-3.1l0,0c1.7-1,3.9-0.7,5.1,0.8c0.1-1.2,0.7-2.4,1.9-3.1h0c1.8-1.1,4.4-0.6,5.4,1.3l7.7,14
		c6.2,11.4-5.8,26-17.9,20.3l-21-9.9c-2-0.9-2.8-3.3-1.9-5.3c1.8-1.1,5.8-1.6,7.7-0.7l4,1.9l-12-19.4
		C241.6,349.2,242.2,346.8,244,345.6L244,345.6z"/>
	<path class="st4" d="M241.7,359.1c-4.5-1.6-7.6-5.8-7.6-10.8c0-6.3,5.1-11.5,11.5-11.5c5.7,0,10.5,4.2,11.3,9.7"/>
	<path class="st4" d="M237.1,366.4c-6.9-3.2-11.6-10.1-11.6-18.2c0-11.1,9-20,20-20c9.3,0,17.1,6.3,19.4,14.9"/>
</g>
<g>
	<path class="st9" d="M365.2,367.1c2.9,0,5.5-2.8,5.5-5.5v-12.3c0-4.5-8.9-6.8-13.6-6.8c-4.7,0-13.6,2.3-13.6,6.8v12.3
		c0,2.7,2.5,5.5,5.5,5.5"/>
	<path class="st9" d="M381.6,369.8c2.7,0,5.5-1.4,5.5-4.1v-12.3c0-4.5-8-6.8-12.3-6.8c-0.4,0-0.9,0-1.4,0.1"/>
	<path class="st9" d="M357,338.5c3.2,0,5.5-2.2,5.5-5.5v-2.7c0-3.2-2.3-5.5-5.5-5.5s-5.5,2.2-5.5,5.5v2.7
		C351.6,336.3,353.8,338.5,357,338.5z"/>
	<line class="st9" x1="381.6" y1="387.6" x2="381.6" y2="356.2"/>
	<line class="st9" x1="365.2" y1="387.6" x2="365.2" y2="352.1"/>
	<line class="st9" x1="348.8" y1="352.1" x2="348.8" y2="387.6"/>
	<line class="st9" x1="357" y1="365.8" x2="357" y2="387.6"/>
	<path class="st9" d="M374.8,342.6c3.2,0,5.5-2.2,5.5-5.5v-2.7c0-3.2-2.3-5.5-5.5-5.5s-5.5,2.2-5.5,5.5v2.7
		C369.3,340.3,371.6,342.6,374.8,342.6z"/>
	<path class="st9" d="M332.5,369.8c-2.7,0-5.5-1.4-5.5-4.1v-12.3c0-4.5,8-6.8,12.3-6.8c0.4,0,0.9,0,1.4,0.1"/>
	<line class="st9" x1="332.5" y1="387.6" x2="332.5" y2="356.2"/>
	<path class="st9" d="M339.3,342.6c-3.2,0-5.5-2.2-5.5-5.5v-2.7c0-3.2,2.3-5.5,5.5-5.5c3.2,0,5.5,2.2,5.5,5.5v2.7
		C344.8,340.3,342.5,342.6,339.3,342.6z"/>
</g>
<g>
	<path class="st8" d="M487.6,253.5c-1.3,0-2.4,1.1-2.4,2.4c0,1.3,1.1,2.4,2.4,2.4c1.3,0,2.4-1.1,2.4-2.4
		C490,254.6,488.9,253.5,487.6,253.5z M487.6,256.9c-0.6,0-1-0.5-1-1s0.5-1,1-1c0.6,0,1,0.5,1,1S488.2,256.9,487.6,256.9z"/>
	<path class="st8" d="M493,256.6l-7.1-20.1c-0.2-0.7-0.9-1.2-1.7-1.2c-0.2,0-0.4,0-0.6,0.1l-6,2.1c-0.4,0.2-0.8,0.5-1,0.9
		c-0.2,0.4-0.2,0.9-0.1,1.3l0.2,0.6c-4.7,1.3-8.5,0.3-11.8-0.5c-0.7-0.2-1.3-0.3-2-0.5c-2.9-0.6-5.8-1.2-7.4-0.9
		c-1.9,0.3-4.4,1.6-6.3,3.3c-0.1,0-0.1,0.1-0.2,0.1c-0.3,0-0.6,0-1,0c-2.9,0-6.2,0.1-9.1-1.6l0.2-0.5c0.2-0.4,0.1-0.9-0.1-1.3
		s-0.6-0.7-1-0.9l-6-2.1c-0.2-0.1-0.4-0.1-0.6-0.1c-0.7,0-1.4,0.5-1.7,1.2l-7.1,20.1c-0.3,0.9,0.2,1.9,1.1,2.3l6,2.1
		c0.2,0.1,0.4,0.1,0.6,0.1h0c0.7,0,1.4-0.5,1.7-1.2l0,0c0.7,0.7,1.7,1.8,2.8,3.2c0.7,0.8,1.4,1.7,2.2,2.6l-0.7,0.9
		c-0.5,0.6-0.7,1.5-0.6,2.3c0.1,0.8,0.5,1.5,1.2,2c0.5,0.4,1.2,0.6,1.9,0.6c0.3,0,0.7-0.1,1-0.2c0,0.2,0,0.3,0,0.5
		c0.1,0.9,0.6,1.7,1.3,2.3c0.6,0.4,1.3,0.7,2,0.7c0.4,0,0.9-0.1,1.3-0.2c0,0.2,0,0.3,0,0.5c0.1,0.9,0.6,1.7,1.3,2.3
		c0.6,0.4,1.3,0.7,2,0.7c0.5,0,1-0.1,1.5-0.3c0.1,0.8,0.5,1.7,1.2,2.2c0.5,0.4,1.2,0.6,1.9,0.6c0.9,0,1.7-0.4,2.3-1l3.5,2.1l0,0
		c0.6,0.4,1.3,0.6,2.1,0.6c0.4,0,0.7,0,1.1-0.2c1.1-0.3,2-1,2.5-2c0.4-0.6,0.5-1.3,0.5-2l1.7,0.9c0.6,0.4,1.3,0.6,2.1,0.6
		c0.4,0,0.7-0.1,1.1-0.2c1.1-0.3,2-1,2.5-2c0.3-0.6,0.5-1.3,0.5-1.9c0.5,0.2,1.1,0.3,1.6,0.3c0.4,0,0.7-0.1,1.1-0.2
		c1.1-0.3,2-1,2.5-2c0.4-0.8,0.6-1.7,0.5-2.5c0.1,0,0.2,0,0.4,0c1.5,0,2.9-0.8,3.6-2.1c0.5-1,0.7-2.1,0.4-3.1c-0.3-1-1-1.9-1.9-2.5
		c-0.2-0.2-0.5-0.4-0.8-0.6c0.6-0.6,1.9-2,3.8-2.9l0,0c0.2,0.7,0.9,1.2,1.7,1.2c0.2,0,0.4,0,0.6-0.1l6-2.1
		C492.9,258.5,493.4,257.5,493,256.6z M430.6,259.6c0,0-0.1,0-0.1,0l-6-2.1c-0.2-0.1-0.3-0.3-0.2-0.5l7.1-20.1
		c0.1-0.2,0.2-0.3,0.4-0.3c0,0,0.1,0,0.1,0l6,2.1c0.1,0,0.2,0.1,0.2,0.2c0,0.1,0.1,0.2,0,0.3l-7.1,20.1
		C430.9,259.5,430.7,259.6,430.6,259.6z M438,269.7c-0.4-0.3-0.6-0.7-0.6-1.1c-0.1-0.4,0.1-0.9,0.3-1.2l1-1.4c0,0,0,0,0,0
		c0.3-0.4,0.8-0.7,1.3-0.7c0.4,0,0.7,0.1,1,0.3c0.7,0.6,0.9,1.6,0.3,2.4l-1,1.4c-0.3,0.4-0.8,0.7-1.3,0.7
		C438.7,270.1,438.3,270,438,269.7z M442.1,273c-0.4-0.3-0.7-0.8-0.8-1.3c-0.1-0.6,0.1-1.1,0.4-1.6l1.2-1.6c0.4-0.5,1.1-0.9,1.7-0.9
		c0.4,0,0.8,0.1,1.2,0.4c0.9,0.7,1,2,0.3,2.9l-1.2,1.6c-0.4,0.5-1.1,0.9-1.7,0.9C442.9,273.4,442.5,273.3,442.1,273z M446.7,276.2
		c-0.4-0.3-0.7-0.8-0.8-1.3c-0.1-0.6,0.1-1.1,0.4-1.6l1.2-1.6c0.4-0.5,1.1-0.9,1.7-0.9c0.4,0,0.8,0.1,1.2,0.4
		c0.4,0.3,0.7,0.8,0.8,1.3c0.1,0.6-0.1,1.1-0.4,1.6l-1.2,1.6c-0.4,0.5-1.1,0.9-1.7,0.9C447.5,276.6,447.1,276.5,446.7,276.2z
		 M452.5,279.1c-0.4,0-0.7-0.1-1-0.3c-0.7-0.6-0.9-1.6-0.3-2.4l1-1.4c0.3-0.4,0.8-0.7,1.3-0.7c0.4,0,0.7,0.1,1,0.3
		c0.7,0.6,0.9,1.6,0.3,2.4l-0.8,1c0,0,0,0,0,0l-0.2,0.3C453.5,278.9,453,279.1,452.5,279.1z M481.1,268.3c-0.7,1.2-2.1,1.7-3.4,1.3
		c-0.2-0.1-0.3-0.1-0.5-0.2l-8.9-5.1c-0.3-0.2-0.8-0.1-0.9,0.3c-0.2,0.3-0.1,0.8,0.3,0.9l8.9,5.1c0.1,0,0.2,0.1,0.2,0.1
		c0,0,0,0.1,0,0.1c0.2,0.7,0.1,1.5-0.3,2.1c-0.4,0.7-1,1.1-1.7,1.3c-0.7,0.2-1.5,0.1-2.1-0.3l-9.1-5.2c-0.3-0.2-0.8-0.1-0.9,0.3
		c-0.2,0.3-0.1,0.8,0.3,0.9l8.1,4.6c0.2,0.7,0.1,1.4-0.3,2c-0.4,0.7-1,1.1-1.7,1.3c-0.7,0.2-1.5,0.1-2.1-0.3l-8.2-4.7
		c-0.3-0.2-0.8-0.1-0.9,0.3c-0.2,0.3-0.1,0.8,0.3,0.9l5,2.9c0.2,0.7,0.1,1.5-0.3,2.2c-0.4,0.7-1,1.1-1.7,1.3
		c-0.7,0.2-1.5,0.1-2.1-0.3l-3.4-2l0.3-0.5c1-1.3,0.8-3.3-0.6-4.3c-0.5-0.4-1.2-0.6-1.9-0.6c-0.3,0-0.6,0-0.8,0.1c0-0.2,0-0.5,0-0.7
		c-0.1-0.9-0.6-1.7-1.3-2.3c-0.6-0.4-1.3-0.7-2-0.7c-0.4,0-0.9,0.1-1.3,0.2c0-1.1-0.4-2.1-1.3-2.8c-0.6-0.4-1.3-0.7-2-0.7
		c-0.6,0-1.2,0.2-1.7,0.4c-0.1-0.8-0.5-1.5-1.2-2c-0.5-0.4-1.2-0.6-1.9-0.6c-0.7,0-1.3,0.2-1.8,0.6c-0.8-0.9-1.4-1.7-2.1-2.5
		c-1.4-1.7-2.5-3-3.4-3.7l5.9-16.8c2.7,1.5,5.7,1.7,8.3,1.7c0.3,0,0.6,0,0.9,0c-0.1,0.1-0.2,0.2-0.3,0.3c-0.6,0.6-1.2,1.2-1.8,1.8
		c-0.3,0.3-0.7,0.6-1,0.9c-0.8,0.7-1.6,1.4-1.9,2.1c-0.3,0.6-0.4,1.2-0.3,1.7c0.1,0.5,0.3,1,0.7,1.3c0.9,0.9,2.4,1,3.5,1
		c1.3,0,2.6-0.3,3.4-0.7c0.8-0.4,1.6-1,2.4-1.6c0.8-0.6,1.6-1.1,2.3-1.4c0.6-0.2,2.4-0.6,3.3-0.3c4.2,1.4,11.1,7.2,16.1,11.5
		c2.3,2,4.4,3.7,5.7,4.6C481.3,265.4,481.8,267,481.1,268.3z M478.8,261.9c-1.1-0.8-2.3-1.9-3.7-3.1c-2.6-2.2-5.6-4.7-8.5-6.9
		c-3.4-2.6-6-4.1-8-4.8c-1.4-0.5-3.7,0.1-4.3,0.4c-0.9,0.4-1.7,1-2.6,1.6c-0.7,0.5-1.5,1.1-2.2,1.4c-0.7,0.3-1.8,0.5-2.9,0.6
		c-1.2,0-2.1-0.2-2.5-0.6c-0.1-0.1-0.5-0.5-0.1-1.5c0.2-0.5,0.9-1,1.5-1.6c0.4-0.3,0.7-0.6,1.1-1c0.6-0.6,1.2-1.3,1.8-1.9
		c0.6-0.7,1.2-1.3,1.7-1.7c1.9-1.7,4.2-2.7,5.6-3c1.4-0.2,4.3,0.3,6.9,0.9c0.6,0.1,1.3,0.3,2,0.5c1.8,0.5,3.8,0.9,5.9,1.1
		c2.3,0.2,4.5,0,6.7-0.6l5.9,16.8C481,259.6,479.5,261.1,478.8,261.9z M491.5,257.5l-6,2.1c0,0-0.1,0-0.1,0c-0.2,0-0.3-0.1-0.4-0.3
		l-7.1-20.1c0-0.1,0-0.2,0-0.3c0-0.1,0.1-0.2,0.2-0.2l6-2.1c0,0,0.1,0,0.1,0c0.2,0,0.3,0.1,0.4,0.3l7.1,20.1
		C491.8,257.2,491.7,257.4,491.5,257.5z"/>
	<path class="st8" d="M428.4,253.5c-1.3,0-2.4,1.1-2.4,2.4c0,1.3,1.1,2.4,2.4,2.4c1.3,0,2.4-1.1,2.4-2.4
		C430.8,254.6,429.7,253.5,428.4,253.5z M428.4,256.9c-0.6,0-1-0.5-1-1c0-0.6,0.5-1,1-1c0.6,0,1,0.5,1,1
		C429.4,256.5,428.9,256.9,428.4,256.9z"/>
</g>
<g>
	<path class="st4" d="M774.1,229.2h0.5c1.6,0,3,1.3,3,3V271c0,1.6-1.3,3-3,3h-0.5c-1.7,0-12-15.2-23-15.2h-13.7
		c-2.2,0-4.1-1.8-4.1-4.1v-6.3c0-2.2,1.8-4.1,4.1-4.1h13.7C762.1,244.4,772.4,229.2,774.1,229.2L774.1,229.2z"/>
	<path class="st4" d="M777.5,244.3c3.2,0.9,5.5,3.8,5.5,7.3c0,3.4-2.3,6.4-5.5,7.3"/>
	<line class="st4" x1="751.3" y1="244.4" x2="751.3" y2="258.8"/>
	<path class="st4" d="M748.1,258.8c0.6,3.2-0.3,6.5,1.7,9.5l3.3,5.1c0.8,1.3-0.5,3.5-2,3.5h-4.9c-1.5,0-3.1-1.2-3.4-2.7l-3.7-15.5
		H748.1L748.1,258.8z"/>
	<path class="st4" d="M791.1,261c1.5-2.9,2.3-6.2,2.2-9.4c0-3.2-0.8-6.4-2.4-9.4"/>
	<path class="st4" d="M786.3,257c0.9-1.7,1.3-3.6,1.3-5.5c0-1.9-0.5-3.8-1.4-5.5"/>
	<path class="st4" d="M772.9,240.4c-2.5,4.3-7.1,7.5-12.9,8.4c-1,0.2-2,0.2-3,0.2"/>
</g>
<g>
	<path class="st8" d="M80.6,353.5c-1.3,0-2.4,1.1-2.4,2.4c0,1.3,1.1,2.4,2.4,2.4c1.3,0,2.4-1.1,2.4-2.4
		C83,354.6,81.9,353.5,80.6,353.5z M80.6,356.9c-0.6,0-1-0.5-1-1s0.5-1,1-1c0.6,0,1,0.5,1,1S81.2,356.9,80.6,356.9z"/>
	<path class="st8" d="M86,356.6L79,336.5c-0.2-0.7-0.9-1.2-1.7-1.2c-0.2,0-0.4,0-0.6,0.1l-6,2.1c-0.4,0.2-0.8,0.5-1,0.9
		c-0.2,0.4-0.2,0.9-0.1,1.3l0.2,0.6c-4.7,1.3-8.5,0.3-11.8-0.5c-0.7-0.2-1.3-0.3-2-0.5c-2.9-0.6-5.8-1.2-7.4-0.9
		c-1.9,0.3-4.4,1.6-6.3,3.3c-0.1,0-0.1,0.1-0.2,0.1c-0.3,0-0.6,0-1,0c-2.9,0-6.2,0.1-9.1-1.6l0.2-0.5c0.2-0.4,0.1-0.9-0.1-1.3
		c-0.2-0.4-0.6-0.7-1-0.9l-6-2.1c-0.2-0.1-0.4-0.1-0.6-0.1c-0.7,0-1.4,0.5-1.7,1.2l-7.1,20.1c-0.3,0.9,0.2,1.9,1.1,2.3l6,2.1
		c0.2,0.1,0.4,0.1,0.6,0.1h0c0.7,0,1.4-0.5,1.7-1.2l0,0c0.7,0.7,1.7,1.8,2.8,3.2c0.7,0.8,1.4,1.7,2.2,2.6l-0.7,0.9
		c-0.5,0.6-0.7,1.5-0.6,2.3c0.1,0.8,0.5,1.5,1.2,2c0.5,0.4,1.2,0.6,1.9,0.6c0.3,0,0.7-0.1,1-0.2c0,0.2,0,0.3,0,0.5
		c0.1,0.9,0.6,1.7,1.3,2.3c0.6,0.4,1.3,0.7,2,0.7c0.4,0,0.9-0.1,1.3-0.2c0,0.2,0,0.3,0,0.5c0.1,0.9,0.6,1.7,1.3,2.3
		c0.6,0.4,1.3,0.7,2,0.7c0.5,0,1-0.1,1.5-0.3c0.1,0.8,0.5,1.7,1.2,2.2c0.5,0.4,1.2,0.6,1.9,0.6c0.9,0,1.7-0.4,2.3-1l3.5,2.1l0,0
		c0.6,0.4,1.3,0.6,2.1,0.6c0.4,0,0.7,0,1.1-0.2c1.1-0.3,2-1,2.5-2c0.4-0.6,0.5-1.3,0.5-2l1.7,0.9c0.6,0.4,1.3,0.6,2.1,0.6
		c0.4,0,0.7-0.1,1.1-0.2c1.1-0.3,2-1,2.5-2c0.3-0.6,0.5-1.3,0.5-1.9c0.5,0.2,1.1,0.3,1.6,0.3c0.4,0,0.7-0.1,1.1-0.2
		c1.1-0.3,2-1,2.5-2c0.4-0.8,0.6-1.7,0.5-2.5c0.1,0,0.2,0,0.4,0c1.5,0,2.9-0.8,3.6-2.1c0.5-1,0.7-2.1,0.4-3.1c-0.3-1-1-1.9-1.9-2.5
		c-0.2-0.2-0.5-0.4-0.8-0.6c0.6-0.6,1.9-2,3.8-2.9l0,0c0.2,0.7,0.9,1.2,1.7,1.2c0.2,0,0.4,0,0.6-0.1l6-2.1
		C85.9,358.5,86.4,357.5,86,356.6z M23.6,359.6c0,0-0.1,0-0.1,0l-6-2.1c-0.2-0.1-0.3-0.3-0.2-0.5l7.1-20.1c0.1-0.2,0.2-0.3,0.4-0.3
		c0,0,0.1,0,0.1,0l6,2.1c0.1,0,0.2,0.1,0.2,0.2c0,0.1,0.1,0.2,0,0.3L24,359.4C23.9,359.5,23.7,359.6,23.6,359.6z M31,369.7
		c-0.4-0.3-0.6-0.7-0.6-1.1c-0.1-0.4,0.1-0.9,0.3-1.2l1-1.4c0,0,0,0,0,0c0.3-0.4,0.8-0.7,1.3-0.7c0.4,0,0.7,0.1,1,0.3
		c0.7,0.6,0.9,1.6,0.3,2.4l-1,1.4c-0.3,0.4-0.8,0.7-1.3,0.7C31.7,370.1,31.3,370,31,369.7z M35.1,373c-0.4-0.3-0.7-0.8-0.8-1.3
		c-0.1-0.6,0.1-1.1,0.4-1.6l1.2-1.6c0.4-0.5,1.1-0.9,1.7-0.9c0.4,0,0.8,0.1,1.2,0.4c0.9,0.7,1,2,0.3,2.9l-1.2,1.6
		c-0.4,0.5-1.1,0.9-1.7,0.9C35.9,373.4,35.5,373.3,35.1,373z M39.7,376.2c-0.4-0.3-0.7-0.8-0.8-1.3c-0.1-0.6,0.1-1.1,0.4-1.6
		l1.2-1.6c0.4-0.5,1.1-0.9,1.7-0.9c0.4,0,0.8,0.1,1.2,0.4c0.4,0.3,0.7,0.8,0.8,1.3c0.1,0.6-0.1,1.1-0.4,1.6l-1.2,1.6
		c-0.4,0.5-1.1,0.9-1.7,0.9C40.5,376.6,40.1,376.5,39.7,376.2z M45.5,379.1c-0.4,0-0.7-0.1-1-0.3c-0.7-0.6-0.9-1.6-0.3-2.4l1-1.4
		c0.3-0.4,0.8-0.7,1.3-0.7c0.4,0,0.7,0.1,1,0.3c0.7,0.6,0.9,1.6,0.3,2.4l-0.8,1c0,0,0,0,0,0l-0.2,0.3
		C46.5,378.9,46,379.1,45.5,379.1z M74.1,368.3c-0.7,1.2-2.1,1.7-3.4,1.3c-0.2-0.1-0.3-0.1-0.5-0.2l-8.9-5.1
		c-0.3-0.2-0.8-0.1-0.9,0.3c-0.2,0.3-0.1,0.8,0.3,0.9l8.9,5.1c0.1,0,0.2,0.1,0.2,0.1c0,0,0,0.1,0,0.1c0.2,0.7,0.1,1.5-0.3,2.1
		c-0.4,0.7-1,1.1-1.7,1.3c-0.7,0.2-1.5,0.1-2.1-0.3l-9.1-5.2c-0.3-0.2-0.8-0.1-0.9,0.3c-0.2,0.3-0.1,0.8,0.3,0.9l8.1,4.6
		c0.2,0.7,0.1,1.4-0.3,2c-0.4,0.7-1,1.1-1.7,1.3c-0.7,0.2-1.5,0.1-2.1-0.3l-8.2-4.7c-0.3-0.2-0.8-0.1-0.9,0.3
		c-0.2,0.3-0.1,0.8,0.3,0.9l5,2.9c0.2,0.7,0.1,1.5-0.3,2.2c-0.4,0.7-1,1.1-1.7,1.3c-0.7,0.2-1.5,0.1-2.1-0.3l-3.4-2l0.3-0.5
		c1-1.3,0.8-3.3-0.6-4.3c-0.5-0.4-1.2-0.6-1.9-0.6c-0.3,0-0.6,0-0.8,0.1c0-0.2,0-0.5,0-0.7c-0.1-0.9-0.6-1.7-1.3-2.3
		c-0.6-0.4-1.3-0.7-2-0.7c-0.4,0-0.9,0.1-1.3,0.2c0-1.1-0.4-2.1-1.3-2.8c-0.6-0.4-1.3-0.7-2-0.7c-0.6,0-1.2,0.2-1.7,0.4
		c-0.1-0.8-0.5-1.5-1.2-2c-0.5-0.4-1.2-0.6-1.9-0.6c-0.7,0-1.3,0.2-1.8,0.6c-0.8-0.9-1.4-1.7-2.1-2.5c-1.4-1.7-2.5-3-3.4-3.7
		l5.9-16.8c2.7,1.5,5.7,1.7,8.3,1.7c0.3,0,0.6,0,0.9,0c-0.1,0.1-0.2,0.2-0.3,0.3c-0.6,0.6-1.2,1.2-1.8,1.8c-0.3,0.3-0.7,0.6-1,0.9
		c-0.8,0.7-1.6,1.4-1.9,2.1c-0.3,0.6-0.4,1.2-0.3,1.7c0.1,0.5,0.3,1,0.7,1.3c0.9,0.9,2.4,1,3.5,1c1.3,0,2.6-0.3,3.4-0.7
		c0.8-0.4,1.6-1,2.4-1.6c0.8-0.6,1.6-1.1,2.3-1.4c0.6-0.2,2.4-0.6,3.3-0.3c4.2,1.4,11.1,7.2,16.1,11.5c2.3,2,4.4,3.7,5.7,4.6
		C74.3,365.4,74.8,367,74.1,368.3z M71.8,361.9c-1.1-0.8-2.3-1.9-3.7-3.1c-2.6-2.2-5.6-4.7-8.5-6.9c-3.4-2.6-6-4.1-8-4.8
		c-1.4-0.5-3.7,0.1-4.3,0.4c-0.9,0.4-1.7,1-2.6,1.6c-0.7,0.5-1.5,1.1-2.2,1.4c-0.7,0.3-1.8,0.5-2.9,0.6c-1.2,0-2.1-0.2-2.5-0.6
		c-0.1-0.1-0.5-0.5-0.1-1.5c0.2-0.5,0.9-1,1.5-1.6c0.4-0.3,0.7-0.6,1.1-1c0.6-0.6,1.2-1.3,1.8-1.9c0.6-0.7,1.2-1.3,1.7-1.7
		c1.9-1.7,4.2-2.7,5.6-3c1.4-0.2,4.3,0.3,6.9,0.9c0.6,0.1,1.3,0.3,2,0.5c1.8,0.5,3.8,0.9,5.9,1.1c2.3,0.2,4.5,0,6.7-0.6l5.9,16.8
		C74,359.6,72.5,361.1,71.8,361.9z M84.5,357.5l-6,2.1c0,0-0.1,0-0.1,0c-0.2,0-0.3-0.1-0.4-0.3L71,339.3c0-0.1,0-0.2,0-0.3
		c0-0.1,0.1-0.2,0.2-0.2l6-2.1c0,0,0.1,0,0.1,0c0.2,0,0.3,0.1,0.4,0.3l7.1,20.1C84.8,357.2,84.7,357.4,84.5,357.5z"/>
	<path class="st8" d="M21.4,353.5c-1.3,0-2.4,1.1-2.4,2.4c0,1.3,1.1,2.4,2.4,2.4s2.4-1.1,2.4-2.4C23.8,354.6,22.7,353.5,21.4,353.5z
		 M21.4,356.9c-0.6,0-1-0.5-1-1c0-0.6,0.5-1,1-1c0.6,0,1,0.5,1,1C22.4,356.5,21.9,356.9,21.4,356.9z"/>
</g>
</svg>
