<?xml version="1.0" encoding="utf-8"?>
<!-- Generator: Adobe Illustrator 21.0.2, SVG Export Plug-In . SVG Version: 6.00 Build 0)  -->
<svg version="1.1" id="Layer_1" xmlns="http://www.w3.org/2000/svg" xmlns:xlink="http://www.w3.org/1999/xlink" x="0px" y="0px"
	 viewBox="0 0 168.3 35.9" style="enable-background:new 0 0 168.3 35.9;" xml:space="preserve">
<style type="text/css">
	.st0{fill:#F5D3A5;}
</style>
<g>
	<g>
		<path class="st0" d="M74.3,26.6c0,0,7.1,2.8,18.5-0.6c0,0,1-0.4,0.8,0.5c-0.2,0.8-6.1,2.7-13.8,2.6c0,0-5.9-0.1-6-0.7
			c-0.1-0.7,0.8,0.2,1.1-0.5c0.3-0.7-0.8-0.4-1.1-0.8C73.4,26.7,73.9,26.5,74.3,26.6z"/>
		<path class="st0" d="M72.4,29.9c0,0,9.2,2.7,23.5-1.4c0,0,1.2-0.4,1,0.5s-7.7,3-17.6,3.2c0,0-7.5,0.1-7.6-0.5
			c-0.1-0.7,1.1,0.1,1.4-0.6c0.3-0.8-1.1-0.4-1.4-0.7C71.3,30.1,71.8,29.8,72.4,29.9z"/>
		<path class="st0" d="M70.4,33.7c0,0,10.4,2,28.2-2.3c0,0,1.6-0.5,1.3,0.4c-0.3,0.8-9.8,3.1-21.7,3.7c0,0-8.4,0.4-8.5-0.1
			c-0.1-0.6,1.2,0.1,1.5-0.5c0.4-0.6-1.2-0.2-1.6-0.6C69.3,33.8,69.8,33.6,70.4,33.7z"/>
	</g>
	<g>
		<path class="st0" d="M68.2,33.3H1.6c-0.2,0-0.4-0.2-0.4-0.4c0-0.2,0.2-0.4,0.4-0.4h66.6c0.2,0,0.4,0.2,0.4,0.4
			S68.5,33.3,68.2,33.3z"/>
	</g>
	<g>
		<path class="st0" d="M133.5,33.3h-31.9c-0.2,0-0.4-0.2-0.4-0.4c0-0.2,0.2-0.4,0.4-0.4h31.9c0.2,0,0.4,0.2,0.4,0.4
			S133.8,33.3,133.5,33.3z"/>
	</g>
	<g>
		<path class="st0" d="M84.7,3c26.9,0,50.3,4.5,63.1,11.3C135,6,111.6,0.3,84.7,0.3s-50.3,5.6-63.1,14C34.4,7.5,57.8,3,84.7,3z"/>
	</g>
	<g>
		<path class="st0" d="M0.3,14.8c0.7-0.1,1.6-0.1,2.8-0.1c1.4,0,2.5,0.2,3.2,0.6c0.6,0.4,1,1,1,1.7S7,18.3,6.5,18.7
			c-0.8,0.6-2,0.9-3.5,0.9c-0.4,0-0.8,0-1.2-0.1v3.2H0.3V14.8z M1.7,18.6c0.4,0.1,0.7,0.1,1.2,0.1c1.8,0,2.8-0.6,2.8-1.7
			S4.6,15.4,3,15.4c-0.6,0-1.1,0.1-1.3,0.1V18.6z"/>
		<path class="st0" d="M7.6,21.3L7,22.6H5.7l2.1-4.8h1.6l2.2,4.8h-1.3l-0.6-1.3H7.6z M9.5,20.7L9,19.5c-0.1-0.3-0.2-0.6-0.4-0.9l0,0
			c-0.1,0.3-0.2,0.6-0.4,0.9l-0.5,1.2H9.5z"/>
		<path class="st0" d="M12.7,17.9h1.2v4h2.7v0.7h-3.9V17.9z"/>
		<path class="st0" d="M19.1,21.3l-0.6,1.3h-1.3l2.1-4.8h1.6l2.2,4.8h-1.3l-0.6-1.3H19.1z M21,20.7l-0.5-1.2
			c-0.1-0.3-0.2-0.6-0.4-0.9l0,0c-0.1,0.3-0.2,0.6-0.4,0.9l-0.5,1.2H21z"/>
		<path class="st0" d="M25.8,17.9v4.8h-1.3v-4.8H25.8z"/>
		<path class="st0" d="M26.9,21.7c0.4,0.1,1,0.3,1.6,0.3c0.8,0,1.2-0.3,1.2-0.6c0-0.4-0.4-0.6-1.2-0.8c-1.1-0.3-1.8-0.7-1.8-1.4
			c0-0.8,0.9-1.3,2.3-1.3c0.7,0,1.3,0.1,1.6,0.2l-0.3,0.7c-0.2-0.1-0.7-0.2-1.3-0.2c-0.8,0-1.1,0.3-1.1,0.6c0,0.4,0.4,0.6,1.3,0.8
			c1.1,0.3,1.7,0.7,1.7,1.4c0,0.8-0.8,1.4-2.5,1.4c-0.7,0-1.4-0.1-1.8-0.3L26.9,21.7z"/>
		<path class="st0" d="M34.1,18.8c0.4-0.1,1-0.1,1.6-0.1c1.1,0,1.8,0.1,2.3,0.4c0.6,0.3,0.8,0.8,0.8,1.5s-0.4,1.2-0.8,1.6
			c-0.6,0.4-1.4,0.6-2.5,0.6c-0.6,0-1.1,0-1.3-0.1L34.1,18.8L34.1,18.8z M35.1,22.2c0.1,0,0.4,0,0.6,0c1.3,0,2.1-0.5,2.1-1.5
			c0-0.8-0.7-1.3-2-1.3c-0.4,0-0.6,0-0.7,0.1V22.2z"/>
		<path class="st0" d="M42.4,21h-2.1v1.1h2.3v0.6h-3.3v-3.9h3.2v0.6h-2.2v1h2.1V21L42.4,21z"/>
		<path class="st0" d="M43.2,22c0.4,0.1,0.8,0.3,1.3,0.3c0.6,0,1-0.2,1-0.6c0-0.3-0.3-0.5-1-0.6C43.6,20.9,43,20.5,43,20
			c0-0.6,0.8-1.1,2-1.1c0.6,0,1.1,0.1,1.3,0.2l-0.2,0.6c-0.2-0.1-0.6-0.2-1.1-0.2c-0.6,0-0.9,0.2-0.9,0.5s0.4,0.4,1.1,0.6
			c1,0.3,1.4,0.6,1.4,1.2S45.9,23,44.5,23c-0.6,0-1.2-0.1-1.5-0.2L43.2,22z"/>
		<path class="st0" d="M49.7,14.6h6.1v0.8h-4.6v2.7h4.3v0.8h-4.3v3.7h-1.5V14.6L49.7,14.6z"/>
		<path class="st0" d="M60,20.6h-2.5V22h2.8v0.7h-4v-4.8h3.9v0.7h-2.7v1.2H60C60,19.8,60,20.6,60,20.6z"/>
		<path class="st0" d="M61.4,21.7c0.4,0.1,1,0.3,1.6,0.3c0.8,0,1.2-0.3,1.2-0.6c0-0.4-0.4-0.6-1.2-0.8c-1.1-0.3-1.8-0.7-1.8-1.4
			c0-0.8,0.9-1.3,2.3-1.3c0.7,0,1.3,0.1,1.6,0.2l-0.3,0.7c-0.2-0.1-0.7-0.2-1.3-0.2c-0.8,0-1.1,0.3-1.1,0.6c0,0.4,0.4,0.6,1.3,0.8
			c1.1,0.3,1.7,0.7,1.7,1.4c0,0.8-0.8,1.4-2.5,1.4c-0.7,0-1.4-0.1-1.8-0.3L61.4,21.7z"/>
		<path class="st0" d="M67.4,18.6h-1.9v-0.7h5.1v0.7h-1.9v4h-1.2L67.4,18.6L67.4,18.6z"/>
		<path class="st0" d="M72.4,17.9v4.8h-1.2v-4.8H72.4z"/>
		<path class="st0" d="M75.5,22.7l-2.2-4.8h1.3l0.9,2.2c0.3,0.6,0.5,1.1,0.6,1.8l0,0c0.2-0.6,0.4-1.1,0.7-1.8l1-2.2h1.3l-2.3,4.8
			H75.5z"/>
		<path class="st0" d="M80.3,21.3l-0.6,1.3h-1.3l2.1-4.8h1.6l2.2,4.8H83l-0.6-1.3H80.3z M82.2,20.7l-0.5-1.2
			c-0.1-0.3-0.2-0.6-0.4-0.9l0,0c-0.1,0.3-0.2,0.6-0.4,0.9l-0.5,1.2H82.2z"/>
		<path class="st0" d="M85.5,17.9h1.2v4h2.7v0.7h-3.9V17.9L85.5,17.9z"/>
		<path class="st0" d="M90,21.7c0.4,0.1,1,0.3,1.6,0.3c0.8,0,1.2-0.3,1.2-0.6c0-0.4-0.4-0.6-1.2-0.8c-1.1-0.3-1.8-0.7-1.8-1.4
			c0-0.8,0.9-1.3,2.3-1.3c0.7,0,1.3,0.1,1.6,0.2l-0.3,0.7c-0.2-0.1-0.7-0.2-1.3-0.2c-0.8,0-1.1,0.3-1.1,0.6c0,0.4,0.4,0.6,1.3,0.8
			c1.1,0.3,1.7,0.7,1.7,1.4c0,0.8-0.8,1.4-2.5,1.4c-0.7,0-1.4-0.1-1.8-0.3L90,21.7z"/>
		<path class="st0" d="M100.4,21h-2.2v1.1h2.3v0.6h-3.3v-3.9h3.2v0.6h-2.2v1h2.1L100.4,21L100.4,21z"/>
		<path class="st0" d="M102.8,19.3h-1.6v-0.6h4.2v0.6h-1.6v3.4h-1L102.8,19.3L102.8,19.3z"/>
		<path class="st0" d="M108.3,18.8c0.4-0.1,1-0.1,1.6-0.1c1.1,0,1.8,0.1,2.3,0.4c0.6,0.3,0.8,0.8,0.8,1.5s-0.4,1.2-0.8,1.6
			c-0.6,0.4-1.4,0.6-2.5,0.6c-0.6,0-1.1,0-1.3-0.1L108.3,18.8L108.3,18.8z M109.4,22.2c0.1,0,0.4,0,0.6,0c1.3,0,2.1-0.5,2.1-1.5
			c0-0.8-0.7-1.3-2-1.3c-0.4,0-0.6,0-0.7,0.1V22.2L109.4,22.2z"/>
		<path class="st0" d="M116.6,21h-2.1v1.1h2.3v0.6h-3.3v-3.9h3.2v0.6h-2.2v1h2.1V21L116.6,21z"/>
		<path class="st0" d="M117.1,22c0.4,0.1,0.8,0.3,1.3,0.3c0.6,0,1-0.2,1-0.6c0-0.3-0.3-0.5-1-0.6c-0.9-0.2-1.5-0.6-1.5-1.1
			c0-0.6,0.8-1.1,2-1.1c0.6,0,1.1,0.1,1.3,0.2l-0.2,0.6c-0.2-0.1-0.6-0.2-1.1-0.2c-0.6,0-0.9,0.2-0.9,0.5s0.4,0.4,1.1,0.6
			c1,0.3,1.4,0.6,1.4,1.2s-0.7,1.2-2.1,1.2c-0.6,0-1.2-0.1-1.5-0.2L117.1,22z"/>
		<path class="st0" d="M132.5,22.4c-0.6,0.2-1.6,0.4-3,0.4c-3.2,0-5.6-1.4-5.6-4.1c0-2.5,2.4-4.2,5.9-4.2c1.4,0,2.3,0.2,2.7,0.4
			l-0.4,0.8c-0.6-0.2-1.3-0.4-2.3-0.4c-2.7,0-4.4,1.2-4.4,3.3c0,2,1.6,3.2,4.3,3.2c0.9,0,1.8-0.1,2.4-0.4L132.5,22.4z"/>
		<path class="st0" d="M139,20.3c0,1.6-1.3,2.5-3.2,2.5c-1.9,0-3.1-1.1-3.1-2.4c0-1.5,1.3-2.5,3.2-2.5C137.9,17.9,139,18.9,139,20.3
			z M134,20.3c0,1,0.7,1.8,1.8,1.8c1.2,0,1.8-0.8,1.8-1.8c0-0.9-0.6-1.8-1.8-1.8C134.6,18.6,134,19.3,134,20.3z"/>
		<path class="st0" d="M140.3,22.7v-4.8h1.4l1.7,2c0.4,0.6,0.8,1.1,1.1,1.6l0,0c-0.1-0.6-0.1-1.3-0.1-2v-1.7h1.1v4.8h-1.3l-1.8-2.1
			c-0.4-0.5-0.8-1.1-1.2-1.6l0,0c0.1,0.6,0.1,1.3,0.1,2v1.7L140.3,22.7L140.3,22.7z"/>
		<path class="st0" d="M152.1,22.5c-0.4,0.1-1.3,0.3-2.2,0.3c-1.1,0-2-0.2-2.6-0.6c-0.6-0.4-0.9-1.1-0.9-1.8c0-1.5,1.5-2.5,3.7-2.5
			c0.8,0,1.5,0.1,1.8,0.2l-0.3,0.7c-0.4-0.1-0.8-0.2-1.6-0.2c-1.4,0-2.4,0.6-2.4,1.7s0.9,1.8,2.3,1.8c0.4,0,0.8-0.1,0.9-0.1v-1.2
			h-1.2v-0.7h2.3L152.1,22.5L152.1,22.5z"/>
		<path class="st0" d="M153.4,18c0.4-0.1,1.1-0.1,1.8-0.1c1,0,1.6,0.1,2,0.4c0.4,0.2,0.6,0.6,0.6,1c0,0.6-0.6,1.1-1.2,1.2l0,0
			c0.5,0.1,0.8,0.5,0.9,0.9c0.2,0.6,0.4,1.1,0.5,1.3h-1.3c-0.1-0.1-0.3-0.6-0.4-1.1c-0.2-0.6-0.5-0.8-1.2-0.8h-0.6v2h-1.2L153.4,18
			L153.4,18z M154.6,20.1h0.7c0.8,0,1.3-0.3,1.3-0.8s-0.5-0.8-1.3-0.8c-0.4,0-0.6,0-0.8,0.1L154.6,20.1L154.6,20.1z"/>
		<path class="st0" d="M162.7,20.6h-2.5V22h2.8v0.7h-4v-4.8h3.9v0.7h-2.7v1.2h2.5V20.6z"/>
		<path class="st0" d="M164.1,21.7c0.4,0.1,1,0.3,1.6,0.3c0.8,0,1.2-0.3,1.2-0.6c0-0.4-0.4-0.6-1.2-0.8c-1.1-0.3-1.8-0.7-1.8-1.4
			c0-0.8,0.9-1.3,2.3-1.3c0.7,0,1.3,0.1,1.6,0.2l-0.3,0.7c-0.2-0.1-0.7-0.2-1.3-0.2c-0.8,0-1.1,0.3-1.1,0.6c0,0.4,0.4,0.6,1.3,0.8
			c1.1,0.3,1.7,0.7,1.7,1.4c0,0.8-0.8,1.4-2.5,1.4c-0.7,0-1.4-0.1-1.8-0.3L164.1,21.7z"/>
	</g>
	<g>
		<path class="st0" d="M140.5,35.3c-0.3,0.1-0.9,0.3-1.8,0.3c-2.2,0-3.5-1.3-3.5-3.5c0-2.3,1.6-3.6,3.7-3.6c0.8,0,1.4,0.1,1.7,0.3
			l-0.3,1c-0.4-0.1-0.8-0.3-1.3-0.3c-1.4,0-2.4,0.8-2.4,2.5c0,1.5,0.8,2.5,2.4,2.5c0.5,0,1.1-0.1,1.3-0.3L140.5,35.3z"/>
		<path class="st0" d="M144.4,35.5l-0.1-0.6l0,0c-0.3,0.4-0.8,0.6-1.5,0.6c-1,0-1.6-0.7-1.6-1.5c0-1.3,1.1-1.9,2.9-1.8l0,0
			c0-0.4-0.1-0.8-1-0.8c-0.5,0-1,0.1-1.3,0.4l-0.2-0.8c0.4-0.2,1-0.4,1.8-0.4c1.6,0,2,1,2,2v1.8c0,0.4,0,0.8,0.1,1.2L144.4,35.5
			L144.4,35.5z M144.2,33c-0.8,0-1.7,0.1-1.7,0.9c0,0.5,0.3,0.7,0.7,0.7c0.5,0,0.8-0.4,1-0.7c0-0.1,0.1-0.2,0.1-0.3L144.2,33
			L144.2,33z"/>
		<path class="st0" d="M147,32c0-0.6,0-1.1-0.1-1.5h1.1l0.1,0.7l0,0c0.2-0.4,0.8-0.8,1.6-0.8s1.8,0.6,1.8,2.1v2.9h-1.3v-2.7
			c0-0.7-0.3-1.3-0.9-1.3c-0.5,0-0.8,0.4-1,0.7c-0.1,0.1-0.1,0.3-0.1,0.4v2.9h-1.3L147,32L147,32z"/>
		<path class="st0" d="M152.9,32c0-0.6,0-1.1-0.1-1.5h1.1l0.1,0.7l0,0c0.2-0.4,0.8-0.8,1.6-0.8c0.8,0,1.8,0.6,1.8,2.1v2.9h-1.3v-2.7
			c0-0.7-0.3-1.3-0.9-1.3c-0.5,0-0.8,0.4-1,0.7c-0.1,0.1-0.1,0.3-0.1,0.4v2.9h-1.3L152.9,32L152.9,32z"/>
		<path class="st0" d="M159.9,33.4c0,0.9,0.7,1.3,1.6,1.3c0.6,0,1-0.1,1.3-0.2l0.2,0.8c-0.4,0.1-1,0.3-1.7,0.3c-1.6,0-2.5-1-2.5-2.5
			c0-1.3,0.8-2.7,2.4-2.7s2.1,1.3,2.1,2.4c0,0.2,0,0.4-0.1,0.5L159.9,33.4L159.9,33.4z M162,32.5c0-0.4-0.2-1.2-1.1-1.2
			c-0.8,0-1.1,0.7-1.1,1.2H162z"/>
		<path class="st0" d="M164.3,34.3c0.3,0.1,0.8,0.4,1.3,0.4c0.6,0,0.8-0.2,0.8-0.6s-0.2-0.5-0.8-0.7c-1-0.4-1.3-0.8-1.3-1.4
			c0-0.8,0.7-1.6,1.8-1.6c0.6,0,1,0.1,1.3,0.3l-0.2,0.8c-0.2-0.1-0.6-0.3-1.1-0.3c-0.4,0-0.7,0.2-0.7,0.5s0.2,0.5,0.8,0.7
			c0.9,0.4,1.3,0.8,1.3,1.5c0,0.9-0.7,1.6-2,1.6c-0.6,0-1.1-0.1-1.5-0.4L164.3,34.3z"/>
	</g>
</g>
</svg>
