<?xml version="1.0" encoding="utf-8"?>
<!-- Generator: Adobe Illustrator 21.0.2, SVG Export Plug-In . SVG Version: 6.00 Build 0)  -->
<svg version="1.1" id="Capa_1" xmlns="http://www.w3.org/2000/svg" xmlns:xlink="http://www.w3.org/1999/xlink" x="0px" y="0px"
	 viewBox="0 0 480 480" style="enable-background:new 0 0 480 480;" xml:space="preserve">
<g>
	<g>
		<path d="M368,56c-39.8,0-72,32.2-72,72c0,39.7,32.3,72,72,72c39.8,0,72-32.2,72-72C440,88.2,407.8,56,368,56z M384,181.6
			c-10.4,3.1-21.6,3.1-32,0V152c0-8.8,7.2-16,16-16s16,7.2,16,16V181.6z M360,112c0-4.4,3.6-8,8-8s8,3.6,8,8s-3.6,8-8,8
			C363.6,120,360,116.4,360,112z M400,173.9V152c0-10.1-4.8-19.6-13-25.6c3.2-4.1,4.9-9.2,5-14.4c0-13.3-10.7-24-24-24
			s-24,10.7-24,24c0,5.2,1.8,10.3,5,14.4c-8.1,6-12.9,15.5-13,25.6v21.9c-25.4-17.6-31.6-52.5-14-77.9c10.5-15,27.6-24,46-24
			c30.9,0,56,25,56,55.9C424,146.2,415,163.4,400,173.9z"/>
	</g>
</g>
<g>
	<g>
		<path d="M472,24C472,24,472,24,472,24H264c-4.4,0-8,3.6-8,8c0,0,0,0,0,0v176h-16.5c-4.4-39.5-40-68-79.5-63.6
			c-33.4,3.7-59.8,30.1-63.6,63.6H8c-4.4,0-8,3.6-8,8c0,0,0,0,0,0v232c0,4.4,3.6,8,8,8c0,0,0,0,0,0h320c4.4,0,8-3.6,8-8c0,0,0,0,0,0
			V312h136c4.4,0,8-3.6,8-8c0,0,0,0,0,0V32C480,27.6,476.4,24,472,24z M168,160c27.8,0,51.4,20.5,55.4,48h-16.2
			c-4.4-21.6-25.6-35.6-47.2-31.2c-15.7,3.2-28,15.5-31.2,31.2h-16.2C116.6,180.5,140.2,160,168,160z M190.5,208h-45.1
			c4.3-12.4,17.9-19,30.4-14.7C182.7,195.7,188.1,201.1,190.5,208z M319.6,224c-4.2,40.9-38.5,72-79.6,72h-48v-16c0-4.4-3.6-8-8-8
			c0,0,0,0,0,0h-32c-4.4,0-8,3.6-8,8c0,0,0,0,0,0v16H96c-41.1,0-75.4-31.1-79.6-72H319.6z M176,288v32h-16v-32H176z M320,440H16V269
			c17.8,26.9,47.8,43,80,43h48v16c0,4.4,3.6,8,8,8c0,0,0,0,0,0h32c4.4,0,8-3.6,8-8c0,0,0,0,0,0v-16h48c32.2,0,62.2-16.2,80-43V440z
			 M464,296H336v-24h24v-16h-24v-16h56v-16h-56v-8c0-4.4-3.6-8-8-8c0,0,0,0,0,0h-56V40h192V296z"/>
	</g>
</g>
<g>
	<g>
		<rect x="408" y="224" width="40" height="16"/>
	</g>
</g>
<g>
	<g>
		<rect x="376" y="256" width="72" height="16"/>
	</g>
</g>
</svg>
