<?xml version="1.0" encoding="utf-8"?>
<!-- Generator: Adobe Illustrator 21.0.2, SVG Export Plug-In . SVG Version: 6.00 Build 0)  -->
<svg version="1.1" id="Layer_1" xmlns="http://www.w3.org/2000/svg" xmlns:xlink="http://www.w3.org/1999/xlink" x="0px" y="0px"
	 viewBox="0 0 262.1 529.6" style="enable-background:new 0 0 262.1 529.6;" xml:space="preserve">
<style type="text/css">
	.st0{fill:#FFFFFF;}
</style>
<g>
	<path class="st0" d="M262.1,315.4L262.1,315.4l0-204.6c0-15.5-3.8-30.3-10.5-43.6c-10.2-20-26.9-36.8-47.8-48.6
		C182.9,6.8,157.9,0,131.1,0C95.3,0,62.7,12.1,38.9,31.9C27,41.9,17.3,53.8,10.5,67.1C3.8,80.5,0,95.3,0,110.8l0,204.6
		c0,15.5,3.8,30.3,10.5,43.6c10.2,20,26.9,36.8,47.8,48.6c20.9,11.8,45.9,18.6,72.7,18.6c35.8,0,68.3-12.1,92.1-31.9
		c11.9-9.9,21.6-21.8,28.4-35.2C258.3,345.7,262.1,330.9,262.1,315.4z M195.5,393c-18.3,10.3-40.5,16.4-64.5,16.4
		c-32,0-60.8-10.9-81.4-28.1c-10.3-8.6-18.5-18.8-24.2-29.9c-5.7-11.2-8.7-23.3-8.7-36.1l0-204.6c0-12.8,3.1-24.9,8.7-36.1
		C33.9,58,48.3,43.5,66.6,33.1c18.3-10.3,40.5-16.4,64.5-16.4c32,0,60.8,10.8,81.4,28.1c10.3,8.6,18.5,18.8,24.2,29.9
		c5.7,11.2,8.7,23.3,8.7,36.1l0,204.6h0c0,12.8-3.1,24.9-8.7,36.1C228.2,368.2,213.8,382.7,195.5,393z"/>
	<path class="st0" d="M131.1,65.3c-11.6,0-22.2,4.7-29.7,12.3C93.7,85.2,89,95.8,89,107.4c0,23.2,18.8,42,42.1,42.1
		c23.2,0,42-18.8,42.1-42.1C173.1,84.2,154.3,65.3,131.1,65.3z M131.1,132.7c-7,0-13.3-2.8-17.9-7.4c-4.6-4.6-7.4-10.9-7.4-17.9
		c0-7,2.8-13.3,7.4-17.9c4.6-4.6,10.9-7.4,17.9-7.4c7,0,13.3,2.8,17.9,7.4c4.6,4.6,7.4,10.9,7.4,17.9c0,7-2.8,13.3-7.4,17.9
		C144.4,129.9,138.1,132.7,131.1,132.7z"/>
	<polygon class="st0" points="171.6,489 159.8,477.2 159.8,477.2 131.1,506 102.3,477.2 90.5,489 131.1,529.6 	"/>
</g>
</svg>
