<?xml version="1.0" encoding="utf-8"?>
<!-- Generator: Adobe Illustrator 21.0.2, SVG Export Plug-In . SVG Version: 6.00 Build 0)  -->
<svg version="1.1" id="Layer_1" xmlns="http://www.w3.org/2000/svg" xmlns:xlink="http://www.w3.org/1999/xlink" x="0px" y="0px"
	 viewBox="0 0 109.5 74.6" style="enable-background:new 0 0 109.5 74.6;" xml:space="preserve">
<style type="text/css">
	.st0{fill:#4071B7;}
	.st1{opacity:0.2;}
	.st2{opacity:0.25;}
</style>
<g>
	<g>
		<g>
			<g>
				<path class="st0" d="M107.5,36.2l1.7,1.3l-1.7,1.3c-0.1,0-0.1,0.1,0,0.2c0,0,0.1,0,0.1,0c0,0,0.1,0,0.1,0l1.9-1.4
					c0,0,0-0.1,0-0.1c0,0,0-0.1,0-0.1l-1.9-1.4c-0.1,0-0.1,0-0.2,0C107.4,36.1,107.4,36.2,107.5,36.2z"/>
			</g>
			<g>
				<path class="st0" d="M11,39.3c0.1,0,0.1-0.1,0.1-0.1c0-0.1-0.1-0.1-0.1-0.1H0v0.2H11z"/>
			</g>
			<g>
				<path class="st0" d="M10.9,39.2c0,0.5,0.4,0.8,0.8,0.8c0.5,0,0.8-0.4,0.8-0.8c0-0.5-0.4-0.8-0.8-0.8
					C11.2,38.3,10.9,38.7,10.9,39.2z M12.3,39.2c0,0.3-0.3,0.6-0.6,0.6c-0.3,0-0.6-0.3-0.6-0.6c0-0.3,0.3-0.6,0.6-0.6
					C12,38.6,12.3,38.9,12.3,39.2z"/>
			</g>
			<g>
				<path class="st0" d="M32.2,44.7c0,0.5,0.4,0.8,0.8,0.8c0.5,0,0.8-0.4,0.8-0.8c0-0.5-0.4-0.8-0.8-0.8
					C32.6,43.8,32.2,44.2,32.2,44.7z M33.7,44.7c0,0.3-0.3,0.6-0.6,0.6s-0.6-0.3-0.6-0.6c0-0.3,0.3-0.6,0.6-0.6S33.7,44.3,33.7,44.7
					z"/>
			</g>
			<g>
				<path class="st0" d="M85.9,37.6c0,0.5,0.4,0.8,0.8,0.8c0.5,0,0.8-0.4,0.8-0.8c0-0.5-0.4-0.8-0.8-0.8
					C86.3,36.7,85.9,37.1,85.9,37.6z M87.4,37.6c0,0.3-0.3,0.6-0.6,0.6c-0.3,0-0.6-0.3-0.6-0.6c0-0.3,0.3-0.6,0.6-0.6
					C87.1,37,87.4,37.3,87.4,37.6z"/>
			</g>
			<g>
				<g>
					<circle class="st0" cx="95" cy="37.6" r="0.4"/>
				</g>
				<g>
					<circle class="st0" cx="96.1" cy="37.6" r="0.4"/>
				</g>
				<g>
					<circle class="st0" cx="97.2" cy="37.6" r="0.4"/>
				</g>
				<g>
					<circle class="st0" cx="98.3" cy="37.6" r="0.4"/>
				</g>
			</g>
			<g>
				<path class="st0" d="M13.4,39.2c0,0.5,0.4,0.8,0.8,0.8c0.5,0,0.8-0.4,0.8-0.8c0-0.5-0.4-0.8-0.8-0.8
					C13.8,38.3,13.4,38.7,13.4,39.2z M14.8,39.2c0,0.3-0.3,0.6-0.6,0.6c-0.3,0-0.6-0.3-0.6-0.6c0-0.3,0.3-0.6,0.6-0.6
					C14.6,38.6,14.8,38.9,14.8,39.2z"/>
			</g>
			<g>
				<circle class="st0" cx="60.8" cy="44.7" r="0.4"/>
			</g>
			<g>
				<circle class="st0" cx="33" cy="39.2" r="0.4"/>
			</g>
			<g>
				<g>
					<path class="st0" d="M14.8,39.2c0,0.1,0.1,0.1,0.1,0.1H33v5.3c0,0.1,0.1,0.1,0.1,0.1h9.3c0.1,0,0.1-0.1,0.1-0.1
						c0-0.5,0.4-0.8,0.8-0.8c0.5,0,0.8,0.4,0.8,0.8c0,0.1,0.1,0.1,0.1,0.1c0.1,0,0.1-0.1,0.1-0.1c0-0.6-0.5-1.1-1.1-1.1
						c-0.6,0-1,0.4-1.1,1h-9.1v-5.3c0-0.1-0.1-0.1-0.1-0.1H14.9C14.8,39.1,14.8,39.1,14.8,39.2z"/>
				</g>
				<g>
					<path class="st0" d="M44.2,44.6c0,0.1,0.1,0.1,0.1,0.1c0.1,0,0.1-0.1,0.1-0.1c0-0.5,0.4-0.8,0.8-0.8c0.5,0,0.8,0.4,0.8,0.8
						c0,0.1,0.1,0.1,0.1,0.1c0.1,0,0.1-0.1,0.1-0.1c0-0.6-0.5-1.1-1.1-1.1C44.7,43.5,44.2,44,44.2,44.6z"/>
				</g>
				<g>
					<path class="st0" d="M46.1,44.6c0,0.1,0.1,0.1,0.1,0.1s0.1-0.1,0.1-0.1c0-0.5,0.4-0.8,0.8-0.8c0.5,0,0.8,0.4,0.8,0.8
						c0,0.1,0.1,0.1,0.1,0.1c0.1,0,0.1-0.1,0.1-0.1c0-0.6-0.5-1.1-1.1-1.1C46.6,43.5,46.1,44,46.1,44.6z"/>
				</g>
				<g>
					<path class="st0" d="M61.1,63.1V44.6c0-0.1-0.1-0.1-0.1-0.1H50.2c-0.1-0.5-0.5-1-1.1-1c-0.6,0-1.1,0.5-1.1,1.1
						c0,0.1,0.1,0.1,0.1,0.1c0.1,0,0.1-0.1,0.1-0.1c0-0.5,0.4-0.8,0.8-0.8c0.5,0,0.8,0.4,0.8,0.8c0,0.1,0.1,0.1,0.1,0.1h10.7v18.6
						c0,0,0,0.1,0.1,0.1c0,0,0,0,0,0c0,0,0.1,0,0.1,0l25.8-25.8h22.3c0.1,0,0.1-0.1,0.1-0.1c0-0.1-0.1-0.1-0.1-0.1H86.8
						c0,0-0.1,0-0.1,0L61.1,63.1z"/>
				</g>
			</g>
		</g>
		<g class="st1">
			<g>
				<path class="st0" d="M89.5,47.2l1.7,1.3l-1.7,1.3c-0.1,0-0.1,0.1,0,0.2c0,0.1,0.1,0.1,0.2,0l1.9-1.4c0,0,0-0.1,0-0.1
					s0-0.1,0-0.1L89.7,47c0,0,0,0-0.1,0c0,0-0.1,0-0.1,0C89.4,47.1,89.5,47.2,89.5,47.2z"/>
			</g>
			<g>
				<path class="st0" d="M14.3,41.4c0,0.5,0.4,0.8,0.8,0.8s0.8-0.4,0.8-0.8c0-0.5-0.4-0.8-0.8-0.8S14.3,41,14.3,41.4z M15.7,41.4
					c0,0.3-0.3,0.6-0.6,0.6c-0.3,0-0.6-0.3-0.6-0.6c0-0.3,0.3-0.6,0.6-0.6C15.4,40.8,15.7,41.1,15.7,41.4z"/>
			</g>
			<g>
				<path class="st0" d="M68,48.5c0,0.5,0.4,0.8,0.8,0.8c0.5,0,0.8-0.4,0.8-0.8c0-0.5-0.4-0.8-0.8-0.8C68.3,47.7,68,48,68,48.5z
					 M69.4,48.5c0,0.3-0.3,0.6-0.6,0.6c-0.3,0-0.6-0.3-0.6-0.6c0-0.3,0.3-0.6,0.6-0.6C69.1,47.9,69.4,48.2,69.4,48.5z"/>
			</g>
			<g>
				<g>
					<circle class="st0" cx="77" cy="48.5" r="0.4"/>
				</g>
				<g>
					<circle class="st0" cx="78.1" cy="48.5" r="0.4"/>
				</g>
				<g>
					<circle class="st0" cx="79.2" cy="48.5" r="0.4"/>
				</g>
				<g>
					<circle class="st0" cx="80.4" cy="48.5" r="0.4"/>
				</g>
			</g>
			<g>
				<circle class="st0" cx="42.9" cy="41.4" r="0.4"/>
			</g>
			<g>
				<circle class="st0" cx="15" cy="46.9" r="0.4"/>
			</g>
			<g>
				<g>
					<path class="st0" d="M15,41.5v5.3H0V47h15.1c0.1,0,0.1-0.1,0.1-0.1v-5.3h9.1c0.1,0.5,0.5,1,1.1,1c0.6,0,1.1-0.5,1.1-1.1
						c0-0.1-0.1-0.1-0.1-0.1c-0.1,0-0.1,0.1-0.1,0.1c0,0.5-0.4,0.8-0.8,0.8c-0.5,0-0.8-0.4-0.8-0.8c0-0.1-0.1-0.1-0.1-0.1h-9.3
						C15,41.3,15,41.4,15,41.5z"/>
				</g>
				<g>
					<path class="st0" d="M26.5,41.5c0-0.1-0.1-0.1-0.1-0.1c-0.1,0-0.1,0.1-0.1,0.1c0,0.6,0.5,1.1,1.1,1.1c0.6,0,1.1-0.5,1.1-1.1
						c0-0.1-0.1-0.1-0.1-0.1c-0.1,0-0.1,0.1-0.1,0.1c0,0.5-0.4,0.8-0.8,0.8C26.8,42.3,26.5,41.9,26.5,41.5z"/>
				</g>
				<g>
					<path class="st0" d="M28.4,41.5c0-0.1-0.1-0.1-0.1-0.1c-0.1,0-0.1,0.1-0.1,0.1c0,0.6,0.5,1.1,1.1,1.1c0.6,0,1.1-0.5,1.1-1.1
						c0-0.1-0.1-0.1-0.1-0.1c-0.1,0-0.1,0.1-0.1,0.1c0,0.5-0.4,0.8-0.8,0.8C28.8,42.3,28.4,41.9,28.4,41.5z"/>
				</g>
				<g>
					<path class="st0" d="M42.9,22.7v18.6H32.1c-0.1,0-0.1,0.1-0.1,0.1c0,0.5-0.4,0.8-0.8,0.8c-0.5,0-0.8-0.4-0.8-0.8
						c0-0.1-0.1-0.1-0.1-0.1c-0.1,0-0.1,0.1-0.1,0.1c0,0.6,0.5,1.1,1.1,1.1c0.6,0,1-0.4,1.1-1H43c0.1,0,0.1-0.1,0.1-0.1V23
						l25.6,25.6c0,0,0.1,0,0.1,0h22.3c0.1,0,0.1-0.1,0.1-0.1c0-0.1-0.1-0.1-0.1-0.1H68.9L43.1,22.6c0,0-0.1,0-0.1,0c0,0,0,0,0,0
						C42.9,22.6,42.9,22.7,42.9,22.7z"/>
				</g>
			</g>
		</g>
		<g class="st1">
			<g>
				<path class="st0" d="M83.7,68.3c0,0.1,0.1,0.1,0.1,0.1h19.5c0.1,0,0.1-0.1,0.1-0.1s-0.1-0.1-0.1-0.1H83.8
					C83.7,68.2,83.7,68.2,83.7,68.3z"/>
			</g>
			<g>
				<path class="st0" d="M103.3,67.6V69c0,0.1,0.1,0.1,0.1,0.1c0.1,0,0.1-0.1,0.1-0.1v-1.3c0-0.1-0.1-0.1-0.1-0.1
					C103.3,67.5,103.3,67.6,103.3,67.6z"/>
			</g>
			<g>
				<path class="st0" d="M103.9,67v2.7c0,0.1,0.1,0.1,0.1,0.1c0.1,0,0.1-0.1,0.1-0.1V67c0-0.1-0.1-0.1-0.1-0.1
					C103.9,66.8,103.9,66.9,103.9,67z"/>
			</g>
			<g>
				<path class="st0" d="M103.9,68.3c0,0.1,0.1,0.1,0.1,0.1h3.7c0.1,0,0.1-0.1,0.1-0.1s-0.1-0.1-0.1-0.1H104
					C103.9,68.2,103.9,68.2,103.9,68.3z"/>
			</g>
			<g>
				<path class="st0" d="M82.3,68.3c0,0.5,0.4,0.8,0.8,0.8c0.5,0,0.8-0.4,0.8-0.8c0-0.5-0.4-0.8-0.8-0.8
					C82.6,67.5,82.3,67.8,82.3,68.3z M83.7,68.3c0,0.3-0.3,0.6-0.6,0.6c-0.3,0-0.6-0.3-0.6-0.6s0.3-0.6,0.6-0.6
					C83.4,67.7,83.7,68,83.7,68.3z"/>
			</g>
			<g>
				<path class="st0" d="M60.9,73.8c0,0.5,0.4,0.8,0.8,0.8c0.5,0,0.8-0.4,0.8-0.8c0-0.5-0.4-0.8-0.8-0.8
					C61.2,72.9,60.9,73.3,60.9,73.8z M62.3,73.8c0,0.3-0.3,0.6-0.6,0.6c-0.3,0-0.6-0.3-0.6-0.6c0-0.3,0.3-0.6,0.6-0.6
					C62,73.2,62.3,73.4,62.3,73.8z"/>
			</g>
			<g>
				<path class="st0" d="M7.2,66.7c0,0.5,0.4,0.8,0.8,0.8c0.5,0,0.8-0.4,0.8-0.8c0-0.5-0.4-0.8-0.8-0.8C7.6,65.8,7.2,66.2,7.2,66.7z
					 M8.6,66.7c0,0.3-0.3,0.6-0.6,0.6c-0.3,0-0.6-0.3-0.6-0.6c0-0.3,0.3-0.6,0.6-0.6C8.4,66.1,8.6,66.4,8.6,66.7z"/>
			</g>
			<g>
				<g>
					<path class="st0" d="M0.3,66.7c0-0.2-0.1-0.3-0.3-0.4v0.8C0.2,67,0.3,66.9,0.3,66.7z"/>
				</g>
			</g>
			<g>
				<path class="st0" d="M79.7,68.3c0,0.5,0.4,0.8,0.8,0.8c0.5,0,0.8-0.4,0.8-0.8c0-0.5-0.4-0.8-0.8-0.8
					C80.1,67.5,79.7,67.8,79.7,68.3z M81.2,68.3c0,0.3-0.3,0.6-0.6,0.6c-0.3,0-0.6-0.3-0.6-0.6s0.3-0.6,0.6-0.6
					C80.9,67.7,81.2,68,81.2,68.3z"/>
			</g>
			<g>
				<circle class="st0" cx="34" cy="73.8" r="0.4"/>
			</g>
			<g>
				<circle class="st0" cx="107.8" cy="68.3" r="0.4"/>
			</g>
			<g>
				<circle class="st0" cx="61.8" cy="68.3" r="0.4"/>
			</g>
			<g>
				<g>
					<path class="st0" d="M61.6,68.3v5.3h-9.1c-0.1-0.5-0.5-1-1.1-1c-0.6,0-1.1,0.5-1.1,1.1c0,0.1,0.1,0.1,0.1,0.1
						c0.1,0,0.1-0.1,0.1-0.1c0-0.5,0.4-0.8,0.8-0.8c0.5,0,0.8,0.4,0.8,0.8c0,0.1,0.1,0.1,0.1,0.1h9.3c0.1,0,0.1-0.1,0.1-0.1v-5.3
						h18.1c0.1,0,0.1-0.1,0.1-0.1s-0.1-0.1-0.1-0.1H61.7C61.7,68.2,61.6,68.2,61.6,68.3z"/>
				</g>
				<g>
					<path class="st0" d="M48.4,73.7c0,0.1,0.1,0.1,0.1,0.1c0.1,0,0.1-0.1,0.1-0.1c0-0.5,0.4-0.8,0.8-0.8c0.5,0,0.8,0.4,0.8,0.8
						c0,0.1,0.1,0.1,0.1,0.1c0.1,0,0.1-0.1,0.1-0.1c0-0.6-0.5-1.1-1.1-1.1C48.9,72.7,48.4,73.1,48.4,73.7z"/>
				</g>
				<g>
					<path class="st0" d="M46.5,73.7c0,0.1,0.1,0.1,0.1,0.1c0.1,0,0.1-0.1,0.1-0.1c0-0.5,0.4-0.8,0.8-0.8c0.5,0,0.8,0.4,0.8,0.8
						c0,0.1,0.1,0.1,0.1,0.1c0.1,0,0.1-0.1,0.1-0.1c0-0.6-0.5-1.1-1.1-1.1C47,72.7,46.5,73.1,46.5,73.7z"/>
				</g>
			</g>
		</g>
		<g class="st1">
			<g>
				<path class="st0" d="M107.5,24.6l1.7,1.3l-1.7,1.3c-0.1,0-0.1,0.1,0,0.2c0,0.1,0.1,0.1,0.2,0l1.9-1.4c0,0,0-0.1,0-0.1
					c0,0,0-0.1,0-0.1l-1.9-1.4c0,0,0,0-0.1,0c0,0-0.1,0-0.1,0C107.4,24.5,107.4,24.6,107.5,24.6z"/>
			</g>
			<g>
				<path class="st0" d="M11,24.4c0.1,0,0.1-0.1,0.1-0.1c0-0.1-0.1-0.1-0.1-0.1H0v0.2H11z"/>
			</g>
			<g>
				<path class="st0" d="M10.9,24.3c0,0.5,0.4,0.8,0.8,0.8c0.5,0,0.8-0.4,0.8-0.8c0-0.5-0.4-0.8-0.8-0.8
					C11.2,23.4,10.9,23.8,10.9,24.3z M12.3,24.3c0,0.3-0.3,0.6-0.6,0.6c-0.3,0-0.6-0.3-0.6-0.6c0-0.3,0.3-0.6,0.6-0.6
					C12,23.7,12.3,24,12.3,24.3z"/>
			</g>
			<g>
				<path class="st0" d="M32.2,18.8c0,0.5,0.4,0.8,0.8,0.8c0.5,0,0.8-0.4,0.8-0.8c0-0.5-0.4-0.8-0.8-0.8
					C32.6,18,32.2,18.3,32.2,18.8z M33.7,18.8c0,0.3-0.3,0.6-0.6,0.6s-0.6-0.3-0.6-0.6c0-0.3,0.3-0.6,0.6-0.6S33.7,18.5,33.7,18.8z"
					/>
			</g>
			<g>
				<path class="st0" d="M85.9,25.9c0,0.5,0.4,0.8,0.8,0.8c0.5,0,0.8-0.4,0.8-0.8c0-0.5-0.4-0.8-0.8-0.8
					C86.3,25.1,85.9,25.4,85.9,25.9z M87.4,25.9c0,0.3-0.3,0.6-0.6,0.6c-0.3,0-0.6-0.3-0.6-0.6s0.3-0.6,0.6-0.6
					C87.1,25.3,87.4,25.6,87.4,25.9z"/>
			</g>
			<g>
				<g>
					<circle class="st0" cx="95" cy="25.9" r="0.4"/>
				</g>
				<g>
					<circle class="st0" cx="96.1" cy="25.9" r="0.4"/>
				</g>
				<g>
					<circle class="st0" cx="97.2" cy="25.9" r="0.4"/>
				</g>
				<g>
					<circle class="st0" cx="98.3" cy="25.9" r="0.4"/>
				</g>
			</g>
			<g>
				<path class="st0" d="M13.4,24.3c0,0.5,0.4,0.8,0.8,0.8c0.5,0,0.8-0.4,0.8-0.8c0-0.5-0.4-0.8-0.8-0.8
					C13.8,23.4,13.4,23.8,13.4,24.3z M14.8,24.3c0,0.3-0.3,0.6-0.6,0.6c-0.3,0-0.6-0.3-0.6-0.6c0-0.3,0.3-0.6,0.6-0.6
					C14.6,23.7,14.8,24,14.8,24.3z"/>
			</g>
			<g>
				<circle class="st0" cx="60.8" cy="18.8" r="0.4"/>
			</g>
			<g>
				<circle class="st0" cx="33" cy="24.3" r="0.4"/>
			</g>
			<g>
				<g>
					<path class="st0" d="M33,18.8v5.3H14.9c-0.1,0-0.1,0.1-0.1,0.1c0,0.1,0.1,0.1,0.1,0.1h18.2c0.1,0,0.1-0.1,0.1-0.1V19h9.1
						c0.1,0.5,0.5,1,1.1,1c0.6,0,1.1-0.5,1.1-1.1c0-0.1-0.1-0.1-0.1-0.1c-0.1,0-0.1,0.1-0.1,0.1c0,0.5-0.4,0.8-0.8,0.8
						c-0.5,0-0.8-0.4-0.8-0.8c0-0.1-0.1-0.1-0.1-0.1h-9.3C33,18.7,33,18.8,33,18.8z"/>
				</g>
				<g>
					<path class="st0" d="M44.4,18.8c0-0.1-0.1-0.1-0.1-0.1c-0.1,0-0.1,0.1-0.1,0.1c0,0.6,0.5,1.1,1.1,1.1c0.6,0,1.1-0.5,1.1-1.1
						c0-0.1-0.1-0.1-0.1-0.1c-0.1,0-0.1,0.1-0.1,0.1c0,0.5-0.4,0.8-0.8,0.8C44.8,19.7,44.4,19.3,44.4,18.8z"/>
				</g>
				<g>
					<path class="st0" d="M46.4,18.8c0-0.1-0.1-0.1-0.1-0.1s-0.1,0.1-0.1,0.1c0,0.6,0.5,1.1,1.1,1.1c0.6,0,1.1-0.5,1.1-1.1
						c0-0.1-0.1-0.1-0.1-0.1c-0.1,0-0.1,0.1-0.1,0.1c0,0.5-0.4,0.8-0.8,0.8C46.7,19.7,46.4,19.3,46.4,18.8z"/>
				</g>
				<g>
					<path class="st0" d="M60.8,0.1v18.6H50.1c-0.1,0-0.1,0.1-0.1,0.1c0,0.5-0.4,0.8-0.8,0.8c-0.5,0-0.8-0.4-0.8-0.8
						c0-0.1-0.1-0.1-0.1-0.1c-0.1,0-0.1,0.1-0.1,0.1c0,0.6,0.5,1.1,1.1,1.1c0.6,0,1-0.4,1.1-1H61c0.1,0,0.1-0.1,0.1-0.1V0.4L86.7,26
						c0,0,0.1,0,0.1,0h22.3c0.1,0,0.1-0.1,0.1-0.1c0-0.1-0.1-0.1-0.1-0.1H86.8L61,0C61,0,61,0,61,0c0,0,0,0,0,0
						C60.9,0,60.8,0.1,60.8,0.1z"/>
				</g>
			</g>
		</g>
		<g>
			<g>
				<path class="st0" d="M0,31.9v0.2l1.7-1.7c0,0,0-0.1,0-0.1c0,0-0.1,0-0.1,0L0,31.9z"/>
			</g>
			<g>
				<path class="st0" d="M1.6,32.1c0,0,0,0.1,0,0.1c0,0,0,0,0.1,0c0,0,0,0,0.1,0l1.7-1.7c0,0,0-0.1,0-0.1c0,0-0.1,0-0.1,0L1.6,32.1z
					"/>
			</g>
			<g>
				<path class="st0" d="M0,31.3C0,31.3,0.1,31.3,0,31.3l0.2,0.1c0,0,0.1,0,0.1-0.1c0,0,0-0.1-0.1-0.1L0,31.3
					C0.1,31.2,0,31.2,0,31.3z"/>
			</g>
			<g>
				<path class="st0" d="M0.2,31.3c0,0.3,0.3,0.6,0.6,0.6c0.3,0,0.6-0.3,0.6-0.6c0-0.3-0.3-0.6-0.6-0.6C0.5,30.7,0.2,30.9,0.2,31.3z
					 M1.2,31.3c0,0.2-0.2,0.4-0.4,0.4c-0.2,0-0.4-0.2-0.4-0.4c0-0.2,0.2-0.4,0.4-0.4C1,30.8,1.2,31,1.2,31.3z"/>
			</g>
			<g>
				<path class="st0" d="M3,31.3C3,31.3,3,31.3,3,31.3l13.4,0.1c0,0,0.1,0,0.1-0.1c0,0,0-0.1-0.1-0.1L3,31.3C3,31.2,3,31.2,3,31.3z"
					/>
			</g>
			<g>
				<path class="st0" d="M19.9,31.3C19.9,31.3,19.9,31.3,19.9,31.3l0.8,0.1c0,0,0.1,0,0.1-0.1c0,0,0-0.1-0.1-0.1L19.9,31.3
					C19.9,31.2,19.9,31.2,19.9,31.3z"/>
				<path class="st0" d="M21.2,31.3C21.2,31.3,21.2,31.3,21.2,31.3l0.8,0.1c0,0,0.1,0,0.1-0.1c0,0,0-0.1-0.1-0.1L21.2,31.3
					C21.2,31.2,21.2,31.2,21.2,31.3z"/>
				<path class="st0" d="M17.7,31.3C17.7,31.3,17.8,31.3,17.7,31.3l0.2,0.1c0,0,0.1,0,0.1-0.1c0,0,0-0.1-0.1-0.1L17.7,31.3
					C17.8,31.2,17.7,31.2,17.7,31.3z"/>
				<path class="st0" d="M22.5,31.3C22.5,31.3,22.6,31.3,22.5,31.3l0.8,0.1c0,0,0.1,0,0.1-0.1c0,0,0-0.1-0.1-0.1L22.5,31.3
					C22.6,31.2,22.5,31.2,22.5,31.3z"/>
				<path class="st0" d="M18.5,31.3C18.5,31.3,18.6,31.3,18.5,31.3l0.8,0.1c0,0,0.1,0,0.1-0.1c0,0,0-0.1-0.1-0.1L18.5,31.3
					C18.6,31.2,18.5,31.2,18.5,31.3z"/>
				<path class="st0" d="M30.6,31.3C30.6,31.3,30.6,31.3,30.6,31.3l0.8,0.1c0,0,0.1,0,0.1-0.1c0,0,0-0.1-0.1-0.1L30.6,31.3
					C30.6,31.2,30.6,31.2,30.6,31.3z"/>
				<path class="st0" d="M29.2,31.3C29.2,31.3,29.3,31.3,29.2,31.3l0.8,0.1c0,0,0.1,0,0.1-0.1c0,0,0-0.1-0.1-0.1L29.2,31.3
					C29.3,31.2,29.2,31.2,29.2,31.3z"/>
				<path class="st0" d="M27.9,31.3C27.9,31.3,27.9,31.3,27.9,31.3l0.8,0.1c0,0,0.1,0,0.1-0.1c0,0,0-0.1-0.1-0.1L27.9,31.3
					C27.9,31.2,27.9,31.2,27.9,31.3z"/>
				<path class="st0" d="M23.9,31.3C23.9,31.3,23.9,31.3,23.9,31.3l0.8,0.1c0,0,0.1,0,0.1-0.1c0,0,0-0.1-0.1-0.1L23.9,31.3
					C23.9,31.2,23.9,31.2,23.9,31.3z"/>
				<path class="st0" d="M25.2,31.3C25.2,31.3,25.3,31.3,25.2,31.3l0.8,0.1c0,0,0.1,0,0.1-0.1c0,0,0-0.1-0.1-0.1L25.2,31.3
					C25.3,31.2,25.2,31.2,25.2,31.3z"/>
				<path class="st0" d="M26.6,31.3C26.6,31.3,26.6,31.3,26.6,31.3l0.8,0.1c0,0,0.1,0,0.1-0.1c0,0,0-0.1-0.1-0.1L26.6,31.3
					C26.6,31.2,26.6,31.2,26.6,31.3z"/>
			</g>
			<g>
				<path class="st0" d="M2,31.3c0,0.3,0.3,0.6,0.6,0.6c0.3,0,0.6-0.3,0.6-0.6c0-0.3-0.3-0.6-0.6-0.6C2.2,30.7,2,30.9,2,31.3z
					 M3,31.3c0,0.2-0.2,0.4-0.4,0.4c-0.2,0-0.4-0.2-0.4-0.4c0-0.2,0.2-0.4,0.4-0.4C2.8,30.8,3,31,3,31.3z"/>
			</g>
			<g>
				<circle class="st0" cx="31.2" cy="31.3" r="0.5"/>
			</g>
			<g>
				<g>
					<circle class="st0" cx="7.8" cy="31.3" r="0.3"/>
				</g>
				<g>
					<circle class="st0" cx="8.6" cy="31.3" r="0.3"/>
				</g>
				<g>
					<circle class="st0" cx="9.4" cy="31.3" r="0.3"/>
				</g>
				<g>
					<circle class="st0" cx="10.2" cy="31.3" r="0.3"/>
				</g>
			</g>
			<g>
				<path class="st0" d="M15.2,30.3l1.2,0.9l-1.2,0.9c0,0,0,0.1,0,0.1c0,0,0,0,0.1,0c0,0,0,0,0.1,0l1.3-1c0,0,0,0,0-0.1
					c0,0,0-0.1,0-0.1l-1.3-1c0,0-0.1,0-0.1,0C15.1,30.2,15.1,30.3,15.2,30.3z"/>
			</g>
			<g>
				<path class="st0" d="M16.5,30.3l1.2,0.9l-1.2,0.9c0,0,0,0.1,0,0.1c0,0,0,0,0.1,0c0,0,0,0,0.1,0l1.3-1c0,0,0,0,0-0.1
					c0,0,0-0.1,0-0.1l-1.3-1c0,0-0.1,0-0.1,0C16.5,30.2,16.5,30.3,16.5,30.3z"/>
			</g>
		</g>
		<g>
			<g>
				<path class="st0" d="M24.4,21c0,0.1,0.1,0.1,0.1,0.1h3.2c0.1,0,0.1-0.1,0.1-0.1c0-0.9-0.8-1.7-1.7-1.7
					C25.2,19.3,24.4,20,24.4,21z M27.6,20.9h-2.9c0.1-0.8,0.7-1.4,1.5-1.4C26.9,19.5,27.5,20.1,27.6,20.9z"/>
			</g>
			<g>
				<path class="st0" d="M24.9,21v0.8H5.8c-0.1,0-0.1,0.1-0.1,0.1c0,0.1,0.1,0.1,0.1,0.1H25c0.1,0,0.1-0.1,0.1-0.1v-1
					c0-0.1-0.1-0.1-0.1-0.1C24.9,20.9,24.9,21,24.9,21z"/>
			</g>
			<g>
				<path class="st0" d="M5.6,21.4v1.2c0,0.1,0.1,0.1,0.1,0.1c0.1,0,0.1-0.1,0.1-0.1v-1.2c0-0.1-0.1-0.1-0.1-0.1
					C5.6,21.3,5.6,21.3,5.6,21.4z"/>
			</g>
			<g>
				<path class="st0" d="M5,20.7v2.5c0,0.1,0.1,0.1,0.1,0.1c0.1,0,0.1-0.1,0.1-0.1v-2.5c0-0.1-0.1-0.1-0.1-0.1
					C5.1,20.6,5,20.7,5,20.7z"/>
			</g>
			<g>
				<path class="st0" d="M1.5,22c0,0.1,0.1,0.1,0.1,0.1h3.5c0.1,0,0.1-0.1,0.1-0.1c0-0.1-0.1-0.1-0.1-0.1H1.7
					C1.6,21.9,1.5,21.9,1.5,22z"/>
			</g>
			<g>
				<g>
					<path class="st0" d="M2.9,20.6c0,0.1,0.1,0.1,0.1,0.1h1.2c0.1,0,0.1-0.1,0.1-0.1c0-0.1-0.1-0.1-0.1-0.1H3
						C3,20.5,2.9,20.6,2.9,20.6z"/>
				</g>
				<g>
					<path class="st0" d="M3.5,20v1.2c0,0.1,0.1,0.1,0.1,0.1c0.1,0,0.1-0.1,0.1-0.1V20c0-0.1-0.1-0.1-0.1-0.1
						C3.6,19.9,3.5,20,3.5,20z"/>
				</g>
			</g>
			<g>
				<g>
					<circle class="st0" cx="11.9" cy="21.9" r="0.4"/>
				</g>
				<g>
					<circle class="st0" cx="13" cy="21.9" r="0.4"/>
				</g>
				<g>
					<circle class="st0" cx="14.1" cy="21.9" r="0.4"/>
				</g>
				<g>
					<circle class="st0" cx="15.1" cy="21.9" r="0.4"/>
				</g>
			</g>
			<g>
				<path class="st0" d="M27.2,21v1c0,0.1,0.1,0.1,0.1,0.1h17.4v5c0,0.1,0.1,0.1,0.1,0.1H71c0.1,0,0.1-0.1,0.1-0.1
					c0-0.1-0.1-0.1-0.1-0.1H44.9v-5c0-0.1-0.1-0.1-0.1-0.1H27.4V21c0-0.1-0.1-0.1-0.1-0.1C27.2,20.9,27.2,20.9,27.2,21z"/>
			</g>
			<g>
				<path class="st0" d="M69.4,25.8l1.6,1.3l-1.6,1.3c0,0-0.1,0.1,0,0.2c0,0,0.1,0,0.1,0c0,0,0,0,0.1,0l1.7-1.4c0,0,0-0.1,0-0.1
					c0,0,0-0.1,0-0.1l-1.7-1.4c-0.1,0-0.1,0-0.2,0C69.3,25.7,69.3,25.8,69.4,25.8z"/>
			</g>
			<g>
				<circle class="st0" cx="44.8" cy="22.1" r="0.4"/>
			</g>
			<g>
				<circle class="st0" cx="1.6" cy="21.9" r="0.4"/>
			</g>
			<g>
				<path class="st0" d="M44,27.1c0,0.4,0.4,0.8,0.8,0.8c0.4,0,0.8-0.4,0.8-0.8c0-0.4-0.4-0.8-0.8-0.8C44.4,26.3,44,26.7,44,27.1z
					 M45.4,27.1c0,0.3-0.3,0.6-0.6,0.6c-0.3,0-0.6-0.3-0.6-0.6c0-0.3,0.3-0.6,0.6-0.6C45.1,26.6,45.4,26.8,45.4,27.1z"/>
			</g>
			<g>
				<g>
					<circle class="st0" cx="54.5" cy="27.1" r="0.4"/>
				</g>
				<g>
					<circle class="st0" cx="55.6" cy="27.1" r="0.4"/>
				</g>
				<g>
					<circle class="st0" cx="56.6" cy="27.1" r="0.4"/>
				</g>
				<g>
					<circle class="st0" cx="57.7" cy="27.1" r="0.4"/>
				</g>
			</g>
		</g>
		<g>
			<g>
				<path class="st0" d="M23.3,70.2c0,0.9,0.8,1.7,1.7,1.7c0.9,0,1.7-0.8,1.7-1.7c0-0.1-0.1-0.1-0.1-0.1h-3.2
					C23.4,70.1,23.3,70.1,23.3,70.2z M26.5,70.3c-0.1,0.8-0.7,1.4-1.5,1.4c-0.8,0-1.4-0.6-1.5-1.4H26.5z"/>
			</g>
			<g>
				<path class="st0" d="M4.6,69.2c0,0.1,0.1,0.1,0.1,0.1h19.1v0.8c0,0.1,0.1,0.1,0.1,0.1c0.1,0,0.1-0.1,0.1-0.1v-1
					c0-0.1-0.1-0.1-0.1-0.1H4.7C4.7,69.1,4.6,69.1,4.6,69.2z"/>
			</g>
			<g>
				<path class="st0" d="M4.5,68.6v1.2c0,0.1,0.1,0.1,0.1,0.1c0.1,0,0.1-0.1,0.1-0.1v-1.2c0-0.1-0.1-0.1-0.1-0.1
					C4.5,68.5,4.5,68.5,4.5,68.6z"/>
			</g>
			<g>
				<path class="st0" d="M3.9,67.9v2.5c0,0.1,0.1,0.1,0.1,0.1c0.1,0,0.1-0.1,0.1-0.1v-2.5c0-0.1-0.1-0.1-0.1-0.1
					C4,67.8,3.9,67.9,3.9,67.9z"/>
			</g>
			<g>
				<path class="st0" d="M0.4,69.2c0,0.1,0.1,0.1,0.1,0.1H4c0.1,0,0.1-0.1,0.1-0.1c0-0.1-0.1-0.1-0.1-0.1H0.6
					C0.5,69.1,0.4,69.1,0.4,69.2z"/>
			</g>
			<g>
				<g>
					<path class="st0" d="M1.8,70.6c0,0.1,0.1,0.1,0.1,0.1h1.2c0.1,0,0.1-0.1,0.1-0.1c0-0.1-0.1-0.1-0.1-0.1H1.9
						C1.9,70.4,1.8,70.5,1.8,70.6z"/>
				</g>
				<g>
					<path class="st0" d="M2.4,70v1.2c0,0.1,0.1,0.1,0.1,0.1c0.1,0,0.1-0.1,0.1-0.1V70c0-0.1-0.1-0.1-0.1-0.1
						C2.5,69.8,2.4,69.9,2.4,70z"/>
				</g>
			</g>
			<g>
				<g>
					<circle class="st0" cx="10.8" cy="69.2" r="0.4"/>
				</g>
				<g>
					<circle class="st0" cx="11.9" cy="69.2" r="0.4"/>
				</g>
				<g>
					<circle class="st0" cx="13" cy="69.2" r="0.4"/>
				</g>
				<g>
					<circle class="st0" cx="14" cy="69.2" r="0.4"/>
				</g>
			</g>
			<g>
				<path class="st0" d="M43.6,64.1v5H26.2c-0.1,0-0.1,0.1-0.1,0.1v1c0,0.1,0.1,0.1,0.1,0.1c0.1,0,0.1-0.1,0.1-0.1v-0.9h17.4
					c0.1,0,0.1-0.1,0.1-0.1v-5h26.1c0.1,0,0.1-0.1,0.1-0.1S70,64,69.9,64H43.7C43.7,64,43.6,64,43.6,64.1z"/>
			</g>
			<g>
				<path class="st0" d="M68.3,62.8l1.6,1.3l-1.6,1.3c0,0-0.1,0.1,0,0.2c0,0,0.1,0.1,0.2,0l1.7-1.4c0,0,0-0.1,0-0.1c0,0,0-0.1,0-0.1
					l-1.7-1.4c0,0,0,0-0.1,0c0,0-0.1,0-0.1,0C68.2,62.7,68.2,62.8,68.3,62.8z"/>
			</g>
			<g>
				<circle class="st0" cx="43.7" cy="69.1" r="0.4"/>
			</g>
			<g>
				<circle class="st0" cx="0.5" cy="69.2" r="0.4"/>
			</g>
			<g>
				<path class="st0" d="M42.9,64.1c0,0.4,0.4,0.8,0.8,0.8c0.4,0,0.8-0.4,0.8-0.8c0-0.4-0.4-0.8-0.8-0.8
					C43.3,63.3,42.9,63.6,42.9,64.1z M44.3,64.1c0,0.3-0.3,0.6-0.6,0.6c-0.3,0-0.6-0.3-0.6-0.6c0-0.3,0.3-0.6,0.6-0.6
					C44,63.5,44.3,63.7,44.3,64.1z"/>
			</g>
			<g>
				<g>
					<circle class="st0" cx="53.4" cy="64.1" r="0.4"/>
				</g>
				<g>
					<circle class="st0" cx="54.5" cy="64.1" r="0.4"/>
				</g>
				<g>
					<circle class="st0" cx="55.5" cy="64.1" r="0.4"/>
				</g>
				<g>
					<circle class="st0" cx="56.6" cy="64.1" r="0.4"/>
				</g>
			</g>
		</g>
		<g class="st1">
			<g>
				<path class="st0" d="M79.3,52.8c0,0.1,0,0.1,0.1,0.1h17.7c0.1,0,0.1,0,0.1-0.1c0-0.1,0-0.1-0.1-0.1H79.4
					C79.3,52.7,79.3,52.7,79.3,52.8z"/>
			</g>
			<g>
				<path class="st0" d="M102.8,52.8c0,0.1,0,0.1,0.1,0.1h3.7c0.1,0,0.1,0,0.1-0.1c0-0.1,0-0.1-0.1-0.1h-3.7
					C102.9,52.7,102.8,52.7,102.8,52.8z"/>
			</g>
			<g>
				<path class="st0" d="M74.3,52.8c0,0.1,0,0.1,0.1,0.1h3.7c0.1,0,0.1,0,0.1-0.1c0-0.1,0-0.1-0.1-0.1h-3.7
					C74.4,52.7,74.3,52.7,74.3,52.8z"/>
			</g>
			<g>
				<circle class="st0" cx="74.4" cy="52.8" r="0.4"/>
			</g>
			<g>
				<circle class="st0" cx="106.7" cy="52.8" r="0.4"/>
			</g>
			<g>
				<path class="st0" d="M76.4,51.6l1.6,1.2L76.4,54c0,0-0.1,0.1,0,0.2c0,0,0.1,0,0.1,0c0,0,0,0,0.1,0l1.7-1.3c0,0,0-0.1,0-0.1
					c0,0,0-0.1,0-0.1l-1.7-1.3c0,0-0.1,0-0.2,0C76.4,51.5,76.4,51.5,76.4,51.6z"/>
			</g>
			<g>
				<g>
					<path class="st0" d="M77.6,51.6l0.1,0.1c0,0,0,0,0.1,0c0,0,0.1,0,0.1,0c0,0,0-0.1,0-0.2l-0.1-0.1c0,0-0.1,0-0.2,0
						C77.5,51.5,77.5,51.5,77.6,51.6z"/>
				</g>
				<g>
					<path class="st0" d="M78,51.9l0.3,0.2c0,0,0,0,0.1,0c0,0,0.1,0,0.1,0c0,0,0-0.1,0-0.2l-0.3-0.2c0,0-0.1,0-0.2,0
						C77.9,51.8,78,51.9,78,51.9z"/>
					<path class="st0" d="M78.6,52.3l0.3,0.2c0,0,0,0,0.1,0c0,0,0.1,0,0.1,0c0,0,0-0.1,0-0.2l-0.3-0.2c0,0-0.1,0-0.2,0
						C78.5,52.2,78.5,52.3,78.6,52.3z"/>
				</g>
				<g>
					<path class="st0" d="M79.1,52.8L79.1,52.8L79.1,52.8c0,0.1-0.1,0.1,0,0.2c0,0,0.1,0,0.1,0c0,0,0,0,0.1,0l0.1-0.1
						c0,0,0-0.1,0-0.1c0,0,0-0.1,0-0.1l-0.1-0.1c0,0-0.1,0-0.2,0C79.1,52.7,79.1,52.7,79.1,52.8z"/>
				</g>
				<g>
					<path class="st0" d="M78,53.7c0,0-0.1,0.1,0,0.2c0,0,0.1,0,0.1,0c0,0,0,0,0.1,0l0.3-0.2c0,0,0.1-0.1,0-0.2c0,0-0.1-0.1-0.2,0
						L78,53.7z"/>
					<path class="st0" d="M78.6,53.2c0,0-0.1,0.1,0,0.2c0,0,0.1,0,0.1,0c0,0,0,0,0.1,0l0.3-0.2c0,0,0.1-0.1,0-0.2c0,0-0.1-0.1-0.2,0
						L78.6,53.2z"/>
				</g>
				<g>
					<path class="st0" d="M77.6,54c0,0-0.1,0.1,0,0.2c0,0,0.1,0,0.1,0c0,0,0,0,0.1,0l0.1-0.1c0,0,0.1-0.1,0-0.2c0,0-0.1-0.1-0.2,0
						L77.6,54z"/>
				</g>
			</g>
			<g>
				<path class="st0" d="M95.5,51.6l1.6,1.2L95.5,54c0,0-0.1,0.1,0,0.2c0,0,0.1,0,0.1,0c0,0,0,0,0.1,0l1.7-1.3c0,0,0-0.1,0-0.1
					c0,0,0-0.1,0-0.1l-1.7-1.3c0,0-0.1,0-0.2,0C95.5,51.5,95.5,51.5,95.5,51.6z"/>
			</g>
			<g>
				<g>
					<path class="st0" d="M96.7,51.6l0.1,0.1c0,0,0,0,0.1,0c0,0,0.1,0,0.1,0c0,0,0-0.1,0-0.2l-0.1-0.1c0,0-0.1,0-0.2,0
						C96.6,51.5,96.6,51.5,96.7,51.6z"/>
				</g>
				<g>
					<path class="st0" d="M97.7,52.3l0.3,0.2c0,0,0,0,0.1,0c0,0,0.1,0,0.1,0c0,0,0-0.1,0-0.2l-0.3-0.2c0,0-0.1,0-0.2,0
						C97.6,52.2,97.6,52.3,97.7,52.3z"/>
					<path class="st0" d="M97.1,51.9l0.3,0.2c0,0,0,0,0.1,0c0,0,0.1,0,0.1,0c0,0,0-0.1,0-0.2l-0.3-0.2c0,0-0.1,0-0.2,0
						C97.1,51.8,97.1,51.9,97.1,51.9z"/>
				</g>
				<g>
					<path class="st0" d="M98.2,52.8L98.2,52.8L98.2,52.8c0,0.1-0.1,0.1,0,0.2c0,0,0.1,0,0.1,0c0,0,0,0,0.1,0l0.1-0.1
						c0,0,0-0.1,0-0.1c0,0,0-0.1,0-0.1l-0.1-0.1c0,0-0.1,0-0.2,0C98.2,52.7,98.2,52.7,98.2,52.8z"/>
				</g>
				<g>
					<path class="st0" d="M97.1,53.7c0,0-0.1,0.1,0,0.2c0,0,0.1,0,0.1,0c0,0,0,0,0.1,0l0.3-0.2c0,0,0.1-0.1,0-0.2c0,0-0.1-0.1-0.2,0
						L97.1,53.7z"/>
					<path class="st0" d="M97.7,53.2c0,0-0.1,0.1,0,0.2c0,0,0.1,0,0.1,0c0,0,0,0,0.1,0l0.3-0.2c0,0,0.1-0.1,0-0.2c0,0-0.1-0.1-0.2,0
						L97.7,53.2z"/>
				</g>
				<g>
					<path class="st0" d="M96.7,54c0,0-0.1,0.1,0,0.2c0,0,0.1,0,0.1,0c0,0,0,0,0.1,0l0.1-0.1c0,0,0.1-0.1,0-0.2c0,0-0.1-0.1-0.2,0
						L96.7,54z"/>
				</g>
			</g>
			<g>
				<path class="st0" d="M100,51.6l1.6,1.2L100,54c0,0-0.1,0.1,0,0.2c0,0,0.1,0,0.1,0c0,0,0,0,0.1,0l1.7-1.3c0,0,0-0.1,0-0.1
					c0,0,0-0.1,0-0.1l-1.7-1.3c0,0-0.1,0-0.2,0C100,51.5,100,51.5,100,51.6z"/>
			</g>
			<g>
				<g>
					<path class="st0" d="M101.2,51.6l0.1,0.1c0,0,0,0,0.1,0c0,0,0.1,0,0.1,0c0,0,0-0.1,0-0.2l-0.1-0.1c0,0-0.1,0-0.2,0
						C101.1,51.5,101.1,51.5,101.2,51.6z"/>
				</g>
				<g>
					<path class="st0" d="M102.1,52.3l0.3,0.2c0,0,0,0,0.1,0c0,0,0.1,0,0.1,0c0,0,0-0.1,0-0.2l-0.3-0.2c0,0-0.1,0-0.2,0
						C102.1,52.2,102.1,52.3,102.1,52.3z"/>
					<path class="st0" d="M101.6,51.9l0.3,0.2c0,0,0,0,0.1,0c0,0,0.1,0,0.1,0c0,0,0-0.1,0-0.2l-0.3-0.2c0,0-0.1,0-0.2,0
						C101.5,51.8,101.5,51.9,101.6,51.9z"/>
				</g>
				<g>
					<path class="st0" d="M102.7,52.8L102.7,52.8L102.7,52.8c0,0.1-0.1,0.1,0,0.2c0,0,0.1,0,0.1,0c0,0,0,0,0.1,0l0.1-0.1
						c0,0,0-0.1,0-0.1c0,0,0-0.1,0-0.1l-0.1-0.1c0,0-0.1,0-0.2,0C102.7,52.7,102.7,52.7,102.7,52.8z"/>
				</g>
				<g>
					<path class="st0" d="M101.6,53.7c0,0-0.1,0.1,0,0.2c0,0,0.1,0,0.1,0c0,0,0,0,0.1,0l0.3-0.2c0,0,0.1-0.1,0-0.2
						c0,0-0.1-0.1-0.2,0L101.6,53.7z"/>
					<path class="st0" d="M102.1,53.2c0,0-0.1,0.1,0,0.2c0,0,0.1,0,0.1,0c0,0,0,0,0.1,0l0.3-0.2c0,0,0.1-0.1,0-0.2
						c0,0-0.1-0.1-0.2,0L102.1,53.2z"/>
				</g>
				<g>
					<path class="st0" d="M101.2,54c0,0-0.1,0.1,0,0.2c0,0,0.1,0,0.1,0c0,0,0,0,0.1,0l0.1-0.1c0,0,0.1-0.1,0-0.2c0,0-0.1-0.1-0.2,0
						L101.2,54z"/>
				</g>
			</g>
		</g>
		<g class="st1">
			<g>
				<g>
					<path class="st0" d="M13.2,60.6c0,0.1,0.1,0.1,0.1,0.1h23.5c0.1,0,0.1-0.1,0.1-0.1c0-0.1-0.1-0.1-0.1-0.1H13.3
						C13.3,60.4,13.2,60.5,13.2,60.6z"/>
				</g>
				<g>
					<path class="st0" d="M53.7,60.6c0,0.1,0.1,0.1,0.1,0.1h4.8c0.1,0,0.1-0.1,0.1-0.1c0-0.1-0.1-0.1-0.1-0.1h-4.8
						C53.8,60.4,53.7,60.5,53.7,60.6z"/>
				</g>
				<g>
					<path class="st0" d="M6.6,60.6c0,0.1,0.1,0.1,0.1,0.1h4.8c0.1,0,0.1-0.1,0.1-0.1c0-0.1-0.1-0.1-0.1-0.1H6.8
						C6.7,60.4,6.6,60.5,6.6,60.6z"/>
				</g>
				<g>
					<circle class="st0" cx="6.7" cy="60.6" r="0.5"/>
				</g>
				<g>
					<circle class="st0" cx="58.9" cy="60.6" r="0.5"/>
				</g>
				<g>
					<path class="st0" d="M9.5,58.9l2.1,1.6l-2.1,1.6c-0.1,0-0.1,0.1,0,0.2c0,0,0.1,0.1,0.1,0.1c0,0,0.1,0,0.1,0l2.2-1.7
						c0,0,0.1-0.1,0.1-0.1c0,0,0-0.1-0.1-0.1l-2.2-1.7c-0.1,0-0.2,0-0.2,0C9.4,58.8,9.4,58.9,9.5,58.9z"/>
				</g>
				<g>
					<g>
						<path class="st0" d="M11,58.9l0.2,0.1c0,0,0.1,0,0.1,0c0,0,0.1,0,0.1-0.1c0-0.1,0-0.2,0-0.2l-0.2-0.1c-0.1,0-0.2,0-0.2,0
							C10.9,58.8,10.9,58.9,11,58.9z"/>
					</g>
					<g>
						<path class="st0" d="M12.3,60l0.4,0.3c0,0,0.1,0,0.1,0c0,0,0.1,0,0.1-0.1c0-0.1,0-0.2,0-0.2l-0.4-0.3c-0.1,0-0.2,0-0.2,0
							C12.2,59.8,12.2,59.9,12.3,60z"/>
						<path class="st0" d="M11.5,59.4l0.4,0.3c0,0,0.1,0,0.1,0c0,0,0.1,0,0.1-0.1c0-0.1,0-0.2,0-0.2l-0.4-0.3c-0.1,0-0.2,0-0.2,0
							C11.4,59.2,11.5,59.3,11.5,59.4z"/>
					</g>
					<g>
						<path class="st0" d="M13,60.5L13,60.5L13,60.5c-0.1,0.1-0.1,0.2,0,0.3c0,0,0.1,0.1,0.1,0.1c0,0,0.1,0,0.1,0l0.2-0.1
							c0,0,0.1-0.1,0.1-0.1c0,0,0-0.1-0.1-0.1l-0.2-0.1c-0.1,0-0.2,0-0.2,0C12.9,60.4,12.9,60.5,13,60.5z"/>
					</g>
					<g>
						<path class="st0" d="M11.5,61.7c-0.1,0-0.1,0.1,0,0.2c0,0,0.1,0.1,0.1,0.1c0,0,0.1,0,0.1,0l0.4-0.3c0.1,0,0.1-0.1,0-0.2
							c0-0.1-0.1-0.1-0.2,0L11.5,61.7z"/>
						<path class="st0" d="M12.3,61.2c-0.1,0-0.1,0.1,0,0.2c0,0,0.1,0.1,0.1,0.1c0,0,0.1,0,0.1,0l0.4-0.3c0.1,0,0.1-0.1,0-0.2
							c0-0.1-0.1-0.1-0.2,0L12.3,61.2z"/>
					</g>
					<g>
						<path class="st0" d="M11,62.2c-0.1,0-0.1,0.1,0,0.2c0,0,0.1,0.1,0.1,0.1c0,0,0.1,0,0.1,0l0.2-0.1c0.1,0,0.1-0.1,0-0.2
							c0-0.1-0.1-0.1-0.2,0L11,62.2z"/>
					</g>
				</g>
				<g>
					<path class="st0" d="M34.8,58.9l2.1,1.6l-2.1,1.6c-0.1,0-0.1,0.1,0,0.2c0,0,0.1,0.1,0.1,0.1c0,0,0.1,0,0.1,0l2.2-1.7
						c0,0,0.1-0.1,0.1-0.1c0,0,0-0.1-0.1-0.1l-2.2-1.7c-0.1,0-0.2,0-0.2,0C34.7,58.8,34.7,58.9,34.8,58.9z"/>
				</g>
				<g>
					<g>
						<path class="st0" d="M36.3,58.9l0.2,0.1c0,0,0.1,0,0.1,0c0,0,0.1,0,0.1-0.1c0-0.1,0-0.2,0-0.2l-0.2-0.1c-0.1,0-0.2,0-0.2,0
							C36.2,58.8,36.2,58.9,36.3,58.9z"/>
					</g>
					<g>
						<path class="st0" d="M36.8,59.4l0.4,0.3c0,0,0.1,0,0.1,0c0,0,0.1,0,0.1-0.1c0-0.1,0-0.2,0-0.2L37,59.1c-0.1,0-0.2,0-0.2,0
							C36.7,59.2,36.8,59.3,36.8,59.4z"/>
						<path class="st0" d="M37.6,60l0.4,0.3c0,0,0.1,0,0.1,0c0,0,0.1,0,0.1-0.1c0-0.1,0-0.2,0-0.2l-0.4-0.3c-0.1,0-0.2,0-0.2,0
							C37.5,59.8,37.5,59.9,37.6,60z"/>
					</g>
					<g>
						<path class="st0" d="M38.3,60.5L38.3,60.5L38.3,60.5c-0.1,0.1-0.1,0.2,0,0.3c0,0,0.1,0.1,0.1,0.1c0,0,0.1,0,0.1,0l0.2-0.1
							c0,0,0.1-0.1,0.1-0.1c0,0,0-0.1-0.1-0.1l-0.2-0.1c-0.1,0-0.2,0-0.2,0C38.2,60.4,38.2,60.5,38.3,60.5z"/>
					</g>
					<g>
						<path class="st0" d="M36.8,61.7c-0.1,0-0.1,0.1,0,0.2c0,0,0.1,0.1,0.1,0.1c0,0,0.1,0,0.1,0l0.4-0.3c0.1,0,0.1-0.1,0-0.2
							c0-0.1-0.1-0.1-0.2,0L36.8,61.7z"/>
						<path class="st0" d="M37.6,61.2c-0.1,0-0.1,0.1,0,0.2c0,0,0.1,0.1,0.1,0.1c0,0,0.1,0,0.1,0l0.4-0.3c0.1,0,0.1-0.1,0-0.2
							c0-0.1-0.1-0.1-0.2,0L37.6,61.2z"/>
					</g>
					<g>
						<path class="st0" d="M36.3,62.2c-0.1,0-0.1,0.1,0,0.2c0,0,0.1,0.1,0.1,0.1c0,0,0.1,0,0.1,0l0.2-0.1c0.1,0,0.1-0.1,0-0.2
							c0-0.1-0.1-0.1-0.2,0L36.3,62.2z"/>
					</g>
				</g>
				<g>
					<path class="st0" d="M50,58.9l2.1,1.6L50,62.2c-0.1,0-0.1,0.1,0,0.2c0,0,0.1,0.1,0.1,0.1c0,0,0.1,0,0.1,0l2.2-1.7
						c0,0,0.1-0.1,0.1-0.1c0,0,0-0.1-0.1-0.1l-2.2-1.7c-0.1,0-0.2,0-0.2,0C49.9,58.8,49.9,58.9,50,58.9z"/>
				</g>
				<g>
					<g>
						<path class="st0" d="M51.5,58.9l0.2,0.1c0,0,0.1,0,0.1,0c0,0,0.1,0,0.1-0.1c0-0.1,0-0.2,0-0.2l-0.2-0.1c-0.1,0-0.2,0-0.2,0
							C51.4,58.8,51.4,58.9,51.5,58.9z"/>
					</g>
					<g>
						<path class="st0" d="M52.1,59.4l0.4,0.3c0,0,0.1,0,0.1,0c0,0,0.1,0,0.1-0.1c0-0.1,0-0.2,0-0.2l-0.4-0.3c-0.1,0-0.2,0-0.2,0
							C52,59.2,52,59.3,52.1,59.4z"/>
						<path class="st0" d="M52.8,60l0.4,0.3c0,0,0.1,0,0.1,0c0,0,0.1,0,0.1-0.1c0-0.1,0-0.2,0-0.2L53,59.7c-0.1,0-0.2,0-0.2,0
							C52.7,59.8,52.8,59.9,52.8,60z"/>
					</g>
					<g>
						<path class="st0" d="M53.6,60.5L53.6,60.5L53.6,60.5c-0.1,0.1-0.1,0.2,0,0.3c0,0,0.1,0.1,0.1,0.1c0,0,0.1,0,0.1,0l0.2-0.1
							c0,0,0.1-0.1,0.1-0.1c0,0,0-0.1-0.1-0.1l-0.2-0.1c-0.1,0-0.2,0-0.2,0C53.5,60.4,53.5,60.5,53.6,60.5z"/>
					</g>
					<g>
						<path class="st0" d="M52.1,61.7c-0.1,0-0.1,0.1,0,0.2c0,0,0.1,0.1,0.1,0.1c0,0,0.1,0,0.1,0l0.4-0.3c0.1,0,0.1-0.1,0-0.2
							c0-0.1-0.1-0.1-0.2,0L52.1,61.7z"/>
						<path class="st0" d="M52.8,61.2c-0.1,0-0.1,0.1,0,0.2c0,0,0.1,0.1,0.1,0.1c0,0,0.1,0,0.1,0l0.4-0.3c0.1,0,0.1-0.1,0-0.2
							c0-0.1-0.1-0.1-0.2,0L52.8,61.2z"/>
					</g>
					<g>
						<path class="st0" d="M51.5,62.2c-0.1,0-0.1,0.1,0,0.2c0,0,0.1,0.1,0.1,0.1c0,0,0.1,0,0.1,0l0.2-0.1c0.1,0,0.1-0.1,0-0.2
							c0-0.1-0.1-0.1-0.2,0L51.5,62.2z"/>
					</g>
				</g>
			</g>
			<g>
				<circle class="st0" cx="42.6" cy="60.6" r="0.5"/>
				<circle class="st0" cx="43.9" cy="60.6" r="0.5"/>
				<circle class="st0" cx="45.3" cy="60.6" r="0.5"/>
				<circle class="st0" cx="46.7" cy="60.6" r="0.5"/>
			</g>
		</g>
		<g class="st1">
			<g>
				<path class="st0" d="M38.9,14.6l1.7,1.3l-1.7,1.3c-0.1,0-0.1,0.1,0,0.2c0,0,0.1,0,0.1,0c0,0,0,0,0.1,0l1.8-1.4c0,0,0-0.1,0-0.1
					c0,0,0-0.1,0-0.1l-1.8-1.4c-0.1,0-0.1,0-0.2,0C38.9,14.5,38.9,14.6,38.9,14.6z"/>
			</g>
			<g>
				<g>
					<path class="st0" d="M40.1,14.6l0.1,0.1c0,0,0,0,0.1,0c0,0,0.1,0,0.1,0c0-0.1,0-0.1,0-0.2l-0.1-0.1c-0.1,0-0.1,0-0.2,0
						C40.1,14.5,40.1,14.6,40.1,14.6z"/>
				</g>
				<g>
					<path class="st0" d="M40.6,15l0.3,0.2c0,0,0,0,0.1,0c0,0,0.1,0,0.1,0c0-0.1,0-0.1,0-0.2l-0.3-0.2c-0.1,0-0.1,0-0.2,0
						C40.5,14.9,40.5,14.9,40.6,15z"/>
					<path class="st0" d="M41.2,15.4l0.3,0.2c0,0,0,0,0.1,0c0,0,0.1,0,0.1,0c0-0.1,0-0.1,0-0.2l-0.3-0.2c-0.1,0-0.1,0-0.2,0
						C41.1,15.3,41.1,15.4,41.2,15.4z"/>
				</g>
				<g>
					<path class="st0" d="M41.8,15.9L41.8,15.9L41.8,15.9c-0.1,0.1-0.1,0.2,0,0.2c0,0,0.1,0,0.1,0c0,0,0,0,0.1,0l0.1-0.1
						c0,0,0-0.1,0-0.1c0,0,0-0.1,0-0.1l-0.1-0.1c-0.1,0-0.1,0-0.2,0C41.7,15.8,41.7,15.9,41.8,15.9z"/>
				</g>
				<g>
					<path class="st0" d="M41.2,16.4c-0.1,0-0.1,0.1,0,0.2c0,0,0.1,0,0.1,0c0,0,0.1,0,0.1,0l0.3-0.2c0.1,0,0.1-0.1,0-0.2
						c0-0.1-0.1-0.1-0.2,0L41.2,16.4z"/>
					<path class="st0" d="M40.6,16.9c-0.1,0-0.1,0.1,0,0.2c0,0,0.1,0,0.1,0c0,0,0.1,0,0.1,0l0.3-0.2c0.1,0,0.1-0.1,0-0.2
						c0-0.1-0.1-0.1-0.2,0L40.6,16.9z"/>
				</g>
				<g>
					<path class="st0" d="M40.1,17.2c-0.1,0-0.1,0.1,0,0.2c0,0,0.1,0,0.1,0c0,0,0.1,0,0.1,0l0.1-0.1c0.1,0,0.1-0.1,0-0.2
						s-0.1-0.1-0.2,0L40.1,17.2z"/>
				</g>
			</g>
			<g>
				<circle class="st0" cx="4.7" cy="13.7" r="0.4"/>
			</g>
			<g>
				<circle class="st0" cx="4.7" cy="8.8" r="0.4"/>
			</g>
			<g>
				<circle class="st0" cx="34" cy="8.8" r="0.4"/>
			</g>
			<g>
				<circle class="st0" cx="34" cy="15.8" r="0.4"/>
			</g>
			<g>
				<circle class="st0" cx="47.8" cy="15.8" r="0.4"/>
			</g>
			<g>
				<g>
					<circle class="st0" cx="17.3" cy="8.8" r="0.4"/>
				</g>
				<g>
					<circle class="st0" cx="18.4" cy="8.8" r="0.4"/>
				</g>
				<g>
					<circle class="st0" cx="19.5" cy="8.8" r="0.4"/>
				</g>
				<g>
					<circle class="st0" cx="20.6" cy="8.8" r="0.4"/>
				</g>
			</g>
			<g>
				<path class="st0" d="M4.6,10.1v0.9c0,0.1,0.1,0.1,0.1,0.1c0.1,0,0.1-0.1,0.1-0.1v-0.9c0-0.1-0.1-0.1-0.1-0.1
					C4.7,10,4.6,10.1,4.6,10.1z"/>
				<path class="st0" d="M4.6,12v0.9C4.6,13,4.7,13,4.7,13c0.1,0,0.1-0.1,0.1-0.1V12c0-0.1-0.1-0.1-0.1-0.1
					C4.7,11.9,4.6,11.9,4.6,12z"/>
				<path class="st0" d="M1.6,13.6c0,0.1,0.1,0.1,0.1,0.1h0.9c0.1,0,0.1-0.1,0.1-0.1c0-0.1-0.1-0.1-0.1-0.1H1.7
					C1.6,13.5,1.6,13.6,1.6,13.6z"/>
				<path class="st0" d="M4.6,8.8v0.3c0,0.1,0.1,0.1,0.1,0.1c0.1,0,0.1-0.1,0.1-0.1V9h0.5c0.1,0,0.1-0.1,0.1-0.1
					c0-0.1-0.1-0.1-0.1-0.1H4.7C4.7,8.7,4.6,8.8,4.6,8.8z"/>
				<path class="st0" d="M3.5,13.6c0,0.1,0.1,0.1,0.1,0.1h0.9c0.1,0,0.1-0.1,0.1-0.1c0-0.1-0.1-0.1-0.1-0.1H3.6
					C3.5,13.5,3.5,13.6,3.5,13.6z"/>
				<path class="st0" d="M6.1,8.8C6.1,8.9,6.2,9,6.3,9h0.9c0.1,0,0.1-0.1,0.1-0.1c0-0.1-0.1-0.1-0.1-0.1H6.3
					C6.2,8.7,6.1,8.8,6.1,8.8z"/>
				<path class="st0" d="M11.7,8.8c0,0.1,0.1,0.1,0.1,0.1h0.9c0.1,0,0.1-0.1,0.1-0.1c0-0.1-0.1-0.1-0.1-0.1h-0.9
					C11.8,8.7,11.7,8.8,11.7,8.8z"/>
				<path class="st0" d="M13.6,8.8c0,0.1,0.1,0.1,0.1,0.1h0.9c0.1,0,0.1-0.1,0.1-0.1c0-0.1-0.1-0.1-0.1-0.1h-0.9
					C13.7,8.7,13.6,8.8,13.6,8.8z"/>
				<path class="st0" d="M9.9,8.8C9.9,8.9,9.9,9,10,9h0.9C11,9,11,8.9,11,8.8c0-0.1-0.1-0.1-0.1-0.1H10C9.9,8.7,9.9,8.8,9.9,8.8z"/>
				<path class="st0" d="M8,8.8C8,8.9,8.1,9,8.1,9h0.9c0.1,0,0.1-0.1,0.1-0.1c0-0.1-0.1-0.1-0.1-0.1H8.1C8.1,8.7,8,8.8,8,8.8z"/>
				<path class="st0" d="M15.5,8.8c0,0.1,0.1,0.1,0.1,0.1h0.9c0.1,0,0.1-0.1,0.1-0.1c0-0.1-0.1-0.1-0.1-0.1h-0.9
					C15.5,8.7,15.5,8.8,15.5,8.8z"/>
				<path class="st0" d="M0.8,13.7c0.1,0,0.1-0.1,0.1-0.1c0-0.1-0.1-0.1-0.1-0.1H0v0.2H0.8z"/>
				<path class="st0" d="M34,10.8v0.9c0,0.1,0.1,0.1,0.1,0.1c0.1,0,0.1-0.1,0.1-0.1v-0.9c0-0.1-0.1-0.1-0.1-0.1
					C34.1,10.7,34,10.8,34,10.8z"/>
				<path class="st0" d="M38.2,16c0,0.1,0.1,0.1,0.1,0.1h0.9c0.1,0,0.1-0.1,0.1-0.1c0-0.1-0.1-0.1-0.1-0.1h-0.9
					C38.3,15.8,38.2,15.9,38.2,16z"/>
				<path class="st0" d="M34,12.7v0.9c0,0.1,0.1,0.1,0.1,0.1c0.1,0,0.1-0.1,0.1-0.1v-0.9c0-0.1-0.1-0.1-0.1-0.1
					C34.1,12.6,34,12.6,34,12.7z"/>
				<path class="st0" d="M40.1,16c0,0.1,0.1,0.1,0.1,0.1h0.9c0.1,0,0.1-0.1,0.1-0.1c0-0.1-0.1-0.1-0.1-0.1h-0.9
					C40.1,15.8,40.1,15.9,40.1,16z"/>
				<path class="st0" d="M34.5,16c0,0.1,0.1,0.1,0.1,0.1h0.9c0.1,0,0.1-0.1,0.1-0.1c0-0.1-0.1-0.1-0.1-0.1h-0.9
					C34.5,15.8,34.5,15.9,34.5,16z"/>
				<path class="st0" d="M34,9v0.9c0,0.1,0.1,0.1,0.1,0.1c0.1,0,0.1-0.1,0.1-0.1V9c0-0.1-0.1-0.1-0.1-0.1C34.1,8.8,34,8.9,34,9z"/>
				<path class="st0" d="M36.3,16c0,0.1,0.1,0.1,0.1,0.1h0.9c0.1,0,0.1-0.1,0.1-0.1c0-0.1-0.1-0.1-0.1-0.1h-0.9
					C36.4,15.8,36.3,15.9,36.3,16z"/>
				<path class="st0" d="M47.5,16c0,0.1,0.1,0.1,0.1,0.1h0.2C48,16.1,48,16,48,16c0-0.1-0.1-0.1-0.1-0.1h-0.2
					C47.6,15.8,47.5,15.9,47.5,16z"/>
				<path class="st0" d="M45.7,16c0,0.1,0.1,0.1,0.1,0.1h0.9c0.1,0,0.1-0.1,0.1-0.1c0-0.1-0.1-0.1-0.1-0.1h-0.9
					C45.7,15.8,45.7,15.9,45.7,16z"/>
				<path class="st0" d="M43.8,16c0,0.1,0.1,0.1,0.1,0.1h0.9c0.1,0,0.1-0.1,0.1-0.1c0-0.1-0.1-0.1-0.1-0.1h-0.9
					C43.9,15.8,43.8,15.9,43.8,16z"/>
				<path class="st0" d="M41.9,16c0,0.1,0.1,0.1,0.1,0.1H43c0.1,0,0.1-0.1,0.1-0.1c0-0.1-0.1-0.1-0.1-0.1h-0.9
					C42,15.8,41.9,15.9,41.9,16z"/>
				<path class="st0" d="M30.4,8.8c0,0.1,0.1,0.1,0.1,0.1h0.9c0.1,0,0.1-0.1,0.1-0.1c0-0.1-0.1-0.1-0.1-0.1h-0.9
					C30.4,8.7,30.4,8.8,30.4,8.8z"/>
				<path class="st0" d="M21.1,8.8c0,0.1,0.1,0.1,0.1,0.1h0.9c0.1,0,0.1-0.1,0.1-0.1c0-0.1-0.1-0.1-0.1-0.1h-0.9
					C21.1,8.7,21.1,8.8,21.1,8.8z"/>
				<path class="st0" d="M24.8,8.8c0,0.1,0.1,0.1,0.1,0.1h0.9C25.9,9,26,8.9,26,8.8c0-0.1-0.1-0.1-0.1-0.1h-0.9
					C24.9,8.7,24.8,8.8,24.8,8.8z"/>
				<path class="st0" d="M22.9,8.8C22.9,8.9,23,9,23,9H24c0.1,0,0.1-0.1,0.1-0.1c0-0.1-0.1-0.1-0.1-0.1H23C23,8.7,22.9,8.8,22.9,8.8
					z"/>
				<path class="st0" d="M19.2,8.8c0,0.1,0.1,0.1,0.1,0.1h0.9c0.1,0,0.1-0.1,0.1-0.1c0-0.1-0.1-0.1-0.1-0.1h-0.9
					C19.3,8.7,19.2,8.8,19.2,8.8z"/>
				<path class="st0" d="M32.3,8.8c0,0.1,0.1,0.1,0.1,0.1h0.9c0.1,0,0.1-0.1,0.1-0.1c0-0.1-0.1-0.1-0.1-0.1h-0.9
					C32.3,8.7,32.3,8.8,32.3,8.8z"/>
				<path class="st0" d="M34,14.6v0.9c0,0.1,0.1,0.1,0.1,0.1c0.1,0,0.1-0.1,0.1-0.1v-0.9c0-0.1-0.1-0.1-0.1-0.1
					C34.1,14.4,34,14.5,34,14.6z"/>
				<path class="st0" d="M26.7,8.8c0,0.1,0.1,0.1,0.1,0.1h0.9c0.1,0,0.1-0.1,0.1-0.1c0-0.1-0.1-0.1-0.1-0.1h-0.9
					C26.7,8.7,26.7,8.8,26.7,8.8z"/>
				<path class="st0" d="M17.3,8.8c0,0.1,0.1,0.1,0.1,0.1h0.9c0.1,0,0.1-0.1,0.1-0.1c0-0.1-0.1-0.1-0.1-0.1h-0.9
					C17.4,8.7,17.3,8.8,17.3,8.8z"/>
				<path class="st0" d="M28.5,8.8c0,0.1,0.1,0.1,0.1,0.1h0.9c0.1,0,0.1-0.1,0.1-0.1c0-0.1-0.1-0.1-0.1-0.1h-0.9
					C28.6,8.7,28.5,8.8,28.5,8.8z"/>
			</g>
		</g>
		<g class="st2">
			<g>
				<path class="st0" d="M35.7,55.3l1.7,1.3l-1.7,1.3c-0.1,0-0.1,0.1,0,0.2c0,0,0.1,0,0.1,0c0,0,0.1,0,0.1,0l1.8-1.4
					c0,0,0-0.1,0-0.1c0,0,0-0.1,0-0.1l-1.8-1.4c-0.1,0-0.1,0-0.2,0C35.7,55.2,35.7,55.3,35.7,55.3z"/>
			</g>
			<g>
				<g>
					<path class="st0" d="M36.9,55.3l0.2,0.1c0,0,0,0,0.1,0c0,0,0.1,0,0.1,0c0-0.1,0-0.1,0-0.2l-0.2-0.1c-0.1,0-0.1,0-0.2,0
						C36.9,55.2,36.9,55.3,36.9,55.3z"/>
				</g>
				<g>
					<path class="st0" d="M37.4,55.7l0.3,0.2c0,0,0,0,0.1,0c0,0,0.1,0,0.1,0c0-0.1,0-0.1,0-0.2l-0.3-0.2c-0.1,0-0.1,0-0.2,0
						C37.3,55.5,37.3,55.6,37.4,55.7z"/>
					<path class="st0" d="M38,56.1l0.3,0.2c0,0,0,0,0.1,0c0,0,0.1,0,0.1,0c0-0.1,0-0.1,0-0.2l-0.3-0.2c-0.1,0-0.1,0-0.2,0
						C37.9,56,38,56.1,38,56.1z"/>
				</g>
				<g>
					<path class="st0" d="M38.6,56.6L38.6,56.6L38.6,56.6c-0.1,0.1-0.1,0.2,0,0.2c0,0,0.1,0,0.1,0c0,0,0.1,0,0.1,0l0.2-0.1
						c0,0,0-0.1,0-0.1c0,0,0-0.1,0-0.1l-0.2-0.1c-0.1,0-0.1,0-0.2,0C38.6,56.5,38.6,56.6,38.6,56.6z"/>
				</g>
				<g>
					<path class="st0" d="M37.4,57.6c-0.1,0-0.1,0.1,0,0.2c0,0,0.1,0,0.1,0c0,0,0.1,0,0.1,0l0.3-0.2c0.1,0,0.1-0.1,0-0.2
						c0-0.1-0.1-0.1-0.2,0L37.4,57.6z"/>
					<path class="st0" d="M38,57.1c-0.1,0-0.1,0.1,0,0.2c0,0,0.1,0,0.1,0c0,0,0.1,0,0.1,0l0.3-0.2c0.1,0,0.1-0.1,0-0.2
						c0-0.1-0.1-0.1-0.2,0L38,57.1z"/>
				</g>
				<g>
					<path class="st0" d="M36.9,57.9c-0.1,0-0.1,0.1,0,0.2c0,0,0.1,0,0.1,0c0,0,0.1,0,0.1,0l0.2-0.1c0.1,0,0.1-0.1,0-0.2
						c0-0.1-0.1-0.1-0.2,0L36.9,57.9z"/>
				</g>
			</g>
			<g>
				
					<ellipse transform="matrix(2.240472e-03 -1 1 2.240472e-03 -53.4385 54.9162)" class="st0" cx="0.8" cy="54.2" rx="0.4" ry="0.4"/>
			</g>
			<g>
				
					<ellipse transform="matrix(2.116002e-03 -1 1 2.116002e-03 -48.5037 50.0191)" class="st0" cx="0.8" cy="49.3" rx="0.4" ry="0.4"/>
			</g>
			<g>
				
					<ellipse transform="matrix(1.991532e-03 -1 1 1.991532e-03 -18.7117 80.0013)" class="st0" cx="30.7" cy="49.4" rx="0.4" ry="0.4"/>
			</g>
			<g>
				
					<ellipse transform="matrix(2.240472e-03 -1 1 2.240472e-03 -25.8804 87.1042)" class="st0" cx="30.7" cy="56.5" rx="0.4" ry="0.4"/>
			</g>
			<g>
				
					<ellipse transform="matrix(1.991532e-03 -1 1 1.991532e-03 -11.8907 101.187)" class="st0" cx="44.7" cy="56.6" rx="0.4" ry="0.4"/>
			</g>
			<g>
				<g>
					
						<ellipse transform="matrix(2.177156e-03 -1 1 2.177156e-03 -35.7093 62.9019)" class="st0" cx="13.7" cy="49.3" rx="0.4" ry="0.4"/>
				</g>
				<g>
					
						<ellipse transform="matrix(2.062088e-03 -1 1 2.062088e-03 -34.6015 64.0208)" class="st0" cx="14.8" cy="49.3" rx="0.4" ry="0.4"/>
				</g>
				<g>
					
						<ellipse transform="matrix(2.062324e-03 -1 1 2.062324e-03 -33.4953 65.134)" class="st0" cx="15.9" cy="49.3" rx="0.4" ry="0.4"/>
				</g>
				<g>
					
						<ellipse transform="matrix(2.062088e-03 -1 1 2.062088e-03 -32.3889 66.2471)" class="st0" cx="17" cy="49.4" rx="0.4" ry="0.4"/>
				</g>
			</g>
			<g>
				<path class="st0" d="M0.7,49.3l0,4.8l-0.7,0v0.2l0.8,0h0c0,0,0.1,0,0.1,0c0,0,0-0.1,0-0.1l0-4.8l29.8,0.1l0,7.1
					c0,0.1,0.1,0.1,0.1,0.1l14,0h0c0.1,0,0.1-0.1,0.1-0.1c0-0.1-0.1-0.1-0.1-0.1l-13.9,0l0-7.1c0-0.1-0.1-0.1-0.1-0.1l-30-0.1h0
					C0.8,49.2,0.8,49.2,0.7,49.3C0.7,49.3,0.7,49.3,0.7,49.3z"/>
			</g>
		</g>
		<g>
			<g>
				<path class="st0" d="M16.7,52.7c0,0.1,0.1,0.1,0.1,0.1h19.4c0.1,0,0.1-0.1,0.1-0.1c0-0.1-0.1-0.1-0.1-0.1H16.8
					C16.7,52.6,16.7,52.6,16.7,52.7z"/>
			</g>
			<g>
				<path class="st0" d="M16.5,52.1v1.3c0,0.1,0.1,0.1,0.1,0.1c0.1,0,0.1-0.1,0.1-0.1v-1.3c0-0.1-0.1-0.1-0.1-0.1
					C16.6,51.9,16.5,52,16.5,52.1z"/>
			</g>
			<g>
				<path class="st0" d="M16,51.4v2.7c0,0.1,0.1,0.1,0.1,0.1c0.1,0,0.1-0.1,0.1-0.1v-2.7c0-0.1-0.1-0.1-0.1-0.1
					C16,51.3,16,51.3,16,51.4z"/>
			</g>
			<g>
				<path class="st0" d="M12.2,52.7c0,0.1,0.1,0.1,0.1,0.1h3.7c0.1,0,0.1-0.1,0.1-0.1c0-0.1-0.1-0.1-0.1-0.1h-3.7
					C12.3,52.6,12.2,52.6,12.2,52.7z"/>
			</g>
			<g>
				<g>
					<path class="st0" d="M13.7,51.3c0,0.1,0.1,0.1,0.1,0.1h1.3c0.1,0,0.1-0.1,0.1-0.1s-0.1-0.1-0.1-0.1h-1.3
						C13.7,51.1,13.7,51.2,13.7,51.3z"/>
				</g>
				<g>
					<path class="st0" d="M14.3,50.6v1.3c0,0.1,0.1,0.1,0.1,0.1c0.1,0,0.1-0.1,0.1-0.1v-1.3c0-0.1-0.1-0.1-0.1-0.1
						C14.4,50.5,14.3,50.5,14.3,50.6z"/>
				</g>
			</g>
			<g>
				<path class="st0" d="M57.6,58.2c0,0.5,0.4,0.8,0.8,0.8c0.5,0,0.8-0.4,0.8-0.8c0-0.5-0.4-0.8-0.8-0.8
					C58,57.4,57.6,57.7,57.6,58.2z M59.1,58.2c0,0.3-0.3,0.6-0.6,0.6c-0.3,0-0.6-0.3-0.6-0.6c0-0.3,0.3-0.6,0.6-0.6
					C58.8,57.6,59.1,57.9,59.1,58.2z"/>
			</g>
			<g>
				<g>
					<circle class="st0" cx="68.8" cy="58.2" r="0.4"/>
				</g>
				<g>
					<circle class="st0" cx="69.9" cy="58.2" r="0.4"/>
				</g>
				<g>
					<circle class="st0" cx="71" cy="58.2" r="0.4"/>
				</g>
				<g>
					<circle class="st0" cx="72.2" cy="58.2" r="0.4"/>
				</g>
			</g>
			<g>
				<path class="st0" d="M40.1,52.7c0,0.1,0.1,0.1,0.1,0.1h18.1v5.3c0,0.1,0.1,0.1,0.1,0.1h27.9c0.1,0,0.1-0.1,0.1-0.1
					c0-0.1-0.1-0.1-0.1-0.1H58.6v-5.3c0-0.1-0.1-0.1-0.1-0.1H40.2C40.2,52.6,40.1,52.6,40.1,52.7z"/>
			</g>
			<g>
				<path class="st0" d="M84.7,56.8l1.7,1.3l-1.7,1.3c-0.1,0-0.1,0.1,0,0.2c0,0,0.1,0,0.1,0c0,0,0.1,0,0.1,0l1.9-1.4
					c0,0,0-0.1,0-0.1s0-0.1,0-0.1l-1.9-1.4c-0.1,0-0.1,0-0.2,0C84.6,56.7,84.6,56.8,84.7,56.8z"/>
			</g>
			<g>
				<circle class="st0" cx="58.4" cy="52.8" r="0.4"/>
			</g>
			<g>
				<g>
					<path class="st0" d="M36.1,52.8c0,1.1,0.9,2.1,2.1,2.1c1.1,0,2.1-0.9,2.1-2.1c0-1.1-0.9-2.1-2.1-2.1
						C37,50.7,36.1,51.6,36.1,52.8z M40,52.8c0,1-0.8,1.8-1.8,1.8c-1,0-1.8-0.8-1.8-1.8c0-1,0.8-1.8,1.8-1.8
						C39.2,50.9,40,51.8,40,52.8z"/>
				</g>
				<g>
					<path class="st0" d="M36.7,54c0,0,0,0.1,0,0.2c0,0,0.1,0,0.1,0c0,0,0.1,0,0.1,0l2.7-2.7c0,0,0-0.1,0-0.2c0,0-0.1,0-0.2,0
						L36.7,54z"/>
				</g>
				<g>
					<path class="st0" d="M36.7,51.5l2.7,2.7c0,0,0.1,0,0.1,0c0,0,0.1,0,0.1,0c0,0,0-0.1,0-0.2l-2.7-2.7c0,0-0.1,0-0.2,0
						C36.7,51.4,36.7,51.4,36.7,51.5z"/>
				</g>
			</g>
		</g>
		<g>
			<g>
				<path class="st0" d="M27.6,35.8c0,0,0,0.1,0,0.2c0,0,0.1,0,0.1,0c0,0,0.1,0,0.1,0l2.3-2.3c0,0,0-0.1,0-0.2s-0.1,0-0.2,0
					L27.6,35.8z"/>
			</g>
			<g>
				<path class="st0" d="M30,35.8c0,0,0,0.1,0,0.2c0,0,0.1,0,0.1,0c0,0,0.1,0,0.1,0l2.3-2.3c0,0,0-0.1,0-0.2c0,0-0.1,0-0.2,0
					L30,35.8z"/>
			</g>
			<g>
				<path class="st0" d="M2.4,34.7c0,0.1,0.1,0.1,0.1,0.1h25.6c0.1,0,0.1-0.1,0.1-0.1c0-0.1-0.1-0.1-0.1-0.1H2.5
					C2.4,34.6,2.4,34.7,2.4,34.7z"/>
			</g>
			<g>
				<path class="st0" d="M28,34.7c0,0.4,0.4,0.8,0.8,0.8c0.4,0,0.8-0.4,0.8-0.8c0-0.4-0.4-0.8-0.8-0.8C28.4,33.9,28,34.3,28,34.7z
					 M29.4,34.7c0,0.3-0.3,0.6-0.6,0.6c-0.3,0-0.6-0.3-0.6-0.6c0-0.3,0.3-0.6,0.6-0.6C29.1,34.2,29.4,34.4,29.4,34.7z"/>
			</g>
			<g>
				<path class="st0" d="M31.8,34.7c0,0.1,0.1,0.1,0.1,0.1h18c0.1,0,0.1-0.1,0.1-0.1c0-0.1-0.1-0.1-0.1-0.1h-18
					C31.9,34.6,31.8,34.7,31.8,34.7z"/>
			</g>
			<g>
				<path class="st0" d="M53.5,34.7c0,0.1,0.1,0.1,0.1,0.1H72c0.1,0,0.1-0.1,0.1-0.1c0-0.1-0.1-0.1-0.1-0.1H53.6
					C53.6,34.6,53.5,34.7,53.5,34.7z"/>
			</g>
			<g>
				<path class="st0" d="M30.4,34.7c0,0.4,0.4,0.8,0.8,0.8c0.4,0,0.8-0.4,0.8-0.8c0-0.4-0.4-0.8-0.8-0.8
					C30.8,33.9,30.4,34.3,30.4,34.7z M31.8,34.7c0,0.3-0.3,0.6-0.6,0.6c-0.3,0-0.6-0.3-0.6-0.6c0-0.3,0.3-0.6,0.6-0.6
					C31.5,34.2,31.8,34.4,31.8,34.7z"/>
			</g>
			<g>
				<g>
					<path class="st0" d="M49.8,34.7c0,1.1,0.9,1.9,1.9,1.9c1.1,0,1.9-0.9,1.9-1.9c0-1.1-0.9-1.9-1.9-1.9
						C50.7,32.8,49.8,33.7,49.8,34.7z M53.5,34.7c0,0.9-0.8,1.7-1.7,1.7s-1.7-0.8-1.7-1.7c0-0.9,0.8-1.7,1.7-1.7
						S53.5,33.8,53.5,34.7z"/>
				</g>
				<g>
					<path class="st0" d="M50.4,35.9c0,0,0,0.1,0,0.2c0,0,0.1,0,0.1,0c0,0,0.1,0,0.1,0l2.6-2.6c0,0,0-0.1,0-0.2c0,0-0.1,0-0.2,0
						L50.4,35.9z"/>
				</g>
				<g>
					<path class="st0" d="M50.4,33.5l2.6,2.6c0,0,0.1,0,0.1,0c0,0,0.1,0,0.1,0c0,0,0-0.1,0-0.2l-2.6-2.6c0,0-0.1,0-0.2,0
						C50.4,33.4,50.4,33.5,50.4,33.5z"/>
				</g>
			</g>
			<g>
				<circle class="st0" cx="71.8" cy="34.7" r="0.7"/>
			</g>
			<g>
				<circle class="st0" cx="2.4" cy="34.7" r="0.7"/>
			</g>
			<g>
				<g>
					<circle class="st0" cx="13.3" cy="34.7" r="0.4"/>
				</g>
				<g>
					<circle class="st0" cx="14.4" cy="34.7" r="0.4"/>
				</g>
				<g>
					<circle class="st0" cx="15.4" cy="34.7" r="0.4"/>
				</g>
				<g>
					<circle class="st0" cx="16.5" cy="34.7" r="0.4"/>
				</g>
			</g>
			<g>
				<g>
					<circle class="st0" cx="38.3" cy="34.7" r="0.4"/>
				</g>
				<g>
					<circle class="st0" cx="39.4" cy="34.7" r="0.4"/>
				</g>
				<g>
					<circle class="st0" cx="40.5" cy="34.7" r="0.4"/>
				</g>
				<g>
					<circle class="st0" cx="41.5" cy="34.7" r="0.4"/>
				</g>
			</g>
		</g>
		<path class="st0" d="M77.1,22.9l0,0.2l-0.3,0l0-0.2l0,0l-0.1-0.2l-0.2,0l0,0.2l0,0l0,0.2l-0.3,0.1L76,23.1l0,0l-0.2-0.2l-0.2,0.1
			l0,0.2l0,0l0.1,0.2l-0.3,0.2l-0.1-0.2l0,0l-0.2-0.1L75,23.3l0.1,0.2l0,0l0.1,0.1L75,24l-0.1-0.1l0,0l-0.2-0.1l-0.1,0.2l0.1,0.2
			l0,0l0.2,0.1l-0.2,0.3l-0.2-0.1l0,0l-0.2,0l-0.1,0.2l0.2,0.2l0,0l0.2,0.1l-0.1,0.3l-0.2,0l0,0l-0.2,0l0,0.2l0.2,0.1l0,0l0.2,0
			l0,0.3l-0.2,0l0,0l-0.2,0.1l0,0.2l0.2,0l0,0l0.2,0l0.1,0.3l-0.2,0.1l0,0L74,26.7l0.1,0.2l0.2,0l0,0l0.2-0.1l0.1,0.3l-0.2,0.1l0,0
			l-0.2,0.2l0.1,0.2l0.2-0.1l0,0l0.2-0.1l0.2,0.2L75,27.8l0,0L74.8,28l0.2,0.2l0.2-0.1l0,0l0.1-0.1l0.3,0.2l-0.1,0.2l0,0l-0.1,0.2
			l0.2,0.1l0.2-0.2l0,0l0.1-0.2l0.3,0.1l-0.1,0.2l0,0l0,0.2l0.2,0.1l0.1-0.2l0,0l0-0.2l0.3,0l0,0.2l0,0l0.1,0.2l0.2,0l0.1-0.2l0,0
			l0-0.2l0.3,0l0,0.2l0,0l0.1,0.2l0.2-0.1l0-0.2l0,0l-0.1-0.2l0.3-0.1l0.1,0.2l0,0l0.2,0.2l0.2-0.1l-0.1-0.2l0,0L78.5,28l0.3-0.2
			l0.1,0.1l0,0l0.2,0.1l0.2-0.2l-0.1-0.2l0,0L79,27.5l0.2-0.3l0.2,0.1l0,0l0.2,0.1l0.1-0.2l-0.2-0.2l0,0L79.4,27l0.1-0.3l0.2,0.1
			l0,0l0.2,0l0.1-0.2l-0.2-0.1l0,0l-0.2,0l0.1-0.3l0.2,0l0,0l0.2-0.1l0-0.2l-0.2-0.1l0,0l-0.2,0l0-0.3l0.2,0l0,0l0.2-0.1l0-0.2
			l-0.2,0l0,0L79.6,25l-0.1-0.3l0.2-0.1l0,0l0.2-0.2l-0.1-0.2l-0.2,0l0,0l-0.2,0.1l-0.2-0.3l0.2-0.1l0,0l0.1-0.2l-0.2-0.2l-0.2,0.1
			l0,0l-0.1,0.1l-0.2-0.2l0.1-0.1l0,0l0.1-0.2l-0.2-0.1l-0.2,0.2l0,0l-0.1,0.2l-0.3-0.2l0.1-0.2l0,0l0-0.2L78,22.8L77.8,23l0,0
			l-0.1,0.2l-0.3-0.1l0-0.2l0,0l0-0.2l-0.2,0L77.1,22.9L77.1,22.9z M75,26.7c-0.1-0.3-0.2-0.7-0.2-1c0-0.3,0.1-0.7,0.3-1
			c0.2-0.3,0.4-0.6,0.7-0.8l0.5,1c-0.2,0.2-0.4,0.5-0.4,0.8c0,0.3,0.1,0.6,0.3,0.8l-0.6,0.9C75.4,27.3,75.1,27,75,26.7z M79.2,26.1
			c-0.1,0.3-0.2,0.7-0.4,0.9c-0.2,0.3-0.5,0.5-0.8,0.7c-0.3,0.2-0.6,0.2-1,0.3c-0.3,0-0.7-0.1-1-0.2l0.6-0.9
			c0.3,0.1,0.6,0.1,0.9-0.1c0.3-0.1,0.5-0.4,0.5-0.7L79.2,26.1z M77.6,25.8c0,0.2-0.1,0.3-0.2,0.4c-0.1,0.1-0.3,0.2-0.4,0.2
			c-0.2,0-0.3-0.1-0.4-0.2c-0.1-0.1-0.2-0.3-0.2-0.4c0-0.2,0.1-0.3,0.2-0.4c0.1-0.1,0.3-0.2,0.4-0.2c0.2,0,0.3,0.1,0.4,0.2
			C77.6,25.5,77.6,25.6,77.6,25.8z M78.2,23.9c0.3,0.2,0.5,0.4,0.7,0.7c0.2,0.3,0.3,0.6,0.3,1l-1.1,0c-0.1-0.3-0.2-0.6-0.5-0.7
			c-0.3-0.2-0.6-0.2-0.9-0.1l-0.5-1c0.3-0.1,0.7-0.2,1-0.1C77.5,23.6,77.9,23.7,78.2,23.9z"/>
		<path class="st0" d="M20.7,57.8l0,0.2l-0.3,0l0-0.2l0,0l-0.1-0.2l-0.2,0l0,0.2l0,0l0,0.2l-0.3,0.1l-0.1-0.2l0,0l-0.2-0.2l-0.2,0.1
			l0,0.2l0,0l0.1,0.2l-0.3,0.2L19,58.2l0,0l-0.2-0.1l-0.2,0.1l0.1,0.2l0,0l0.1,0.1l-0.2,0.2l-0.1-0.1l0,0l-0.2-0.1l-0.1,0.2l0.1,0.2
			l0,0l0.2,0.1l-0.2,0.3l-0.2-0.1l0,0l-0.2,0l-0.1,0.2l0.2,0.2l0,0l0.2,0.1L18,60l-0.2,0l0,0l-0.2,0l0,0.2l0.2,0.1l0,0l0.2,0l0,0.3
			l-0.2,0l0,0l-0.2,0.1l0,0.2l0.2,0l0,0l0.2,0l0.1,0.3l-0.2,0.1l0,0l-0.2,0.1l0.1,0.2l0.2,0l0,0l0.2-0.1l0.1,0.3l-0.2,0.1l0,0
			L18,62.3l0.1,0.2l0.2-0.1l0,0l0.2-0.1l0.2,0.2l-0.1,0.1l0,0l-0.1,0.2l0.2,0.2l0.2-0.1l0,0l0.1-0.1l0.3,0.2l-0.1,0.2l0,0l-0.1,0.2
			l0.2,0.1l0.2-0.2l0,0l0.1-0.2l0.3,0.1l-0.1,0.2l0,0l0,0.2l0.2,0.1l0.1-0.2l0,0l0-0.2l0.3,0l0,0.2l0,0l0.1,0.2l0.2,0l0.1-0.2l0,0
			l0-0.2l0.3,0l0,0.2l0,0l0.1,0.2l0.2-0.1l0-0.2l0,0l-0.1-0.2l0.3-0.1l0.1,0.2l0,0l0.2,0.2l0.2-0.1L22.3,63l0,0l-0.1-0.2l0.3-0.2
			l0.1,0.1l0,0l0.2,0.1l0.2-0.2l-0.1-0.2l0,0l-0.1-0.1l0.2-0.3l0.2,0.1l0,0l0.2,0.1l0.1-0.2L23.2,62l0,0L23,61.8l0.1-0.3l0.2,0.1
			l0,0l0.2,0l0.1-0.2l-0.2-0.1l0,0l-0.2,0l0.1-0.3l0.2,0l0,0l0.2-0.1l0-0.2l-0.2-0.1l0,0l-0.2,0l0-0.3l0.2,0l0,0l0.2-0.1l0-0.2
			l-0.2,0l0,0l-0.2,0.1l-0.1-0.3l0.2-0.1l0,0l0.2-0.2l-0.1-0.2l-0.2,0l0,0L23,59.3L22.8,59l0.2-0.1l0,0l0.1-0.2l-0.2-0.2l-0.2,0.1
			l0,0l-0.1,0.1l-0.2-0.2l0.1-0.1l0,0l0.1-0.2L22.3,58l-0.2,0.2l0,0L22,58.3l-0.3-0.2l0.1-0.2l0,0l0-0.2l-0.2-0.1l-0.1,0.2l0,0
			L21.4,58L21.1,58l0-0.2l0,0l0-0.2l-0.2,0L20.7,57.8L20.7,57.8z M18.6,61.5c-0.1-0.3-0.2-0.7-0.2-1c0-0.3,0.1-0.7,0.3-1
			c0.2-0.3,0.4-0.6,0.7-0.8l0.5,1c-0.2,0.2-0.4,0.5-0.4,0.8c0,0.3,0.1,0.6,0.3,0.8l-0.6,0.9C19,62.1,18.8,61.9,18.6,61.5z
			 M22.8,60.9c-0.1,0.3-0.2,0.7-0.4,0.9c-0.2,0.3-0.5,0.5-0.8,0.7c-0.3,0.2-0.6,0.2-1,0.3c-0.3,0-0.7-0.1-1-0.2l0.6-0.9
			c0.3,0.1,0.6,0.1,0.9-0.1c0.3-0.1,0.5-0.4,0.5-0.7L22.8,60.9z M21.2,60.6c0,0.2-0.1,0.3-0.2,0.4c-0.1,0.1-0.3,0.2-0.4,0.2
			c-0.2,0-0.3-0.1-0.4-0.2c-0.1-0.1-0.2-0.3-0.2-0.4c0-0.2,0.1-0.3,0.2-0.4c0.1-0.1,0.3-0.2,0.4-0.2c0.2,0,0.3,0.1,0.4,0.2
			C21.2,60.3,21.3,60.5,21.2,60.6z M21.8,58.8c0.3,0.2,0.5,0.4,0.7,0.7c0.2,0.3,0.3,0.6,0.3,1l-1.1,0c-0.1-0.3-0.2-0.6-0.5-0.7
			c-0.3-0.2-0.6-0.2-0.9-0.1l-0.5-1c0.3-0.1,0.7-0.2,1-0.1C21.2,58.5,21.5,58.6,21.8,58.8z"/>
		<path class="st0" d="M47.3,66L47.3,66l0-0.1l-0.1,0l0,0.1l0,0l0,0.1l-0.2,0l0-0.1l0,0l-0.1-0.1l-0.1,0l0,0.1l0,0l0,0.1l-0.1,0.1
			l0-0.1l0,0L46.5,66l-0.1,0.1l0,0.1l0,0l0.1,0.1l-0.1,0.1l-0.1-0.1l0,0l-0.1-0.1l-0.1,0.1l0.1,0.1l0,0l0.1,0.1l-0.1,0.1l-0.1-0.1
			l0,0l-0.1,0l-0.1,0.1l0.1,0.1l0,0l0.1,0L46,66.9l-0.1,0l0,0l-0.1,0l0,0.1l0.1,0.1l0,0l0.1,0l0,0.2l-0.1,0l0,0l-0.1,0l0,0.1l0.1,0
			l0,0l0.1,0l0,0.2l-0.1,0l0,0l-0.1,0.1l0,0.1l0.1,0l0,0l0.1,0l0.1,0.2l-0.1,0l0,0L45.9,68l0.1,0.1l0.1,0l0,0l0.1,0l0.1,0.1
			l-0.1,0.1l0,0l-0.1,0.1l0.1,0.1l0.1-0.1l0,0l0.1-0.1l0.1,0.1l-0.1,0.1l0,0l0,0.1l0.1,0.1l0.1-0.1l0,0l0-0.1l0.1,0.1l0,0.1l0,0
			l0,0.1l0.1,0l0.1-0.1l0,0l0-0.1l0.2,0l0,0.1l0,0l0,0.1l0.1,0l0-0.1l0,0l0-0.1l0.2,0l0,0.1l0,0l0.1,0.1l0.1,0l0-0.1l0,0l0-0.1
			l0.2,0l0,0.1l0,0l0.1,0.1l0.1,0l0-0.1l0,0l0-0.1l0.1-0.1l0.1,0.1l0,0l0.1,0.1l0.1-0.1l0-0.1l0,0l-0.1-0.1l0.1-0.1l0.1,0.1l0,0
			l0.1,0l0.1-0.1l-0.1-0.1l0,0l-0.1-0.1l0.1-0.1l0.1,0l0,0l0.1,0l0-0.1l-0.1-0.1l0,0l-0.1,0l0-0.2l0.1,0l0,0l0.1,0l0-0.1l-0.1,0l0,0
			l-0.1,0l0-0.2l0.1,0l0,0l0.1,0l0-0.1l-0.1,0l0,0l-0.1,0l0-0.2l0.1,0l0,0l0.1-0.1l0-0.1l-0.1,0l0,0l-0.1,0l-0.1-0.1l0.1,0l0,0
			l0.1-0.1l-0.1-0.1l-0.1,0l0,0l-0.1,0.1l-0.1-0.1l0.1-0.1l0,0l0.1-0.1l-0.1-0.1l-0.1,0.1l0,0l-0.1,0.1l-0.1-0.1l0-0.1l0,0l0-0.1
			L47.9,66l-0.1,0.1l0,0l0,0.1l-0.2-0.1l0-0.1l0,0l0-0.1l-0.1,0L47.5,66l0,0l0,0.1L47.3,66L47.3,66z M48.2,68
			c-0.2,0.2-0.4,0.4-0.7,0.4c-0.3,0.1-0.6,0-0.8-0.1c-0.2-0.1-0.4-0.4-0.5-0.6c-0.1-0.3-0.1-0.6,0.1-0.8l0.7,0.4
			c0,0.1,0,0.2,0.1,0.3c0.1,0.1,0.2,0,0.3,0L48.2,68z M47.3,67.3C47.3,67.4,47.3,67.4,47.3,67.3c0,0.1,0,0.1-0.1,0.1
			C47.2,67.4,47.2,67.4,47.3,67.3C47.2,67.3,47.3,67.3,47.3,67.3z M47.8,66.4c0.2,0.1,0.4,0.4,0.5,0.6c0.1,0.3,0.1,0.6-0.1,0.8
			l-0.7-0.4c0-0.1,0-0.2-0.1-0.3c-0.1-0.1-0.2,0-0.3,0l-0.7-0.4c0.2-0.2,0.4-0.4,0.7-0.4C47.3,66.2,47.6,66.3,47.8,66.4z"/>
		<path class="st0" d="M72.2,39L72.2,39l-0.1-0.3l-0.2,0L71.8,39l0,0l0,0.2l-0.3,0l0-0.2l0,0l-0.1-0.2l-0.2,0.1l0,0.3l0,0l0.1,0.2
			l-0.3,0.1l-0.1-0.2l0,0l-0.2-0.2l-0.2,0.1l0.1,0.3l0,0l0.1,0.2l-0.3,0.2l-0.1-0.2l0,0l-0.2-0.1l-0.2,0.2l0.1,0.2l0,0l0.1,0.1
			l-0.2,0.3l-0.2-0.1l0,0l-0.2-0.1l-0.1,0.2l0.2,0.2l0,0l0.2,0.1L69.4,41L69.2,41l0,0l-0.3,0l-0.1,0.2l0.2,0.1l0,0l0.2,0l-0.1,0.3
			l-0.2,0l0,0l-0.3,0.1l0,0.2l0.2,0.1l0,0l0.2,0l0,0.3l-0.2,0l0,0l-0.2,0.1l0,0.2l0.3,0l0,0l0.2-0.1l0.1,0.3l-0.2,0.1l0,0L69,43.4
			l0.1,0.2l0.3,0l0,0l0.2-0.1l0.2,0.3l-0.2,0.1l0,0l-0.1,0.2l0.2,0.2l0.2-0.1l0,0L70,44l0.3,0.2l-0.1,0.2l0,0L70,44.7l0.2,0.1
			l0.2-0.2l0,0l0.1-0.2l0.3,0.2l-0.1,0.2l0,0l0,0.3l0.2,0.1l0.2-0.2l0,0l0.1-0.2l0.3,0.1l0,0.2l0,0l0,0.3l0.2,0l0.1-0.2l0,0l0-0.2
			l0.3,0l0,0.2l0,0l0.1,0.2l0.2,0l0-0.3l0,0l0-0.2l0.3-0.1l0.1,0.2l0,0l0.2,0.2l0.2-0.1l0-0.3l0,0l-0.1-0.2l0.3-0.2l0.1,0.2l0,0
			l0.2,0.2l0.2-0.1L74,44.4l0,0l-0.1-0.2l0.3-0.2l0.1,0.1l0,0l0.2,0.1l0.2-0.2l-0.1-0.2l0,0l-0.2-0.1l0.2-0.3l0.2,0.1l0,0l0.3,0
			l0.1-0.2l-0.2-0.2l0,0l-0.2-0.1l0.1-0.3l0.2,0l0,0l0.3,0l0-0.2l-0.2-0.1l0,0l-0.2,0l0-0.3l0.2,0l0,0l0.2-0.1l0-0.2l-0.3-0.1l0,0
			l-0.2,0l-0.1-0.3l0.2-0.1l0,0l0.2-0.1l-0.1-0.2l-0.3,0l0,0L74.6,41l-0.1-0.3l0.2-0.1l0,0l0.2-0.2l-0.1-0.2l-0.2,0.1l0,0l-0.2,0.1
			l-0.2-0.3l0.1-0.1l0,0l0.1-0.2l-0.2-0.2L74,39.7l0,0l-0.1,0.2l-0.3-0.2l0.1-0.2l0,0l0.1-0.3l-0.2-0.1l-0.2,0.2l0,0l-0.1,0.2
			l-0.3-0.1l0.1-0.2l0,0l0-0.3l-0.2-0.1L72.6,39l0,0l0,0.2l-0.3,0L72.2,39z M69.7,41.4c0.2-0.5,0.5-1,1-1.3l0.8,1.4
			c-0.2,0.2-0.3,0.5-0.2,0.8L69.8,43C69.6,42.5,69.6,41.9,69.7,41.4z M72.1,41.7c0.1,0,0.2,0.1,0.2,0.2c0,0.1,0.1,0.2,0,0.3
			c0,0.1-0.1,0.2-0.2,0.2c-0.1,0.1-0.2,0.1-0.3,0c-0.1,0-0.2-0.1-0.2-0.2c0-0.1-0.1-0.2,0-0.3c0-0.1,0.1-0.2,0.2-0.2
			C71.9,41.7,72,41.7,72.1,41.7z M73,44.2c-0.5,0.2-1.1,0.3-1.6,0.1c-0.5-0.2-1-0.5-1.3-1l1.4-0.8c0.2,0.2,0.5,0.3,0.8,0.2L73,44.2z
			 M74.3,42.7c-0.2,0.5-0.5,1-1,1.3l-0.8-1.4c0.2-0.2,0.3-0.5,0.2-0.8l1.4-0.8C74.4,41.6,74.5,42.2,74.3,42.7z M72.7,39.8
			c0.5,0.2,1,0.5,1.3,1l-1.4,0.8c-0.2-0.2-0.5-0.3-0.8-0.2l-0.8-1.4C71.6,39.7,72.1,39.6,72.7,39.8z"/>
		<path class="st0" d="M0.1,23.3L0.1,23.3L0,24.4c0,0.1,0,0.3,0,0.5c0,0.1,0,0.2,0,0.2v1.2l0,0l0,0l0.2,0.1l0.1-0.2L0.2,26l0,0
			l-0.1-0.1l0.1-0.2l0.1,0.1l0,0l0.2,0l0.1-0.2l-0.2-0.1l0,0l-0.1,0l0.1-0.3l0.2,0l0,0l0.2,0l0-0.2l-0.2-0.1l0,0l-0.2,0l0-0.3l0.2,0
			l0,0l0.2-0.1l0-0.2l-0.2,0l0,0l-0.2,0l-0.1-0.3l0.1,0l0,0l0.2-0.1l-0.1-0.2l-0.2,0l0,0l-0.1,0.1l-0.1-0.2l0.1-0.1l0,0l0.1-0.2
			l-0.1-0.2L0.1,23.3L0.1,23.3z"/>
	</g>
	<polygon class="st0" points="2.8,22.4 3.5,21.7 0,21.7 0,22.4 	"/>
	<polygon class="st0" points="3.1,53.2 3.9,52.4 10.1,52.4 10.9,53.2 14.6,53.2 15.3,52.5 10.7,52.5 9.5,51.4 1.7,51.4 1,50.4 
		0,50.4 0,53.2 	"/>
	<polygon class="st0" points="67.5,33.9 65.5,35.7 74.6,35.7 75.4,34.9 81.6,34.9 82.4,35.7 86.1,35.7 86.9,35 82.2,35 81,33.9 
		74.9,33.9 74.2,33.1 70,33.1 69.4,33.9 	"/>
</g>
</svg>
