<?xml version="1.0" encoding="utf-8"?>
<!-- Generator: Adobe Illustrator 21.0.2, SVG Export Plug-In . SVG Version: 6.00 Build 0)  -->
<svg version="1.1" id="Layer_1" xmlns="http://www.w3.org/2000/svg" xmlns:xlink="http://www.w3.org/1999/xlink" x="0px" y="0px"
	 viewBox="0 0 111 111.3" style="enable-background:new 0 0 111 111.3;" xml:space="preserve">
<style type="text/css">
	.st0{fill:#FFFFFF;}
	.st1{fill:#5D9BD5;}
</style>
<g>
	<path class="st0" d="M72.5,8.4l-1.1,3.1l-5.5-1.6l0.8-3.2l0.1-0.8l-0.5-4.3l-4.1-0.7l-1.8,3.9l-0.2,0.8l-0.3,3.3l-5.7-0.2l-0.1-3.3
		L54,4.6l-1.5-4L48.4,1l-0.8,4.2V6l0.5,3.3l-5.6,1.2l-0.9-3.2l-0.3-0.7l-2.5-3.5l-3.9,1.4l0.3,4.3l0.2,0.8l1.3,3l-5.1,2.6l-1.7-2.9
		l-0.5-0.6l-3.3-2.8l-3.4,2.3l1.4,4.1l0.4,0.7l2,2.6l-4.3,3.8l-2.3-2.3l-0.6-0.5l-3.9-1.9l-2.7,3.1l2.3,3.6l0.6,0.5l2.6,2l-3.1,4.6
		l-2.8-1.7l-0.7-0.3l-4.2-0.9l-1.9,3.7l3.2,2.9l0.7,0.4l3,1.3l-2,5.4l-3.2-0.9l-0.8-0.1l-4.3,0.2l-0.9,4l3.8,2l0.7,0.2L9,48.2
		l-0.6,5.7l-3.3-0.1l-0.8,0.1l-4.1,1.3l0.1,4.1l4.2,1h0.8L8.6,60l0.9,5.7l-3.2,0.7l-0.7,0.3l-3.7,2.2l1.1,4h4.3L8,72.7l3.1-1.1
		l2.2,5.3l-3,1.5l-0.7,0.4l-3,3.1l2.1,3.6l4.2-1.1l0.7-0.3l2.7-1.9l3.5,4.5l-2.5,2.2l-0.5,0.6l-2.1,3.7l2.9,2.9l3.7-2.1l0.6-0.5
		l2.2-2.5l4.5,3.5l-1.9,2.7l-0.4,0.7l-1.1,4.2l3.6,2.1l3.1-3l0.4-0.7l1.5-2.9l5.2,2.3l-1.1,3.1l-0.2,0.8l-0.1,4.3l4,1.2l2.3-3.7
		l0.3-0.7l0.7-3.2l5.7,0.9l-0.3,3.3v0.8l1,4.2l4.1,0.1l1.3-4.1l0.1-0.8l-0.1-3.3l5.7-0.5l0.5,3.3l0.2,0.8l2,3.8l4-0.9l0.2-4.3
		l-0.1-0.8l-0.9-3.2l5.4-1.9l1.3,3.1l0.4,0.7l2.9,3.2l3.7-1.9l-0.9-4.2l-0.3-0.7l-1.7-2.9l4.7-3.2l2,2.6l0.5,0.6l3.6,2.4l3.1-2.7
		l-1.9-3.9l-0.5-0.6l-2.3-2.4l3.8-4.3l2.6,2l0.7,0.4l4.1,1.4l2.3-3.4L99,82l-0.6-0.5l-2.8-1.7l2.6-5.1l3,1.3l0.8,0.2l4.3,0.3
		l1.4-3.9l-3.5-2.5l-0.7-0.3l-3.2-0.9l1.3-5.6l3.3,0.5h0.8l4.2-0.7l0.4-4.1l-4-1.6l-0.8-0.1l-3.3-0.1l-0.1-5.7l3.3-0.3l0.8-0.2
		l3.9-1.7l-0.6-4.1l-4.3-0.5l-0.8,0.1l-3.2,0.7L99.6,40l3.1-1.1l0.7-0.3l3.4-2.7l-1.6-3.8l-4.3,0.6l-0.7,0.3l-3,1.5l-2.9-4.9
		l2.7-1.9l0.6-0.5l2.6-3.4l-2.5-3.3l-4,1.6L93,22.5l-2.5,2.2l-4-4.1l2.2-2.5l0.4-0.6l1.7-4L87.5,11L84,13.6l-0.5,0.6l-1.9,2.7
		L76.7,14l1.5-2.9l0.3-0.7l0.6-4.3l-3.8-1.7l-2.7,3.4L72.5,8.4z M17.6,60.5c-0.7-5.9,0-12.1,2-17.7c2.1-5.6,5.4-10.8,9.8-14.9
		c4.4-4.1,9.7-7.2,15.5-8.9l3.4,19.1c-4.9,2-8.8,6.2-10.6,11.2c-1.8,5-1.5,10.7,1,15.4L23.8,77.2C20.5,72.3,18.4,66.5,17.6,60.5z
		 M90.2,73.1c-2.7,5.4-6.6,10.1-11.4,13.7c-4.8,3.6-10.5,6-16.4,7.1c-5.9,1-12,0.7-17.8-1.1c-5.8-1.7-11.1-4.8-15.4-9l14.9-12.5
		c4.2,3.2,9.8,4.5,15,3.6s10-4.1,12.8-8.5L90.2,73.1z M65.9,59.7c-1,2.6-3,4.9-5.5,6c-2.5,1.2-5.6,1.3-8.2,0.3c-2.6-0.9-4.9-3-6-5.5
		c-1.2-2.5-1.3-5.6-0.4-8.2c1-2.6,3-4.9,5.6-6c2.5-1.2,5.5-1.3,8.2-0.4c2.6,1,4.9,3,6,5.5C66.7,54,66.8,57,65.9,59.7z M85.3,31.3
		c3.9,4.6,6.6,10.1,8,15.9c1.4,5.9,1.3,12-0.1,17.8l-18.3-6.6c0.7-5.2-0.9-10.7-4.3-14.8c-3.4-4-8.5-6.6-13.8-6.9l-3.4-19.1
		c6-0.4,12,0.7,17.6,3C76.5,23,81.4,26.7,85.3,31.3z"/>
	<path class="st1" d="M55.9,111.3l-4.9-0.2l-1.1-4.7v-0.8l0.3-2.9l-4.7-0.8l-0.6,2.8l-0.3,0.9l-2.5,4l-4.7-1.4l0.1-4.8l0.2-0.8
		l1-2.7L34.3,98l-1.3,2.5l-0.5,0.8l-3.4,3.2l-4.2-2.5l1.3-4.6l0.4-0.7l1.6-2.4l-3.8-2.9l-1.9,2.1l-0.7,0.6l-4.1,2.3l-3.4-3.5
		l2.4-4.1l0.5-0.6l2.2-1.9l-2.9-3.8l-2.4,1.6l-0.8,0.4l-4.6,1.3l-2.5-4.2l3.4-3.4l0.7-0.4l2.6-1.3L11,72.1l-2.7,1l-0.9,0.2H2.7
		l-1.3-4.7l4-2.4l0.8-0.3l2.9-0.6l-0.7-4.7l-2.8,0.3H4.7l-4.5-1.1L0,54.9l4.6-1.4l0.8-0.1l2.9,0.1l0.5-4.8L6,48.3L5.1,48L1,45.8
		L2.1,41l4.7-0.2l0.9,0.1l2.8,0.8l1.7-4.5l-2.6-1.1l-0.8-0.5l-3.4-3.2L7.6,28l4.6,1l0.8,0.3l2.5,1.5l2.7-4L16,25l-0.7-0.7l-2.5-3.9
		l3.2-3.6l4.3,2.1l0.6,0.5l2,2.1l3.6-3.2l-1.7-2.2l-0.5-0.8l-1.5-4.4l4-2.7l3.6,3.1l0.5,0.6l1.5,2.5l4.3-2.2l-1.1-2.6l-0.2-0.8L35,4
		l4.6-1.6l2.7,3.9L42.6,7l0.8,2.8l4.7-1L47.7,6V5.1l0.8-4.7L53.4,0L55,4.4l0.2,0.9l0.1,2.9l4.8,0.2l0.3-2.8l0.2-0.9l2-4.3l4.8,0.8
		l0.5,4.7l-0.1,0.8l-0.7,2.8l4.6,1.3l1-2.7l0.4-0.8L76,3.6l4.5,2l-0.7,4.7L79.5,11l-1.3,2.6l4.1,2.4l1.6-2.3l0.6-0.7l3.8-2.8l3.9,3
		l-1.8,4.4L90,18.2l-1.9,2.2l3.4,3.4l2.1-1.9l0.7-0.5l4.4-1.8l3,3.9l-3.6,4L97.5,28l-2.4,1.6l2.4,4.1l2.5-1.3l0.8-0.3l4.8-0.7
		l1.9,4.5l-3.8,3l-0.7,0.3l-2.7,1l1.3,4.6l2.8-0.6l0.9-0.1l4.8,0.5l0.7,4.9l-4.3,1.9l-0.8,0.2l-2.9,0.3l0.1,4.8l2.8,0.1l0.9,0.1
		l4.4,1.7l-0.5,4.9l-4.7,0.8H105l-2.9-0.5l-1,4.7l2.7,0.8l0.9,0.4l3.8,2.7l-1.7,4.6l-4.8-0.4l-0.8-0.2l-2.7-1.2l-2.2,4.3l2.4,1.4
		l0.7,0.5l3.1,3.6l-2.8,4.1l-4.5-1.6l-0.7-0.4l-2.3-1.8L89,88.9l2,2l0.6,0.7l2,4.2L89.9,99l-4-2.7l-0.5-0.6l-1.8-2.3l-4,2.7l1.4,2.5
		l0.4,0.9l0.9,4.6l-4.4,2.2l-3.2-3.6l-0.4-0.7l-1.1-2.7l-4.5,1.6l0.8,2.7l0.2,0.9l-0.2,4.7l-4.8,1.1l-2.2-4.2l-0.2-0.8l-0.4-2.9
		l-4.8,0.4l0.1,2.9l-0.1,0.9L55.9,111.3z M51.8,110.2l3.4,0.1l1.2-3.7l0.1-0.7l-0.1-3.7l6.7-0.6l0.6,3.7l0.2,0.6l1.8,3.4l3.3-0.7
		l0.2-3.9l-0.1-0.7l-1-3.6l6.3-2.2l1.5,3.5l0.3,0.6l2.6,2.9l3-1.5L81,99.9l-0.3-0.7L78.8,96l5.5-3.7l2.3,3l0.5,0.5l3.2,2.1l2.5-2.2
		l-1.7-3.5l-0.4-0.6L88.1,89l4.4-5l3,2.3l0.6,0.3l3.7,1.3l1.9-2.8l-2.5-3l-0.6-0.4l-3.2-1.9l3-5.9l3.5,1.5l0.6,0.2l3.8,0.3l1.2-3.2
		l-3.1-2.2l-0.7-0.3l-3.6-1l1.5-6.5l3.7,0.6h0.7l3.8-0.7l0.3-3.4l-3.6-1.4l-0.7-0.1l-3.7-0.1l-0.2-6.7l3.8-0.3l0.7-0.2l3.5-1.6
		l-0.5-3.3l-3.9-0.4l-0.7,0.1l-3.6,0.8l-1.9-6.4l3.6-1.3l0.6-0.3l3-2.4l-1.3-3.1l-3.9,0.5l-0.6,0.2l-3.3,1.7L94,29.2l3.1-2.1
		l0.5-0.4l2.3-3.1l-2.1-2.7l-3.6,1.5l-0.6,0.4l-2.8,2.5l-4.7-4.7l2.5-2.8l0.4-0.6l1.5-3.6l-2.7-2.1l-3.1,2.3l-0.5,0.5l-2.1,3.1
		L76.4,14l1.7-3.4l0.2-0.6l0.5-3.8l-3.1-1.4l-2.4,3L73,8.4l-1.3,3.5L65.3,10l0.9-3.7l0.1-0.7l-0.4-3.9l-3.3-0.5L61,4.7l-0.1,0.7
		l-0.4,3.7l-6.7-0.2l-0.1-3.8l-0.1-0.7l-1.3-3.6l-3.4,0.3l-0.7,3.8v0.7l0.6,3.7l-6.5,1.4l-1-3.7l-0.2-0.6l-2.2-3.2l-3.2,1.1L36,8.2
		l0.2,0.7l1.5,3.4l-6,3L29.8,12l-0.4-0.5L26.5,9l-2.8,1.9l1.2,3.7l0.4,0.6l2.3,2.9l-5,4.4l-2.7-2.7l-0.5-0.4l-3.5-1.7l-2.2,2.5
		l2.1,3.3l0.5,0.5l2.9,2.3l-3.8,5.5l-3.3-2l-0.7-0.3l-3.7-0.8l-1.5,3L9,34.3l0.6,0.4l3.4,1.5l-2.3,6.3l-3.6-1.1l-0.7-0.1l-3.8,0.2
		l-0.8,3.3l3.4,1.8l0.7,0.2l3.7,0.6L8.9,54l-3.8-0.1L4.5,54l-3.7,1.1l0.1,3.4l3.8,0.9h0.7l3.7-0.3l1,6.6l-3.7,0.8l-0.7,0.3l-3.3,2
		L3.3,72h3.9l0.7-0.2l3.5-1.3l2.6,6.1l-3.4,1.7L10,78.7l-2.7,2.8L9,84.4l3.8-1l0.6-0.3l3.1-2.1l4.1,5.3l-2.9,2.5l-0.4,0.5l-1.9,3.4
		l2.4,2.4l3.4-1.9l0.5-0.5l2.5-2.8l5.3,4.1l-2.2,3.1L27,97.7l-1,3.7l2.9,1.7l2.8-2.7l0.4-0.6l1.7-3.3l6.1,2.7l-1.3,3.5l-0.1,0.7
		l-0.1,3.9l3.2,0.9l2-3.3l0.2-0.7l0.8-3.7l6.6,1.1l-0.4,3.7v0.7L51.8,110.2z M55.8,94.9c-3.8,0-7.6-0.6-11.3-1.7
		c-5.8-1.8-11.2-4.9-15.6-9.1l-0.4-0.4l15.6-13.1l0.3,0.2c4.1,3.1,9.5,4.4,14.6,3.5c5-0.9,9.7-4,12.5-8.3l0.2-0.3l19.1,7l-0.2,0.5
		c-2.7,5.4-6.7,10.2-11.6,13.9c-4.9,3.6-10.6,6.1-16.6,7.2C60.3,94.7,58.1,94.9,55.8,94.9z M30,83.8c4.2,3.9,9.3,6.8,14.8,8.5
		c5.6,1.7,11.7,2.1,17.5,1c5.8-1,11.4-3.4,16.2-7c4.6-3.4,8.4-7.9,11-13L72.2,67c-3,4.4-7.8,7.5-12.9,8.4
		c-5.2,0.9-10.8-0.4-15.1-3.5L30,83.8z M23.7,78l-0.3-0.5c-3.3-5-5.5-10.9-6.2-16.9s0-12.2,2.1-17.9c2.1-5.8,5.5-11,10-15.1
		c4.4-4.2,9.9-7.3,15.7-9l0.5-0.2L49,38.5l-0.4,0.2c-4.7,2-8.6,6-10.3,10.9c-1.8,4.8-1.4,10.4,0.9,15l0.2,0.4L23.7,78z M44.6,19.8
		c-5.5,1.7-10.5,4.6-14.7,8.6c-4.3,4-7.7,9.1-9.7,14.7s-2.7,11.6-2,17.4l0,0c0.7,5.7,2.7,11.2,5.8,16l14.2-11.9
		c-2.3-4.8-2.6-10.5-0.8-15.4c1.8-5,5.7-9.2,10.5-11.3L44.6,19.8z M55.8,67.2c-1.3,0-2.6-0.2-3.8-0.7c-2.7-1-5.1-3.2-6.3-5.8
		c-1.2-2.7-1.4-5.8-0.4-8.6s3.2-5.1,5.8-6.3c2.6-1.3,5.8-1.4,8.6-0.4s5.1,3.1,6.3,5.8s1.4,5.8,0.4,8.6l0,0c-1,2.8-3.1,5.1-5.8,6.3
		C59.1,66.9,57.4,67.2,55.8,67.2z M55.8,45.8c-1.5,0-3,0.3-4.3,0.9c-2.4,1.1-4.4,3.2-5.3,5.7c-0.9,2.5-0.8,5.4,0.4,7.8
		c1.1,2.4,3.3,4.4,5.7,5.3c2.5,0.9,5.4,0.8,7.8-0.3c2.4-1.1,4.4-3.2,5.3-5.8c0.9-2.5,0.8-5.4-0.4-7.8c-1.1-2.4-3.2-4.4-5.7-5.3
		C58.2,46,57,45.8,55.8,45.8z M93.5,65.7l-19.2-7l0.1-0.4c0.7-5.1-0.9-10.5-4.2-14.4s-8.3-6.4-13.4-6.7h-0.4l-3.5-20.1h0.6
		c6-0.4,12.2,0.7,17.8,3.1S81.9,26.3,85.8,31c3.9,4.6,6.7,10.2,8.1,16.1c1.4,5.9,1.4,12.1-0.1,18.1L93.5,65.7z M75.4,58.1l17.4,6.3
		c1.3-5.6,1.3-11.5-0.1-17c-1.4-5.8-4.1-11.2-7.9-15.7l0,0c-3.8-4.5-8.7-8.2-14.1-10.5c-5.3-2.3-11.1-3.3-16.8-3l3.2,18.2
		c5.2,0.4,10.4,3,13.8,7C74.3,47.4,76,52.8,75.4,58.1z"/>
</g>
</svg>
