<?xml version="1.0" encoding="utf-8"?>
<!-- Generator: Adobe Illustrator 21.0.2, SVG Export Plug-In . SVG Version: 6.00 Build 0)  -->
<svg version="1.1" id="Layer_1" xmlns="http://www.w3.org/2000/svg" xmlns:xlink="http://www.w3.org/1999/xlink" x="0px" y="0px"
	 viewBox="0 0 84.8 84.5" style="enable-background:new 0 0 84.8 84.5;" xml:space="preserve">
<style type="text/css">
	.st0{fill:#FFFFFF;}
	.st1{fill:#5D9BD5;}
</style>
<g>
	<path class="st0" d="M55.1,6.2l-0.9,2.4L50,7.4l0.6-2.5l0.1-0.6L50.3,1l-3.1-0.5l-1.4,3l-0.1,0.6l-0.2,2.5l-4.4-0.2L41,3.9
		l-0.1-0.6l-1.1-3.1l-3.1,0.3l-0.6,3.2v0.6l0.4,2.5l-4.2,0.9l-0.7-2.4l-0.2-0.5l-1.9-2.7l-3,1l0.3,3.2L27,6.9l1,2.3l-3.9,2L22.8,9
		l-0.4-0.5l-2.5-2.1l-2.6,1.7l1,3.1l0.3,0.5l1.5,2L17,16.8L15.2,15l-0.5-0.4l-2.9-1.4l-2.1,2.3l1.8,2.7l0.4,0.4l2,1.5l-2.5,3.6
		l-2.2-1.3l-0.6-0.2l-3.2-0.7L4,24.3l2.4,2.2l0.5,0.3l2.3,1l-1.5,4.1l-2.4-0.7l-0.6-0.1l-3.2,0.1l-0.7,3.1l2.9,1.5L4.3,36l2.5,0.4
		l-0.4,4.3l-2.5-0.1H3.3l-3.1,0.9l0.1,3.1l3.2,0.8h0.6l2.5-0.2l0.7,4.3L4.8,50l-0.6,0.2l-2.8,1.7l0.9,3h3.3l0.6-0.1l2.4-0.9l1.7,4
		L8.1,59l-0.5,0.3l-2.3,2.3l1.6,2.7l3.2-0.9l0.5-0.3l2.1-1.4l2.7,3.4l-1.9,1.7l-0.4,0.4L11.5,70l2.2,2.2l2.8-1.6l0.4-0.4l1.7-1.9
		L22,71l-1.4,2.1l-0.3,0.5l-0.9,3.1l2.7,1.6l2.4-2.3l0.3-0.5l1.2-2.2l4,1.7l-0.9,2.4L29,78l-0.1,3.3l3,0.9l1.7-2.8l0.2-0.6l0.6-2.5
		l4.3,0.7l-0.3,2.5v0.6l0.8,3.2l3.1,0.1l1-3.1l0.1-0.6l-0.1-2.5l4.3-0.4l0.4,2.5l0.2,0.6l1.5,2.9l3.1-0.7l0.2-3.3l-0.1-0.6l-0.7-2.4
		l4.1-1.5l1,2.3l0.3,0.5l2.2,2.4l2.8-1.4l-0.7-3.2l-0.2-0.5l-1.3-2.2l3.6-2.4l1.5,2l0.4,0.4l2.7,1.8l2.4-2.1L69.6,69l-0.4-0.5
		l-1.8-1.8l2.9-3.3l2,1.5l0.5,0.3l3.1,1.1l1.8-2.6l-2.1-2.5l-0.5-0.4l-2.2-1.3l2-3.9l2.3,1l0.6,0.2l3.2,0.3l1.1-2.9l-2.6-1.9
		l-0.6-0.2l-2.4-0.7l1-4.2l2.5,0.4h0.6l3.2-0.6l0.3-3.1l-3-1.2l-0.6-0.1L78,42.5l-0.1-4.3l2.5-0.2l0.6-0.1l3-1.3l-0.5-3.1l-3.2-0.4
		l-0.6,0.1l-2.4,0.5l-1.2-4.2l2.4-0.8l0.5-0.3l2.6-2l-1.2-2.9l-3.2,0.4l-0.6,0.2l-2.2,1.1l-2.2-3.7l2.1-1.4l0.5-0.4l2-2.6l-1.9-2.5
		l-3,1.2l-0.5,0.3l-1.9,1.7l-3.1-3.1l1.7-1.9l0.3-0.5l1.3-3l-2.5-1.9l-2.6,2l-0.4,0.4l-1.4,2.1l-3.7-2.2l1.2-2.2L60.5,7L61,3.8
		l-2.9-1.3l-2,2.5L55.1,6.2z M13.4,45.7c-0.5-4.5,0-9.1,1.5-13.4C16.5,28,19,24.1,22.4,21c3.3-3.1,7.4-5.4,11.7-6.7l2.5,14.5
		c-3.7,1.6-6.7,4.7-8,8.5c-1.4,3.8-1.1,8.1,0.7,11.7L18,58.5C15.6,54.6,14,50.2,13.4,45.7z M68.5,55.2c-2,4.1-5,7.7-8.6,10.4
		c-3.7,2.7-7.9,4.6-12.4,5.4c-4.5,0.8-9.1,0.5-13.5-0.8s-8.4-3.7-11.7-6.8l11.3-9.5c3.2,2.4,7.4,3.4,11.4,2.7
		c3.9-0.7,7.5-3.1,9.7-6.4L68.5,55.2z M50,45.1c-0.7,2-2.3,3.7-4.2,4.6c-1.9,0.9-4.2,1-6.2,0.3s-3.7-2.3-4.6-4.2
		c-0.9-1.9-1-4.2-0.3-6.2s2.3-3.7,4.2-4.6s4.2-1,6.2-0.3s3.7,2.3,4.6,4.2C50.6,40.8,50.7,43.1,50,45.1z M64.7,23.6
		c2.9,3.5,5,7.7,6,12.1s1,9.1-0.1,13.5l-13.8-5c0.5-4-0.7-8.1-3.3-11.2c-2.6-3.1-6.5-5-10.5-5.2l-2.6-14.5c4.5-0.3,9.1,0.5,13.3,2.3
		C58,17.3,61.8,20.1,64.7,23.6z"/>
	<path class="st1" d="M42.5,84.5l-3.9-0.1l-0.9-3.7v-0.6l0.2-2.1l-3.4-0.6l-0.4,2l-0.3,0.7l-1.9,3.1l-3.7-1.1l0.1-3.7l0.1-0.6l0.7-2
		L26,74.4l-0.9,1.8l-0.4,0.6l-2.6,2.5l-3.3-2l1-3.6l0.3-0.5l1.2-1.7l-2.7-2.1l-1.3,1.5l-0.6,0.5l-3.2,1.8l-2.7-2.8l1.9-3.2l0.4-0.4
		l1.6-1.4l-2.1-2.7l-1.7,1.1l-0.6,0.3l-3.6,1l-2-3.4L7.3,59l0.5-0.3l1.9-0.9l-1.3-3.1l-1.9,0.7l-0.7,0.2H2.1L1,51.9L4.1,50l0.6-0.3
		l2.1-0.5l-0.5-3.4l-2,0.2H3.6l-3.5-0.9L0,41.2l3.6-1.1h0.6l2.1,0.1l0.3-3.4l-2-0.3l-0.7-0.2l-3.2-1.7l0.9-3.8l3.6-0.2l0.7,0.1
		l2,0.6l1.2-3.2l-1.9-0.8l-0.7-0.4l-2.7-2.5l1.8-3.5l3.6,0.8L9.8,22l1.8,1.1l1.9-2.8L11.9,19l-0.5-0.5l-2-3.1l2.6-2.9l3.4,1.7
		l0.5,0.4l1.5,1.5l2.6-2.2l-1.2-1.6l-0.4-0.6l-1.2-3.4l3.2-2.2l2.8,2.4L23.6,9l1.1,1.8l3-1.5l-0.8-1.9l-0.2-0.6l-0.3-3.7l3.7-1.3
		l2.1,3.1l0.2,0.5l0.6,2l3.3-0.7l-0.3-2V4l0.7-3.6L40.6,0l1.3,3.4L42,4.1v2.1l3.4,0.1l0.2-2l0.2-0.7l1.5-3.3l3.8,0.6l0.4,3.7
		l-0.1,0.6l-0.5,2.1l3.3,1l0.7-2l0.3-0.6l2.3-2.8l3.6,1.6l-0.5,3.7l-0.2,0.5l-1,1.9l2.9,1.7l1.2-1.7L64,10l2.9-2.2l3.1,2.4l-1.4,3.5
		l-0.3,0.5l-1.4,1.6l2.4,2.4l1.5-1.3l0.6-0.4l3.5-1.4l2.4,3.1l-2.3,3l-0.5,0.4l-1.7,1.2l1.7,2.9l1.8-0.9l0.6-0.2l3.7-0.5l1.5,3.6
		L79.2,30l-0.5,0.3l-2,0.7l0.9,3.3l2-0.4l0.7-0.1l3.7,0.4l0.6,3.9l-3.3,1.5l-0.7,0.2L78.5,40l0.1,3.4l2,0.1l0.8,0.1l3.4,1.3
		l-0.4,3.9l-3.6,0.6h-0.7L78,49.1l-0.8,3.3l1.9,0.6l0.7,0.3l3,2.1L81.5,59l-3.7-0.3l-0.6-0.2l-1.9-0.8l-1.6,3l1.7,1l0.5,0.4l2.4,2.8
		l-2.2,3.2l-3.5-1.2l-0.5-0.3l-1.6-1.3l-2.3,2.5l1.4,1.4l0.5,0.6l1.6,3.3l-2.9,2.6l-3.1-2.1l-0.4-0.4L64,71.5l-2.8,1.9l1,1.8
		l0.3,0.7l0.7,3.6l-3.5,1.8l-2.5-2.8L56.9,78l-0.8-1.9l-3.2,1.1l0.6,2l0.1,0.7l-0.2,3.7l-3.8,0.8l-1.7-3.3l-0.2-0.6l-0.3-2.1
		L44,78.7l0.1,2L44,81.4L42.5,84.5z M39.5,83.3l2.4,0.1l0.8-2.7v-0.5l-0.1-2.9l5.3-0.5l0.4,2.9l0.1,0.5l1.3,2.5l2.3-0.5l0.1-2.8
		L52,78.9l-0.8-2.8l5-1.8l1.2,2.7l0.2,0.4l1.9,2.1l2.1-1.1L61,75.6l-0.2-0.5l-1.5-2.5l4.4-3l2.1,2.7l2.4,1.6l1.8-1.6l-1.2-2.5
		l-0.3-0.4l-2.1-2.1l3.5-4l2.3,1.8l0.4,0.2l2.7,0.9l1.3-2L74.7,62l-0.4-0.3l-2.5-1.5l2.4-4.7l2.7,1.2l0.5,0.1l2.8,0.2l0.8-2.2
		l-2.3-1.6L78.2,53l-2.8-0.8l1.2-5.2l2.9,0.5H80l2.8-0.5l0.2-2.4l-2.6-1l-0.5-0.1L77,43.4l-0.1-5.3l3-0.3l0.5-0.1l2.5-1.1l-0.4-2.4
		l-2.9-0.3L79.1,34l-2.8,0.6l-1.5-5.1l2.8-1l0.4-0.2l2.2-1.8l-0.9-2.2l-2.9,0.4l-0.5,0.2l-2.6,1.3l-2.7-4.6l2.8-2l1.7-2.3l-1.4-1.9
		L71,16.5l-0.4,0.3l-2.2,1.9l-3.7-3.8l2-2.2l0.3-0.4l1.1-2.6l-1.9-1.5l-2.3,1.7l-0.4,0.4l-1.6,2.4L57.4,10l1.4-2.7L59,6.9l0.4-2.8
		l-2.2-1l-1.8,2.2l-0.2,0.5l-1,2.8l-5.1-1.5l0.7-2.9V3.7l-0.3-2.8l-2.3-0.4L46,3.1l-0.1,0.5l-0.3,2.9l-5.3-0.2l-0.1-3l-0.1-0.5
		l-1-2.6l-2.4,0.2l-0.5,2.8v0.5l0.4,2.9l-5.2,1.1l-1-3.3l-1.6-2.3l-2.2,0.8l0.2,2.9l0.1,0.5L28.1,9l-4.7,2.4l-1.5-2.6l-0.3-0.4
		l-2.1-1.8l-2,1.3l0.9,2.7l0.3,0.5l1.8,2.3l-4,3.5l-2.1-2.1L14,14.5l-2-0.7l-1.6,1.8l1.5,2.4l0.4,0.4l2.3,1.8l-3,4.4L9,23.1
		l-0.5-0.2l-2.7-0.6l-1.1,2.1l2.1,1.9l0.5,0.3l2.7,1.2l-1.8,5l-2.9-0.9l-0.5-0.1L2,31.9l-0.5,2.3L4,35.5l0.5,0.1l2.9,0.5l-0.5,5.3
		l-3-0.1H3.4l-2.7,0.8l0.1,2.4l2.7,0.7H4l2.9-0.3l0.8,5.2l-2.9,0.6l-0.5,0.2l-2.4,1.4l0.6,2.3h2.8l0.5-0.1l2.8-1l2.1,4.9L7.6,60
		l-2,2l1.2,2l2.8-0.8L10,63l2.4-1.6l3.2,4.2l-2.3,2L13,68l-1.4,2.5l1.7,1.7l2.5-1.4l0.4-0.4l1.9-2.2l4.2,3.3L20.6,74l-0.2,0.4
		l-0.8,2.7l2,1.2l2-2l0.3-0.4l1.3-2.6l4.8,2.1l-1,2.8l-0.1,0.5l-0.1,2.8l2.3,0.7l1.5-2.4l0.2-0.5l0.6-2.9l5.2,0.9l-0.3,3v0.5
		L39.5,83.3z M42.4,71.9c-2.9,0-5.8-0.4-8.6-1.3c-4.4-1.4-8.6-3.7-11.9-6.9l-0.4-0.4l12-10.1l0.3,0.2c3.1,2.3,7.2,3.3,11,2.7
		c3.8-0.7,7.3-3,9.4-6.2l0.2-0.3L69.1,55l-0.2,0.5c-2.1,4.1-5.1,7.8-8.8,10.6c-3.7,2.8-8.1,4.7-12.6,5.5
		C45.8,71.8,44.1,71.9,42.4,71.9z M23,63.4c3.1,2.9,7,5,11.1,6.3c4.2,1.3,8.8,1.6,13.2,0.8c4.4-0.8,8.6-2.6,12.2-5.3
		c3.4-2.6,6.3-5.9,8.2-9.7l-12.9-4.7c-2.3,3.3-5.9,5.6-9.8,6.3c-4,0.7-8.2-0.3-11.4-2.6L23,63.4z M18,59.1l-0.3-0.5
		c-2.5-3.8-4.2-8.3-4.7-12.9c-0.6-4.6,0-9.3,1.6-13.6c1.6-4.4,4.2-8.3,7.6-11.5c3.4-3.2,7.5-5.5,11.9-6.8l0.5-0.2L37.3,29l-0.4,0.2
		c-3.5,1.5-6.5,4.5-7.8,8.2c-1.3,3.6-1.1,7.8,0.7,11.3l0.2,0.4L18,59.1z M33.8,15c-4.1,1.3-7.9,3.5-11,6.4c-3.2,3-5.8,6.9-7.3,11.1
		s-2.1,8.8-1.5,13.2l0,0c0.5,4.3,2,8.4,4.3,12l10.6-8.8c-1.7-3.6-2-8-0.6-11.7c1.4-3.8,4.3-6.9,8-8.6L33.8,15z M42.4,50.9
		c-1,0-2-0.2-3-0.5c-2.1-0.8-3.9-2.4-4.8-4.5c-1-2.1-1.1-4.5-0.3-6.6c0.8-2.2,2.4-3.9,4.5-4.9c2-1,4.4-1.1,6.6-0.3
		c2.1,0.8,3.9,2.4,4.9,4.5c1,2,1.1,4.4,0.3,6.6l0,0c-0.8,2.1-2.4,3.9-4.5,4.9C44.9,50.6,43.6,50.9,42.4,50.9z M42.4,34.7
		c-1.1,0-2.2,0.2-3.2,0.7c-1.8,0.8-3.3,2.4-4,4.3c-0.7,1.8-0.6,4,0.3,5.8c0.8,1.8,2.4,3.3,4.3,3.9c1.9,0.7,4,0.6,5.8-0.2
		c1.8-0.9,3.3-2.4,3.9-4.3c0.7-1.9,0.6-4-0.3-5.8c-0.8-1.8-2.4-3.3-4.3-3.9C44.1,34.8,43.3,34.7,42.4,34.7z M71,49.8l-14.8-5.4
		l0.1-0.4c0.5-3.8-0.7-7.9-3.2-10.8c-2.5-3-6.3-4.8-10.1-5h-0.4l-2.7-15.4h0.6c4.6-0.3,9.3,0.5,13.5,2.3c4.3,1.8,8.1,4.7,11,8.2
		c3,3.5,5.1,7.8,6.2,12.3s1,9.2-0.1,13.7L71,49.8z M57.4,43.8l12.9,4.7c0.9-4.2,0.9-8.6-0.1-12.7c-1-4.4-3.1-8.5-5.9-11.9l0,0
		c-2.9-3.4-6.5-6.2-10.7-7.9c-3.9-1.7-8.3-2.5-12.5-2.3l2.4,13.6c4,0.3,7.8,2.3,10.4,5.4C56.5,35.6,57.8,39.8,57.4,43.8z"/>
</g>
</svg>
