<?xml version="1.0" encoding="utf-8"?>
<!-- Generator: Adobe Illustrator 21.0.2, SVG Export Plug-In . SVG Version: 6.00 Build 0)  -->
<svg version="1.1" id="Layer_1" xmlns="http://www.w3.org/2000/svg" xmlns:xlink="http://www.w3.org/1999/xlink" x="0px" y="0px"
	 viewBox="0 0 300 300" style="enable-background:new 0 0 300 300;" xml:space="preserve">
<style type="text/css">
	.st0{fill:#FFFFFF;}
	.st1{fill:#4071B7;}
</style>
<g>
	<path class="st0" d="M187.7,150.7c-0.5,0-0.9,0-1.3,0.1c-1.6-8.9-7.9-15.5-15.5-15.5c-2.3,0-4.4,0.6-6.4,1.7
		c-2.8-10.6-10.8-18.2-20.3-18.2c-9.8,0-18,8.2-20.6,19.4c-1.8-0.8-3.7-1.2-5.7-1.2c-9.8,0-17.7,9.9-17.7,22.1
		c0,11.2,6.8,20.5,15.5,21.9c0.6,0.1,1.2,0.2,1.9,0.2h0.3l0,0l0,0h69.3c0.1,0,0.1,0,0.2,0c0.1,0,0.2,0,0.3,0
		c6.8,0,12.3-6.8,12.3-15.2C200,157.5,194.5,150.7,187.7,150.7z"/>
	<path class="st1" d="M187.7,181.6c-0.1,0-0.2,0-0.3,0h-0.2h-69.7c-0.6,0-1.3-0.1-2-0.2c-9.1-1.4-15.9-11-15.9-22.4
		c0-12.4,8.2-22.6,18.2-22.6c1.8,0,3.6,0.3,5.3,1c2.9-11.3,11.4-19.1,21-19.1c9.3,0,17.5,7.2,20.6,18c1.9-1,4-1.4,6.1-1.4
		c7.5,0,14.2,6.5,15.9,15.5c0.3,0,0.6,0,0.9,0c7.1,0,12.8,7,12.8,15.7C200.5,174.5,194.8,181.6,187.7,181.6z M187.4,180.6
		c0.1,0,0.2,0,0.3,0c6.5,0,11.8-6.6,11.8-14.7c0-8.1-5.3-14.7-11.8-14.7c-0.4,0-0.8,0-1.3,0.1l-0.5,0.1l-0.1-0.5
		c-1.6-8.8-7.9-15.1-15-15.1c-2.1,0-4.2,0.5-6.2,1.6l-0.6,0.3l-0.2-0.6c-2.9-10.7-10.8-17.8-19.8-17.8c-9.3,0-17.5,7.8-20.1,19
		l-0.1,0.6l-0.5-0.2c-1.8-0.8-3.6-1.1-5.5-1.1c-9.5,0-17.2,9.7-17.2,21.6c0,10.8,6.5,20,15.1,21.4c0.6,0.1,1.2,0.2,1.8,0.2
		L187.4,180.6z"/>
</g>
</svg>
