<?xml version="1.0" encoding="utf-8"?>
<!-- Generator: Adobe Illustrator 21.0.2, SVG Export Plug-In . SVG Version: 6.00 Build 0)  -->
<svg version="1.1" id="Layer_1" xmlns="http://www.w3.org/2000/svg" xmlns:xlink="http://www.w3.org/1999/xlink" x="0px" y="0px"
	 viewBox="0 0 181.2 181.1" style="enable-background:new 0 0 181.2 181.1;" xml:space="preserve">
<style type="text/css">
	.st0{fill:#FFFFFF;}
	.st1{fill:#5D9BD5;}
</style>
<g>
	<path class="st0" d="M118.6,13.3l-1.8,5.1l-9-2.6l1.2-5.3l0.1-1.2l-0.8-7l-6.7-1.1l-2.9,6.4l-0.3,1.2L98,14.1l-9.4-0.3l-0.1-5.4
		l-0.2-1.3l-2.4-6.6l-6.7,0.6L77.9,8L78,9.3l0.8,5.3l-9.1,2l-1.5-5.2l-0.5-1.2l-4-5.7l-6.4,2.3l0.5,7l0.3,1.2l2.2,5l-8.4,4.2
		l-2.8-4.7l-0.8-1L43.1,14l-5.6,3.8l2.2,6.7l0.7,1.1l3.3,4.3l-7,6.2l-3.8-3.8l-1-0.8l-6.3-3.1l-4.5,5l3.8,5.9l0.9,0.9l4.2,3.3
		l-5.3,7.7l-4.6-2.8l-1.2-0.5L12,46.4l-3.1,6l5.1,4.7l1.1,0.7l5,2.2L17,68.7l-5.2-1.6l-1.3-0.2l-7,0.3L2,73.8l6.2,3.3l1.2,0.3
		l5.3,0.9l-0.9,9.3l-5.4-0.2l-1.2,0.1l-6.7,2l0.2,6.7L7.5,98h1.3l5.4-0.5l1.5,9.2l-5.3,1.2l-1.2,0.5l-6,3.6l1.8,6.5l7-0.1l1.2-0.3
		l5.1-1.8l3.7,8.6l-4.8,2.5l-1.1,0.7l-4.9,5l3.4,5.8l6.8-1.8l1.1-0.6l4.5-3l5.7,7.4l-4.1,3.6l-0.8,0.9l-3.5,6.1l4.8,4.8l6.1-3.4
		l1-0.9l3.6-4.1l7.4,5.8l-3.1,4.5l-0.6,1.1l-1.9,6.8l5.8,3.4l5.1-4.9l0.7-1.1l2.5-4.8l8.5,3.8l-1.8,5.1l-0.3,1.3l-0.1,7l6.5,1.9
		l3.7-6l0.4-1.2l1.2-5.3l9.2,1.5l-0.5,5.4v1.3l1.6,6.8l6.7,0.2l2.1-6.7l0.1-1.3l-0.2-5.4l9.3-0.9l0.8,5.3l0.3,1.2l3.3,6.2l6.6-1.5
		l0.4-7l-0.2-1.2l-1.5-5.2l8.8-3.1l2.1,5l0.6,1.1l4.7,5.2l6-3l-1.4-6.9l-0.5-1.2l-2.7-4.7l7.8-5.2l3.3,4.3l0.9,0.9l5.9,3.9l5.1-4.5
		l-3.1-6.3l-0.8-1l-3.8-3.8l6.2-7l4.2,3.3l1.1,0.7l6.6,2.3l3.8-5.6l-4.5-5.3l-1-0.8l-4.6-2.8l4.3-8.3l4.9,2.2l1.2,0.4l7,0.5l2.3-6.3
		l-5.7-4.1l-1.2-0.5l-5.2-1.5l2.1-9.1l5.3,0.9l1.3,0.1l6.9-1.2l0.7-6.7l-6.5-2.5l-1.3-0.2l-5.4-0.2l-0.2-9.4l5.4-0.5l1.2-0.3L180,80
		l-1-6.7l-7-0.8l-1.3,0.1l-5.2,1.2l-2.6-9L168,63l1.1-0.6l5.5-4.4l-2.6-6.2l-7,1l-1.2,0.4l-4.8,2.4l-4.7-8.1l4.5-3l1-0.8l4.2-5.6
		l-4.1-5.3l-6.5,2.7l-1.1,0.7l-4,3.6l-6.6-6.6l3.6-4l0.7-1.1l2.7-6.5l-5.3-4.2l-5.7,4.2l-0.8,0.9l-3.1,4.5l-8-4.8l2.5-4.8l0.4-1.2
		l1-6.9l-6.2-2.7l-4.4,5.5L118.6,13.3z M28.3,97.9c-1.2-9.7,0-19.7,3.3-28.9c3.4-9.2,8.9-17.6,16-24.3C54.8,38,63.5,33,72.9,30.3
		l5.5,31.2c-8,3.3-14.4,10.1-17.3,18.2c-3,8.1-2.4,17.4,1.6,25.1l-24.3,20.4C32.9,117,29.5,107.6,28.3,97.9z M146.8,118.4
		c-4.3,8.8-10.8,16.5-18.6,22.3c-7.9,5.9-17.1,9.9-26.7,11.5c-9.6,1.7-19.7,1.1-29-1.7c-9.4-2.9-18.1-7.9-25.1-14.6l24.3-20.4
		c6.9,5.2,16,7.4,24.5,5.9s16.3-6.7,20.9-13.9L146.8,118.4z M107,96.5c-1.6,4.3-4.9,7.9-9,9.9c-4.1,1.9-9.1,2.2-13.4,0.6
		c-4.3-1.5-7.9-4.9-9.8-9s-2.2-9.1-0.6-13.4s4.9-7.9,9.1-9.8c4.1-2,9-2.2,13.3-0.6s7.9,4.9,9.8,9C108.4,87.3,108.6,92.2,107,96.5z
		 M138.7,50.2c6.3,7.5,10.8,16.5,13,26c2.2,9.6,2.2,19.6-0.1,29.1l-29.8-10.8c1.1-8.6-1.5-17.5-7.1-24.1s-13.9-10.8-22.5-11.2
		L86.7,28c9.8-0.6,19.7,1.1,28.7,4.9C124.3,36.7,132.4,42.6,138.7,50.2z"/>
	<path class="st1" d="M91.2,181.1l-7.5-0.3l-1.7-7.3v-1.3l0.5-4.9l-8.3-1.4l-1.1,4.8l-0.5,1.3l-3.9,6.3l-7.2-2.1l0.2-7.5l0.3-1.3
		l1.7-4.7l-7.7-3.4l-2.3,4.4l-0.8,1.2l-5.3,5.1l-6.5-3.8l2-7.2l0.6-1.1l2.8-4.1l-6.6-5.2l-3.3,3.7l-1.1,1l-6.4,3.6l-5.3-5.3l3.7-6.5
		l0.8-0.9l3.8-3.3l-5.1-6.7l-4.1,2.8l-1.2,0.6l-7.3,2l-3.8-6.5l5.3-5.4L17,127l4.4-2.3l-3.3-7.7l-4.7,1.7L12,119H4.6l-2-7.2l6.3-3.8
		l1.3-0.5l4.9-1.1l-1.3-8.3l-4.9,0.5l-1.4-0.1l-7.2-1.8L0,89.2L7.2,87h1.2l5,0.2l0.8-8.4L9.4,78L8,77.6l-6.5-3.5l1.7-7.3l7.4-0.3
		l1.4,0.2l4.8,1.4l2.9-7.9l-4.5-2L14,57.4l-5.4-5l3.4-6.7l7.2,1.5l1.3,0.5l4.3,2.6l4.8-7l-3.9-3l-1-1l-4-6.2l5-5.6l6.7,3.3l1,0.8
		l3.5,3.5l6.3-5.5l-3-3.9l-0.7-1.2l-2.3-7l6.2-4.2l5.7,4.9l0.8,1l2.6,4.3l7.5-3.8l-2-4.5l-0.4-1.3L57,6.4l7.1-2.5l4.3,6.2l0.5,1.2
		l1.4,4.8l8.2-1.8l-0.7-4.9L77.4,8l1.3-7.3L86.2,0l2.6,6.9L89,8.3l0.1,5l8.4,0.3L98,8.7l0.3-1.4l3.1-6.8l7.4,1.2l0.8,7.4l-0.1,1.3
		l-1.1,4.9l8.1,2.4l1.7-4.7l0.6-1.2l4.6-5.8l6.9,3l-1.1,7.4l-0.4,1.2l-2.3,4.4l7.2,4.3l2.8-4.1l0.9-1.1l6-4.4l5.9,4.6l-2.9,6.9
		l-0.7,1.1l-3.3,3.7l5.9,6l3.7-3.3l1.1-0.7l7-2.9l4.6,5.9l-4.5,6l-1,0.8l-4.1,2.8l4.3,7.3l4.4-2.2l1.3-0.4l7.5-1l2.9,6.9l-5.9,4.6
		l-1.1,0.6l-4.7,1.7l2.3,8.1l4.8-1.1l1.4-0.1l7.5,0.8l1.1,7.4l-6.8,3l-1.3,0.3l-5,0.4l0.2,8.4l4.9,0.2l1.4,0.2l6.9,2.7l-0.7,7.5
		l-7.3,1.3l-1.3-0.1l-4.9-0.8l-1.9,8.2l4.7,1.4l1.4,0.6l6,4.3l-2.6,7l-7.5-0.6l-1.2-0.4l-4.6-2l-3.8,7.5l4.2,2.5l1.1,0.8l4.9,5.7
		l-4.3,6.2l-7.1-2.5l-1.1-0.7l-3.9-3.1l-5.6,6.3l3.5,3.5l0.9,1.1l3.2,6.7l-5.6,5l-6.3-4.2l-0.9-0.9l-3-4l-7,4.7l2.5,4.3l0.6,1.3
		l1.5,7.2L128,173l-5-5.6l-0.6-1.1l-2-4.6l-7.9,2.8l1.3,4.7l0.2,1.3l-0.4,7.5l-7.3,1.6l-3.5-6.7l-0.3-1.2l-0.8-4.9l-8.4,0.8l0.2,5
		l-0.1,1.4L91.2,181.1z M84.5,179.9l6,0.2l2-6.3l0.1-1.2l-0.2-5.8l10.3-0.9l0.9,5.8l0.3,1.1l3.1,5.8l5.9-1.3l0.3-6.6l-0.2-1.2
		l-1.6-5.6l9.7-3.5l2.3,5.4l0.6,1l4.4,4.9l5.3-2.7l-1.3-6.4l-0.5-1.1l-2.9-5l8.5-5.8l3.6,4.7l0.8,0.8l5.5,3.6l4.5-4l-2.9-5.9
		l-0.7-0.9l-4.1-4.1l6.9-7.7l4.6,3.6l1,0.6l6.2,2.2l3.4-5l-4.3-5.1l-0.9-0.7l-5-3l4.7-9.2l5.4,2.4l1.1,0.3l6.6,0.5l2.1-5.6l-5.3-3.8
		l-1.2-0.5l-5.6-1.6l2.3-10.1l5.8,1h1.2l6.5-1.1l0.6-5.9l-6.1-2.4l-1.2-0.2l-5.8-0.2l-0.3-10.3l5.9-0.5l1.2-0.3l6-2.7l-0.9-5.9
		l-6.6-0.7l-1.2,0.1l-5.6,1.3l-2.9-9.9l5.5-2l1-0.5l5.2-4.1l-2.3-5.5l-6.6,0.9l-1.1,0.4l-5.2,2.6l-5.2-8.9l4.9-3.3l0.9-0.7l4-5.3
		l-3.7-4.7l-6.2,2.5l-1,0.7l-4.3,3.8l-7.3-7.3l3.9-4.4l0.7-1l2.5-6.1l-4.7-3.7l-5.3,3.9l-0.8,0.9l-3.3,4.8l-8.8-5.3l2.7-5.2l0.4-1.1
		l0.9-6.5L124.1,7l-4.1,5.1l-0.5,1.1l-2,5.5l-9.9-2.9l1.3-5.8l0.1-1.1l-0.7-6.6l-5.9-1l-2.8,6L99,8.8l-0.6,5.8l-10.3-0.4L88,8.4
		l-0.2-1.2l-2.3-6.1l-6,0.5l-1.2,6.5l0.1,1.2l0.9,5.7l-10,2.2l-1.6-5.7l-0.4-1.1L63.5,5l-5.7,2l0.5,6.6l0.3,1.1l2.3,5.3l-9.2,4.7
		l-3-5.1L48,18.9l-5-4.3l-4.9,3.3l2.1,6.2l0.6,1l3.6,4.6l-7.7,6.8l-4.1-4.2l-0.9-0.7l-5.9-2.9l-4,4.4l3.6,5.5l0.9,0.8l4.6,3.6
		l-5.8,8.5l-5.1-3L18.9,48l-6.4-1.4l-2.7,5.3l4.8,4.4l1.1,0.6l5.3,2.3l-3.5,9.7l-5.6-1.7L10.7,67L4,67.7l-1.3,5.8l5.8,3.1L9.6,77
		l5.7,0.9l-1,10.2l-5.9-0.2L7.3,88L1,90l0.2,6l6.4,1.6h1.2l5.8-0.5l1.6,10.2l-5.8,1.3L9.3,109l-5.6,3.4l1.6,5.8L12,118l1.2-0.3
		l5.5-2l4,9.5l-5.2,2.7l-1,0.6l-4.6,4.7l3,5.2l6.4-1.7l1-0.5l4.8-3.3l6.3,8.2l-4.5,3.9l-0.8,0.9l-3.3,5.7l4.2,4.2l5.7-3.2l0.9-0.8
		l3.8-4.4l8.1,6.3l-3.3,4.8l-0.5,1l-1.8,6.4L47,169l4.7-4.6l0.7-1l2.7-5.2l9.4,4.1l-2,5.5l-0.3,1.1l-0.1,6.6l5.7,1.7l3.5-5.6
		l0.4-1.1l1.3-5.7l10.2,1.7l-0.6,5.8v1.2L84.5,179.9z M90.6,153.7c-6.2,0-12.4-0.9-18.3-2.7c-9.5-2.9-18.3-8-25.3-14.8l-0.4-0.4
		l25-21l0.3,0.2c6.7,5.1,15.7,7.3,24.1,5.8c8.3-1.5,16-6.6,20.6-13.7l0.2-0.3l30.7,11.2l-0.2,0.5c-4.4,8.8-10.9,16.6-18.8,22.5
		c-8,5.9-17.3,10-26.9,11.6C97.9,153.4,94.3,153.7,90.6,153.7z M48.1,135.9c6.9,6.5,15.4,11.4,24.5,14.1c9.2,2.8,19.2,3.4,28.8,1.7
		c9.5-1.7,18.7-5.6,26.5-11.5c7.6-5.7,13.9-13.2,18.2-21.7L117.2,108c-4.8,7.1-12.6,12.3-21,13.8c-8.5,1.5-17.7-0.7-24.5-5.8
		L48.1,135.9z M38.2,125.9l-0.3-0.5c-5.4-8.2-8.9-17.7-10.1-27.5c-1.2-9.7,0-19.8,3.3-29.1c3.4-9.3,9-17.8,16.2-24.5
		c7.2-6.8,16-11.8,25.5-14.6l0.5-0.2L79,61.8L78.6,62c-7.8,3.3-14.2,10-17.1,17.9S59.2,97,63,104.6l0.2,0.4L38.2,125.9z M72.5,30.9
		C63.4,33.6,55,38.5,48,45.1C40.9,51.7,35.4,60,32.1,69.2c-3.3,9.2-4.5,19.1-3.3,28.6l0,0c1.1,9.5,4.5,18.7,9.6,26.6L62,104.7
		c-3.8-7.7-4.4-17.1-1.4-25.1c2.9-8.1,9.4-14.9,17.2-18.4L72.5,30.9z M90.6,108.5c-2.1,0-4.2-0.4-6.2-1.1c-4.4-1.6-8.2-5.1-10.1-9.3
		c-2-4.3-2.2-9.3-0.6-13.7c1.7-4.5,5.1-8.2,9.3-10.1c4.2-2,9.2-2.2,13.7-0.6s8.2,5,10.1,9.3c2,4.3,2.2,9.3,0.6,13.7l0,0
		c-1.6,4.4-5,8.1-9.3,10.2C95.8,107.9,93.2,108.5,90.6,108.5z M90.6,73.5c-2.5,0-5,0.5-7.2,1.6c-4,1.8-7.2,5.3-8.8,9.6
		c-1.5,4.1-1.3,9,0.6,13s5.4,7.3,9.6,8.8c4.1,1.5,9,1.3,13-0.5c4.1-1.9,7.3-5.4,8.8-9.6s1.3-9-0.6-13c-1.8-4-5.3-7.2-9.6-8.8
		C94.6,73.9,92.6,73.5,90.6,73.5z M152,105.9l-30.7-11.2l0.1-0.4c1.1-8.4-1.5-17.2-7-23.8c-5.5-6.5-13.7-10.6-22.2-11h-0.4
		l-5.7-32.2h0.6c9.8-0.6,19.8,1.1,28.9,5s17.3,10,23.6,17.5l0,0c6.3,7.5,10.9,16.6,13.1,26.2c2.2,9.6,2.2,19.7-0.1,29.3L152,105.9z
		 M122.3,94.1l28.9,10.5c2.2-9.3,2.2-19.1,0-28.3c-2.2-9.5-6.7-18.4-12.9-25.8l0,0c-6.2-7.4-14.2-13.4-23.2-17.2
		c-8.8-3.8-18.4-5.5-27.9-4.9l5.3,30.3c8.6,0.5,16.9,4.8,22.5,11.4C120.6,76.6,123.3,85.6,122.3,94.1z"/>
</g>
</svg>
