<?xml version="1.0" encoding="utf-8"?>
<!-- Generator: Adobe Illustrator 21.0.2, SVG Export Plug-In . SVG Version: 6.00 Build 0)  -->
<svg version="1.1" id="Layer_1" xmlns="http://www.w3.org/2000/svg" xmlns:xlink="http://www.w3.org/1999/xlink" x="0px" y="0px"
	 viewBox="0 0 27 27.1" style="enable-background:new 0 0 27 27.1;" xml:space="preserve">
<style type="text/css">
	.st0{fill:#5D9BD5;}
</style>
<g>
	<path class="st0" d="M12.7,27.1l-0.5-1.5L11.5,27l-2.1-0.5l-0.1-1.6L8.2,26l-1.9-1l0.3-1.6l-1.3,0.9l-1.6-1.4l0.7-1.4L2.9,22
		l-1.2-1.8l1-1.2l-1.6,0.1l-0.7-2l1.3-0.9l-1.5-0.3L0,13.8l1.5-0.5l-1.4-0.7l0.3-2.1L2,10.3l-1.2-1l0.9-2l1.6,0.2L2.4,6.2l1.3-1.7
		l1.5,0.6L4.6,3.6l1.7-1.3l1.3,0.9L7.4,1.6l2-0.8l1,1.2l0.2-1.6l2.1-0.3l0.6,1.4L13.9,0L16,0.2l0.3,1.5l0.9-1.3l2,0.7l-0.1,1.6
		l1.2-1l1.8,1.2l-0.5,1.5L23,3.7l1.4,1.6l-0.9,1.3L25,6.3l1,1.9l-1.2,1l1.6,0.1l0.5,2.1l-1.4,0.7l1.5,0.5l-0.1,2.1l-1.5,0.4l1.4,0.8
		L26.2,18h-1.6l1.1,1.1l-1.1,1.8l-1.5-0.4l0.8,1.4l-1.5,1.5L21,22.6l0.4,1.5l-1.9,1.1l-1.1-1.1v1.6l-2.1,0.6L15.5,25l-0.4,1.5
		L12.7,27.1z M11.3,23.4l2.4,0.2l2.5-0.4l2.3-1l2-1.5l1.5-1.9l1-2.3l0.4-2.5l-0.2-2.5l-0.8-2.4L21,7l-1.9-1.7l-2.2-1.1l-2.4-0.6
		L12,3.7L9.6,4.4L7.4,5.7L5.6,7.5L4.3,9.6L3.6,12l-0.1,2.5l0.6,2.6l1.1,2.2l1.6,1.9l2.1,1.4L11.3,23.4z M13.5,23.3
		c-1.4,0-2.9-0.3-4.1-0.9L8.6,22l3.1-5l0.6,0.2c0.9,0.3,2,0.2,2.9-0.2c0.9-0.5,1.5-1.3,1.8-2.2l0.1-0.7l5.9,0.2l-0.1,0.9
		c-0.2,1.5-0.8,2.9-1.6,4.1c-0.9,1.2-2,2.2-3.3,2.9c-1.3,0.7-2.8,1.1-4.3,1.1C13.6,23.3,13.5,23.3,13.5,23.3z M10.8,21.3
		c0.9,0.3,1.8,0.5,2.8,0.4c1.2,0,2.5-0.3,3.6-0.9s2-1.4,2.8-2.4c0.5-0.8,0.9-1.6,1.2-2.5l-2.9-0.1c-0.5,1.1-1.3,2.1-2.4,2.6
		c-1.1,0.6-2.3,0.7-3.5,0.5L10.8,21.3z M8.2,21.8l-0.7-0.5c-1.2-0.9-2.1-2.1-2.7-3.5c-0.6-1.3-0.9-2.8-0.9-4.3
		c0.1-1.5,0.5-3,1.2-4.3s1.7-2.4,3-3.3l0.7-0.5l2.8,5.2l-0.5,0.5c-0.7,0.6-1.2,1.6-1.2,2.6s0.4,2,1,2.7l0.4,0.4L8.2,21.8z M8.3,7.8
		C7.6,8.4,7,9.2,6.5,10c-0.6,1.1-0.9,2.3-1,3.5c0,1.2,0.2,2.5,0.7,3.6l0,0c0.4,0.9,0.9,1.6,1.6,2.3L9.3,17c-0.7-1-1.1-2.2-1.1-3.4
		c0-1.2,0.5-2.4,1.3-3.3L8.3,7.8z M13.5,17L13.5,17c-0.9,0-1.8-0.4-2.3-1c-0.6-0.6-0.9-1.5-0.9-2.3c0-0.9,0.4-1.7,1-2.2
		c0.6-0.6,1.4-0.9,2.3-0.9c0.9,0,1.7,0.4,2.2,1c0.6,0.6,0.9,1.5,0.9,2.3l0,0c0,0.8-0.4,1.7-1,2.2C15.1,16.7,14.3,17,13.5,17z
		 M13.5,12.1c-0.4,0-0.8,0.2-1.1,0.4c-0.3,0.3-0.5,0.7-0.5,1.1s0.1,0.9,0.4,1.2c0.3,0.3,0.7,0.5,1.1,0.5c0.4,0,0.9-0.1,1.2-0.4
		s0.5-0.7,0.5-1.1s-0.1-0.9-0.4-1.2C14.4,12.3,14,12.1,13.5,12.1L13.5,12.1z M23,13.9l-5.9-0.2L17,13.1c-0.2-1-0.8-1.8-1.6-2.4
		c-0.8-0.5-1.9-0.7-2.8-0.4L12,10.5L9.2,5.3L10,5c1.4-0.5,2.9-0.8,4.4-0.6c1.5,0.1,2.9,0.6,4.2,1.4l0,0c1.3,0.8,2.3,1.9,3.1,3.1
		c0.8,1.3,1.2,2.7,1.3,4.2L23,13.9z M18.4,12.2l2.9,0.1c-0.2-0.9-0.5-1.8-1-2.6c-0.6-1.1-1.5-2-2.6-2.6l0,0c-1-0.7-2.2-1.1-3.5-1.2
		c-0.9-0.1-1.9,0-2.8,0.2l1.3,2.5c1.2-0.2,2.4,0.1,3.5,0.7C17.2,10,18,11,18.4,12.2z"/>
</g>
</svg>
