<?xml version="1.0" encoding="utf-8"?>
<!-- Generator: Adobe Illustrator 21.0.2, SVG Export Plug-In . SVG Version: 6.00 Build 0)  -->
<svg version="1.1" id="Layer_1" xmlns="http://www.w3.org/2000/svg" xmlns:xlink="http://www.w3.org/1999/xlink" x="0px" y="0px"
	 viewBox="0 0 300 12.6" style="enable-background:new 0 0 300 12.6;" xml:space="preserve">
<style type="text/css">
	.st0{fill:#5D9BD5;}
</style>
<rect x="6.9" y="7.3" class="st0" width="32.8" height="1.8"/>
<g>
	<path class="st0" d="M38,8.2c0,0.5,0.4,0.9,0.9,0.9s0.9-0.4,0.9-0.9c0-3.5,2.9-6.4,6.4-6.4s6.4,2.9,6.4,6.4c0,0.5,0.4,0.9,0.9,0.9
		s0.9-0.4,0.9-0.9c0-4.5-3.7-8.2-8.2-8.2C41.6,0,38,3.6,38,8.2z"/>
</g>
<path class="st0" d="M117.2,7.3v1.8H68.3c-0.5,0-0.9-0.4-0.9-0.9c0-3.5-2.9-6.4-6.5-6.4c-3.4,0-6.3,2.6-6.5,5.9l0,0
	c0,0.1,0,0.3,0,0.4c0,0.4-0.3,0.8-0.7,0.9c-0.1,0-0.1,0-0.2,0c-0.1,0-0.1,0-0.1,0c-0.4-0.1-0.8-0.4-0.8-0.9c0-0.1,0-0.3,0-0.4l0,0
	c0.1-1.2,0.4-2.3,0.9-3.3C54.9,1.8,57.7,0,60.9,0c4.3,0,7.8,3.2,8.3,7.3H117.2z"/>
<g>
	<path class="st0" d="M174.5,8.2c0,0.5-0.3,0.8-0.8,0.9c-0.1,0-0.1,0-0.2,0c-0.1,0-0.1,0-0.2,0c-0.4-0.1-0.7-0.5-0.7-0.9
		c0-0.1,0-0.3,0-0.4l0,0c-0.2-3.3-3-5.9-6.3-5.9c-3.5,0-6.4,2.9-6.4,6.4c0,0.5-0.4,0.9-0.9,0.9h-42.4V7.4h41.5
		c0.5-4.1,3.9-7.3,8.2-7.3c3.1,0,5.9,1.8,7.3,4.4c0.5,1,0.9,2.1,0.9,3.3l0,0C174.5,7.9,174.5,8,174.5,8.2z"/>
</g>
<g>
	<path class="st0" d="M172.6,8.2c0,0.5,0.4,0.9,0.9,0.9s0.9-0.4,0.9-0.9c0-3.5,2.9-6.4,6.4-6.4s6.4,2.9,6.4,6.4
		c0,0.5,0.4,0.9,0.9,0.9s0.9-0.4,0.9-0.9c0-4.5-3.7-8.2-8.2-8.2C176.3,0,172.6,3.7,172.6,8.2z"/>
</g>
<g>
	<path class="st0" d="M187.1,8.2c0,0.5,0.4,0.9,0.9,0.9s0.9-0.4,0.9-0.9c0-3.5,2.9-6.4,6.4-6.4s6.4,2.9,6.4,6.4
		c0,0.5,0.4,0.9,0.9,0.9s0.9-0.4,0.9-0.9c0-4.5-3.7-8.2-8.2-8.2C190.8,0,187.1,3.7,187.1,8.2z"/>
</g>
<path class="st0" d="M263.9,7.3v1.8h-47.1c-0.5,0-0.9-0.4-0.9-0.9c0-3.5-2.8-6.4-6.3-6.4c-3.3,0-6,2.6-6.2,5.9l0,0
	c0,0.1,0,0.3,0,0.4c0,0.4-0.3,0.8-0.7,0.9c-0.1,0-0.1,0-0.2,0c-0.1,0-0.1,0-0.1,0c-0.4-0.1-0.7-0.4-0.7-0.9c0-0.1,0-0.3,0-0.4l0,0
	c0.1-1.2,0.4-2.3,0.9-3.3c1.3-2.6,4-4.4,7.1-4.4c4.1,0,7.6,3.2,8,7.3H263.9z"/>
<rect x="260.3" y="7.2" class="st0" width="32.7" height="1.8"/>
<g>
	<path class="st0" d="M299.9,11.9c0.2,0.2,0.2,0.4,0,0.6c-0.1,0.1-0.2,0.1-0.3,0.1c-0.1,0-0.2,0-0.3-0.1l-8.1-8.1
		c-0.2-0.2-0.2-0.4,0-0.6c0.2-0.2,0.4-0.2,0.6,0L299.9,11.9z"/>
</g>
<g>
	<path class="st0" d="M295.5,5.3c-1.5,0-2.8,1.2-2.8,2.8c0,1.5,1.2,2.8,2.8,2.8c1.5,0,2.8-1.2,2.8-2.8
		C298.3,6.6,297.1,5.3,295.5,5.3z M295.5,6.1c1.1,0,2,0.9,2,2s-0.9,2-2,2s-2-0.9-2-2C293.6,7,294.4,6.1,295.5,6.1z"/>
</g>
<g>
	<path class="st0" d="M0.1,11.9c-0.1,0.2-0.1,0.5,0,0.6c0.1,0.1,0.2,0.1,0.3,0.1s0.2,0,0.3-0.1l8.1-8.1C9,4.2,9,4,8.8,3.8
		c-0.2-0.2-0.4-0.2-0.6,0L0.1,11.9z"/>
</g>
<g>
	<path class="st0" d="M1.7,8.2c0,1.5,1.2,2.8,2.8,2.8C6,11,7.3,9.8,7.3,8.2c0-1.5-1.2-2.8-2.8-2.8S1.7,6.6,1.7,8.2z M6.4,8.2
		c0,1.1-0.9,2-2,2s-2-0.9-2-2s0.9-2,2-2C5.6,6.2,6.4,7.1,6.4,8.2z"/>
</g>
<g>
	<g>
		<circle class="st0" cx="11.5" cy="8.2" r="1.6"/>
	</g>
	<g>
		<circle class="st0" cx="15.7" cy="8.2" r="1.6"/>
	</g>
	<g>
		<circle class="st0" cx="19.9" cy="8.2" r="1.6"/>
	</g>
	<g>
		<circle class="st0" cx="24" cy="8.2" r="1.6"/>
	</g>
</g>
<g>
	<g>
		<circle class="st0" cx="288.3" cy="8.1" r="1.6"/>
	</g>
	<g>
		<circle class="st0" cx="284.1" cy="8.1" r="1.6"/>
	</g>
	<g>
		<circle class="st0" cx="280" cy="8.1" r="1.6"/>
	</g>
	<g>
		<circle class="st0" cx="275.8" cy="8.1" r="1.6"/>
	</g>
</g>
</svg>
