<?xml version="1.0" encoding="utf-8"?>
<!-- Generator: Adobe Illustrator 21.0.2, SVG Export Plug-In . SVG Version: 6.00 Build 0)  -->
<svg version="1.1" id="Layer_1" xmlns="http://www.w3.org/2000/svg" xmlns:xlink="http://www.w3.org/1999/xlink" x="0px" y="0px"
	 viewBox="0 0 6.3 6.3" style="enable-background:new 0 0 6.3 6.3;" xml:space="preserve">
<style type="text/css">
	.st0{fill:#4071B7;}
</style>
<path class="st0" d="M3.2,0.3l0,0.2l-0.3,0l0-0.2l0,0L2.8,0L2.6,0l0,0.2l0,0l0,0.2L2.3,0.6L2.2,0.4l0,0L2,0.2L1.8,0.3l0,0.2l0,0
	l0.1,0.2L1.7,0.9L1.5,0.8l0,0L1.3,0.6L1.1,0.7l0.1,0.2l0,0l0.1,0.1L1.1,1.4L1,1.2l0,0L0.7,1.1L0.6,1.3l0.1,0.2l0,0l0.2,0.1L0.8,1.9
	L0.6,1.8l0,0l-0.2,0L0.2,2l0.2,0.2l0,0l0.2,0.1L0.5,2.5l-0.2,0l0,0l-0.2,0l0,0.2l0.2,0.1l0,0l0.2,0l0,0.3l-0.2,0l0,0L0,3.3l0,0.2
	l0.2,0l0,0l0.2,0l0.1,0.3L0.4,3.9l0,0L0.1,4.1l0.1,0.2l0.2,0l0,0l0.2-0.1l0.1,0.3L0.7,4.6l0,0L0.5,4.8L0.6,5l0.2-0.1l0,0L1,4.8
	L1.2,5L1.1,5.2l0,0L1,5.4l0.2,0.2l0.2-0.1l0,0l0.1-0.1l0.3,0.2L1.7,5.6l0,0L1.6,5.9L1.8,6L2,5.8l0,0l0.1-0.2l0.3,0.1L2.3,5.9l0,0
	l0,0.2l0.2,0.1L2.7,6l0,0l0-0.2l0.3,0L3,6l0,0l0.1,0.2l0.2,0L3.4,6l0,0l0-0.2l0.3,0l0,0.2l0,0l0.1,0.2l0.2-0.1l0-0.2l0,0L4,5.7
	l0.3-0.1l0.1,0.2l0,0l0.2,0.2l0.2-0.1L4.8,5.6l0,0L4.6,5.4l0.3-0.2L5,5.3l0,0l0.2,0.1l0.2-0.2L5.3,5.1l0,0L5.2,4.9l0.2-0.3l0.2,0.1
	l0,0l0.2,0.1l0.1-0.2L5.7,4.5l0,0L5.5,4.4l0.1-0.3l0.2,0.1l0,0l0.2,0l0.1-0.2L6,3.8l0,0l-0.2,0l0.1-0.3l0.2,0l0,0l0.2-0.1l0-0.2
	L6.1,3.1l0,0l-0.2,0l0-0.3l0.2,0l0,0l0.2-0.1l0-0.2L6,2.3l0,0L5.7,2.4L5.6,2.1L5.8,2l0,0L6,1.8L5.9,1.6l-0.2,0l0,0L5.5,1.8L5.3,1.5
	l0.2-0.1l0,0l0.1-0.2L5.4,1L5.2,1.1l0,0L5,1.3L4.8,1l0.1-0.1l0,0L5,0.6L4.8,0.5L4.6,0.6l0,0L4.5,0.8L4.2,0.7l0.1-0.2l0,0l0-0.2
	L4.1,0.1L4,0.3l0,0L3.9,0.6L3.6,0.5l0-0.2l0,0l0-0.2L3.3,0L3.2,0.3L3.2,0.3z M1.2,4.1C1,3.8,0.9,3.4,1,3.1c0-0.3,0.1-0.7,0.3-1
	c0.2-0.3,0.4-0.6,0.7-0.8l0.5,1C2.2,2.5,2.1,2.8,2,3.1c0,0.3,0.1,0.6,0.3,0.8L1.8,4.9C1.5,4.6,1.3,4.4,1.2,4.1z M5.3,3.5
	C5.3,3.8,5.1,4.1,4.9,4.4C4.7,4.7,4.5,4.9,4.2,5.1c-0.3,0.2-0.6,0.2-1,0.3c-0.3,0-0.7-0.1-1-0.2l0.6-0.9c0.3,0.1,0.6,0.1,0.9-0.1
	C3.9,4,4.1,3.7,4.2,3.4L5.3,3.5z M3.8,3.2c0,0.2-0.1,0.3-0.2,0.4C3.4,3.7,3.3,3.8,3.1,3.8C3,3.7,2.8,3.7,2.7,3.6
	C2.6,3.4,2.5,3.3,2.5,3.1c0-0.2,0.1-0.3,0.2-0.4C2.8,2.6,3,2.5,3.2,2.5c0.2,0,0.3,0.1,0.4,0.2C3.7,2.8,3.8,3,3.8,3.2z M4.3,1.3
	C4.6,1.5,4.8,1.7,5,2c0.2,0.3,0.3,0.6,0.3,1l-1.1,0C4.2,2.6,4,2.4,3.7,2.2C3.5,2.1,3.2,2,2.9,2.1l-0.5-1C2.7,1,3,0.9,3.3,1
	C3.7,1,4,1.1,4.3,1.3z"/>
</svg>
