<?xml version="1.0" encoding="utf-8"?>
<!-- Generator: Adobe Illustrator 21.0.2, SVG Export Plug-In . SVG Version: 6.00 Build 0)  -->
<svg version="1.1" id="Layer_1" xmlns="http://www.w3.org/2000/svg" xmlns:xlink="http://www.w3.org/1999/xlink" x="0px" y="0px"
	 viewBox="0 0 109.5 27.5" style="enable-background:new 0 0 109.5 27.5;" xml:space="preserve">
<style type="text/css">
	.st0{fill:#4071B7;}
</style>
<g>
	<g>
		<path class="st0" d="M107.5,0.2l1.7,1.3l-1.7,1.3c-0.1,0-0.1,0.1,0,0.2c0,0,0.1,0,0.1,0c0,0,0.1,0,0.1,0l1.9-1.4c0,0,0-0.1,0-0.1
			c0,0,0-0.1,0-0.1L107.6,0c-0.1,0-0.1,0-0.2,0C107.4,0.1,107.4,0.2,107.5,0.2z"/>
	</g>
	<g>
		<path class="st0" d="M11,3.3c0.1,0,0.1-0.1,0.1-0.1c0-0.1-0.1-0.1-0.1-0.1H0v0.2H11z"/>
	</g>
	<g>
		<path class="st0" d="M10.9,3.2c0,0.5,0.4,0.8,0.8,0.8c0.5,0,0.8-0.4,0.8-0.8c0-0.5-0.4-0.8-0.8-0.8C11.2,2.4,10.9,2.7,10.9,3.2z
			 M12.3,3.2c0,0.3-0.3,0.6-0.6,0.6c-0.3,0-0.6-0.3-0.6-0.6c0-0.3,0.3-0.6,0.6-0.6C12,2.6,12.3,2.9,12.3,3.2z"/>
	</g>
	<g>
		<path class="st0" d="M32.2,8.7c0,0.5,0.4,0.8,0.8,0.8c0.5,0,0.8-0.4,0.8-0.8c0-0.5-0.4-0.8-0.8-0.8C32.6,7.8,32.2,8.2,32.2,8.7z
			 M33.7,8.7c0,0.3-0.3,0.6-0.6,0.6S32.5,9,32.5,8.7c0-0.3,0.3-0.6,0.6-0.6S33.7,8.4,33.7,8.7z"/>
	</g>
	<g>
		<path class="st0" d="M85.9,1.6c0,0.5,0.4,0.8,0.8,0.8c0.5,0,0.8-0.4,0.8-0.8c0-0.5-0.4-0.8-0.8-0.8C86.3,0.8,85.9,1.1,85.9,1.6z
			 M87.4,1.6c0,0.3-0.3,0.6-0.6,0.6c-0.3,0-0.6-0.3-0.6-0.6c0-0.3,0.3-0.6,0.6-0.6C87.1,1,87.4,1.3,87.4,1.6z"/>
	</g>
	<g>
		<g>
			<circle class="st0" cx="95" cy="1.6" r="0.4"/>
		</g>
		<g>
			<circle class="st0" cx="96.1" cy="1.6" r="0.4"/>
		</g>
		<g>
			<circle class="st0" cx="97.2" cy="1.6" r="0.4"/>
		</g>
		<g>
			<circle class="st0" cx="98.3" cy="1.6" r="0.4"/>
		</g>
	</g>
	<g>
		<path class="st0" d="M13.4,3.2c0,0.5,0.4,0.8,0.8,0.8c0.5,0,0.8-0.4,0.8-0.8c0-0.5-0.4-0.8-0.8-0.8C13.8,2.4,13.4,2.7,13.4,3.2z
			 M14.8,3.2c0,0.3-0.3,0.6-0.6,0.6c-0.3,0-0.6-0.3-0.6-0.6c0-0.3,0.3-0.6,0.6-0.6C14.6,2.6,14.8,2.9,14.8,3.2z"/>
	</g>
	<g>
		<circle class="st0" cx="60.8" cy="8.7" r="0.4"/>
	</g>
	<g>
		<circle class="st0" cx="33" cy="3.2" r="0.4"/>
	</g>
	<g>
		<g>
			<path class="st0" d="M14.8,3.2c0,0.1,0.1,0.1,0.1,0.1H33v5.3c0,0.1,0.1,0.1,0.1,0.1h9.3c0.1,0,0.1-0.1,0.1-0.1
				c0-0.5,0.4-0.8,0.8-0.8c0.5,0,0.8,0.4,0.8,0.8c0,0.1,0.1,0.1,0.1,0.1c0.1,0,0.1-0.1,0.1-0.1c0-0.6-0.5-1.1-1.1-1.1
				c-0.6,0-1,0.4-1.1,1h-9.1V3.2c0-0.1-0.1-0.1-0.1-0.1H14.9C14.8,3.1,14.8,3.1,14.8,3.2z"/>
		</g>
		<g>
			<path class="st0" d="M44.2,8.7c0,0.1,0.1,0.1,0.1,0.1c0.1,0,0.1-0.1,0.1-0.1c0-0.5,0.4-0.8,0.8-0.8c0.5,0,0.8,0.4,0.8,0.8
				c0,0.1,0.1,0.1,0.1,0.1c0.1,0,0.1-0.1,0.1-0.1c0-0.6-0.5-1.1-1.1-1.1C44.7,7.6,44.2,8.1,44.2,8.7z"/>
		</g>
		<g>
			<path class="st0" d="M46.1,8.7c0,0.1,0.1,0.1,0.1,0.1s0.1-0.1,0.1-0.1c0-0.5,0.4-0.8,0.8-0.8c0.5,0,0.8,0.4,0.8,0.8
				c0,0.1,0.1,0.1,0.1,0.1c0.1,0,0.1-0.1,0.1-0.1c0-0.6-0.5-1.1-1.1-1.1C46.6,7.6,46.1,8.1,46.1,8.7z"/>
		</g>
		<g>
			<path class="st0" d="M61.1,27.1V8.7c0-0.1-0.1-0.1-0.1-0.1H50.2c-0.1-0.5-0.5-1-1.1-1c-0.6,0-1.1,0.5-1.1,1.1
				c0,0.1,0.1,0.1,0.1,0.1c0.1,0,0.1-0.1,0.1-0.1c0-0.5,0.4-0.8,0.8-0.8c0.5,0,0.8,0.4,0.8,0.8c0,0.1,0.1,0.1,0.1,0.1h10.7v18.6
				c0,0,0,0.1,0.1,0.1c0,0,0,0,0,0c0,0,0.1,0,0.1,0L86.8,1.7h22.3c0.1,0,0.1-0.1,0.1-0.1c0-0.1-0.1-0.1-0.1-0.1H86.8
				c0,0-0.1,0-0.1,0L61.1,27.1z"/>
		</g>
	</g>
</g>
</svg>
