<?xml version="1.0" encoding="utf-8"?>
<!-- Generator: Adobe Illustrator 21.0.2, SVG Export Plug-In . SVG Version: 6.00 Build 0)  -->
<svg version="1.1" id="Layer_1" xmlns="http://www.w3.org/2000/svg" xmlns:xlink="http://www.w3.org/1999/xlink" x="0px" y="0px"
	 viewBox="0 0 675.3 348.1" style="enable-background:new 0 0 675.3 348.1;" xml:space="preserve">
<style type="text/css">
	.st0{fill:#5D9BD5;}
</style>
<g>
	<path class="st0" d="M584.6,178.4c-3,0-5.9,0.2-8.8,0.5c-10.4-46.8-52.1-81.8-102-81.8c-15,0-29.2,3.1-42.1,8.8
		C413,50.2,360.5,10,298.5,10c-64.2,0-118.3,43.1-135,102c-11.7-4-24.3-6.2-37.3-6.2C62,105.8,10,157.8,10,222
		c0,59.2,44.3,108,101.6,115.2c4,0.6,8.1,0.9,12.3,0.9h2.2h0.1h0.1h455.2c0.4,0,0.8,0,1.2,0c0.6,0,1.2,0,1.8,0
		c44.6,0,80.8-35.7,80.8-79.9C665.3,214.2,629.2,178.4,584.6,178.4z"/>
	<path class="st0" d="M584.6,348.1c-0.6,0-1.3,0-1.9,0l-0.2,0c-0.3,0-0.6,0-0.9,0H123.9c-4.4,0-8.9-0.3-13.7-1
		C47.4,339.2,0,285.4,0,222C0,152.4,56.6,95.8,126.2,95.8c10.4,0,20.7,1.3,30.8,3.8c9.7-27,27.3-51.1,50.1-68.7
		c26.4-20.3,58-31,91.4-31c61.3,0,115.9,37,139,93c11.6-3.9,23.8-5.9,36.3-5.9c26.2,0,51.8,9.1,72.1,25.6
		c17.8,14.4,30.9,34,37.5,55.7c0.4,0,0.8,0,1.2,0c50.1,0,90.8,40.3,90.8,89.9C675.3,307.8,634.6,348.1,584.6,348.1z M582.7,328.1
		l0.4,0c0.5,0,1,0,1.5,0c39,0,70.8-31.3,70.8-69.9c0-38.5-31.8-69.9-70.8-69.9c-2.5,0-5.1,0.1-7.7,0.4l-8.9,1l-1.9-8.8
		c-9.5-42.9-48.3-74-92.3-74c-13.2,0-26,2.7-38.1,8l-10,4.4l-3.5-10.4C404.4,55.8,354.7,20,298.5,20c-58,0-109.6,39-125.4,94.7
		l-2.9,10.1l-10-3.4c-11-3.7-22.5-5.7-34.1-5.7C67.6,115.8,20,163.4,20,222c0,53.4,39.9,98.7,92.8,105.3l0.2,0
		c3.8,0.6,7.4,0.8,10.9,0.8l457.9,0C582.1,328.1,582.4,328.1,582.7,328.1z"/>
</g>
</svg>
