<?xml version="1.0" encoding="utf-8"?>
<!-- Generator: Adobe Illustrator 21.0.2, SVG Export Plug-In . SVG Version: 6.00 Build 0)  -->
<svg version="1.1" id="Layer_1" xmlns="http://www.w3.org/2000/svg" xmlns:xlink="http://www.w3.org/1999/xlink" x="0px" y="0px"
	 viewBox="0 0 71.3 9.3" style="enable-background:new 0 0 71.3 9.3;" xml:space="preserve">
<style type="text/css">
	.st0{fill:#4071B7;}
</style>
<g>
	<g>
		<g>
			<path class="st0" d="M24.4,1.7c0,0.1,0.1,0.1,0.1,0.1h3.2c0.1,0,0.1-0.1,0.1-0.1c0-0.9-0.8-1.7-1.7-1.7C25.2,0,24.4,0.8,24.4,1.7
				z M27.6,1.6h-2.9c0.1-0.8,0.7-1.4,1.5-1.4C26.9,0.2,27.5,0.8,27.6,1.6z"/>
		</g>
		<g>
			<path class="st0" d="M24.9,1.7v0.8H5.8c-0.1,0-0.1,0.1-0.1,0.1c0,0.1,0.1,0.1,0.1,0.1H25c0.1,0,0.1-0.1,0.1-0.1v-1
				c0-0.1-0.1-0.1-0.1-0.1C24.9,1.6,24.9,1.7,24.9,1.7z"/>
		</g>
		<g>
			<path class="st0" d="M5.6,2.1v1.2c0,0.1,0.1,0.1,0.1,0.1c0.1,0,0.1-0.1,0.1-0.1V2.1C5.8,2,5.8,2,5.7,2C5.6,2,5.6,2,5.6,2.1z"/>
		</g>
		<g>
			<path class="st0" d="M5,1.5V4C5,4,5.1,4.1,5.2,4.1C5.2,4.1,5.3,4,5.3,4V1.5c0-0.1-0.1-0.1-0.1-0.1C5.1,1.3,5,1.4,5,1.5z"/>
		</g>
		<g>
			<path class="st0" d="M1.5,2.7c0,0.1,0.1,0.1,0.1,0.1h3.5c0.1,0,0.1-0.1,0.1-0.1c0-0.1-0.1-0.1-0.1-0.1H1.7
				C1.6,2.6,1.5,2.6,1.5,2.7z"/>
		</g>
		<g>
			<g>
				<path class="st0" d="M2.9,1.3C2.9,1.4,3,1.5,3,1.5h1.2c0.1,0,0.1-0.1,0.1-0.1c0-0.1-0.1-0.1-0.1-0.1H3C3,1.2,2.9,1.3,2.9,1.3z"
					/>
			</g>
			<g>
				<path class="st0" d="M3.5,0.7v1.2c0,0.1,0.1,0.1,0.1,0.1c0.1,0,0.1-0.1,0.1-0.1V0.7c0-0.1-0.1-0.1-0.1-0.1
					C3.6,0.6,3.5,0.7,3.5,0.7z"/>
			</g>
		</g>
		<g>
			<g>
				<circle class="st0" cx="11.9" cy="2.7" r="0.4"/>
			</g>
			<g>
				<circle class="st0" cx="13" cy="2.7" r="0.4"/>
			</g>
			<g>
				<circle class="st0" cx="14.1" cy="2.7" r="0.4"/>
			</g>
			<g>
				<circle class="st0" cx="15.1" cy="2.7" r="0.4"/>
			</g>
		</g>
		<g>
			<path class="st0" d="M27.2,1.7v1c0,0.1,0.1,0.1,0.1,0.1h17.4v5c0,0.1,0.1,0.1,0.1,0.1H71c0.1,0,0.1-0.1,0.1-0.1
				c0-0.1-0.1-0.1-0.1-0.1H44.9v-5c0-0.1-0.1-0.1-0.1-0.1H27.4V1.7c0-0.1-0.1-0.1-0.1-0.1C27.2,1.6,27.2,1.7,27.2,1.7z"/>
		</g>
		<g>
			<path class="st0" d="M69.4,6.5L71,7.8l-1.6,1.3c0,0-0.1,0.1,0,0.2c0,0,0.1,0,0.1,0c0,0,0,0,0.1,0l1.7-1.4c0,0,0-0.1,0-0.1
				s0-0.1,0-0.1l-1.7-1.4c-0.1,0-0.1,0-0.2,0C69.3,6.4,69.3,6.5,69.4,6.5z"/>
		</g>
		<g>
			<circle class="st0" cx="44.8" cy="2.8" r="0.4"/>
		</g>
		<g>
			<circle class="st0" cx="1.6" cy="2.7" r="0.4"/>
		</g>
		<g>
			<path class="st0" d="M44,7.8c0,0.4,0.4,0.8,0.8,0.8c0.4,0,0.8-0.4,0.8-0.8c0-0.4-0.4-0.8-0.8-0.8C44.4,7,44,7.4,44,7.8z
				 M45.4,7.8c0,0.3-0.3,0.6-0.6,0.6c-0.3,0-0.6-0.3-0.6-0.6c0-0.3,0.3-0.6,0.6-0.6C45.1,7.3,45.4,7.5,45.4,7.8z"/>
		</g>
		<g>
			<g>
				<circle class="st0" cx="54.5" cy="7.8" r="0.4"/>
			</g>
			<g>
				<circle class="st0" cx="55.6" cy="7.8" r="0.4"/>
			</g>
			<g>
				<circle class="st0" cx="56.6" cy="7.8" r="0.4"/>
			</g>
			<g>
				<circle class="st0" cx="57.7" cy="7.8" r="0.4"/>
			</g>
		</g>
	</g>
	<polygon class="st0" points="2.8,3.1 3.5,2.4 0,2.4 0,3.1 	"/>
</g>
</svg>
