<?xml version="1.0" encoding="utf-8"?>
<!-- Generator: Adobe Illustrator 21.0.2, SVG Export Plug-In . SVG Version: 6.00 Build 0)  -->
<svg version="1.1" id="Layer_1" xmlns="http://www.w3.org/2000/svg" xmlns:xlink="http://www.w3.org/1999/xlink" x="0px" y="0px"
	 viewBox="0 0 86.7 10.8" style="enable-background:new 0 0 86.7 10.8;" xml:space="preserve">
<style type="text/css">
	.st0{opacity:0.25;}
	.st1{fill:#4071B7;}
</style>
<g>
	<g class="st0">
		<g>
			<path class="st1" d="M35.7,6.4l1.7,1.3L35.7,9c-0.1,0-0.1,0.1,0,0.2c0,0,0.1,0,0.1,0c0,0,0.1,0,0.1,0l1.8-1.4c0,0,0-0.1,0-0.1
				c0,0,0-0.1,0-0.1l-1.8-1.4c-0.1,0-0.1,0-0.2,0C35.7,6.3,35.7,6.3,35.7,6.4z"/>
		</g>
		<g>
			<g>
				<path class="st1" d="M36.9,6.4l0.2,0.1c0,0,0,0,0.1,0c0,0,0.1,0,0.1,0c0-0.1,0-0.1,0-0.2l-0.2-0.1c-0.1,0-0.1,0-0.2,0
					C36.9,6.3,36.9,6.3,36.9,6.4z"/>
			</g>
			<g>
				<path class="st1" d="M37.4,6.7L37.7,7c0,0,0,0,0.1,0c0,0,0.1,0,0.1,0c0-0.1,0-0.1,0-0.2l-0.3-0.2c-0.1,0-0.1,0-0.2,0
					C37.3,6.6,37.3,6.7,37.4,6.7z"/>
				<path class="st1" d="M38,7.2l0.3,0.2c0,0,0,0,0.1,0c0,0,0.1,0,0.1,0c0-0.1,0-0.1,0-0.2L38.2,7C38.1,7,38,7,38,7
					C37.9,7.1,38,7.2,38,7.2z"/>
			</g>
			<g>
				<path class="st1" d="M38.6,7.7L38.6,7.7L38.6,7.7c-0.1,0.1-0.1,0.2,0,0.2c0,0,0.1,0,0.1,0c0,0,0.1,0,0.1,0l0.2-0.1
					c0,0,0-0.1,0-0.1c0,0,0-0.1,0-0.1l-0.2-0.1c-0.1,0-0.1,0-0.2,0C38.6,7.6,38.6,7.7,38.6,7.7z"/>
			</g>
			<g>
				<path class="st1" d="M37.4,8.7c-0.1,0-0.1,0.1,0,0.2c0,0,0.1,0,0.1,0c0,0,0.1,0,0.1,0l0.3-0.2c0.1,0,0.1-0.1,0-0.2
					c0-0.1-0.1-0.1-0.2,0L37.4,8.7z"/>
				<path class="st1" d="M38,8.2c-0.1,0-0.1,0.1,0,0.2c0,0,0.1,0,0.1,0c0,0,0.1,0,0.1,0l0.3-0.2c0.1,0,0.1-0.1,0-0.2
					c0-0.1-0.1-0.1-0.2,0L38,8.2z"/>
			</g>
			<g>
				<path class="st1" d="M36.9,9c-0.1,0-0.1,0.1,0,0.2c0,0,0.1,0,0.1,0c0,0,0.1,0,0.1,0l0.2-0.1c0.1,0,0.1-0.1,0-0.2
					c0-0.1-0.1-0.1-0.2,0L36.9,9z"/>
			</g>
		</g>
		<g>
			<ellipse transform="matrix(2.240472e-03 -1 1 2.240472e-03 -4.5304 6.1175)" class="st1" cx="0.8" cy="5.3" rx="0.4" ry="0.4"/>
		</g>
		<g>
			<ellipse transform="matrix(2.116002e-03 -1 1 2.116002e-03 0.4044 1.2144)" class="st1" cx="0.8" cy="0.4" rx="0.4" ry="0.4"/>
		</g>
		<g>
			
				<ellipse transform="matrix(1.991532e-03 -1 1 1.991532e-03 30.1964 31.1905)" class="st1" cx="30.7" cy="0.5" rx="0.4" ry="0.4"/>
		</g>
		<g>
			
				<ellipse transform="matrix(2.240472e-03 -1 1 2.240472e-03 23.0277 38.3056)" class="st1" cx="30.7" cy="7.6" rx="0.4" ry="0.4"/>
		</g>
		<g>
			
				<ellipse transform="matrix(1.991532e-03 -1 1 1.991532e-03 37.0174 52.3762)" class="st1" cx="44.7" cy="7.6" rx="0.4" ry="0.4"/>
		</g>
		<g>
			<g>
				
					<ellipse transform="matrix(2.177156e-03 -1 1 2.177156e-03 13.1988 14.1002)" class="st1" cx="13.7" cy="0.4" rx="0.4" ry="0.4"/>
			</g>
			<g>
				
					<ellipse transform="matrix(2.062088e-03 -1 1 2.062088e-03 14.3066 15.2134)" class="st1" cx="14.8" cy="0.4" rx="0.4" ry="0.4"/>
			</g>
			<g>
				
					<ellipse transform="matrix(2.062324e-03 -1 1 2.062324e-03 15.4128 16.3266)" class="st1" cx="15.9" cy="0.4" rx="0.4" ry="0.4"/>
			</g>
			<g>
				<ellipse transform="matrix(2.062088e-03 -1 1 2.062088e-03 16.5191 17.4398)" class="st1" cx="17" cy="0.4" rx="0.4" ry="0.4"/>
			</g>
		</g>
		<g>
			<path class="st1" d="M0.7,0.4l0,4.8L0,5.2v0.2l0.8,0h0c0,0,0.1,0,0.1,0c0,0,0-0.1,0-0.1l0-4.8l29.8,0.1l0,7.1
				c0,0.1,0.1,0.1,0.1,0.1l14,0h0c0.1,0,0.1-0.1,0.1-0.1c0-0.1-0.1-0.1-0.1-0.1l-13.9,0l0-7.1c0-0.1-0.1-0.1-0.1-0.1l-30-0.1h0
				C0.8,0.3,0.8,0.3,0.7,0.4C0.7,0.3,0.7,0.4,0.7,0.4z"/>
		</g>
	</g>
	<g>
		<g>
			<path class="st1" d="M16.7,3.8c0,0.1,0.1,0.1,0.1,0.1h19.4c0.1,0,0.1-0.1,0.1-0.1c0-0.1-0.1-0.1-0.1-0.1H16.8
				C16.7,3.7,16.7,3.7,16.7,3.8z"/>
		</g>
		<g>
			<path class="st1" d="M16.5,3.1v1.3c0,0.1,0.1,0.1,0.1,0.1c0.1,0,0.1-0.1,0.1-0.1V3.1c0-0.1-0.1-0.1-0.1-0.1
				C16.6,3,16.5,3.1,16.5,3.1z"/>
		</g>
		<g>
			<path class="st1" d="M16,2.5v2.7c0,0.1,0.1,0.1,0.1,0.1c0.1,0,0.1-0.1,0.1-0.1V2.5c0-0.1-0.1-0.1-0.1-0.1C16,2.3,16,2.4,16,2.5z"
				/>
		</g>
		<g>
			<path class="st1" d="M12.2,3.8c0,0.1,0.1,0.1,0.1,0.1h3.7c0.1,0,0.1-0.1,0.1-0.1c0-0.1-0.1-0.1-0.1-0.1h-3.7
				C12.3,3.7,12.2,3.7,12.2,3.8z"/>
		</g>
		<g>
			<g>
				<path class="st1" d="M13.7,2.4c0,0.1,0.1,0.1,0.1,0.1h1.3c0.1,0,0.1-0.1,0.1-0.1s-0.1-0.1-0.1-0.1h-1.3
					C13.7,2.2,13.7,2.3,13.7,2.4z"/>
			</g>
			<g>
				<path class="st1" d="M14.3,1.7V3c0,0.1,0.1,0.1,0.1,0.1c0.1,0,0.1-0.1,0.1-0.1V1.7c0-0.1-0.1-0.1-0.1-0.1
					C14.4,1.6,14.3,1.6,14.3,1.7z"/>
			</g>
		</g>
		<g>
			<path class="st1" d="M57.6,9.3c0,0.5,0.4,0.8,0.8,0.8c0.5,0,0.8-0.4,0.8-0.8c0-0.5-0.4-0.8-0.8-0.8C58,8.5,57.6,8.8,57.6,9.3z
				 M59.1,9.3c0,0.3-0.3,0.6-0.6,0.6c-0.3,0-0.6-0.3-0.6-0.6c0-0.3,0.3-0.6,0.6-0.6C58.8,8.7,59.1,9,59.1,9.3z"/>
		</g>
		<g>
			<g>
				<circle class="st1" cx="68.8" cy="9.3" r="0.4"/>
			</g>
			<g>
				<circle class="st1" cx="69.9" cy="9.3" r="0.4"/>
			</g>
			<g>
				<circle class="st1" cx="71" cy="9.3" r="0.4"/>
			</g>
			<g>
				<circle class="st1" cx="72.2" cy="9.3" r="0.4"/>
			</g>
		</g>
		<g>
			<path class="st1" d="M40.1,3.8c0,0.1,0.1,0.1,0.1,0.1h18.1v5.3c0,0.1,0.1,0.1,0.1,0.1h27.9c0.1,0,0.1-0.1,0.1-0.1
				c0-0.1-0.1-0.1-0.1-0.1H58.6V3.8c0-0.1-0.1-0.1-0.1-0.1H40.2C40.2,3.7,40.1,3.7,40.1,3.8z"/>
		</g>
		<g>
			<path class="st1" d="M84.7,7.9l1.7,1.3l-1.7,1.3c-0.1,0-0.1,0.1,0,0.2c0,0,0.1,0,0.1,0c0,0,0.1,0,0.1,0l1.9-1.4c0,0,0-0.1,0-0.1
				s0-0.1,0-0.1l-1.9-1.4c-0.1,0-0.1,0-0.2,0C84.6,7.8,84.6,7.9,84.7,7.9z"/>
		</g>
		<g>
			<circle class="st1" cx="58.4" cy="3.9" r="0.4"/>
		</g>
		<g>
			<g>
				<path class="st1" d="M36.1,3.8c0,1.1,0.9,2.1,2.1,2.1c1.1,0,2.1-0.9,2.1-2.1c0-1.1-0.9-2.1-2.1-2.1C37,1.8,36.1,2.7,36.1,3.8z
					 M40,3.8c0,1-0.8,1.8-1.8,1.8c-1,0-1.8-0.8-1.8-1.8S37.2,2,38.2,2C39.2,2,40,2.8,40,3.8z"/>
			</g>
			<g>
				<path class="st1" d="M36.7,5.1c0,0,0,0.1,0,0.2c0,0,0.1,0,0.1,0c0,0,0.1,0,0.1,0l2.7-2.7c0,0,0-0.1,0-0.2c0,0-0.1,0-0.2,0
					L36.7,5.1z"/>
			</g>
			<g>
				<path class="st1" d="M36.7,2.6l2.7,2.7c0,0,0.1,0,0.1,0c0,0,0.1,0,0.1,0c0,0,0-0.1,0-0.2l-2.7-2.7c0,0-0.1,0-0.2,0
					C36.7,2.4,36.7,2.5,36.7,2.6z"/>
			</g>
		</g>
	</g>
	<polygon class="st1" points="3.1,4.3 3.9,3.5 10.1,3.5 10.9,4.3 14.6,4.3 15.3,3.6 10.7,3.6 9.5,2.5 1.7,2.5 1,1.5 0,1.5 0,4.3 	
		"/>
</g>
</svg>
