<?xml version="1.0" encoding="utf-8"?>
<!-- Generator: Adobe Illustrator 21.0.2, SVG Export Plug-In . SVG Version: 6.00 Build 0)  -->
<svg version="1.1" id="Layer_1" xmlns="http://www.w3.org/2000/svg" xmlns:xlink="http://www.w3.org/1999/xlink" x="0px" y="0px"
	 viewBox="0 0 70.1 9.3" style="enable-background:new 0 0 70.1 9.3;" xml:space="preserve">
<style type="text/css">
	.st0{fill:#4071B7;}
</style>
<g>
	<g>
		<path class="st0" d="M23.2,7.6c0,0.9,0.8,1.7,1.7,1.7c0.9,0,1.7-0.8,1.7-1.7c0-0.1-0.1-0.1-0.1-0.1h-3.2
			C23.3,7.5,23.2,7.5,23.2,7.6z M26.4,7.7C26.3,8.4,25.7,9,24.9,9c-0.8,0-1.4-0.6-1.5-1.4H26.4z"/>
	</g>
	<g>
		<path class="st0" d="M4.5,6.6c0,0.1,0.1,0.1,0.1,0.1h19.1v0.8c0,0.1,0.1,0.1,0.1,0.1c0.1,0,0.1-0.1,0.1-0.1v-1
			c0-0.1-0.1-0.1-0.1-0.1H4.6C4.6,6.4,4.5,6.5,4.5,6.6z"/>
	</g>
	<g>
		<path class="st0" d="M4.4,5.9v1.2c0,0.1,0.1,0.1,0.1,0.1c0.1,0,0.1-0.1,0.1-0.1V5.9c0-0.1-0.1-0.1-0.1-0.1
			C4.4,5.8,4.4,5.9,4.4,5.9z"/>
	</g>
	<g>
		<path class="st0" d="M3.8,5.3v2.5c0,0.1,0.1,0.1,0.1,0.1c0.1,0,0.1-0.1,0.1-0.1V5.3C4.1,5.2,4,5.2,4,5.2C3.9,5.2,3.8,5.2,3.8,5.3z
			"/>
	</g>
	<g>
		<path class="st0" d="M0.3,6.6c0,0.1,0.1,0.1,0.1,0.1h3.5C4,6.7,4,6.6,4,6.6C4,6.5,4,6.4,3.9,6.4H0.5C0.4,6.4,0.3,6.5,0.3,6.6z"/>
	</g>
	<g>
		<g>
			<path class="st0" d="M1.7,7.9C1.7,8,1.8,8,1.8,8H3C3.1,8,3.1,8,3.1,7.9c0-0.1-0.1-0.1-0.1-0.1H1.8C1.8,7.8,1.7,7.9,1.7,7.9z"/>
		</g>
		<g>
			<path class="st0" d="M2.3,7.3v1.2c0,0.1,0.1,0.1,0.1,0.1c0.1,0,0.1-0.1,0.1-0.1V7.3c0-0.1-0.1-0.1-0.1-0.1
				C2.4,7.2,2.3,7.3,2.3,7.3z"/>
		</g>
	</g>
	<g>
		<g>
			<circle class="st0" cx="10.7" cy="6.6" r="0.4"/>
		</g>
		<g>
			<circle class="st0" cx="11.8" cy="6.6" r="0.4"/>
		</g>
		<g>
			<circle class="st0" cx="12.9" cy="6.6" r="0.4"/>
		</g>
		<g>
			<circle class="st0" cx="13.9" cy="6.6" r="0.4"/>
		</g>
	</g>
	<g>
		<path class="st0" d="M43.5,1.5v5H26.1C26,6.4,26,6.5,26,6.6v1c0,0.1,0.1,0.1,0.1,0.1c0.1,0,0.1-0.1,0.1-0.1V6.7h17.4
			c0.1,0,0.1-0.1,0.1-0.1v-5h26.1c0.1,0,0.1-0.1,0.1-0.1s-0.1-0.1-0.1-0.1H43.6C43.6,1.3,43.5,1.4,43.5,1.5z"/>
	</g>
	<g>
		<path class="st0" d="M68.2,0.2l1.6,1.3l-1.6,1.3c0,0-0.1,0.1,0,0.2c0,0,0.1,0.1,0.2,0l1.7-1.4c0,0,0-0.1,0-0.1c0,0,0-0.1,0-0.1
			L68.3,0c0,0,0,0-0.1,0c0,0-0.1,0-0.1,0C68.1,0.1,68.1,0.2,68.2,0.2z"/>
	</g>
	<g>
		<circle class="st0" cx="43.6" cy="6.4" r="0.4"/>
	</g>
	<g>
		<circle class="st0" cx="0.4" cy="6.6" r="0.4"/>
	</g>
	<g>
		<path class="st0" d="M42.8,1.4c0,0.4,0.4,0.8,0.8,0.8c0.4,0,0.8-0.4,0.8-0.8c0-0.4-0.4-0.8-0.8-0.8C43.2,0.6,42.8,1,42.8,1.4z
			 M44.2,1.4c0,0.3-0.3,0.6-0.6,0.6c-0.3,0-0.6-0.3-0.6-0.6c0-0.3,0.3-0.6,0.6-0.6C43.9,0.9,44.2,1.1,44.2,1.4z"/>
	</g>
	<g>
		<g>
			<circle class="st0" cx="53.3" cy="1.4" r="0.4"/>
		</g>
		<g>
			<circle class="st0" cx="54.4" cy="1.4" r="0.4"/>
		</g>
		<g>
			<circle class="st0" cx="55.4" cy="1.4" r="0.4"/>
		</g>
		<g>
			<circle class="st0" cx="56.5" cy="1.4" r="0.4"/>
		</g>
	</g>
</g>
</svg>
