<?xml version="1.0" encoding="utf-8"?>
<!-- Generator: Adobe Illustrator 21.0.2, SVG Export Plug-In . SVG Version: 6.00 Build 0)  -->
<svg version="1.1" id="Layer_1" xmlns="http://www.w3.org/2000/svg" xmlns:xlink="http://www.w3.org/1999/xlink" x="0px" y="0px"
	 viewBox="0 0 109.5 74.6" style="enable-background:new 0 0 109.5 74.6;" xml:space="preserve">
<style type="text/css">
	.st0{opacity:0.2;}
	.st1{fill:#4071B7;}
	.st2{opacity:0.25;}
</style>
<g class="st0">
	<g>
		<path class="st1" d="M89.5,47.2l1.7,1.3l-1.7,1.3c-0.1,0-0.1,0.1,0,0.2c0,0.1,0.1,0.1,0.2,0l1.9-1.4c0,0,0-0.1,0-0.1s0-0.1,0-0.1
			L89.7,47c0,0,0,0-0.1,0c0,0-0.1,0-0.1,0C89.4,47.1,89.5,47.2,89.5,47.2z"/>
	</g>
	<g>
		<path class="st1" d="M14.3,41.4c0,0.5,0.4,0.8,0.8,0.8s0.8-0.4,0.8-0.8c0-0.5-0.4-0.8-0.8-0.8S14.3,41,14.3,41.4z M15.7,41.4
			c0,0.3-0.3,0.6-0.6,0.6c-0.3,0-0.6-0.3-0.6-0.6c0-0.3,0.3-0.6,0.6-0.6C15.4,40.8,15.7,41.1,15.7,41.4z"/>
	</g>
	<g>
		<path class="st1" d="M68,48.5c0,0.5,0.4,0.8,0.8,0.8c0.5,0,0.8-0.4,0.8-0.8c0-0.5-0.4-0.8-0.8-0.8C68.3,47.7,68,48,68,48.5z
			 M69.4,48.5c0,0.3-0.3,0.6-0.6,0.6c-0.3,0-0.6-0.3-0.6-0.6c0-0.3,0.3-0.6,0.6-0.6C69.1,47.9,69.4,48.2,69.4,48.5z"/>
	</g>
	<g>
		<g>
			<circle class="st1" cx="77" cy="48.5" r="0.4"/>
		</g>
		<g>
			<circle class="st1" cx="78.1" cy="48.5" r="0.4"/>
		</g>
		<g>
			<circle class="st1" cx="79.2" cy="48.5" r="0.4"/>
		</g>
		<g>
			<circle class="st1" cx="80.4" cy="48.5" r="0.4"/>
		</g>
	</g>
	<g>
		<circle class="st1" cx="42.9" cy="41.4" r="0.4"/>
	</g>
	<g>
		<circle class="st1" cx="15" cy="46.9" r="0.4"/>
	</g>
	<g>
		<g>
			<path class="st1" d="M15,41.5v5.3H0V47h15.1c0.1,0,0.1-0.1,0.1-0.1v-5.3h9.1c0.1,0.5,0.5,1,1.1,1c0.6,0,1.1-0.5,1.1-1.1
				c0-0.1-0.1-0.1-0.1-0.1c-0.1,0-0.1,0.1-0.1,0.1c0,0.5-0.4,0.8-0.8,0.8c-0.5,0-0.8-0.4-0.8-0.8c0-0.1-0.1-0.1-0.1-0.1h-9.3
				C15,41.3,15,41.4,15,41.5z"/>
		</g>
		<g>
			<path class="st1" d="M26.5,41.5c0-0.1-0.1-0.1-0.1-0.1c-0.1,0-0.1,0.1-0.1,0.1c0,0.6,0.5,1.1,1.1,1.1c0.6,0,1.1-0.5,1.1-1.1
				c0-0.1-0.1-0.1-0.1-0.1c-0.1,0-0.1,0.1-0.1,0.1c0,0.5-0.4,0.8-0.8,0.8C26.8,42.3,26.5,41.9,26.5,41.5z"/>
		</g>
		<g>
			<path class="st1" d="M28.4,41.5c0-0.1-0.1-0.1-0.1-0.1c-0.1,0-0.1,0.1-0.1,0.1c0,0.6,0.5,1.1,1.1,1.1c0.6,0,1.1-0.5,1.1-1.1
				c0-0.1-0.1-0.1-0.1-0.1c-0.1,0-0.1,0.1-0.1,0.1c0,0.5-0.4,0.8-0.8,0.8C28.8,42.3,28.4,41.9,28.4,41.5z"/>
		</g>
		<g>
			<path class="st1" d="M42.9,22.7v18.6H32.1c-0.1,0-0.1,0.1-0.1,0.1c0,0.5-0.4,0.8-0.8,0.8c-0.5,0-0.8-0.4-0.8-0.8
				c0-0.1-0.1-0.1-0.1-0.1c-0.1,0-0.1,0.1-0.1,0.1c0,0.6,0.5,1.1,1.1,1.1c0.6,0,1-0.4,1.1-1H43c0.1,0,0.1-0.1,0.1-0.1V23l25.6,25.6
				c0,0,0.1,0,0.1,0h22.3c0.1,0,0.1-0.1,0.1-0.1c0-0.1-0.1-0.1-0.1-0.1H68.9L43.1,22.6c0,0-0.1,0-0.1,0c0,0,0,0,0,0
				C42.9,22.6,42.9,22.7,42.9,22.7z"/>
		</g>
	</g>
</g>
<g class="st0">
	<g>
		<path class="st1" d="M83.7,68.3c0,0.1,0.1,0.1,0.1,0.1h19.5c0.1,0,0.1-0.1,0.1-0.1s-0.1-0.1-0.1-0.1H83.8
			C83.7,68.2,83.7,68.2,83.7,68.3z"/>
	</g>
	<g>
		<path class="st1" d="M103.3,67.6V69c0,0.1,0.1,0.1,0.1,0.1c0.1,0,0.1-0.1,0.1-0.1v-1.3c0-0.1-0.1-0.1-0.1-0.1
			C103.3,67.5,103.3,67.6,103.3,67.6z"/>
	</g>
	<g>
		<path class="st1" d="M103.9,67v2.7c0,0.1,0.1,0.1,0.1,0.1c0.1,0,0.1-0.1,0.1-0.1V67c0-0.1-0.1-0.1-0.1-0.1
			C103.9,66.8,103.9,66.9,103.9,67z"/>
	</g>
	<g>
		<path class="st1" d="M103.9,68.3c0,0.1,0.1,0.1,0.1,0.1h3.7c0.1,0,0.1-0.1,0.1-0.1s-0.1-0.1-0.1-0.1H104
			C103.9,68.2,103.9,68.2,103.9,68.3z"/>
	</g>
	<g>
		<path class="st1" d="M82.3,68.3c0,0.5,0.4,0.8,0.8,0.8c0.5,0,0.8-0.4,0.8-0.8c0-0.5-0.4-0.8-0.8-0.8
			C82.6,67.5,82.3,67.8,82.3,68.3z M83.7,68.3c0,0.3-0.3,0.6-0.6,0.6c-0.3,0-0.6-0.3-0.6-0.6s0.3-0.6,0.6-0.6
			C83.4,67.7,83.7,68,83.7,68.3z"/>
	</g>
	<g>
		<path class="st1" d="M60.9,73.8c0,0.5,0.4,0.8,0.8,0.8c0.5,0,0.8-0.4,0.8-0.8c0-0.5-0.4-0.8-0.8-0.8
			C61.2,72.9,60.9,73.3,60.9,73.8z M62.3,73.8c0,0.3-0.3,0.6-0.6,0.6c-0.3,0-0.6-0.3-0.6-0.6c0-0.3,0.3-0.6,0.6-0.6
			C62,73.2,62.3,73.4,62.3,73.8z"/>
	</g>
	<g>
		<path class="st1" d="M7.2,66.7c0,0.5,0.4,0.8,0.8,0.8c0.5,0,0.8-0.4,0.8-0.8c0-0.5-0.4-0.8-0.8-0.8C7.6,65.8,7.2,66.2,7.2,66.7z
			 M8.6,66.7c0,0.3-0.3,0.6-0.6,0.6c-0.3,0-0.6-0.3-0.6-0.6c0-0.3,0.3-0.6,0.6-0.6C8.4,66.1,8.6,66.4,8.6,66.7z"/>
	</g>
	<g>
		<g>
			<path class="st1" d="M0.3,66.7c0-0.2-0.1-0.3-0.3-0.4v0.8C0.2,67,0.3,66.9,0.3,66.7z"/>
		</g>
	</g>
	<g>
		<path class="st1" d="M79.7,68.3c0,0.5,0.4,0.8,0.8,0.8c0.5,0,0.8-0.4,0.8-0.8c0-0.5-0.4-0.8-0.8-0.8
			C80.1,67.5,79.7,67.8,79.7,68.3z M81.2,68.3c0,0.3-0.3,0.6-0.6,0.6c-0.3,0-0.6-0.3-0.6-0.6s0.3-0.6,0.6-0.6
			C80.9,67.7,81.2,68,81.2,68.3z"/>
	</g>
	<g>
		<circle class="st1" cx="34" cy="73.8" r="0.4"/>
	</g>
	<g>
		<circle class="st1" cx="107.8" cy="68.3" r="0.4"/>
	</g>
	<g>
		<circle class="st1" cx="61.8" cy="68.3" r="0.4"/>
	</g>
	<g>
		<g>
			<path class="st1" d="M61.6,68.3v5.3h-9.1c-0.1-0.5-0.5-1-1.1-1c-0.6,0-1.1,0.5-1.1,1.1c0,0.1,0.1,0.1,0.1,0.1
				c0.1,0,0.1-0.1,0.1-0.1c0-0.5,0.4-0.8,0.8-0.8c0.5,0,0.8,0.4,0.8,0.8c0,0.1,0.1,0.1,0.1,0.1h9.3c0.1,0,0.1-0.1,0.1-0.1v-5.3h18.1
				c0.1,0,0.1-0.1,0.1-0.1s-0.1-0.1-0.1-0.1H61.7C61.7,68.2,61.6,68.2,61.6,68.3z"/>
		</g>
		<g>
			<path class="st1" d="M48.4,73.7c0,0.1,0.1,0.1,0.1,0.1c0.1,0,0.1-0.1,0.1-0.1c0-0.5,0.4-0.8,0.8-0.8c0.5,0,0.8,0.4,0.8,0.8
				c0,0.1,0.1,0.1,0.1,0.1c0.1,0,0.1-0.1,0.1-0.1c0-0.6-0.5-1.1-1.1-1.1C48.9,72.7,48.4,73.1,48.4,73.7z"/>
		</g>
		<g>
			<path class="st1" d="M46.5,73.7c0,0.1,0.1,0.1,0.1,0.1c0.1,0,0.1-0.1,0.1-0.1c0-0.5,0.4-0.8,0.8-0.8c0.5,0,0.8,0.4,0.8,0.8
				c0,0.1,0.1,0.1,0.1,0.1c0.1,0,0.1-0.1,0.1-0.1c0-0.6-0.5-1.1-1.1-1.1C47,72.7,46.5,73.1,46.5,73.7z"/>
		</g>
	</g>
</g>
<g class="st0">
	<g>
		<path class="st1" d="M107.5,24.6l1.7,1.3l-1.7,1.3c-0.1,0-0.1,0.1,0,0.2c0,0.1,0.1,0.1,0.2,0l1.9-1.4c0,0,0-0.1,0-0.1
			c0,0,0-0.1,0-0.1l-1.9-1.4c0,0,0,0-0.1,0c0,0-0.1,0-0.1,0C107.4,24.5,107.4,24.6,107.5,24.6z"/>
	</g>
	<g>
		<path class="st1" d="M11,24.4c0.1,0,0.1-0.1,0.1-0.1c0-0.1-0.1-0.1-0.1-0.1H0v0.2H11z"/>
	</g>
	<g>
		<path class="st1" d="M10.9,24.3c0,0.5,0.4,0.8,0.8,0.8c0.5,0,0.8-0.4,0.8-0.8c0-0.5-0.4-0.8-0.8-0.8
			C11.2,23.4,10.9,23.8,10.9,24.3z M12.3,24.3c0,0.3-0.3,0.6-0.6,0.6c-0.3,0-0.6-0.3-0.6-0.6c0-0.3,0.3-0.6,0.6-0.6
			C12,23.7,12.3,24,12.3,24.3z"/>
	</g>
	<g>
		<path class="st1" d="M32.2,18.8c0,0.5,0.4,0.8,0.8,0.8c0.5,0,0.8-0.4,0.8-0.8c0-0.5-0.4-0.8-0.8-0.8C32.6,18,32.2,18.3,32.2,18.8z
			 M33.7,18.8c0,0.3-0.3,0.6-0.6,0.6s-0.6-0.3-0.6-0.6c0-0.3,0.3-0.6,0.6-0.6S33.7,18.5,33.7,18.8z"/>
	</g>
	<g>
		<path class="st1" d="M85.9,25.9c0,0.5,0.4,0.8,0.8,0.8c0.5,0,0.8-0.4,0.8-0.8c0-0.5-0.4-0.8-0.8-0.8
			C86.3,25.1,85.9,25.4,85.9,25.9z M87.4,25.9c0,0.3-0.3,0.6-0.6,0.6c-0.3,0-0.6-0.3-0.6-0.6s0.3-0.6,0.6-0.6
			C87.1,25.3,87.4,25.6,87.4,25.9z"/>
	</g>
	<g>
		<g>
			<circle class="st1" cx="95" cy="25.9" r="0.4"/>
		</g>
		<g>
			<circle class="st1" cx="96.1" cy="25.9" r="0.4"/>
		</g>
		<g>
			<circle class="st1" cx="97.2" cy="25.9" r="0.4"/>
		</g>
		<g>
			<circle class="st1" cx="98.3" cy="25.9" r="0.4"/>
		</g>
	</g>
	<g>
		<path class="st1" d="M13.4,24.3c0,0.5,0.4,0.8,0.8,0.8c0.5,0,0.8-0.4,0.8-0.8c0-0.5-0.4-0.8-0.8-0.8
			C13.8,23.4,13.4,23.8,13.4,24.3z M14.8,24.3c0,0.3-0.3,0.6-0.6,0.6c-0.3,0-0.6-0.3-0.6-0.6c0-0.3,0.3-0.6,0.6-0.6
			C14.6,23.7,14.8,24,14.8,24.3z"/>
	</g>
	<g>
		<circle class="st1" cx="60.8" cy="18.8" r="0.4"/>
	</g>
	<g>
		<circle class="st1" cx="33" cy="24.3" r="0.4"/>
	</g>
	<g>
		<g>
			<path class="st1" d="M33,18.8v5.3H14.9c-0.1,0-0.1,0.1-0.1,0.1c0,0.1,0.1,0.1,0.1,0.1h18.2c0.1,0,0.1-0.1,0.1-0.1V19h9.1
				c0.1,0.5,0.5,1,1.1,1c0.6,0,1.1-0.5,1.1-1.1c0-0.1-0.1-0.1-0.1-0.1c-0.1,0-0.1,0.1-0.1,0.1c0,0.5-0.4,0.8-0.8,0.8
				c-0.5,0-0.8-0.4-0.8-0.8c0-0.1-0.1-0.1-0.1-0.1h-9.3C33,18.7,33,18.8,33,18.8z"/>
		</g>
		<g>
			<path class="st1" d="M44.4,18.8c0-0.1-0.1-0.1-0.1-0.1c-0.1,0-0.1,0.1-0.1,0.1c0,0.6,0.5,1.1,1.1,1.1c0.6,0,1.1-0.5,1.1-1.1
				c0-0.1-0.1-0.1-0.1-0.1c-0.1,0-0.1,0.1-0.1,0.1c0,0.5-0.4,0.8-0.8,0.8C44.8,19.7,44.4,19.3,44.4,18.8z"/>
		</g>
		<g>
			<path class="st1" d="M46.4,18.8c0-0.1-0.1-0.1-0.1-0.1s-0.1,0.1-0.1,0.1c0,0.6,0.5,1.1,1.1,1.1c0.6,0,1.1-0.5,1.1-1.1
				c0-0.1-0.1-0.1-0.1-0.1c-0.1,0-0.1,0.1-0.1,0.1c0,0.5-0.4,0.8-0.8,0.8C46.7,19.7,46.4,19.3,46.4,18.8z"/>
		</g>
		<g>
			<path class="st1" d="M60.8,0.1v18.6H50.1c-0.1,0-0.1,0.1-0.1,0.1c0,0.5-0.4,0.8-0.8,0.8c-0.5,0-0.8-0.4-0.8-0.8
				c0-0.1-0.1-0.1-0.1-0.1c-0.1,0-0.1,0.1-0.1,0.1c0,0.6,0.5,1.1,1.1,1.1c0.6,0,1-0.4,1.1-1H61c0.1,0,0.1-0.1,0.1-0.1V0.4L86.7,26
				c0,0,0.1,0,0.1,0h22.3c0.1,0,0.1-0.1,0.1-0.1c0-0.1-0.1-0.1-0.1-0.1H86.8L61,0C61,0,61,0,61,0c0,0,0,0,0,0
				C60.9,0,60.8,0.1,60.8,0.1z"/>
		</g>
	</g>
</g>
<g>
	<g>
		<path class="st1" d="M0,31.9v0.2l1.7-1.7c0,0,0-0.1,0-0.1c0,0-0.1,0-0.1,0L0,31.9z"/>
	</g>
	<g>
		<path class="st1" d="M1.6,32.1c0,0,0,0.1,0,0.1c0,0,0,0,0.1,0c0,0,0,0,0.1,0l1.7-1.7c0,0,0-0.1,0-0.1c0,0-0.1,0-0.1,0L1.6,32.1z"
			/>
	</g>
	<g>
		<path class="st1" d="M0,31.3C0,31.3,0.1,31.3,0,31.3l0.2,0.1c0,0,0.1,0,0.1-0.1c0,0,0-0.1-0.1-0.1L0,31.3C0.1,31.2,0,31.2,0,31.3z
			"/>
	</g>
	<g>
		<path class="st1" d="M0.2,31.3c0,0.3,0.3,0.6,0.6,0.6c0.3,0,0.6-0.3,0.6-0.6c0-0.3-0.3-0.6-0.6-0.6C0.5,30.7,0.2,30.9,0.2,31.3z
			 M1.2,31.3c0,0.2-0.2,0.4-0.4,0.4c-0.2,0-0.4-0.2-0.4-0.4c0-0.2,0.2-0.4,0.4-0.4C1,30.8,1.2,31,1.2,31.3z"/>
	</g>
	<g>
		<path class="st1" d="M3,31.3C3,31.3,3,31.3,3,31.3l13.4,0.1c0,0,0.1,0,0.1-0.1c0,0,0-0.1-0.1-0.1L3,31.3C3,31.2,3,31.2,3,31.3z"/>
	</g>
	<g>
		<path class="st1" d="M19.9,31.3C19.9,31.3,19.9,31.3,19.9,31.3l0.8,0.1c0,0,0.1,0,0.1-0.1c0,0,0-0.1-0.1-0.1L19.9,31.3
			C19.9,31.2,19.9,31.2,19.9,31.3z"/>
		<path class="st1" d="M21.2,31.3C21.2,31.3,21.2,31.3,21.2,31.3l0.8,0.1c0,0,0.1,0,0.1-0.1c0,0,0-0.1-0.1-0.1L21.2,31.3
			C21.2,31.2,21.2,31.2,21.2,31.3z"/>
		<path class="st1" d="M17.7,31.3C17.7,31.3,17.8,31.3,17.7,31.3l0.2,0.1c0,0,0.1,0,0.1-0.1c0,0,0-0.1-0.1-0.1L17.7,31.3
			C17.8,31.2,17.7,31.2,17.7,31.3z"/>
		<path class="st1" d="M22.5,31.3C22.5,31.3,22.6,31.3,22.5,31.3l0.8,0.1c0,0,0.1,0,0.1-0.1c0,0,0-0.1-0.1-0.1L22.5,31.3
			C22.6,31.2,22.5,31.2,22.5,31.3z"/>
		<path class="st1" d="M18.5,31.3C18.5,31.3,18.6,31.3,18.5,31.3l0.8,0.1c0,0,0.1,0,0.1-0.1c0,0,0-0.1-0.1-0.1L18.5,31.3
			C18.6,31.2,18.5,31.2,18.5,31.3z"/>
		<path class="st1" d="M30.6,31.3C30.6,31.3,30.6,31.3,30.6,31.3l0.8,0.1c0,0,0.1,0,0.1-0.1c0,0,0-0.1-0.1-0.1L30.6,31.3
			C30.6,31.2,30.6,31.2,30.6,31.3z"/>
		<path class="st1" d="M29.2,31.3C29.2,31.3,29.3,31.3,29.2,31.3l0.8,0.1c0,0,0.1,0,0.1-0.1c0,0,0-0.1-0.1-0.1L29.2,31.3
			C29.3,31.2,29.2,31.2,29.2,31.3z"/>
		<path class="st1" d="M27.9,31.3C27.9,31.3,27.9,31.3,27.9,31.3l0.8,0.1c0,0,0.1,0,0.1-0.1c0,0,0-0.1-0.1-0.1L27.9,31.3
			C27.9,31.2,27.9,31.2,27.9,31.3z"/>
		<path class="st1" d="M23.9,31.3C23.9,31.3,23.9,31.3,23.9,31.3l0.8,0.1c0,0,0.1,0,0.1-0.1c0,0,0-0.1-0.1-0.1L23.9,31.3
			C23.9,31.2,23.9,31.2,23.9,31.3z"/>
		<path class="st1" d="M25.2,31.3C25.2,31.3,25.3,31.3,25.2,31.3l0.8,0.1c0,0,0.1,0,0.1-0.1c0,0,0-0.1-0.1-0.1L25.2,31.3
			C25.3,31.2,25.2,31.2,25.2,31.3z"/>
		<path class="st1" d="M26.6,31.3C26.6,31.3,26.6,31.3,26.6,31.3l0.8,0.1c0,0,0.1,0,0.1-0.1c0,0,0-0.1-0.1-0.1L26.6,31.3
			C26.6,31.2,26.6,31.2,26.6,31.3z"/>
	</g>
	<g>
		<path class="st1" d="M2,31.3c0,0.3,0.3,0.6,0.6,0.6c0.3,0,0.6-0.3,0.6-0.6c0-0.3-0.3-0.6-0.6-0.6C2.2,30.7,2,30.9,2,31.3z M3,31.3
			c0,0.2-0.2,0.4-0.4,0.4c-0.2,0-0.4-0.2-0.4-0.4c0-0.2,0.2-0.4,0.4-0.4C2.8,30.8,3,31,3,31.3z"/>
	</g>
	<g>
		<circle class="st1" cx="31.2" cy="31.3" r="0.5"/>
	</g>
	<g>
		<g>
			<circle class="st1" cx="7.8" cy="31.3" r="0.3"/>
		</g>
		<g>
			<circle class="st1" cx="8.6" cy="31.3" r="0.3"/>
		</g>
		<g>
			<circle class="st1" cx="9.4" cy="31.3" r="0.3"/>
		</g>
		<g>
			<circle class="st1" cx="10.2" cy="31.3" r="0.3"/>
		</g>
	</g>
	<g>
		<path class="st1" d="M15.2,30.3l1.2,0.9l-1.2,0.9c0,0,0,0.1,0,0.1c0,0,0,0,0.1,0c0,0,0,0,0.1,0l1.3-1c0,0,0,0,0-0.1
			c0,0,0-0.1,0-0.1l-1.3-1c0,0-0.1,0-0.1,0C15.1,30.2,15.1,30.3,15.2,30.3z"/>
	</g>
	<g>
		<path class="st1" d="M16.5,30.3l1.2,0.9l-1.2,0.9c0,0,0,0.1,0,0.1c0,0,0,0,0.1,0c0,0,0,0,0.1,0l1.3-1c0,0,0,0,0-0.1
			c0,0,0-0.1,0-0.1l-1.3-1c0,0-0.1,0-0.1,0C16.5,30.2,16.5,30.3,16.5,30.3z"/>
	</g>
</g>
<g class="st0">
	<g>
		<path class="st1" d="M79.3,52.8c0,0.1,0,0.1,0.1,0.1h17.7c0.1,0,0.1,0,0.1-0.1c0-0.1,0-0.1-0.1-0.1H79.4
			C79.3,52.7,79.3,52.7,79.3,52.8z"/>
	</g>
	<g>
		<path class="st1" d="M102.8,52.8c0,0.1,0,0.1,0.1,0.1h3.7c0.1,0,0.1,0,0.1-0.1c0-0.1,0-0.1-0.1-0.1h-3.7
			C102.9,52.7,102.8,52.7,102.8,52.8z"/>
	</g>
	<g>
		<path class="st1" d="M74.3,52.8c0,0.1,0,0.1,0.1,0.1h3.7c0.1,0,0.1,0,0.1-0.1c0-0.1,0-0.1-0.1-0.1h-3.7
			C74.4,52.7,74.3,52.7,74.3,52.8z"/>
	</g>
	<g>
		<circle class="st1" cx="74.4" cy="52.8" r="0.4"/>
	</g>
	<g>
		<circle class="st1" cx="106.7" cy="52.8" r="0.4"/>
	</g>
	<g>
		<path class="st1" d="M76.4,51.6l1.6,1.2L76.4,54c0,0-0.1,0.1,0,0.2c0,0,0.1,0,0.1,0c0,0,0,0,0.1,0l1.7-1.3c0,0,0-0.1,0-0.1
			c0,0,0-0.1,0-0.1l-1.7-1.3c0,0-0.1,0-0.2,0C76.4,51.5,76.4,51.5,76.4,51.6z"/>
	</g>
	<g>
		<g>
			<path class="st1" d="M77.6,51.6l0.1,0.1c0,0,0,0,0.1,0c0,0,0.1,0,0.1,0c0,0,0-0.1,0-0.2l-0.1-0.1c0,0-0.1,0-0.2,0
				C77.5,51.5,77.5,51.5,77.6,51.6z"/>
		</g>
		<g>
			<path class="st1" d="M78,51.9l0.3,0.2c0,0,0,0,0.1,0c0,0,0.1,0,0.1,0c0,0,0-0.1,0-0.2l-0.3-0.2c0,0-0.1,0-0.2,0
				C77.9,51.8,78,51.9,78,51.9z"/>
			<path class="st1" d="M78.6,52.3l0.3,0.2c0,0,0,0,0.1,0c0,0,0.1,0,0.1,0c0,0,0-0.1,0-0.2l-0.3-0.2c0,0-0.1,0-0.2,0
				C78.5,52.2,78.5,52.3,78.6,52.3z"/>
		</g>
		<g>
			<path class="st1" d="M79.1,52.8L79.1,52.8L79.1,52.8c0,0.1-0.1,0.1,0,0.2c0,0,0.1,0,0.1,0c0,0,0,0,0.1,0l0.1-0.1c0,0,0-0.1,0-0.1
				c0,0,0-0.1,0-0.1l-0.1-0.1c0,0-0.1,0-0.2,0C79.1,52.7,79.1,52.7,79.1,52.8z"/>
		</g>
		<g>
			<path class="st1" d="M78,53.7c0,0-0.1,0.1,0,0.2c0,0,0.1,0,0.1,0c0,0,0,0,0.1,0l0.3-0.2c0,0,0.1-0.1,0-0.2c0,0-0.1-0.1-0.2,0
				L78,53.7z"/>
			<path class="st1" d="M78.6,53.2c0,0-0.1,0.1,0,0.2c0,0,0.1,0,0.1,0c0,0,0,0,0.1,0l0.3-0.2c0,0,0.1-0.1,0-0.2c0,0-0.1-0.1-0.2,0
				L78.6,53.2z"/>
		</g>
		<g>
			<path class="st1" d="M77.6,54c0,0-0.1,0.1,0,0.2c0,0,0.1,0,0.1,0c0,0,0,0,0.1,0l0.1-0.1c0,0,0.1-0.1,0-0.2c0,0-0.1-0.1-0.2,0
				L77.6,54z"/>
		</g>
	</g>
	<g>
		<path class="st1" d="M95.5,51.6l1.6,1.2L95.5,54c0,0-0.1,0.1,0,0.2c0,0,0.1,0,0.1,0c0,0,0,0,0.1,0l1.7-1.3c0,0,0-0.1,0-0.1
			c0,0,0-0.1,0-0.1l-1.7-1.3c0,0-0.1,0-0.2,0C95.5,51.5,95.5,51.5,95.5,51.6z"/>
	</g>
	<g>
		<g>
			<path class="st1" d="M96.7,51.6l0.1,0.1c0,0,0,0,0.1,0c0,0,0.1,0,0.1,0c0,0,0-0.1,0-0.2l-0.1-0.1c0,0-0.1,0-0.2,0
				C96.6,51.5,96.6,51.5,96.7,51.6z"/>
		</g>
		<g>
			<path class="st1" d="M97.7,52.3l0.3,0.2c0,0,0,0,0.1,0c0,0,0.1,0,0.1,0c0,0,0-0.1,0-0.2l-0.3-0.2c0,0-0.1,0-0.2,0
				C97.6,52.2,97.6,52.3,97.7,52.3z"/>
			<path class="st1" d="M97.1,51.9l0.3,0.2c0,0,0,0,0.1,0c0,0,0.1,0,0.1,0c0,0,0-0.1,0-0.2l-0.3-0.2c0,0-0.1,0-0.2,0
				C97.1,51.8,97.1,51.9,97.1,51.9z"/>
		</g>
		<g>
			<path class="st1" d="M98.2,52.8L98.2,52.8L98.2,52.8c0,0.1-0.1,0.1,0,0.2c0,0,0.1,0,0.1,0c0,0,0,0,0.1,0l0.1-0.1c0,0,0-0.1,0-0.1
				c0,0,0-0.1,0-0.1l-0.1-0.1c0,0-0.1,0-0.2,0C98.2,52.7,98.2,52.7,98.2,52.8z"/>
		</g>
		<g>
			<path class="st1" d="M97.1,53.7c0,0-0.1,0.1,0,0.2c0,0,0.1,0,0.1,0c0,0,0,0,0.1,0l0.3-0.2c0,0,0.1-0.1,0-0.2c0,0-0.1-0.1-0.2,0
				L97.1,53.7z"/>
			<path class="st1" d="M97.7,53.2c0,0-0.1,0.1,0,0.2c0,0,0.1,0,0.1,0c0,0,0,0,0.1,0l0.3-0.2c0,0,0.1-0.1,0-0.2c0,0-0.1-0.1-0.2,0
				L97.7,53.2z"/>
		</g>
		<g>
			<path class="st1" d="M96.7,54c0,0-0.1,0.1,0,0.2c0,0,0.1,0,0.1,0c0,0,0,0,0.1,0l0.1-0.1c0,0,0.1-0.1,0-0.2c0,0-0.1-0.1-0.2,0
				L96.7,54z"/>
		</g>
	</g>
	<g>
		<path class="st1" d="M100,51.6l1.6,1.2L100,54c0,0-0.1,0.1,0,0.2c0,0,0.1,0,0.1,0c0,0,0,0,0.1,0l1.7-1.3c0,0,0-0.1,0-0.1
			c0,0,0-0.1,0-0.1l-1.7-1.3c0,0-0.1,0-0.2,0C100,51.5,100,51.5,100,51.6z"/>
	</g>
	<g>
		<g>
			<path class="st1" d="M101.2,51.6l0.1,0.1c0,0,0,0,0.1,0c0,0,0.1,0,0.1,0c0,0,0-0.1,0-0.2l-0.1-0.1c0,0-0.1,0-0.2,0
				C101.1,51.5,101.1,51.5,101.2,51.6z"/>
		</g>
		<g>
			<path class="st1" d="M102.1,52.3l0.3,0.2c0,0,0,0,0.1,0c0,0,0.1,0,0.1,0c0,0,0-0.1,0-0.2l-0.3-0.2c0,0-0.1,0-0.2,0
				C102.1,52.2,102.1,52.3,102.1,52.3z"/>
			<path class="st1" d="M101.6,51.9l0.3,0.2c0,0,0,0,0.1,0c0,0,0.1,0,0.1,0c0,0,0-0.1,0-0.2l-0.3-0.2c0,0-0.1,0-0.2,0
				C101.5,51.8,101.5,51.9,101.6,51.9z"/>
		</g>
		<g>
			<path class="st1" d="M102.7,52.8L102.7,52.8L102.7,52.8c0,0.1-0.1,0.1,0,0.2c0,0,0.1,0,0.1,0c0,0,0,0,0.1,0l0.1-0.1
				c0,0,0-0.1,0-0.1c0,0,0-0.1,0-0.1l-0.1-0.1c0,0-0.1,0-0.2,0C102.7,52.7,102.7,52.7,102.7,52.8z"/>
		</g>
		<g>
			<path class="st1" d="M101.6,53.7c0,0-0.1,0.1,0,0.2c0,0,0.1,0,0.1,0c0,0,0,0,0.1,0l0.3-0.2c0,0,0.1-0.1,0-0.2c0,0-0.1-0.1-0.2,0
				L101.6,53.7z"/>
			<path class="st1" d="M102.1,53.2c0,0-0.1,0.1,0,0.2c0,0,0.1,0,0.1,0c0,0,0,0,0.1,0l0.3-0.2c0,0,0.1-0.1,0-0.2c0,0-0.1-0.1-0.2,0
				L102.1,53.2z"/>
		</g>
		<g>
			<path class="st1" d="M101.2,54c0,0-0.1,0.1,0,0.2c0,0,0.1,0,0.1,0c0,0,0,0,0.1,0l0.1-0.1c0,0,0.1-0.1,0-0.2c0,0-0.1-0.1-0.2,0
				L101.2,54z"/>
		</g>
	</g>
</g>
<g class="st0">
	<g>
		<g>
			<path class="st1" d="M13.2,60.6c0,0.1,0.1,0.1,0.1,0.1h23.5c0.1,0,0.1-0.1,0.1-0.1c0-0.1-0.1-0.1-0.1-0.1H13.3
				C13.3,60.4,13.2,60.5,13.2,60.6z"/>
		</g>
		<g>
			<path class="st1" d="M53.7,60.6c0,0.1,0.1,0.1,0.1,0.1h4.8c0.1,0,0.1-0.1,0.1-0.1c0-0.1-0.1-0.1-0.1-0.1h-4.8
				C53.8,60.4,53.7,60.5,53.7,60.6z"/>
		</g>
		<g>
			<path class="st1" d="M6.6,60.6c0,0.1,0.1,0.1,0.1,0.1h4.8c0.1,0,0.1-0.1,0.1-0.1c0-0.1-0.1-0.1-0.1-0.1H6.8
				C6.7,60.4,6.6,60.5,6.6,60.6z"/>
		</g>
		<g>
			<circle class="st1" cx="6.7" cy="60.6" r="0.5"/>
		</g>
		<g>
			<circle class="st1" cx="58.9" cy="60.6" r="0.5"/>
		</g>
		<g>
			<path class="st1" d="M9.5,58.9l2.1,1.6l-2.1,1.6c-0.1,0-0.1,0.1,0,0.2c0,0,0.1,0.1,0.1,0.1c0,0,0.1,0,0.1,0l2.2-1.7
				c0,0,0.1-0.1,0.1-0.1c0,0,0-0.1-0.1-0.1l-2.2-1.7c-0.1,0-0.2,0-0.2,0C9.4,58.8,9.4,58.9,9.5,58.9z"/>
		</g>
		<g>
			<g>
				<path class="st1" d="M11,58.9l0.2,0.1c0,0,0.1,0,0.1,0c0,0,0.1,0,0.1-0.1c0-0.1,0-0.2,0-0.2l-0.2-0.1c-0.1,0-0.2,0-0.2,0
					C10.9,58.8,10.9,58.9,11,58.9z"/>
			</g>
			<g>
				<path class="st1" d="M12.3,60l0.4,0.3c0,0,0.1,0,0.1,0c0,0,0.1,0,0.1-0.1c0-0.1,0-0.2,0-0.2l-0.4-0.3c-0.1,0-0.2,0-0.2,0
					C12.2,59.8,12.2,59.9,12.3,60z"/>
				<path class="st1" d="M11.5,59.4l0.4,0.3c0,0,0.1,0,0.1,0c0,0,0.1,0,0.1-0.1c0-0.1,0-0.2,0-0.2l-0.4-0.3c-0.1,0-0.2,0-0.2,0
					C11.4,59.2,11.5,59.3,11.5,59.4z"/>
			</g>
			<g>
				<path class="st1" d="M13,60.5L13,60.5L13,60.5c-0.1,0.1-0.1,0.2,0,0.3c0,0,0.1,0.1,0.1,0.1c0,0,0.1,0,0.1,0l0.2-0.1
					c0,0,0.1-0.1,0.1-0.1c0,0,0-0.1-0.1-0.1l-0.2-0.1c-0.1,0-0.2,0-0.2,0C12.9,60.4,12.9,60.5,13,60.5z"/>
			</g>
			<g>
				<path class="st1" d="M11.5,61.7c-0.1,0-0.1,0.1,0,0.2c0,0,0.1,0.1,0.1,0.1c0,0,0.1,0,0.1,0l0.4-0.3c0.1,0,0.1-0.1,0-0.2
					c0-0.1-0.1-0.1-0.2,0L11.5,61.7z"/>
				<path class="st1" d="M12.3,61.2c-0.1,0-0.1,0.1,0,0.2c0,0,0.1,0.1,0.1,0.1c0,0,0.1,0,0.1,0l0.4-0.3c0.1,0,0.1-0.1,0-0.2
					c0-0.1-0.1-0.1-0.2,0L12.3,61.2z"/>
			</g>
			<g>
				<path class="st1" d="M11,62.2c-0.1,0-0.1,0.1,0,0.2c0,0,0.1,0.1,0.1,0.1c0,0,0.1,0,0.1,0l0.2-0.1c0.1,0,0.1-0.1,0-0.2
					c0-0.1-0.1-0.1-0.2,0L11,62.2z"/>
			</g>
		</g>
		<g>
			<path class="st1" d="M34.8,58.9l2.1,1.6l-2.1,1.6c-0.1,0-0.1,0.1,0,0.2c0,0,0.1,0.1,0.1,0.1c0,0,0.1,0,0.1,0l2.2-1.7
				c0,0,0.1-0.1,0.1-0.1c0,0,0-0.1-0.1-0.1l-2.2-1.7c-0.1,0-0.2,0-0.2,0C34.7,58.8,34.7,58.9,34.8,58.9z"/>
		</g>
		<g>
			<g>
				<path class="st1" d="M36.3,58.9l0.2,0.1c0,0,0.1,0,0.1,0c0,0,0.1,0,0.1-0.1c0-0.1,0-0.2,0-0.2l-0.2-0.1c-0.1,0-0.2,0-0.2,0
					C36.2,58.8,36.2,58.9,36.3,58.9z"/>
			</g>
			<g>
				<path class="st1" d="M36.8,59.4l0.4,0.3c0,0,0.1,0,0.1,0c0,0,0.1,0,0.1-0.1c0-0.1,0-0.2,0-0.2L37,59.1c-0.1,0-0.2,0-0.2,0
					C36.7,59.2,36.8,59.3,36.8,59.4z"/>
				<path class="st1" d="M37.6,60l0.4,0.3c0,0,0.1,0,0.1,0c0,0,0.1,0,0.1-0.1c0-0.1,0-0.2,0-0.2l-0.4-0.3c-0.1,0-0.2,0-0.2,0
					C37.5,59.8,37.5,59.9,37.6,60z"/>
			</g>
			<g>
				<path class="st1" d="M38.3,60.5L38.3,60.5L38.3,60.5c-0.1,0.1-0.1,0.2,0,0.3c0,0,0.1,0.1,0.1,0.1c0,0,0.1,0,0.1,0l0.2-0.1
					c0,0,0.1-0.1,0.1-0.1c0,0,0-0.1-0.1-0.1l-0.2-0.1c-0.1,0-0.2,0-0.2,0C38.2,60.4,38.2,60.5,38.3,60.5z"/>
			</g>
			<g>
				<path class="st1" d="M36.8,61.7c-0.1,0-0.1,0.1,0,0.2c0,0,0.1,0.1,0.1,0.1c0,0,0.1,0,0.1,0l0.4-0.3c0.1,0,0.1-0.1,0-0.2
					c0-0.1-0.1-0.1-0.2,0L36.8,61.7z"/>
				<path class="st1" d="M37.6,61.2c-0.1,0-0.1,0.1,0,0.2c0,0,0.1,0.1,0.1,0.1c0,0,0.1,0,0.1,0l0.4-0.3c0.1,0,0.1-0.1,0-0.2
					c0-0.1-0.1-0.1-0.2,0L37.6,61.2z"/>
			</g>
			<g>
				<path class="st1" d="M36.3,62.2c-0.1,0-0.1,0.1,0,0.2c0,0,0.1,0.1,0.1,0.1c0,0,0.1,0,0.1,0l0.2-0.1c0.1,0,0.1-0.1,0-0.2
					c0-0.1-0.1-0.1-0.2,0L36.3,62.2z"/>
			</g>
		</g>
		<g>
			<path class="st1" d="M50,58.9l2.1,1.6L50,62.2c-0.1,0-0.1,0.1,0,0.2c0,0,0.1,0.1,0.1,0.1c0,0,0.1,0,0.1,0l2.2-1.7
				c0,0,0.1-0.1,0.1-0.1c0,0,0-0.1-0.1-0.1l-2.2-1.7c-0.1,0-0.2,0-0.2,0C49.9,58.8,49.9,58.9,50,58.9z"/>
		</g>
		<g>
			<g>
				<path class="st1" d="M51.5,58.9l0.2,0.1c0,0,0.1,0,0.1,0c0,0,0.1,0,0.1-0.1c0-0.1,0-0.2,0-0.2l-0.2-0.1c-0.1,0-0.2,0-0.2,0
					C51.4,58.8,51.4,58.9,51.5,58.9z"/>
			</g>
			<g>
				<path class="st1" d="M52.1,59.4l0.4,0.3c0,0,0.1,0,0.1,0c0,0,0.1,0,0.1-0.1c0-0.1,0-0.2,0-0.2l-0.4-0.3c-0.1,0-0.2,0-0.2,0
					C52,59.2,52,59.3,52.1,59.4z"/>
				<path class="st1" d="M52.8,60l0.4,0.3c0,0,0.1,0,0.1,0c0,0,0.1,0,0.1-0.1c0-0.1,0-0.2,0-0.2L53,59.7c-0.1,0-0.2,0-0.2,0
					C52.7,59.8,52.8,59.9,52.8,60z"/>
			</g>
			<g>
				<path class="st1" d="M53.6,60.5L53.6,60.5L53.6,60.5c-0.1,0.1-0.1,0.2,0,0.3c0,0,0.1,0.1,0.1,0.1c0,0,0.1,0,0.1,0l0.2-0.1
					c0,0,0.1-0.1,0.1-0.1c0,0,0-0.1-0.1-0.1l-0.2-0.1c-0.1,0-0.2,0-0.2,0C53.5,60.4,53.5,60.5,53.6,60.5z"/>
			</g>
			<g>
				<path class="st1" d="M52.1,61.7c-0.1,0-0.1,0.1,0,0.2c0,0,0.1,0.1,0.1,0.1c0,0,0.1,0,0.1,0l0.4-0.3c0.1,0,0.1-0.1,0-0.2
					c0-0.1-0.1-0.1-0.2,0L52.1,61.7z"/>
				<path class="st1" d="M52.8,61.2c-0.1,0-0.1,0.1,0,0.2c0,0,0.1,0.1,0.1,0.1c0,0,0.1,0,0.1,0l0.4-0.3c0.1,0,0.1-0.1,0-0.2
					c0-0.1-0.1-0.1-0.2,0L52.8,61.2z"/>
			</g>
			<g>
				<path class="st1" d="M51.5,62.2c-0.1,0-0.1,0.1,0,0.2c0,0,0.1,0.1,0.1,0.1c0,0,0.1,0,0.1,0l0.2-0.1c0.1,0,0.1-0.1,0-0.2
					c0-0.1-0.1-0.1-0.2,0L51.5,62.2z"/>
			</g>
		</g>
	</g>
	<g>
		<circle class="st1" cx="42.6" cy="60.6" r="0.5"/>
		<circle class="st1" cx="43.9" cy="60.6" r="0.5"/>
		<circle class="st1" cx="45.3" cy="60.6" r="0.5"/>
		<circle class="st1" cx="46.7" cy="60.6" r="0.5"/>
	</g>
</g>
<g class="st0">
	<g>
		<path class="st1" d="M38.9,14.6l1.7,1.3l-1.7,1.3c-0.1,0-0.1,0.1,0,0.2c0,0,0.1,0,0.1,0c0,0,0,0,0.1,0l1.8-1.4c0,0,0-0.1,0-0.1
			c0,0,0-0.1,0-0.1l-1.8-1.4c-0.1,0-0.1,0-0.2,0C38.9,14.5,38.9,14.6,38.9,14.6z"/>
	</g>
	<g>
		<g>
			<path class="st1" d="M40.1,14.6l0.1,0.1c0,0,0,0,0.1,0c0,0,0.1,0,0.1,0c0-0.1,0-0.1,0-0.2l-0.1-0.1c-0.1,0-0.1,0-0.2,0
				C40.1,14.5,40.1,14.6,40.1,14.6z"/>
		</g>
		<g>
			<path class="st1" d="M40.6,15l0.3,0.2c0,0,0,0,0.1,0c0,0,0.1,0,0.1,0c0-0.1,0-0.1,0-0.2l-0.3-0.2c-0.1,0-0.1,0-0.2,0
				C40.5,14.9,40.5,14.9,40.6,15z"/>
			<path class="st1" d="M41.2,15.4l0.3,0.2c0,0,0,0,0.1,0c0,0,0.1,0,0.1,0c0-0.1,0-0.1,0-0.2l-0.3-0.2c-0.1,0-0.1,0-0.2,0
				C41.1,15.3,41.1,15.4,41.2,15.4z"/>
		</g>
		<g>
			<path class="st1" d="M41.8,15.9L41.8,15.9L41.8,15.9c-0.1,0.1-0.1,0.2,0,0.2c0,0,0.1,0,0.1,0c0,0,0,0,0.1,0l0.1-0.1
				c0,0,0-0.1,0-0.1c0,0,0-0.1,0-0.1l-0.1-0.1c-0.1,0-0.1,0-0.2,0C41.7,15.8,41.7,15.9,41.8,15.9z"/>
		</g>
		<g>
			<path class="st1" d="M41.2,16.4c-0.1,0-0.1,0.1,0,0.2c0,0,0.1,0,0.1,0c0,0,0.1,0,0.1,0l0.3-0.2c0.1,0,0.1-0.1,0-0.2
				c0-0.1-0.1-0.1-0.2,0L41.2,16.4z"/>
			<path class="st1" d="M40.6,16.9c-0.1,0-0.1,0.1,0,0.2c0,0,0.1,0,0.1,0c0,0,0.1,0,0.1,0l0.3-0.2c0.1,0,0.1-0.1,0-0.2
				c0-0.1-0.1-0.1-0.2,0L40.6,16.9z"/>
		</g>
		<g>
			<path class="st1" d="M40.1,17.2c-0.1,0-0.1,0.1,0,0.2c0,0,0.1,0,0.1,0c0,0,0.1,0,0.1,0l0.1-0.1c0.1,0,0.1-0.1,0-0.2
				s-0.1-0.1-0.2,0L40.1,17.2z"/>
		</g>
	</g>
	<g>
		<circle class="st1" cx="4.7" cy="13.7" r="0.4"/>
	</g>
	<g>
		<circle class="st1" cx="4.7" cy="8.8" r="0.4"/>
	</g>
	<g>
		<circle class="st1" cx="34" cy="8.8" r="0.4"/>
	</g>
	<g>
		<circle class="st1" cx="34" cy="15.8" r="0.4"/>
	</g>
	<g>
		<circle class="st1" cx="47.8" cy="15.8" r="0.4"/>
	</g>
	<g>
		<g>
			<circle class="st1" cx="17.3" cy="8.8" r="0.4"/>
		</g>
		<g>
			<circle class="st1" cx="18.4" cy="8.8" r="0.4"/>
		</g>
		<g>
			<circle class="st1" cx="19.5" cy="8.8" r="0.4"/>
		</g>
		<g>
			<circle class="st1" cx="20.6" cy="8.8" r="0.4"/>
		</g>
	</g>
	<g>
		<path class="st1" d="M4.6,10.1v0.9c0,0.1,0.1,0.1,0.1,0.1c0.1,0,0.1-0.1,0.1-0.1v-0.9c0-0.1-0.1-0.1-0.1-0.1
			C4.7,10,4.6,10.1,4.6,10.1z"/>
		<path class="st1" d="M4.6,12v0.9C4.6,13,4.7,13,4.7,13c0.1,0,0.1-0.1,0.1-0.1V12c0-0.1-0.1-0.1-0.1-0.1C4.7,11.9,4.6,11.9,4.6,12z
			"/>
		<path class="st1" d="M1.6,13.6c0,0.1,0.1,0.1,0.1,0.1h0.9c0.1,0,0.1-0.1,0.1-0.1c0-0.1-0.1-0.1-0.1-0.1H1.7
			C1.6,13.5,1.6,13.6,1.6,13.6z"/>
		<path class="st1" d="M4.6,8.8v0.3c0,0.1,0.1,0.1,0.1,0.1c0.1,0,0.1-0.1,0.1-0.1V9h0.5c0.1,0,0.1-0.1,0.1-0.1
			c0-0.1-0.1-0.1-0.1-0.1H4.7C4.7,8.7,4.6,8.8,4.6,8.8z"/>
		<path class="st1" d="M3.5,13.6c0,0.1,0.1,0.1,0.1,0.1h0.9c0.1,0,0.1-0.1,0.1-0.1c0-0.1-0.1-0.1-0.1-0.1H3.6
			C3.5,13.5,3.5,13.6,3.5,13.6z"/>
		<path class="st1" d="M6.1,8.8C6.1,8.9,6.2,9,6.3,9h0.9c0.1,0,0.1-0.1,0.1-0.1c0-0.1-0.1-0.1-0.1-0.1H6.3C6.2,8.7,6.1,8.8,6.1,8.8z
			"/>
		<path class="st1" d="M11.7,8.8c0,0.1,0.1,0.1,0.1,0.1h0.9c0.1,0,0.1-0.1,0.1-0.1c0-0.1-0.1-0.1-0.1-0.1h-0.9
			C11.8,8.7,11.7,8.8,11.7,8.8z"/>
		<path class="st1" d="M13.6,8.8c0,0.1,0.1,0.1,0.1,0.1h0.9c0.1,0,0.1-0.1,0.1-0.1c0-0.1-0.1-0.1-0.1-0.1h-0.9
			C13.7,8.7,13.6,8.8,13.6,8.8z"/>
		<path class="st1" d="M9.9,8.8C9.9,8.9,9.9,9,10,9h0.9C11,9,11,8.9,11,8.8c0-0.1-0.1-0.1-0.1-0.1H10C9.9,8.7,9.9,8.8,9.9,8.8z"/>
		<path class="st1" d="M8,8.8C8,8.9,8.1,9,8.1,9h0.9c0.1,0,0.1-0.1,0.1-0.1c0-0.1-0.1-0.1-0.1-0.1H8.1C8.1,8.7,8,8.8,8,8.8z"/>
		<path class="st1" d="M15.5,8.8c0,0.1,0.1,0.1,0.1,0.1h0.9c0.1,0,0.1-0.1,0.1-0.1c0-0.1-0.1-0.1-0.1-0.1h-0.9
			C15.5,8.7,15.5,8.8,15.5,8.8z"/>
		<path class="st1" d="M0.8,13.7c0.1,0,0.1-0.1,0.1-0.1c0-0.1-0.1-0.1-0.1-0.1H0v0.2H0.8z"/>
		<path class="st1" d="M34,10.8v0.9c0,0.1,0.1,0.1,0.1,0.1c0.1,0,0.1-0.1,0.1-0.1v-0.9c0-0.1-0.1-0.1-0.1-0.1
			C34.1,10.7,34,10.8,34,10.8z"/>
		<path class="st1" d="M38.2,16c0,0.1,0.1,0.1,0.1,0.1h0.9c0.1,0,0.1-0.1,0.1-0.1c0-0.1-0.1-0.1-0.1-0.1h-0.9
			C38.3,15.8,38.2,15.9,38.2,16z"/>
		<path class="st1" d="M34,12.7v0.9c0,0.1,0.1,0.1,0.1,0.1c0.1,0,0.1-0.1,0.1-0.1v-0.9c0-0.1-0.1-0.1-0.1-0.1
			C34.1,12.6,34,12.6,34,12.7z"/>
		<path class="st1" d="M40.1,16c0,0.1,0.1,0.1,0.1,0.1h0.9c0.1,0,0.1-0.1,0.1-0.1c0-0.1-0.1-0.1-0.1-0.1h-0.9
			C40.1,15.8,40.1,15.9,40.1,16z"/>
		<path class="st1" d="M34.5,16c0,0.1,0.1,0.1,0.1,0.1h0.9c0.1,0,0.1-0.1,0.1-0.1c0-0.1-0.1-0.1-0.1-0.1h-0.9
			C34.5,15.8,34.5,15.9,34.5,16z"/>
		<path class="st1" d="M34,9v0.9c0,0.1,0.1,0.1,0.1,0.1c0.1,0,0.1-0.1,0.1-0.1V9c0-0.1-0.1-0.1-0.1-0.1C34.1,8.8,34,8.9,34,9z"/>
		<path class="st1" d="M36.3,16c0,0.1,0.1,0.1,0.1,0.1h0.9c0.1,0,0.1-0.1,0.1-0.1c0-0.1-0.1-0.1-0.1-0.1h-0.9
			C36.4,15.8,36.3,15.9,36.3,16z"/>
		<path class="st1" d="M47.5,16c0,0.1,0.1,0.1,0.1,0.1h0.2C48,16.1,48,16,48,16c0-0.1-0.1-0.1-0.1-0.1h-0.2
			C47.6,15.8,47.5,15.9,47.5,16z"/>
		<path class="st1" d="M45.7,16c0,0.1,0.1,0.1,0.1,0.1h0.9c0.1,0,0.1-0.1,0.1-0.1c0-0.1-0.1-0.1-0.1-0.1h-0.9
			C45.7,15.8,45.7,15.9,45.7,16z"/>
		<path class="st1" d="M43.8,16c0,0.1,0.1,0.1,0.1,0.1h0.9c0.1,0,0.1-0.1,0.1-0.1c0-0.1-0.1-0.1-0.1-0.1h-0.9
			C43.9,15.8,43.8,15.9,43.8,16z"/>
		<path class="st1" d="M41.9,16c0,0.1,0.1,0.1,0.1,0.1H43c0.1,0,0.1-0.1,0.1-0.1c0-0.1-0.1-0.1-0.1-0.1h-0.9
			C42,15.8,41.9,15.9,41.9,16z"/>
		<path class="st1" d="M30.4,8.8c0,0.1,0.1,0.1,0.1,0.1h0.9c0.1,0,0.1-0.1,0.1-0.1c0-0.1-0.1-0.1-0.1-0.1h-0.9
			C30.4,8.7,30.4,8.8,30.4,8.8z"/>
		<path class="st1" d="M21.1,8.8c0,0.1,0.1,0.1,0.1,0.1h0.9c0.1,0,0.1-0.1,0.1-0.1c0-0.1-0.1-0.1-0.1-0.1h-0.9
			C21.1,8.7,21.1,8.8,21.1,8.8z"/>
		<path class="st1" d="M24.8,8.8c0,0.1,0.1,0.1,0.1,0.1h0.9C25.9,9,26,8.9,26,8.8c0-0.1-0.1-0.1-0.1-0.1h-0.9
			C24.9,8.7,24.8,8.8,24.8,8.8z"/>
		<path class="st1" d="M22.9,8.8C22.9,8.9,23,9,23,9H24c0.1,0,0.1-0.1,0.1-0.1c0-0.1-0.1-0.1-0.1-0.1H23C23,8.7,22.9,8.8,22.9,8.8z"
			/>
		<path class="st1" d="M19.2,8.8c0,0.1,0.1,0.1,0.1,0.1h0.9c0.1,0,0.1-0.1,0.1-0.1c0-0.1-0.1-0.1-0.1-0.1h-0.9
			C19.3,8.7,19.2,8.8,19.2,8.8z"/>
		<path class="st1" d="M32.3,8.8c0,0.1,0.1,0.1,0.1,0.1h0.9c0.1,0,0.1-0.1,0.1-0.1c0-0.1-0.1-0.1-0.1-0.1h-0.9
			C32.3,8.7,32.3,8.8,32.3,8.8z"/>
		<path class="st1" d="M34,14.6v0.9c0,0.1,0.1,0.1,0.1,0.1c0.1,0,0.1-0.1,0.1-0.1v-0.9c0-0.1-0.1-0.1-0.1-0.1
			C34.1,14.4,34,14.5,34,14.6z"/>
		<path class="st1" d="M26.7,8.8c0,0.1,0.1,0.1,0.1,0.1h0.9c0.1,0,0.1-0.1,0.1-0.1c0-0.1-0.1-0.1-0.1-0.1h-0.9
			C26.7,8.7,26.7,8.8,26.7,8.8z"/>
		<path class="st1" d="M17.3,8.8c0,0.1,0.1,0.1,0.1,0.1h0.9c0.1,0,0.1-0.1,0.1-0.1c0-0.1-0.1-0.1-0.1-0.1h-0.9
			C17.4,8.7,17.3,8.8,17.3,8.8z"/>
		<path class="st1" d="M28.5,8.8c0,0.1,0.1,0.1,0.1,0.1h0.9c0.1,0,0.1-0.1,0.1-0.1c0-0.1-0.1-0.1-0.1-0.1h-0.9
			C28.6,8.7,28.5,8.8,28.5,8.8z"/>
	</g>
</g>
<g class="st2">
	<g>
		<path class="st1" d="M35.7,55.3l1.7,1.3l-1.7,1.3c-0.1,0-0.1,0.1,0,0.2c0,0,0.1,0,0.1,0c0,0,0.1,0,0.1,0l1.8-1.4c0,0,0-0.1,0-0.1
			c0,0,0-0.1,0-0.1l-1.8-1.4c-0.1,0-0.1,0-0.2,0C35.7,55.2,35.7,55.3,35.7,55.3z"/>
	</g>
	<g>
		<g>
			<path class="st1" d="M36.9,55.3l0.2,0.1c0,0,0,0,0.1,0c0,0,0.1,0,0.1,0c0-0.1,0-0.1,0-0.2l-0.2-0.1c-0.1,0-0.1,0-0.2,0
				C36.9,55.2,36.9,55.3,36.9,55.3z"/>
		</g>
		<g>
			<path class="st1" d="M37.4,55.7l0.3,0.2c0,0,0,0,0.1,0c0,0,0.1,0,0.1,0c0-0.1,0-0.1,0-0.2l-0.3-0.2c-0.1,0-0.1,0-0.2,0
				C37.3,55.5,37.3,55.6,37.4,55.7z"/>
			<path class="st1" d="M38,56.1l0.3,0.2c0,0,0,0,0.1,0c0,0,0.1,0,0.1,0c0-0.1,0-0.1,0-0.2l-0.3-0.2c-0.1,0-0.1,0-0.2,0
				C37.9,56,38,56.1,38,56.1z"/>
		</g>
		<g>
			<path class="st1" d="M38.6,56.6L38.6,56.6L38.6,56.6c-0.1,0.1-0.1,0.2,0,0.2c0,0,0.1,0,0.1,0c0,0,0.1,0,0.1,0l0.2-0.1
				c0,0,0-0.1,0-0.1c0,0,0-0.1,0-0.1l-0.2-0.1c-0.1,0-0.1,0-0.2,0C38.6,56.5,38.6,56.6,38.6,56.6z"/>
		</g>
		<g>
			<path class="st1" d="M37.4,57.6c-0.1,0-0.1,0.1,0,0.2c0,0,0.1,0,0.1,0c0,0,0.1,0,0.1,0l0.3-0.2c0.1,0,0.1-0.1,0-0.2
				c0-0.1-0.1-0.1-0.2,0L37.4,57.6z"/>
			<path class="st1" d="M38,57.1c-0.1,0-0.1,0.1,0,0.2c0,0,0.1,0,0.1,0c0,0,0.1,0,0.1,0l0.3-0.2c0.1,0,0.1-0.1,0-0.2
				c0-0.1-0.1-0.1-0.2,0L38,57.1z"/>
		</g>
		<g>
			<path class="st1" d="M36.9,57.9c-0.1,0-0.1,0.1,0,0.2c0,0,0.1,0,0.1,0c0,0,0.1,0,0.1,0l0.2-0.1c0.1,0,0.1-0.1,0-0.2
				c0-0.1-0.1-0.1-0.2,0L36.9,57.9z"/>
		</g>
	</g>
	<g>
		
			<ellipse transform="matrix(2.240472e-03 -1 1 2.240472e-03 -53.4385 54.9162)" class="st1" cx="0.8" cy="54.2" rx="0.4" ry="0.4"/>
	</g>
	<g>
		
			<ellipse transform="matrix(2.116002e-03 -1 1 2.116002e-03 -48.5037 50.0191)" class="st1" cx="0.8" cy="49.3" rx="0.4" ry="0.4"/>
	</g>
	<g>
		
			<ellipse transform="matrix(1.991532e-03 -1 1 1.991532e-03 -18.7117 80.0013)" class="st1" cx="30.7" cy="49.4" rx="0.4" ry="0.4"/>
	</g>
	<g>
		
			<ellipse transform="matrix(2.240472e-03 -1 1 2.240472e-03 -25.8804 87.1042)" class="st1" cx="30.7" cy="56.5" rx="0.4" ry="0.4"/>
	</g>
	<g>
		
			<ellipse transform="matrix(1.991532e-03 -1 1 1.991532e-03 -11.8907 101.187)" class="st1" cx="44.7" cy="56.6" rx="0.4" ry="0.4"/>
	</g>
	<g>
		<g>
			
				<ellipse transform="matrix(2.177156e-03 -1 1 2.177156e-03 -35.7093 62.9019)" class="st1" cx="13.7" cy="49.3" rx="0.4" ry="0.4"/>
		</g>
		<g>
			
				<ellipse transform="matrix(2.062088e-03 -1 1 2.062088e-03 -34.6015 64.0208)" class="st1" cx="14.8" cy="49.3" rx="0.4" ry="0.4"/>
		</g>
		<g>
			
				<ellipse transform="matrix(2.062324e-03 -1 1 2.062324e-03 -33.4953 65.134)" class="st1" cx="15.9" cy="49.3" rx="0.4" ry="0.4"/>
		</g>
		<g>
			
				<ellipse transform="matrix(2.062088e-03 -1 1 2.062088e-03 -32.3889 66.2471)" class="st1" cx="17" cy="49.4" rx="0.4" ry="0.4"/>
		</g>
	</g>
	<g>
		<path class="st1" d="M0.7,49.3l0,4.8l-0.7,0v0.2l0.8,0h0c0,0,0.1,0,0.1,0c0,0,0-0.1,0-0.1l0-4.8l29.8,0.1l0,7.1
			c0,0.1,0.1,0.1,0.1,0.1l14,0h0c0.1,0,0.1-0.1,0.1-0.1c0-0.1-0.1-0.1-0.1-0.1l-13.9,0l0-7.1c0-0.1-0.1-0.1-0.1-0.1l-30-0.1h0
			C0.8,49.2,0.8,49.2,0.7,49.3C0.7,49.3,0.7,49.3,0.7,49.3z"/>
	</g>
</g>
<path class="st1" d="M47.3,66L47.3,66l0-0.1l-0.1,0l0,0.1l0,0l0,0.1l-0.2,0l0-0.1l0,0l-0.1-0.1l-0.1,0l0,0.1l0,0l0,0.1l-0.1,0.1
	l0-0.1l0,0L46.5,66l-0.1,0.1l0,0.1l0,0l0.1,0.1l-0.1,0.1l-0.1-0.1l0,0l-0.1-0.1l-0.1,0.1l0.1,0.1l0,0l0.1,0.1l-0.1,0.1l-0.1-0.1l0,0
	l-0.1,0l-0.1,0.1l0.1,0.1l0,0l0.1,0L46,66.9l-0.1,0l0,0l-0.1,0l0,0.1l0.1,0.1l0,0l0.1,0l0,0.2l-0.1,0l0,0l-0.1,0l0,0.1l0.1,0l0,0
	l0.1,0l0,0.2l-0.1,0l0,0l-0.1,0.1l0,0.1l0.1,0l0,0l0.1,0l0.1,0.2l-0.1,0l0,0L45.9,68l0.1,0.1l0.1,0l0,0l0.1,0l0.1,0.1l-0.1,0.1l0,0
	l-0.1,0.1l0.1,0.1l0.1-0.1l0,0l0.1-0.1l0.1,0.1l-0.1,0.1l0,0l0,0.1l0.1,0.1l0.1-0.1l0,0l0-0.1l0.1,0.1l0,0.1l0,0l0,0.1l0.1,0
	l0.1-0.1l0,0l0-0.1l0.2,0l0,0.1l0,0l0,0.1l0.1,0l0-0.1l0,0l0-0.1l0.2,0l0,0.1l0,0l0.1,0.1l0.1,0l0-0.1l0,0l0-0.1l0.2,0l0,0.1l0,0
	l0.1,0.1l0.1,0l0-0.1l0,0l0-0.1l0.1-0.1l0.1,0.1l0,0l0.1,0.1l0.1-0.1l0-0.1l0,0l-0.1-0.1l0.1-0.1l0.1,0.1l0,0l0.1,0l0.1-0.1
	l-0.1-0.1l0,0l-0.1-0.1l0.1-0.1l0.1,0l0,0l0.1,0l0-0.1l-0.1-0.1l0,0l-0.1,0l0-0.2l0.1,0l0,0l0.1,0l0-0.1l-0.1,0l0,0l-0.1,0l0-0.2
	l0.1,0l0,0l0.1,0l0-0.1l-0.1,0l0,0l-0.1,0l0-0.2l0.1,0l0,0l0.1-0.1l0-0.1l-0.1,0l0,0l-0.1,0l-0.1-0.1l0.1,0l0,0l0.1-0.1l-0.1-0.1
	l-0.1,0l0,0l-0.1,0.1l-0.1-0.1l0.1-0.1l0,0l0.1-0.1l-0.1-0.1l-0.1,0.1l0,0l-0.1,0.1l-0.1-0.1l0-0.1l0,0l0-0.1L47.9,66l-0.1,0.1l0,0
	l0,0.1l-0.2-0.1l0-0.1l0,0l0-0.1l-0.1,0L47.5,66l0,0l0,0.1L47.3,66L47.3,66z M48.2,68c-0.2,0.2-0.4,0.4-0.7,0.4
	c-0.3,0.1-0.6,0-0.8-0.1c-0.2-0.1-0.4-0.4-0.5-0.6c-0.1-0.3-0.1-0.6,0.1-0.8l0.7,0.4c0,0.1,0,0.2,0.1,0.3c0.1,0.1,0.2,0,0.3,0
	L48.2,68z M47.3,67.3C47.3,67.4,47.3,67.4,47.3,67.3c0,0.1,0,0.1-0.1,0.1C47.2,67.4,47.2,67.4,47.3,67.3
	C47.2,67.3,47.3,67.3,47.3,67.3z M47.8,66.4c0.2,0.1,0.4,0.4,0.5,0.6c0.1,0.3,0.1,0.6-0.1,0.8l-0.7-0.4c0-0.1,0-0.2-0.1-0.3
	c-0.1-0.1-0.2,0-0.3,0l-0.7-0.4c0.2-0.2,0.4-0.4,0.7-0.4C47.3,66.2,47.6,66.3,47.8,66.4z"/>
<path class="st1" d="M0.1,23.3L0.1,23.3L0,24.4c0,0.1,0,0.3,0,0.5c0,0.1,0,0.2,0,0.2v1.2l0,0l0,0l0.2,0.1l0.1-0.2L0.2,26l0,0
	l-0.1-0.1l0.1-0.2l0.1,0.1l0,0l0.2,0l0.1-0.2l-0.2-0.1l0,0l-0.1,0l0.1-0.3l0.2,0l0,0l0.2,0l0-0.2l-0.2-0.1l0,0l-0.2,0l0-0.3l0.2,0
	l0,0l0.2-0.1l0-0.2l-0.2,0l0,0l-0.2,0l-0.1-0.3l0.1,0l0,0l0.2-0.1l-0.1-0.2l-0.2,0l0,0l-0.1,0.1l-0.1-0.2l0.1-0.1l0,0l0.1-0.2
	l-0.1-0.2L0.1,23.3L0.1,23.3z"/>
</svg>
