<?xml version="1.0" encoding="utf-8"?>
<!-- Generator: Adobe Illustrator 21.0.2, SVG Export Plug-In . SVG Version: 6.00 Build 0)  -->
<svg version="1.1" id="Layer_1" xmlns="http://www.w3.org/2000/svg" xmlns:xlink="http://www.w3.org/1999/xlink" x="0px" y="0px"
	 viewBox="0 0 109.5 74.6" style="enable-background:new 0 0 109.5 74.6;" xml:space="preserve">
<style type="text/css">
	.st0{opacity:0.2;}
	.st1{fill:#4071B7;}
	.st2{opacity:0.25;}
</style>
<g class="st0">
	<g>
		<path class="st1" d="M20,47.2l-1.7,1.3l1.7,1.3c0.1,0,0.1,0.1,0,0.2c0,0.1-0.1,0.1-0.2,0L18,48.6c0,0,0-0.1,0-0.1s0-0.1,0-0.1
			l1.9-1.4c0,0,0,0,0.1,0c0,0,0.1,0,0.1,0C20.1,47.1,20.1,47.2,20,47.2z"/>
	</g>
	<g>
		<path class="st1" d="M94.4,40.6c-0.5,0-0.8,0.4-0.8,0.8c0,0.5,0.4,0.8,0.8,0.8s0.8-0.4,0.8-0.8C95.3,41,94.9,40.6,94.4,40.6z
			 M94.4,40.8c0.3,0,0.6,0.3,0.6,0.6c0,0.3-0.3,0.6-0.6,0.6c-0.3,0-0.6-0.3-0.6-0.6C93.8,41.1,94.1,40.8,94.4,40.8z"/>
	</g>
	<g>
		<path class="st1" d="M40.7,47.7c-0.5,0-0.8,0.4-0.8,0.8c0,0.5,0.4,0.8,0.8,0.8c0.5,0,0.8-0.4,0.8-0.8C41.6,48,41.2,47.7,40.7,47.7
			z M40.7,47.9c0.3,0,0.6,0.3,0.6,0.6c0,0.3-0.3,0.6-0.6,0.6c-0.3,0-0.6-0.3-0.6-0.6C40.1,48.2,40.4,47.9,40.7,47.9z"/>
	</g>
	<g>
		<g>
			<circle class="st1" cx="32.5" cy="48.5" r="0.4"/>
		</g>
		<g>
			<circle class="st1" cx="31.4" cy="48.5" r="0.4"/>
		</g>
		<g>
			<circle class="st1" cx="30.3" cy="48.5" r="0.4"/>
		</g>
		<g>
			<circle class="st1" cx="29.2" cy="48.5" r="0.4"/>
		</g>
	</g>
	<g>
		<circle class="st1" cx="66.7" cy="41.4" r="0.4"/>
	</g>
	<g>
		<circle class="st1" cx="94.5" cy="46.9" r="0.4"/>
	</g>
	<g>
		<g>
			<path class="st1" d="M94.5,41.5v5.3h15V47H94.4c-0.1,0-0.1-0.1-0.1-0.1v-5.3h-9.1c-0.1,0.5-0.5,1-1.1,1c-0.6,0-1.1-0.5-1.1-1.1
				c0-0.1,0.1-0.1,0.1-0.1c0.1,0,0.1,0.1,0.1,0.1c0,0.5,0.4,0.8,0.8,0.8c0.5,0,0.8-0.4,0.8-0.8c0-0.1,0.1-0.1,0.1-0.1h9.3
				C94.5,41.3,94.5,41.4,94.5,41.5z"/>
		</g>
		<g>
			<path class="st1" d="M83.1,41.5c0-0.1,0.1-0.1,0.1-0.1c0.1,0,0.1,0.1,0.1,0.1c0,0.6-0.5,1.1-1.1,1.1c-0.6,0-1.1-0.5-1.1-1.1
				c0-0.1,0.1-0.1,0.1-0.1c0.1,0,0.1,0.1,0.1,0.1c0,0.5,0.4,0.8,0.8,0.8S83.1,41.9,83.1,41.5z"/>
		</g>
		<g>
			<path class="st1" d="M81.1,41.5c0-0.1,0.1-0.1,0.1-0.1c0.1,0,0.1,0.1,0.1,0.1c0,0.6-0.5,1.1-1.1,1.1c-0.6,0-1.1-0.5-1.1-1.1
				c0-0.1,0.1-0.1,0.1-0.1c0.1,0,0.1,0.1,0.1,0.1c0,0.5,0.4,0.8,0.8,0.8C80.8,42.3,81.1,41.9,81.1,41.5z"/>
		</g>
		<g>
			<path class="st1" d="M66.7,22.7v18.6h10.7c0.1,0,0.1,0.1,0.1,0.1c0,0.5,0.4,0.8,0.8,0.8c0.5,0,0.8-0.4,0.8-0.8
				c0-0.1,0.1-0.1,0.1-0.1c0.1,0,0.1,0.1,0.1,0.1c0,0.6-0.5,1.1-1.1,1.1c-0.6,0-1-0.4-1.1-1H66.5c-0.1,0-0.1-0.1-0.1-0.1V23
				L40.8,48.6c0,0-0.1,0-0.1,0H18.4c-0.1,0-0.1-0.1-0.1-0.1c0-0.1,0.1-0.1,0.1-0.1h22.3l25.8-25.8c0,0,0.1,0,0.1,0c0,0,0,0,0,0
				C66.6,22.6,66.7,22.7,66.7,22.7z"/>
		</g>
	</g>
</g>
<g class="st0">
	<g>
		<path class="st1" d="M25.8,68.3c0,0.1-0.1,0.1-0.1,0.1H6.2c-0.1,0-0.1-0.1-0.1-0.1s0.1-0.1,0.1-0.1h19.5
			C25.8,68.2,25.8,68.2,25.8,68.3z"/>
	</g>
	<g>
		<path class="st1" d="M6.2,67.6V69c0,0.1-0.1,0.1-0.1,0.1C6.1,69.1,6,69,6,69v-1.3c0-0.1,0.1-0.1,0.1-0.1
			C6.2,67.5,6.2,67.6,6.2,67.6z"/>
	</g>
	<g>
		<path class="st1" d="M5.7,67v2.7c0,0.1-0.1,0.1-0.1,0.1c-0.1,0-0.1-0.1-0.1-0.1V67c0-0.1,0.1-0.1,0.1-0.1
			C5.6,66.8,5.7,66.9,5.7,67z"/>
	</g>
	<g>
		<path class="st1" d="M5.6,68.3c0,0.1-0.1,0.1-0.1,0.1H1.8c-0.1,0-0.1-0.1-0.1-0.1s0.1-0.1,0.1-0.1h3.7C5.6,68.2,5.6,68.2,5.6,68.3
			z"/>
	</g>
	<g>
		<path class="st1" d="M26.4,67.5c-0.5,0-0.8,0.4-0.8,0.8c0,0.5,0.4,0.8,0.8,0.8c0.5,0,0.8-0.4,0.8-0.8
			C27.3,67.8,26.9,67.5,26.4,67.5z M26.4,67.7c0.3,0,0.6,0.3,0.6,0.6s-0.3,0.6-0.6,0.6c-0.3,0-0.6-0.3-0.6-0.6S26.1,67.7,26.4,67.7z
			"/>
	</g>
	<g>
		<path class="st1" d="M47.8,72.9c-0.5,0-0.8,0.4-0.8,0.8c0,0.5,0.4,0.8,0.8,0.8c0.5,0,0.8-0.4,0.8-0.8
			C48.7,73.3,48.3,72.9,47.8,72.9z M47.8,73.2c0.3,0,0.6,0.3,0.6,0.6c0,0.3-0.3,0.6-0.6,0.6c-0.3,0-0.6-0.3-0.6-0.6
			C47.2,73.4,47.5,73.2,47.8,73.2z"/>
	</g>
	<g>
		<path class="st1" d="M101.5,65.8c-0.5,0-0.8,0.4-0.8,0.8c0,0.5,0.4,0.8,0.8,0.8c0.5,0,0.8-0.4,0.8-0.8
			C102.3,66.2,102,65.8,101.5,65.8z M101.5,66.1c0.3,0,0.6,0.3,0.6,0.6c0,0.3-0.3,0.6-0.6,0.6c-0.3,0-0.6-0.3-0.6-0.6
			C100.9,66.4,101.2,66.1,101.5,66.1z"/>
	</g>
	<g>
		<g>
			<path class="st1" d="M109.2,66.7c0-0.2,0.1-0.3,0.3-0.4v0.8C109.4,67,109.2,66.9,109.2,66.7z"/>
		</g>
	</g>
	<g>
		<path class="st1" d="M29,67.5c-0.5,0-0.8,0.4-0.8,0.8c0,0.5,0.4,0.8,0.8,0.8c0.5,0,0.8-0.4,0.8-0.8C29.8,67.8,29.4,67.5,29,67.5z
			 M29,67.7c0.3,0,0.6,0.3,0.6,0.6s-0.3,0.6-0.6,0.6c-0.3,0-0.6-0.3-0.6-0.6S28.6,67.7,29,67.7z"/>
	</g>
	<g>
		<circle class="st1" cx="75.6" cy="73.8" r="0.4"/>
	</g>
	<g>
		<circle class="st1" cx="1.8" cy="68.3" r="0.4"/>
	</g>
	<g>
		<circle class="st1" cx="47.7" cy="68.3" r="0.4"/>
	</g>
	<g>
		<g>
			<path class="st1" d="M47.9,68.3v5.3H57c0.1-0.5,0.5-1,1.1-1c0.6,0,1.1,0.5,1.1,1.1c0,0.1-0.1,0.1-0.1,0.1c-0.1,0-0.1-0.1-0.1-0.1
				c0-0.5-0.4-0.8-0.8-0.8c-0.5,0-0.8,0.4-0.8,0.8c0,0.1-0.1,0.1-0.1,0.1h-9.3c-0.1,0-0.1-0.1-0.1-0.1v-5.3H29.6
				c-0.1,0-0.1-0.1-0.1-0.1s0.1-0.1,0.1-0.1h18.2C47.9,68.2,47.9,68.2,47.9,68.3z"/>
		</g>
		<g>
			<path class="st1" d="M61.1,73.7c0,0.1-0.1,0.1-0.1,0.1c-0.1,0-0.1-0.1-0.1-0.1c0-0.5-0.4-0.8-0.8-0.8c-0.5,0-0.8,0.4-0.8,0.8
				c0,0.1-0.1,0.1-0.1,0.1c-0.1,0-0.1-0.1-0.1-0.1c0-0.6,0.5-1.1,1.1-1.1C60.6,72.7,61.1,73.1,61.1,73.7z"/>
		</g>
		<g>
			<path class="st1" d="M63,73.7c0,0.1-0.1,0.1-0.1,0.1c-0.1,0-0.1-0.1-0.1-0.1c0-0.5-0.4-0.8-0.8-0.8c-0.5,0-0.8,0.4-0.8,0.8
				c0,0.1-0.1,0.1-0.1,0.1c-0.1,0-0.1-0.1-0.1-0.1c0-0.6,0.5-1.1,1.1-1.1C62.5,72.7,63,73.1,63,73.7z"/>
		</g>
	</g>
</g>
<g class="st0">
	<g>
		<path class="st1" d="M2,24.6l-1.7,1.3L2,27.3c0.1,0,0.1,0.1,0,0.2c0,0.1-0.1,0.1-0.2,0L0,26c0,0,0-0.1,0-0.1c0,0,0-0.1,0-0.1
			l1.9-1.4c0,0,0,0,0.1,0c0,0,0.1,0,0.1,0C2.1,24.5,2.1,24.6,2,24.6z"/>
	</g>
	<g>
		<path class="st1" d="M98.5,24.4c-0.1,0-0.1-0.1-0.1-0.1c0-0.1,0.1-0.1,0.1-0.1h11v0.2H98.5z"/>
	</g>
	<g>
		<path class="st1" d="M97.8,23.4c-0.5,0-0.8,0.4-0.8,0.8c0,0.5,0.4,0.8,0.8,0.8c0.5,0,0.8-0.4,0.8-0.8
			C98.7,23.8,98.3,23.4,97.8,23.4z M97.8,23.7c0.3,0,0.6,0.3,0.6,0.6c0,0.3-0.3,0.6-0.6,0.6c-0.3,0-0.6-0.3-0.6-0.6
			C97.2,24,97.5,23.7,97.8,23.7z"/>
	</g>
	<g>
		<path class="st1" d="M76.4,18c-0.5,0-0.8,0.4-0.8,0.8c0,0.5,0.4,0.8,0.8,0.8c0.5,0,0.8-0.4,0.8-0.8C77.3,18.3,76.9,18,76.4,18z
			 M76.4,18.2c0.3,0,0.6,0.3,0.6,0.6c0,0.3-0.3,0.6-0.6,0.6s-0.6-0.3-0.6-0.6C75.8,18.5,76.1,18.2,76.4,18.2z"/>
	</g>
	<g>
		<path class="st1" d="M22.7,25.1c-0.5,0-0.8,0.4-0.8,0.8c0,0.5,0.4,0.8,0.8,0.8c0.5,0,0.8-0.4,0.8-0.8
			C23.6,25.4,23.2,25.1,22.7,25.1z M22.7,25.3c0.3,0,0.6,0.3,0.6,0.6s-0.3,0.6-0.6,0.6c-0.3,0-0.6-0.3-0.6-0.6S22.4,25.3,22.7,25.3z
			"/>
	</g>
	<g>
		<g>
			<circle class="st1" cx="14.6" cy="25.9" r="0.4"/>
		</g>
		<g>
			<circle class="st1" cx="13.4" cy="25.9" r="0.4"/>
		</g>
		<g>
			<circle class="st1" cx="12.3" cy="25.9" r="0.4"/>
		</g>
		<g>
			<circle class="st1" cx="11.2" cy="25.9" r="0.4"/>
		</g>
	</g>
	<g>
		<path class="st1" d="M95.3,23.4c-0.5,0-0.8,0.4-0.8,0.8c0,0.5,0.4,0.8,0.8,0.8c0.5,0,0.8-0.4,0.8-0.8
			C96.1,23.8,95.8,23.4,95.3,23.4z M95.3,23.7c0.3,0,0.6,0.3,0.6,0.6c0,0.3-0.3,0.6-0.6,0.6s-0.6-0.3-0.6-0.6
			C94.7,24,95,23.7,95.3,23.7z"/>
	</g>
	<g>
		<circle class="st1" cx="48.7" cy="18.8" r="0.4"/>
	</g>
	<g>
		<circle class="st1" cx="76.6" cy="24.3" r="0.4"/>
	</g>
	<g>
		<g>
			<path class="st1" d="M76.6,18.8v5.3h18.1c0.1,0,0.1,0.1,0.1,0.1c0,0.1-0.1,0.1-0.1,0.1H76.4c-0.1,0-0.1-0.1-0.1-0.1V19h-9.1
				c-0.1,0.5-0.5,1-1.1,1c-0.6,0-1.1-0.5-1.1-1.1c0-0.1,0.1-0.1,0.1-0.1s0.1,0.1,0.1,0.1c0,0.5,0.4,0.8,0.8,0.8
				c0.5,0,0.8-0.4,0.8-0.8c0-0.1,0.1-0.1,0.1-0.1h9.3C76.5,18.7,76.6,18.8,76.6,18.8z"/>
		</g>
		<g>
			<path class="st1" d="M65.1,18.8c0-0.1,0.1-0.1,0.1-0.1c0.1,0,0.1,0.1,0.1,0.1c0,0.6-0.5,1.1-1.1,1.1c-0.6,0-1.1-0.5-1.1-1.1
				c0-0.1,0.1-0.1,0.1-0.1c0.1,0,0.1,0.1,0.1,0.1c0,0.5,0.4,0.8,0.8,0.8C64.7,19.7,65.1,19.3,65.1,18.8z"/>
		</g>
		<g>
			<path class="st1" d="M63.2,18.8c0-0.1,0.1-0.1,0.1-0.1s0.1,0.1,0.1,0.1c0,0.6-0.5,1.1-1.1,1.1c-0.6,0-1.1-0.5-1.1-1.1
				c0-0.1,0.1-0.1,0.1-0.1s0.1,0.1,0.1,0.1c0,0.5,0.4,0.8,0.8,0.8C62.8,19.7,63.2,19.3,63.2,18.8z"/>
		</g>
		<g>
			<path class="st1" d="M48.7,0.1v18.6h10.7c0.1,0,0.1,0.1,0.1,0.1c0,0.5,0.4,0.8,0.8,0.8c0.5,0,0.8-0.4,0.8-0.8
				c0-0.1,0.1-0.1,0.1-0.1c0.1,0,0.1,0.1,0.1,0.1c0,0.6-0.5,1.1-1.1,1.1c-0.6,0-1-0.4-1.1-1H48.6c-0.1,0-0.1-0.1-0.1-0.1V0.4
				L22.8,26c0,0-0.1,0-0.1,0H0.4c-0.1,0-0.1-0.1-0.1-0.1c0-0.1,0.1-0.1,0.1-0.1h22.3L48.5,0c0,0,0.1,0,0.1,0c0,0,0,0,0,0
				C48.7,0,48.7,0.1,48.7,0.1z"/>
		</g>
	</g>
</g>
<g>
	<g>
		<path class="st1" d="M109.5,31.9v0.2l-1.7-1.7c0,0,0-0.1,0-0.1c0,0,0.1,0,0.1,0L109.5,31.9z"/>
	</g>
	<g>
		<path class="st1" d="M107.9,32.1c0,0,0,0.1,0,0.1c0,0,0,0-0.1,0c0,0,0,0-0.1,0l-1.7-1.7c0,0,0-0.1,0-0.1c0,0,0.1,0,0.1,0
			L107.9,32.1z"/>
	</g>
	<g>
		<path class="st1" d="M109.5,31.3C109.5,31.3,109.4,31.3,109.5,31.3l-0.2,0.1c0,0-0.1,0-0.1-0.1c0,0,0-0.1,0.1-0.1L109.5,31.3
			C109.4,31.2,109.5,31.2,109.5,31.3z"/>
	</g>
	<g>
		<path class="st1" d="M108.7,30.7c-0.3,0-0.6,0.3-0.6,0.6c0,0.3,0.3,0.6,0.6,0.6s0.6-0.3,0.6-0.6C109.3,30.9,109,30.7,108.7,30.7z
			 M108.7,30.8c0.2,0,0.4,0.2,0.4,0.4c0,0.2-0.2,0.4-0.4,0.4c-0.2,0-0.4-0.2-0.4-0.4C108.3,31,108.5,30.8,108.7,30.8z"/>
	</g>
	<g>
		<path class="st1" d="M106.5,31.3C106.5,31.3,106.5,31.3,106.5,31.3l-13.4,0.1c0,0-0.1,0-0.1-0.1c0,0,0-0.1,0.1-0.1L106.5,31.3
			C106.5,31.2,106.5,31.2,106.5,31.3z"/>
	</g>
	<g>
		<path class="st1" d="M89.7,31.3C89.7,31.3,89.6,31.3,89.7,31.3l-0.8,0.1c0,0-0.1,0-0.1-0.1c0,0,0-0.1,0.1-0.1L89.7,31.3
			C89.6,31.2,89.7,31.2,89.7,31.3z"/>
		<path class="st1" d="M88.3,31.3C88.3,31.3,88.3,31.3,88.3,31.3l-0.8,0.1c0,0-0.1,0-0.1-0.1c0,0,0-0.1,0.1-0.1L88.3,31.3
			C88.3,31.2,88.3,31.2,88.3,31.3z"/>
		<path class="st1" d="M91.8,31.3C91.8,31.3,91.8,31.3,91.8,31.3l-0.2,0.1c0,0-0.1,0-0.1-0.1c0,0,0-0.1,0.1-0.1L91.8,31.3
			C91.8,31.2,91.8,31.2,91.8,31.3z"/>
		<path class="st1" d="M87,31.3C87,31.3,86.9,31.3,87,31.3l-0.8,0.1c0,0-0.1,0-0.1-0.1c0,0,0-0.1,0.1-0.1L87,31.3
			C86.9,31.2,87,31.2,87,31.3z"/>
		<path class="st1" d="M91,31.3C91,31.3,91,31.3,91,31.3l-0.8,0.1c0,0-0.1,0-0.1-0.1c0,0,0-0.1,0.1-0.1L91,31.3
			C91,31.2,91,31.2,91,31.3z"/>
		<path class="st1" d="M78.9,31.3C78.9,31.3,78.9,31.3,78.9,31.3l-0.8,0.1c0,0-0.1,0-0.1-0.1c0,0,0-0.1,0.1-0.1L78.9,31.3
			C78.9,31.2,78.9,31.2,78.9,31.3z"/>
		<path class="st1" d="M80.3,31.3C80.3,31.3,80.2,31.3,80.3,31.3l-0.8,0.1c0,0-0.1,0-0.1-0.1c0,0,0-0.1,0.1-0.1L80.3,31.3
			C80.2,31.2,80.3,31.2,80.3,31.3z"/>
		<path class="st1" d="M81.6,31.3C81.6,31.3,81.6,31.3,81.6,31.3l-0.8,0.1c0,0-0.1,0-0.1-0.1c0,0,0-0.1,0.1-0.1L81.6,31.3
			C81.6,31.2,81.6,31.2,81.6,31.3z"/>
		<path class="st1" d="M85.6,31.3C85.6,31.3,85.6,31.3,85.6,31.3l-0.8,0.1c0,0-0.1,0-0.1-0.1c0,0,0-0.1,0.1-0.1L85.6,31.3
			C85.6,31.2,85.6,31.2,85.6,31.3z"/>
		<path class="st1" d="M84.3,31.3C84.3,31.3,84.3,31.3,84.3,31.3l-0.8,0.1c0,0-0.1,0-0.1-0.1c0,0,0-0.1,0.1-0.1L84.3,31.3
			C84.3,31.2,84.3,31.2,84.3,31.3z"/>
		<path class="st1" d="M83,31.3C83,31.3,82.9,31.3,83,31.3l-0.8,0.1c0,0-0.1,0-0.1-0.1c0,0,0-0.1,0.1-0.1L83,31.3
			C82.9,31.2,83,31.2,83,31.3z"/>
	</g>
	<g>
		<path class="st1" d="M107,30.7c-0.3,0-0.6,0.3-0.6,0.6c0,0.3,0.3,0.6,0.6,0.6c0.3,0,0.6-0.3,0.6-0.6
			C107.6,30.9,107.3,30.7,107,30.7z M107,30.8c0.2,0,0.4,0.2,0.4,0.4c0,0.2-0.2,0.4-0.4,0.4c-0.2,0-0.4-0.2-0.4-0.4
			C106.5,31,106.7,30.8,107,30.8z"/>
	</g>
	<g>
		<circle class="st1" cx="78.3" cy="31.3" r="0.5"/>
	</g>
	<g>
		<g>
			<circle class="st1" cx="101.7" cy="31.3" r="0.3"/>
		</g>
		<g>
			<circle class="st1" cx="100.9" cy="31.3" r="0.3"/>
		</g>
		<g>
			<circle class="st1" cx="100.1" cy="31.3" r="0.3"/>
		</g>
		<g>
			<circle class="st1" cx="99.3" cy="31.3" r="0.3"/>
		</g>
	</g>
	<g>
		<path class="st1" d="M94.4,30.3l-1.2,0.9l1.2,0.9c0,0,0,0.1,0,0.1c0,0,0,0-0.1,0c0,0,0,0-0.1,0l-1.3-1c0,0,0,0,0-0.1
			c0,0,0-0.1,0-0.1l1.3-1c0,0,0.1,0,0.1,0C94.4,30.2,94.4,30.3,94.4,30.3z"/>
	</g>
	<g>
		<path class="st1" d="M93,30.3l-1.2,0.9l1.2,0.9c0,0,0,0.1,0,0.1c0,0,0,0-0.1,0c0,0,0,0-0.1,0l-1.3-1c0,0,0,0,0-0.1
			c0,0,0-0.1,0-0.1l1.3-1c0,0,0.1,0,0.1,0C93,30.2,93,30.3,93,30.3z"/>
	</g>
</g>
<g class="st0">
	<g>
		<path class="st1" d="M30.3,52.8c0,0.1,0,0.1-0.1,0.1H12.4c-0.1,0-0.1,0-0.1-0.1c0-0.1,0-0.1,0.1-0.1h17.7
			C30.2,52.7,30.3,52.7,30.3,52.8z"/>
	</g>
	<g>
		<path class="st1" d="M6.7,52.8c0,0.1,0,0.1-0.1,0.1H2.9c-0.1,0-0.1,0-0.1-0.1c0-0.1,0-0.1,0.1-0.1h3.7C6.6,52.7,6.7,52.7,6.7,52.8
			z"/>
	</g>
	<g>
		<path class="st1" d="M35.2,52.8c0,0.1,0,0.1-0.1,0.1h-3.7c-0.1,0-0.1,0-0.1-0.1c0-0.1,0-0.1,0.1-0.1h3.7
			C35.2,52.7,35.2,52.7,35.2,52.8z"/>
	</g>
	<g>
		<circle class="st1" cx="35.1" cy="52.8" r="0.4"/>
	</g>
	<g>
		<circle class="st1" cx="2.8" cy="52.8" r="0.4"/>
	</g>
	<g>
		<path class="st1" d="M33.1,51.6l-1.6,1.2l1.6,1.2c0,0,0.1,0.1,0,0.2c0,0-0.1,0-0.1,0c0,0,0,0-0.1,0l-1.7-1.3c0,0,0-0.1,0-0.1
			c0,0,0-0.1,0-0.1l1.7-1.3c0,0,0.1,0,0.2,0C33.1,51.5,33.1,51.5,33.1,51.6z"/>
	</g>
	<g>
		<g>
			<path class="st1" d="M31.9,51.6l-0.1,0.1c0,0,0,0-0.1,0c0,0-0.1,0-0.1,0c0,0,0-0.1,0-0.2l0.1-0.1c0,0,0.1,0,0.2,0
				C32,51.5,32,51.5,31.9,51.6z"/>
		</g>
		<g>
			<path class="st1" d="M31.5,51.9l-0.3,0.2c0,0,0,0-0.1,0c0,0-0.1,0-0.1,0c0,0,0-0.1,0-0.2l0.3-0.2c0,0,0.1,0,0.2,0
				C31.6,51.8,31.6,51.9,31.5,51.9z"/>
			<path class="st1" d="M31,52.3l-0.3,0.2c0,0,0,0-0.1,0c0,0-0.1,0-0.1,0c0,0,0-0.1,0-0.2l0.3-0.2c0,0,0.1,0,0.2,0
				C31,52.2,31,52.3,31,52.3z"/>
		</g>
		<g>
			<path class="st1" d="M30.4,52.8L30.4,52.8L30.4,52.8c0,0.1,0.1,0.1,0,0.2c0,0-0.1,0-0.1,0c0,0,0,0-0.1,0l-0.1-0.1
				c0,0,0-0.1,0-0.1c0,0,0-0.1,0-0.1l0.1-0.1c0,0,0.1,0,0.2,0C30.4,52.7,30.4,52.7,30.4,52.8z"/>
		</g>
		<g>
			<path class="st1" d="M31.5,53.7c0,0,0.1,0.1,0,0.2c0,0-0.1,0-0.1,0c0,0,0,0-0.1,0l-0.3-0.2c0,0-0.1-0.1,0-0.2c0,0,0.1-0.1,0.2,0
				L31.5,53.7z"/>
			<path class="st1" d="M31,53.2c0,0,0.1,0.1,0,0.2c0,0-0.1,0-0.1,0c0,0,0,0-0.1,0l-0.3-0.2c0,0-0.1-0.1,0-0.2c0,0,0.1-0.1,0.2,0
				L31,53.2z"/>
		</g>
		<g>
			<path class="st1" d="M31.9,54c0,0,0.1,0.1,0,0.2c0,0-0.1,0-0.1,0c0,0,0,0-0.1,0l-0.1-0.1c0,0-0.1-0.1,0-0.2c0,0,0.1-0.1,0.2,0
				L31.9,54z"/>
		</g>
	</g>
	<g>
		<path class="st1" d="M14,51.6l-1.6,1.2L14,54c0,0,0.1,0.1,0,0.2c0,0-0.1,0-0.1,0c0,0,0,0-0.1,0l-1.7-1.3c0,0,0-0.1,0-0.1
			c0,0,0-0.1,0-0.1l1.7-1.3c0,0,0.1,0,0.2,0C14,51.5,14,51.5,14,51.6z"/>
	</g>
	<g>
		<g>
			<path class="st1" d="M12.8,51.6l-0.1,0.1c0,0,0,0-0.1,0c0,0-0.1,0-0.1,0c0,0,0-0.1,0-0.2l0.1-0.1c0,0,0.1,0,0.2,0
				C12.9,51.5,12.9,51.5,12.8,51.6z"/>
		</g>
		<g>
			<path class="st1" d="M11.8,52.3l-0.3,0.2c0,0,0,0-0.1,0c0,0-0.1,0-0.1,0c0,0,0-0.1,0-0.2l0.3-0.2c0,0,0.1,0,0.2,0
				C11.9,52.2,11.9,52.3,11.8,52.3z"/>
			<path class="st1" d="M12.4,51.9l-0.3,0.2c0,0,0,0-0.1,0c0,0-0.1,0-0.1,0c0,0,0-0.1,0-0.2l0.3-0.2c0,0,0.1,0,0.2,0
				C12.5,51.8,12.5,51.9,12.4,51.9z"/>
		</g>
		<g>
			<path class="st1" d="M11.3,52.8L11.3,52.8L11.3,52.8c0,0.1,0.1,0.1,0,0.2c0,0-0.1,0-0.1,0c0,0,0,0-0.1,0L11,52.9c0,0,0-0.1,0-0.1
				c0,0,0-0.1,0-0.1l0.1-0.1c0,0,0.1,0,0.2,0C11.3,52.7,11.3,52.7,11.3,52.8z"/>
		</g>
		<g>
			<path class="st1" d="M12.4,53.7c0,0,0.1,0.1,0,0.2c0,0-0.1,0-0.1,0c0,0,0,0-0.1,0L12,53.6c0,0-0.1-0.1,0-0.2c0,0,0.1-0.1,0.2,0
				L12.4,53.7z"/>
			<path class="st1" d="M11.8,53.2c0,0,0.1,0.1,0,0.2c0,0-0.1,0-0.1,0c0,0,0,0-0.1,0l-0.3-0.2c0,0-0.1-0.1,0-0.2c0,0,0.1-0.1,0.2,0
				L11.8,53.2z"/>
		</g>
		<g>
			<path class="st1" d="M12.8,54c0,0,0.1,0.1,0,0.2c0,0-0.1,0-0.1,0c0,0,0,0-0.1,0l-0.1-0.1c0,0-0.1-0.1,0-0.2c0,0,0.1-0.1,0.2,0
				L12.8,54z"/>
		</g>
	</g>
	<g>
		<path class="st1" d="M9.5,51.6l-1.6,1.2L9.5,54c0,0,0.1,0.1,0,0.2c0,0-0.1,0-0.1,0c0,0,0,0-0.1,0l-1.7-1.3c0,0,0-0.1,0-0.1
			c0,0,0-0.1,0-0.1l1.7-1.3c0,0,0.1,0,0.2,0C9.6,51.5,9.5,51.5,9.5,51.6z"/>
	</g>
	<g>
		<g>
			<path class="st1" d="M8.4,51.6l-0.1,0.1c0,0,0,0-0.1,0c0,0-0.1,0-0.1,0c0,0,0-0.1,0-0.2l0.1-0.1c0,0,0.1,0,0.2,0
				C8.4,51.5,8.4,51.5,8.4,51.6z"/>
		</g>
		<g>
			<path class="st1" d="M7.4,52.3l-0.3,0.2c0,0,0,0-0.1,0c0,0-0.1,0-0.1,0c0,0,0-0.1,0-0.2l0.3-0.2c0,0,0.1,0,0.2,0
				C7.4,52.2,7.4,52.3,7.4,52.3z"/>
			<path class="st1" d="M7.9,51.9l-0.3,0.2c0,0,0,0-0.1,0c0,0-0.1,0-0.1,0c0,0,0-0.1,0-0.2l0.3-0.2c0,0,0.1,0,0.2,0
				C8,51.8,8,51.9,7.9,51.9z"/>
		</g>
		<g>
			<path class="st1" d="M6.8,52.8L6.8,52.8L6.8,52.8c0,0.1,0.1,0.1,0,0.2c0,0-0.1,0-0.1,0c0,0,0,0-0.1,0l-0.1-0.1c0,0,0-0.1,0-0.1
				c0,0,0-0.1,0-0.1l0.1-0.1c0,0,0.1,0,0.2,0C6.9,52.7,6.9,52.7,6.8,52.8z"/>
		</g>
		<g>
			<path class="st1" d="M7.9,53.7c0,0,0.1,0.1,0,0.2c0,0-0.1,0-0.1,0c0,0,0,0-0.1,0l-0.3-0.2c0,0-0.1-0.1,0-0.2c0,0,0.1-0.1,0.2,0
				L7.9,53.7z"/>
			<path class="st1" d="M7.4,53.2c0,0,0.1,0.1,0,0.2c0,0-0.1,0-0.1,0c0,0,0,0-0.1,0L7,53.2c0,0-0.1-0.1,0-0.2C7,53,7,53,7.1,53
				L7.4,53.2z"/>
		</g>
		<g>
			<path class="st1" d="M8.4,54c0,0,0.1,0.1,0,0.2c0,0-0.1,0-0.1,0c0,0,0,0-0.1,0l-0.1-0.1c0,0-0.1-0.1,0-0.2c0,0,0.1-0.1,0.2,0
				L8.4,54z"/>
		</g>
	</g>
</g>
<g class="st0">
	<g>
		<g>
			<path class="st1" d="M96.3,60.6c0,0.1-0.1,0.1-0.1,0.1H72.7c-0.1,0-0.1-0.1-0.1-0.1c0-0.1,0.1-0.1,0.1-0.1h23.5
				C96.3,60.4,96.3,60.5,96.3,60.6z"/>
		</g>
		<g>
			<path class="st1" d="M55.8,60.6c0,0.1-0.1,0.1-0.1,0.1h-4.8c-0.1,0-0.1-0.1-0.1-0.1c0-0.1,0.1-0.1,0.1-0.1h4.8
				C55.7,60.4,55.8,60.5,55.8,60.6z"/>
		</g>
		<g>
			<path class="st1" d="M102.9,60.6c0,0.1-0.1,0.1-0.1,0.1h-4.8c-0.1,0-0.1-0.1-0.1-0.1c0-0.1,0.1-0.1,0.1-0.1h4.8
				C102.8,60.4,102.9,60.5,102.9,60.6z"/>
		</g>
		<g>
			<circle class="st1" cx="102.8" cy="60.6" r="0.5"/>
		</g>
		<g>
			<circle class="st1" cx="50.7" cy="60.6" r="0.5"/>
		</g>
		<g>
			<path class="st1" d="M100.1,58.9L98,60.6l2.1,1.6c0.1,0,0.1,0.1,0,0.2c0,0-0.1,0.1-0.1,0.1c0,0-0.1,0-0.1,0l-2.2-1.7
				c0,0-0.1-0.1-0.1-0.1c0,0,0-0.1,0.1-0.1l2.2-1.7c0.1,0,0.2,0,0.2,0C100.1,58.8,100.1,58.9,100.1,58.9z"/>
		</g>
		<g>
			<g>
				<path class="st1" d="M98.6,58.9l-0.2,0.1c0,0-0.1,0-0.1,0c0,0-0.1,0-0.1-0.1c0-0.1,0-0.2,0-0.2l0.2-0.1c0.1,0,0.2,0,0.2,0
					C98.6,58.8,98.6,58.9,98.6,58.9z"/>
			</g>
			<g>
				<path class="st1" d="M97.3,60l-0.4,0.3c0,0-0.1,0-0.1,0c0,0-0.1,0-0.1-0.1c0-0.1,0-0.2,0-0.2l0.4-0.3c0.1,0,0.2,0,0.2,0
					C97.3,59.8,97.3,59.9,97.3,60z"/>
				<path class="st1" d="M98,59.4l-0.4,0.3c0,0-0.1,0-0.1,0c0,0-0.1,0-0.1-0.1c0-0.1,0-0.2,0-0.2l0.4-0.3c0.1,0,0.2,0,0.2,0
					C98.1,59.2,98.1,59.3,98,59.4z"/>
			</g>
			<g>
				<path class="st1" d="M96.5,60.5L96.5,60.5L96.5,60.5c0.1,0.1,0.1,0.2,0,0.3c0,0-0.1,0.1-0.1,0.1c0,0-0.1,0-0.1,0l-0.2-0.1
					c0,0-0.1-0.1-0.1-0.1c0,0,0-0.1,0.1-0.1l0.2-0.1c0.1,0,0.2,0,0.2,0C96.6,60.4,96.6,60.5,96.5,60.5z"/>
			</g>
			<g>
				<path class="st1" d="M98,61.7c0.1,0,0.1,0.1,0,0.2c0,0-0.1,0.1-0.1,0.1c0,0-0.1,0-0.1,0l-0.4-0.3c-0.1,0-0.1-0.1,0-0.2
					c0-0.1,0.1-0.1,0.2,0L98,61.7z"/>
				<path class="st1" d="M97.3,61.2c0.1,0,0.1,0.1,0,0.2c0,0-0.1,0.1-0.1,0.1c0,0-0.1,0-0.1,0l-0.4-0.3c-0.1,0-0.1-0.1,0-0.2
					c0-0.1,0.1-0.1,0.2,0L97.3,61.2z"/>
			</g>
			<g>
				<path class="st1" d="M98.6,62.2c0.1,0,0.1,0.1,0,0.2c0,0-0.1,0.1-0.1,0.1c0,0-0.1,0-0.1,0l-0.2-0.1c-0.1,0-0.1-0.1,0-0.2
					c0-0.1,0.1-0.1,0.2,0L98.6,62.2z"/>
			</g>
		</g>
		<g>
			<path class="st1" d="M74.8,58.9l-2.1,1.6l2.1,1.6c0.1,0,0.1,0.1,0,0.2c0,0-0.1,0.1-0.1,0.1c0,0-0.1,0-0.1,0l-2.2-1.7
				c0,0-0.1-0.1-0.1-0.1c0,0,0-0.1,0.1-0.1l2.2-1.7c0.1,0,0.2,0,0.2,0C74.8,58.8,74.8,58.9,74.8,58.9z"/>
		</g>
		<g>
			<g>
				<path class="st1" d="M73.3,58.9l-0.2,0.1c0,0-0.1,0-0.1,0c0,0-0.1,0-0.1-0.1c0-0.1,0-0.2,0-0.2l0.2-0.1c0.1,0,0.2,0,0.2,0
					C73.3,58.8,73.3,58.9,73.3,58.9z"/>
			</g>
			<g>
				<path class="st1" d="M72.7,59.4l-0.4,0.3c0,0-0.1,0-0.1,0c0,0-0.1,0-0.1-0.1c0-0.1,0-0.2,0-0.2l0.4-0.3c0.1,0,0.2,0,0.2,0
					C72.8,59.2,72.8,59.3,72.7,59.4z"/>
				<path class="st1" d="M72,60l-0.4,0.3c0,0-0.1,0-0.1,0c0,0-0.1,0-0.1-0.1c0-0.1,0-0.2,0-0.2l0.4-0.3c0.1,0,0.2,0,0.2,0
					C72,59.8,72,59.9,72,60z"/>
			</g>
			<g>
				<path class="st1" d="M71.2,60.5L71.2,60.5L71.2,60.5c0.1,0.1,0.1,0.2,0,0.3c0,0-0.1,0.1-0.1,0.1c0,0-0.1,0-0.1,0l-0.2-0.1
					c0,0-0.1-0.1-0.1-0.1c0,0,0-0.1,0.1-0.1l0.2-0.1c0.1,0,0.2,0,0.2,0C71.3,60.4,71.3,60.5,71.2,60.5z"/>
			</g>
			<g>
				<path class="st1" d="M72.7,61.7c0.1,0,0.1,0.1,0,0.2c0,0-0.1,0.1-0.1,0.1c0,0-0.1,0-0.1,0l-0.4-0.3c-0.1,0-0.1-0.1,0-0.2
					c0-0.1,0.1-0.1,0.2,0L72.7,61.7z"/>
				<path class="st1" d="M72,61.2c0.1,0,0.1,0.1,0,0.2c0,0-0.1,0.1-0.1,0.1c0,0-0.1,0-0.1,0l-0.4-0.3c-0.1,0-0.1-0.1,0-0.2
					c0-0.1,0.1-0.1,0.2,0L72,61.2z"/>
			</g>
			<g>
				<path class="st1" d="M73.3,62.2c0.1,0,0.1,0.1,0,0.2c0,0-0.1,0.1-0.1,0.1c0,0-0.1,0-0.1,0l-0.2-0.1c-0.1,0-0.1-0.1,0-0.2
					c0-0.1,0.1-0.1,0.2,0L73.3,62.2z"/>
			</g>
		</g>
		<g>
			<path class="st1" d="M59.5,58.9l-2.1,1.6l2.1,1.6c0.1,0,0.1,0.1,0,0.2c0,0-0.1,0.1-0.1,0.1c0,0-0.1,0-0.1,0l-2.2-1.7
				c0,0-0.1-0.1-0.1-0.1c0,0,0-0.1,0.1-0.1l2.2-1.7c0.1,0,0.2,0,0.2,0C59.6,58.8,59.6,58.9,59.5,58.9z"/>
		</g>
		<g>
			<g>
				<path class="st1" d="M58,58.9l-0.2,0.1c0,0-0.1,0-0.1,0c0,0-0.1,0-0.1-0.1c0-0.1,0-0.2,0-0.2l0.2-0.1c0.1,0,0.2,0,0.2,0
					C58.1,58.8,58.1,58.9,58,58.9z"/>
			</g>
			<g>
				<path class="st1" d="M57.5,59.4l-0.4,0.3c0,0-0.1,0-0.1,0c0,0-0.1,0-0.1-0.1c0-0.1,0-0.2,0-0.2l0.4-0.3c0.1,0,0.2,0,0.2,0
					C57.5,59.2,57.5,59.3,57.5,59.4z"/>
				<path class="st1" d="M56.7,60l-0.4,0.3c0,0-0.1,0-0.1,0c0,0-0.1,0-0.1-0.1c0-0.1,0-0.2,0-0.2l0.4-0.3c0.1,0,0.2,0,0.2,0
					C56.8,59.8,56.8,59.9,56.7,60z"/>
			</g>
			<g>
				<path class="st1" d="M56,60.5L56,60.5L56,60.5c0.1,0.1,0.1,0.2,0,0.3c0,0-0.1,0.1-0.1,0.1c0,0-0.1,0-0.1,0l-0.2-0.1
					c0,0-0.1-0.1-0.1-0.1c0,0,0-0.1,0.1-0.1l0.2-0.1c0.1,0,0.2,0,0.2,0C56,60.4,56,60.5,56,60.5z"/>
			</g>
			<g>
				<path class="st1" d="M57.5,61.7c0.1,0,0.1,0.1,0,0.2c0,0-0.1,0.1-0.1,0.1c0,0-0.1,0-0.1,0l-0.4-0.3c-0.1,0-0.1-0.1,0-0.2
					c0-0.1,0.1-0.1,0.2,0L57.5,61.7z"/>
				<path class="st1" d="M56.7,61.2c0.1,0,0.1,0.1,0,0.2c0,0-0.1,0.1-0.1,0.1c0,0-0.1,0-0.1,0l-0.4-0.3c-0.1,0-0.1-0.1,0-0.2
					c0-0.1,0.1-0.1,0.2,0L56.7,61.2z"/>
			</g>
			<g>
				<path class="st1" d="M58,62.2c0.1,0,0.1,0.1,0,0.2c0,0-0.1,0.1-0.1,0.1c0,0-0.1,0-0.1,0l-0.2-0.1c-0.1,0-0.1-0.1,0-0.2
					c0-0.1,0.1-0.1,0.2,0L58,62.2z"/>
			</g>
		</g>
	</g>
	<g>
		<circle class="st1" cx="66.9" cy="60.6" r="0.5"/>
		<circle class="st1" cx="65.6" cy="60.6" r="0.5"/>
		<circle class="st1" cx="64.2" cy="60.6" r="0.5"/>
		<circle class="st1" cx="62.9" cy="60.6" r="0.5"/>
	</g>
</g>
<g class="st0">
	<g>
		<path class="st1" d="M70.6,14.6l-1.7,1.3l1.7,1.3c0.1,0,0.1,0.1,0,0.2c0,0-0.1,0-0.1,0c0,0-0.1,0-0.1,0L68.7,16c0,0,0-0.1,0-0.1
			c0,0,0-0.1,0-0.1l1.8-1.4c0.1,0,0.1,0,0.2,0C70.7,14.5,70.7,14.6,70.6,14.6z"/>
	</g>
	<g>
		<g>
			<path class="st1" d="M69.4,14.6l-0.1,0.1c0,0,0,0-0.1,0c0,0-0.1,0-0.1,0c0-0.1,0-0.1,0-0.2l0.1-0.1c0.1,0,0.1,0,0.2,0
				C69.5,14.5,69.5,14.6,69.4,14.6z"/>
		</g>
		<g>
			<path class="st1" d="M69,15l-0.3,0.2c0,0,0,0-0.1,0c0,0-0.1,0-0.1,0c0-0.1,0-0.1,0-0.2l0.3-0.2c0.1,0,0.1,0,0.2,0
				C69,14.9,69,14.9,69,15z"/>
			<path class="st1" d="M68.4,15.4l-0.3,0.2c0,0,0,0-0.1,0c0,0-0.1,0-0.1,0c0-0.1,0-0.1,0-0.2l0.3-0.2c0.1,0,0.1,0,0.2,0
				C68.4,15.3,68.4,15.4,68.4,15.4z"/>
		</g>
		<g>
			<path class="st1" d="M67.8,15.9L67.8,15.9L67.8,15.9c0.1,0.1,0.1,0.2,0,0.2c0,0-0.1,0-0.1,0c0,0-0.1,0-0.1,0L67.5,16
				c0,0,0-0.1,0-0.1c0,0,0-0.1,0-0.1l0.1-0.1c0.1,0,0.1,0,0.2,0C67.8,15.8,67.8,15.9,67.8,15.9z"/>
		</g>
		<g>
			<path class="st1" d="M68.4,16.4c0.1,0,0.1,0.1,0,0.2c0,0-0.1,0-0.1,0c0,0-0.1,0-0.1,0l-0.3-0.2c-0.1,0-0.1-0.1,0-0.2
				c0-0.1,0.1-0.1,0.2,0L68.4,16.4z"/>
			<path class="st1" d="M69,16.9c0.1,0,0.1,0.1,0,0.2c0,0-0.1,0-0.1,0c0,0-0.1,0-0.1,0l-0.3-0.2c-0.1,0-0.1-0.1,0-0.2
				c0-0.1,0.1-0.1,0.2,0L69,16.9z"/>
		</g>
		<g>
			<path class="st1" d="M69.4,17.2c0.1,0,0.1,0.1,0,0.2c0,0-0.1,0-0.1,0c0,0-0.1,0-0.1,0l-0.1-0.1c-0.1,0-0.1-0.1,0-0.2
				c0-0.1,0.1-0.1,0.2,0L69.4,17.2z"/>
		</g>
	</g>
	<g>
		<circle class="st1" cx="104.8" cy="13.7" r="0.4"/>
	</g>
	<g>
		<circle class="st1" cx="104.8" cy="8.8" r="0.4"/>
	</g>
	<g>
		<circle class="st1" cx="75.5" cy="8.8" r="0.4"/>
	</g>
	<g>
		<circle class="st1" cx="75.5" cy="15.8" r="0.4"/>
	</g>
	<g>
		<circle class="st1" cx="61.8" cy="15.8" r="0.4"/>
	</g>
	<g>
		<g>
			<circle class="st1" cx="92.2" cy="8.8" r="0.4"/>
		</g>
		<g>
			<circle class="st1" cx="91.1" cy="8.8" r="0.4"/>
		</g>
		<g>
			<circle class="st1" cx="90" cy="8.8" r="0.4"/>
		</g>
		<g>
			<circle class="st1" cx="89" cy="8.8" r="0.4"/>
		</g>
	</g>
	<g>
		<path class="st1" d="M104.9,10.1v0.9c0,0.1-0.1,0.1-0.1,0.1s-0.1-0.1-0.1-0.1v-0.9c0-0.1,0.1-0.1,0.1-0.1S104.9,10.1,104.9,10.1z"
			/>
		<path class="st1" d="M104.9,12v0.9c0,0.1-0.1,0.1-0.1,0.1s-0.1-0.1-0.1-0.1V12c0-0.1,0.1-0.1,0.1-0.1S104.9,11.9,104.9,12z"/>
		<path class="st1" d="M107.9,13.6c0,0.1-0.1,0.1-0.1,0.1h-0.9c-0.1,0-0.1-0.1-0.1-0.1c0-0.1,0.1-0.1,0.1-0.1h0.9
			C107.9,13.5,107.9,13.6,107.9,13.6z"/>
		<path class="st1" d="M104.9,8.8v0.3c0,0.1-0.1,0.1-0.1,0.1s-0.1-0.1-0.1-0.1V9h-0.5c-0.1,0-0.1-0.1-0.1-0.1c0-0.1,0.1-0.1,0.1-0.1
			h0.6C104.8,8.7,104.9,8.8,104.9,8.8z"/>
		<path class="st1" d="M106.1,13.6c0,0.1-0.1,0.1-0.1,0.1H105c-0.1,0-0.1-0.1-0.1-0.1c0-0.1,0.1-0.1,0.1-0.1h0.9
			C106,13.5,106.1,13.6,106.1,13.6z"/>
		<path class="st1" d="M103.4,8.8c0,0.1-0.1,0.1-0.1,0.1h-0.9c-0.1,0-0.1-0.1-0.1-0.1c0-0.1,0.1-0.1,0.1-0.1h0.9
			C103.3,8.7,103.4,8.8,103.4,8.8z"/>
		<path class="st1" d="M97.8,8.8c0,0.1-0.1,0.1-0.1,0.1h-0.9c-0.1,0-0.1-0.1-0.1-0.1c0-0.1,0.1-0.1,0.1-0.1h0.9
			C97.7,8.7,97.8,8.8,97.8,8.8z"/>
		<path class="st1" d="M95.9,8.8c0,0.1-0.1,0.1-0.1,0.1h-0.9c-0.1,0-0.1-0.1-0.1-0.1c0-0.1,0.1-0.1,0.1-0.1h0.9
			C95.9,8.7,95.9,8.8,95.9,8.8z"/>
		<path class="st1" d="M99.7,8.8c0,0.1-0.1,0.1-0.1,0.1h-0.9c-0.1,0-0.1-0.1-0.1-0.1c0-0.1,0.1-0.1,0.1-0.1h0.9
			C99.6,8.7,99.7,8.8,99.7,8.8z"/>
		<path class="st1" d="M101.5,8.8c0,0.1-0.1,0.1-0.1,0.1h-0.9c-0.1,0-0.1-0.1-0.1-0.1c0-0.1,0.1-0.1,0.1-0.1h0.9
			C101.5,8.7,101.5,8.8,101.5,8.8z"/>
		<path class="st1" d="M94.1,8.8C94.1,8.9,94,9,93.9,9H93c-0.1,0-0.1-0.1-0.1-0.1c0-0.1,0.1-0.1,0.1-0.1h0.9
			C94,8.7,94.1,8.8,94.1,8.8z"/>
		<path class="st1" d="M108.7,13.7c-0.1,0-0.1-0.1-0.1-0.1c0-0.1,0.1-0.1,0.1-0.1h0.8v0.2H108.7z"/>
		<path class="st1" d="M75.5,10.8v0.9c0,0.1-0.1,0.1-0.1,0.1c-0.1,0-0.1-0.1-0.1-0.1v-0.9c0-0.1,0.1-0.1,0.1-0.1
			C75.5,10.7,75.5,10.8,75.5,10.8z"/>
		<path class="st1" d="M71.3,16c0,0.1-0.1,0.1-0.1,0.1h-0.9c-0.1,0-0.1-0.1-0.1-0.1c0-0.1,0.1-0.1,0.1-0.1h0.9
			C71.3,15.8,71.3,15.9,71.3,16z"/>
		<path class="st1" d="M75.5,12.7v0.9c0,0.1-0.1,0.1-0.1,0.1c-0.1,0-0.1-0.1-0.1-0.1v-0.9c0-0.1,0.1-0.1,0.1-0.1
			C75.5,12.6,75.5,12.6,75.5,12.7z"/>
		<path class="st1" d="M69.4,16c0,0.1-0.1,0.1-0.1,0.1h-0.9c-0.1,0-0.1-0.1-0.1-0.1c0-0.1,0.1-0.1,0.1-0.1h0.9
			C69.4,15.8,69.4,15.9,69.4,16z"/>
		<path class="st1" d="M75,16c0,0.1-0.1,0.1-0.1,0.1H74c-0.1,0-0.1-0.1-0.1-0.1c0-0.1,0.1-0.1,0.1-0.1h0.9C75,15.8,75,15.9,75,16z"
			/>
		<path class="st1" d="M75.5,9v0.9c0,0.1-0.1,0.1-0.1,0.1c-0.1,0-0.1-0.1-0.1-0.1V9c0-0.1,0.1-0.1,0.1-0.1C75.5,8.8,75.5,8.9,75.5,9
			z"/>
		<path class="st1" d="M73.2,16c0,0.1-0.1,0.1-0.1,0.1h-0.9C72.1,16.1,72,16,72,16c0-0.1,0.1-0.1,0.1-0.1h0.9
			C73.1,15.8,73.2,15.9,73.2,16z"/>
		<path class="st1" d="M62,16c0,0.1-0.1,0.1-0.1,0.1h-0.2c-0.1,0-0.1-0.1-0.1-0.1c0-0.1,0.1-0.1,0.1-0.1h0.2
			C61.9,15.8,62,15.9,62,16z"/>
		<path class="st1" d="M63.8,16c0,0.1-0.1,0.1-0.1,0.1h-0.9c-0.1,0-0.1-0.1-0.1-0.1c0-0.1,0.1-0.1,0.1-0.1h0.9
			C63.8,15.8,63.8,15.9,63.8,16z"/>
		<path class="st1" d="M65.7,16c0,0.1-0.1,0.1-0.1,0.1h-0.9c-0.1,0-0.1-0.1-0.1-0.1c0-0.1,0.1-0.1,0.1-0.1h0.9
			C65.7,15.8,65.7,15.9,65.7,16z"/>
		<path class="st1" d="M67.6,16c0,0.1-0.1,0.1-0.1,0.1h-0.9c-0.1,0-0.1-0.1-0.1-0.1c0-0.1,0.1-0.1,0.1-0.1h0.9
			C67.5,15.8,67.6,15.9,67.6,16z"/>
		<path class="st1" d="M79.1,8.8C79.1,8.9,79.1,9,79,9h-0.9C78,9,78,8.9,78,8.8c0-0.1,0.1-0.1,0.1-0.1H79
			C79.1,8.7,79.1,8.8,79.1,8.8z"/>
		<path class="st1" d="M88.5,8.8c0,0.1-0.1,0.1-0.1,0.1h-0.9c-0.1,0-0.1-0.1-0.1-0.1c0-0.1,0.1-0.1,0.1-0.1h0.9
			C88.4,8.7,88.5,8.8,88.5,8.8z"/>
		<path class="st1" d="M84.7,8.8c0,0.1-0.1,0.1-0.1,0.1h-0.9c-0.1,0-0.1-0.1-0.1-0.1c0-0.1,0.1-0.1,0.1-0.1h0.9
			C84.7,8.7,84.7,8.8,84.7,8.8z"/>
		<path class="st1" d="M86.6,8.8c0,0.1-0.1,0.1-0.1,0.1h-0.9c-0.1,0-0.1-0.1-0.1-0.1c0-0.1,0.1-0.1,0.1-0.1h0.9
			C86.5,8.7,86.6,8.8,86.6,8.8z"/>
		<path class="st1" d="M90.3,8.8c0,0.1-0.1,0.1-0.1,0.1h-0.9c-0.1,0-0.1-0.1-0.1-0.1c0-0.1,0.1-0.1,0.1-0.1h0.9
			C90.3,8.7,90.3,8.8,90.3,8.8z"/>
		<path class="st1" d="M77.3,8.8c0,0.1-0.1,0.1-0.1,0.1h-0.9c-0.1,0-0.1-0.1-0.1-0.1c0-0.1,0.1-0.1,0.1-0.1h0.9
			C77.2,8.7,77.3,8.8,77.3,8.8z"/>
		<path class="st1" d="M75.5,14.6v0.9c0,0.1-0.1,0.1-0.1,0.1c-0.1,0-0.1-0.1-0.1-0.1v-0.9c0-0.1,0.1-0.1,0.1-0.1
			C75.5,14.4,75.5,14.5,75.5,14.6z"/>
		<path class="st1" d="M82.9,8.8c0,0.1-0.1,0.1-0.1,0.1h-0.9c-0.1,0-0.1-0.1-0.1-0.1c0-0.1,0.1-0.1,0.1-0.1h0.9
			C82.8,8.7,82.9,8.8,82.9,8.8z"/>
		<path class="st1" d="M92.2,8.8c0,0.1-0.1,0.1-0.1,0.1h-0.9C91.1,9,91,8.9,91,8.8c0-0.1,0.1-0.1,0.1-0.1h0.9
			C92.1,8.7,92.2,8.8,92.2,8.8z"/>
		<path class="st1" d="M81,8.8C81,8.9,80.9,9,80.9,9h-0.9c-0.1,0-0.1-0.1-0.1-0.1c0-0.1,0.1-0.1,0.1-0.1h0.9C80.9,8.7,81,8.8,81,8.8
			z"/>
	</g>
</g>
<g class="st2">
	<g>
		<path class="st1" d="M73.8,55.3l-1.7,1.3l1.7,1.3c0.1,0,0.1,0.1,0,0.2c0,0-0.1,0-0.1,0c0,0-0.1,0-0.1,0l-1.8-1.4c0,0,0-0.1,0-0.1
			c0,0,0-0.1,0-0.1l1.8-1.4c0.1,0,0.1,0,0.2,0C73.9,55.2,73.9,55.3,73.8,55.3z"/>
	</g>
	<g>
		<g>
			<path class="st1" d="M72.6,55.3l-0.2,0.1c0,0,0,0-0.1,0c0,0-0.1,0-0.1,0c0-0.1,0-0.1,0-0.2l0.2-0.1c0.1,0,0.1,0,0.2,0
				C72.6,55.2,72.6,55.3,72.6,55.3z"/>
		</g>
		<g>
			<path class="st1" d="M72.1,55.7l-0.3,0.2c0,0,0,0-0.1,0c0,0-0.1,0-0.1,0c0-0.1,0-0.1,0-0.2l0.3-0.2c0.1,0,0.1,0,0.2,0
				C72.2,55.5,72.2,55.6,72.1,55.7z"/>
			<path class="st1" d="M71.5,56.1l-0.3,0.2c0,0,0,0-0.1,0c0,0-0.1,0-0.1,0c0-0.1,0-0.1,0-0.2l0.3-0.2c0.1,0,0.1,0,0.2,0
				C71.6,56,71.6,56.1,71.5,56.1z"/>
		</g>
		<g>
			<path class="st1" d="M70.9,56.6L70.9,56.6L70.9,56.6c0.1,0.1,0.1,0.2,0,0.2c0,0-0.1,0-0.1,0c0,0-0.1,0-0.1,0l-0.2-0.1
				c0,0,0-0.1,0-0.1c0,0,0-0.1,0-0.1l0.2-0.1c0.1,0,0.1,0,0.2,0C71,56.5,71,56.6,70.9,56.6z"/>
		</g>
		<g>
			<path class="st1" d="M72.1,57.6c0.1,0,0.1,0.1,0,0.2c0,0-0.1,0-0.1,0c0,0-0.1,0-0.1,0l-0.3-0.2c-0.1,0-0.1-0.1,0-0.2
				c0-0.1,0.1-0.1,0.2,0L72.1,57.6z"/>
			<path class="st1" d="M71.5,57.1c0.1,0,0.1,0.1,0,0.2c0,0-0.1,0-0.1,0c0,0-0.1,0-0.1,0l-0.3-0.2C71,57,71,57,71,56.9
				c0-0.1,0.1-0.1,0.2,0L71.5,57.1z"/>
		</g>
		<g>
			<path class="st1" d="M72.6,57.9c0.1,0,0.1,0.1,0,0.2c0,0-0.1,0-0.1,0c0,0-0.1,0-0.1,0L72.3,58c-0.1,0-0.1-0.1,0-0.2
				c0-0.1,0.1-0.1,0.2,0L72.6,57.9z"/>
		</g>
	</g>
	<g>
		
			<ellipse transform="matrix(1 -2.240472e-03 2.240472e-03 1 -0.1212 0.2437)" class="st1" cx="108.7" cy="54.2" rx="0.4" ry="0.4"/>
	</g>
	<g>
		
			<ellipse transform="matrix(1 -2.116002e-03 2.116002e-03 1 -0.1041 0.2301)" class="st1" cx="108.7" cy="49.3" rx="0.4" ry="0.4"/>
	</g>
	<g>
		
			<ellipse transform="matrix(1 -1.991532e-03 1.991532e-03 1 -9.817588e-02 0.157)" class="st1" cx="78.8" cy="49.4" rx="0.4" ry="0.4"/>
	</g>
	<g>
		<ellipse transform="matrix(1 -2.240472e-03 2.240472e-03 1 -0.1264 0.1767)" class="st1" cx="78.8" cy="56.5" rx="0.4" ry="0.4"/>
	</g>
	<g>
		<ellipse transform="matrix(1 -1.991532e-03 1.991532e-03 1 -0.1125 0.1291)" class="st1" cx="64.8" cy="56.6" rx="0.4" ry="0.4"/>
	</g>
	<g>
		<g>
			
				<ellipse transform="matrix(1 -2.177156e-03 2.177156e-03 1 -0.1072 0.2088)" class="st1" cx="95.9" cy="49.3" rx="0.4" ry="0.4"/>
		</g>
		<g>
			
				<ellipse transform="matrix(1 -2.062087e-03 2.062087e-03 1 -0.1016 0.1955)" class="st1" cx="94.7" cy="49.3" rx="0.4" ry="0.4"/>
		</g>
		<g>
			
				<ellipse transform="matrix(1 -2.062324e-03 2.062324e-03 1 -0.1016 0.1932)" class="st1" cx="93.6" cy="49.3" rx="0.4" ry="0.4"/>
		</g>
		<g>
			
				<ellipse transform="matrix(1 -2.062087e-03 2.062087e-03 1 -0.1016 0.1909)" class="st1" cx="92.5" cy="49.4" rx="0.4" ry="0.4"/>
		</g>
	</g>
	<g>
		<path class="st1" d="M108.8,49.3l0,4.8l0.7,0v0.2l-0.8,0h0c0,0-0.1,0-0.1,0c0,0,0-0.1,0-0.1l0-4.8l-29.8,0.1l0,7.1
			c0,0.1-0.1,0.1-0.1,0.1l-14,0h0c-0.1,0-0.1-0.1-0.1-0.1c0-0.1,0.1-0.1,0.1-0.1l13.9,0l0-7.1c0-0.1,0.1-0.1,0.1-0.1l30-0.1h0
			C108.7,49.2,108.7,49.2,108.8,49.3C108.8,49.3,108.8,49.3,108.8,49.3z"/>
	</g>
</g>
<path class="st1" d="M62.2,66.1l-0.2,0l0-0.1l0,0L62,65.9l-0.1,0l0,0.1l0,0l0,0.1l-0.2,0.1l0-0.1l0,0L61.6,66L61.5,66l0,0.1l0,0
	l0,0.1l-0.1,0.1l-0.1-0.1l0,0l-0.1-0.1l-0.1,0.1l0.1,0.1l0,0l0.1,0.1l-0.1,0.1l-0.1-0.1l0,0l-0.1,0l-0.1,0.1l0.1,0.1l0,0l0.1,0
	L61,66.9l-0.1,0l0,0l-0.1,0l0,0.1l0.1,0.1l0,0l0.1,0l0,0.2l-0.1,0l0,0l-0.1,0l0,0.1l0.1,0l0,0l0.1,0l0,0.2l-0.1,0l0,0l-0.1,0l0,0.1
	l0.1,0l0,0l0.1,0l0,0.2l-0.1,0l0,0l-0.1,0.1l0,0.1l0.1,0l0,0l0.1,0l0.1,0.1l-0.1,0.1l0,0L61,68.3l0.1,0.1l0.1,0l0,0l0.1-0.1l0.1,0.1
	l-0.1,0.1l0,0l0,0.1l0.1,0.1l0.1-0.1l0,0l0.1-0.1l0.1,0.1l0,0.1l0,0l0,0.1l0.1,0l0.1-0.1l0,0l0-0.1l0.2,0l0,0.1l0,0l0,0.1l0.1,0
	l0.1-0.1l0,0l0-0.1l0.2,0l0,0.1l0,0l0,0.1l0.1,0l0-0.1l0,0l0-0.1l0.2,0l0,0.1l0,0l0.1,0.1l0.1,0l0-0.1l0,0l0-0.1l0.1-0.1l0,0.1l0,0
	l0.1,0.1l0.1-0.1l0-0.1l0,0L63,68.4l0.1-0.1l0.1,0.1l0,0l0.1,0.1l0.1-0.1l-0.1-0.1l0,0l-0.1-0.1l0.1-0.1l0.1,0l0,0l0.1,0l0.1-0.1
	L63.5,68l0,0l-0.1,0l0.1-0.2l0.1,0l0,0l0.1,0l0-0.1l-0.1-0.1l0,0l-0.1,0l0-0.2l0.1,0l0,0l0.1,0l0-0.1l-0.1,0l0,0l-0.1,0l0-0.2l0.1,0
	l0,0l0.1-0.1l0-0.1l-0.1,0l0,0l-0.1,0l-0.1-0.1l0.1,0l0,0l0.1-0.1l-0.1-0.1l-0.1,0l0,0l-0.1,0.1l-0.1-0.1l0.1-0.1l0,0l0.1-0.1
	l-0.1-0.1l-0.1,0.1l0,0l-0.1,0.1L63,66.3l0.1-0.1l0,0l0-0.1L63,66l-0.1,0.1l0,0l0,0.1l-0.1-0.1l0-0.1l0,0l0-0.1l-0.1,0L62.6,66l0,0
	l0,0.1l-0.2,0l0-0.1l0,0l0-0.1l-0.1,0l0,0.1L62.2,66.1L62.2,66.1z M62.1,67.6c0.1,0.1,0.2,0.1,0.3,0c0.1-0.1,0.1-0.2,0.1-0.3
	l0.7-0.4c0.1,0.2,0.1,0.5,0.1,0.8c-0.1,0.3-0.3,0.5-0.5,0.6c-0.2,0.1-0.5,0.2-0.8,0.1c-0.3-0.1-0.5-0.2-0.7-0.4L62.1,67.6z
	 M62.3,67.4C62.3,67.4,62.3,67.4,62.3,67.4c0,0.1-0.1,0.1-0.1,0.1C62.2,67.4,62.2,67.4,62.3,67.4C62.2,67.3,62.3,67.3,62.3,67.4z
	 M62.5,66.3c0.3,0.1,0.5,0.2,0.7,0.4l-0.7,0.4c-0.1-0.1-0.2-0.1-0.3,0C62,67.2,62,67.3,62,67.4l-0.7,0.4c-0.1-0.2-0.1-0.5-0.1-0.8
	c0.1-0.3,0.3-0.5,0.5-0.6C61.9,66.3,62.2,66.2,62.5,66.3z"/>
<path class="st1" d="M109.4,23.3L109.4,23.3l0.1,1.1c0,0.1,0,0.3,0,0.5c0,0.1,0,0.2,0,0.2v1.2l0,0l0,0l-0.2,0.1l-0.1-0.2l0.1-0.2
	l0,0l0.1-0.1l-0.1-0.2l-0.1,0.1l0,0l-0.2,0l-0.1-0.2l0.2-0.1l0,0l0.1,0l-0.1-0.3l-0.2,0l0,0l-0.2,0l0-0.2l0.2-0.1l0,0l0.2,0l0-0.3
	l-0.2,0l0,0l-0.2-0.1l0-0.2l0.2,0l0,0l0.2,0l0.1-0.3l-0.1,0l0,0l-0.2-0.1l0.1-0.2l0.2,0l0,0l0.1,0.1l0.1-0.2l-0.1-0.1l0,0l-0.1-0.2
	l0.1-0.2L109.4,23.3L109.4,23.3z"/>
</svg>
