<?xml version="1.0" encoding="utf-8"?>
<!-- Generator: Adobe Illustrator 21.0.2, SVG Export Plug-In . SVG Version: 6.00 Build 0)  -->
<svg version="1.1" id="Layer_1" xmlns="http://www.w3.org/2000/svg" xmlns:xlink="http://www.w3.org/1999/xlink" x="0px" y="0px"
	 viewBox="0 0 109.5 27.5" style="enable-background:new 0 0 109.5 27.5;" xml:space="preserve">
<style type="text/css">
	.st0{fill:#4071B7;}
</style>
<g>
	<g>
		<path class="st0" d="M2.2,0C2.1,0,2.1,0,2,0L0,1.4l0,0.1l0,0.1L1.9,3H2h0.1c0.1-0.1,0.1-0.2,0-0.2L0.4,1.5l1.7-1.3
			C2.2,0.2,2.2,0.1,2.2,0z"/>
	</g>
	<g>
		<path class="st0" d="M109.6,3.3V3.1h-11c0,0-0.1,0-0.1,0.1c0,0,0,0.1,0.1,0.1C98.6,3.3,109.6,3.3,109.6,3.3z"/>
	</g>
	<g>
		<path class="st0" d="M97.9,2.4c-0.4,0-0.8,0.3-0.8,0.8c0,0.4,0.3,0.8,0.8,0.8c0.4,0,0.8-0.3,0.8-0.8S98.4,2.4,97.9,2.4z M97.9,2.6
			c0.3,0,0.6,0.3,0.6,0.6s-0.3,0.6-0.6,0.6c-0.3,0-0.6-0.3-0.6-0.6S97.6,2.6,97.9,2.6z"/>
	</g>
	<g>
		<path class="st0" d="M76.6,7.9c-0.4,0-0.8,0.3-0.8,0.8c0,0.4,0.3,0.8,0.8,0.8c0.4,0,0.8-0.3,0.8-0.8S77,7.8,76.6,7.9z M76.5,8.1
			c0.3,0,0.6,0.3,0.6,0.6s-0.3,0.6-0.6,0.6c-0.3,0-0.6-0.3-0.6-0.6S76.2,8.1,76.5,8.1z"/>
	</g>
	<g>
		<path class="st0" d="M22.9,0.8c-0.4,0-0.8,0.3-0.8,0.8c0,0.4,0.3,0.8,0.8,0.8c0.4,0,0.8-0.3,0.8-0.8S23.3,0.8,22.9,0.8z M22.8,1
			c0.3,0,0.6,0.3,0.6,0.6s-0.3,0.6-0.6,0.6c-0.3,0-0.6-0.3-0.6-0.6S22.5,1,22.8,1z"/>
	</g>
	<g>
		<g>
			<circle class="st0" cx="14.6" cy="1.6" r="0.4"/>
		</g>
		<g>
			<circle class="st0" cx="13.5" cy="1.6" r="0.4"/>
		</g>
		<g>
			<circle class="st0" cx="12.4" cy="1.6" r="0.4"/>
		</g>
		<g>
			<circle class="st0" cx="11.3" cy="1.6" r="0.4"/>
		</g>
	</g>
	<g>
		<path class="st0" d="M95.4,2.4c-0.4,0-0.8,0.3-0.8,0.8c0,0.4,0.3,0.8,0.8,0.8c0.4,0,0.8-0.3,0.8-0.8S95.8,2.4,95.4,2.4z M95.4,2.6
			c0.3,0,0.6,0.3,0.6,0.6s-0.3,0.6-0.6,0.6c-0.3,0-0.6-0.3-0.6-0.6S95,2.6,95.4,2.6z"/>
	</g>
	<g>
		<circle class="st0" cx="48.8" cy="8.7" r="0.4"/>
	</g>
	<g>
		<circle class="st0" cx="76.6" cy="3.2" r="0.4"/>
	</g>
	<g>
		<g>
			<path class="st0" d="M94.7,3.1h-18c0,0-0.1,0-0.1,0.1v5.3h-9.1c-0.1-0.6-0.5-1-1.1-1S65.3,8,65.3,8.6c0,0,0,0.1,0.1,0.1
				c0,0,0.1,0,0.1-0.1c0-0.4,0.3-0.8,0.8-0.8c0.4,0,0.8,0.3,0.8,0.8c0,0,0,0.1,0.1,0.1h9.3c0,0,0.1,0,0.1-0.1V3.3h18.1
				C94.7,3.3,94.8,3.3,94.7,3.1C94.8,3.1,94.8,3.1,94.7,3.1z"/>
		</g>
		<g>
			<path class="st0" d="M64.5,7.6c-0.6,0-1.1,0.5-1.1,1.1c0,0,0,0.1,0.1,0.1c0,0,0.1,0,0.1-0.1c0-0.4,0.3-0.8,0.8-0.8
				c0.4,0,0.8,0.3,0.8,0.8c0,0,0,0.1,0.1,0.1c0,0,0.1,0,0.1-0.1C65.4,8.1,64.9,7.6,64.5,7.6z"/>
		</g>
		<g>
			<path class="st0" d="M62.6,7.6c-0.6,0-1.1,0.5-1.1,1.1c0,0,0,0.1,0.1,0.1c0,0,0.1,0,0.1-0.1c0-0.4,0.3-0.8,0.8-0.8
				c0.4,0,0.8,0.3,0.8,0.8l0.1,0.1c0,0,0.1,0,0.1-0.1C63.5,8.1,63,7.6,62.6,7.6z"/>
		</g>
		<g>
			<path class="st0" d="M22.9,1.5L22.9,1.5H0.5c0,0-0.1,0-0.1,0.1c0,0,0,0.1,0.1,0.1h22.3l26,25.8h0.1l0,0c0.1,0,0.1-0.1,0.1-0.1
				V8.8h10.7c0,0,0.1,0,0.1-0.1c0-0.4,0.3-0.8,0.8-0.8c0.4,0,0.8,0.3,0.8,0.8c0,0,0,0.1,0.1,0.1c0,0,0.1,0,0.1-0.1
				c0-0.6-0.5-1.1-1.1-1.1s-1,0.5-1.1,1H48.6c0,0-0.1,0-0.1,0.1v18.4L22.9,1.5z"/>
		</g>
	</g>
</g>
</svg>
