<?xml version="1.0" encoding="utf-8"?>
<!-- Generator: Adobe Illustrator 21.0.2, SVG Export Plug-In . SVG Version: 6.00 Build 0)  -->
<svg version="1.1" id="Layer_1" xmlns="http://www.w3.org/2000/svg" xmlns:xlink="http://www.w3.org/1999/xlink" x="0px" y="0px"
	 viewBox="0 0 71.3 9.3" style="enable-background:new 0 0 71.3 9.3;" xml:space="preserve">
<style type="text/css">
	.st0{fill:#4071B7;}
</style>
<g>
	<g>
		<g>
			<path class="st0" d="M45.2,0c-0.9,0-1.7,0.8-1.7,1.7c0,0,0,0.1,0.1,0.1h3.2c0,0,0.1,0,0.1-0.1C46.9,0.8,46.1,0,45.2,0z M45.1,0.2
				c0.8,0,1.4,0.6,1.5,1.4h-2.9C43.8,0.8,44.4,0.2,45.1,0.2z"/>
		</g>
		<g>
			<path class="st0" d="M46.3,1.5c0,0-0.1,0-0.1,0.1v1c0,0,0,0.1,0.1,0.1h19.2c0,0,0.1,0,0.1-0.1c0,0,0-0.1-0.1-0.1H46.4V1.7
				C46.4,1.7,46.4,1.6,46.3,1.5z"/>
		</g>
		<g>
			<path class="st0" d="M65.6,2c-0.1,0-0.1,0-0.1,0.1v1.2c0,0,0,0.1,0.1,0.1c0,0,0.1,0,0.1-0.1L65.6,2C65.7,2,65.7,2,65.6,2z"/>
		</g>
		<g>
			<path class="st0" d="M66.1,1.4c0,0-0.1,0-0.1,0.1V4l0.1,0.1c0.1,0,0.2-0.1,0.2-0.1V1.5C66.3,1.4,66.2,1.3,66.1,1.4z"/>
		</g>
		<g>
			<path class="st0" d="M69.6,2.6h-3.4c0,0-0.1,0-0.1,0.1c0,0,0,0.1,0.1,0.1h3.5c0,0,0.1,0,0.1-0.1C69.8,2.6,69.7,2.6,69.6,2.6z"/>
		</g>
		<g>
			<g>
				<path class="st0" d="M68.3,1.3h-1.2c0,0-0.1,0-0.1,0.1c0,0,0,0.1,0.1,0.1h1.2C68.3,1.5,68.4,1.4,68.3,1.3
					C68.4,1.3,68.3,1.2,68.3,1.3z"/>
			</g>
			<g>
				<path class="st0" d="M67.7,0.6c0,0-0.1,0-0.1,0.1v1.2c0,0,0,0.1,0.1,0.1c0,0,0.1,0,0.1-0.1V0.7C67.8,0.7,67.7,0.6,67.7,0.6z"/>
			</g>
		</g>
		<g>
			<g>
				<circle class="st0" cx="59.4" cy="2.7" r="0.4"/>
			</g>
			<g>
				<circle class="st0" cx="58.3" cy="2.7" r="0.4"/>
			</g>
			<g>
				<circle class="st0" cx="57.2" cy="2.7" r="0.4"/>
			</g>
			<g>
				<circle class="st0" cx="56.2" cy="2.7" r="0.4"/>
			</g>
		</g>
		<g>
			<path class="st0" d="M44,1.6c0,0-0.1,0-0.1,0.1v0.9H26.5c0,0-0.1,0-0.1,0.1v5H0.3c0,0-0.1,0-0.1,0.1c0,0,0,0.1,0.1,0.1h26.2
				c0,0,0.1,0,0.1-0.1v-5H44c0,0,0.1,0,0.1-0.1v-1C44.1,1.7,44.1,1.6,44,1.6z"/>
		</g>
		<g>
			<path class="st0" d="M1.9,6.3c-0.1,0-0.1,0-0.2,0L0,7.7l0,0.1l0,0.1l1.7,1.4c0.1,0,0.1,0,0.1,0h0.1c0.1-0.1,0-0.2,0-0.2L0.3,7.8
				l1.6-1.3C2,6.5,2,6.4,1.9,6.3z"/>
		</g>
		<g>
			<circle class="st0" cx="26.5" cy="2.8" r="0.4"/>
		</g>
		<g>
			<circle class="st0" cx="69.7" cy="2.7" r="0.4"/>
		</g>
		<g>
			<path class="st0" d="M26.5,7c-0.4,0-0.8,0.4-0.8,0.8c0,0.4,0.4,0.8,0.8,0.8c0.4,0,0.8-0.4,0.8-0.8C27.3,7.4,26.9,7,26.5,7z
				 M26.5,7.2c0.3,0,0.6,0.3,0.6,0.6c0,0.3-0.3,0.6-0.6,0.6s-0.6-0.3-0.6-0.6S26.2,7.3,26.5,7.2z"/>
		</g>
		<g>
			<g>
				<circle class="st0" cx="16.8" cy="7.8" r="0.4"/>
			</g>
			<g>
				<circle class="st0" cx="15.7" cy="7.8" r="0.4"/>
			</g>
			<g>
				<circle class="st0" cx="14.7" cy="7.8" r="0.4"/>
			</g>
			<g>
				<circle class="st0" cx="13.6" cy="7.8" r="0.4"/>
			</g>
		</g>
	</g>
	<polygon class="st0" points="71.3,3.1 71.3,2.4 67.8,2.4 68.5,3.1 	"/>
</g>
</svg>
