<?xml version="1.0" encoding="utf-8"?>
<!-- Generator: Adobe Illustrator 21.0.2, SVG Export Plug-In . SVG Version: 6.00 Build 0)  -->
<svg version="1.1" id="Layer_1" xmlns="http://www.w3.org/2000/svg" xmlns:xlink="http://www.w3.org/1999/xlink" x="0px" y="0px"
	 viewBox="0 0 86.7 10.8" style="enable-background:new 0 0 86.7 10.8;" xml:space="preserve">
<style type="text/css">
	.st0{opacity:0.25;}
	.st1{fill:#4071B7;}
</style>
<g>
	<g class="st0">
		<g>
			<path class="st1" d="M51.1,6.2c-0.1,0-0.1,0-0.2,0l-1.8,1.4v0.1v0.1l1.8,1.4H51h0.1c0.1-0.1,0.1-0.2,0-0.2l-1.7-1.3l1.7-1.3
				C51.1,6.3,51.1,6.3,51.1,6.2z"/>
		</g>
		<g>
			<g>
				<path class="st1" d="M49.9,6.2c-0.1,0-0.1,0-0.2,0l-0.2,0.1c0,0.1,0,0.1,0,0.2h0.1c0.1,0,0.1,0,0.1,0l0.2-0.1
					C49.9,6.3,49.9,6.3,49.9,6.2z"/>
			</g>
			<g>
				<path class="st1" d="M49.4,6.6c-0.1,0-0.1,0-0.2,0l-0.3,0.2c0,0.1,0,0.1,0,0.2H49c0.1,0,0.1,0,0.1,0L49.4,6.6
					C49.5,6.7,49.5,6.6,49.4,6.6z"/>
				<path class="st1" d="M48.8,7c0,0-0.1,0-0.2,0l-0.3,0.2c0,0.1,0,0.1,0,0.2h0.1c0.1,0,0.1,0,0.1,0l0.3-0.2
					C48.8,7.2,48.9,7.1,48.8,7z"/>
			</g>
			<g>
				<path class="st1" d="M48.2,7.5c-0.1,0-0.1,0-0.2,0l-0.2,0.1v0.1v0.1L48,7.9h0.1h0.1c0.1,0,0.1-0.1,0-0.2l0,0l0,0
					C48.2,7.7,48.2,7.6,48.2,7.5z"/>
			</g>
			<g>
				<path class="st1" d="M49.1,8.5c-0.1-0.1-0.2-0.1-0.2,0c-0.1,0.1-0.1,0.2,0,0.2l0.3,0.2h0.1h0.1c0.1-0.1,0.1-0.2,0-0.2L49.1,8.5z
					"/>
				<path class="st1" d="M48.5,8c-0.1-0.1-0.2-0.1-0.2,0c-0.1,0.1-0.1,0.2,0,0.2l0.3,0.2h0.1h0.1c0.1-0.1,0.1-0.2,0-0.2L48.5,8z"/>
			</g>
			<g>
				<path class="st1" d="M49.7,8.9c-0.1-0.1-0.2-0.1-0.2,0c-0.1,0.1-0.1,0.2,0,0.2l0.2,0.1h0.1h0.1C50,9.1,50,9,49.9,9L49.7,8.9z"/>
			</g>
		</g>
		<g>
			
				<ellipse transform="matrix(1 -2.240466e-03 2.240466e-03 1 -1.172436e-02 0.1928)" class="st1" cx="86" cy="5.3" rx="0.4" ry="0.4"/>
		</g>
		<g>
			
				<ellipse transform="matrix(1 -2.115997e-03 2.115997e-03 1 -6.861436e-04 0.182)" class="st1" cx="86" cy="0.4" rx="0.4" ry="0.4"/>
		</g>
		<g>
			
				<ellipse transform="matrix(1 -1.991528e-03 1.991528e-03 1 -8.676891e-04 0.1116)" class="st1" cx="56" cy="0.5" rx="0.4" ry="0.4"/>
		</g>
		<g>
			
				<ellipse transform="matrix(1 -2.240466e-03 2.240466e-03 1 -1.693743e-02 0.1257)" class="st1" cx="56.1" cy="7.6" rx="0.4" ry="0.4"/>
		</g>
		<g>
			
				<ellipse transform="matrix(1 -1.991528e-03 1.991528e-03 1 -1.523404e-02 8.384579e-02)" class="st1" cx="42.1" cy="7.7" rx="0.4" ry="0.4"/>
		</g>
		<g>
			<g>
				
					<ellipse transform="matrix(1 -2.177151e-03 2.177151e-03 1 -6.997757e-04 0.1593)" class="st1" cx="73.2" cy="0.4" rx="0.4" ry="0.4"/>
			</g>
			<g>
				
					<ellipse transform="matrix(1 -2.062084e-03 2.062084e-03 1 -7.009530e-04 0.1486)" class="st1" cx="72.1" cy="0.4" rx="0.4" ry="0.4"/>
			</g>
			<g>
				
					<ellipse transform="matrix(1 -2.062320e-03 2.062320e-03 1 -7.305953e-04 0.1463)" class="st1" cx="71" cy="0.4" rx="0.4" ry="0.4"/>
			</g>
			<g>
				
					<ellipse transform="matrix(1 -2.062084e-03 2.062084e-03 1 -7.601068e-04 0.144)" class="st1" cx="69.8" cy="0.4" rx="0.4" ry="0.4"/>
			</g>
		</g>
		<g>
			<path class="st1" d="M86.1,0.4C86,0.3,86,0.3,86,0.3l0,0L56,0.4c0,0-0.1,0-0.1,0.1l0,7.1H42c0,0-0.1,0-0.1,0.1c0,0,0,0.1,0.1,0.1
				l0,0h14c0,0,0.1,0,0.1-0.1l0-7.1l29.8-0.1v4.8v0.1H86l0,0h0.8V5.2l-0.7,0V0.4C86.1,0.4,86.1,0.3,86.1,0.4z"/>
		</g>
	</g>
	<g>
		<g>
			<path class="st1" d="M70,3.7H50.6c0,0-0.1,0-0.1,0.1c0,0,0,0.1,0.1,0.1H70C70,3.9,70.1,3.9,70,3.7C70.1,3.7,70.1,3.7,70,3.7z"/>
		</g>
		<g>
			<path class="st1" d="M70.2,3C70.2,3,70.1,3,70.2,3l-0.1,1.4c0,0,0,0.1,0.1,0.1c0,0,0.1,0,0.1-0.1L70.2,3L70.2,3z"/>
		</g>
		<g>
			<path class="st1" d="M70.7,2.4C70.7,2.4,70.6,2.4,70.7,2.4l-0.1,2.8c0,0,0,0.1,0.1,0.1c0,0,0.1,0,0.1-0.1L70.7,2.4
				C70.8,2.4,70.8,2.3,70.7,2.4z"/>
		</g>
		<g>
			<path class="st1" d="M74.5,3.7h-3.7c0,0-0.1,0-0.1,0.1c0,0,0,0.1,0.1,0.1h3.7c0,0,0.1,0,0.1-0.1S74.5,3.7,74.5,3.7z"/>
		</g>
		<g>
			<g>
				<path class="st1" d="M73,2.3h-1.3l-0.1,0.1c0,0,0,0.1,0.1,0.1H73c0,0,0.1,0,0.1-0.1C73.1,2.3,73.1,2.2,73,2.3z"/>
			</g>
			<g>
				<path class="st1" d="M72.4,1.6c0,0-0.1,0-0.1,0.1V3c0,0,0,0.1,0.1,0.1c0,0,0.1,0,0.1-0.1V1.7C72.5,1.6,72.4,1.6,72.4,1.6z"/>
			</g>
		</g>
		<g>
			<path class="st1" d="M28.4,8.5c-0.4,0-0.8,0.3-0.8,0.8c0,0.4,0.3,0.8,0.8,0.8c0.4,0,0.8-0.3,0.8-0.8S28.8,8.5,28.4,8.5z
				 M28.3,8.7c0.3,0,0.6,0.3,0.6,0.6s-0.3,0.6-0.6,0.6s-0.6-0.3-0.6-0.6S28,8.7,28.3,8.7z"/>
		</g>
		<g>
			<g>
				<circle class="st1" cx="18" cy="9.3" r="0.4"/>
			</g>
			<g>
				<circle class="st1" cx="16.9" cy="9.3" r="0.4"/>
			</g>
			<g>
				<circle class="st1" cx="15.8" cy="9.3" r="0.4"/>
			</g>
			<g>
				<circle class="st1" cx="14.6" cy="9.3" r="0.4"/>
			</g>
		</g>
		<g>
			<path class="st1" d="M46.6,3.7H28.3c0,0-0.1,0-0.1,0.1v5.3H0.5c0,0-0.1,0-0.1,0.1c0,0,0,0.1,0.1,0.1h27.9c0,0,0.1,0,0.1-0.1V3.9
				h18.1c0,0,0.1,0,0.1-0.1S46.6,3.7,46.6,3.7z"/>
		</g>
		<g>
			<path class="st1" d="M2.1,7.7c-0.1,0-0.1,0-0.2,0L0,9.1l0,0.1l0,0.1l1.9,1.4H2h0.1c0.1-0.1,0.1-0.2,0-0.2L0.4,9.2l1.7-1.3
				C2.2,7.9,2.2,7.8,2.1,7.7z"/>
		</g>
		<g>
			<circle class="st1" cx="28.4" cy="3.9" r="0.4"/>
		</g>
		<g>
			<g>
				<path class="st1" d="M48.6,1.7c-1.2,0-2.1,1-2.1,2.1c0,1.2,1,2.1,2.1,2.1c1.2,0,2.1-1,2.1-2.1S49.8,1.8,48.6,1.7z M48.6,2
					c1,0,1.8,0.8,1.8,1.8s-0.8,1.8-1.8,1.8s-1.8-0.8-1.8-1.8S47.6,2,48.6,2z"/>
			</g>
			<g>
				<path class="st1" d="M47.4,2.4c-0.1,0-0.2,0-0.2,0c0,0.1,0,0.2,0,0.2l2.7,2.7H50h0.1c0-0.1,0-0.2,0-0.2L47.4,2.4z"/>
			</g>
			<g>
				<path class="st1" d="M50.1,2.4c-0.1,0-0.2,0-0.2,0l-2.7,2.7c0,0.1,0,0.2,0,0.2h0.1h0.1l2.7-2.7C50.1,2.5,50.1,2.4,50.1,2.4z"/>
			</g>
		</g>
	</g>
	<polygon class="st1" points="86.8,4.3 86.8,1.5 85.8,1.5 85.1,2.5 77.3,2.5 76.1,3.6 71.5,3.6 72.2,4.3 75.9,4.3 76.7,3.5 
		82.9,3.5 83.7,4.3 	"/>
</g>
</svg>
