<?xml version="1.0" encoding="utf-8"?>
<!-- Generator: Adobe Illustrator 21.0.2, SVG Export Plug-In . SVG Version: 6.00 Build 0)  -->
<svg version="1.1" id="Layer_1" xmlns="http://www.w3.org/2000/svg" xmlns:xlink="http://www.w3.org/1999/xlink" x="0px" y="0px"
	 viewBox="0 0 70.1 9.3" style="enable-background:new 0 0 70.1 9.3;" xml:space="preserve">
<style type="text/css">
	.st0{fill:#4071B7;}
</style>
<g>
	<g>
		<path class="st0" d="M46.8,7.5h-3.2c0,0-0.1,0-0.1,0.1c0,0.9,0.8,1.7,1.7,1.7s1.7-0.8,1.7-1.7C46.9,7.5,46.8,7.5,46.8,7.5z
			 M43.7,7.6h3C46.6,8.4,46,9,45.2,9S43.8,8.4,43.7,7.6L43.7,7.6z"/>
	</g>
	<g>
		<path class="st0" d="M65.5,6.4H46.3c0,0-0.1,0-0.1,0.1v1c0,0,0,0.1,0.1,0.1c0,0,0.1,0,0.1-0.1V6.7h19.1c0,0,0.1,0,0.1-0.1
			S65.5,6.4,65.5,6.4z"/>
	</g>
	<g>
		<path class="st0" d="M65.6,5.8C65.6,5.8,65.5,5.8,65.6,5.8l-0.1,1.3c0,0,0,0.1,0.1,0.1c0,0,0.1,0,0.1-0.1L65.6,5.8
			C65.7,5.9,65.7,5.8,65.6,5.8z"/>
	</g>
	<g>
		<path class="st0" d="M66.1,5.2c0,0-0.1,0,0,0.1v2.5c0,0,0,0.1,0.1,0.1c0,0,0.1,0,0.1-0.1V5.3C66.3,5.2,66.2,5.2,66.1,5.2z"/>
	</g>
	<g>
		<path class="st0" d="M69.6,6.4h-3.4c-0.1,0-0.1,0.1-0.1,0.2c0,0,0,0.1,0.1,0.1h3.5c0,0,0.1,0,0.1-0.1S69.7,6.4,69.6,6.4z"/>
	</g>
	<g>
		<g>
			<path class="st0" d="M68.3,7.8h-1.2c0,0-0.1,0-0.1,0.1S67,8,67.1,8h1.2c0,0,0.1,0,0.1-0.1L68.3,7.8z"/>
		</g>
		<g>
			<path class="st0" d="M67.7,7.2C67.7,7.2,67.6,7.2,67.7,7.2l-0.1,1.3c0,0,0,0.1,0.1,0.1c0,0,0.1,0,0.1-0.1L67.7,7.2
				C67.8,7.3,67.7,7.2,67.7,7.2z"/>
		</g>
	</g>
	<g>
		<g>
			<circle class="st0" cx="59.4" cy="6.6" r="0.4"/>
		</g>
		<g>
			<circle class="st0" cx="58.3" cy="6.6" r="0.4"/>
		</g>
		<g>
			<circle class="st0" cx="57.2" cy="6.6" r="0.4"/>
		</g>
		<g>
			<circle class="st0" cx="56.2" cy="6.6" r="0.4"/>
		</g>
	</g>
	<g>
		<path class="st0" d="M26.5,1.4H0.3L0.2,1.5c0,0,0,0.1,0.1,0.1h26.1v5c0,0,0,0.1,0.1,0.1h17.4v0.9c0,0,0,0.1,0.1,0.1
			c0,0,0.1,0,0.1-0.1v-1c0-0.1,0-0.2-0.1-0.1H26.6v-5C26.6,1.4,26.5,1.3,26.5,1.4z"/>
	</g>
	<g>
		<path class="st0" d="M2,0L2,0C1.8,0,1.8,0,1.8,0L0,1.4l0,0.1l0,0.1L1.7,3c0.1,0.1,0.2,0,0.2,0c0.1-0.1,0-0.2,0-0.2L0.3,1.5
			l1.6-1.3C2,0.2,2,0.1,2,0z"/>
	</g>
	<g>
		<circle class="st0" cx="26.5" cy="6.4" r="0.4"/>
	</g>
	<g>
		<circle class="st0" cx="69.7" cy="6.6" r="0.4"/>
	</g>
	<g>
		<path class="st0" d="M26.5,0.6c-0.4,0-0.8,0.4-0.8,0.8s0.4,0.8,0.8,0.8c0.4,0,0.8-0.4,0.8-0.8S26.9,0.6,26.5,0.6z M26.5,0.8
			c0.3,0,0.6,0.3,0.6,0.6S26.8,2,26.5,2s-0.6-0.3-0.6-0.6S26.2,0.9,26.5,0.8z"/>
	</g>
	<g>
		<g>
			<circle class="st0" cx="16.8" cy="1.4" r="0.4"/>
		</g>
		<g>
			<circle class="st0" cx="15.7" cy="1.4" r="0.4"/>
		</g>
		<g>
			<circle class="st0" cx="14.7" cy="1.4" r="0.4"/>
		</g>
		<g>
			<circle class="st0" cx="13.6" cy="1.4" r="0.4"/>
		</g>
	</g>
</g>
</svg>
