<?xml version="1.0" encoding="utf-8"?>
<!-- Generator: Adobe Illustrator 21.0.2, SVG Export Plug-In . SVG Version: 6.00 Build 0)  -->
<svg version="1.1" id="Layer_1" xmlns="http://www.w3.org/2000/svg" xmlns:xlink="http://www.w3.org/1999/xlink" x="0px" y="0px"
	 viewBox="0 0 300 84.7" style="enable-background:new 0 0 300 84.7;" xml:space="preserve">
<style type="text/css">
	.st0{fill:#5D9BD5;}
	.st1{fill:#4071B7;}
</style>
<g>
	<rect x="6.9" y="38.2" class="st0" width="32.8" height="1.8"/>
	<g>
		<path class="st0" d="M38,39.1c0,0.5,0.4,0.9,0.9,0.9c0.5,0,0.9-0.4,0.9-0.9c0-3.5,2.9-6.4,6.4-6.4c3.5,0,6.4,2.9,6.4,6.4
			c0,0.5,0.4,0.9,0.9,0.9c0.5,0,0.9-0.4,0.9-0.9c0-4.5-3.7-8.2-8.2-8.2C41.6,30.9,38,34.5,38,39.1z"/>
	</g>
	<path class="st0" d="M117.2,38.2V40H68.3c-0.5,0-0.9-0.4-0.9-0.9c0-3.5-2.9-6.4-6.5-6.4c-3.4,0-6.3,2.6-6.5,5.9c0,0,0,0,0,0
		c0,0.1,0,0.3,0,0.4c0,0.4-0.3,0.8-0.7,0.9c-0.1,0-0.1,0-0.2,0c-0.1,0-0.1,0-0.1,0c-0.4-0.1-0.8-0.4-0.8-0.9c0-0.1,0-0.3,0-0.4v0
		c0.1-1.2,0.4-2.3,0.9-3.3c1.4-2.6,4.2-4.4,7.4-4.4c4.3,0,7.8,3.2,8.3,7.3H117.2z"/>
	<path class="st1" d="M67.9,46.7v1.9H34.5c-0.5,0-0.9-0.4-0.9-0.9V1.8h1.8v44.9H67.9z"/>
	<rect x="66.7" y="48.5" class="st1" width="1.8" height="15.1"/>
	<rect x="56.5" y="62.4" transform="matrix(1 -7.072547e-03 7.072547e-03 1 -0.446 0.4856)" class="st1" width="24" height="1.8"/>
	<rect x="34" y="1.8" class="st1" width="33.9" height="2"/>
	<path class="st1" d="M66.7,46.7v1.9h33.4c0.5,0,0.9-0.4,0.9-0.9V1.8h-1.8v44.9H66.7z"/>
	<rect x="66.7" y="1.8" class="st1" width="33.9" height="2"/>
	<g>
		<path class="st0" d="M174.5,39.1c0,0.5-0.3,0.8-0.8,0.9c-0.1,0-0.1,0-0.2,0c-0.1,0-0.1,0-0.2,0c-0.4-0.1-0.7-0.5-0.7-0.9
			c0-0.1,0-0.3,0-0.4v0c-0.2-3.3-3-5.9-6.3-5.9c-3.5,0-6.4,2.9-6.4,6.4c0,0.5-0.4,0.9-0.9,0.9h-42.4v-1.8h41.5
			c0.5-4.1,3.9-7.3,8.2-7.3c3.1,0,5.9,1.8,7.3,4.4c0.5,1,0.9,2.1,0.9,3.3c0,0,0,0,0,0C174.5,38.8,174.5,38.9,174.5,39.1z"/>
	</g>
	<g>
		<path class="st0" d="M172.6,39.1c0,0.5,0.4,0.9,0.9,0.9c0.5,0,0.9-0.4,0.9-0.9c0-3.5,2.9-6.4,6.4-6.4c3.5,0,6.4,2.9,6.4,6.4
			c0,0.5,0.4,0.9,0.9,0.9c0.5,0,0.9-0.4,0.9-0.9c0-4.5-3.7-8.2-8.2-8.2C176.3,30.9,172.6,34.6,172.6,39.1z"/>
	</g>
	<g>
		<path class="st0" d="M187.1,39.1c0,0.5,0.4,0.9,0.9,0.9s0.9-0.4,0.9-0.9c0-3.5,2.9-6.4,6.4-6.4c3.5,0,6.4,2.9,6.4,6.4
			c0,0.5,0.4,0.9,0.9,0.9s0.9-0.4,0.9-0.9c0-4.5-3.7-8.2-8.2-8.2C190.8,30.9,187.1,34.6,187.1,39.1z"/>
	</g>
	<path class="st0" d="M263.9,38.2V40h-47.1c-0.5,0-0.9-0.4-0.9-0.9c0-3.5-2.8-6.4-6.3-6.4c-3.3,0-6,2.6-6.2,5.9c0,0,0,0,0,0
		c0,0.1,0,0.3,0,0.4c0,0.4-0.3,0.8-0.7,0.9c-0.1,0-0.1,0-0.2,0c-0.1,0-0.1,0-0.1,0c-0.4-0.1-0.7-0.4-0.7-0.9c0-0.1,0-0.3,0-0.4v0
		c0.1-1.2,0.4-2.3,0.9-3.3c1.3-2.6,4-4.4,7.1-4.4c4.1,0,7.6,3.2,8,7.3H263.9z"/>
	<rect x="260.3" y="38.1" class="st0" width="32.7" height="1.8"/>
	<g>
		<path class="st0" d="M299.9,42.8c0.2,0.2,0.2,0.4,0,0.6c-0.1,0.1-0.2,0.1-0.3,0.1c-0.1,0-0.2,0-0.3-0.1l-8.1-8.1
			c-0.2-0.2-0.2-0.4,0-0.6c0.2-0.2,0.4-0.2,0.6,0L299.9,42.8z"/>
	</g>
	<g>
		<path class="st0" d="M295.5,36.2c-1.5,0-2.8,1.2-2.8,2.8c0,1.5,1.2,2.8,2.8,2.8c1.5,0,2.8-1.2,2.8-2.8
			C298.3,37.5,297.1,36.2,295.5,36.2z M295.5,37c1.1,0,2,0.9,2,2c0,1.1-0.9,2-2,2c-1.1,0-2-0.9-2-2C293.6,37.9,294.4,37,295.5,37z"
			/>
	</g>
	<path class="st1" d="M149.6,67v1.9h-33.4c-0.5,0-0.9-0.4-0.9-0.9V22.1h1.8V67H149.6z"/>
	<rect x="148.4" y="68.9" class="st1" width="1.8" height="15.1"/>
	<rect x="138.2" y="82.8" transform="matrix(1 -7.072547e-03 7.072547e-03 1 -0.588 1.0643)" class="st1" width="24" height="1.8"/>
	<rect x="115.7" y="22.1" class="st1" width="33.9" height="2"/>
	<path class="st1" d="M148.4,67v1.9h33.4c0.5,0,0.9-0.4,0.9-0.9V22.1h-1.8V67H148.4z"/>
	<rect x="148.4" y="22.1" class="st1" width="33.9" height="2"/>
	<path class="st1" d="M231.3,44.9v1.9h-33.4c-0.5,0-0.9-0.4-0.9-0.9V0h1.8v44.9H231.3z"/>
	<rect x="230" y="46.8" class="st1" width="1.8" height="15.1"/>
	<rect x="219.8" y="60.6" transform="matrix(1 -7.072547e-03 7.072547e-03 1 -0.4295 1.641)" class="st1" width="24" height="1.8"/>
	<rect x="197.3" y="0" class="st1" width="33.9" height="2"/>
	<path class="st1" d="M230,44.9v1.9h33.4c0.5,0,0.9-0.4,0.9-0.9V0l-1.8,0v44.9H230z"/>
	<rect x="230" y="0" class="st1" width="33.9" height="2"/>
	<g>
		<path class="st0" d="M0.1,42.8C0,43,0,43.3,0.1,43.4c0.1,0.1,0.2,0.1,0.3,0.1c0.1,0,0.2,0,0.3-0.1l8.1-8.1c0.2-0.2,0.2-0.4,0-0.6
			c-0.2-0.2-0.4-0.2-0.6,0L0.1,42.8z"/>
	</g>
	<g>
		<path class="st0" d="M1.7,39.1c0,1.5,1.2,2.8,2.8,2.8c1.5,0,2.8-1.2,2.8-2.8c0-1.5-1.2-2.8-2.8-2.8C2.9,36.3,1.7,37.5,1.7,39.1z
			 M6.4,39.1c0,1.1-0.9,2-2,2c-1.1,0-2-0.9-2-2c0-1.1,0.9-2,2-2C5.6,37.1,6.4,38,6.4,39.1z"/>
	</g>
	<g>
		<g>
			<circle class="st0" cx="11.5" cy="39.1" r="1.6"/>
		</g>
		<g>
			<circle class="st0" cx="15.7" cy="39.1" r="1.6"/>
		</g>
		<g>
			<circle class="st0" cx="19.9" cy="39.1" r="1.6"/>
		</g>
		<g>
			<circle class="st0" cx="24" cy="39.1" r="1.6"/>
		</g>
	</g>
	<g>
		<g>
			<circle class="st0" cx="288.3" cy="39" r="1.6"/>
		</g>
		<g>
			<circle class="st0" cx="284.1" cy="39" r="1.6"/>
		</g>
		<g>
			<circle class="st0" cx="280" cy="39" r="1.6"/>
		</g>
		<g>
			<circle class="st0" cx="275.8" cy="39" r="1.6"/>
		</g>
	</g>
</g>
</svg>
