<?xml version="1.0" encoding="utf-8"?>
<!-- Generator: Adobe Illustrator 21.0.2, SVG Export Plug-In . SVG Version: 6.00 Build 0)  -->
<svg version="1.1" id="Layer_1" xmlns="http://www.w3.org/2000/svg" xmlns:xlink="http://www.w3.org/1999/xlink" x="0px" y="0px"
	 viewBox="0 0 200 168.5" style="enable-background:new 0 0 200 168.5;" xml:space="preserve">
<style type="text/css">
	.st0{fill:#4071B7;}
	.st1{fill:#5D9BD5;}
</style>
<g>
	<g>
		<path class="st0" d="M53.5,152.5c0,0.6-0.3,1.1-0.7,1.2c-0.1,0.1-0.2,0.1-0.2,0.2H13.9v-3h38.7C53.1,151.2,53.5,151.8,53.5,152.5z
			"/>
	</g>
	<g>
		<path class="st0" d="M81.5,152.5c0,0.6-0.3,1.1-0.7,1.2c-0.1,0.1-0.2,0.1-0.2,0.2H68.9v-3h11.6C81.1,151.2,81.5,151.8,81.5,152.5z
			"/>
	</g>
	<g>
		<path class="st1" d="M51.8,149.9c0,5,4,9,9,9c5,0,9-4,9-9c0-5-4-9-9-9C55.8,140.9,51.8,144.9,51.8,149.9z M67.2,149.9
			c0,3.5-2.9,6.4-6.4,6.4c-3.5,0-6.4-2.9-6.4-6.4c0-3.5,2.9-6.4,6.4-6.4C64.4,143.4,67.2,146.3,67.2,149.9z"/>
	</g>
	<path class="st0" d="M183.9,92.9v3h1v56.4c0,0-0.7,1.3-1.4,1.6H96.6c-0.7-0.3-1.3-0.8-1.3-1.6c0-0.7,1.3-1.4,1.3-1.4h85.3V94.4
		c0.3-0.7,0.8-1.3,1.6-1.5H183.9z"/>
	<path class="st0" d="M16.9,65.9v3l0,0v82.2c0,0.8-0.6,1.3-1.3,1.3l-1.7-0.2V67.4c0,0,0.9-1.3,1.7-1.5H16.9z"/>
	<g>
		<path class="st1" d="M78.8,149.9c0,5,4,9,9,9c5,0,9-4,9-9c0-5-4-9-9-9C82.9,140.9,78.8,144.9,78.8,149.9z M94.3,149.9
			c0,3.5-2.9,6.4-6.4,6.4s-6.4-2.9-6.4-6.4c0-3.5,2.9-6.4,6.4-6.4S94.3,146.3,94.3,149.9z"/>
	</g>
	<g>
		<circle class="st1" cx="181.9" cy="151.2" r="4.3"/>
	</g>
	<g>
		<path class="st1" d="M156.5,138.6l-17.8,13.8l17.8,13.8c0.5,0.4,0.6,1.2,0.2,1.7c-0.2,0.3-0.6,0.5-1,0.5c-0.3,0-0.5-0.1-0.8-0.3
			l-19-14.8c-0.3-0.2-0.5-0.6-0.5-1c0-0.4,0.2-0.7,0.5-1l19-14.8c0.5-0.4,1.3-0.3,1.7,0.2C157.1,137.4,157,138.2,156.5,138.6z"/>
	</g>
	<g>
		<g>
			<path class="st1" d="M136,138.6l-1.6,1.2c-0.2,0.2-0.5,0.3-0.8,0.3c-0.4,0-0.7-0.2-1-0.5c-0.4-0.5-0.3-1.3,0.2-1.7l1.6-1.2
				c0.5-0.4,1.3-0.3,1.7,0.2C136.6,137.4,136.5,138.2,136,138.6z"/>
		</g>
		<g>
			<path class="st1" d="M131.2,142.3l-3.2,2.5c-0.2,0.2-0.5,0.3-0.8,0.3c-0.4,0-0.7-0.2-1-0.5c-0.4-0.5-0.3-1.3,0.2-1.7l3.2-2.5
				c0.5-0.4,1.3-0.3,1.7,0.2C131.9,141.1,131.8,141.9,131.2,142.3z"/>
			<path class="st1" d="M124.9,147.3l-3.2,2.5c-0.2,0.2-0.5,0.3-0.8,0.3c-0.4,0-0.7-0.2-1-0.5c-0.4-0.5-0.3-1.3,0.2-1.7l3.2-2.5
				c0.5-0.4,1.3-0.3,1.7,0.2C125.5,146.1,125.4,146.9,124.9,147.3z"/>
		</g>
		<g>
			<path class="st1" d="M118.5,152.2l-0.3,0.2l0.3,0.2c0.5,0.4,0.6,1.2,0.2,1.7c-0.2,0.3-0.6,0.5-1,0.5c-0.3,0-0.5-0.1-0.8-0.3
				l-1.6-1.2c-0.3-0.2-0.5-0.6-0.5-1c0-0.4,0.2-0.7,0.5-1l1.6-1.2c0.5-0.4,1.3-0.3,1.7,0.2C119.2,151,119.1,151.8,118.5,152.2z"/>
		</g>
		<g>
			<path class="st1" d="M124.9,157.6c0.5,0.4,0.6,1.2,0.2,1.7c-0.2,0.3-0.6,0.5-1,0.5c-0.3,0-0.5-0.1-0.8-0.3l-3.2-2.5
				c-0.5-0.4-0.6-1.2-0.2-1.7c0.4-0.5,1.2-0.6,1.7-0.2L124.9,157.6z"/>
			<path class="st1" d="M131.2,162.6c0.5,0.4,0.6,1.2,0.2,1.7c-0.2,0.3-0.6,0.5-1,0.5c-0.3,0-0.5-0.1-0.8-0.3l-3.2-2.5
				c-0.5-0.4-0.6-1.2-0.2-1.7c0.4-0.5,1.2-0.6,1.7-0.2L131.2,162.6z"/>
		</g>
		<g>
			<path class="st1" d="M136,166.3c0.5,0.4,0.6,1.2,0.2,1.7c-0.2,0.3-0.6,0.5-1,0.5c-0.3,0-0.5-0.1-0.8-0.3l-1.6-1.2
				c-0.5-0.4-0.6-1.2-0.2-1.7c0.4-0.5,1.2-0.6,1.7-0.2L136,166.3z"/>
		</g>
	</g>
	<g>
		<circle class="st1" cx="15.1" cy="67.4" r="4.2"/>
	</g>
	<g>
		<circle class="st1" cx="183.6" cy="92.1" r="4.2"/>
	</g>
	<path class="st0" d="M14.9,29.7v9.9c-0.6,0.7-0.1,1.2,0.6,1.2c0.7,0,1.2-0.6,1.4-1.2v-9.9c-0.1-0.7-0.7-1.2-1.4-1.2
		C14.8,28.4,14.3,29,14.9,29.7z"/>
	<path class="st0" d="M14.9,49.6v9.9c-0.6,0.7-0.1,1.2,0.6,1.2c0.7,0,1.2-0.6,1.4-1.2v-9.9c-0.1-0.7-0.7-1.2-1.4-1.2
		C14.8,48.3,14.3,48.9,14.9,49.6z"/>
	<path class="st0" d="M14.9,16v3.7c-0.6,0.7-0.1,1.2,0.6,1.2c0.7,0,1.2-0.6,1.4-1.2v-2.8h4.8c0.7,0.4,1.2-0.2,1.2-0.9
		c0-0.7-0.6-1.2-1.2-1.1h-6.2C14.8,14.8,14.3,15.3,14.9,16z"/>
	<path class="st0" d="M30.4,16c0,0.7,0.6,1.2,1.2,0.9h9.9c0.7,0.4,1.2-0.2,1.2-0.9c0-0.7-0.6-1.2-1.2-1.1h-9.9
		C31,14.8,30.4,15.3,30.4,16z"/>
	<path class="st0" d="M90,16c0,0.7,0.6,1.2,1.2,0.9h9.9c0.7,0.4,1.2-0.2,1.2-0.9c0-0.7-0.6-1.2-1.2-1.1h-9.9
		C90.6,14.8,90,15.3,90,16z"/>
	<path class="st0" d="M109.9,16c0,0.7,0.6,1.2,1.2,0.9h9.9c0.7,0.4,1.2-0.2,1.2-0.9c0-0.7-0.6-1.2-1.2-1.1h-9.9
		C110.4,14.8,109.9,15.3,109.9,16z"/>
	<path class="st0" d="M70.1,16c0,0.7,0.6,1.2,1.2,0.9h9.9c0.7,0.4,1.2-0.2,1.2-0.9c0-0.7-0.6-1.2-1.2-1.1h-9.9
		C70.7,14.8,70.1,15.3,70.1,16z"/>
	<path class="st0" d="M50.3,16c0,0.7,0.6,1.2,1.2,0.9h9.9c0.7,0.4,1.2-0.2,1.2-0.9c0-0.7-0.6-1.2-1.2-1.1h-9.9
		C50.8,14.8,50.3,15.3,50.3,16z"/>
	<path class="st0" d="M129.7,16c0,0.7,0.6,1.2,1.2,0.9h9.9c0.7,0.4,1.2-0.2,1.2-0.9c0-0.7-0.6-1.2-1.2-1.1H131
		C130.3,14.8,129.7,15.3,129.7,16z"/>
	<path class="st0" d="M182.9,37.1v9.9c-0.5,0.7,0,1.2,0.7,1.2c0.7,0,1.2-0.6,1.3-1.2v-9.9c0-0.7-0.6-1.2-1.3-1.2
		C182.9,35.9,182.4,36.5,182.9,37.1z"/>
	<path class="st0" d="M182.9,57v9.9c-0.5,0.7,0,1.2,0.7,1.2c0.7,0,1.2-0.6,1.3-1.2V57c0-0.7-0.6-1.2-1.3-1.2
		C182.9,55.8,182.4,56.3,182.9,57z"/>
	<path class="st0" d="M182.9,17.3v9.9c-0.5,0.7,0,1.2,0.7,1.2c0.7,0,1.2-0.6,1.3-1.2v-9.9c0-0.7-0.6-1.2-1.3-1.2
		C182.9,16,182.4,16.6,182.9,17.3z"/>
	<path class="st0" d="M169.5,16c0,0.7,0.6,1.2,1.2,0.9h9.9c0.7,0.4,1.2-0.2,1.2-0.9c0-0.7-0.6-1.2-1.2-1.1h-9.9
		C170,14.8,169.5,15.3,169.5,16z"/>
	<path class="st0" d="M182.9,76.9v9.9c-0.5,0.7,0,1.2,0.7,1.2c0.7,0,1.2-0.6,1.3-1.2v-9.9c0-0.7-0.6-1.2-1.3-1.2
		C182.9,75.6,182.4,76.2,182.9,76.9z"/>
	<path class="st0" d="M149.6,16c0,0.7,0.6,1.2,1.2,0.9h9.9c0.7,0.4,1.2-0.2,1.2-0.9c0-0.7-0.6-1.2-1.2-1.1h-9.9
		C150.2,14.8,149.6,15.3,149.6,16z"/>
	<g>
		<g>
			<circle class="st1" cx="149.2" cy="16" r="4.6"/>
		</g>
		<g>
			<circle class="st1" cx="160.8" cy="16" r="4.6"/>
		</g>
		<g>
			<circle class="st1" cx="172.4" cy="16" r="4.6"/>
		</g>
		<g>
			<circle class="st1" cx="184" cy="16" r="4.6"/>
		</g>
	</g>
	<g>
		<path class="st1" d="M64.7,29.8L82.5,16L64.7,2.2c-0.5-0.4-0.6-1.2-0.2-1.7c0.2-0.3,0.6-0.5,1-0.5c0.3,0,0.5,0.1,0.8,0.3l19,14.8
			c0.3,0.2,0.5,0.6,0.5,1c0,0.4-0.2,0.7-0.5,1l-19,14.8c-0.5,0.4-1.3,0.3-1.7-0.2C64.1,31,64.2,30.3,64.7,29.8z"/>
	</g>
	<g>
		<g>
			<path class="st1" d="M85.2,29.8l1.6-1.2c0.2-0.2,0.5-0.3,0.8-0.3c0.4,0,0.7,0.2,1,0.5c0.4,0.5,0.3,1.3-0.2,1.7l-1.6,1.2
				c-0.5,0.4-1.3,0.3-1.7-0.2C84.6,31,84.7,30.3,85.2,29.8z"/>
		</g>
		<g>
			<path class="st1" d="M90,26.2l3.2-2.5c0.2-0.2,0.5-0.3,0.8-0.3c0.4,0,0.7,0.2,1,0.5c0.4,0.5,0.3,1.3-0.2,1.7l-3.2,2.5
				c-0.5,0.4-1.3,0.3-1.7-0.2C89.3,27.3,89.4,26.6,90,26.2z"/>
			<path class="st1" d="M96.3,21.2l3.2-2.5c0.2-0.2,0.5-0.3,0.8-0.3c0.4,0,0.7,0.2,1,0.5c0.4,0.5,0.3,1.3-0.2,1.7l-3.2,2.5
				c-0.5,0.4-1.3,0.3-1.7-0.2C95.7,22.4,95.8,21.6,96.3,21.2z"/>
		</g>
		<g>
			<path class="st1" d="M102.7,16.3L103,16l-0.3-0.2c-0.5-0.4-0.6-1.2-0.2-1.7c0.2-0.3,0.6-0.5,1-0.5c0.3,0,0.5,0.1,0.8,0.3l1.6,1.2
				c0.3,0.2,0.5,0.6,0.5,1c0,0.4-0.2,0.7-0.5,1l-1.6,1.2c-0.5,0.4-1.3,0.3-1.7-0.2C102.1,17.5,102.2,16.7,102.7,16.3z"/>
		</g>
		<g>
			<path class="st1" d="M96.3,10.9c-0.5-0.4-0.6-1.2-0.2-1.7c0.2-0.3,0.6-0.5,1-0.5c0.3,0,0.5,0.1,0.8,0.3l3.2,2.5
				c0.5,0.4,0.6,1.2,0.2,1.7c-0.4,0.5-1.2,0.6-1.7,0.2L96.3,10.9z"/>
			<path class="st1" d="M90,5.9c-0.5-0.4-0.6-1.2-0.2-1.7c0.2-0.3,0.6-0.5,1-0.5c0.3,0,0.5,0.1,0.8,0.3l3.2,2.5
				c0.5,0.4,0.6,1.2,0.2,1.7c-0.4,0.5-1.2,0.6-1.7,0.2L90,5.9z"/>
		</g>
		<g>
			<path class="st1" d="M85.2,2.2C84.7,1.8,84.6,1,85,0.5C85.3,0.2,85.6,0,86,0c0.3,0,0.5,0.1,0.8,0.3l1.6,1.2
				c0.5,0.4,0.6,1.2,0.2,1.7c-0.4,0.5-1.2,0.6-1.7,0.2L85.2,2.2z"/>
		</g>
	</g>
	<g>
		<path class="st1" d="M197.8,37.6L184,55.4l-13.8-17.8c-0.4-0.5-1.2-0.6-1.7-0.2c-0.3,0.2-0.5,0.6-0.5,1c0,0.3,0.1,0.5,0.3,0.8
			l14.8,19c0.2,0.3,0.6,0.5,1,0.5c0.4,0,0.7-0.2,1-0.5l14.8-19c0.4-0.5,0.3-1.3-0.2-1.7C199,37,198.2,37.1,197.8,37.6z"/>
	</g>
	<g>
		<g>
			<path class="st1" d="M197.8,58.1l-1.2,1.6c-0.2,0.2-0.3,0.5-0.3,0.8c0,0.4,0.2,0.7,0.5,1c0.5,0.4,1.3,0.3,1.7-0.2l1.2-1.6
				c0.4-0.5,0.3-1.3-0.2-1.7C199,57.5,198.2,57.6,197.8,58.1z"/>
		</g>
		<g>
			<path class="st1" d="M194.1,62.9l-2.5,3.2c-0.2,0.2-0.3,0.5-0.3,0.8c0,0.4,0.2,0.7,0.5,1c0.5,0.4,1.3,0.3,1.7-0.2l2.5-3.2
				c0.4-0.5,0.3-1.3-0.2-1.7C195.3,62.3,194.5,62.3,194.1,62.9z"/>
			<path class="st1" d="M189.2,69.3l-2.5,3.2c-0.2,0.2-0.3,0.5-0.3,0.8c0,0.4,0.2,0.7,0.5,1c0.5,0.4,1.3,0.3,1.7-0.2l2.5-3.2
				c0.4-0.5,0.3-1.3-0.2-1.7C190.4,68.6,189.6,68.7,189.2,69.3z"/>
		</g>
		<g>
			<path class="st1" d="M184.2,75.6l-0.2,0.3l-0.2-0.3c-0.4-0.5-1.2-0.6-1.7-0.2c-0.3,0.2-0.5,0.6-0.5,1c0,0.3,0.1,0.5,0.3,0.8
				l1.2,1.6c0.2,0.3,0.6,0.5,1,0.5c0.4,0,0.7-0.2,1-0.5l1.2-1.6c0.4-0.5,0.3-1.3-0.2-1.7C185.4,75,184.6,75.1,184.2,75.6z"/>
		</g>
		<g>
			<path class="st1" d="M178.8,69.3c-0.4-0.5-1.2-0.6-1.7-0.2c-0.3,0.2-0.5,0.6-0.5,1c0,0.3,0.1,0.5,0.3,0.8l2.5,3.2
				c0.4,0.5,1.2,0.6,1.7,0.2c0.5-0.4,0.6-1.2,0.2-1.7L178.8,69.3z"/>
			<path class="st1" d="M173.8,62.9c-0.4-0.5-1.2-0.6-1.7-0.2c-0.3,0.2-0.5,0.6-0.5,1c0,0.3,0.1,0.5,0.3,0.8l2.5,3.2
				c0.4,0.5,1.2,0.6,1.7,0.2c0.5-0.4,0.6-1.2,0.2-1.7L173.8,62.9z"/>
		</g>
		<g>
			<path class="st1" d="M170.2,58.1c-0.4-0.5-1.2-0.6-1.7-0.2c-0.3,0.2-0.5,0.6-0.5,1c0,0.3,0.1,0.5,0.3,0.8l1.2,1.6
				c0.4,0.5,1.2,0.6,1.7,0.2c0.5-0.4,0.6-1.2,0.2-1.7L170.2,58.1z"/>
		</g>
	</g>
	<g>
		<path class="st1" d="M29.8,112.5L16,94.8L2.2,112.5c-0.4,0.5-1.2,0.6-1.7,0.2c-0.3-0.2-0.5-0.6-0.5-1c0-0.3,0.1-0.5,0.3-0.8
			l14.8-19c0.2-0.3,0.6-0.5,1-0.5c0.4,0,0.7,0.2,1,0.5l14.8,19c0.4,0.5,0.3,1.3-0.2,1.7C31,113.2,30.3,113.1,29.8,112.5z"/>
	</g>
	<g>
		<g>
			<path class="st1" d="M29.8,130.1l-1.2-1.6c-0.2-0.2-0.3-0.5-0.3-0.8c0-0.4,0.2-0.7,0.5-1c0.5-0.4,1.3-0.3,1.7,0.2l1.2,1.6
				c0.4,0.5,0.3,1.3-0.2,1.7C31,130.8,30.3,130.7,29.8,130.1z"/>
		</g>
		<g>
			<path class="st1" d="M26.2,125.4l-2.5-3.2c-0.2-0.2-0.3-0.5-0.3-0.8c0-0.4,0.2-0.7,0.5-1c0.5-0.4,1.3-0.3,1.7,0.2l2.5,3.2
				c0.4,0.5,0.3,1.3-0.2,1.7C27.3,126,26.6,125.9,26.2,125.4z"/>
			<path class="st1" d="M21.2,119l-2.5-3.2c-0.2-0.2-0.3-0.5-0.3-0.8c0-0.4,0.2-0.7,0.5-1c0.5-0.4,1.3-0.3,1.7,0.2l2.5,3.2
				c0.4,0.5,0.3,1.3-0.2,1.7C22.4,119.7,21.6,119.6,21.2,119z"/>
		</g>
		<g>
			<path class="st1" d="M16.3,112.7l-0.2-0.3l-0.2,0.3c-0.4,0.5-1.2,0.6-1.7,0.2c-0.3-0.2-0.5-0.6-0.5-1c0-0.3,0.1-0.5,0.3-0.8
				l1.2-1.6c0.2-0.3,0.6-0.5,1-0.5c0.4,0,0.7,0.2,1,0.5l1.2,1.6c0.4,0.5,0.3,1.3-0.2,1.7C17.5,113.3,16.7,113.2,16.3,112.7z"/>
		</g>
		<g>
			<path class="st1" d="M10.9,119c-0.4,0.5-1.2,0.6-1.7,0.2c-0.3-0.2-0.5-0.6-0.5-1c0-0.3,0.1-0.5,0.3-0.8l2.5-3.2
				c0.4-0.5,1.2-0.6,1.7-0.2c0.5,0.4,0.6,1.2,0.2,1.7L10.9,119z"/>
			<path class="st1" d="M5.9,125.4c-0.4,0.5-1.2,0.6-1.7,0.2c-0.3-0.2-0.5-0.6-0.5-1c0-0.3,0.1-0.5,0.3-0.8l2.5-3.2
				c0.4-0.5,1.2-0.6,1.7-0.2c0.5,0.4,0.6,1.2,0.2,1.7L5.9,125.4z"/>
		</g>
		<g>
			<path class="st1" d="M2.2,130.1c-0.4,0.5-1.2,0.6-1.7,0.2c-0.3-0.2-0.5-0.6-0.5-1c0-0.3,0.1-0.5,0.3-0.8l1.2-1.6
				c0.4-0.5,1.2-0.6,1.7-0.2c0.5,0.4,0.6,1.2,0.2,1.7L2.2,130.1z"/>
		</g>
	</g>
	<g>
		<circle class="st1" cx="15.1" cy="16" r="4.2"/>
	</g>
	<g>
		<circle class="st1" cx="16" cy="152.5" r="4.2"/>
	</g>
</g>
</svg>
