<?xml version="1.0" encoding="utf-8"?>
<!-- Generator: Adobe Illustrator 21.0.2, SVG Export Plug-In . SVG Version: 6.00 Build 0)  -->
<svg version="1.1" id="Layer_1" xmlns="http://www.w3.org/2000/svg" xmlns:xlink="http://www.w3.org/1999/xlink" x="0px" y="0px"
	 viewBox="0 0 240 184.7" style="enable-background:new 0 0 240 184.7;" xml:space="preserve">
<style type="text/css">
	.st0{fill:#5D9BD5;}
	.st1{fill:#4071B7;}
</style>
<g>
	<g>
		<g>
			<g>
				<path class="st0" d="M235.8,136.5l2.9,2.3l-2.9,2.3c-0.1,0.1-0.1,0.2,0,0.3c0,0.1,0.1,0.1,0.2,0.1c0,0,0.1,0,0.1,0l3.1-2.5
					c0,0,0.1-0.1,0.1-0.2c0-0.1,0-0.1-0.1-0.2l-3.1-2.5c-0.1-0.1-0.2-0.1-0.3,0C235.7,136.3,235.7,136.4,235.8,136.5z"/>
				<path class="st0" d="M235.9,142.3c-0.3,0-0.6-0.1-0.8-0.4c-0.3-0.4-0.3-1,0.2-1.4l2.1-1.7l-2.1-1.7c-0.4-0.3-0.5-1-0.2-1.4
					l0.2-0.3l0.5-0.1c0.3,0,0.5,0,0.7,0.2l3.1,2.5c0.2,0.2,0.4,0.5,0.4,0.8c0,0.3-0.1,0.6-0.4,0.8l-3.3,2.7L235.9,142.3z
					 M236.3,135.9L236.3,135.9C236.3,135.9,236.3,135.9,236.3,135.9L236.3,135.9z"/>
			</g>
		</g>
		<g>
			<g>
				<path class="st0" d="M64.3,141.9c0.1,0,0.2-0.1,0.2-0.2c0-0.1-0.1-0.2-0.2-0.2h-7.4v0.4H64.3z"/>
				<path class="st0" d="M64.3,142.7h-8.2v-2h8.2c0.5,0,1,0.4,1,1C65.3,142.2,64.8,142.7,64.3,142.7z"/>
			</g>
		</g>
		<g>
			<g>
				<path class="st0" d="M64,141.7c0,0.8,0.6,1.5,1.4,1.5c0.8,0,1.4-0.7,1.4-1.5c0-0.8-0.6-1.5-1.4-1.5
					C64.7,140.2,64,140.9,64,141.7z M66.5,141.7c0,0.6-0.5,1-1,1c-0.6,0-1-0.5-1-1c0-0.6,0.5-1,1-1C66,140.6,66.5,141.1,66.5,141.7z
					"/>
				<path class="st0" d="M65.5,143.9c-1.2,0-2.2-1-2.2-2.2s1-2.2,2.2-2.2c1.2,0,2.2,1,2.2,2.2S66.7,143.9,65.5,143.9z M65.5,141.4
					c-0.1,0-0.2,0.1-0.2,0.3c0,0.3,0.4,0.3,0.4,0C65.7,141.5,65.6,141.4,65.5,141.4z"/>
			</g>
		</g>
		<g>
			<g>
				<path class="st0" d="M100,151.1c0,0.8,0.6,1.5,1.4,1.5c0.8,0,1.4-0.7,1.4-1.5c0-0.8-0.6-1.5-1.4-1.5
					C100.6,149.6,100,150.3,100,151.1z M102.4,151.1c0,0.6-0.5,1-1,1s-1-0.5-1-1c0-0.6,0.5-1,1-1S102.4,150.5,102.4,151.1z"/>
				<path class="st0" d="M101.4,153.4c-1.2,0-2.2-1-2.2-2.2s1-2.2,2.2-2.2c1.2,0,2.2,1,2.2,2.2S102.6,153.4,101.4,153.4z
					 M101.4,150.9c-0.1,0-0.2,0.1-0.2,0.3c0,0.3,0.4,0.3,0.4,0C101.6,151,101.5,150.9,101.4,150.9z"/>
			</g>
		</g>
		<g>
			<g>
				<path class="st0" d="M190.1,138.9c0,0.8,0.6,1.5,1.4,1.5c0.8,0,1.4-0.7,1.4-1.5c0-0.8-0.6-1.5-1.4-1.5
					C190.7,137.4,190.1,138.1,190.1,138.9z M192.5,138.9c0,0.6-0.5,1-1,1c-0.6,0-1-0.5-1-1c0-0.6,0.5-1,1-1
					C192.1,137.9,192.5,138.3,192.5,138.9z"/>
				<path class="st0" d="M191.5,141.2c-1.2,0-2.2-1-2.2-2.2s1-2.2,2.2-2.2c1.2,0,2.2,1,2.2,2.2S192.8,141.2,191.5,141.2z
					 M191.5,138.7c-0.1,0-0.2,0.1-0.2,0.2c0,0.3,0.4,0.3,0.4,0C191.8,138.8,191.7,138.7,191.5,138.7z"/>
			</g>
		</g>
		<g>
			<g>
				<g>
					<ellipse class="st0" cx="205.3" cy="138.9" rx="0.7" ry="0.8"/>
					<path class="st0" d="M205.3,140.5c-0.8,0-1.5-0.7-1.5-1.6s0.7-1.6,1.5-1.6s1.5,0.7,1.5,1.6S206.1,140.5,205.3,140.5z
						 M205.3,138.9l-0.7,0L205.3,138.9C205.3,138.9,205.3,138.9,205.3,138.9z"/>
				</g>
			</g>
			<g>
				<g>
					<ellipse class="st0" cx="207.2" cy="138.9" rx="0.7" ry="0.8"/>
					<path class="st0" d="M207.2,140.5c-0.8,0-1.5-0.7-1.5-1.6s0.7-1.6,1.5-1.6c0.8,0,1.5,0.7,1.5,1.6S208,140.5,207.2,140.5z
						 M207.2,138.9l-0.7,0L207.2,138.9C207.2,138.9,207.2,138.9,207.2,138.9z"/>
				</g>
			</g>
			<g>
				<g>
					<ellipse class="st0" cx="209" cy="138.9" rx="0.7" ry="0.8"/>
					<path class="st0" d="M209,140.5c-0.8,0-1.5-0.7-1.5-1.6s0.7-1.6,1.5-1.6c0.8,0,1.5,0.7,1.5,1.6S209.9,140.5,209,140.5z
						 M209,138.9l-0.7,0L209,138.9C209.1,138.9,209.1,138.9,209,138.9z"/>
				</g>
			</g>
			<g>
				<g>
					<ellipse class="st0" cx="210.9" cy="138.9" rx="0.7" ry="0.8"/>
					<path class="st0" d="M210.9,140.5c-0.8,0-1.5-0.7-1.5-1.6s0.7-1.6,1.5-1.6s1.5,0.7,1.5,1.6S211.8,140.5,210.9,140.5z
						 M210.9,138.9l-0.7,0L210.9,138.9C211,138.9,211,138.9,210.9,138.9z"/>
				</g>
			</g>
		</g>
		<g>
			<g>
				<path class="st0" d="M68.3,141.7c0,0.8,0.6,1.5,1.4,1.5c0.8,0,1.4-0.7,1.4-1.5c0-0.8-0.6-1.5-1.4-1.5
					C68.9,140.2,68.3,140.9,68.3,141.7z M70.7,141.7c0,0.6-0.5,1-1,1c-0.6,0-1-0.5-1-1c0-0.6,0.5-1,1-1
					C70.3,140.6,70.7,141.1,70.7,141.7z"/>
				<path class="st0" d="M69.7,143.9c-1.2,0-2.2-1-2.2-2.2s1-2.2,2.2-2.2c1.2,0,2.2,1,2.2,2.2S70.9,143.9,69.7,143.9z M69.7,141.4
					c-0.1,0-0.2,0.1-0.2,0.3c0,0.3,0.4,0.3,0.4,0C69.9,141.5,69.8,141.4,69.7,141.4z"/>
			</g>
		</g>
		<g>
			<g>
				<ellipse class="st0" cx="148" cy="151.2" rx="0.7" ry="0.7"/>
				<path class="st0" d="M148,152.7c-0.8,0-1.5-0.7-1.5-1.5s0.7-1.5,1.5-1.5c0.8,0,1.5,0.7,1.5,1.5S148.8,152.7,148,152.7z
					 M148,151.1v0.2l0.1-0.1C148.1,151.1,148,151.1,148,151.1z"/>
			</g>
		</g>
		<g>
			<g>
				<ellipse class="st0" cx="101.2" cy="141.6" rx="0.7" ry="0.7"/>
				<path class="st0" d="M101.2,143.1c-0.8,0-1.5-0.7-1.5-1.5s0.7-1.5,1.5-1.5s1.5,0.7,1.5,1.5S102,143.1,101.2,143.1z M101.2,141.5
					v0.2l0.1-0.1C101.3,141.6,101.2,141.5,101.2,141.5z"/>
			</g>
		</g>
		<g>
			<g>
				<g>
					<path class="st0" d="M70.6,141.7c0,0.1,0.1,0.2,0.2,0.2h30.3v9.2c0,0.1,0.1,0.2,0.2,0.2H117c0.1,0,0.2-0.1,0.2-0.2
						c0-0.8,0.6-1.5,1.4-1.5c0.8,0,1.4,0.7,1.4,1.5c0,0.1,0.1,0.2,0.2,0.2c0.1,0,0.2-0.1,0.2-0.2c0-1-0.8-1.9-1.8-1.9
						c-0.9,0-1.7,0.7-1.8,1.7h-15.2v-9.2c0-0.1-0.1-0.2-0.2-0.2H70.8C70.7,141.5,70.6,141.6,70.6,141.7z"/>
					<path class="st0" d="M120.2,152c-0.5,0-1-0.4-1-1c0-0.4-0.3-0.7-0.6-0.7c-0.3,0-0.6,0.3-0.6,0.7c0,0.6-0.4,1-1,1h-15.6
						c-0.5,0-1-0.4-1-1v-8.4H70.8c-0.5,0-1-0.4-1-1c0-0.6,0.4-1,1-1h30.5c0.5,0,1,0.4,1,1v8.4h13.8c0.4-1,1.3-1.7,2.4-1.7
						c1.4,0,2.6,1.2,2.6,2.7C121.2,151.6,120.8,152,120.2,152z"/>
				</g>
			</g>
			<g>
				<g>
					<path class="st0" d="M120,151c0,0.1,0.1,0.2,0.2,0.2c0.1,0,0.2-0.1,0.2-0.2c0-0.8,0.6-1.5,1.4-1.5c0.8,0,1.4,0.7,1.4,1.5
						c0,0.1,0.1,0.2,0.2,0.2c0.1,0,0.2-0.1,0.2-0.2c0-1-0.8-1.9-1.8-1.9C120.8,149.2,120,150,120,151z"/>
					<path class="st0" d="M123.5,152c-0.5,0-1-0.4-1-1c0-0.4-0.3-0.7-0.6-0.7c-0.3,0-0.6,0.3-0.6,0.7c0,0.6-0.4,1-1,1
						c-0.5,0-1-0.4-1-1c0-1.5,1.2-2.7,2.6-2.7c1.4,0,2.6,1.2,2.6,2.7C124.5,151.6,124,152,123.5,152z"/>
				</g>
			</g>
			<g>
				<g>
					<path class="st0" d="M123.3,151c0,0.1,0.1,0.2,0.2,0.2c0.1,0,0.2-0.1,0.2-0.2c0-0.8,0.6-1.5,1.4-1.5c0.8,0,1.4,0.7,1.4,1.5
						c0,0.1,0.1,0.2,0.2,0.2c0.1,0,0.2-0.1,0.2-0.2c0-1-0.8-1.9-1.8-1.9C124.1,149.2,123.3,150,123.3,151z"/>
					<path class="st0" d="M126.7,152c-0.5,0-1-0.4-1-1c0-0.4-0.3-0.7-0.6-0.7s-0.6,0.3-0.6,0.7c0,0.6-0.4,1-1,1c-0.5,0-1-0.4-1-1
						c0-1.5,1.2-2.7,2.6-2.7s2.6,1.2,2.6,2.7C127.7,151.6,127.3,152,126.7,152z"/>
				</g>
			</g>
			<g>
				<g>
					<path class="st0" d="M148.4,182.8V151c0-0.1-0.1-0.2-0.2-0.2h-18c-0.1-0.9-0.9-1.7-1.8-1.7c-1,0-1.8,0.8-1.8,1.9
						c0,0.1,0.1,0.2,0.2,0.2c0.1,0,0.2-0.1,0.2-0.2c0-0.8,0.6-1.5,1.4-1.5c0.8,0,1.4,0.7,1.4,1.5c0,0.1,0.1,0.2,0.2,0.2h18v32
						c0,0.1,0,0.2,0.1,0.2c0,0,0.1,0,0.1,0c0.1,0,0.1,0,0.1-0.1l43.3-44.4h46.9c0.1,0,0.2-0.1,0.2-0.2c0-0.1-0.1-0.2-0.2-0.2h-47
						c-0.1,0-0.1,0-0.1,0.1L148.4,182.8z"/>
					<path class="st0" d="M147.6,184.7v-0.6c-0.3-0.2-0.4-0.5-0.4-0.8V152H130c-0.5,0-1-0.4-1-1c0-0.4-0.3-0.7-0.6-0.7
						c-0.3,0-0.6,0.3-0.6,0.7c0,0.6-0.4,1-1,1c-0.5,0-1-0.4-1-1c0-1.5,1.2-2.7,2.6-2.7c1.1,0,2,0.7,2.4,1.7h17.4c0.5,0,1,0.4,1,1
						v29.8l41.9-42.9l0.5-0.1h47c0.5,0,1,0.4,1,1s-0.4,1-1,1h-46.5l-43.3,44.4l-0.5,0.1c0,0-0.1,0-0.1,0L147.6,184.7z"/>
				</g>
			</g>
		</g>
	</g>
	<g>
		<path class="st1" d="M110.7,167.2H0v-99h110.7V167.2z M1.6,165.6h107.6V69.8H1.6V165.6z"/>
	</g>
	<g>
		<path class="st1" d="M91.2,69.8H20.5l0-0.7c-0.3-5.2-0.6-10.9-0.8-17.2c-1.2-22.2,1.5-34.9,8.9-42.8C34.3,3,43.3,0,56.1,0
			c11.5,0,19.3,2.5,24.7,8c7.3,7.4,10.3,20.5,10.1,43.8c0.1,6.3,0.3,12.1,0.4,17.2L91.2,69.8z M22,68.2h67.6
			c-0.1-4.9-0.3-10.4-0.4-16.4c0.3-22.9-2.6-35.7-9.6-42.7c-5-5.1-12.5-7.5-23.6-7.5c-12.4,0-20.8,2.7-26.4,8.6
			c-7,7.4-9.6,20.2-8.5,41.6C21.5,57.8,21.8,63.2,22,68.2z"/>
	</g>
	<g>
		<path class="st0" d="M54.6,131l-0.5-1.5l-0.7,1.4l-2.1-0.5l-0.1-1.6l-1.1,1.1l-1.9-1l0.3-1.6l-1.3,0.9l-1.6-1.4l0.7-1.4l-1.5,0.5
			l-1.2-1.8l1-1.2l-1.6,0.1l-0.7-2l1.3-0.9l-1.5-0.3l-0.2-2.1l1.5-0.5l-1.4-0.7l0.3-2.1l1.6-0.2l-1.2-1l0.9-2l1.6,0.2l-0.9-1.3
			l1.3-1.7l1.5,0.6l-0.6-1.5l1.7-1.3l1.3,0.9l-0.2-1.6l2-0.8l1,1.2l0.2-1.6l2.1-0.3l0.6,1.4l0.6-1.5l2.1,0.2l0.3,1.5l0.9-1.3l2,0.7
			l-0.1,1.6l1.2-1l1.8,1.2l-0.5,1.5l1.4-0.7l1.4,1.6l-0.9,1.3l1.5-0.3l1,1.9l-1.2,1l1.6,0.1l0.5,2.1l-1.4,0.7l1.5,0.5l-0.1,2.1
			l-1.5,0.4l1.4,0.8l-0.6,2.1l-1.6,0l1.1,1.1l-1.1,1.8l-1.5-0.4l0.8,1.4l-1.5,1.5l-1.4-0.8l0.4,1.5l-1.9,1.1l-1.1-1.1l0,1.6
			l-2.1,0.6l-0.8-1.3l-0.4,1.5L54.6,131z M53.2,127.3l2.4,0.2l2.5-0.4l2.3-1l2-1.5l1.5-1.9l1-2.3l0.4-2.5l-0.2-2.5l-0.8-2.4
			l-1.4-2.1l-1.9-1.7l-2.2-1.1l-2.4-0.6l-2.5,0.1l-2.4,0.7l-2.2,1.3l-1.8,1.8l-1.3,2.1l-0.7,2.4l-0.1,2.5L46,121l1.1,2.2l1.6,1.9
			l2.1,1.4L53.2,127.3z M55.4,127.2c-1.4,0-2.9-0.3-4.1-0.9l-0.8-0.4l3.1-5l0.6,0.2c0.9,0.3,2,0.2,2.9-0.2c0.9-0.5,1.5-1.3,1.8-2.2
			L59,118l5.9,0.2l-0.1,0.9c-0.2,1.5-0.8,2.9-1.6,4.1c-0.9,1.2-2,2.2-3.3,2.9c-1.3,0.7-2.8,1.1-4.3,1.1
			C55.5,127.2,55.4,127.2,55.4,127.2z M52.7,125.2c0.9,0.3,1.8,0.5,2.8,0.4c1.2,0,2.5-0.3,3.6-0.9c1.1-0.6,2-1.4,2.8-2.4
			c0.5-0.8,0.9-1.6,1.2-2.5l-2.9-0.1c-0.5,1.1-1.3,2.1-2.4,2.6c-1.1,0.6-2.3,0.7-3.5,0.5L52.7,125.2z M50.1,125.7l-0.7-0.5
			c-1.2-0.9-2.1-2.1-2.7-3.5c-0.6-1.3-0.9-2.8-0.9-4.3c0.1-1.5,0.5-3,1.2-4.3c0.7-1.3,1.7-2.4,3-3.3l0.7-0.5l2.8,5.2L53,115
			c-0.7,0.6-1.2,1.6-1.2,2.6c0,1,0.4,2,1,2.7l0.4,0.4L50.1,125.7z M50.2,111.7c-0.7,0.6-1.3,1.4-1.8,2.2c-0.6,1.1-0.9,2.3-1,3.5
			c0,1.2,0.2,2.5,0.7,3.6v0c0.4,0.9,0.9,1.6,1.6,2.3l1.5-2.4c-0.7-1-1.1-2.2-1.1-3.4c0-1.2,0.5-2.4,1.3-3.3L50.2,111.7z M55.4,120.9
			c0,0-0.1,0-0.1,0c-0.8,0-1.7-0.4-2.2-1c-0.6-0.6-0.9-1.5-0.9-2.3c0-0.9,0.4-1.7,1-2.2c0.6-0.6,1.4-0.9,2.3-0.9
			c0.9,0,1.7,0.4,2.2,1c0.6,0.6,0.9,1.5,0.9,2.3v0c0,0.8-0.4,1.7-1,2.2C57,120.6,56.2,120.9,55.4,120.9z M55.4,116
			c-0.4,0-0.8,0.2-1.1,0.4c-0.3,0.3-0.5,0.7-0.5,1.1c0,0.4,0.1,0.9,0.4,1.2c0.3,0.3,0.7,0.5,1.1,0.5c0.4,0,0.9-0.1,1.2-0.4
			c0.3-0.3,0.5-0.7,0.5-1.1c0-0.4-0.1-0.9-0.4-1.2C56.3,116.2,55.9,116,55.4,116C55.4,116,55.4,116,55.4,116z M64.9,117.8l-5.9-0.2
			l-0.1-0.6c-0.2-1-0.8-1.8-1.6-2.4c-0.8-0.5-1.9-0.7-2.8-0.4l-0.6,0.2l-2.8-5.2l0.8-0.3c1.4-0.5,2.9-0.8,4.4-0.6
			c1.5,0.1,2.9,0.6,4.2,1.4l0,0c1.3,0.8,2.3,1.9,3.1,3.1c0.8,1.3,1.2,2.7,1.3,4.2L64.9,117.8z M60.3,116.1l2.9,0.1
			c-0.2-0.9-0.5-1.8-1-2.6c-0.6-1.1-1.5-2-2.6-2.6l0,0c-1-0.7-2.2-1.1-3.5-1.2c-0.9-0.1-1.9,0-2.8,0.2l1.3,2.5
			c1.2-0.2,2.4,0.1,3.5,0.7C59.1,113.9,59.9,114.9,60.3,116.1z"/>
	</g>
	<g>
		<g>
			<path class="st1" d="M239.5,131H128.7V32h110.7V131z M130.3,129.4h107.6V33.5H130.3V129.4z"/>
		</g>
		<g>
			<g>
				<path class="st1" d="M225,118.1h-81.9V44.9H225V118.1z M144.7,116.5h78.7V46.4h-78.7V116.5z"/>
			</g>
			<g>
				<g>
					<path class="st1" d="M161.4,80.8c0,0-0.1,0.1-0.1,0.1c0,0-0.1,0-0.1,0c-0.1,0-0.1,0-0.2-0.1c-0.1-0.1-0.2-0.1-0.3-0.2
						c-0.1-0.1-0.3-0.1-0.4-0.2c-0.2-0.1-0.4-0.1-0.6-0.1c-0.3,0-0.6,0.1-0.8,0.2s-0.4,0.3-0.6,0.5s-0.3,0.5-0.4,0.8
						c-0.1,0.3-0.1,0.6-0.1,1c0,0.4,0,0.7,0.1,1c0.1,0.3,0.2,0.6,0.4,0.8c0.2,0.2,0.4,0.4,0.6,0.5c0.2,0.1,0.5,0.2,0.8,0.2
						c0.3,0,0.5,0,0.7-0.1c0.2-0.1,0.3-0.1,0.4-0.2c0.1-0.1,0.2-0.2,0.3-0.2c0.1-0.1,0.2-0.1,0.2-0.1c0.1,0,0.2,0,0.2,0.1l0.3,0.4
						c-0.1,0.2-0.3,0.3-0.5,0.4c-0.2,0.1-0.4,0.2-0.6,0.3c-0.2,0.1-0.4,0.1-0.6,0.2c-0.2,0-0.5,0.1-0.7,0.1c-0.4,0-0.8-0.1-1.1-0.2
						c-0.3-0.1-0.6-0.4-0.9-0.6c-0.3-0.3-0.5-0.6-0.6-1c-0.1-0.4-0.2-0.9-0.2-1.4c0-0.5,0.1-0.9,0.2-1.3c0.1-0.4,0.3-0.8,0.6-1.1
						c0.3-0.3,0.6-0.5,1-0.7c0.4-0.2,0.8-0.2,1.3-0.2c0.5,0,0.9,0.1,1.2,0.2c0.3,0.1,0.7,0.4,0.9,0.6L161.4,80.8z"/>
				</g>
				<g>
					<path class="st1" d="M165.5,79.5c0.4,0,0.7,0.1,1.1,0.2c0.3,0.1,0.6,0.3,0.9,0.6c0.2,0.2,0.4,0.5,0.6,0.9s0.2,0.8,0.2,1.2
						c0,0.2,0,0.3-0.1,0.4c0,0.1-0.1,0.1-0.2,0.1h-4.3c0,0.4,0.1,0.8,0.2,1.1c0.1,0.3,0.2,0.6,0.4,0.8c0.2,0.2,0.4,0.4,0.6,0.5
						c0.2,0.1,0.5,0.1,0.8,0.1c0.3,0,0.5,0,0.7-0.1c0.2-0.1,0.4-0.1,0.5-0.2c0.1-0.1,0.3-0.1,0.4-0.2c0.1-0.1,0.2-0.1,0.3-0.1
						c0.1,0,0.2,0,0.2,0.1l0.3,0.4c-0.1,0.2-0.3,0.3-0.5,0.4c-0.2,0.1-0.4,0.2-0.6,0.3c-0.2,0.1-0.5,0.1-0.7,0.2
						c-0.2,0-0.5,0.1-0.7,0.1c-0.4,0-0.9-0.1-1.2-0.2s-0.7-0.4-1-0.7c-0.3-0.3-0.5-0.7-0.6-1.1c-0.2-0.4-0.2-0.9-0.2-1.5
						c0-0.5,0.1-0.9,0.2-1.3c0.1-0.4,0.3-0.7,0.6-1c0.3-0.3,0.6-0.5,1-0.7C164.6,79.6,165,79.5,165.5,79.5z M165.5,80.4
						c-0.5,0-1,0.2-1.3,0.5c-0.3,0.3-0.5,0.8-0.6,1.3h3.5c0-0.3,0-0.5-0.1-0.7s-0.2-0.4-0.3-0.6c-0.1-0.2-0.3-0.3-0.5-0.4
						C166,80.4,165.8,80.4,165.5,80.4z"/>
				</g>
				<g>
					<path class="st1" d="M169.6,86.1v-6.5h0.7c0.1,0,0.2,0,0.3,0.1c0,0,0.1,0.1,0.1,0.2l0.1,1c0.2-0.4,0.5-0.8,0.8-1
						c0.3-0.2,0.7-0.4,1.1-0.4c0.1,0,0.3,0,0.4,0c0.1,0,0.2,0.1,0.3,0.1l-0.1,0.8c0,0.1-0.1,0.2-0.2,0.2c-0.1,0-0.1,0-0.3,0
						c-0.1,0-0.2,0-0.4,0c-0.2,0-0.4,0-0.5,0.1c-0.2,0.1-0.3,0.2-0.4,0.3c-0.1,0.1-0.2,0.3-0.3,0.4c-0.1,0.2-0.2,0.4-0.3,0.6v4.1
						H169.6z"/>
				</g>
				<g>
					<path class="st1" d="M176.2,86.2c-0.5,0-0.9-0.1-1.2-0.4c-0.3-0.3-0.4-0.7-0.4-1.2v-4h-0.8c-0.1,0-0.1,0-0.2-0.1
						c0,0-0.1-0.1-0.1-0.2v-0.5l1.1-0.1l0.3-2c0-0.1,0-0.1,0.1-0.2c0,0,0.1-0.1,0.2-0.1h0.6v2.2h4.5v6.3h-1.1v-5.5h-3.3v3.9
						c0,0.3,0.1,0.5,0.2,0.6c0.1,0.1,0.3,0.2,0.5,0.2c0.1,0,0.2,0,0.3,0c0.1,0,0.2-0.1,0.2-0.1c0.1,0,0.1-0.1,0.2-0.1
						c0,0,0.1,0,0.1,0c0.1,0,0.1,0,0.2,0.1l0.3,0.5c-0.2,0.2-0.4,0.3-0.7,0.4C176.8,86.2,176.5,86.2,176.2,86.2z M180.5,77.6
						c0,0.1,0,0.2-0.1,0.3c0,0.1-0.1,0.2-0.2,0.3c-0.1,0.1-0.2,0.1-0.3,0.2c-0.1,0-0.2,0.1-0.3,0.1c-0.1,0-0.2,0-0.3-0.1
						c-0.1,0-0.2-0.1-0.3-0.2S179,78,179,77.9c0-0.1-0.1-0.2-0.1-0.3c0-0.1,0-0.2,0.1-0.3c0-0.1,0.1-0.2,0.2-0.3
						c0.1-0.1,0.2-0.1,0.3-0.2c0.1,0,0.2-0.1,0.3-0.1c0.1,0,0.2,0,0.3,0.1c0.1,0,0.2,0.1,0.3,0.2c0.1,0.1,0.1,0.2,0.2,0.3
						C180.5,77.4,180.5,77.5,180.5,77.6z"/>
				</g>
				<g>
					<path class="st1" d="M182.5,86.1v-5.5l-0.7-0.1c-0.1,0-0.2-0.1-0.2-0.1c-0.1,0-0.1-0.1-0.1-0.2v-0.5h1v-0.4
						c0-0.4,0.1-0.8,0.2-1.1c0.1-0.3,0.3-0.6,0.6-0.9s0.6-0.4,0.9-0.6c0.4-0.1,0.8-0.2,1.3-0.2c0.2,0,0.3,0,0.5,0
						c0.2,0,0.3,0.1,0.4,0.1l0,0.6c0,0,0,0.1,0,0.1c0,0-0.1,0-0.1,0c0,0-0.1,0-0.2,0c-0.1,0-0.1,0-0.2,0c-0.8,0-1.3,0.2-1.6,0.5
						c-0.3,0.3-0.5,0.8-0.5,1.4v0.3h3.9v6.3h-1.1v-5.5h-2.7v5.5H182.5z"/>
				</g>
				<g>
					<path class="st1" d="M193.9,80.8c0,0-0.1,0.1-0.1,0.1c0,0-0.1,0-0.1,0c-0.1,0-0.1,0-0.2-0.1c-0.1-0.1-0.2-0.1-0.3-0.2
						c-0.1-0.1-0.3-0.1-0.4-0.2c-0.2-0.1-0.4-0.1-0.6-0.1c-0.3,0-0.6,0.1-0.8,0.2s-0.4,0.3-0.6,0.5s-0.3,0.5-0.4,0.8
						c-0.1,0.3-0.1,0.6-0.1,1c0,0.4,0,0.7,0.1,1c0.1,0.3,0.2,0.6,0.4,0.8c0.2,0.2,0.4,0.4,0.6,0.5c0.2,0.1,0.5,0.2,0.8,0.2
						c0.3,0,0.5,0,0.7-0.1c0.2-0.1,0.3-0.1,0.4-0.2c0.1-0.1,0.2-0.2,0.3-0.2c0.1-0.1,0.2-0.1,0.2-0.1c0.1,0,0.2,0,0.2,0.1l0.3,0.4
						c-0.1,0.2-0.3,0.3-0.5,0.4c-0.2,0.1-0.4,0.2-0.6,0.3c-0.2,0.1-0.4,0.1-0.6,0.2c-0.2,0-0.5,0.1-0.7,0.1c-0.4,0-0.8-0.1-1.1-0.2
						c-0.3-0.1-0.6-0.4-0.9-0.6c-0.3-0.3-0.5-0.6-0.6-1c-0.1-0.4-0.2-0.9-0.2-1.4c0-0.5,0.1-0.9,0.2-1.3c0.1-0.4,0.3-0.8,0.6-1.1
						c0.3-0.3,0.6-0.5,1-0.7c0.4-0.2,0.8-0.2,1.3-0.2c0.5,0,0.9,0.1,1.2,0.2c0.3,0.1,0.7,0.4,0.9,0.6L193.9,80.8z"/>
				</g>
				<g>
					<path class="st1" d="M199.6,86.1c-0.1,0-0.2,0-0.3-0.1c-0.1,0-0.1-0.1-0.1-0.2l-0.1-0.6c-0.2,0.2-0.3,0.3-0.5,0.4
						c-0.2,0.1-0.3,0.2-0.5,0.3c-0.2,0.1-0.4,0.1-0.6,0.2s-0.4,0.1-0.7,0.1c-0.3,0-0.5,0-0.7-0.1c-0.2-0.1-0.4-0.2-0.6-0.3
						c-0.2-0.1-0.3-0.3-0.4-0.5c-0.1-0.2-0.1-0.5-0.1-0.8c0-0.3,0.1-0.5,0.2-0.7c0.1-0.2,0.4-0.4,0.7-0.6s0.7-0.3,1.2-0.4
						c0.5-0.1,1.1-0.2,1.9-0.2V82c0-0.5-0.1-0.9-0.3-1.1c-0.2-0.3-0.5-0.4-1-0.4c-0.3,0-0.5,0-0.7,0.1c-0.2,0.1-0.4,0.1-0.5,0.2
						c-0.1,0.1-0.3,0.2-0.4,0.2c-0.1,0.1-0.2,0.1-0.3,0.1c-0.1,0-0.1,0-0.2-0.1c-0.1,0-0.1-0.1-0.1-0.1l-0.2-0.4
						c0.4-0.3,0.7-0.6,1.2-0.8c0.4-0.2,0.9-0.3,1.4-0.3c0.4,0,0.7,0.1,1,0.2c0.3,0.1,0.5,0.3,0.7,0.5c0.2,0.2,0.3,0.5,0.4,0.8
						c0.1,0.3,0.1,0.6,0.1,1v4.1H199.6z M197.2,85.4c0.2,0,0.4,0,0.5-0.1c0.2,0,0.3-0.1,0.5-0.2c0.1-0.1,0.3-0.2,0.4-0.3
						c0.1-0.1,0.3-0.2,0.4-0.4v-1.3c-0.5,0-1,0.1-1.3,0.1c-0.4,0.1-0.7,0.2-0.9,0.3s-0.4,0.2-0.5,0.4c-0.1,0.1-0.2,0.3-0.2,0.5
						c0,0.2,0,0.3,0.1,0.4c0.1,0.1,0.1,0.2,0.2,0.3c0.1,0.1,0.2,0.1,0.3,0.2C196.9,85.4,197,85.4,197.2,85.4z"/>
				</g>
				<g>
					<path class="st1" d="M203.7,86.2c-0.5,0-0.9-0.1-1.2-0.4c-0.3-0.3-0.4-0.7-0.4-1.2v-4h-0.8c-0.1,0-0.1,0-0.2-0.1
						c0,0-0.1-0.1-0.1-0.2v-0.5l1.1-0.1l0.3-2c0-0.1,0-0.1,0.1-0.2c0,0,0.1-0.1,0.2-0.1h0.6v2.2h1.9v0.8h-1.9v3.9
						c0,0.3,0.1,0.5,0.2,0.6c0.1,0.1,0.3,0.2,0.5,0.2c0.1,0,0.2,0,0.3,0c0.1,0,0.2-0.1,0.2-0.1c0.1,0,0.1-0.1,0.2-0.1
						c0,0,0.1,0,0.1,0c0.1,0,0.1,0,0.2,0.1l0.3,0.5c-0.2,0.2-0.4,0.3-0.7,0.4C204.3,86.2,204,86.2,203.7,86.2z"/>
				</g>
				<g>
					<path class="st1" d="M209,79.5c0.4,0,0.7,0.1,1.1,0.2c0.3,0.1,0.6,0.3,0.9,0.6c0.2,0.2,0.4,0.5,0.6,0.9
						c0.1,0.4,0.2,0.8,0.2,1.2c0,0.2,0,0.3-0.1,0.4c0,0.1-0.1,0.1-0.2,0.1h-4.3c0,0.4,0.1,0.8,0.2,1.1c0.1,0.3,0.2,0.6,0.4,0.8
						c0.2,0.2,0.4,0.4,0.6,0.5c0.2,0.1,0.5,0.1,0.8,0.1c0.3,0,0.5,0,0.7-0.1c0.2-0.1,0.4-0.1,0.5-0.2c0.1-0.1,0.3-0.1,0.4-0.2
						c0.1-0.1,0.2-0.1,0.3-0.1c0.1,0,0.2,0,0.2,0.1l0.3,0.4c-0.1,0.2-0.3,0.3-0.5,0.4c-0.2,0.1-0.4,0.2-0.6,0.3
						c-0.2,0.1-0.5,0.1-0.7,0.2c-0.2,0-0.5,0.1-0.7,0.1c-0.4,0-0.9-0.1-1.2-0.2s-0.7-0.4-1-0.7c-0.3-0.3-0.5-0.7-0.6-1.1
						c-0.2-0.4-0.2-0.9-0.2-1.5c0-0.5,0.1-0.9,0.2-1.3c0.1-0.4,0.3-0.7,0.6-1c0.3-0.3,0.6-0.5,1-0.7C208.1,79.6,208.5,79.5,209,79.5
						z M209,80.4c-0.5,0-1,0.2-1.3,0.5c-0.3,0.3-0.5,0.8-0.6,1.3h3.5c0-0.3,0-0.5-0.1-0.7s-0.2-0.4-0.3-0.6
						c-0.1-0.2-0.3-0.3-0.5-0.4C209.5,80.4,209.3,80.4,209,80.4z"/>
				</g>
			</g>
		</g>
	</g>
</g>
</svg>
