<?xml version="1.0" encoding="utf-8"?>
<!-- Generator: Adobe Illustrator 21.0.2, SVG Export Plug-In . SVG Version: 6.00 Build 0)  -->
<svg version="1.1" id="Layer_1" xmlns="http://www.w3.org/2000/svg" xmlns:xlink="http://www.w3.org/1999/xlink" x="0px" y="0px"
	 viewBox="0 0 300.8 188.8" style="enable-background:new 0 0 300.8 188.8;" xml:space="preserve">
<style type="text/css">
	.st0{fill:#FFFFFF;}
	.st1{fill:#4071B7;}
	.st2{fill:#5D9BD5;}
	.st3{fill:#DEDEDE;}
	.st4{fill:#DCDCDC;}
	.st5{fill:#D8D8D8;}
	.st6{fill:#D7D7D6;}
	.st7{fill:#D4D4D3;}
	.st8{fill:#CDCDCC;}
	.st9{fill:#C9C9C9;}
	.st10{fill:#C8C8C7;}
</style>
<g>
	<path class="st0" d="M227.8,67.1c-1.2,0-2.3,0.1-3.5,0.2C220.2,48.8,203.7,35,184,35c-5.9,0-11.5,1.2-16.7,3.5
		c-7.4-22.1-28.2-38-52.7-38c-25.4,0-46.8,17.1-53.4,40.3c-4.6-1.6-9.6-2.4-14.8-2.4c-25.4,0-46,20.6-46,46
		c0,23.4,17.5,42.7,40.2,45.6c1.6,0.2,3.2,0.4,4.9,0.4h0.9h0h0h180.1c0.2,0,0.3,0,0.5,0c0.2,0,0.5,0,0.7,0c17.7,0,32-14.1,32-31.6
		C259.8,81.3,245.5,67.1,227.8,67.1z"/>
	<path class="st1" d="M227.8,130.8c-0.2,0-0.5,0-0.7,0l-0.5,0h-181c-1.6,0-3.2-0.1-5-0.4C17.5,127.5,0,107.7,0,84.4
		c0-25.6,20.8-46.5,46.5-46.5c4.9,0,9.7,0.8,14.4,2.3c7-23.7,29-40.2,53.8-40.2c24,0,45.2,15.2,53,37.8c5.2-2.2,10.7-3.3,16.4-3.3
		c19.3,0,36.4,13.6,40.7,32.3c1-0.1,2.1-0.2,3.1-0.2c17.9,0,32.5,14.4,32.5,32.1C260.3,116.4,245.7,130.8,227.8,130.8z M227.1,129.8
		c0.3,0,0.5,0,0.7,0c17.3,0,31.5-13.9,31.5-31.1c0-17.1-14.1-31.1-31.5-31.1c-1.1,0-2.3,0.1-3.4,0.2l-0.4,0l-0.1-0.4
		c-4.1-18.5-20.9-32-39.9-32c-5.7,0-11.3,1.2-16.5,3.5l-0.5,0.2l-0.2-0.5C159.3,16.1,138.4,1,114.6,1C90.1,1,68.4,17.4,61.7,41
		l-0.1,0.5L61,41.3c-4.7-1.6-9.6-2.4-14.6-2.4C21.4,38.9,1,59.3,1,84.4c0,22.9,17.1,42.2,39.8,45.1c1.7,0.2,3.3,0.4,4.8,0.4
		L227.1,129.8z"/>
</g>
<g>
	<rect x="115.8" y="86.8" class="st0" width="185" height="56"/>
</g>
<g>
	<path class="st0" d="M268.1,83.4l-0.9,2.4l-4.2-1.2l0.6-2.5l0.1-0.6l-0.4-3.3l-3.1-0.5l-1.4,3l-0.1,0.6l-0.2,2.5l-4.4-0.2l-0.1-2.5
		l-0.1-0.6l-1.1-3.1l-3.1,0.3l-0.6,3.2l0,0.6l0.4,2.5l-4.2,0.9l-0.7-2.4l-0.2-0.5l-1.9-2.7l-3,1l0.3,3.2l0.2,0.6l1,2.3l-3.9,2
		l-1.3-2.2l-0.4-0.5l-2.5-2.1l-2.6,1.7l1,3.1l0.3,0.5l1.5,2L230,94l-1.8-1.8l-0.5-0.4l-2.9-1.4l-2.1,2.3l1.8,2.7l0.4,0.4l2,1.5
		l-2.5,3.6l-2.2-1.3l-0.6-0.2l-3.2-0.7l-1.4,2.8l2.4,2.2l0.5,0.3l2.3,1l-1.5,4.1l-2.4-0.7l-0.6-0.1l-3.2,0.1l-0.7,3.1l2.9,1.5
		l0.6,0.2l2.5,0.4l-0.4,4.3l-2.5-0.1l-0.6,0l-3.1,0.9l0.1,3.1l3.2,0.8l0.6,0l2.5-0.2l0.7,4.3l-2.5,0.5l-0.6,0.2l-2.8,1.7l0.9,3
		l3.3,0l0.6-0.1l2.4-0.9l1.7,4l-2.2,1.1l-0.5,0.3l-2.3,2.3l1.6,2.7l3.2-0.9l0.5-0.3l2.1-1.4l2.7,3.4l-1.9,1.7l-0.4,0.4l-1.6,2.8
		l2.2,2.2l2.8-1.6l0.4-0.4l1.7-1.9l3.4,2.7l-1.4,2.1l-0.3,0.5l-0.9,3.1l2.7,1.6l2.4-2.3l0.3-0.5l1.2-2.2l4,1.7l-0.9,2.4l-0.1,0.6
		l-0.1,3.3l3,0.9l1.7-2.8l0.2-0.6l0.6-2.5l4.3,0.7l-0.3,2.5l0,0.6l0.8,3.2l3.1,0.1l1-3.1l0.1-0.6l-0.1-2.5l4.3-0.4l0.4,2.5l0.2,0.6
		l1.5,2.9l3.1-0.7l0.2-3.3l-0.1-0.6l-0.7-2.4l4.1-1.5l1,2.3l0.3,0.5l2.2,2.4l2.8-1.4l-0.7-3.2l-0.2-0.5l-1.3-2.2l3.6-2.4l1.5,2
		l0.4,0.4l2.7,1.8l2.4-2.1l-1.4-2.9l-0.4-0.5l-1.8-1.8l2.9-3.3l2,1.5l0.5,0.3l3.1,1.1l1.8-2.6l-2.1-2.5l-0.5-0.4l-2.2-1.3l2-3.9
		l2.3,1l0.6,0.2l3.2,0.3l1.1-2.9l-2.6-1.9l-0.6-0.2l-2.4-0.7l1-4.2l2.5,0.4l0.6,0l3.2-0.6l0.3-3.1l-3-1.2l-0.6-0.1l-2.5-0.1
		l-0.1-4.3l2.5-0.2l0.6-0.1l3-1.3l-0.5-3.1l-3.2-0.4l-0.6,0.1l-2.4,0.5l-1.2-4.2l2.4-0.8l0.5-0.3l2.6-2l-1.2-2.9l-3.2,0.4l-0.6,0.2
		l-2.2,1.1l-2.2-3.7l2.1-1.4l0.5-0.4l2-2.6l-1.9-2.5l-3,1.2l-0.5,0.3l-1.9,1.7l-3.1-3.1l1.7-1.9l0.3-0.5l1.3-3l-2.5-1.9l-2.6,2
		l-0.4,0.4l-1.4,2.1l-3.7-2.2l1.2-2.2l0.2-0.5l0.5-3.2l-2.9-1.3l-2,2.5L268.1,83.4z M226.4,122.9c-0.5-4.5,0-9.1,1.5-13.4
		c1.6-4.3,4.1-8.2,7.5-11.3c3.3-3.1,7.4-5.4,11.7-6.7l2.5,14.5c-3.7,1.6-6.7,4.7-8,8.5c-1.4,3.8-1.1,8.1,0.7,11.7l-11.3,9.5
		C228.6,131.8,227,127.4,226.4,122.9z M281.5,132.4c-2,4.1-5,7.7-8.6,10.4c-3.7,2.7-7.9,4.6-12.4,5.4c-4.5,0.8-9.1,0.5-13.5-0.8
		c-4.4-1.3-8.4-3.7-11.7-6.8l11.3-9.5c3.2,2.4,7.4,3.4,11.4,2.7c3.9-0.7,7.5-3.1,9.7-6.4L281.5,132.4z M263,122.3
		c-0.7,2-2.3,3.7-4.2,4.6c-1.9,0.9-4.2,1-6.2,0.3c-2-0.7-3.7-2.3-4.6-4.2c-0.9-1.9-1-4.2-0.3-6.2c0.7-2,2.3-3.7,4.2-4.6
		c1.9-0.9,4.2-1,6.2-0.3c2,0.7,3.7,2.3,4.6,4.2C263.6,118,263.7,120.3,263,122.3z M277.7,100.8c2.9,3.5,5,7.7,6,12.1
		c1,4.4,1,9.1-0.1,13.5l-13.8-5c0.5-4-0.7-8.1-3.3-11.2c-2.6-3.1-6.5-5-10.5-5.2l-2.6-14.5c4.5-0.3,9.1,0.5,13.3,2.3
		C271,94.5,274.8,97.3,277.7,100.8z"/>
	<path class="st2" d="M255.5,161.7l-3.9-0.1l-0.9-3.7l0-0.6l0.2-2.1l-3.4-0.6l-0.4,2l-0.3,0.7l-1.9,3.1l-3.7-1.1l0.1-3.7l0.1-0.6
		l0.7-2l-3.1-1.4l-0.9,1.8l-0.4,0.6l-2.6,2.5l-3.3-2l1-3.6l0.3-0.5l1.2-1.7l-2.7-2.1l-1.3,1.5l-0.6,0.5l-3.2,1.8l-2.7-2.8l1.9-3.2
		l0.4-0.4l1.6-1.4l-2.1-2.7l-1.7,1.1l-0.6,0.3l-3.6,1l-2-3.4l2.6-2.7l0.5-0.3l1.9-0.9l-1.3-3.1l-1.9,0.7l-0.7,0.2l-3.7,0l-1.1-3.7
		l3.1-1.9l0.6-0.3l2.1-0.5l-0.5-3.4l-2,0.2l-0.7,0l-3.5-0.9l-0.1-3.9l3.6-1.1l0.6,0l2.1,0.1l0.3-3.4l-2-0.3l-0.7-0.2l-3.2-1.7
		l0.9-3.8l3.6-0.2l0.7,0.1l2,0.6l1.2-3.2l-1.9-0.8l-0.7-0.4l-2.7-2.5l1.8-3.5l3.6,0.8l0.6,0.3l1.8,1.1l1.9-2.8l-1.6-1.3l-0.5-0.5
		l-2-3.1l2.6-2.9l3.4,1.7l0.5,0.4l1.5,1.5l2.6-2.2l-1.2-1.6l-0.4-0.6l-1.2-3.4l3.2-2.2l2.8,2.4l0.4,0.5l1.1,1.8l3-1.5l-0.8-1.9
		l-0.2-0.6l-0.3-3.7l3.7-1.3l2.1,3.1l0.2,0.5l0.6,2l3.3-0.7l-0.3-2l0-0.7l0.7-3.6l3.9-0.4l1.3,3.4l0.1,0.7l0,2.1l3.4,0.1l0.2-2
		l0.2-0.7l1.5-3.3l3.8,0.6l0.4,3.7l-0.1,0.6l-0.5,2.1l3.3,1l0.7-2l0.3-0.6l2.3-2.8l3.6,1.6l-0.5,3.7l-0.2,0.5l-1,1.9l2.9,1.7
		l1.2-1.7l0.5-0.6l2.9-2.2l3.1,2.4l-1.4,3.5l-0.3,0.5l-1.4,1.6l2.4,2.4l1.5-1.3l0.6-0.4l3.5-1.4l2.4,3.1l-2.3,3l-0.5,0.4l-1.7,1.2
		l1.7,2.9l1.8-0.9l0.6-0.2l3.7-0.5l1.5,3.6l-2.9,2.3l-0.5,0.3l-2,0.7l0.9,3.3l2-0.4l0.7-0.1l3.7,0.4l0.6,3.9l-3.3,1.5l-0.7,0.2
		l-2.1,0.2l0.1,3.4l2,0.1l0.8,0.1l3.4,1.3l-0.4,3.9l-3.6,0.6l-0.7,0l-2.1-0.3l-0.8,3.3l1.9,0.6l0.7,0.3l3,2.1l-1.3,3.6l-3.7-0.3
		l-0.6-0.2l-1.9-0.8l-1.6,3l1.7,1l0.5,0.4l2.4,2.8l-2.2,3.2l-3.5-1.2l-0.5-0.3l-1.6-1.3l-2.3,2.5l1.4,1.4l0.5,0.6l1.6,3.3l-2.9,2.6
		l-3.1-2.1l-0.4-0.4l-1.3-1.7l-2.8,1.9l1,1.8l0.3,0.7l0.7,3.6l-3.5,1.8l-2.5-2.8l-0.3-0.5l-0.8-1.9l-3.2,1.1l0.6,2l0.1,0.7l-0.2,3.7
		l-3.8,0.8l-1.7-3.3l-0.2-0.6l-0.3-2.1l-3.4,0.3l0.1,2l-0.1,0.7L255.5,161.7z M252.5,160.5l2.4,0.1l0.8-2.7l0-0.5l-0.1-2.9l5.3-0.5
		l0.4,2.9l0.1,0.5l1.3,2.5l2.3-0.5l0.1-2.8l-0.1-0.5l-0.8-2.8l5-1.8l1.2,2.7l0.2,0.4l1.9,2.1l2.1-1.1l-0.6-2.8l-0.2-0.5l-1.5-2.5
		l4.4-3l2.1,2.7l2.4,1.6l1.8-1.6l-1.2-2.5l-0.3-0.4l-2.1-2.1l3.5-4l2.3,1.8l0.4,0.2l2.7,0.9l1.3-2l-1.9-2.2l-0.4-0.3l-2.5-1.5
		l2.4-4.7l2.7,1.2l0.5,0.1l2.8,0.2l0.8-2.2l-2.3-1.6l-0.5-0.2l-2.8-0.8l1.2-5.2l2.9,0.5l0.5,0l2.8-0.5l0.2-2.4l-2.6-1l-0.5-0.1
		l-2.9-0.1l-0.1-5.3l3-0.3l0.5-0.1l2.5-1.1l-0.4-2.4l-2.9-0.3l-0.5,0.1l-2.8,0.6l-1.5-5.1l2.8-1l0.4-0.2l2.2-1.8l-0.9-2.2l-2.9,0.4
		l-0.5,0.2l-2.6,1.3l-2.7-4.6l2.8-2l1.7-2.3l-1.4-1.9l-2.7,1.1l-0.4,0.3l-2.2,1.9l-3.7-3.8l2-2.2l0.3-0.4l1.1-2.6l-1.9-1.5l-2.3,1.7
		l-0.4,0.4l-1.6,2.4l-4.5-2.7l1.4-2.7l0.2-0.4l0.4-2.8l-2.2-1l-1.8,2.2l-0.2,0.5l-1,2.8l-5.1-1.5l0.7-2.9l0-0.5l-0.3-2.8l-2.3-0.4
		l-1.2,2.6l-0.1,0.5l-0.3,2.9l-5.3-0.2l-0.1-3l-0.1-0.5l-1-2.6l-2.4,0.2l-0.5,2.8l0,0.5l0.4,2.9l-5.2,1.1l-1-3.3l-1.6-2.3l-2.2,0.8
		l0.2,2.9l0.1,0.5l1.2,2.7l-4.7,2.4l-1.5-2.6l-0.3-0.4l-2.1-1.8l-2,1.3l0.9,2.7l0.3,0.5l1.8,2.3l-4,3.5l-2.1-2.1l-0.4-0.3L225,91
		l-1.6,1.8l1.5,2.4l0.4,0.4l2.3,1.8l-3,4.4l-2.6-1.5l-0.5-0.2l-2.7-0.6l-1.1,2.1l2.1,1.9l0.5,0.3l2.7,1.2l-1.8,5l-2.9-0.9l-0.5-0.1
		l-2.8,0.1l-0.5,2.3l2.5,1.3l0.5,0.1l2.9,0.5l-0.5,5.3l-3-0.1l-0.5,0l-2.7,0.8l0.1,2.4l2.7,0.7l0.5,0l2.9-0.3l0.8,5.2l-2.9,0.6
		l-0.5,0.2l-2.4,1.4l0.6,2.3l2.8,0l0.5-0.1l2.8-1l2.1,4.9l-3.1,1.6l-2,2l1.2,2l2.8-0.8l0.4-0.2l2.4-1.6l3.2,4.2l-2.3,2l-0.3,0.4
		l-1.4,2.5l1.7,1.7l2.5-1.4l0.4-0.4l1.9-2.2l4.2,3.3l-1.7,2.5l-0.2,0.4l-0.8,2.7l2,1.2l2-2l0.3-0.4l1.3-2.6l4.8,2.1l-1,2.8l-0.1,0.5
		l-0.1,2.8l2.3,0.7l1.5-2.4l0.2-0.5l0.6-2.9l5.2,0.9l-0.3,3l0,0.5L252.5,160.5z M255.4,149.1c-2.9,0-5.8-0.4-8.6-1.3
		c-4.4-1.4-8.6-3.7-11.9-6.9l-0.4-0.4l12-10.1l0.3,0.2c3.1,2.3,7.2,3.3,11,2.7c3.8-0.7,7.3-3,9.4-6.2l0.2-0.3l14.7,5.4l-0.2,0.5
		c-2.1,4.1-5.1,7.8-8.8,10.6c-3.7,2.8-8.1,4.7-12.6,5.5C258.8,149,257.1,149.1,255.4,149.1z M236,140.6c3.1,2.9,7,5,11.1,6.3
		c4.2,1.3,8.8,1.6,13.2,0.8c4.4-0.8,8.6-2.6,12.2-5.3c3.4-2.6,6.3-5.9,8.2-9.7l-12.9-4.7c-2.3,3.3-5.9,5.6-9.8,6.3
		c-4,0.7-8.2-0.3-11.4-2.6L236,140.6z M231,136.3l-0.3-0.5c-2.5-3.8-4.2-8.3-4.7-12.9c-0.6-4.6,0-9.3,1.6-13.6
		c1.6-4.4,4.2-8.3,7.6-11.5c3.4-3.2,7.5-5.5,11.9-6.8l0.5-0.2l2.7,15.4l-0.4,0.2c-3.5,1.5-6.5,4.5-7.8,8.2
		c-1.3,3.6-1.1,7.8,0.7,11.3l0.2,0.4L231,136.3z M246.8,92.2c-4.1,1.3-7.9,3.5-11,6.4c-3.2,3-5.8,6.9-7.3,11.1
		c-1.5,4.2-2.1,8.8-1.5,13.2v0c0.5,4.3,2,8.4,4.3,12l10.6-8.8c-1.7-3.6-2-8-0.6-11.7c1.4-3.8,4.3-6.9,8-8.6L246.8,92.2z
		 M255.4,128.1c-1,0-2-0.2-3-0.5c-2.1-0.8-3.9-2.4-4.8-4.5c-1-2.1-1.1-4.5-0.3-6.6c0.8-2.2,2.4-3.9,4.5-4.9c2-1,4.4-1.1,6.6-0.3
		c2.1,0.8,3.9,2.4,4.9,4.5c1,2,1.1,4.4,0.3,6.6l0,0c-0.8,2.1-2.4,3.9-4.5,4.9C257.9,127.8,256.6,128.1,255.4,128.1z M255.4,111.9
		c-1.1,0-2.2,0.2-3.2,0.7c-1.8,0.8-3.3,2.4-4,4.3c-0.7,1.8-0.6,4,0.3,5.8c0.8,1.8,2.4,3.3,4.3,3.9c1.9,0.7,4,0.6,5.8-0.2
		c1.8-0.9,3.3-2.4,3.9-4.3c0.7-1.9,0.6-4-0.3-5.8c-0.8-1.8-2.4-3.3-4.3-3.9C257.1,112,256.3,111.9,255.4,111.9z M284,127l-14.8-5.4
		l0.1-0.4c0.5-3.8-0.7-7.9-3.2-10.8c-2.5-3-6.3-4.8-10.1-5l-0.4,0l-2.7-15.4l0.6,0c4.6-0.3,9.3,0.5,13.5,2.3c4.3,1.8,8.1,4.7,11,8.2
		c3,3.5,5.1,7.8,6.2,12.3c1.1,4.5,1,9.2-0.1,13.7L284,127z M270.4,121l12.9,4.7c0.9-4.2,0.9-8.6-0.1-12.7c-1-4.4-3.1-8.5-5.9-11.9
		l0,0c-2.9-3.4-6.5-6.2-10.7-7.9c-3.9-1.7-8.3-2.5-12.5-2.3l2.4,13.6c4,0.3,7.8,2.3,10.4,5.4C269.5,112.8,270.8,117,270.4,121z"/>
</g>
<g>
	<path class="st0" d="M172.4,85.9l-1.1,3.1l-5.5-1.6l0.8-3.2l0.1-0.8l-0.5-4.3l-4.1-0.7l-1.8,3.9l-0.2,0.8l-0.3,3.3l-5.7-0.2
		l-0.1-3.3l-0.1-0.8l-1.5-4l-4.1,0.4l-0.8,4.2l0,0.8l0.5,3.3l-5.6,1.2l-0.9-3.2l-0.3-0.7l-2.5-3.5l-3.9,1.4l0.3,4.3l0.2,0.8l1.3,3
		l-5.1,2.6l-1.7-2.9l-0.5-0.6l-3.3-2.8l-3.4,2.3l1.4,4.1l0.4,0.7l2,2.6l-4.3,3.8l-2.3-2.3l-0.6-0.5l-3.9-1.9l-2.7,3.1l2.3,3.6
		l0.6,0.5l2.6,2L115,109l-2.8-1.7l-0.7-0.3l-4.2-0.9l-1.9,3.7l3.2,2.9l0.7,0.4l3,1.3l-2,5.4l-3.2-0.9l-0.8-0.1l-4.3,0.2l-0.9,4
		l3.8,2l0.7,0.2l3.3,0.5l-0.6,5.7l-3.3-0.1l-0.8,0.1l-4.1,1.3l0.1,4.1l4.2,1l0.8,0l3.3-0.3l0.9,5.7l-3.2,0.7l-0.7,0.3l-3.7,2.2
		l1.1,4l4.3,0l0.7-0.2l3.1-1.1l2.2,5.3l-3,1.5l-0.7,0.4l-3,3.1l2.1,3.6l4.2-1.1l0.7-0.3l2.7-1.9l3.5,4.5l-2.5,2.2l-0.5,0.6l-2.1,3.7
		l2.9,2.9l3.7-2.1l0.6-0.5l2.2-2.5l4.5,3.5l-1.9,2.7l-0.4,0.7l-1.1,4.2l3.6,2.1l3.1-3l0.4-0.7l1.5-2.9l5.2,2.3l-1.1,3.1l-0.2,0.8
		l-0.1,4.3l4,1.2l2.3-3.7l0.3-0.7l0.7-3.2l5.7,0.9l-0.3,3.3l0,0.8l1,4.2l4.1,0.1l1.3-4.1l0.1-0.8l-0.1-3.3l5.7-0.5l0.5,3.3l0.2,0.8
		l2,3.8l4-0.9l0.2-4.3l-0.1-0.8l-0.9-3.2l5.4-1.9l1.3,3.1l0.4,0.7l2.9,3.2l3.7-1.9l-0.9-4.2l-0.3-0.7l-1.7-2.9l4.7-3.2l2,2.6
		l0.5,0.6l3.6,2.4l3.1-2.7l-1.9-3.9l-0.5-0.6l-2.3-2.4l3.8-4.3l2.6,2l0.7,0.4l4.1,1.4l2.3-3.4l-2.8-3.3l-0.6-0.5l-2.8-1.7l2.6-5.1
		l3,1.3l0.8,0.2l4.3,0.3l1.4-3.9l-3.5-2.5l-0.7-0.3l-3.2-0.9l1.3-5.6l3.3,0.5l0.8,0l4.2-0.7l0.4-4.1l-4-1.6l-0.8-0.1l-3.3-0.1
		l-0.1-5.7l3.3-0.3l0.8-0.2l3.9-1.7l-0.6-4.1l-4.3-0.5l-0.8,0.1l-3.2,0.7l-1.6-5.5l3.1-1.1l0.7-0.3l3.4-2.7l-1.6-3.8l-4.3,0.6
		l-0.7,0.3l-3,1.5l-2.9-4.9l2.7-1.9l0.6-0.5l2.6-3.4l-2.5-3.3l-4,1.6l-0.7,0.4l-2.5,2.2l-4-4.1l2.2-2.5l0.4-0.6l1.7-4l-3.3-2.5
		l-3.5,2.6l-0.5,0.6l-1.9,2.7l-4.9-2.9l1.5-2.9l0.3-0.7l0.6-4.3l-3.8-1.7l-2.7,3.4L172.4,85.9z M117.5,138c-0.7-5.9,0-12.1,2-17.7
		c2.1-5.6,5.4-10.8,9.8-14.9c4.4-4.1,9.7-7.2,15.5-8.9l3.4,19.1c-4.9,2-8.8,6.2-10.6,11.2c-1.8,5-1.5,10.7,1,15.4l-14.9,12.5
		C120.4,149.8,118.3,144,117.5,138z M190.1,150.6c-2.7,5.4-6.6,10.1-11.4,13.7c-4.8,3.6-10.5,6-16.4,7.1c-5.9,1-12,0.7-17.8-1.1
		c-5.8-1.7-11.1-4.8-15.4-9l14.9-12.5c4.2,3.2,9.8,4.5,15,3.6c5.2-0.9,10-4.1,12.8-8.5L190.1,150.6z M165.8,137.2
		c-1,2.6-3,4.9-5.5,6c-2.5,1.2-5.6,1.3-8.2,0.3c-2.6-0.9-4.9-3-6-5.5c-1.2-2.5-1.3-5.6-0.4-8.2c1-2.6,3-4.9,5.6-6
		c2.5-1.2,5.5-1.3,8.2-0.4c2.6,1,4.9,3,6,5.5C166.6,131.5,166.7,134.5,165.8,137.2z M185.2,108.8c3.9,4.6,6.6,10.1,8,15.9
		c1.4,5.9,1.3,12-0.1,17.8l-18.3-6.6c0.7-5.2-0.9-10.7-4.3-14.8c-3.4-4-8.5-6.6-13.8-6.9l-3.4-19.1c6-0.4,12,0.7,17.6,3
		C176.4,100.5,181.3,104.2,185.2,108.8z"/>
	<path class="st2" d="M155.8,188.8l-4.9-0.2l-1.1-4.7l0-0.8l0.3-2.9l-4.7-0.8l-0.6,2.8l-0.3,0.9l-2.5,4l-4.7-1.4l0.1-4.8l0.2-0.8
		l1-2.7l-4.4-1.9l-1.3,2.5l-0.5,0.8l-3.4,3.2l-4.2-2.5l1.3-4.6l0.4-0.7l1.6-2.4l-3.8-2.9l-1.9,2.1l-0.7,0.6l-4.1,2.3l-3.4-3.5
		l2.4-4.1l0.5-0.6l2.2-1.9l-2.9-3.8l-2.4,1.6l-0.8,0.4l-4.6,1.3l-2.5-4.2l3.4-3.4l0.7-0.4l2.6-1.3l-1.9-4.4l-2.7,1l-0.9,0.2l-4.7,0
		l-1.3-4.7l4-2.4l0.8-0.3l2.9-0.6l-0.7-4.7l-2.8,0.3l-0.9,0l-4.5-1.1l-0.2-4.9l4.6-1.4l0.8-0.1l2.9,0.1l0.5-4.8l-2.8-0.4l-0.9-0.3
		l-4.1-2.2l1.1-4.8l4.7-0.2l0.9,0.1l2.8,0.8l1.7-4.5l-2.6-1.1l-0.8-0.5l-3.4-3.2l2.2-4.4l4.6,1l0.8,0.3l2.5,1.5l2.7-4l-2.2-1.8
		l-0.7-0.7l-2.5-3.9l3.2-3.6l4.3,2.1l0.6,0.5l2,2.1l3.6-3.2l-1.7-2.2l-0.5-0.8l-1.5-4.4l4-2.7l3.6,3.1l0.5,0.6l1.5,2.5l4.3-2.2
		l-1.1-2.6l-0.2-0.8l-0.4-4.8l4.6-1.6l2.7,3.9l0.3,0.7l0.8,2.8l4.7-1l-0.4-2.8l0-0.9l0.8-4.7l4.9-0.4l1.6,4.4l0.2,0.9l0.1,2.9
		l4.8,0.2l0.3-2.8l0.2-0.9l2-4.3l4.8,0.8l0.5,4.7l-0.1,0.8l-0.7,2.8l4.6,1.3l1-2.7l0.4-0.8l2.9-3.7l4.5,2l-0.7,4.7l-0.3,0.7
		l-1.3,2.6l4.1,2.4l1.6-2.3l0.6-0.7l3.8-2.8l3.9,3l-1.8,4.4l-0.4,0.6l-1.9,2.2l3.4,3.4l2.1-1.9l0.7-0.5l4.4-1.8l3,3.9L198,105
		l-0.6,0.5l-2.4,1.6l2.4,4.1l2.5-1.3l0.8-0.3l4.8-0.7l1.9,4.5l-3.8,3l-0.7,0.3l-2.7,1l1.3,4.6l2.8-0.6l0.9-0.1l4.8,0.5l0.7,4.9
		l-4.3,1.9l-0.8,0.2l-2.9,0.3l0.1,4.8l2.8,0.1l0.9,0.1l4.4,1.7l-0.5,4.9l-4.7,0.8l-0.8,0l-2.9-0.5L201,146l2.7,0.8l0.9,0.4l3.8,2.7
		l-1.7,4.6l-4.8-0.4l-0.8-0.2l-2.7-1.2l-2.2,4.3l2.4,1.4l0.7,0.5l3.1,3.6l-2.8,4.1l-4.5-1.6l-0.7-0.4l-2.3-1.8l-3.2,3.6l2,2l0.6,0.7
		l2,4.2l-3.7,3.2l-4-2.7l-0.5-0.6l-1.8-2.3l-4,2.7l1.4,2.5l0.4,0.9l0.9,4.6l-4.4,2.2l-3.2-3.6l-0.4-0.7l-1.1-2.7l-4.5,1.6l0.8,2.7
		l0.2,0.9l-0.2,4.7l-4.8,1.1l-2.2-4.2l-0.2-0.8l-0.4-2.9l-4.8,0.4l0.1,2.9l-0.1,0.9L155.8,188.8z M151.7,187.7l3.4,0.1l1.2-3.7
		l0.1-0.7l-0.1-3.7l6.7-0.6l0.6,3.7l0.2,0.6l1.8,3.4l3.3-0.7l0.2-3.9l-0.1-0.7l-1-3.6l6.3-2.2l1.5,3.5l0.3,0.6l2.6,2.9l3-1.5
		l-0.8-3.8l-0.3-0.7l-1.9-3.2l5.5-3.7l2.3,3l0.5,0.5l3.2,2.1l2.5-2.2l-1.7-3.5l-0.4-0.6l-2.6-2.6l4.4-5l3,2.3l0.6,0.3l3.7,1.3
		l1.9-2.8l-2.5-3l-0.6-0.4l-3.2-1.9l3-5.9l3.5,1.5l0.6,0.2l3.8,0.3l1.2-3.2l-3.1-2.2l-0.7-0.3l-3.6-1l1.5-6.5l3.7,0.6l0.7,0l3.8-0.7
		l0.3-3.4l-3.6-1.4l-0.7-0.1l-3.7-0.1l-0.2-6.7l3.8-0.3l0.7-0.2l3.5-1.6l-0.5-3.3l-3.9-0.4l-0.7,0.1l-3.6,0.8l-1.9-6.4l3.6-1.3
		l0.6-0.3l3-2.4l-1.3-3.1l-3.9,0.5l-0.6,0.2l-3.3,1.7l-3.4-5.7l3.1-2.1l0.5-0.4l2.3-3.1l-2.1-2.7l-3.6,1.5l-0.6,0.4l-2.8,2.5
		l-4.7-4.7l2.5-2.8l0.4-0.6l1.5-3.6l-2.7-2.1l-3.1,2.3l-0.5,0.5l-2.1,3.1l-5.7-3.4l1.7-3.4l0.2-0.6l0.5-3.8l-3.1-1.4l-2.4,3
		l-0.3,0.6l-1.3,3.5l-6.4-1.9l0.9-3.7l0.1-0.7l-0.4-3.9l-3.3-0.5l-1.6,3.5l-0.1,0.7l-0.4,3.7l-6.7-0.2l-0.1-3.8l-0.1-0.7l-1.3-3.6
		l-3.4,0.3l-0.7,3.8l0,0.7l0.6,3.7l-6.5,1.4l-1-3.7l-0.2-0.6l-2.2-3.2l-3.2,1.1l0.3,3.9l0.2,0.7l1.5,3.4l-6,3l-1.9-3.3l-0.4-0.5
		l-2.9-2.5l-2.8,1.9l1.2,3.7l0.4,0.6l2.3,2.9l-5,4.4l-2.7-2.7l-0.5-0.4l-3.5-1.7l-2.2,2.5l2.1,3.3l0.5,0.5l2.9,2.3l-3.8,5.5l-3.3-2
		l-0.7-0.3l-3.7-0.8l-1.5,3l2.8,2.6l0.6,0.4l3.4,1.5l-2.3,6.3l-3.6-1.1l-0.7-0.1l-3.8,0.2l-0.8,3.3l3.4,1.8l0.7,0.2l3.7,0.6
		l-0.7,6.6l-3.8-0.1l-0.6,0.1l-3.7,1.1l0.1,3.4l3.8,0.9l0.7,0l3.7-0.3l1,6.6l-3.7,0.8l-0.7,0.3l-3.3,2l0.9,3.2l3.9,0l0.7-0.2
		l3.5-1.3l2.6,6.1l-3.4,1.7l-0.6,0.4l-2.7,2.8l1.7,2.9l3.8-1l0.6-0.3l3.1-2.1l4.1,5.3l-2.9,2.5l-0.4,0.5l-1.9,3.4l2.4,2.4l3.4-1.9
		l0.5-0.5l2.5-2.8l5.3,4.1l-2.2,3.1l-0.3,0.6l-1,3.7l2.9,1.7l2.8-2.7l0.4-0.6l1.7-3.3l6.1,2.7l-1.3,3.5l-0.1,0.7l-0.1,3.9l3.2,0.9
		l2-3.3l0.2-0.7l0.8-3.7l6.6,1.1l-0.4,3.7l0,0.7L151.7,187.7z M155.7,172.4c-3.8,0-7.6-0.6-11.3-1.7c-5.8-1.8-11.2-4.9-15.6-9.1
		l-0.4-0.4l15.6-13.1l0.3,0.2c4.1,3.1,9.5,4.4,14.6,3.5c5-0.9,9.7-4,12.5-8.3l0.2-0.3l19.1,7l-0.2,0.5c-2.7,5.4-6.7,10.2-11.6,13.9
		c-4.9,3.6-10.6,6.1-16.6,7.2C160.2,172.2,158,172.4,155.7,172.4z M129.9,161.3c4.2,3.9,9.3,6.8,14.8,8.5c5.6,1.7,11.7,2.1,17.5,1
		c5.8-1,11.4-3.4,16.2-7c4.6-3.4,8.4-7.9,11-13l-17.3-6.3c-3,4.4-7.8,7.5-12.9,8.4c-5.2,0.9-10.8-0.4-15.1-3.5L129.9,161.3z
		 M123.6,155.5l-0.3-0.5c-3.3-5-5.5-10.9-6.2-16.9c-0.7-6,0-12.2,2.1-17.9c2.1-5.8,5.5-11,10-15.1c4.4-4.2,9.9-7.3,15.7-9l0.5-0.2
		l3.5,20.1l-0.4,0.2c-4.7,2-8.6,6-10.3,10.9c-1.8,4.8-1.4,10.4,0.9,15l0.2,0.4L123.6,155.5z M144.5,97.3c-5.5,1.7-10.5,4.6-14.7,8.6
		c-4.3,4-7.7,9.1-9.7,14.7c-2,5.6-2.7,11.6-2,17.4v0c0.7,5.7,2.7,11.2,5.8,16l14.2-11.9c-2.3-4.8-2.6-10.5-0.8-15.4
		c1.8-5,5.7-9.2,10.5-11.3L144.5,97.3z M155.7,144.7c-1.3,0-2.6-0.2-3.8-0.7c-2.7-1-5.1-3.2-6.3-5.8c-1.2-2.7-1.4-5.8-0.4-8.6
		c1-2.8,3.2-5.1,5.8-6.3c2.6-1.3,5.8-1.4,8.6-0.4c2.8,1,5.1,3.1,6.3,5.8c1.2,2.7,1.4,5.8,0.4,8.6l0,0c-1,2.8-3.1,5.1-5.8,6.3
		C159,144.4,157.3,144.7,155.7,144.7z M155.7,123.3c-1.5,0-3,0.3-4.3,0.9c-2.4,1.1-4.4,3.2-5.3,5.7c-0.9,2.5-0.8,5.4,0.4,7.8
		c1.1,2.4,3.3,4.4,5.7,5.3c2.5,0.9,5.4,0.8,7.8-0.3c2.4-1.1,4.4-3.2,5.3-5.8c0.9-2.5,0.8-5.4-0.4-7.8c-1.1-2.4-3.2-4.4-5.7-5.3
		C158.1,123.5,156.9,123.3,155.7,123.3z M193.4,143.2l-19.2-7l0.1-0.4c0.7-5.1-0.9-10.5-4.2-14.4c-3.3-3.9-8.3-6.4-13.4-6.7l-0.4,0
		l-3.5-20.1l0.6,0c6-0.4,12.2,0.7,17.8,3.1c5.6,2.4,10.6,6.1,14.5,10.8c3.9,4.6,6.7,10.2,8.1,16.1c1.4,5.9,1.4,12.1-0.1,18.1
		L193.4,143.2z M175.3,135.6l17.4,6.3c1.3-5.6,1.3-11.5-0.1-17c-1.4-5.8-4.1-11.2-7.9-15.7l0,0c-3.8-4.5-8.7-8.2-14.1-10.5
		c-5.3-2.3-11.1-3.3-16.8-3l3.2,18.2c5.2,0.4,10.4,3,13.8,7C174.2,124.9,175.9,130.3,175.3,135.6z"/>
</g>
<g>
	<path class="st3" d="M288.3,164.8C288.3,164.8,288.3,164.8,288.3,164.8C288.3,164.8,288.3,164.8,288.3,164.8L288.3,164.8z"/>
</g>
<g>
	<path class="st4" d="M287.1,163.8C287.1,163.8,287.2,163.8,287.1,163.8C287.2,163.8,287.1,163.8,287.1,163.8L287.1,163.8z"/>
</g>
<g>
	<path class="st5" d="M284.6,161.8C284.7,161.8,284.7,161.8,284.6,161.8C284.7,161.8,284.7,161.8,284.6,161.8L284.6,161.8z"/>
</g>
<g>
	<path class="st6" d="M283.6,160.6C283.7,160.6,283.7,160.6,283.6,160.6C283.7,160.6,283.6,160.6,283.6,160.6
		C283.6,160.6,283.6,160.6,283.6,160.6z"/>
</g>
<g>
	<path class="st7" d="M282.3,159.3C282.3,159.3,282.4,159.3,282.3,159.3C282.3,159.3,282.3,159.3,282.3,159.3L282.3,159.3z"/>
</g>
<g>
	<path class="st8" d="M278.7,155.6C278.7,155.6,278.7,155.6,278.7,155.6C278.7,155.6,278.6,155.6,278.7,155.6
		C278.6,155.6,278.6,155.6,278.7,155.6z"/>
</g>
<g>
	<path class="st8" d="M278.7,155.6c0,0,0.1,0.1,0.1,0.1C278.8,155.7,278.7,155.6,278.7,155.6C278.7,155.6,278.7,155.6,278.7,155.6z"
		/>
</g>
<g>
	<path class="st9" d="M277.2,154.1C277.2,154.1,277.2,154.1,277.2,154.1C277.2,154.2,277.2,154.1,277.2,154.1L277.2,154.1z"/>
</g>
<g>
	<path class="st10" d="M276.9,153.9C277,153.9,277,153.9,276.9,153.9C277,153.9,276.9,153.9,276.9,153.9
		C276.9,153.8,276.9,153.9,276.9,153.9z"/>
</g>
<g>
	<path class="st0" d="M276.8,40.6c-0.5,0-1,0-1.5,0.1c-1.8-8.1-9.1-14.2-17.7-14.2c-2.6,0-5.1,0.5-7.3,1.5
		c-3.2-9.7-12.4-16.7-23.1-16.7c-11.2,0-20.6,7.5-23.5,17.7c-3.8-1.3-8.1-1.5-12.4-0.2c-8.4,2.6-14.3,10.6-14.2,19.4
		c0.1,10.2,7.7,18.6,17.7,19.9c0.7,0.1,1.4,0.2,2.1,0.2h0.4h0h0h79.1c0.1,0,0.1,0,0.2,0c0.1,0,0.2,0,0.3,0c7.8,0,14-6.2,14-13.9
		C290.8,46.8,284.5,40.6,276.8,40.6z"/>
	<path class="st1" d="M276.8,68.8c-0.1,0-0.2,0-0.3,0l-0.2,0h-79.5c-0.7,0-1.4-0.1-2.2-0.2c-10.2-1.3-18-10-18.1-20.4
		c-0.1-9,5.9-17.2,14.6-19.9c4-1.3,8.2-1.2,12.3,0c3.2-10.4,12.9-17.6,23.8-17.6c10.5,0,19.9,6.6,23.4,16.5c2.2-0.9,4.6-1.4,7-1.4
		c8.5,0,16.1,5.9,18.1,14.2c8.6-0.7,15.7,6,15.7,14.3C291.3,62.4,284.8,68.8,276.8,68.8z M276.4,67.8c0.1,0,0.2,0,0.3,0
		c7.5,0,13.5-6,13.5-13.4c0-7.4-6.1-13.4-13.5-13.4c-0.5,0-1,0-1.5,0.1l-0.4,0l-0.1-0.4c-1.8-8-9-13.8-17.2-13.8
		c-2.5,0-4.9,0.5-7.1,1.5l-0.5,0.2l-0.2-0.5c-3.3-9.8-12.4-16.3-22.7-16.3c-10.6,0-20.1,7.1-23,17.4l-0.1,0.5l-0.5-0.2
		c-4-1.3-8.2-1.4-12.1-0.2c-8.2,2.6-13.9,10.4-13.9,18.9c0.1,9.8,7.5,18.2,17.2,19.4c0.7,0.1,1.4,0.2,2.1,0.2L276.4,67.8z"/>
</g>
</svg>
