<?xml version="1.0" encoding="utf-8"?>
<!-- Generator: Adobe Illustrator 21.0.2, SVG Export Plug-In . SVG Version: 6.00 Build 0)  -->
<svg version="1.1" id="Layer_1" xmlns="http://www.w3.org/2000/svg" xmlns:xlink="http://www.w3.org/1999/xlink" x="0px" y="0px"
	 viewBox="0 0 260.4 130.8" style="enable-background:new 0 0 260.4 130.8;" xml:space="preserve">
<style type="text/css">
	.st0{fill:#FFFFFF;}
	.st1{fill:#4071B7;}
</style>
<g>
	<path class="st0" d="M227.8,67.1c-1.2,0-2.3,0.1-3.5,0.2C220.2,48.8,203.7,35,184,35c-5.9,0-11.5,1.2-16.7,3.5
		c-7.4-22.1-28.2-38-52.7-38c-25.4,0-46.8,17.1-53.4,40.3c-4.6-1.6-9.6-2.4-14.8-2.4c-25.4,0-46,20.6-46,46
		c0,23.4,17.5,42.7,40.2,45.6c1.6,0.2,3.2,0.4,4.9,0.4h0.9l0,0l0,0h180.1c0.2,0,0.3,0,0.5,0s0.5,0,0.7,0c17.7,0,32-14.1,32-31.6
		C259.8,81.3,245.5,67.1,227.8,67.1z"/>
	<path class="st1" d="M227.8,130.8c-0.2,0-0.5,0-0.7,0h-0.5h-181c-1.6,0-3.2-0.1-5-0.4C17.5,127.5,0,107.7,0,84.4
		c0-25.6,20.8-46.5,46.5-46.5c4.9,0,9.7,0.8,14.4,2.3c7-23.7,29-40.2,53.8-40.2c24,0,45.2,15.2,53,37.8c5.2-2.2,10.7-3.3,16.4-3.3
		c19.3,0,36.4,13.6,40.7,32.3c1-0.1,2.1-0.2,3.1-0.2c17.9,0,32.5,14.4,32.5,32.1C260.3,116.4,245.7,130.8,227.8,130.8z M227.1,129.8
		c0.3,0,0.5,0,0.7,0c17.3,0,31.5-13.9,31.5-31.1c0-17.1-14.1-31.1-31.5-31.1c-1.1,0-2.3,0.1-3.4,0.2H224l-0.1-0.4
		c-4.1-18.5-20.9-32-39.9-32c-5.7,0-11.3,1.2-16.5,3.5l-0.5,0.2l-0.2-0.5C159.3,16.1,138.4,1,114.6,1C90.1,1,68.4,17.4,61.7,41
		l-0.1,0.5L61,41.3c-4.7-1.6-9.6-2.4-14.6-2.4C21.4,38.9,1,59.3,1,84.4c0,22.9,17.1,42.2,39.8,45.1c1.7,0.2,3.3,0.4,4.8,0.4
		L227.1,129.8z"/>
</g>
</svg>
