<?xml version="1.0" encoding="utf-8"?>
<!-- Generator: Adobe Illustrator 21.0.2, SVG Export Plug-In . SVG Version: 6.00 Build 0)  -->
<svg version="1.1" id="Layer_1" xmlns="http://www.w3.org/2000/svg" xmlns:xlink="http://www.w3.org/1999/xlink" x="0px" y="0px"
	 viewBox="0 0 114.9 58.1" style="enable-background:new 0 0 114.9 58.1;" xml:space="preserve">
<style type="text/css">
	.st0{fill:#FFFFFF;}
	.st1{fill:#4071B7;}
</style>
<g>
	<path class="st0" d="M100.3,29.9c-0.5,0-1,0-1.5,0.1c-1.8-8.1-9.1-14.2-17.7-14.2c-2.6,0-5.1,0.5-7.3,1.5
		C70.6,7.6,61.4,0.6,50.7,0.6c-11.2,0-20.6,7.5-23.5,17.7c-3.8-1.3-8.1-1.5-12.4-0.2C6.4,20.7,0.5,28.7,0.6,37.5
		c0.1,10.2,7.7,18.6,17.7,19.9c0.7,0.1,1.4,0.2,2.1,0.2h0.4l0,0l0,0h79.1c0.1,0,0.1,0,0.2,0s0.2,0,0.3,0c7.8,0,14-6.2,14-13.9
		C114.3,36.1,108,29.9,100.3,29.9z"/>
	<path class="st1" d="M100.3,58.1c-0.1,0-0.2,0-0.3,0h-0.2H20.3c-0.7,0-1.4-0.1-2.2-0.2C7.9,56.6,0.1,47.9,0,37.5
		c-0.1-9,5.9-17.2,14.6-19.9c4-1.3,8.2-1.2,12.3,0C30.1,7.2,39.8,0,50.7,0c10.5,0,19.9,6.6,23.4,16.5c2.2-0.9,4.6-1.4,7-1.4
		c8.5,0,16.1,5.9,18.1,14.2c8.6-0.7,15.7,6,15.7,14.3C114.8,51.7,108.3,58.1,100.3,58.1z M99.9,57.1c0.1,0,0.2,0,0.3,0
		c7.5,0,13.5-6,13.5-13.4s-6.1-13.4-13.5-13.4c-0.5,0-1,0-1.5,0.1h-0.4L98.2,30c-1.8-8-9-13.8-17.2-13.8c-2.5,0-4.9,0.5-7.1,1.5
		l-0.5,0.2l-0.2-0.5C69.9,7.6,60.8,1.1,50.5,1.1c-10.6,0-20.1,7.1-23,17.4L27.4,19l-0.5-0.2c-4-1.3-8.2-1.4-12.1-0.2
		C6.6,21.2,0.9,29,0.9,37.5C1,47.3,8.4,55.7,18.1,56.9c0.7,0.1,1.4,0.2,2.1,0.2L99.9,57.1z"/>
</g>
</svg>
