<?xml version="1.0" encoding="utf-8"?>
<!-- Generator: Adobe Illustrator 21.0.2, SVG Export Plug-In . SVG Version: 6.00 Build 0)  -->
<svg version="1.1" id="Layer_1" xmlns="http://www.w3.org/2000/svg" xmlns:xlink="http://www.w3.org/1999/xlink" x="0px" y="0px"
	 viewBox="0 0 160 12.5" style="enable-background:new 0 0 160 12.5;" xml:space="preserve">
<style type="text/css">
	.st0{fill:#808080;}
	.st1{fill:#259DD8;}
	.st2{fill:#0071BB;}
</style>
<g id="Слой_x0020_1">
	<polygon class="st0" points="155.9,0.4 151.6,11.4 150.3,11.4 154.6,0.4 	"/>
	<path class="st0" d="M137.8,2.6c0-1.7,1.6-2.4,3-2.4c1.6,0,3.3,0.6,3.3,2.5c0,2-1.5,2.4-3.2,2.4c-0.7,0-1.7,0.2-1.7,1v0.7h4.9v1.4
		h-6.4c0-0.7,0-1.4,0-2.1c0-1.8,1.6-2.4,3.2-2.4c0.6,0,1.7-0.1,1.7-1c0-0.9-0.8-1.3-1.8-1.3c-0.8,0-1.6,0.4-1.6,1.1L137.8,2.6
		L137.8,2.6z"/>
	<path class="st0" d="M150.2,0.4v4.9h0.9v1.4h-0.9v1.5h-1.5V6.7h-4.2l-0.1-1.5l3.5-4.9L150.2,0.4L150.2,0.4z M148.8,5.3V1.6
		l-2.7,3.6H148.8z"/>
	<polygon class="st0" points="155.2,12.5 158.2,6.6 154.7,6.6 154.7,5.3 159.9,5.3 160,6 156.8,12.5 	"/>
	<g id="_867153392">
		<path class="st1" d="M100.9,12.4H87.7c-2.1,0-3.8-1.7-3.8-3.8c0-1.9,1.4-3.5,3.2-3.8C87.1,2.1,89.2,0,91.9,0c1.6,0,3.1,0.8,4,2.1
			c0.5-0.2,0.9-0.3,1.4-0.3c1.7,0,3.1,1.2,3.5,2.8c0,0,0,0,0.1,0c2.2,0,3.8,1.7,3.8,3.8C104.7,10.6,103,12.4,100.9,12.4z M91.9,2.3
			c-1.4,0-2.6,1.2-2.6,2.6c0,1.1-0.8,2-1.8,2.1c-0.8,0.1-1.3,0.7-1.3,1.5c0,0.8,0.7,1.5,1.5,1.5h13.2c0.8,0,1.5-0.7,1.5-1.5
			c0-0.9-0.7-1.5-1.5-1.5c-1.7,0-2.2-1.1-2.3-1.7c-0.1-0.7-0.6-1.1-1.3-1.1c-0.2,0-0.4,0-0.6,0.1c-0.9,0.5-2.1,0.2-2.7-0.8
			C93.6,2.7,92.8,2.3,91.9,2.3z M100.9,4.9L100.9,4.9L100.9,4.9z M87.2,4.7L87.2,4.7L87.2,4.7z M100.7,4.6L100.7,4.6L100.7,4.6z
			 M96,2.3L96,2.3L96,2.3z M95.7,2.2C95.7,2.2,95.7,2.2,95.7,2.2C95.7,2.2,95.7,2.2,95.7,2.2z"/>
	</g>
	<path class="st2" d="M8.5,5.9C8.1,5.7,7.6,5.5,7.1,5.3S6,5.1,5.4,4.9c-0.2,0-0.5-0.1-0.8-0.2C4.4,4.7,4.1,4.6,3.9,4.6
		C3.7,4.5,3.5,4.3,3.4,4.2C3.3,4,3.2,3.9,3.2,3.6c0-0.1,0-0.3,0.1-0.4C3.4,3.1,3.4,3,3.6,2.9c0.1-0.1,0.3-0.2,0.5-0.2
		c0.2-0.1,0.5-0.1,0.8-0.1c0.4,0,0.6,0,0.9,0.1C6,2.8,6.2,2.9,6.3,3c0.1,0.1,0.2,0.2,0.3,0.4c0,0.1,0,0.1,0.1,0.2
		c0.1,0.2,0.2,0.3,0.4,0.3h1.8c0.1,0,0.3-0.1,0.4-0.2c0.1-0.1,0.1-0.2,0.1-0.4c0-0.3-0.1-0.5-0.2-0.8C9,2.1,8.8,1.7,8.4,1.4
		C8.1,1.1,7.6,0.8,7.1,0.6c-0.5-0.2-1.2-0.3-2-0.3c-0.9,0-1.6,0.1-2.2,0.3C2.3,0.7,1.8,1,1.4,1.3C1,1.6,0.8,2,0.6,2.4
		C0.4,2.8,0.4,3.2,0.4,3.7c0,0.6,0.1,1.2,0.3,1.6c0.2,0.4,0.5,0.7,0.8,1c0.3,0.2,0.7,0.5,1.2,0.6C3.2,7,3.6,7.1,4.2,7.3
		c0.4,0.1,0.7,0.2,1,0.2c0.3,0.1,0.6,0.2,0.9,0.3c0.3,0.1,0.5,0.3,0.6,0.5C6.9,8.4,7,8.7,7,8.9c0,0.2-0.1,0.4-0.2,0.6
		C6.7,9.6,6.6,9.8,6.4,9.8C6.2,9.9,6,10,5.8,10c-0.2,0-0.5,0-0.7,0C4.6,10,4.2,10,3.9,9.9S3.4,9.6,3.2,9.4C3,9.3,2.9,9.1,2.9,8.9
		c0-0.1,0-0.2-0.1-0.2c0-0.2-0.2-0.4-0.5-0.4H0.5c-0.1,0-0.3,0.1-0.4,0.2C0,8.5,0,8.6,0,8.8C0,9,0.1,9.3,0.2,9.6
		c0.1,0.5,0.4,0.9,0.7,1.3c0.4,0.4,0.9,0.8,1.5,1c0.6,0.3,1.5,0.4,2.6,0.4c0.8,0,1.4-0.1,1.9-0.2s1-0.3,1.4-0.6
		c0.4-0.2,0.6-0.5,0.9-0.8c0.2-0.3,0.4-0.6,0.5-0.9c0.1-0.3,0.2-0.6,0.2-0.8c0-0.2,0-0.5,0-0.6c0-0.6-0.1-1.1-0.4-1.6
		C9.2,6.6,8.9,6.2,8.5,5.9z"/>
	<path class="st2" d="M21.6,0.6h-1.9c-0.3,0-0.5,0.2-0.5,0.5v6.2c0,1-0.2,1.7-0.5,2.1c-0.3,0.4-0.9,0.7-1.7,0.7
		c-0.8,0-1.4-0.2-1.7-0.7c-0.3-0.5-0.5-1.2-0.5-2.1V1c0-0.3-0.2-0.5-0.5-0.5h-1.9c-0.3,0-0.5,0.2-0.5,0.5v6.6c0,0.2,0,0.5,0,0.8
		c0,0.3,0.1,0.6,0.2,1c0.1,0.3,0.3,0.7,0.5,1c0.2,0.4,0.5,0.7,0.9,0.9c0.4,0.3,0.8,0.5,1.4,0.7c0.6,0.2,1.2,0.3,2,0.3
		c0.8,0,1.5-0.1,2-0.3c0.6-0.2,1-0.4,1.4-0.7c0.4-0.3,0.7-0.6,0.9-1c0.2-0.4,0.4-0.7,0.5-1C22,9.1,22,8.7,22,8.4c0-0.3,0-0.6,0-0.8
		V1C22,0.8,21.8,0.6,21.6,0.6z"/>
	<path class="st2" d="M33.4,1.4C33,1.1,32.5,0.9,32,0.8c-0.5-0.1-1.1-0.2-1.6-0.2h-4.9C25.2,0.6,25,0.8,25,1v10.5
		c0,0.3,0.2,0.5,0.5,0.5h1.9c0.3,0,0.5-0.2,0.5-0.5V8.7c0.1-0.3,0.3-0.5,0.6-0.5h1.9c0.2,0,0.5,0,0.8,0c0.3,0,0.6-0.1,1-0.2
		c0.3-0.1,0.6-0.2,1-0.4c0.3-0.2,0.6-0.4,0.9-0.7c0.2-0.3,0.4-0.6,0.6-1.1c0.2-0.4,0.2-0.9,0.2-1.5c0-0.7-0.1-1.3-0.4-1.8
		S33.7,1.7,33.4,1.4z M31.2,5.5c-0.3,0.2-0.8,0.4-1.4,0.4h-2l0,0h0.7c-0.3,0-0.6-0.2-0.7-0.6V3.6c0-0.4,0.3-0.7,0.7-0.7h-0.7l0,0h2
		c0.2,0,0.3,0,0.5,0c0.2,0,0.4,0.1,0.6,0.1c0.2,0.1,0.4,0.2,0.5,0.4c0.1,0.2,0.2,0.5,0.2,0.8C31.6,4.9,31.5,5.2,31.2,5.5z"/>
	<path class="st2" d="M45.7,9.7h-6l0,0h0.7c-0.4,0-0.6-0.3-0.7-0.6V7.9c0-0.3,0.3-0.6,0.7-0.6h-0.7l0,0h5.1c0.3,0,0.5-0.2,0.5-0.5
		V5.6c0-0.3-0.2-0.5-0.5-0.5h-5.1l0,0h0.7c-0.4,0-0.6-0.3-0.7-0.6V3.6c0-0.3,0.3-0.6,0.7-0.6h-0.7l0,0h5.8c0.3,0,0.5-0.2,0.5-0.5V1
		c0-0.3-0.2-0.5-0.5-0.5h-8.1c-0.3,0-0.5,0.2-0.5,0.5v10.5c0,0.3,0.2,0.5,0.5,0.5h8.3c0.3,0,0.5-0.2,0.5-0.5v-1.4
		C46.2,9.9,45.9,9.7,45.7,9.7z"/>
	<path class="st2" d="M57.4,6c0.2-0.2,0.4-0.5,0.5-0.9c0.1-0.3,0.2-0.8,0.2-1.2c0-0.5-0.1-0.9-0.2-1.3c-0.1-0.4-0.3-0.7-0.5-0.9
		c-0.2-0.2-0.5-0.4-0.8-0.6c-0.3-0.2-0.6-0.3-0.9-0.3c-0.3-0.1-0.6-0.1-0.8-0.2c-0.3,0-0.5,0-0.7,0h-5.4c-0.3,0-0.5,0.2-0.5,0.5
		v10.5c0,0.3,0.2,0.5,0.5,0.5h1.9c0.3,0,0.5-0.2,0.5-0.5v-3c0-0.4,0.3-0.7,0.7-0.7h1.3c0.1,0,0.2,0,0.4,0c0.2,0,0.4,0,0.6,0.1
		c0.2,0.1,0.4,0.2,0.5,0.4c0.2,0.2,0.2,0.4,0.3,0.7c0,0.4,0.1,0.8,0.1,1.1c0,0.3,0,0.5,0,0.8c0,0.2,0.1,0.4,0.1,0.6
		c0,0.1,0.1,0.2,0.1,0.3c0.1,0.2,0.2,0.2,0.4,0.2h1.8c0.2,0,0.3-0.1,0.4-0.2c0.1-0.1,0.1-0.3,0.1-0.4c0-0.1-0.1-0.2-0.1-0.4
		c0-0.2,0-0.4-0.1-0.6c0-0.2,0-0.6,0-0.9c0-0.2,0-0.4,0-0.7c0-0.3-0.1-0.5-0.2-0.8c-0.1-0.3-0.3-0.5-0.5-0.8
		c-0.2-0.2-0.5-0.4-0.8-0.5c0.2-0.1,0.3-0.1,0.5-0.2C57,6.4,57.2,6.2,57.4,6z M55.1,4.7c0,0.2-0.1,0.3-0.2,0.4
		c-0.1,0.1-0.3,0.3-0.5,0.3c-0.2,0.1-0.5,0.1-0.9,0.1h-1.7c-0.3,0-0.6-0.3-0.7-0.6V3.6c0-0.4,0.3-0.7,0.7-0.7h-0.7l0,0h2.3
		c0.6,0,1,0.1,1.3,0.3c0.3,0.2,0.4,0.5,0.4,1.1C55.2,4.4,55.2,4.6,55.1,4.7z"/>
	<path class="st1" d="M70.5,7.9h-1.9c-0.2,0-0.4,0.2-0.5,0.4c0,0.1-0.1,0.2-0.1,0.4c-0.1,0.2-0.2,0.5-0.4,0.7
		c-0.2,0.2-0.4,0.4-0.7,0.5C66.7,10,66.3,10,65.9,10c-0.4,0-0.8-0.1-1.2-0.3c-0.3-0.2-0.6-0.4-0.8-0.7c-0.2-0.3-0.4-0.7-0.5-1.1
		c-0.1-0.4-0.2-0.9-0.2-1.5c0-0.9,0.1-1.7,0.3-2.2c0.2-0.5,0.5-0.9,0.8-1.1c0.3-0.2,0.6-0.4,0.9-0.4c0.3-0.1,0.5-0.1,0.7-0.1
		c0.2,0,0.3,0,0.6,0c0.2,0,0.5,0.1,0.7,0.2c0.2,0.1,0.4,0.3,0.6,0.6c0.2,0.2,0.2,0.5,0.3,0.8c0,0.2,0.2,0.4,0.5,0.4h1.8
		c0.1,0,0.3-0.1,0.4-0.2c0.1-0.1,0.1-0.2,0.1-0.4c0-0.3-0.1-0.6-0.2-0.9c-0.2-0.5-0.4-0.9-0.8-1.4S68.9,1,68.2,0.7
		c-0.7-0.3-1.5-0.4-2.5-0.4c-0.2,0-0.5,0-0.8,0c-0.3,0-0.7,0.1-1.1,0.2c-0.4,0.1-0.8,0.3-1.3,0.6c-0.4,0.3-0.8,0.6-1.2,1.1
		c-0.3,0.5-0.6,1.1-0.8,1.7c-0.2,0.7-0.3,1.6-0.3,2.6c0,1.1,0.2,2.1,0.5,2.8c0.3,0.7,0.7,1.3,1.2,1.8c0.5,0.4,1.1,0.8,1.8,0.9
		c0.7,0.2,1.4,0.3,2.1,0.3c1,0,1.9-0.2,2.5-0.4c0.7-0.3,1.2-0.7,1.6-1.1c0.4-0.4,0.7-0.9,0.8-1.4c0.1-0.3,0.2-0.6,0.2-0.9
		c0-0.1,0-0.3-0.1-0.4C70.7,8,70.6,7.9,70.5,7.9z"/>
	<path class="st1" d="M80.9,9.7h-4.2c-0.3,0-0.6-0.3-0.6-0.6V1c0-0.3-0.2-0.5-0.5-0.5h-1.9c-0.3,0-0.5,0.2-0.5,0.5v10.5
		c0,0.3,0.2,0.5,0.5,0.5h7.1c0.3,0,0.5-0.2,0.5-0.5v-1.4C81.3,9.9,81.1,9.7,80.9,9.7z"/>
	<path class="st1" d="M116.9,0.6H115c-0.3,0-0.5,0.2-0.5,0.5v6.2c0,1-0.2,1.7-0.5,2.1c-0.3,0.4-0.9,0.7-1.7,0.7
		c-0.8,0-1.4-0.2-1.7-0.7c-0.3-0.5-0.5-1.2-0.5-2.1V1c0-0.3-0.2-0.5-0.5-0.5h-1.9c-0.3,0-0.5,0.2-0.5,0.5v6.6c0,0.2,0,0.5,0,0.8
		c0,0.3,0.1,0.6,0.2,1c0.1,0.3,0.3,0.7,0.5,1c0.2,0.4,0.5,0.7,0.9,0.9c0.4,0.3,0.8,0.5,1.4,0.7c0.6,0.2,1.2,0.3,2,0.3
		c0.8,0,1.5-0.1,2-0.3c0.6-0.2,1-0.4,1.4-0.7c0.4-0.3,0.7-0.6,0.9-1c0.2-0.4,0.4-0.7,0.5-1c0.1-0.3,0.2-0.7,0.2-1c0-0.3,0-0.6,0-0.8
		V1C117.4,0.8,117.1,0.6,116.9,0.6z"/>
	<path class="st1" d="M130.5,3.9c-0.2-0.6-0.5-1.2-0.9-1.6c-0.4-0.4-0.8-0.8-1.2-1c-0.4-0.2-0.9-0.4-1.3-0.5
		c-0.4-0.1-0.8-0.2-1.1-0.2c-0.3,0-0.6,0-0.8,0h-4.5c-0.3,0-0.5,0.2-0.5,0.5v10.5c0,0.3,0.2,0.5,0.5,0.5h4.2c0.3,0,0.7,0,1.1-0.1
		c0.4,0,0.8-0.1,1.3-0.2c0.4-0.1,0.9-0.3,1.3-0.6c0.4-0.2,0.8-0.6,1.1-1c0.3-0.4,0.6-1,0.8-1.6c0.2-0.6,0.3-1.4,0.3-2.3
		C130.8,5.4,130.7,4.6,130.5,3.9z M127,8.9c-0.5,0.5-1.3,0.8-2.3,0.8h-1.6l0,0h0.7c-0.3,0-0.6-0.3-0.7-0.6V3.5
		c0-0.3,0.3-0.6,0.7-0.6h-0.7l0,0h1.8c0.3,0,0.6,0,0.9,0.1c0.3,0.1,0.6,0.2,0.9,0.5c0.3,0.2,0.5,0.6,0.7,1c0.2,0.5,0.3,1.1,0.3,1.8
		C127.8,7.5,127.5,8.4,127,8.9z"/>
</g>
</svg>
