<?xml version="1.0" encoding="utf-8"?>
<!-- Generator: Adobe Illustrator 21.0.2, SVG Export Plug-In . SVG Version: 6.00 Build 0)  -->
<svg version="1.1" id="Layer_1" xmlns="http://www.w3.org/2000/svg" xmlns:xlink="http://www.w3.org/1999/xlink" x="0px" y="0px"
	 viewBox="0 0 31.2 32" style="enable-background:new 0 0 31.2 32;" xml:space="preserve">
<style type="text/css">
	.st0{fill:none;stroke:#4071B7;stroke-width:2;stroke-miterlimit:10;}
	.st1{fill:#FFFFFF;}
	.st2{fill:#4071B7;stroke:#4071B7;stroke-miterlimit:10;}
</style>
<g>
	<path class="st0" d="M30.2,8.5v21.1c0,0.8-0.7,1.5-1.5,1.5H9.1c-0.8,0-1.5-0.7-1.5-1.5V2.5C7.6,1.7,8.3,1,9.1,1h13.6L30.2,8.5z"/>
	<polyline class="st0" points="30.2,8.6 22.4,8.6 22.4,1.3 	"/>
	<g>
		<path class="st1" d="M23.8,24c0,1.1-0.9,2-2,2H3c-1.1,0-2-0.9-2-2v-7.1c0-1.1,0.9-2,2-2h18.8c1.1,0,2,0.9,2,2V24z"/>
		<path class="st0" d="M23.8,24c0,1.1-0.9,2-2,2H3c-1.1,0-2-0.9-2-2v-7.1c0-1.1,0.9-2,2-2h18.8c1.1,0,2,0.9,2,2V24z"/>
	</g>
	<path class="st2" d="M6.7,22.5v-4h1.3c0.3,0,0.5,0,0.7,0.1c0.2,0.1,0.4,0.1,0.5,0.3c0.1,0.1,0.2,0.2,0.3,0.4
		c0.1,0.2,0.1,0.3,0.1,0.5c0,0.2,0,0.4-0.1,0.5c-0.1,0.2-0.2,0.3-0.3,0.4C9,20.8,8.8,20.9,8.6,21c-0.2,0.1-0.4,0.1-0.7,0.1H7.4v1.4
		H6.7z M7.4,20.5h0.6c0.1,0,0.3,0,0.4-0.1s0.2-0.1,0.2-0.1c0.1-0.1,0.1-0.1,0.1-0.2c0-0.1,0-0.2,0-0.3c0-0.1,0-0.2,0-0.3
		c0-0.1-0.1-0.2-0.1-0.2c-0.1-0.1-0.1-0.1-0.2-0.1c-0.1,0-0.2,0-0.4,0H7.4V20.5z"/>
	<path class="st2" d="M10.8,22.5v-4h1.5c0.3,0,0.6,0,0.8,0.1c0.2,0.1,0.5,0.2,0.6,0.4c0.2,0.2,0.3,0.4,0.4,0.6
		c0.1,0.2,0.1,0.5,0.1,0.8c0,0.3,0,0.6-0.1,0.8c-0.1,0.2-0.2,0.5-0.4,0.6c-0.2,0.2-0.4,0.3-0.6,0.4c-0.2,0.1-0.5,0.1-0.8,0.1H10.8z
		 M11.5,21.9h0.8c0.2,0,0.4,0,0.5-0.1c0.2-0.1,0.3-0.2,0.4-0.3c0.1-0.1,0.2-0.3,0.2-0.4c0.1-0.2,0.1-0.4,0.1-0.6s0-0.4-0.1-0.6
		c-0.1-0.2-0.1-0.3-0.2-0.4c-0.1-0.1-0.2-0.2-0.4-0.3c-0.2-0.1-0.3-0.1-0.5-0.1h-0.8V21.9z"/>
	<path class="st2" d="M15.7,22.5v-4h2.5v0.6h-1.8v1.2h1.5v0.6h-1.5v1.6H15.7z"/>
</g>
</svg>
