<?xml version="1.0" encoding="utf-8"?>
<!-- Generator: Adobe Illustrator 21.0.2, SVG Export Plug-In . SVG Version: 6.00 Build 0)  -->
<svg version="1.1" id="icons" xmlns="http://www.w3.org/2000/svg" xmlns:xlink="http://www.w3.org/1999/xlink" x="0px" y="0px"
	 viewBox="0 0 64.5 46.2" style="enable-background:new 0 0 64.5 46.2;" xml:space="preserve">
<g>
	<path d="M59.6,45.7c-2.2,0-4.1-1.8-4.1-4.1l0-0.7l-0.7,0H16.6l0,0.8l0,0.1c0,2.2-1.8,4-4.1,4c-2.2,0-4.1-1.8-4.1-4.1
		c0-2.2,1.8-4.1,4.1-4.1c0.7,0,1.4,0.2,2,0.6l0.2,0.1h2.4l0.7-6.6L14.2,8L10,3.1H1.8c-0.7,0-1.3-0.6-1.3-1.3c0-0.7,0.6-1.3,1.3-1.3
		h8.8c0.4,0,0.7,0.2,1,0.5L16,6.2h46.6c0.4,0,0.8,0.2,1.1,0.5C64,7,64,7.5,63.9,7.9L56,32c-0.2,0.5-0.7,0.9-1.2,0.9H20.4l-0.6,5.3
		h37.6l0.2-0.1c0.6-0.4,1.3-0.6,2-0.6c2.2,0,4.1,1.8,4.1,4.1C63.6,43.9,61.8,45.7,59.6,45.7z M20.3,30.3h33.5l3.1-9.5H18.8
		L20.3,30.3z M18.4,18.2h39.4l3.1-9.5H16.9L18.4,18.2z"/>
	<path d="M59.6,46.2c-2.5,0-4.6-2-4.6-4.6l0-0.3l-0.3,0l-37.7,0l0,0.3c0,2.6-2,4.6-4.6,4.6c-2.5,0-4.6-2-4.6-4.6
		c0-2.5,2-4.6,4.6-4.6c0.8,0,1.6,0.2,2.3,0.6l0.1,0h1.8l0.7-6.1L13.7,8.3L9.8,3.6h-8C0.8,3.6,0,2.8,0,1.8S0.8,0,1.8,0h8.8
		c0.5,0,1,0.2,1.4,0.6l4.3,5h46.4c0.6,0,1.1,0.3,1.5,0.7c0.3,0.5,0.4,1.1,0.3,1.6l-7.9,24.1c-0.2,0.7-0.9,1.2-1.7,1.2h-34l-0.5,4.3
		h36.9l0.1,0c0.7-0.4,1.5-0.6,2.3-0.6c2.5,0,4.6,2,4.6,4.6C64.1,44.2,62.1,46.2,59.6,46.2z M16.1,40.4l40,0.1l0,1.2
		c0,2,1.6,3.5,3.6,3.5s3.6-1.6,3.6-3.6c0-2-1.6-3.6-3.6-3.6c-0.6,0-1.2,0.2-1.8,0.5l-0.3,0.2H19.2l0.7-6.3h34.9
		c0.4,0,0.7-0.2,0.8-0.6l7.9-24.1c0.1-0.2,0-0.5-0.1-0.7c-0.2-0.2-0.4-0.3-0.7-0.3H15.8l-4.6-5.4C11.1,1.1,10.8,1,10.6,1H1.8
		C1.4,1,1,1.4,1,1.8s0.4,0.8,0.8,0.8h8.4l4.4,5.2l3.7,23.8l-0.8,7.1h-3l-0.3-0.2c-0.6-0.3-1.2-0.5-1.8-0.5c-2,0-3.6,1.6-3.6,3.6
		c0,2,1.6,3.6,3.6,3.6c1.9,0,3.6-1.6,3.6-3.5L16.1,40.4z M54.2,30.8H19.9l-1.6-10.5h39.4L54.2,30.8z M20.7,29.8h32.7l2.8-8.5H19.4
		L20.7,29.8z M58.1,18.7H18L16.3,8.3h45.2L58.1,18.7z M18.8,17.7h38.6l2.8-8.5H17.5L18.8,17.7z"/>
</g>
</svg>
