<?xml version="1.0" encoding="utf-8"?>
<!-- Generator: Adobe Illustrator 21.0.2, SVG Export Plug-In . SVG Version: 6.00 Build 0)  -->
<svg version="1.1" id="Layer_1" xmlns="http://www.w3.org/2000/svg" xmlns:xlink="http://www.w3.org/1999/xlink" x="0px" y="0px"
	 viewBox="0 0 40 40" style="enable-background:new 0 0 40 40;" xml:space="preserve">
<style type="text/css">
	.st0{fill:#3A5BA0;}
	.st1{fill:#FFFFFF;}
</style>
<g>
	<title>F</title>
	<g>
		<path class="st0" d="M4.9,0h30.2C37.8,0,40,2.2,40,4.9v30.2c0,2.7-2.2,4.9-4.9,4.9H4.9C2.2,40,0,37.8,0,35.1V4.9
			C0,2.2,2.2,0,4.9,0z"/>
		<path id="f" class="st1" d="M25.1,20.7l0.7-3.7h-3.7v-2.9c0-1.1,0.6-1.5,2.2-1.5h1.5V9h-2.9c-3,0-5.1,1.8-5.1,5.1v2.9h-3.7v3.7
			h3.7V31h4.4V20.7H25.1z"/>
		<circle class="st0" cx="20.4" cy="9.8" r="0"/>
	</g>
</g>
</svg>
