<?xml version="1.0" encoding="utf-8"?>
<!-- Generator: Adobe Illustrator 21.0.2, SVG Export Plug-In . SVG Version: 6.00 Build 0)  -->
<svg version="1.1" id="Layer_1" xmlns="http://www.w3.org/2000/svg" xmlns:xlink="http://www.w3.org/1999/xlink" x="0px" y="0px"
	 viewBox="0 0 40 40" style="enable-background:new 0 0 40 40;" xml:space="preserve">
<style type="text/css">
	.st0{clip-path:url(#SVGID_2_);}
	.st1{fill:#FFB900;}
	.st2{fill:#FFB801;}
	.st3{fill:#FEB702;}
	.st4{fill:#FEB703;}
	.st5{fill:#FDB604;}
	.st6{fill:#FDB505;}
	.st7{fill:#FCB406;}
	.st8{fill:#FCB307;}
	.st9{fill:#FBB308;}
	.st10{fill:#FBB209;}
	.st11{fill:#FAB10A;}
	.st12{fill:#FAB00B;}
	.st13{fill:#F9B00C;}
	.st14{fill:#F9AF0D;}
	.st15{fill:#F8AE0E;}
	.st16{fill:#F8AD0F;}
	.st17{fill:#F7AC10;}
	.st18{fill:#F7AC11;}
	.st19{fill:#F7AB12;}
	.st20{fill:#F6AA13;}
	.st21{fill:#F6A914;}
	.st22{fill:#F5A815;}
	.st23{fill:#F5A816;}
	.st24{fill:#F4A717;}
	.st25{fill:#F4A618;}
	.st26{fill:#F3A519;}
	.st27{fill:#F3A41A;}
	.st28{fill:#F2A41B;}
	.st29{fill:#F2A31C;}
	.st30{fill:#F1A21D;}
	.st31{fill:#F1A11E;}
	.st32{fill:#F0A01F;}
	.st33{fill:#F0A020;}
	.st34{fill:#EF9F21;}
	.st35{fill:#EF9E22;}
	.st36{fill:#EF9D23;}
	.st37{fill:#EE9D24;}
	.st38{fill:#EE9C25;}
	.st39{fill:#ED9B26;}
	.st40{fill:#ED9A27;}
	.st41{fill:#EC9928;}
	.st42{fill:#EC9929;}
	.st43{fill:#EB982A;}
	.st44{fill:#EB972B;}
	.st45{fill:#EA962C;}
	.st46{fill:#EA952D;}
	.st47{fill:#E9952E;}
	.st48{fill:#E9942F;}
	.st49{fill:#E89330;}
	.st50{fill:#E89231;}
	.st51{fill:#E79132;}
	.st52{fill:#E79133;}
	.st53{fill:#E79034;}
	.st54{fill:#E68F35;}
	.st55{fill:#E68E36;}
	.st56{fill:#E58E37;}
	.st57{fill:#E58D38;}
	.st58{fill:#E48C39;}
	.st59{fill:#E48B3A;}
	.st60{fill:#E38A3B;}
	.st61{fill:#E38A3C;}
	.st62{fill:#E2893D;}
	.st63{fill:#E2883E;}
	.st64{fill:#E1873F;}
	.st65{fill:#E18640;}
	.st66{fill:#E08641;}
	.st67{fill:#E08542;}
	.st68{fill:#E08443;}
	.st69{fill:#DF8344;}
	.st70{fill:#DF8245;}
	.st71{fill:#DE8246;}
	.st72{fill:#DE8147;}
	.st73{fill:#DD8048;}
	.st74{fill:#DD7F49;}
	.st75{fill:#DC7E4A;}
	.st76{fill:#DC7E4B;}
	.st77{fill:#DB7D4C;}
	.st78{fill:#DB7C4D;}
	.st79{fill:#DA7B4E;}
	.st80{fill:#DA7B4F;}
	.st81{fill:#D97A50;}
	.st82{fill:#D97951;}
	.st83{fill:#D87852;}
	.st84{fill:#D87753;}
	.st85{fill:#D87754;}
	.st86{fill:#D77655;}
	.st87{fill:#D77556;}
	.st88{fill:#D67457;}
	.st89{fill:#D67358;}
	.st90{fill:#D57359;}
	.st91{fill:#D5725A;}
	.st92{fill:#D4715B;}
	.st93{fill:#D4705C;}
	.st94{fill:#D36F5D;}
	.st95{fill:#D36F5E;}
	.st96{fill:#D26E5F;}
	.st97{fill:#D26D60;}
	.st98{fill:#D16C61;}
	.st99{fill:#D16C62;}
	.st100{fill:#D06B63;}
	.st101{fill:#D06A64;}
	.st102{fill:#D06965;}
	.st103{fill:#CF6866;}
	.st104{fill:#CF6867;}
	.st105{fill:#CE6768;}
	.st106{fill:#CE6669;}
	.st107{fill:#CD656A;}
	.st108{fill:#CD646B;}
	.st109{fill:#CC646C;}
	.st110{fill:#CC636D;}
	.st111{fill:#CB626E;}
	.st112{fill:#CB616F;}
	.st113{fill:#CA6070;}
	.st114{fill:#CA6071;}
	.st115{fill:#C95F72;}
	.st116{fill:#C95E73;}
	.st117{fill:#C85D74;}
	.st118{fill:#C85D76;}
	.st119{fill:#C85C77;}
	.st120{fill:#C75B78;}
	.st121{fill:#C75A79;}
	.st122{fill:#C6597A;}
	.st123{fill:#C6597B;}
	.st124{fill:#C5587C;}
	.st125{fill:#C5577D;}
	.st126{fill:#C4567E;}
	.st127{fill:#C4557F;}
	.st128{fill:#C35580;}
	.st129{fill:#C35481;}
	.st130{fill:#C25382;}
	.st131{fill:#C25283;}
	.st132{fill:#C15184;}
	.st133{fill:#C15185;}
	.st134{fill:#C05086;}
	.st135{fill:#C04F87;}
	.st136{fill:#C04E88;}
	.st137{fill:#BF4D89;}
	.st138{fill:#BF4D8A;}
	.st139{fill:#BE4C8B;}
	.st140{fill:#BE4B8C;}
	.st141{fill:#BD4A8D;}
	.st142{fill:#BD4A8E;}
	.st143{fill:#BC498F;}
	.st144{fill:#BC4890;}
	.st145{fill:#BB4791;}
	.st146{fill:#BB4692;}
	.st147{fill:#BA4693;}
	.st148{fill:#BA4594;}
	.st149{fill:#B94495;}
	.st150{fill:#B94396;}
	.st151{fill:#B84297;}
	.st152{fill:#B84298;}
	.st153{fill:#B84199;}
	.st154{fill:#B7409A;}
	.st155{fill:#B73F9B;}
	.st156{fill:#B63E9C;}
	.st157{fill:#B63E9D;}
	.st158{fill:#B53D9E;}
	.st159{fill:#B53C9F;}
	.st160{fill:#B43BA0;}
	.st161{fill:#B43BA1;}
	.st162{fill:#B33AA2;}
	.st163{fill:#B339A3;}
	.st164{fill:#B238A4;}
	.st165{fill:#B237A5;}
	.st166{fill:#B137A6;}
	.st167{fill:#B136A7;}
	.st168{fill:#B035A8;}
	.st169{fill:#B034A9;}
	.st170{fill:#B033AA;}
	.st171{fill:#AF33AB;}
	.st172{fill:#AF32AC;}
	.st173{fill:#AE31AD;}
	.st174{fill:#AE30AE;}
	.st175{fill:#AD2FAF;}
	.st176{fill:#AD2FB0;}
	.st177{fill:#AC2EB1;}
	.st178{fill:#AC2DB2;}
	.st179{fill:#AB2CB3;}
	.st180{fill:#AB2BB4;}
	.st181{fill:#AA2BB5;}
	.st182{fill:#AA2AB6;}
	.st183{fill:#A929B7;}
	.st184{fill:#A928B8;}
	.st185{fill:#A928B9;}
	.st186{fill:#A827BA;}
	.st187{fill:#A826BB;}
	.st188{fill:#A725BC;}
	.st189{fill:#A724BD;}
	.st190{fill:#A624BE;}
	.st191{fill:#A623BF;}
	.st192{fill:#A522C0;}
	.st193{fill:#A521C1;}
	.st194{fill:#A420C2;}
	.st195{fill:#A420C3;}
	.st196{fill:#A31FC4;}
	.st197{fill:#A31EC5;}
	.st198{fill:#A21DC6;}
	.st199{fill:#A21CC7;}
	.st200{fill:#A11CC8;}
	.st201{fill:#A11BC9;}
	.st202{fill:#A11ACA;}
	.st203{fill:#A019CB;}
	.st204{fill:#A019CC;}
	.st205{fill:#9F18CD;}
	.st206{fill:#9F17CE;}
	.st207{fill:#9E16CF;}
	.st208{fill:#9E15D0;}
	.st209{fill:#9D15D1;}
	.st210{fill:#9D14D2;}
	.st211{fill:#9C13D3;}
	.st212{fill:#9C12D4;}
	.st213{fill:#9B11D5;}
	.st214{fill:#9B11D6;}
	.st215{fill:#9A10D7;}
	.st216{fill:#9A0FD8;}
	.st217{fill:#990ED9;}
	.st218{fill:#990DDA;}
	.st219{fill:#990DDB;}
	.st220{fill:#980CDC;}
	.st221{fill:#980BDD;}
	.st222{fill:#970ADE;}
	.st223{fill:#9709DF;}
	.st224{fill:#9609E0;}
	.st225{fill:#9608E1;}
	.st226{fill:#9507E2;}
	.st227{fill:#9506E3;}
	.st228{fill:#9406E4;}
	.st229{fill:#9405E5;}
	.st230{fill:#9304E6;}
	.st231{fill:#9303E7;}
	.st232{fill:#9202E8;}
	.st233{fill:#9202E9;}
	.st234{fill:#9101EA;}
	.st235{fill:#9100EB;}
	.st236{fill:#FFFFFF;}
</style>
<title>instagram</title>
<g>
	<g>
		<defs>
			<path id="SVGID_1_" d="M40,35c0,2.8-2.2,5-5,5H5c-2.8,0-5-2.2-5-5V5c0-2.8,2.2-5,5-5h30c2.8,0,5,2.2,5,5V35z"/>
		</defs>
		<clipPath id="SVGID_2_">
			<use xlink:href="#SVGID_1_"  style="overflow:visible;"/>
		</clipPath>
		<g class="st0">
			<polygon class="st1" points="0,37.6 3.4,40 0,40 			"/>
			<polygon class="st1" points="0,37.3 3.8,40 3.4,40 0,37.6 			"/>
			<polygon class="st2" points="0,37.1 4.2,40 3.8,40 0,37.3 			"/>
			<polygon class="st3" points="0,36.8 4.6,40 4.2,40 0,37.1 			"/>
			<polygon class="st4" points="0,36.5 5,40 4.6,40 0,36.8 			"/>
			<polygon class="st5" points="0,36.3 5.3,40 5,40 0,36.5 			"/>
			<polygon class="st6" points="0,36 5.7,40 5.3,40 0,36.3 			"/>
			<polygon class="st7" points="0,35.7 6.1,40 5.7,40 0,36 			"/>
			<polygon class="st8" points="0,35.5 6.5,40 6.1,40 0,35.7 			"/>
			<polygon class="st9" points="0,35.2 6.9,40 6.5,40 0,35.5 			"/>
			<polygon class="st10" points="0,34.9 7.3,40 6.9,40 0,35.2 			"/>
			<polygon class="st11" points="0,34.6 7.7,40 7.3,40 0,34.9 			"/>
			<polygon class="st12" points="0,34.4 8,40 7.7,40 0,34.6 			"/>
			<polygon class="st13" points="0,34.1 8.4,40 8,40 0,34.4 			"/>
			<polygon class="st14" points="0,33.8 8.8,40 8.4,40 0,34.1 			"/>
			<polygon class="st15" points="0,33.6 9.2,40 8.8,40 0,33.8 			"/>
			<polygon class="st16" points="0,33.3 9.6,40 9.2,40 0,33.6 			"/>
			<polygon class="st17" points="0,33 10,40 9.6,40 0,33.3 			"/>
			<polygon class="st18" points="0,32.8 10.4,40 10,40 0,33 			"/>
			<polygon class="st19" points="0,32.5 10.7,40 10.4,40 0,32.8 			"/>
			<polygon class="st20" points="0,32.2 11.1,40 10.7,40 0,32.5 			"/>
			<polygon class="st21" points="0,32 11.5,40 11.1,40 0,32.2 			"/>
			<polygon class="st22" points="0,31.7 11.9,40 11.5,40 0,32 			"/>
			<polygon class="st23" points="0,31.4 12.3,40 11.9,40 0,31.7 			"/>
			<polygon class="st24" points="0,31.1 12.6,40 12.3,40 0,31.4 			"/>
			<polygon class="st25" points="0,30.9 13,40 12.6,40 0,31.1 			"/>
			<polygon class="st26" points="0,30.6 13.4,40 13,40 0,30.9 			"/>
			<polygon class="st27" points="0,30.3 13.8,40 13.4,40 0,30.6 			"/>
			<polygon class="st28" points="0,30.1 14.2,40 13.8,40 0,30.3 			"/>
			<polygon class="st29" points="0,29.8 14.6,40 14.2,40 0,30.1 			"/>
			<polygon class="st30" points="0,29.5 15,40 14.6,40 0,29.8 			"/>
			<polygon class="st31" points="0,29.3 15.3,40 15,40 0,29.5 			"/>
			<polygon class="st32" points="0,29 15.7,40 15.3,40 0,29.3 			"/>
			<polygon class="st33" points="0,28.7 16.1,40 15.7,40 0,29 			"/>
			<polygon class="st34" points="0,28.5 16.5,40 16.1,40 0,28.7 			"/>
			<polygon class="st35" points="0,28.2 16.9,40 16.5,40 0,28.5 			"/>
			<polygon class="st36" points="0,27.9 17.3,40 16.9,40 0,28.2 			"/>
			<polygon class="st37" points="0,27.6 17.6,40 17.3,40 0,27.9 			"/>
			<polygon class="st38" points="0,27.4 18,40 17.6,40 0,27.6 			"/>
			<polygon class="st39" points="0,27.1 18.4,40 18,40 0,27.4 			"/>
			<polygon class="st40" points="0,26.8 18.8,40 18.4,40 0,27.1 			"/>
			<polygon class="st41" points="0,26.6 19.2,40 18.8,40 0,26.8 			"/>
			<polygon class="st42" points="0,26.3 19.6,40 19.2,40 0,26.6 			"/>
			<polygon class="st43" points="0,26 20,40 19.6,40 0,26.3 			"/>
			<polygon class="st44" points="0,25.8 20.3,40 20,40 0,26 			"/>
			<polygon class="st45" points="0,25.5 20.7,40 20.3,40 0,25.8 			"/>
			<polygon class="st46" points="0,25.2 21.1,40 20.7,40 0,25.5 			"/>
			<polygon class="st47" points="0,25 21.5,40 21.1,40 0,25.2 			"/>
			<polygon class="st48" points="0,24.7 21.9,40 21.5,40 0,25 			"/>
			<polygon class="st49" points="0,24.4 22.3,40 21.9,40 0,24.7 			"/>
			<polygon class="st50" points="0,24.1 22.6,40 22.3,40 0,24.4 			"/>
			<polygon class="st51" points="0,23.9 23,40 22.6,40 0,24.1 			"/>
			<polygon class="st52" points="0,23.6 23.4,40 23,40 0,23.9 			"/>
			<polygon class="st53" points="0,23.3 23.8,40 23.4,40 0,23.6 			"/>
			<polygon class="st54" points="0,23.1 24.2,40 23.8,40 0,23.3 			"/>
			<polygon class="st55" points="0,22.8 24.6,40 24.2,40 0,23.1 			"/>
			<polygon class="st56" points="0,22.5 24.9,40 24.6,40 0,22.8 			"/>
			<polygon class="st57" points="0,22.3 25.3,40 24.9,40 0,22.5 			"/>
			<polygon class="st58" points="0,22 25.7,40 25.3,40 0,22.3 			"/>
			<polygon class="st59" points="0,21.7 26.1,40 25.7,40 0,22 			"/>
			<polygon class="st60" points="0,21.5 26.5,40 26.1,40 0,21.7 			"/>
			<polygon class="st61" points="0,21.2 26.9,40 26.5,40 0,21.5 			"/>
			<polygon class="st62" points="0,20.9 27.3,40 26.9,40 0,21.2 			"/>
			<polygon class="st63" points="0,20.6 27.6,40 27.3,40 0,20.9 			"/>
			<polygon class="st64" points="0,20.4 28,40 27.6,40 0,20.6 			"/>
			<polygon class="st65" points="0,20.1 28.4,40 28,40 0,20.4 			"/>
			<polygon class="st66" points="0,19.9 28.8,40 28.4,40 0,20.1 			"/>
			<polygon class="st67" points="0,19.6 29.2,40 28.8,40 0,19.9 			"/>
			<polygon class="st68" points="0,19.3 29.5,40 29.2,40 0,19.6 			"/>
			<polygon class="st69" points="0,19 29.9,40 29.5,40 0,19.3 			"/>
			<polygon class="st70" points="0,18.8 30.3,40 29.9,40 0,19 			"/>
			<polygon class="st71" points="0,18.5 30.7,40 30.3,40 0,18.8 			"/>
			<polygon class="st72" points="0,18.2 31.1,40 30.7,40 0,18.5 			"/>
			<polygon class="st73" points="0,18 31.5,40 31.1,40 0,18.2 			"/>
			<polygon class="st74" points="0,17.7 31.9,40 31.5,40 0,18 			"/>
			<polygon class="st75" points="0,17.4 32.2,40 31.9,40 0,17.7 			"/>
			<polygon class="st76" points="0,17.2 32.6,40 32.2,40 0,17.4 			"/>
			<polygon class="st77" points="0,16.9 33,40 32.6,40 0,17.2 			"/>
			<polygon class="st78" points="0,16.6 33.4,40 33,40 0,16.9 			"/>
			<polygon class="st79" points="0,16.4 33.8,40 33.4,40 0,16.6 			"/>
			<polygon class="st80" points="0,16.1 34.2,40 33.8,40 0,16.4 			"/>
			<polygon class="st81" points="0,15.8 34.5,40 34.2,40 0,16.1 			"/>
			<polygon class="st82" points="0,15.5 34.9,40 34.5,40 0,15.8 			"/>
			<polygon class="st83" points="0,15.3 35.3,40 34.9,40 0,15.5 			"/>
			<polygon class="st84" points="0,15 35.7,40 35.3,40 0,15.3 			"/>
			<polygon class="st85" points="0,14.7 36.1,40 35.7,40 0,15 			"/>
			<polygon class="st86" points="0,14.5 36.5,40 36.1,40 0,14.7 			"/>
			<polygon class="st87" points="0,14.2 36.8,40 36.5,40 0,14.5 			"/>
			<polygon class="st88" points="0,13.9 37.2,40 36.8,40 0,14.2 			"/>
			<polygon class="st89" points="0,13.7 37.6,40 37.2,40 0,13.9 			"/>
			<polygon class="st90" points="0,13.4 38,40 37.6,40 0,13.7 			"/>
			<polygon class="st91" points="0,13.1 38.4,40 38,40 0,13.4 			"/>
			<polygon class="st92" points="0,12.9 38.8,40 38.4,40 0,13.1 			"/>
			<polygon class="st93" points="0,12.6 39.2,40 38.8,40 0,12.9 			"/>
			<polygon class="st94" points="0,12.3 39.5,40 39.2,40 0,12.6 			"/>
			<polygon class="st95" points="0,12.1 39.9,40 39.5,40 0,12.3 			"/>
			<polygon class="st96" points="0,11.8 40,39.8 40,40 39.9,40 0,12.1 			"/>
			<polygon class="st97" points="0,11.5 40,39.5 40,39.8 0,11.8 			"/>
			<polygon class="st98" points="0,11.2 40,39.3 40,39.5 0,11.5 			"/>
			<polygon class="st99" points="0,11 40,39 40,39.3 0,11.2 			"/>
			<polygon class="st100" points="0,10.7 40,38.7 40,39 0,11 			"/>
			<polygon class="st101" points="0,10.4 40,38.4 40,38.7 0,10.7 			"/>
			<polygon class="st102" points="0,10.2 40,38.2 40,38.4 0,10.4 			"/>
			<polygon class="st103" points="0,9.9 40,37.9 40,38.2 0,10.2 			"/>
			<polygon class="st104" points="0,9.6 40,37.6 40,37.9 0,9.9 			"/>
			<polygon class="st105" points="0,9.4 40,37.4 40,37.6 0,9.6 			"/>
			<polygon class="st106" points="0,9.1 40,37.1 40,37.4 0,9.4 			"/>
			<polygon class="st107" points="0,8.8 40,36.8 40,37.1 0,9.1 			"/>
			<polygon class="st108" points="0,8.6 40,36.6 40,36.8 0,8.8 			"/>
			<polygon class="st109" points="0,8.3 40,36.3 40,36.6 0,8.6 			"/>
			<polygon class="st110" points="0,8 40,36 40,36.3 0,8.3 			"/>
			<polygon class="st111" points="0,7.7 40,35.8 40,36 0,8 			"/>
			<polygon class="st112" points="0,7.5 40,35.5 40,35.8 0,7.7 			"/>
			<polygon class="st113" points="0,7.2 40,35.2 40,35.5 0,7.5 			"/>
			<polygon class="st114" points="0,6.9 40,35 40,35.2 0,7.2 			"/>
			<polygon class="st115" points="0,6.7 40,34.7 40,35 0,6.9 			"/>
			<polygon class="st116" points="0,6.4 40,34.4 40,34.7 0,6.7 			"/>
			<polygon class="st117" points="0,6.1 40,34.1 40,34.4 0,6.4 			"/>
			<polygon class="st118" points="0,5.9 40,33.9 40,34.1 0,6.1 			"/>
			<polygon class="st119" points="0,5.6 40,33.6 40,33.9 0,5.9 			"/>
			<polygon class="st120" points="0,5.3 40,33.3 40,33.6 0,5.6 			"/>
			<polygon class="st121" points="0,5.1 40,33.1 40,33.3 0,5.3 			"/>
			<polygon class="st122" points="0,4.8 40,32.8 40,33.1 0,5.1 			"/>
			<polygon class="st123" points="0,4.5 40,32.5 40,32.8 0,4.8 			"/>
			<polygon class="st124" points="0,4.3 40,32.3 40,32.5 0,4.5 			"/>
			<polygon class="st125" points="0,4 40,32 40,32.3 0,4.3 			"/>
			<polygon class="st126" points="0,3.7 40,31.7 40,32 0,4 			"/>
			<polygon class="st127" points="0,3.4 40,31.5 40,31.7 0,3.7 			"/>
			<polygon class="st128" points="0,3.2 40,31.2 40,31.5 0,3.4 			"/>
			<polygon class="st129" points="0,2.9 40,30.9 40,31.2 0,3.2 			"/>
			<polygon class="st130" points="0,2.6 40,30.6 40,30.9 0,2.9 			"/>
			<polygon class="st131" points="0,2.4 40,30.4 40,30.6 0,2.6 			"/>
			<polygon class="st132" points="0,2.1 40,30.1 40,30.4 0,2.4 			"/>
			<polygon class="st133" points="0,1.8 40,29.8 40,30.1 0,2.1 			"/>
			<polygon class="st134" points="0,1.6 40,29.6 40,29.8 0,1.8 			"/>
			<polygon class="st135" points="0,1.3 40,29.3 40,29.6 0,1.6 			"/>
			<polygon class="st136" points="0,1 40,29 40,29.3 0,1.3 			"/>
			<polygon class="st137" points="0,0.8 40,28.8 40,29 0,1 			"/>
			<polygon class="st138" points="0,0.5 40,28.5 40,28.8 0,0.8 			"/>
			<polygon class="st139" points="0,0.2 40,28.2 40,28.5 0,0.5 			"/>
			<polygon class="st140" points="0.1,0 40,28 40,28.2 0,0.2 0,0 			"/>
			<polygon class="st141" points="0.5,0 40,27.7 40,28 0.1,0 			"/>
			<polygon class="st142" points="0.9,0 40,27.4 40,27.7 0.5,0 			"/>
			<polygon class="st143" points="1.2,0 40,27.1 40,27.4 0.9,0 			"/>
			<polygon class="st144" points="1.6,0 40,26.9 40,27.1 1.2,0 			"/>
			<polygon class="st145" points="2,0 40,26.6 40,26.9 1.6,0 			"/>
			<polygon class="st146" points="2.4,0 40,26.3 40,26.6 2,0 			"/>
			<polygon class="st147" points="2.8,0 40,26.1 40,26.3 2.4,0 			"/>
			<polygon class="st148" points="3.2,0 40,25.8 40,26.1 2.8,0 			"/>
			<polygon class="st149" points="3.5,0 40,25.5 40,25.8 3.2,0 			"/>
			<polygon class="st150" points="3.9,0 40,25.3 40,25.5 3.5,0 			"/>
			<polygon class="st151" points="4.3,0 40,25 40,25.3 3.9,0 			"/>
			<polygon class="st152" points="4.7,0 40,24.7 40,25 4.3,0 			"/>
			<polygon class="st153" points="5.1,0 40,24.5 40,24.7 4.7,0 			"/>
			<polygon class="st154" points="5.5,0 40,24.2 40,24.5 5.1,0 			"/>
			<polygon class="st155" points="5.8,0 40,23.9 40,24.2 5.5,0 			"/>
			<polygon class="st156" points="6.2,0 40,23.6 40,23.9 5.8,0 			"/>
			<polygon class="st157" points="6.6,0 40,23.4 40,23.6 6.2,0 			"/>
			<polygon class="st158" points="7,0 40,23.1 40,23.4 6.6,0 			"/>
			<polygon class="st159" points="7.4,0 40,22.8 40,23.1 7,0 			"/>
			<polygon class="st160" points="7.8,0 40,22.6 40,22.8 7.4,0 			"/>
			<polygon class="st161" points="8.1,0 40,22.3 40,22.6 7.8,0 			"/>
			<polygon class="st162" points="8.5,0 40,22 40,22.3 8.1,0 			"/>
			<polygon class="st163" points="8.9,0 40,21.8 40,22 8.5,0 			"/>
			<polygon class="st164" points="9.3,0 40,21.5 40,21.8 8.9,0 			"/>
			<polygon class="st165" points="9.7,0 40,21.2 40,21.5 9.3,0 			"/>
			<polygon class="st166" points="10.1,0 40,21 40,21.2 9.7,0 			"/>
			<polygon class="st167" points="10.4,0 40,20.7 40,21 10.1,0 			"/>
			<polygon class="st168" points="10.8,0 40,20.4 40,20.7 10.4,0 			"/>
			<polygon class="st169" points="11.2,0 40,20.1 40,20.4 10.8,0 			"/>
			<polygon class="st170" points="11.6,0 40,19.9 40,20.1 11.2,0 			"/>
			<polygon class="st171" points="12,0 40,19.6 40,19.9 11.6,0 			"/>
			<polygon class="st172" points="12.4,0 40,19.4 40,19.6 12,0 			"/>
			<polygon class="st173" points="12.8,0 40,19.1 40,19.4 12.4,0 			"/>
			<polygon class="st174" points="13.1,0 40,18.8 40,19.1 12.8,0 			"/>
			<polygon class="st175" points="13.5,0 40,18.5 40,18.8 13.1,0 			"/>
			<polygon class="st176" points="13.9,0 40,18.3 40,18.5 13.5,0 			"/>
			<polygon class="st177" points="14.3,0 40,18 40,18.3 13.9,0 			"/>
			<polygon class="st178" points="14.7,0 40,17.7 40,18 14.3,0 			"/>
			<polygon class="st179" points="15.1,0 40,17.5 40,17.7 14.7,0 			"/>
			<polygon class="st180" points="15.4,0 40,17.2 40,17.5 15.1,0 			"/>
			<polygon class="st181" points="15.8,0 40,16.9 40,17.2 15.4,0 			"/>
			<polygon class="st182" points="16.2,0 40,16.7 40,16.9 15.8,0 			"/>
			<polygon class="st183" points="16.6,0 40,16.4 40,16.7 16.2,0 			"/>
			<polygon class="st184" points="17,0 40,16.1 40,16.4 16.6,0 			"/>
			<polygon class="st185" points="17.4,0 40,15.9 40,16.1 17,0 			"/>
			<polygon class="st186" points="17.8,0 40,15.6 40,15.9 17.4,0 			"/>
			<polygon class="st187" points="18.1,0 40,15.3 40,15.6 17.8,0 			"/>
			<polygon class="st188" points="18.5,0 40,15 40,15.3 18.1,0 			"/>
			<polygon class="st189" points="18.9,0 40,14.8 40,15 18.5,0 			"/>
			<polygon class="st190" points="19.3,0 40,14.5 40,14.8 18.9,0 			"/>
			<polygon class="st191" points="19.7,0 40,14.2 40,14.5 19.3,0 			"/>
			<polygon class="st192" points="20,0 40,14 40,14.2 19.7,0 			"/>
			<polygon class="st193" points="20.4,0 40,13.7 40,14 20,0 			"/>
			<polygon class="st194" points="20.8,0 40,13.4 40,13.7 20.4,0 			"/>
			<polygon class="st195" points="21.2,0 40,13.2 40,13.4 20.8,0 			"/>
			<polygon class="st196" points="21.6,0 40,12.9 40,13.2 21.2,0 			"/>
			<polygon class="st197" points="22,0 40,12.6 40,12.9 21.6,0 			"/>
			<polygon class="st198" points="22.4,0 40,12.4 40,12.6 22,0 			"/>
			<polygon class="st199" points="22.7,0 40,12.1 40,12.4 22.4,0 			"/>
			<polygon class="st200" points="23.1,0 40,11.8 40,12.1 22.7,0 			"/>
			<polygon class="st201" points="23.5,0 40,11.6 40,11.8 23.1,0 			"/>
			<polygon class="st202" points="23.9,0 40,11.3 40,11.6 23.5,0 			"/>
			<polygon class="st203" points="24.3,0 40,11 40,11.3 23.9,0 			"/>
			<polygon class="st204" points="24.7,0 40,10.7 40,11 24.3,0 			"/>
			<polygon class="st205" points="25,0 40,10.5 40,10.7 24.7,0 			"/>
			<polygon class="st206" points="25.4,0 40,10.2 40,10.5 25,0 			"/>
			<polygon class="st207" points="25.8,0 40,9.9 40,10.2 25.4,0 			"/>
			<polygon class="st208" points="26.2,0 40,9.7 40,9.9 25.8,0 			"/>
			<polygon class="st209" points="26.6,0 40,9.4 40,9.7 26.2,0 			"/>
			<polygon class="st210" points="27,0 40,9.1 40,9.4 26.6,0 			"/>
			<polygon class="st211" points="27.4,0 40,8.9 40,9.1 27,0 			"/>
			<polygon class="st212" points="27.7,0 40,8.6 40,8.9 27.4,0 			"/>
			<polygon class="st213" points="28.1,0 40,8.3 40,8.6 27.7,0 			"/>
			<polygon class="st214" points="28.5,0 40,8.1 40,8.3 28.1,0 			"/>
			<polygon class="st215" points="28.9,0 40,7.8 40,8.1 28.5,0 			"/>
			<polygon class="st216" points="29.3,0 40,7.5 40,7.8 28.9,0 			"/>
			<polygon class="st217" points="29.6,0 40,7.3 40,7.5 29.3,0 			"/>
			<polygon class="st218" points="30,0 40,7 40,7.3 29.6,0 			"/>
			<polygon class="st219" points="30.4,0 40,6.7 40,7 30,0 			"/>
			<polygon class="st220" points="30.8,0 40,6.4 40,6.7 30.4,0 			"/>
			<polygon class="st221" points="31.2,0 40,6.2 40,6.4 30.8,0 			"/>
			<polygon class="st222" points="31.6,0 40,5.9 40,6.2 31.2,0 			"/>
			<polygon class="st223" points="32,0 40,5.6 40,5.9 31.6,0 			"/>
			<polygon class="st224" points="32.3,0 40,5.4 40,5.6 32,0 			"/>
			<polygon class="st225" points="32.7,0 40,5.1 40,5.4 32.3,0 			"/>
			<polygon class="st226" points="33.1,0 40,4.8 40,5.1 32.7,0 			"/>
			<polygon class="st227" points="33.5,0 40,4.6 40,4.8 33.1,0 			"/>
			<polygon class="st228" points="33.9,0 40,4.3 40,4.6 33.5,0 			"/>
			<polygon class="st229" points="34.3,0 40,4 40,4.3 33.9,0 			"/>
			<polygon class="st230" points="34.7,0 40,3.8 40,4 34.3,0 			"/>
			<polygon class="st231" points="35,0 40,3.5 40,3.8 34.7,0 			"/>
			<polygon class="st232" points="35.4,0 40,3.2 40,3.5 35,0 			"/>
			<polygon class="st233" points="35.8,0 40,2.9 40,3.2 35.4,0 			"/>
			<polygon class="st234" points="36.2,0 40,2.7 40,2.9 35.8,0 			"/>
			<polygon class="st235" points="36.6,0 40,2.4 40,2.7 36.2,0 			"/>
			<polygon class="st235" points="40,2.4 36.6,0 40,0 			"/>
		</g>
	</g>
	<path class="st236" d="M26.5,34.8H12.9c-4.4,0-8-3.6-8-8V13.2c0-4.4,3.6-8,8-8h13.5c4.4,0,8,3.6,8,8l0,0v13.5
		C34.5,31.2,30.9,34.8,26.5,34.8z M12.9,7.7c-3.1,0-5.5,2.5-5.5,5.5v13.5c0,3.1,2.5,5.5,5.5,5.5h0h13.5c3.1,0,5.5-2.5,5.5-5.5v0
		V13.2c0-3.1-2.5-5.5-5.5-5.5c0,0,0,0,0,0L12.9,7.7z"/>
	<path class="st236" d="M19.7,27.4c-4.1,0-7.4-3.3-7.4-7.4s3.3-7.4,7.4-7.4c4.1,0,7.4,3.3,7.4,7.4C27.1,24.1,23.8,27.4,19.7,27.4
		C19.7,27.4,19.7,27.4,19.7,27.4z M19.7,15.1c-2.7,0-4.9,2.2-4.9,4.9c0,2.7,2.2,4.9,4.9,4.9c2.7,0,4.9-2.2,4.9-4.9
		C24.6,17.3,22.4,15.1,19.7,15.1C19.7,15.1,19.7,15.1,19.7,15.1L19.7,15.1z"/>
	<circle class="st236" cx="27.5" cy="12.1" r="1.7"/>
</g>
</svg>
