<?xml version="1.0" encoding="utf-8"?>
<!-- Generator: Adobe Illustrator 21.0.2, SVG Export Plug-In . SVG Version: 6.00 Build 0)  -->
<svg version="1.1" id="Layer_1" xmlns="http://www.w3.org/2000/svg" xmlns:xlink="http://www.w3.org/1999/xlink" x="0px" y="0px"
	 viewBox="0 0 16 16" style="enable-background:new 0 0 16 16;" xml:space="preserve">
<style type="text/css">
	.st0{fill:#AC1A1A;}
</style>
<g>
	<polygon class="st0" points="8,1.4 10.1,5.8 14.9,6.5 11.4,9.8 12.3,14.6 8,12.3 3.7,14.6 4.6,9.8 1.1,6.5 5.9,5.8 	"/>
	<path class="st0" d="M3.1,15.5L4,10L0,6.1l5.5-0.8l2.5-5l2.5,5L16,6.1L12,10l0.9,5.5L8,12.9L3.1,15.5z M8,11.7l3.6,1.9l-0.7-4
		l2.9-2.8l-4-0.6L8,2.6L6.2,6.2l-4,0.6l2.9,2.8l-0.7,4L8,11.7z"/>
</g>
</svg>
