<?xml version="1.0" encoding="utf-8"?>
<!-- Generator: Adobe Illustrator 21.0.2, SVG Export Plug-In . SVG Version: 6.00 Build 0)  -->
<svg version="1.1" id="Emblem" xmlns="http://www.w3.org/2000/svg" xmlns:xlink="http://www.w3.org/1999/xlink" x="0px" y="0px"
	 viewBox="0 0 271.5 418.8" style="enable-background:new 0 0 271.5 418.8;" xml:space="preserve">
<style type="text/css">
	.st0{fill:#C63232;}
</style>
<g>
	<path class="st0" d="M271.5,331.2c0-0.5-0.1-1.1-0.1-1.6c0-4.3-0.9-11.9-2.8-22.6c-2.5-14.8-9.7-21.5-14.4-26
		c-0.8-0.8-1.6-1.6-2.3-2.3c-2-2.1-5.2-5-10-9.6c-7-6.4-17.5-16.2-31.7-30.2c-19.2-18.9-21.3-34.6-22.7-45c-0.3-1.9-0.5-3.8-0.8-5.5
		c-2.1-11.1-14.9-88.3-16.5-97.9v-2.3c0-26.6-17.1-68.8-19-72.5c-0.2-0.5-0.5-1-0.8-1.6C148,8.8,143.8,0,135.8,0
		c-8,0-12.2,8.8-14.7,14.2c-0.3,0.6-0.5,1.1-0.8,1.6c-1.8,3.7-19,45.9-19,72.5v2.5c-1.6,9.8-14.4,86.7-16.4,97.7
		c-0.3,1.7-0.6,3.6-0.8,5.5c-1.4,10.4-3.4,26.1-22.7,45c-14.3,14-24.8,23.8-31.8,30.3c-4.8,4.5-8,7.4-10,9.5
		c-0.7,0.7-1.5,1.5-2.3,2.3c-4.7,4.5-11.9,11.2-14.4,26c-1.8,10.7-2.8,18.3-2.8,22.6c0,0.5,0,1.1-0.1,1.6c-0.1,2.9-0.5,9,7,11.1
		c4.2,1.2,63.6,12.7,83.1,16.5c0,0,0.1,0.1,0.1,0.1c0.1,0.1,0.2,0.1,0.3,0.2c0.1,0.1,0.3,0.2,0.5,0.3c0,0,0.1,0,0.1,0.1l-7,10.8v0.8
		c0,1.5,0.8,2.8,2.1,3.5l9.5,4.8l2.9,11.6c0.3,1.2,1.2,2.2,2.3,2.7c5.6,2.3,11.8,3.6,18,3.6h0.2c3.1,0,6.3-0.3,9.3-0.9
		c1.6,19.8,2.8,21.2,5.7,22.3c0.5,0.2,1,0.3,1.5,0.3s1-0.1,1.5-0.3c2.9-1,4.1-2.5,5.7-21.7c3.1,0.7,6.2,1.1,9.4,1.1c0.5,0,1,0,1.6,0
		c5.9-0.2,11.7-1.7,16.9-4.4c1-0.5,1.8-1.5,2-2.5l2.9-11.6l9.5-4.8c1.3-0.7,2.1-2,2.1-3.5v-0.8l-6.6-11.1c0.1,0,0.2-0.1,0.2-0.1
		c0.1-0.1,0.2-0.1,0.3-0.2c0,0,0.1,0,0.1-0.1c24.3-4.7,79-15.4,83.1-16.5C272,340.2,271.6,334.1,271.5,331.2z M265.1,329.6
		c0,0.7,0,1.3,0.1,2c0.2,3.1,0.1,3.9-2.4,4.6c-1.9,0.6-18.1,3.8-37.2,7.5c-0.1-1.1-0.2-2.5-0.3-4.1c-0.1-0.9-0.2-1.9-0.3-3
		c-0.1-1.1-0.2-2.2-0.3-3.3c-0.1-0.9-0.2-1.8-0.3-2.7l40.7-3.1C265,328.3,265.1,329,265.1,329.6z M168.1,388.4
		c-7.6,3.4-16.6,4-24.8,2c-0.9-0.2-1.8-0.5-2.6-0.8c0-0.2,0-0.4,0-0.6c2.9,0.5,5.9,0.9,8.9,1.1c4.2,0.2,8.3,0,12.4-0.6
		C164.1,389.3,166.1,388.9,168.1,388.4z M75.3,232.2c4.3-5.5,7.9-11.6,10.5-18.1c1.3-3.4,2.4-6.9,3.1-10.5c0.7-3.7,1.1-7.4,1.7-11.2
		c1-7.3,2.1-14.6,3.2-22c1.1-7,2.1-14,3.3-20.9c1.1-6.5,2.2-13,3.4-19.5c0.2-0.9,0.4-1.8,0.5-2.8c-0.6,4.6-1.2,9.1-1.9,13.7
		c-0.9,7.1-1.9,14.1-2.8,21.2c-1,7.3-1.9,14.6-2.8,22c-0.5,3.8-1,7.6-1.5,11.4c-0.4,3.8-1,7.6-1.9,11.3c-1.7,7-4.7,13.7-8.6,19.8
		c-3.9,6.1-8.5,11.7-13.6,16.8c-5.3,5.4-10.8,10.6-16.3,15.9c-5.5,5.2-11.1,10.4-16.7,15.6c-2.8,2.5-5.6,5-8.3,7.6
		c-1.3,1.3-2.6,2.6-3.9,3.8c-1.4,1.3-2.8,2.5-4.1,3.8c-2.5,2.5-4.8,5.3-6.5,8.4c-1.5,2.7-2.8,5.6-3.7,8.6c-0.4,1.1-0.7,2.3-1,3.4
		c1-5.9,2.9-11.5,6.3-16.4c2.1-3,4.6-5.6,7.2-8.2c2.5-2.4,4.9-5,7.5-7.4c5.2-5,10.6-10,15.9-15c5.5-5.2,10.9-10.4,16.4-15.6
		C65.8,242.9,70.9,237.9,75.3,232.2z M176.7,194.6c2,10.8,0.9,29.5,24.8,52.9s36.9,34.7,41.7,39.6c4.7,4.9,18.1,16.9,21,32.4
		c0.2,1.2,0.3,2.2,0.4,3.2l-40.7,1.4l-0.3,0c-0.1-0.6-0.1-1.2-0.2-1.8c-0.1-1.2-0.3-2.4-0.4-3.6c-0.3-2.3-0.6-4.5-0.8-6.3
		c-0.2-1.8-0.5-3.4-0.7-4.5c-0.2-1.1-0.3-1.7-0.3-1.7s0,0.6,0,1.7c0,1.1-0.1,2.6,0,4.5c0,1.9,0,4,0,6.4c0,1.2,0,2.4,0.1,3.6
		c0,0.6,0,1.1,0,1.7l-0.3,0l-41.6,1.4c-1.2-9-3.5-16.6-5.8-20.8c-1.7-3.1-3.9-5.4-6.1-6.9V113.1c0.5,3.1,1.1,6.4,1.6,9.9
		C172.5,157.2,175.8,189.6,176.7,194.6z M115.6,367.4c-3-0.3-6-1.1-8.9-2c-2.5-0.8-5.1-1.6-7.4-2.8c-0.2-0.1-0.4-0.2-0.6-0.3
		c0.3,0,0.5,0.1,0.7,0.1c2.8,0.3,5.5,1.1,8.1,1.9C110.4,365.1,113.1,366,115.6,367.4z M115.1,370.9c-3.3-0.4-6.5-1.2-9.6-2.2
		c-2.8-0.8-5.5-1.8-8-3c-0.2-0.1-0.4-0.2-0.7-0.3c0.3,0,0.6,0.1,0.8,0.1c3,0.4,5.9,1.2,8.8,2.1C109.4,368.4,112.4,369.4,115.1,370.9
		z M104.3,371.9c-2.9-0.9-5.9-1.9-8.6-3.2c-0.2-0.1-0.5-0.2-0.7-0.3c0.3,0,0.6,0.1,0.9,0.1c3.2,0.5,6.4,1.4,9.5,2.3
		c3.2,1,6.4,2,9.4,3.6C111.1,373.9,107.6,373,104.3,371.9z M120,42c2.6-0.8,5.2-1.6,7.9-2c0,0,0,0,0,0c2.7-0.4,5.5-0.6,8.3-0.6
		c6.3,0.1,12.5,1.2,18.4,3.4c4.6,14.2,9.2,32,9.2,45.4v7.4c-1.1-0.5-2.3-0.9-3.4-1.3c-2.2-0.7-4.4-1.3-6.6-1.8
		c-8.3-1.7-16.9-2.1-25.3-1.5c-2.6,0.2-5.3,0.5-7.9,1c0-1.7,0-3,0-3.8c0-3.9,0.4-8.5,1-13.7c-0.2,0.1-0.3,0.2-0.5,0.2l-4.7,1.7
		c-0.3,0.1-0.5,0.1-0.8,0.1c-0.5,0-0.9-0.1-1.3-0.4c-0.6-0.4-1-1.1-1-1.8v-8.5c0-1.3,1.4-2.7,1.8-3l9-6.3c0.1-0.1,0.2-0.1,0.4-0.2
		c0.9-4.7,1.9-9.6,2.9-14.3C125,41.8,122.5,41.9,120,42z M137.4,21.4c0,1.7-0.7,3.2-1.5,3.2s-1.5-1.4-1.5-3.2c0-1.7,0.7-3.2,1.5-3.2
		S137.4,19.7,137.4,21.4z M132.6,21.6c-0.2,1.7-1.1,3-1.9,2.9c-0.8-0.1-1.3-1.6-1.1-3.3c0.2-1.6,1-2.9,1.8-2.9c0,0,0.1,0,0.1,0
		C132.3,18.3,132.9,19.9,132.6,21.6z M130.6,34.1c0-0.8,0.6-1.4,1.4-1.4s1.4,0.6,1.4,1.4c0,0.8-0.6,1.4-1.4,1.4
		S130.6,34.9,130.6,34.1z M138.1,34.1c0-0.8,0.6-1.4,1.4-1.4c0.8,0,1.4,0.6,1.4,1.4c0,0.8-0.6,1.4-1.4,1.4
		C138.7,35.5,138.1,34.9,138.1,34.1z M135.8,35.5c-0.8,0-1.4-0.6-1.4-1.4c0-0.8,0.6-1.4,1.4-1.4s1.4,0.6,1.4,1.4
		C137.2,34.9,136.5,35.5,135.8,35.5z M176.7,339.5v14h-1h-7.4h-0.9h-23.8v-41.9c0-2.3,0.7-5.4,2.1-8.8c0.8-2,2.7-3.3,4.9-3.3h10.5
		c2.6,0,6.7,2.5,9.2,7.2C173,311.2,176.7,323.9,176.7,339.5z M141.9,369.9c0-0.4,0-0.7,0.1-1.1c0.3,0,0.5,0,0.8,0
		c1.9,0.1,3.8,0.2,5.7,0.5C146.3,369.6,144.1,369.8,141.9,369.9z M149.5,374.8c-2.6,0.3-5.3,0.5-7.9,0.6c0-0.4,0-0.7,0.1-1.1
		c0.6,0,1.2,0,1.8,0.1C145.5,374.4,147.5,374.5,149.5,374.8z M142.2,364.4c0-0.3,0-0.7,0-1c1.7,0.1,3.4,0.3,5.1,0.5
		C145.7,364.1,143.9,364.3,142.2,364.4z M142.5,358.8c0-0.3,0-0.6,0-0.9c1.3,0.1,2.6,0.2,3.8,0.5C145,358.6,143.7,358.7,142.5,358.8
		z M141,303.9c-1.2-5.5-2.6-7.6-3.6-8.4v-43.1c1.9,0,3.7,0,5.6,0.1c4.1,0.1,8.2,0.4,12.3,0.8c2.9,0.3,5.8,0.7,8.6,1.2v41.8
		c-0.9-0.3-1.8-0.4-2.6-0.4h-10.5c-3.7,0-6.9,2.2-8.3,5.6c-0.5,1.2-0.9,2.3-1.2,3.4C141.1,304.5,141.1,304.2,141,303.9z
		 M120.6,197.6c0-16.9,0-33.4,0-48.2c-2.9-0.5-5.7-0.8-8.6-1.1c2.3-0.4,4.7-0.6,7-0.9c5.1-0.4,10.1-0.6,15.2-0.7v49.6
		c-1.9,0-3.8,0.1-5.7,0.3C125.9,196.8,123.2,197.2,120.6,197.6z M163.8,201.1c-1.1-0.5-2.3-0.9-3.4-1.3c-2.2-0.7-4.4-1.3-6.6-1.8
		c-5.4-1.1-10.9-1.7-16.5-1.7v-49.6c1.9,0,3.7,0,5.6,0.1c4.1,0.1,8.2,0.4,12.3,0.8c2.9,0.3,5.8,0.7,8.6,1.2V201.1z M142.9,199.6
		c4.1,0.1,8.2,0.4,12.3,0.8c2.9,0.3,5.8,0.7,8.6,1.2v52.2c-1.1-0.5-2.3-0.9-3.4-1.3c-2.2-0.7-4.4-1.3-6.6-1.8
		c-5.4-1.1-10.9-1.7-16.5-1.7v-49.6C139.2,199.5,141.1,199.6,142.9,199.6z M163.8,148.4c-1.1-0.5-2.3-0.9-3.4-1.3
		c-2.2-0.7-4.4-1.3-6.6-1.8c-5.4-1.1-10.9-1.7-16.5-1.7V94c1.9,0,3.7,0,5.6,0.1c4.1,0.1,8.2,0.4,12.3,0.8c2.9,0.3,5.8,0.7,8.6,1.2
		V148.4z M117.9,94.7c5.4-0.5,10.9-0.7,16.3-0.7v49.6c-1.9,0-3.8,0.1-5.7,0.3c-2.6,0.2-5.3,0.5-7.9,1c0-21,0-38.3,0-48.3
		c-2.9-0.5-5.7-0.8-8.6-1.1c0.5-0.1,1-0.1,1.5-0.2C114.9,95,116.4,94.9,117.9,94.7z M117.9,200.3c5.4-0.5,10.9-0.7,16.3-0.7v49.6
		c-1.9,0-3.8,0.1-5.7,0.3c-2.6,0.2-5.3,0.5-7.9,1c0-15.8,0-32.2,0-48.2c-2.9-0.5-5.7-0.8-8.6-1.1c1.6-0.2,3.1-0.5,4.7-0.6
		C117.1,200.4,117.5,200.3,117.9,200.3z M117.9,253c5.4-0.5,10.9-0.7,16.3-0.7v43.1c-1.6,1.2-2.9,4.4-3.9,9.3
		c-0.3-1.1-0.7-2.2-1.2-3.4c-1.4-3.4-4.6-5.6-8.3-5.6h-0.2c0-12.5,0-26.4,0-40.9c-2.9-0.5-5.7-0.8-8.6-1.1c1.2-0.2,2.4-0.3,3.6-0.5
		C116.3,253.2,117.1,253.1,117.9,253z M109.2,358.9c-1.7-0.5-3.3-1.1-4.9-1.8h1.6h1.8c0.8,0.2,1.6,0.4,2.5,0.7
		c2.3,0.7,4.5,1.5,6.5,2.7C114.1,360.3,111.6,359.6,109.2,358.9z M116.2,363.9c-2.8-0.2-5.6-1-8.2-1.8c-2.3-0.7-4.6-1.5-6.7-2.6
		c-0.2-0.1-0.4-0.2-0.6-0.3c0.3,0,0.5,0,0.7,0.1c2.6,0.3,5.1,1,7.5,1.7C111.4,361.8,113.9,362.6,116.2,363.9z M129.1,358.8
		c-1-0.1-2-0.2-3-0.3c-0.3,0-0.5-0.1-0.9-0.1c0.3-0.1,0.6-0.1,0.9-0.1c1-0.1,2-0.3,3-0.3C129,358.2,129.1,358.5,129.1,358.8z
		 M129.3,363.3c0,0.3,0,0.7,0,1c-1.7-0.1-3.5-0.3-5.2-0.5c0.5-0.1,0.9-0.1,1.2-0.1C126.6,363.5,127.9,363.4,129.3,363.3z
		 M129.5,368.8c0,0.4,0,0.7,0.1,1.1c-0.3,0-0.6,0-0.9,0c-1.8-0.1-3.6-0.2-5.3-0.5c-0.1,0-0.2,0-0.3,0c0.5-0.1,0.9-0.1,1.1-0.1
		C126,369,127.8,368.9,129.5,368.8z M129.8,374.2c0,0.4,0,0.7,0.1,1.1c-0.6,0-1.2,0-1.9-0.1c-1.9-0.1-3.8-0.2-5.7-0.5
		c-0.1,0-0.2,0-0.3,0c0.6-0.1,1-0.1,1.3-0.1C125.4,374.4,127.6,374.3,129.8,374.2z M92.5,323.5c-0.1,0.7-0.2,1.4-0.3,2.1l-41.6-1.4
		l-0.3,0c0-0.6,0-1.1,0-1.7c0-1.2,0-2.4,0.1-3.6c0-2.3,0-4.5,0-6.4c0-1.9,0-3.4,0-4.5c0-1.1,0-1.7,0-1.7s-0.1,0.6-0.3,1.7
		c-0.2,1.1-0.4,2.6-0.7,4.5c-0.2,1.8-0.6,4-0.8,6.3c-0.1,1.2-0.3,2.3-0.4,3.6c-0.1,0.6-0.1,1.2-0.2,1.8l-0.3,0l-40.3-1.3
		c0.2-0.6,0.3-1.2,0.5-1.9c4.3-16.3,15.8-25.2,20.5-30.1c4.7-5,17.8-15.3,41.7-38.7c12.5-12.3,18.6-24.5,21.9-34.9
		c-2.7,24.5-4.8,44.3-5.3,49.7c-1.5,17.1-4.7,35.9-23.9,45.3c-2.8,1.4-6.4,2.8-10.3,4.4l-0.1,5.7L92.5,323.5z M49.5,344.3
		c0.1-1.1,0.2-2.6,0.2-4.5c0-0.9,0.1-1.9,0.1-3c0-1.1,0.1-2.2,0.1-3.3c0-0.9,0.1-1.8,0.1-2.7l0.2,0l41,3.1c0,0.6-0.1,1.1-0.1,1.7
		l-39-3l-0.2,10.5c15.8,3.1,31.6,6.2,39.1,7.6v1.8c-12.1-2.3-27.4-5.3-41.6-8.1C49.5,344.4,49.5,344.3,49.5,344.3z M95.8,353.4h-1.1
		v-14c0-15.6,3.8-28.2,6.3-32.9c2.5-4.7,6.6-7.2,9.2-7.2h10.5c2.2,0,4.1,1.3,4.9,3.3c1.4,3.5,2.1,6.5,2.1,8.8v41.9h-23.8h-1.1H95.8z
		 M122.3,380.1c2.6-0.3,5.2-0.4,7.8-0.5c0,0.3,0,0.6,0.1,0.9c0,0.1,0,0.2,0,0.3c-0.9,0-1.8,0-2.7-0.1c-2.2-0.1-4.4-0.2-6.6-0.5
		C121.6,380.2,122,380.1,122.3,380.1z M141.3,380.5c0-0.3,0-0.6,0.1-0.9c0.9,0,1.8,0,2.6,0.1c2.2,0.1,4.4,0.2,6.6,0.5
		c-3.1,0.4-6.2,0.5-9.3,0.6C141.3,380.7,141.3,380.6,141.3,380.5z M160.6,357.7c2.2-0.7,4.5-1.3,6.9-1.5c0.2,0,0.4-0.1,0.6-0.1
		c-0.2,0.1-0.4,0.2-0.5,0.3c-1.9,1-3.9,1.8-6,2.4c-2.4,0.7-4.9,1.4-7.5,1.6C156,359.2,158.3,358.4,160.6,357.7z M161.8,361
		c2.4-0.7,5-1.4,7.5-1.7c0.2,0,0.4-0.1,0.7-0.1c-0.2,0.1-0.4,0.2-0.6,0.3c-2.1,1.1-4.4,1.9-6.7,2.6c-2.7,0.8-5.4,1.6-8.2,1.8
		C156.8,362.6,159.3,361.8,161.8,361z M163.1,364.2c2.6-0.8,5.3-1.5,8.1-1.9c0.2,0,0.5-0.1,0.7-0.1c-0.2,0.1-0.4,0.2-0.6,0.3
		c-2.3,1.2-4.9,2.1-7.4,2.8c-2.9,0.9-5.8,1.7-8.9,2C157.6,366,160.3,365.1,163.1,364.2z M164.3,367.5c2.9-0.9,5.8-1.7,8.8-2.1
		c0.2,0,0.5-0.1,0.8-0.1c-0.3,0.1-0.5,0.2-0.7,0.3c-2.6,1.3-5.3,2.2-8,3c-3.1,1-6.3,1.8-9.6,2.2
		C158.3,369.4,161.3,368.4,164.3,367.5z M165.5,370.8c3.1-0.9,6.3-1.8,9.5-2.3c0.3-0.1,0.5-0.1,0.9-0.1c-0.3,0.1-0.5,0.3-0.7,0.3
		c-2.7,1.3-5.7,2.3-8.6,3.2c-3.4,1-6.8,2-10.4,2.4C159.1,372.8,162.3,371.8,165.5,370.8z M180.2,333.9l41-3.1l0.2,0
		c0,0.9,0.1,1.8,0.1,2.7c0,1.2,0.1,2.3,0.1,3.3c0,1.1,0.1,2.1,0.1,3c0.1,1.9,0.2,3.4,0.2,4.5c0,0,0,0.1,0,0.1
		c-14.2,2.8-29.6,5.8-41.7,8.1v-13.1C180.4,337.6,180.3,335.8,180.2,333.9z M153.3,39c-3.5-1.2-7.2-2-10.9-2.4V32
		c0-0.8-0.6-1.4-1.4-1.4h-10.4c-0.2,0-0.5,0.1-0.7,0.2c0.2-1,0.5-2,0.7-2.9h12.1c0.8,0,1.4-0.6,1.4-1.4v-0.7
		c1.8,0.2,3.5,0.4,4.6,0.6C150.1,29.8,151.7,34.2,153.3,39z M140.3,18.2C140.3,18.2,140.3,18.2,140.3,18.2c0.9,0,1.7,1.3,1.9,2.9
		c0.1,0.9,0,1.7-0.2,2.3c-0.2,0.6-0.6,0.9-0.9,1c0,0-0.1,0-0.1,0c-0.8,0-1.6-1.3-1.8-2.9C138.9,19.9,139.4,18.3,140.3,18.2z
		 M128.4,11.1c-1.1,2.2-2.1,4.4-3,6.7c-1.9,4.7-3.6,9.4-5.1,14.2c-3.3,10.1-6.1,20.3-8.3,30.6c-1.2,5.5-2.3,11-3,16.6
		c-0.4,2.8-0.6,5.7-0.7,8.5c-0.1,2.8,0,5.7,0,8.5c0,11.3,0.1,22.6,0.1,33.9c0,11.6,0.1,23.2,0.1,34.8c0,11.5,0,22.9,0.1,34.4
		c0,11.1,0,22.3,0,33.4c0,10.3,0,20.6,0,31c0,8.4,0,16.8-0.1,25.2c0,2.3,0,4.6,0,7c-0.7,0.2-1.5,0.4-2.3,0.8c0-2.3,0-4.5,0-6.8
		c0-7.9,0-15.9-0.1-23.8c0-10.1,0-20.3,0-30.4c0-10.9,0-21.8,0-32.6c0-11.3,0-22.5,0-33.8c0-11.4,0.1-22.8,0.1-34.3
		c0-11.2,0.1-22.4,0.1-33.6c0-2.7,0-5.5,0-8.2c0-2.8,0-5.5,0.2-8.3c0.4-5.5,1.4-10.9,2.5-16.2c2.1-10.4,5-20.7,8.3-30.8
		c1.6-4.9,3.3-9.7,5.2-14.4c1.7-4.3,3.6-8.7,5.9-12.7c0.9-1.6,1.9-3.1,3.1-4.4C130.2,7.7,129.2,9.4,128.4,11.1z M6.4,331.5
		c0-0.6,0.1-1.3,0.1-2c0-0.5,0-1.2,0.1-2.1l40.7,3.1c-0.1,0.9-0.2,1.8-0.3,2.7c-0.1,1.2-0.2,2.3-0.3,3.3c-0.1,1.1-0.2,2.1-0.3,3
		c-0.2,1.7-0.3,3.1-0.3,4.1c-19.1-3.8-35.3-7-37.2-7.5C6.3,335.5,6.3,334.6,6.4,331.5z M115.7,390.2c4.2,0.2,8.3,0,12.4-0.6
		c0.9-0.1,1.8-0.3,2.7-0.4c0,0.2,0,0.4,0,0.6c-6.8,2.2-14.5,2.5-21.5,0.8c-2.1-0.5-4.1-1.2-6-2C107.4,389.3,111.5,390,115.7,390.2z
		 M135.8,299.1L135.8,299.1c1.4,2.6,3.8,11.7,3.8,33.1c0,16.9-2,56.1-3.8,73c0,0,0,0,0,0V299.1z"/>
	<path class="st0" d="M131.1,81.3c-2,0-3.6,1.6-3.6,3.6v0.5c0,2,1.6,3.6,3.6,3.6c2,0,3.6-1.6,3.6-3.6v-0.5
		C134.7,82.9,133.1,81.3,131.1,81.3z"/>
	<path class="st0" d="M140.7,81.3c-2,0-3.6,1.6-3.6,3.6v0.5c0,2,1.6,3.6,3.6,3.6c2,0,3.6-1.6,3.6-3.6v-0.5
		C144.3,82.9,142.7,81.3,140.7,81.3z"/>
	<path class="st0" d="M45,331.9l-17.1-1.3l-1.8,2c-1.1,1.5-2,3.2-2.5,4.9c5.9,1.2,13,2.6,20.4,4.1L45,331.9z"/>
	<path class="st0" d="M46,322l0.3-2.8c-2.1,0.9-4.2,1.9-6.2,2.9L46,322z"/>
	<path class="st0" d="M97,351.2h28.6v-8c-6.3-1.5-17.8-5.8-19-16.7c-1.2-10.8,0.2-18.5,2.1-24.4c-1.6,0.7-3.9,2.4-5.7,5.6
		c-2.3,4.3-6,16.8-6,31.9V351.2z"/>
	<path class="st0" d="M147.8,303.5c-1.3,3.2-1.9,6-1.9,8v39.6h7.5c0-9.9,0-34.8,0-39.6c0-3.1,1.1-6.7,2.2-9.5
		c0.1-0.1,0.1-0.3,0.2-0.4h-5.2C149.4,301.6,148.3,302.4,147.8,303.5z"/>
	<path class="st0" d="M120.3,67.3l-4.7-1.4v8.5l4.7-1.7c0.6-0.2,1-0.8,1-1.4v-2.5C121.3,68,120.9,67.4,120.3,67.3z"/>
	<path class="st0" d="M121.2,66.1c0.5,0.1,0.9,0.1,1.3-0.2l2.5-1.8c0.4-0.3,0.7-0.8,0.6-1.3l-0.2-4.3l-9,6.3L121.2,66.1z"/>
	<path class="st0" d="M150.2,68.7v2.5c0,0.6,0.4,1.2,1,1.4l4.7,1.7v-8.5l-4.7,1.4C150.6,67.4,150.2,68,150.2,68.7z"/>
	<path class="st0" d="M146.5,64.1l2.5,1.8c0.4,0.3,0.9,0.4,1.3,0.2l4.7-1.4l-9-6.3l-0.2,4.3C145.8,63.3,146.1,63.8,146.5,64.1z"/>
	<path class="st0" d="M128.6,65.3h14.3c0.8,0,1.4-0.6,1.5-1.4l0,0l0.3-6.3c-1.2-0.5-4.8-1.9-9-1.9c-4.2,0-7.8,1.4-9,1.9l0.3,6.3
		C127.2,64.7,127.8,65.3,128.6,65.3z"/>
</g>
</svg>
