<?xml version="1.0" encoding="utf-8"?>
<!-- Generator: Adobe Illustrator 21.0.2, SVG Export Plug-In . SVG Version: 6.00 Build 0)  -->
<svg version="1.1" id="Emblem" xmlns="http://www.w3.org/2000/svg" xmlns:xlink="http://www.w3.org/1999/xlink" x="0px" y="0px"
	 viewBox="0 0 203.9 213.8" style="enable-background:new 0 0 203.9 213.8;" xml:space="preserve">
<style type="text/css">
	.st0{fill:#FFFFFF;}
</style>
<g>
	<path class="st0" d="M202.4,73.1c-1.1-3.4-2.7-7.7-5.9-9.7c-0.9-0.5-1.7-0.7-2.7-0.7c-0.4,0-0.9,0-1.3,0c-0.3,0-0.7-0.1-1-0.1
		c-0.6-0.1-0.7-0.1-0.9-0.6c-1.6-3.1-3.4-6.1-5.3-9.1c-6.7-10.3-15.6-19.2-25.7-26.3c-10.3-7.2-21.9-12.4-34.1-15.1
		c-0.5-0.1-1.2-0.1-1.5-0.5c-0.2-0.3-0.3-0.8-0.4-1.1c-0.2-0.6-0.3-1.3-0.4-1.9c-0.2-0.9-0.2-1.7-0.7-2.5c-0.6-1-1.4-1.7-2.4-2.3
		c-2.5-1.5-5.6-2.2-8.6-2.6c-2.7-0.4-5.5-0.5-8.2-0.5C99.4,0.1,95.4,0.5,92,2.1c-1.5,0.7-2.9,1.8-3.5,3.4c-0.5,1.4-0.7,2.9-1.1,4.3
		c-0.2,0.7-0.4,0.6-1.1,0.8c-0.8,0.1-1.5,0.3-2.2,0.4c-1.5,0.3-3.1,0.7-4.6,1c-2.9,0.7-5.8,1.6-8.7,2.6c-5.7,2-11.3,4.6-16.5,7.7
		C43.5,28.6,34,37,26.3,46.8c-3.9,5-7.3,10.4-10.1,16c-0.7,1.4-1.4,2.9-2,4.3c-0.2,0.4-0.3,0.7-0.5,1.1c-0.2,0.5-0.3,0.5-0.7,0.5
		c-0.3,0-0.6,0-0.9,0c-1.9,0-3.5-0.5-5.3,0.7C4.6,71,3.2,73.6,2.3,76c-1,2.6-1.8,5.4-2.1,8.2c-0.3,2.4-0.3,5,0.6,7.2
		c0.8,1.9,2.1,2.5,3.9,3.3c0.6,0.2,1.7,0.5,1.8,1c0.2,0.6-0.2,1.8-0.2,2.5c-0.1,1-0.1,1.9-0.2,2.9c-0.2,3.6-0.2,7.2,0,10.7
		c0.4,6.9,1.4,13.7,3.2,20.3c0.9,3.4,2,6.7,3.3,9.9c0.3,0.7,0.7,1.4,0.6,2.2c-0.1,0.8-0.3,1.5-0.6,2.2c-0.4,1-1,1.7-1.7,2.5
		c-1.8,2.3-0.3,5.9,0.8,8.2c1.1,2.4,2.6,4.8,4.7,6.5c0.9,0.8,2,1.4,3.2,1.5c1.3,0.1,2.5-0.4,3.8-0.3c0.6,0.1,1.7,0.1,2.2,0.5
		c0.5,0.4,0.9,1.4,1.3,2c0.9,1.2,1.8,2.4,2.8,3.6c2.2,2.5,4.7,4.5,7.2,6.8c2.6,2.4,5.3,4.7,8.1,6.8c0.6,0.5,1.3,1,1.9,1.4
		c0.8,0.6,0.9,0.9,1,1.9c0.2,1.3,0.1,2.7-0.2,4c-0.2,1-0.4,1.8-0.1,2.8c0.4,1.4,1.5,2.5,2.6,3.4c2.4,2,5.6,3.7,8.7,4.1
		c1.2,0.1,2.5,0,3.5-0.7c0.7-0.5,1.2-1.3,1.9-1.9c0.9-0.8,2.7-2.3,3.9-1.9c1.7,0.5,3.3,1.2,5,1.8c3.4,1.1,6.8,2,10.2,2.8
		c4.9,1,9.9,1.7,14.9,2c1.2,0.1,2.4,0.1,3.6,0.1c0.8,0,1.7-0.1,2.5,0.2c0.7,0.3,1.3,0.7,1.9,1.1c1.7,1.3,3.5,2.9,4.6,4.8
		c0.5,0.7,0.8,1.4,1.5,1.9c0.9,0.6,2,1,3.1,1.2c3.1,0.6,6.5,0.2,9.5-0.4c3.3-0.6,6.6-1.5,9.6-3c2.1-1,4.8-2.6,5.1-5.2
		c0.3-2.2,0.6-4.2,1.6-6.2c0.3-0.7,0.7-1.3,1.1-1.9c0.5-0.7,1.5-1,2.3-1.3c1.5-0.7,3-1.4,4.5-2.2c3-1.6,6-3.4,8.8-5.3
		c1.4-0.9,2.8-1.9,4.1-2.9c0.6-0.4,1.2-1.1,1.9-1.3c0.8-0.2,1.8-0.1,2.6,0.1c1.2,0.2,2.3,0.6,3.4,1c1.2,0.5,2.4,0.2,3.6-0.3
		c2.4-1.1,4.4-3.1,6.1-5c1.8-2,3.8-4.2,4.7-6.9c0.3-0.8,0.4-1.7,0.2-2.5c-0.2-0.8-0.7-1.4-1-2.2c-0.5-1.1-1.3-3.2-0.6-4.2
		c1-1.3,1.9-2.7,2.8-4.1c1.8-2.8,3.5-5.7,5-8.6c5.3-10.4,8.7-21.8,10-33.4c0.7-6.1,0.8-12.3,0.3-18.4c-0.1-1.8-0.3-3.6-0.5-5.4
		c-0.1-0.9-0.2-1.8-0.4-2.7c-0.1-0.8-0.4-1.8-0.5-2.6c0-0.5,0.2-0.7,0.6-1c0.3-0.2,0.5-0.5,0.8-0.7c0.3-0.3,0.7-0.5,1.1-0.8
		c0.7-0.6,1.2-1.4,1.4-2.3C204.5,80.5,203.4,76.4,202.4,73.1C201.6,70.6,203.2,75.7,202.4,73.1z M179.2,172.2
		c-2,0.7-3.9,2.6-5.3,4.1c-1.3,1.5-2.4,3.1-3.1,4.9c-0.8-4.7,4.9-10.4,9.6-9.5C180.1,171.9,179.6,172,179.2,172.2
		C179,172.3,179.5,172.1,179.2,172.2z M133.8,204.8c-3.6,0-7.3,0.5-10.9,1.3c-2.9,0.7-6.1,1.6-8.2,3.8c1.6-3.5,6.4-4.9,9.8-5.6
		c3.7-0.7,7.8-0.9,11.4,0.5C135.2,204.8,134.5,204.8,133.8,204.8C133.4,204.8,134.3,204.8,133.8,204.8z M52.1,185.1
		c-0.1-0.8-0.3-1.7-0.7-2.5c-0.4-0.7-1-1-1.7-1.4c-1.5-1-3.1-1.9-4.6-2.9c-3.1-1.9-6-4.1-8.7-6.6c-2.6-2.4-5-5.2-6.9-8.2
		c-0.4-0.7-0.7-1.5-1.5-2c-0.6-0.3-1.4-0.4-2-0.4c-1.2-0.1-2.5,0.1-3.6,0.3c1.3-0.4,2.6-0.6,3.9-0.6c1.5,0,2.5,0.4,3.4,1.7
		c1.9,2.9,4.1,5.5,6.6,7.8c2.6,2.4,5.5,4.6,8.4,6.6c1.4,0.9,2.8,1.8,4.2,2.8c1.1,0.7,2.5,1.4,3.1,2.7c0.8,1.6,0.7,3.6,0.6,5.4
		c-0.1,1.6-0.4,3.3-1,4.8C52.4,190.2,52.4,187.5,52.1,185.1C52.1,184.6,52.3,186.2,52.1,185.1z M19,160.9c-1.3-3.3-3.3-5.9-5.3-8.9
		C16.7,153.6,19.5,157.5,19,160.9z M4.5,90.2c1-1.1,1.4-2.7,1.9-4.1c0.5-1.6,1-3.3,1.4-4.9c0.4-1.6,0.8-3.3,1.1-4.9
		c0.2-1.2,0.5-2.8-0.1-3.9c1.2,0.8,1.3,2.8,1.4,4.1c0.1,2-0.3,4-0.8,6c-0.5,1.9-1.2,3.7-2.2,5.4c-0.7,1.1-1.8,2.9-3.3,2.9
		C4.1,90.6,4.3,90.4,4.5,90.2C4.9,89.8,4.4,90.4,4.5,90.2z M8.6,90.3c1,0.3,1.9,0.6,2.7,1.3c-0.2-0.6-0.5-1.2-0.9-1.7
		c-0.2-0.3-0.6-0.6-0.7-1c-0.2-0.1-0.2-0.3,0-0.5c0.1-0.2,0.2-0.4,0.3-0.6c0.4-0.8,0.7-1.5,0.9-2.3c0.2-0.5,0.3-0.9,0.5-1.4
		c0.1-0.2,0.1-0.5,0.2-0.7c0-0.3,0.1-0.4,0.4-0.3c0.7-0.2,1.7,0.1,2.5,0.1c0.8,0,1.7,0,2.5-0.1c1.5-0.1,2.9-0.2,4.3-0.5
		c-2-0.2-3.9-0.5-5.8-1c-0.9-0.2-2.1-0.4-2.9-0.8c-0.4-0.2-0.3-0.1-0.3-0.5c0-0.3,0.1-0.8,0.2-1.1c0.1-0.6,0.1-1.2,0.2-1.8
		c0-0.7-0.1-0.7,0.6-0.8c0.5-0.2,1.1-0.3,1.6-0.5c0.9-0.3,1.8-0.5,2.7-0.8c-1-0.2-2.1-0.3-3.1-0.5c-0.5-0.1-1.2,0-1.7-0.3
		c-0.1,0-0.2,0-0.3,0c-0.2-0.2-0.3-1.5-0.4-1.8c4.3-0.8,8-3.2,10.8-6.5c-1.5,1.2-3.1,2.3-5,3c4.8-10.8,11.6-20.7,20-29
		c8.4-8.3,18.3-14.9,29.1-19.5c6.2-2.6,12.8-4.6,19.4-5.8c-1.9,2.5-4.5,4.3-7.1,6.2c2.4-1.2,4.8-2.5,7-4.2c2.4-1.9,3.8-4.3,4.9-7.1
		c0.5,0.4,1.1,0.7,1.6,0.9c0.3,0.1,0.8,0.2,1.1,0.5c0.1,0,0.2,0.1,0.3,0.1c0,0.2-0.1,0.5-0.1,0.7c-0.2,1.1-0.5,2.2-1.1,3.2
		c0.7-0.4,1.3-1,1.9-1.6c0.4-0.4,0.7-1.1,1.2-1.5c0.3-0.3,0.2-0.3,0.7-0.2c0.3,0.1,0.5,0.1,0.8,0.2c1.2,0.2,2.4,0.4,3.6,0.6
		c0.6,0.1,1.2,0.1,1.9,0.2c0.5,0,1.8-0.1,2.1,0.1c0.4,0.3,0.4,2.3,0.6,2.9c0.2,1.1,0.5,2.3,0.8,3.4c0.5,1.9,1.2,3.8,1.9,5.6
		c-0.5-2.6-0.8-5.3-0.8-8c0-0.8,0-1.5,0-2.3c0-0.3,0-0.7,0.1-1c0-0.6,0-0.6,0.6-0.7c1.7-0.1,3.3-0.2,5-0.5c0.8-0.1,0.7-0.1,1.1,0.6
		c0.4,0.7,0.8,1.4,1.1,2.1c0.6,1.1,1.1,2.1,1.7,3.2c-0.2-1.4-0.4-2.8-0.6-4.2c-0.1-0.5-0.5-1.6-0.3-2.1c0.1-0.3,0.2-0.2,0.7-0.4
		c0.8-0.3,1.6-0.6,2.3-1.1c2.4,5.4,6.7,9.4,12,11.9c-2.7-1.8-5.2-4-6.9-6.7c5.1,1.2,10.1,2.8,14.9,4.8c2.3,1,4.6,2,6.8,3.2
		c0.5,0.3,1.1,0.6,1.6,0.8c0.6,0.3,0.9,0.7,1.3,1.2c0.9,1,1.8,1.9,2.7,2.9c1.7,1.7,3.4,3.3,4.9,5.3c0.6,0.8,1.3,1.7,1.4,2.7
		c0.1,1.2-0.1,2.4,0.2,3.6c0.2,1,1.1,1.9,1.6,2.8c0.7,1,1.4,2.1,2,3.2c1.2,2.1,2.1,4.4,2.8,6.7c0.1,0.3,0.2,0.5,0.1,0.7
		c-0.1,0.2-0.7,0.4-0.9,0.5c-0.5,0.4-0.9,0.8-1.2,1.3c-0.6,0.9-0.8,2-0.7,3.1c0.2,2.4,2.2,4.3,4.6,4.5c-1,6.2-1.5,12.4-0.8,18.6
		c0.4,3.1,1,6.1,2,9c0.5,1.4,1.3,2.8,1.5,4.3c0.1,1.5-0.1,3.1-0.3,4.6c-0.1,0.6-0.1,1.9-0.4,2.3c-0.2,0.2-0.4,0.1-0.8,0.1
		c-0.4,0-0.8,0-1.3,0.1c-1.3,0.3-2.6,0.9-3.5,1.9c-1.7,1.8-2.2,4.4-1.4,6.7c0.5,1.2,1.3,2.3,2.4,3.1c0.4,0.3,0.5,0.2,0.4,0.6
		c-0.1,0.3-0.3,0.6-0.4,0.9c-0.3,0.7-0.6,1.4-1,2.1c-1.5,2.5-4,4.1-5.9,6.2c-4,4.1-4.4,10.3-5,15.6c-0.3,2.6-0.7,5.4-2.5,7.4
		c-0.5,0.5-1.1,1-1.8,1.4c-0.6,0.4-1.5,1.1-2.2,1.2c-0.4,0-1.1-0.8-1.6-1c-0.6-0.3-1.3-0.5-2-0.6c-2.7-0.2-5.3,1.6-5.8,4.2
		c-0.1,0.7-0.2,1.4-0.1,2c0.1,0.5,0.2,0.5-0.1,0.8c-0.2,0.3-0.7,0.5-1,0.7c-1.3,0.7-2.7,1.2-4,1.5c-3,0.7-6,1.1-8.8,2.3
		c-1.5,0.7-2.9,1.6-4.4,2.3c-1.5,0.8-3.1,1.4-4.7,2c-1.4,0.5-2.7,0.8-4,1.6c-0.3,0.2-0.7,0.5-1,0.7c-0.4,0.3-0.4,0.3-0.2,0.9
		c0.3,0.7,0.4,1.5,0.4,2.2c0.1,2.6-1.1,5.4-3.2,7.1c-2.5,2-5.2,2.6-8.4,1.9c-2.7-0.6-5.1-2.9-6-5.5c-0.6-1.6-0.9-3.2-0.5-4.9
		c0.4,3.6,3.2,6.8,6.8,7.4c1.9,0.3,3.8,0.3,5.6-0.6c1.5-0.8,2.9-2,3.7-3.5c0.8-1.6,1.5-3.4,1.1-5.2c-0.3-1.7-1.2-3.2-2.5-4.4
		c-2.3-2.2-5.9-3-8.9-1.9c-3.3,1.2-5.7,4.5-5.7,8c-2.4-0.4-4.5-1-6.9-0.2c-2.4,0.7-4.8,1.2-7.3,1.3c-2.4,0.1-4.8-0.2-7.1-0.7
		c-1.1-0.2-2.2-0.5-3.3-0.8c-0.5-0.1-1-0.4-1.6-0.4c-0.7,0-1.5,0.4-2.2,0.5c-0.9,0.2-2.2,0.7-3.1,0.6c-0.5-0.1-0.3,0-0.5-0.5
		c-0.1-0.2-0.2-0.3-0.3-0.5c-0.3-0.5-0.8-0.9-1.3-1.2c-1.6-0.9-3.6-0.7-4.9,0.7c-0.3,0.3-0.6,0.7-0.8,1.1c-0.2,0.4-0.1,0.5-0.5,0.5
		c-0.1,0-0.4-0.1-0.5-0.1c-0.8-0.2-1.7-0.4-2.5-0.8c-1.5-0.6-3-1.5-4.3-2.5c-1.5-1.2-2.9-2.7-4.2-4.2c-1.2-1.4-2.1-3.2-3.6-4.2
		c-2.3-1.5-4.6-3.1-6.8-4.7c-3.3-2.3-5.9-5.4-8.4-8.5c-1.5-1.9-2.9-3.8-4.4-5.6c-0.3-0.4-0.8-0.8-1.1-1.3c-0.3-0.5-0.4-1.2-0.6-1.7
		c-0.4-1.2-0.7-2.4-1.1-3.7c-2.9-10.8-3.7-22.2-2.6-33.3c1.3,1.5,2.2,3.4,3.1,5.1c-0.6-2-1.2-4.1-2.2-6c-1-1.9-2.5-3.2-4.2-4.4
		C7.9,91.4,8.3,90.9,8.6,90.3C8.8,90.4,8.2,90.9,8.6,90.3z M118.2,6.7c-0.8,1.7-3.6,2.3-5.3,2.7c-2.3,0.5-4.6,0.7-6.9,0.7
		c-2.4,0-4.8-0.1-7.1-0.6c-1.1-0.2-2.2-0.5-3.2-1c-0.2-0.1-2.3-1.4-2.1-1.5c1.3,1.1,3.6,1.1,5.3,1.2c2.4,0.2,4.8,0.1,7.3,0.1
		c2.3,0,4.7-0.1,7-0.3c1-0.1,2.1-0.2,3.1-0.4C116.8,7.4,118,7,118.2,6.7C118.1,6.7,118.2,6.6,118.2,6.7z M189,66.7
		c-0.9-0.1-1.8-0.4-2.5-1c-0.7-0.6-1-1.4-1.4-2.1c-0.8-1.6-1.8-3.1-2.7-4.6c-1.9-3.2-4-6.2-6.3-9.1c-4.4-5.7-9.5-10.8-14.8-15.6
		c10.1,7.1,18.2,16.8,23.9,27.7c0.6,1.1,0.9,2.7,2,3.6c1.3,1,3.2,1.1,4.8,1.2C190.9,66.8,190,66.8,189,66.7
		C188.5,66.6,190,66.8,189,66.7z M195.1,90.1c0.1,1.1,0.4,2.2,0.6,3.3c0.2,1.4,0.4,2.7,0.5,4.1c0.2,2.8,0.3,5.5,0.3,8.3
		c0.1,5.9-0.4,11.8-1.5,17.7c-2.1,11.2-6.4,21.9-12.3,31.6c-0.8,1.3-1.7,2.7-2.5,4c-0.8,1.2-1.9,2.4-2.5,3.7c-1.1,2.3,0.3,5,1.2,7.2
		c-1-2-2.4-4.5-1.8-6.8c0.3-1.3,1.4-2.5,2.1-3.6c0.8-1.3,1.6-2.6,2.4-3.9c3.1-5.3,5.8-10.9,8-16.7c4.5-12.1,6.3-24.6,6.1-37.4
		c0-3.3-0.2-6.5-0.7-9.8c-0.2-1.5-0.4-2.7,0.2-4.2c0.4-1,1.1-2,1.9-2.8C195.9,86.2,194.9,88.1,195.1,90.1
		C195.2,90.2,195.1,89.4,195.1,90.1z M167.1,178.9c0.6,0.2,1.2,0.4,1.8,0.6c-2.2-0.5-5.1-1.1-7.2-0.1c-1.2,0.5-2.3,1.6-3.3,2.4
		c-1.3,0.9-2.6,1.9-3.9,2.7c-2.7,1.8-5.5,3.5-8.4,5c-1.5,0.8-3,1.5-4.5,2.1c-1.3,0.6-2.5,1.1-3.4,2.2c-1.8,2.2-2.5,5.2-3.3,7.9
		c0.4-2.6,0.9-5.4,2.3-7.7c1.4-2.2,3.5-2.9,5.8-4c5.8-2.9,11.2-6.3,16.4-10c1-0.7,1.8-1.4,3.1-1.6
		C164,178.2,165.6,178.5,167.1,178.9C167.7,179.1,166.6,178.8,167.1,178.9z M113,204.6c0.6,0.7,1.1,1.4,1.5,2.1
		c-0.9-1.5-2.3-2.8-3.7-3.9c-1.7-1.4-3.6-2.8-5.8-3.1c-1.4-0.2-2.8,0-4.2,0c-2.3,0-4.6-0.1-6.9-0.3c-8.2-0.7-16.3-2.5-23.8-5.9
		c-0.7-0.3-1.3-0.7-2.1-0.9c-1.2-0.2-2.5,0.3-3.5,0.8c-1.7,0.8-3.8,2.2-4.8,3.9c0.8-1.6,2.5-3,3.9-3.9c1.4-0.9,3.3-1.9,5-1.3
		c1.5,0.5,3,1.2,4.6,1.8c2.1,0.7,4.3,1.4,6.5,2c7.9,2,16,2.9,24.2,3C107.5,199,110.7,202,113,204.6C113.5,205.3,112.4,204,113,204.6
		z M50.2,169.9c0-0.6,0.1-1.1,0.3-1.6c-0.1,2.2,1.6,4.1,3.7,4.3c2.1,0.2,4.1-1.5,4.3-3.6c0.4,2.4-1.1,4.7-3.6,5.1
		C52.3,174.2,50.7,172.2,50.2,169.9C50.2,169.3,50.3,170.2,50.2,169.9z M72,183.2c1.3,0.5,2.3,1.5,3.2,2.4c0.3-0.3,0.6-0.6,1-0.8
		c0.2-0.1,1.3-0.4,1.5-0.5c0.3-0.5-0.6-2.1-1-2.4c1.1,0.2,1.5,1.3,2.2,1.9c0.3,0.2,0.1,0.2,0.5,0.2c0.2,0,0.5,0,0.8,0
		c0.3,0,1,0.2,1.2,0c0.3-0.3,0.4-1.2,0.5-1.6c0.1-0.4,0.3-0.9,0.4-1.3c0.1,0.5,0.1,1,0.2,1.5c0,0.4,0,1.4,0.2,1.7
		c0.2,0.2,1.4,0.4,1.7,0.5c0.3,0.1,0.6,0.3,0.8,0.4c0.5,0.1,0.3,0.1,0.7-0.1c1-0.4,1.9-1.3,2.9-1.9c-0.5,0.7-1,1.5-1.5,2.2
		c-0.1,0.2-0.3,0.4-0.3,0.6c-0.1,0.4-0.1,0.3,0.2,0.6c0.4,0.4,0.8,0.8,1,1.4c1.3-0.9,2.7-1.5,4.2-1.9c-1.9,1.1-3.2,2.6-4.4,4.4
		c-1.5,2.1-4.6,2.1-6.9,1.7c-2.2-0.4-4.9-1.3-6.1-3.3c-0.6-0.9-0.7-2-1.2-2.9c-0.5-1-1.2-2.1-2.2-2.8
		C71.8,183.2,71.9,183.2,72,183.2C72.1,183.3,71.8,183.2,72,183.2z M145.2,149.2c1,0.8,1.7,1.6,2.1,2.8c0,0.2,0.3,1.2,0.3,1.7
		c0,0.8-0.1,1.5-0.4,2.2c-0.6,1.6-1.7,2.7-3.3,3.3c-2.8,1.1-6.2-0.4-7.3-3.2c1.8,2.2,5.1,2.6,7.5,1
		C146.5,155.3,147,151.6,145.2,149.2C145.7,149.6,145.5,149.7,145.2,149.2z M168.9,102c2.3,0.1,4.1,1,5.6,2.8c1.3,1.6,1.6,4,1,5.9
		c-1.2,4.3-6.5,6.2-10.2,3.9c3.3,0.9,6.8-1,7.9-4.2C174.4,107,172.3,103.1,168.9,102C169.2,102,169.7,102.2,168.9,102z M165.9,53.3
		c3.2-1.2,6.9,0.9,7.1,4.4c0.2,3.3-2.8,6-6.1,5.4c2.6-0.3,4.5-2.6,4.3-5.2C171.1,55.2,168.6,53,165.9,53.3
		C166.2,53.2,166.5,53.2,165.9,53.3z M178.1,134c-0.2-1.5-0.2-3.1-0.1-4.6c0.3,2.6,1.1,5.3,2.4,7.6c0.5,0.8,0.9,1.4,1.1,2.3
		c0.2,1.2,0.1,2.4-0.1,3.6c-0.5,2.8-1.7,5.5-3.2,7.9c-1.2,1.9-3,4.4-5.4,4.8c-0.5,0.1-1,0.1-1.5,0.2c-0.7,0.2-1.4,0.4-2.1,0.7
		c-1.4,0.5-2.8,1.3-3.9,2.3c1.2-1.8,3-3.1,4.9-4.2c-0.4-0.5-0.6-1.1-0.7-1.8c-0.1-0.4-0.1-0.8-0.1-1.3c0-0.3,0.2-0.9,0.1-1.2
		c-0.3-0.8-3,0.2-3.5,0.7c0.6-1.5,2.2-1.7,3.4-2.3c0.7-0.3,0,0.3,0.4-0.4c0.2-0.4,0.3-1,0.4-1.4c0.1-0.3,0.9-1.8,0.8-2.1
		c-0.2-0.4-1.3-0.9-1.6-1.1c-0.6-0.4-1.1-0.7-1.7-1.1c0.7,0.2,1.4,0.3,2.1,0.5c0.5,0.1,0.9,0.2,1.4,0.3c0.5,0.1,0.5,0.2,0.8-0.4
		c0.4-0.8,0.9-1.6,1.5-2.4c0.3-0.4,0.5-0.7,0.8-1.1c0.4-0.5,0.2-0.6,0.1-1.2c-0.5-1.6-0.8-3.1-1.1-4.7c0.8,1.5,1.6,3,2.6,4.4
		c0.8-0.7,1.8-1.4,3-1.4C178.4,135.8,178.2,134.9,178.1,134C177.9,132.8,178.2,134.9,178.1,134z M119.2,179.8
		c1.5-0.2,3.1,0.1,4.6,0.6c0.3-1.3,1.3-1.9,2-2.8c0.3-0.3,0.3-0.2,0.1-0.6c-0.1-0.2-0.3-0.4-0.5-0.6c-0.4-0.3-0.9-0.7-1.4-0.7
		c0.5-0.2,1-0.1,1.5,0c0.3,0.1,0.6,0.2,0.9,0.3c0.1,0.1,0.7,0.5,0.9,0.5c0.1,0,0.8-0.5,0.9-0.5c0.3-0.2,0.6-0.3,0.9-0.5
		c0.3-0.1,0.8-0.3,0.9-0.5c0.2-0.4-0.1-1.5-0.1-1.9c0-0.5-0.1-1-0.1-1.4c0.3,0.6,0.6,1.1,0.9,1.7c0.2,0.3,0.3,0.8,0.6,1
		c0.3,0.3,0.1,0.3,0.7,0.1c0.7-0.2,1.5-0.4,2.3-0.5c0.5-0.1,0.8,0,1.1-0.3c0.2-0.2,0.3-0.6,0.5-0.8c0.7-1.1,1.4-2.2,2.1-3.2
		c-0.4,1.4-0.8,2.8-1.1,4.3c0.8,0.1,1.6,0.4,2.2,0.9c1.1-1.8,2.4-3.3,4-4.7c-1.5,2.1-2.6,4.4-3.2,7c-0.6,2.5-3.2,4.1-5.4,5.1
		c-2.5,1.2-6.1,2.3-8.8,1.1c-1-0.4-1.7-1.4-2.6-2c-1.1-0.7-2.4-1.4-3.8-1.5C119,179.8,119.1,179.8,119.2,179.8
		C119.3,179.8,119,179.8,119.2,179.8z M184.4,91.2c-0.7-0.7-1.3-1.6-1.8-2.4c0.7,0.7,1.5,1.2,2.3,1.7c0.9,0.5,1.8,0.7,2.8,1.1
		c1.9,0.8,2.8,3.4,3.2,5.2c0.5,2,0.9,4.7,0,6.6c-0.4,0.9-1.3,1.4-1.9,2.2c-0.6,0.9-1.2,1.8-1.4,2.8c-0.1-0.6,0-1.3,0-1.9
		c0.1-0.4,0.2-0.9,0.3-1.3c0.2-0.6,0.2-0.5-0.3-0.8c-0.3-0.2-0.6-0.5-0.9-0.8c-0.3-0.3-0.4-0.8-0.8-0.7c-0.4,0.1-1,0.9-1.1,1.3
		c-0.2-0.7,0-1.6,0.4-2.2c0.3-0.5,0.2-0.6-0.1-1.2c-0.1-0.3-0.3-1.3-0.5-1.4c-0.1-0.1-0.8,0-1,0c-0.4,0-0.8,0-1.2,0
		c0.4-0.2,0.8-0.5,1.2-0.7c0.6-0.4,0.8-0.3,0.7-1c-0.1-0.5-0.1-1-0.2-1.6c0-0.7,0.1-0.9-0.5-1.4c-0.7-0.6-1.4-1.3-2-1.9
		c0.9,0.3,1.8,0.6,2.7,0.9c0.1-0.5,0.4-0.9,0.6-1.3c0.1-0.4,0.3,0.1-0.1-0.5C185,91.7,184.6,91.4,184.4,91.2
		C183.9,90.6,184.7,91.6,184.4,91.2z M199.6,82.5c-2.9-1-4.5-4.5-5.4-7.2c-0.7-2.3-1.9-6.7,0.2-8.6c-0.5,1.1-0.3,2.5-0.1,3.7
		c0.3,1.7,0.8,3.3,1.4,4.9c0.6,1.6,1.2,3.2,2.1,4.6c0.6,1,1.4,2.2,2.6,2.6C200.1,82.6,199.9,82.6,199.6,82.5
		C199.5,82.5,199.8,82.6,199.6,82.5z"/>
	<path class="st0" d="M122.6,145.2c-0.4-7.1,8.6-12.7,14.8-8.9c1.3-3.8,0.6-8.1-2.5-10.8c-2.5-2.2-6.1-2.9-9.3-2.3
		c-6.6,1.1-12.7,7.6-11.2,14.6C115.1,141.8,118.6,144.6,122.6,145.2C122.4,142.1,119.6,144.8,122.6,145.2z"/>
	<path class="st0" d="M65.1,103.5c-3.8,2-6.6,5.7-6.9,10c-0.4,4.5,2.2,8.8,6.3,10.6c-2.1-4.6,0.1-9.9,4.2-12.5
		c4.4-2.8,10.7-2.4,13.9,2c0.4-4.4-2-8.6-6-10.5C72.9,101.5,68.6,101.7,65.1,103.5C59,106.7,71.2,100.4,65.1,103.5z"/>
	<path class="st0" d="M144.9,83.3c-2.2,1-3.9,3.1-3.9,5.6c0,2.5,1.8,4.5,4.2,5c4.8,1.1,10.3-4.2,7.1-8.8
		C150.7,82.7,147.5,82.2,144.9,83.3C141.8,84.7,148.1,81.9,144.9,83.3z"/>
	<path class="st0" d="M87.6,73.8c-3.6,3.1-9.6,4-13.2,0.4c3.3,5.9,11.4,4.4,15.4,0.3c4-4,5.1-11.8-0.8-14.7
		C93.3,63.7,91.6,70.4,87.6,73.8C83.4,77.3,91.9,70.1,87.6,73.8z"/>
	<path class="st0" d="M105.1,78.5c0,2.9,1.5,5.6,4,7c-0.7-6.5,6.6-11.3,12.3-7.9c-0.4-4.3-4.3-7.5-8.6-7.3
		C108.6,70.6,105.1,74.2,105.1,78.5z"/>
	<path class="st0" d="M44.7,96.3c-0.5-2.1,0.2-4.5,1.7-6c1.2-1.2,3-1.8,4.5-0.8c-0.8-3.1-4.1-3.7-6.2-1.5
		C42.8,90,41.9,94.5,44.7,96.3C44.4,95.3,43.1,95.3,44.7,96.3z"/>
	<path class="st0" d="M27.2,127.9c3.1-0.5,4.5-4,4.8-6.8c0.3-3.4-0.8-7.3-3.4-9.7c-2.2-1.9-5.2-2.1-7.2,0.2
		c-2.2,2.6-2.3,6.7-1.4,9.8C20.9,124.6,23.5,128.5,27.2,127.9z"/>
	<path class="st0" d="M94.7,38.7c-0.2,2,2.6,3.2,4.2,3.6c-1.6-1.7,0-3.4,1.7-4c2.3-0.9,5.1-0.8,7.4-0.1c-1.8-2-5.2-2.5-7.7-2.4
		C98.5,35.9,94.9,36.4,94.7,38.7C94.6,40.2,94.9,36.8,94.7,38.7z"/>
	<path class="st0" d="M143.4,32.6c1,0.3,3.7,0.9,4.1-0.7c0.4-1.4-1.9-2.5-2.9-2.9c-1-0.3-3.6-0.9-4.1,0.6
		C140,31.1,142.4,32.3,143.4,32.6C145.4,33.3,141.5,32,143.4,32.6z"/>
	<path class="st0" d="M43.4,60.4c1.3,3.6,1.6,7.5,1.2,11.3c1-2.8,1.7-5.7,1.8-8.7c0.9,0.2,1.8,0.2,2.7,0c0.3-0.1,0.6-0.2,0.9-0.2
		c0.4,0,0.2-0.1,0.5,0.2c0.3,0.3,0.4,1.1,0.5,1.5c0.5,1.5,0.9,3,1.3,4.5c0.2-2,0.3-4,0.3-6c0-0.2,0-0.5,0-0.7
		c0.1-0.6-0.1-0.2,0.3-0.6c0.4-0.4,1-0.6,1.4-0.9c0.5-0.3,0.9-0.7,1.4-1c0.4-0.3,1-1.2,1.5-1.3c0.6-0.2,1.8,0.8,2.4,1.2
		c0.8,0.5,1.6,0.9,2.4,1.4c-0.4-0.6-0.9-1.2-1.3-1.9c-0.3-0.5-0.7-0.9-1-1.4c-0.2-0.2-0.7-0.7-0.7-1c-0.1-0.4,0.8-1.1,1-1.5
		c0.3-0.4,0.6-0.8,0.9-1.3c0.1-0.2,0.3-0.5,0.4-0.7c0.3-0.3,0.1-0.2,0.5-0.2c0.5-0.1,1.1,0.1,1.6,0c0.5,0,1-0.1,1.5-0.2
		c0.7-0.2,1.5-0.5,2-1.1c-0.7,0.3-1.4,0.2-2.1,0.1c-0.5-0.1-1-0.2-1.4-0.4c-0.2-0.1-0.5-0.1-0.6-0.3c-0.3-0.3-0.2,0.1-0.1-0.4
		c0.1-0.8,0.6-1.7,0.7-2.6c0.1-0.9,0.1-1.7-0.1-2.6c2.5-0.4,5.1-1.2,7.2-2.7c-2.4,0.9-5.1,0.8-7.6,0.5c-1.1-0.2-2.2-0.6-3.3-0.8
		c-1.1-0.1-2.1,0.1-3.1,0.4c-5.1,1.7-9.6,6.3-11.9,11C43.4,55.9,42.7,58.2,43.4,60.4z M56.1,55.6c-1.2,1.3-2.6,2.5-4.1,3.5
		c-0.9,0.6-2.1,1.4-3.2,1.5c-2.6,0.3-0.9-3.1-0.3-4.1c1.8-3,4.4-5.8,7.2-7.8c0.8-0.6,4.5-3.2,5.1-1.2c0.3,1.1-0.5,2.5-1,3.3
		C58.8,52.5,57.5,54.1,56.1,55.6C52.5,59.3,59.6,51.9,56.1,55.6z"/>
	<path class="st0" d="M58.8,157.7c-2.2-1.4-4.5-2.6-7.1-3.3c0.4-0.8,0.6-1.7,0.6-2.6c0-0.3,0-0.6,0-0.9c0.1-0.4-0.1-0.2,0.3-0.4
		c0.4-0.2,1.1-0.1,1.5-0.1c1.6-0.1,3.1-0.1,4.7-0.1c-1.9-0.7-3.8-1.3-5.8-1.8c-0.2-0.1-0.5-0.1-0.7-0.2c-0.6-0.2-0.2,0.1-0.5-0.4
		c-0.2-0.4-0.3-1.1-0.5-1.6c-0.2-0.5-0.4-1.1-0.7-1.6c-0.2-0.5-0.9-1.3-0.9-1.8c-0.1-0.6,1.3-1.6,1.7-2c0.7-0.7,1.3-1.3,2-2
		c-0.7,0.3-1.4,0.6-2.1,0.8c-0.5,0.2-1.1,0.4-1.6,0.6c-0.3,0.1-0.8,0.5-1.1,0.4c-0.4,0-0.9-1-1.2-1.4c-0.3-0.4-0.7-0.8-1-1.2
		c-0.2-0.2-0.4-0.4-0.6-0.6c-0.2-0.3-0.1-0.2-0.1-0.5c0-0.5,0.3-1.1,0.4-1.6c0.1-0.5,0.1-1,0.1-1.5c0-0.8-0.1-1.6-0.5-2.2
		c0.1,0.7-0.2,1.5-0.5,2.1c-0.2,0.5-0.5,0.9-0.8,1.3c-0.1,0.1-0.3,0.4-0.4,0.5c-0.4,0.2,0.1,0.3-0.5,0c-0.8-0.4-1.5-1-2.4-1.4
		c-0.7-0.3-1.5-0.5-2.3-0.5c0.2-2.5,0.2-5.3-0.8-7.7c0.3,2.9-0.6,6.5-2.1,9c-0.8,1.3-1.3,2.4-1.3,4c0,1.7,0.4,3.4,1,5
		c1.2,3.4,3.3,6.6,5.9,9.1c1.9,1.9,4.3,3.6,7.1,3.3c3.7-0.3,7.4,0.4,10.9,1.8C59.4,158.1,59.1,157.9,58.8,157.7
		C58.6,157.5,59,157.8,58.8,157.7z M42.6,149.2c-1.1-1.9-2.6-5-1.4-7.2c1-1.9,3.2-1,4.5,0c2.2,1.6,3.8,4.2,4.5,6.9
		c0.4,1.6,0.6,4.6-1.7,4.8C46.1,153.9,43.8,151,42.6,149.2C40.6,145.8,44.7,152.6,42.6,149.2z"/>
	<path class="st0" d="M126.9,43.7c-2.3,1.9-5.1,3.1-8,3.8c2.4,0.1,4.7-0.1,7-0.7c0.1,0.7,0.4,1.4,0.8,2.1c0.3,0.5,0.5,0.5,0,0.9
		c-0.3,0.3-0.6,0.5-0.9,0.8c-0.9,0.7-1.8,1.4-2.7,2.1c1.5-0.3,2.9-0.7,4.4-1.1c0.3-0.1,1-0.4,1.2-0.4c0.3,0.1,0.8,0.7,1.1,0.9
		c0.8,0.6,1.7,1,2.5,1.6c0.4,0.3,0.3,0.2,0.3,0.7c-0.1,0.5-0.1,1-0.2,1.4c-0.1,0.8-0.2,1.5-0.3,2.3c0.4-0.5,0.8-1,1.2-1.5
		c0.3-0.4,0.9-1.6,1.4-1.8c0.3-0.1,1.3,0.4,1.7,0.6c0.4,0.1,1,0.2,1.3,0.4c0.4,0.2,0.3,0.1,0.5,0.6c0.4,1.1,1.2,2.7,2.4,3.1
		c-0.3-0.4-0.5-0.9-0.5-1.3c-0.1-0.4-0.2-1.7,0.1-2c0.1-0.1,1.3,0,1.6-0.1c0.6-0.1,1.2-0.2,1.8-0.4c0.2-0.1,0.4-0.3,0.6-0.3
		c0.2-0.2,0.3-0.2,0.4,0.1c0.1,0.1,0.1,0.2,0.2,0.3c0.4,0.6,0.7,1.1,1.2,1.6c0.7,0.9,1.6,1.8,2.6,2.4c-1.5-2-2.4-4.9-2.4-7.3
		c0-2.7-1.9-4.7-4-6.2c-2.3-1.8-5.1-3-8-3.7C131.8,42.1,128.7,41.9,126.9,43.7C126.8,43.8,127.8,42.8,126.9,43.7z M143.2,52.8
		c-1.2,2.6-6,0.9-7.6,0c-1.5-0.8-4.8-3-3.8-5.2c1.2-2.6,6-0.9,7.6,0C141,48.3,144.2,50.6,143.2,52.8C142.5,54.3,144,51.2,143.2,52.8
		z"/>
	<path class="st0" d="M178.1,147.3c1-2.2,2.4-5.5,1.6-8c-0.7-2.1-3.1,0.3-3.8,1.1c-2.1,2.4-3.7,5.6-4.4,8.8c-0.2,1-1,5,1.1,4.6
		c1-0.2,2-1.2,2.6-2C176.4,150.5,177.3,148.9,178.1,147.3C180.3,142.7,176.1,151.4,178.1,147.3z"/>
	<path class="st0" d="M127.8,182c3,0,6.2-1.3,8.5-3.2c0.5-0.5,1.5-1.3,1.5-2c0.1-1.1-1.7-1.1-2.4-1.1c-3,0-6.2,1.3-8.5,3.2
		c-0.6,0.5-1.4,1.2-1.5,1.9C125.3,181.9,127,182,127.8,182z"/>
	<path class="st0" d="M76.4,187.2c-0.2,1.7,3.2,2.7,4.3,3c1.3,0.3,2.8,0.5,4.1,0.2c0.6-0.1,1.8-0.4,1.9-1.2c0.2-1.6-3.2-2.7-4.3-3
		c-1.3-0.3-2.7-0.4-4-0.2C77.9,186.1,76.5,186.3,76.4,187.2C76.3,188.1,76.5,186.5,76.4,187.2z"/>
	<path class="st0" d="M186.9,93.3c-0.6,0.1-0.6,1.8-0.7,2.2c0,1.3,0.2,2.5,0.5,3.7c0.3,1,0.7,2.1,1.3,3c0.2,0.2,0.7,1,1,0.9
		c0.5-0.1,0.6-1.6,0.6-1.9c0.1-1.3-0.1-2.6-0.4-3.8c-0.3-1-0.7-2.1-1.3-3C187.8,94,187.4,93.3,186.9,93.3
		C186.8,93.3,187.4,93.3,186.9,93.3z"/>
	<path class="st0" d="M90.5,140.2c-2.1,2-1.9,5.7,0.2,7.5c2.1,1.7,5.1,1.8,7.1-0.2c2-2,2-5.5-0.1-7.4
		C95.7,138.3,92.4,138.1,90.5,140.2C90,140.6,91,139.7,90.5,140.2z"/>
	<path class="st0" d="M115.7,112.1c2,0.2,3-3.3,0.9-3.9c-0.9-0.2-2.2,0.7-2.6,1.5C113.5,110.9,114.5,112,115.7,112.1
		C117.2,112.2,115,112,115.7,112.1z"/>
	<path class="st0" d="M128.1,95.7c1.2,0,1.2-1.8,0-1.8C126.9,93.9,126.9,95.7,128.1,95.7z"/>
	<path class="st0" d="M157.1,75.1c2.6,0,2.6-4,0-4C154.5,71.1,154.5,75.1,157.1,75.1z"/>
	<path class="st0" d="M71.5,30.2c1.2,1.4,3.5,1.6,4.9,0.4c1.4-1.2,1.6-3.4,0.4-4.8c-1.2-1.5-3.5-1.6-5-0.4
		C70.3,26.5,70.1,28.9,71.5,30.2C71.7,30.5,71.1,29.8,71.5,30.2z"/>
	<path class="st0" d="M45.2,43.1c0.6,1.2,2.1-0.8,1-1.7C45,40.6,43.8,42.4,45.2,43.1C45.2,43.2,44.9,43,45.2,43.1z"/>
	<path class="st0" d="M33.3,56.3c3.1,0,3.2-4.9,0-4.9C30.1,51.4,30.1,56.3,33.3,56.3z"/>
	<path class="st0" d="M61.6,31.9c0.4,1.3,2.2,0.2,1.5-1C62.4,29.9,60.8,30.9,61.6,31.9C61.7,32.3,61.5,31.8,61.6,31.9z"/>
	<path class="st0" d="M35.4,100c0.4,2.8,4.8,2.3,4.4-0.6C39.4,96.6,35,97.1,35.4,100z"/>
	<path class="st0" d="M79.4,81.7c-2.4,2.2,1.3,5.9,3.6,3.6C85.3,83,81.7,79.4,79.4,81.7C79.2,81.9,79.9,81.3,79.4,81.7z"/>
	<path class="st0" d="M101.6,97.1c-1.7-1.6-4.7-1.5-6,0.6c-1.3,2.1-0.5,4.8,1.8,5.8c-0.4-2.9,2.4-5.5,5.3-4.3
		C102.6,98.3,102.2,97.6,101.6,97.1C100.9,96.3,102.1,97.5,101.6,97.1z"/>
	<path class="st0" d="M105.7,59.5c0.8,0.1,1.6,0.3,1.9-0.8c0.2-0.9-0.3-1.6-1.2-1.9C104.4,56.2,103.3,59.1,105.7,59.5z"/>
	<path class="st0" d="M125.6,31.6c0.6-0.6,1.1-1.6,0.3-2.3c-0.8-0.7-2-0.4-2.7,0.3C121.7,31.2,124.3,33.4,125.6,31.6
		C125.7,31.6,125.1,32.3,125.6,31.6z"/>
	<path class="st0" d="M72.5,139.7c-4.7,0-5.9,6.6-1.7,8.4c0-3,3.4-5.1,6.1-3.9C76.8,141.8,75,139.7,72.5,139.7z"/>
	<path class="st0" d="M22.5,130.9c-2.1,0-2,3.2,0,3.2C24.6,134.1,24.5,130.9,22.5,130.9z"/>
	<path class="st0" d="M16.8,107.9c-3.2-0.9-4.6,4.1-1.4,5c1.4,0.4,3.1-0.4,3.5-1.8C19.3,109.6,18.3,108.1,16.8,107.9
		C16.3,107.8,16.9,108,16.8,107.9z"/>
	<path class="st0" d="M154.4,42.7c0.1,3,4.7,3.3,5,0.3C159.7,39.6,154.3,39.4,154.4,42.7C154.5,44.1,154.3,41.4,154.4,42.7z"/>
	<path class="st0" d="M153.1,117.3c-0.9-1.2-1.8-2-3.2-2.2c-1.2-0.2-2.5,0.1-3.5,0.8c-2,1.4-2.6,4.2-1.4,6.3c1.3,2.2,4.2,3,6.5,1.7
		C153.9,122.4,154.1,119.6,153.1,117.3C152.9,116.9,153.3,117.6,153.1,117.3z"/>
	<path class="st0" d="M76.3,72.2c0.3,0.4,0.7,0.7,1.1,0.9c1-5.3,5.9-9.7,11.2-10.1c-1.9-4.1-7.3-3.4-10.2-1
		C75.6,64.2,73.5,69,76.3,72.2C76.7,72.5,74,69.6,76.3,72.2z"/>
	<path class="st0" d="M85.3,113.6c-0.4,6.1-4.3,11-9.8,13.3c-5.7,2.3-12.3,1.6-16.4-3.2c2.2,5.8,9,7.7,14.6,6.7
		c5.8-1.1,10.9-5.2,12.4-11.1c0.8-3.1,0.6-6.4-1-9.2C85.3,111.2,85.4,112.4,85.3,113.6C85.2,116.4,85.4,112.4,85.3,113.6z"/>
	<path class="st0" d="M140.1,132.5c0,6.2-3.7,11.3-9.2,13.9c-5.4,2.5-12,2.2-16.3-2.1c2.6,5.6,9.5,7,15,5.6
		c5.7-1.5,10.4-5.8,11.6-11.6c0.6-3.1,0.2-6.4-1.6-9.1C140,130.2,140.1,131.3,140.1,132.5z M133.6,144.9
		C133.6,144.9,133.6,144.9,133.6,144.9C133.6,144.9,133.6,144.9,133.6,144.9z"/>
	<path class="st0" d="M122.1,87.7c2.9-3.2,3.3-8.4,1-12c0.3,4.4-0.9,9.6-5.2,11.6c-4,1.9-9,1.3-12.1-2
		C107.8,92.3,117.9,92.4,122.1,87.7C125,84.6,119.2,91,122.1,87.7z"/>
	<path class="st0" d="M151.2,94.6c-3.2,1.9-7.5,1.5-10-1.4c1.4,4.2,6.9,5.1,10.4,3.3c3.8-2,5.1-7,3-10.7
		C154.9,89,154.1,92.7,151.2,94.6C149.5,95.6,154.1,92.7,151.2,94.6z"/>
	<path class="st0" d="M100.7,145.7c-0.5,2.6-2.4,4.7-4.9,5.4c-2.8,0.7-5.9-0.3-7.7-2.4c1.3,4,6.7,5.2,10.1,3.4
		c3.9-2,4.7-7.1,2.6-10.7C100.9,142.8,101,144.3,100.7,145.7C100.1,148.5,101,144.2,100.7,145.7z"/>
	<path class="st0" d="M33.8,119.8c-0.1-0.3-0.2-0.6-0.3-0.9c-0.2,3.3-0.8,7.5-3.8,9.4c-2.8,1.8-6.8,1-8.8-1.5c1,3.9,6.3,5,9.5,3.2
		C33.9,128,34.7,123.5,33.8,119.8C33.7,119.2,33.9,120.1,33.8,119.8z"/>
</g>
</svg>
