<?xml version="1.0" encoding="utf-8"?>
<!-- Generator: Adobe Illustrator 21.0.2, SVG Export Plug-In . SVG Version: 6.00 Build 0)  -->
<svg version="1.1" id="Emblem" xmlns="http://www.w3.org/2000/svg" xmlns:xlink="http://www.w3.org/1999/xlink" x="0px" y="0px"
	 viewBox="0 0 182.9 128" style="enable-background:new 0 0 182.9 128;" xml:space="preserve">
<style type="text/css">
	.st0{fill:#FFFFFF;}
</style>
<g>
	<path class="st0" d="M100.6,84.5c11.6,5.5,23.3,10.6,35.4,14.8c3.3-3.8,6.2-8,8.4-12.6c4.7-9.8,6.4-20.6,5.5-31.5
		c1.9,9.8,1.4,19.8-2,29.2c-1.9,5.2-4.3,10.2-7.7,14.6c-0.3,0.4-0.7,0.9-1,1.3c2,0.7,4.1,1.3,6.1,1.9c5.3-7,9.2-15.2,11.2-24.3
		c7.8-34.5-13.9-68.7-48.4-76.5c-32.7-7.4-65.1,11.7-75,43C42.9,52,53.3,58.7,63.9,65C75.8,72.1,88.1,78.6,100.6,84.5z M105.7,15.8
		c0.5-2.2,2.7-3.6,4.9-3.1c2.2,0.5,3.6,2.7,3.1,4.9c-0.5,2.2-2.7,3.6-4.9,3.1C106.6,20.3,105.2,18.1,105.7,15.8z M79.9,12
		c9.3-2.4,18-0.3,19.3,4.8c1.3,5.1-5.2,11.2-14.5,13.6c-9.3,2.4-18,0.3-19.3-4.8C64.1,20.5,70.6,14.4,79.9,12z"/>
	<path class="st0" d="M182.5,107c-0.9-3.2-2.9-6.1-5-8.5c-4-4.5-8.8-8.1-13.7-11.5c2.7,3.4,5.4,6.8,7.8,10.4c1.5,2.3,3,4.8,4,7.4
		c0.6,1.7,1.3,3.7,0.4,5.4c-0.3,0.4-0.5,0.6-1,0.8c-0.6,0.3-1.3,0.5-2,0.6c-1.8,0.3-3.6,0.3-5.3,0.2c-3.6-0.2-7.1-0.9-10.6-1.7
		c-1-0.2-2-0.5-3-0.7c-6.4-1.7-12.8-3.8-19-6.1C112,94.8,90,83.7,68.7,71.7c-12.2-6.9-24.3-14.2-35.6-22.5c-2.6-1.9-5.1-3.8-7.6-5.8
		c-2.8-2.2-5.5-4.5-8.1-6.9c-2.3-2.1-4.5-4.3-6.4-6.7C9.6,28,7,25,7.5,22.5c0.5-0.7,0.7-1.3,1.7-1.8c2.5-1.5,5.7-1.8,8.6-2
		c4.9-0.4,9.9-0.1,14.9,0.1c-1.1-0.5-2.2-0.9-3.4-1.3c-3.6-1.3-7.3-2.3-11.1-2.9c-3.9-0.6-8.2-0.9-11.9,0.5c-5.7,2.2-7.4,8-5.6,13.7
		c2.4,7.7,8.4,14.4,14,20c4.8,4.9,10,9.4,15.4,13.6c-0.8,30,19.6,57.3,49.9,64.1c19,4.3,37.9-0.4,52.4-11.2c0.7,0.2,1.5,0.5,2.2,0.7
		c8.7,2.5,17.8,4.5,26.9,4.9c4.4,0.2,9.1,0.1,13.3-1.3c1.8-0.6,3.6-1.5,5.1-2.8c0.8-0.7,2-2,2.3-3.1c0.1-0.3,0.4-1.2,0.5-1.7
		C183,110.3,182.9,108.6,182.5,107z M98.5,122.1c-9.6,0.6-19.3-1.2-28-5.3c-10.3-4.9-18.4-12.8-24.2-22.6
		c5.8,7.7,12.8,14.1,21.4,18.5c4.5,2.3,9.3,4,14.2,4.9c3.8,0.7,8,1.3,11.9,1.2c5.3-0.2,10.6-0.7,15.8-2.3c3.9-1.2,7.8-2.8,11.4-4.8
		c1.4,0.5,2.9,0.9,4.3,1.4C117.1,118.1,108.2,121.5,98.5,122.1z"/>
</g>
</svg>
