<?xml version="1.0" encoding="utf-8"?>
<!-- Generator: Adobe Illustrator 21.0.2, SVG Export Plug-In . SVG Version: 6.00 Build 0)  -->
<svg version="1.1" id="Emblem" xmlns="http://www.w3.org/2000/svg" xmlns:xlink="http://www.w3.org/1999/xlink" x="0px" y="0px"
	 viewBox="0 0 475 259.8" style="enable-background:new 0 0 475 259.8;" xml:space="preserve">
<style type="text/css">
	.st0{fill:#C63232;}
</style>
<g>
	<path class="st0" d="M466.3,222.1c-22.6-1.4-97.6-6.1-111.8-7.8c-17.2-2.1-33.3-5.1-40.4-7c-2.5-0.7-5-1.6-7.4-2.7
		c-1.4-0.7-2.4-2.1-2.4-3.7v-44.6c0-4.5-0.8-9.1-2.5-13.7l1.7-1.7c4.1-4.2,6.4-9.7,6.4-15.5c0-5.9-2.3-11.4-6.4-15.5l-18.1-18.1
		c-4.1-4.1-9.7-6.4-15.5-6.4c-5.9,0-11.4,2.3-15.5,6.4l-4.6,4.6l-5.7-91.6c-0.2-2.7-2.9-4.8-6.4-4.9l-0.2,0c-3.6,0-6.4,2.1-6.6,4.9
		l-5.7,92l-5.1-5.1c-4.1-4.1-9.7-6.4-15.5-6.4c-5.9,0-11.4,2.3-15.5,6.4L171,109.9c-8.6,8.6-8.6,22.5,0,31.1l5.2,5.2
		c-0.9,3.5-1.4,6.9-1.4,10.2v45.1c0,1.7-1.1,3.3-2.8,3.8c-5.8,1.9-14.1,4.5-21,6c-11.3,2.5-33.1,5.5-46.5,6.5
		c-13.3,1-92.7,7-95.9,7.3c-4.8,0.4-8.6,4.4-8.6,9.2v1c0,4.8,3.6,8.8,8.3,9.2c25.4,2.6,155.5,15.3,229.2,15.3
		c73.7,0,204-16,229.4-19.3c4.6-0.6,8.1-4.5,8.1-9.2C475,226.4,471.2,222.4,466.3,222.1z M233.8,96.3c0.1-3.6,0.2-7.2,0.3-10.8
		c0.2-7.9,0.4-15.8,0.6-23.6c0.4-15.9,0.9-31.8,1.4-47.7c0.1-2.4,0.2-4.9,0.3-7.3c0-0.4,0-0.9,0-1.3c0.2-1.1,1.5-1.8,2.2-0.6
		c0.5,0.9,0.2,2.6,0.3,3.5c0.1,2.9,0.2,5.8,0.3,8.7c0.6,16.2,1,32.3,1.4,48.5c0.2,7.7,0.4,15.4,0.5,23c0.1,3.4,0.2,6.9,0.2,10.3
		c0,1.2,0.2,2.4,0.1,3.6c-1.3-0.1-2.6-0.1-3.9-0.1c-1.3,0-2.6,0.1-3.9,0.2c0-0.7,0.1-1.4,0.1-2C233.7,99.2,233.8,97.7,233.8,96.3z
		 M204.6,92c4.1,0,8,1.6,10.9,4.5l7.8,7.8c-1.1,0.3-2.1,0.6-3.2,0.9l-7.3-7.5l3.9,8.7c-7.8,3-15.2,7.7-21.6,13.9
		c-1.7,1.6-3.3,3.4-4.8,5.1c-11.1-0.1-14.9-6.2-14.9-6.2c-2.8,4.9-2,11.2,2.1,15.4l4.1,4.1c-0.4,0.8-0.8,1.7-1.1,2.5l-4.8-4.8
		c-6-6-6-15.8,0-21.8l18.1-18.1C196.6,93.6,200.5,92,204.6,92z M244,219.9c-8-0.6-16-0.1-23.9,1.4c-7.8,1.5-15.4,4.1-22.9,7
		c-7.5,2.9-14.8,6.1-22.5,8.6c-7.7,2.5-15.5,3.9-23.6,4.5c-16.1,1.3-32.2,1.7-48.3,1.5c-15.5-0.1-30.9-0.8-46.4-1.9
		c-13.9-1-27.8-2.4-41.7-4c-2-0.2-4.1-0.5-6.1-0.7c12.2,1.1,24.4,2.2,36.6,3c15.4,1,30.8,1.7,46.2,1.9c16.1,0.2,32.2-0.2,48.3-1.2
		c8-0.5,16.2-0.9,24.1-2.5c7.8-1.7,15.2-4.5,22.6-7.4c7.4-3,14.8-6.1,22.5-8.4c7.6-2.3,15.4-3.8,23.4-4.3c8-0.5,16.1,0.2,24,1.9
		c7.7,1.7,15.1,4.4,22.4,7.4c7.6,3.1,15.1,6.5,23,8.8c7.6,2.2,15.4,2.9,23.3,3.4c16,1,32.1,1.2,48.2,0.8c15.3-0.4,30.5-1.2,45.8-2.4
		c13.8-1.1,27.5-2.5,41.2-4.1c2-0.2,4.1-0.5,6.1-0.7c-12.1,1.7-24.2,3.4-36.4,4.7c-15.4,1.7-30.8,3-46.2,3.8
		c-15.7,0.8-31.5,1.1-47.3,0.7c-7.9-0.2-15.9-0.4-23.7-1.4c-8-1-15.7-3.4-23.1-6.3c-7.5-2.9-14.8-6.3-22.4-8.9
		C259.7,222.2,251.9,220.5,244,219.9z M237.5,106.5c14.6,0,29.9,5.8,41.8,15.8c11.7,9.9,18.5,22.3,18.5,34v44.1l-3.6-35.9l-12.1,4.8
		c0.5,4.6,0.5,9.2,0.4,13.8c0,4.1-0.1,8.2-0.2,12.3c-0.2-4.1-0.5-8.1-0.9-12.2c-0.4-4.4-0.7-8.8-1.6-13.2c-1.4-3.9-3.5-7.6-6.1-10.9
		c-11.4-14.3-31.3-19.7-48.7-15.1c-9,2.4-17.5,7.5-23.4,14.8c-2.7,3.3-4.7,6.9-6.1,10.7l0,0c-0.9,4.5-1.3,9.2-1.7,13.8
		c-0.3,4.1-0.6,8.1-0.9,12.2c-0.1-4.1-0.2-8.2-0.2-12.3c0-4.9-0.1-9.9,0.5-14.8l-8.3-3.9l-3.6,34.5v-42.7
		C181.3,133.9,207.2,106.5,237.5,106.5z M258.4,185c1.8,7.7-0.7,15.3-6.6,20.6c4.3-4.9,6.4-11.2,5.3-17.7c-1.1-7-6.1-13.1-12.8-15.5
		c-2.1-0.8-4.8-1.3-6.9-1.2c-6.7,0.2-13,3.4-16.7,9.1c-3.2,5-4.1,11.3-2.4,17c1,3.3,2.7,6.1,5,8.6c-4.5-3.9-7.4-9.4-7.4-15.4
		c-0.1-7.6,3.8-14.7,10.3-18.6c5.1-3.1,11.3-3.9,16.9-2.3C250.7,171.5,256.7,177.5,258.4,185z M237.5,176.2c7.2,0,13.1,5.5,13.1,8.2
		c0,2.7-5.8-2.5-13.1-2.5c-7.2,0-13.1,5.2-13.1,2.5C224.5,181.7,230.3,176.2,237.5,176.2z M271.9,173.5c-6.4-12.5-19.4-21-34.4-21
		c-14.8,0-27.7,8.4-34.2,20.7l-6.1-2.9c1.7-4.2,4.3-8.1,7.4-11.4c5.3-5.7,12.2-9.6,19.6-11.8v3.9c4.2-1,8.7-1.6,13.3-1.6
		c5,0,9.8,0.7,14.3,1.9v-3.9c6.8,2.2,13.1,6,18.1,11.1c3.6,3.7,6.3,8,8,12.6L271.9,173.5z M327.9,228.6c0,0-13.9-11.2-21.5-17
		c2,0.8,4.1,1.5,6.1,2.1c7.3,1.9,23.8,5,41.3,7.1c12.3,1.5,69,5.1,99.4,7C424,230.1,371.9,231.7,327.9,228.6z M299,136.3l-1.7,1.7
		c-0.4-0.8-0.8-1.6-1.3-2.3l1.2-1.2c4.2-4.2,4.9-10.5,2.1-15.4c0,0-3,4.7-11.2,5.9c-7.8-8.5-18.4-15.3-29.9-19.2l3.7-8.2l-7,7.2
		c-1.1-0.3-2.2-0.6-3.3-0.8l7.6-7.6c2.9-2.9,6.8-4.5,10.9-4.5c4.1,0,8,1.6,10.9,4.5l18.1,18.1c2.9,2.9,4.5,6.8,4.5,10.9
		C303.5,129.6,301.9,133.4,299,136.3z M151.5,227.9c-57.3,5.7-109.3,4.1-132.1,2.9c22.6-1.7,75.1-5.7,85.6-6.5
		c13.9-1,35.6-4.1,47.4-6.6c6.9-1.5,15.1-4,21-5.9L151.5,227.9z"/>
	<path class="st0" d="M217,140.3c0.4-3.8,0.8-7.6,1.3-11.3c0.1-1.2-0.8-2.2-2-2.2c-1.4,0-2.8,0.1-4.2,0.1c-0.7,0-1.3,0.4-1.6,1
		c-2.5,4.3-4.9,8.7-7.3,13C207.8,140.6,212.5,140.4,217,140.3z"/>
	<path class="st0" d="M197.1,131.3c1.3,2.7,2.7,5.4,4,8.2c2.2-4.1,4.5-8.1,6.8-12.2c0.5-0.8,0.3-1.8-0.4-2.4
		c-0.2-0.2-0.5-0.4-0.7-0.6c-0.8-0.7-1.9-0.7-2.7,0.1C201.8,126.7,199.4,129,197.1,131.3z"/>
	<path class="st0" d="M275,139.5c1.3-2.7,2.7-5.4,4-8.2c-2.3-2.3-4.7-4.7-7.1-7c-0.7-0.7-1.9-0.7-2.7-0.1c-0.2,0.2-0.5,0.4-0.7,0.6
		c-0.7,0.6-0.9,1.6-0.4,2.4C270.5,131.4,272.7,135.5,275,139.5z"/>
	<path class="st0" d="M259,140.3c4.6,0.1,9.2,0.3,13.8,0.6c-2.4-4.3-4.9-8.7-7.3-13c-0.3-0.6-0.9-0.9-1.6-1
		c-1.4-0.1-2.8-0.1-4.2-0.1c-1.2,0-2.1,1-2,2.2C258.2,132.7,258.6,136.5,259,140.3z"/>
	<path class="st0" d="M219.6,139.9c2.8-0.6,10.9-2.2,18.3-2.2h0.2c7.4,0,15.5,1.6,18.3,2.2c-0.6-5.2-1.2-10.4-1.8-15.6
		c-0.2-1.3-0.9-2.4-2-3c-2.9-1.7-8.6-3.5-14.6-3.5c-6,0-11.7,1.8-14.6,3.4c-1.1,0.6-1.9,1.8-2,3
		C220.8,129.4,220.2,134.7,219.6,139.9z"/>
</g>
</svg>
