<?xml version="1.0" encoding="utf-8"?>
<!-- Generator: Adobe Illustrator 21.0.2, SVG Export Plug-In . SVG Version: 6.00 Build 0)  -->
<svg version="1.1" id="Layer_1" xmlns="http://www.w3.org/2000/svg" xmlns:xlink="http://www.w3.org/1999/xlink" x="0px" y="0px"
	 viewBox="0 0 81.7 139" style="enable-background:new 0 0 81.7 139;" xml:space="preserve">
<style type="text/css">
	.st0{fill:#2D2C2C;}
	.st1{fill:#FFFFFF;}
	.st2{fill:none;}
	.st3{opacity:0.41;}
</style>
<g>
	<g>
		<path class="st0" d="M47.7,137.7l0.5-5.8l32.4-87.4c0-0.1,0.1-0.2,0.1-0.3L81.2,32c0-0.9-0.5-1.6-1.3-1.9s-1.7-0.1-2.2,0.6l-7.2,9
			l4.3-11.6c3.8-10.2,0.6-21.6-1-25.9c-0.2-0.6-0.7-1.1-1.3-1.3c-0.6-0.2-1.3-0.2-1.9,0.2c-4.1,2.3-13.9,8.9-17.7,19l-4.3,11.5
			L49,20.1c0-0.9-0.5-1.6-1.3-1.9s-1.7-0.1-2.2,0.6l-7.6,9.6c-0.1,0.1-0.1,0.2-0.2,0.3L5.3,116l-3.4,4.8c-0.2,0.2-0.2,0.5-0.2,0.8
			s0.2,0.5,0.4,0.7c1.8,1.3,3.8,2.3,5.9,3l0.2,0.1c2,0.7,4.1,1.2,6.2,1.4c0.3,0,0.6-0.1,0.8-0.2c0.2-0.2,0.4-0.4,0.4-0.7l0.5-5.8
			l3.7-10l21.3,7.9l-3.7,10l-3.4,4.8c-0.2,0.2-0.2,0.5-0.2,0.8s0.2,0.5,0.4,0.7c1.8,1.3,3.8,2.3,5.9,3l0.2,0.1
			c2,0.7,4.1,1.2,6.2,1.4c0.3,0,0.6-0.1,0.8-0.2C47.5,138.3,47.6,138,47.7,137.7z"/>
		<g>
			<g>
				<g>
					<path class="st0" d="M53.5,20.1c-4.7,12.6-33.1,89.4-33.1,89.4l20.6,7.7c0,0,28.2-76,33.1-89.4c3.7-10.1,0.5-21.3-1-25.5
						c-0.3-0.9-1.4-1.3-2.3-0.8C67,3.7,57.2,10.2,53.5,20.1z"/>
				</g>
				<g>
					<path class="st1" d="M70.8,2.3c0,0-0.4,0.3-1.1,0.8s-1.7,1.3-3,2.3s-2.8,2.3-4.4,4c-1.6,1.6-3.3,3.6-4.8,6
						c-0.7,1.2-1.5,2.5-2.1,3.8c-0.2,0.3-0.3,0.7-0.4,1c-0.1,0.4-0.3,0.7-0.4,1.1c-0.3,0.7-0.5,1.5-0.8,2.2c-1.1,3-2.3,6.2-3.5,9.5
						c-0.6,1.6-1.2,3.3-1.9,5c-0.6,1.7-1.3,3.4-1.9,5.1c-1.3,3.5-2.6,7-3.9,10.5c-2.6,7-5.3,14.1-7.7,20.6c-2.5,6.6-4.8,12.7-6.8,18
						c-4,10.5-6.6,17.6-6.6,17.6s2.6-7.1,6.4-17.6c1.9-5.3,4.2-11.5,6.6-18.1c2.4-6.6,5-13.7,7.6-20.7c1.3-3.5,2.6-7,3.9-10.5
						c0.6-1.7,1.3-3.5,1.9-5.2c0.6-1.7,1.2-3.4,1.9-5c1.2-3.3,2.4-6.5,3.5-9.5c0.3-0.8,0.6-1.5,0.8-2.2c0.1-0.4,0.3-0.7,0.4-1.1
						c0.1-0.4,0.3-0.7,0.5-1.1c0.3-0.7,0.7-1.4,1-2c0.4-0.6,0.7-1.3,1.1-1.9c0.8-1.2,1.6-2.3,2.4-3.3c0.8-1,1.7-1.9,2.5-2.7
						C63.6,7.3,65.2,6,66.5,5s2.4-1.7,3.1-2.2C70.4,2.6,70.8,2.3,70.8,2.3z"/>
				</g>
				<g>
					<path class="st1" d="M72.8,2.7c0,0,0.1,0.5,0.4,1.3c0.2,0.9,0.6,2.1,0.9,3.7s0.7,3.6,0.9,5.9c0.1,1.1,0.1,2.4,0.1,3.7
						c0,1.3-0.1,2.7-0.3,4.1c-0.1,0.7-0.2,1.4-0.4,2.1c-0.2,0.7-0.3,1.5-0.6,2.2c-0.1,0.4-0.2,0.7-0.4,1.1c-0.1,0.4-0.3,0.7-0.4,1.1
						c-0.3,0.7-0.5,1.5-0.8,2.2c-1.1,3-2.3,6.2-3.5,9.5c-0.6,1.7-1.2,3.3-1.9,5c-0.6,1.7-1.3,3.4-1.9,5.2c-1.3,3.5-2.6,7-3.9,10.5
						c-2.6,7-5.3,14.1-7.8,20.7c-2.5,6.6-4.8,12.8-6.8,18.1c-4,10.6-6.6,17.6-6.6,17.6s2.6-7.1,6.4-17.7c1.9-5.3,4.2-11.5,6.6-18.1
						c2.4-6.6,5-13.7,7.6-20.8c1.3-3.5,2.6-7.1,3.9-10.5c0.6-1.7,1.3-3.5,1.9-5.2s1.3-3.4,1.9-5c1.2-3.3,2.4-6.5,3.6-9.5
						c0.3-0.8,0.6-1.5,0.8-2.2c0.1-0.4,0.3-0.7,0.4-1.1s0.2-0.7,0.4-1.1c0.4-1.4,0.7-2.9,0.9-4.3c0.4-2.8,0.4-5.4,0.3-7.6
						c-0.1-2.3-0.4-4.3-0.7-5.9C73.5,6.1,73.2,4.8,73,4C72.9,3.2,72.8,2.7,72.8,2.7z"/>
				</g>
				<g>
					<path class="st1" d="M71.6,1.9c0,0,0,0.1-0.1,0.3c0,0.2-0.1,0.6-0.2,1s-0.2,1-0.3,1.6c-0.1,0.3-0.1,0.6-0.2,1s-0.1,0.7-0.2,1.1
						c0,0.9-0.2,1.7-0.4,2.7s-0.5,2-0.7,3.1c-0.1,0.5-0.3,1.1-0.4,1.7c-0.2,0.6-0.3,1.2-0.5,1.8c-0.1,0.3-0.2,0.6-0.3,0.9
						c-0.1,0.3-0.2,0.6-0.3,0.9c-0.1,0.3-0.2,0.6-0.3,1c-0.1,0.3-0.2,0.7-0.3,1c-0.2,0.7-0.4,1.3-0.7,2c-0.1,0.2-0.1,0.3-0.2,0.5
						s-0.1,0.3-0.2,0.5c-0.1,0.3-0.2,0.7-0.4,1.1c-0.5,1.4-1,2.9-1.6,4.4c-0.3,0.7-0.6,1.5-0.8,2.3c-0.3,0.8-0.6,1.5-0.9,2.3
						c-0.6,1.6-1.2,3.2-1.8,4.8c-1.2,3.3-2.5,6.6-3.8,10.1c-1.3,3.4-2.6,6.9-3.9,10.4c-2.6,6.9-5.2,13.9-7.7,20.4
						s-4.8,12.6-6.7,17.8c-2,5.2-3.6,9.5-4.8,12.6c-1.2,3-1.8,4.8-1.8,4.8s0.6-1.7,1.7-4.8c1.1-3.1,2.7-7.4,4.6-12.7
						c1.9-5.2,4.1-11.3,6.5-17.9c2.4-6.5,4.9-13.5,7.5-20.5c1.3-3.5,2.6-7,3.8-10.4c1.3-3.4,2.5-6.8,3.7-10.1
						c0.6-1.6,1.2-3.2,1.8-4.8c0.3-0.8,0.6-1.6,0.9-2.3c0.3-0.8,0.6-1.5,0.9-2.3c0.6-1.5,1.1-2.9,1.6-4.3s1-2.8,1.4-4.1
						c0.1-0.3,0.2-0.7,0.3-1c0.1-0.3,0.2-0.6,0.3-1c0.1-0.3,0.2-0.6,0.3-0.9c0.1-0.3,0.2-0.6,0.3-0.9c0.2-0.6,0.4-1.2,0.5-1.8
						c0.2-0.6,0.3-1.1,0.5-1.7c0.3-1.1,0.6-2.1,0.9-3s0.5-1.8,0.7-2.6s0.4-1.5,0.5-2.1c0.3-0.6,0.4-1.2,0.5-1.6s0.2-0.7,0.2-1
						C71.6,2,71.6,1.9,71.6,1.9z"/>
				</g>
				<g>
					<path class="st1" d="M67.9,25.2c-4.7,12.6-33.2,89.6-33.2,89.6l3,1.1c0,0,28.3-76.2,33.2-89.6c4.1-11,1.3-24.4,1.3-24.1
						C72.1,6.4,71.9,14.3,67.9,25.2z"/>
				</g>
			</g>
			<g>
				<g>
					<path class="st1" d="M15.1,119.8l32.5-87.5l0.5-12.2c0-0.9-1.1-1.3-1.7-0.6l-7.6,9.6L6.2,116.5l-3.5,4.9c1.4,1,3.3,2.1,5.8,3
						c2.3,0.8,4.4,1.2,6,1.4C14.7,123.7,14.9,121.8,15.1,119.8z"/>
					<path class="st0" d="M8.2,124.7c-2-0.7-3.9-1.7-5.7-3c-0.1-0.1-0.2-0.2-0.2-0.3c0-0.1,0-0.2,0.1-0.3l3.5-4.8l32.4-87.5
						c0,0,0-0.1,0.1-0.1l7.6-9.6c0.4-0.5,1-0.6,1.5-0.4c0.6,0.2,0.9,0.7,0.9,1.3l-0.5,12.2v0.1l-32.4,87.5l-0.5,5.9
						c0,0.1-0.1,0.2-0.2,0.3c-0.1,0.1-0.2,0.1-0.3,0.1c-2.1-0.2-4.1-0.7-6.1-1.4C8.3,124.7,8.3,124.7,8.2,124.7z M3.3,121.3
						c1.6,1.1,3.4,2,5.2,2.6c0.1,0,0.1,0,0.2,0.1c1.8,0.6,3.6,1.1,5.5,1.3l0.5-5.5v-0.1l32.4-87.5L47.6,20c0-0.3-0.2-0.5-0.3-0.5
						s-0.4-0.1-0.6,0.2l-7.6,9.5L6.6,116.6c0,0,0,0.1-0.1,0.1L3.3,121.3z"/>
				</g>
				<g>
					<path class="st0" d="M41.2,29.9l6.1-10.8c-0.3-0.1-0.7,0-1,0.3L38.7,29L6.2,116.5l-3.5,4.9l3.2,1.9l2.8-5.8L41.2,29.9z"/>
				</g>
				<g>
					<path class="st1" d="M46.8,19.6c-0.3,0.4-0.6,0.8-0.9,1.2L45,22l-0.9,1.2l-0.9,1.3l-1.8,2.4l-1.8,2.4v-0.1
						c-0.7,1.8-1.3,3.7-2,5.5l-2,5.5l-1,2.7l-1,2.7l-2,5.5L27.5,62l-2,5.5l-1,2.7l-1,2.7l-8.1,21.9c-0.7,1.8-1.4,3.6-2,5.5l-2,5.5
						c-0.7,1.8-1.4,3.6-2.1,5.5c-0.7,1.8-1.4,3.6-2.1,5.4l0,0l0,0l-1,1.3l-0.9,1.2l-0.9,1.2l-1,1.2l0.8-1.2l0.8-1.2l0.8-1.2l0.9-1.2
						l0,0c0.6-1.8,1.3-3.7,2-5.5s1.3-3.7,2-5.5l2-5.5c0.7-1.8,1.3-3.7,2-5.5l8.1-21.9l1-2.7l1-2.7l2-5.5l4-10.9l2-5.5l1-2.7l1-2.7
						l2-5.5c0.7-1.8,1.4-3.6,2.1-5.5l0,0c0,0,0,0,0-0.1l1.9-2.4l1.9-2.4l0.9-1.2l1-1.2l1-1.2C46.1,20.3,46.5,19.9,46.8,19.6z"/>
				</g>
				<g>
					<path class="st0" d="M47.2,19.7c0,0.5,0,1-0.1,1.5c0,0.5,0,1-0.1,1.5c0,0.5-0.1,1-0.1,1.5l-0.1,1.5c0,0.5-0.1,1-0.1,1.5
						l-0.1,1.5l-0.2,3v0.1l0,0l-1,2.7c-0.3,0.9-0.7,1.8-1,2.7l-2,5.5l-1,2.7l-1,2.7l-2,5.5l-4.1,10.9l-2,5.5l-1,2.7l-1,2.7l-4,10.9
						l-2,5.5l-2,5.5c-0.7,1.8-1.4,3.6-2,5.5l-2.1,5.5c-0.7,1.8-1.4,3.6-2.1,5.4c-0.4,0.9-0.7,1.8-1.1,2.7c-0.4,0.9-0.7,1.8-1.1,2.7
						V119l-0.1,1.4l-0.1,1.4l-0.1,1.4c0,0.5-0.1,0.9-0.1,1.4c0-0.5,0-0.9-0.1-1.4v-1.4v-1.4V119c0,0,0,0,0-0.1l0,0
						c0.3-0.9,0.6-1.8,0.9-2.8c0.3-0.9,0.6-1.8,1-2.8c0.6-1.8,1.3-3.7,2-5.5l2-5.5c0.7-1.8,1.3-3.7,2-5.5l2-5.5l2-5.5l4.1-10.9
						l1-2.7l1-2.7l2-5.5l4-11l2-5.5l1-2.7l1-2.7l2.1-5.5c0.3-0.9,0.7-1.8,1-2.7l1-2.7v0.1l0.3-3l0.2-1.5c0.1-0.5,0.1-1,0.2-1.5
						l0.2-1.5c0.1-0.5,0.1-1,0.2-1.5c0.1-0.5,0.1-1,0.2-1.5C47.1,20.7,47.2,20.2,47.2,19.7z"/>
				</g>
				<g>
					<path class="st1" d="M35.9,37c1.2-0.1,2.5,0,3.6,0.3c1.3,0.4,2.6,0.9,3.8,1.7c0.5,0.3,1,0.7,1.4,1.2c-1.1-0.3-2.2-0.7-3.4-1.2
						s-2.5-0.9-3.7-1.4C37,37.5,36.4,37.2,35.9,37z"/>
				</g>
				<g>
					<path class="st1" d="M32.2,46.9c1.2-0.1,2.5,0,3.6,0.3c1.3,0.4,2.6,0.9,3.8,1.7c0.5,0.3,1,0.7,1.4,1.2
						c-1.1-0.3-2.2-0.7-3.4-1.2s-2.5-0.9-3.7-1.4C33.3,47.4,32.7,47.2,32.2,46.9z"/>
				</g>
				<g>
					<path class="st1" d="M25,66.3c1.2-0.1,2.5,0,3.6,0.3c1.3,0.4,2.6,0.9,3.8,1.7c0.5,0.3,1,0.7,1.4,1.2c-1.1-0.3-2.2-0.7-3.4-1.2
						c-1.2-0.5-2.5-0.9-3.7-1.4C26.1,66.8,25.6,66.5,25,66.3z"/>
				</g>
				<g>
					<path class="st1" d="M6.7,115.7c1.1,0.3,2.2,0.7,3.4,1.2s2.5,0.9,3.7,1.4c0.6,0.2,1.2,0.4,1.7,0.7c-0.5,0.1-1,0.1-1.5,0
						c-0.7-0.1-1.4-0.2-2-0.3c-1.3-0.3-2.6-0.9-3.8-1.7C7.6,116.6,7.1,116.2,6.7,115.7z"/>
				</g>
				<g>
					<path class="st1" d="M7.5,113.5c1.1,0.3,2.2,0.7,3.4,1.2s2.5,0.9,3.7,1.4c0.6,0.2,1.2,0.4,1.7,0.7c-0.5,0.1-1,0.1-1.5,0
						c-0.7-0.1-1.4-0.2-2-0.3c-1.3-0.3-2.6-0.9-3.8-1.7C8.4,114.3,7.9,113.9,7.5,113.5z"/>
				</g>
				<g>
					<path class="st1" d="M8.3,111.2c1.1,0.3,2.2,0.7,3.4,1.2s2.5,0.9,3.7,1.4c0.6,0.2,1.2,0.4,1.7,0.7c-0.5,0.1-1,0.1-1.5,0
						c-0.7-0.1-1.4-0.2-2-0.3c-1.3-0.3-2.6-0.9-3.8-1.7C9.3,112.1,8.8,111.7,8.3,111.2z"/>
				</g>
				<g>
					<path class="st0" d="M44.3,41c-1.3-0.8-2.7-1.5-4.1-2c-1.5-0.5-3-1-4.5-1.2l0.1-0.8c1.6,0.3,3.2,0.7,4.7,1.2s2.9,1.2,4.2,2.1
						L44.3,41z"/>
				</g>
				<g>
					<path class="st0" d="M40.6,50.9c-1.3-0.8-2.7-1.5-4.1-2c-1.5-0.5-3-1-4.5-1.2l0.1-0.8c1.6,0.3,3.2,0.7,4.7,1.2s2.9,1.2,4.2,2.1
						L40.6,50.9z"/>
				</g>
				<g>
					<path class="st0" d="M33.4,70.3c-1.3-0.8-2.7-1.5-4.1-2c-1.5-0.5-3-1-4.5-1.2l0.1-0.8c1.6,0.3,3.1,0.7,4.6,1.2c0,0,0,0,0.1,0
						c1.5,0.5,2.9,1.2,4.2,2.1L33.4,70.3z"/>
				</g>
				<g>
					<path class="st0" d="M10.6,118.6c-1.5-0.6-3-1.3-4.4-2.1l0.4-0.7c1.4,0.8,2.8,1.5,4.3,2.1c1.5,0.5,3,0.9,4.5,1.2l-0.1,0.8
						C13.7,119.6,12.2,119.2,10.6,118.6L10.6,118.6z"/>
				</g>
				<g>
					<path class="st0" d="M11.4,116.3c-1.5-0.6-3-1.3-4.4-2.1l0.4-0.7c1.3,0.8,2.8,1.5,4.2,2.1c0,0,0,0,0.1,0c1.5,0.5,3,0.9,4.5,1.2
						l-0.1,0.8C14.6,117.3,13,116.9,11.4,116.3C11.5,116.3,11.5,116.3,11.4,116.3z"/>
				</g>
				<g>
					<path class="st0" d="M12.3,114c-1.5-0.6-3-1.3-4.4-2.1l0.4-0.7c1.3,0.8,2.8,1.5,4.2,2.1c0,0,0,0,0.1,0c1.5,0.5,3,0.9,4.5,1.2
						l-0.1,0.8C15.4,115,13.8,114.6,12.3,114C12.3,114.1,12.3,114.1,12.3,114z"/>
				</g>
				<path class="st0" d="M9.9,106.4l-1.3,3.5c0,0,1.5,1.2,4.5,2.3c2.3,0.8,4.4,0.9,4.4,0.9l0.7-1.8L9.9,106.4z"/>
			</g>
			<g>
				<g>
					<path class="st1" d="M47.1,131.7l32.5-87.5L80.1,32c0-0.9-1.1-1.3-1.7-0.6L70.8,41l-32.5,87.5l-3.5,4.9c1.4,1,3.3,2.1,5.8,3
						c2.3,0.8,4.4,1.2,6,1.4C46.8,135.6,47,133.7,47.1,131.7z"/>
					<path class="st0" d="M40.3,136.6c-2-0.7-3.9-1.7-5.7-3c-0.1-0.1-0.2-0.2-0.2-0.3s0-0.2,0.1-0.3l3.5-4.8l32.4-87.5
						c0,0,0-0.1,0.1-0.1l7.6-9.6c0.4-0.5,1-0.6,1.5-0.4c0.6,0.2,0.9,0.7,0.9,1.3L80,44.1v0.1l-32.4,87.5l-0.5,5.9
						c0,0.1-0.1,0.2-0.2,0.3s-0.2,0.1-0.3,0.1c-2.1-0.2-4.1-0.7-6.1-1.4C40.4,136.6,40.4,136.6,40.3,136.6z M35.4,133.2
						c1.6,1.1,3.4,2,5.2,2.6c0.1,0,0.1,0,0.2,0.1c1.8,0.6,3.6,1.1,5.5,1.3l0.5-5.5v-0.1l32.4-87.5l0.5-12.2c0-0.3-0.2-0.5-0.3-0.5
						c-0.1,0-0.4-0.1-0.6,0.2l-7.6,9.5l-32.4,87.5c0,0,0,0.1-0.1,0.1L35.4,133.2z"/>
				</g>
				<g>
					<path class="st0" d="M73.3,41.8L79.4,31c-0.3-0.1-0.7,0-1,0.3l-7.6,9.6l-32.5,87.5l-3.5,4.9l3.2,1.9l2.8-5.8L73.3,41.8z"/>
				</g>
				<g>
					<path class="st1" d="M78.9,31.4c-0.3,0.4-0.6,0.8-0.9,1.2l-0.9,1.2l-0.9,1.4l-0.9,1.2l-1.8,2.4l-1.8,2.4v-0.1
						c-0.7,1.8-1.3,3.7-2,5.5l-2,5.5l-1,2.7l-1,2.7l-2,5.5l-4.1,10.9l-2,5.5l-1,2.7l-1,2.7l-8.1,21.9c-0.7,1.8-1.4,3.6-2,5.5l-2,5.5
						c-0.7,1.8-1.4,3.6-2.1,5.5c-0.7,1.8-1.4,3.6-2.1,5.4l0,0l0,0l-0.9,1.2l-0.9,1.2l-0.9,1.2l-0.9,1.2l0.8-1.2l0.8-1.2l0.8-1.2
						l0.9-1.2l0,0c0.6-1.8,1.3-3.7,2-5.5s1.3-3.7,2-5.5l2-5.5c0.7-1.8,1.3-3.7,2-5.5l8.1-21.9l1-2.7l1-2.7l2-5.5l4-10.9l2-5.5l1-2.7
						l1-2.7l2-5.5c0.7-1.8,1.4-3.6,2.1-5.5l0,0c0,0,0,0,0-0.1l2-2.3l1.9-2.4L76,35l1-1.2l1-1.2C78.2,32.2,78.5,31.8,78.9,31.4z"/>
				</g>
				<g>
					<path class="st0" d="M79.3,31.6c0,0.5,0,1-0.1,1.5c0,0.5,0,1-0.1,1.5s-0.1,1-0.1,1.5l-0.1,1.5c0,0.5-0.1,1-0.1,1.5l-0.1,1.5
						l-0.2,3v0.1l0,0l-1,2.7c-0.3,0.9-0.7,1.8-1,2.7l-2,5.5l-1,2.7l-1,2.7l-2,5.5l-4,11.1l-2,5.5l-1,2.7l-1,2.7l-4,10.9l-2,5.5
						l-2,5.5c-0.7,1.8-1.4,3.6-2,5.5l-2.1,5.5c-0.7,1.8-1.4,3.6-2.1,5.4c-0.4,0.9-0.7,1.8-1.1,2.7c-0.4,0.9-0.7,1.8-1.1,2.7v-0.1
						l-0.1,1.4l-0.1,1.4l-0.1,1.4c0,0.5-0.1,0.9-0.1,1.4c0-0.5,0-0.9-0.1-1.4v-1.4v-1.4v-1.4c0,0,0,0,0-0.1l0,0
						c0.3-0.9,0.6-1.8,0.9-2.8c0.3-0.9,0.6-1.8,1-2.8c0.6-1.8,1.3-3.7,2-5.5l2-5.5c0.7-1.8,1.3-3.7,2-5.5l2-5.5l2-5.5L61.6,87l1-2.7
						l1-2.7l2-5.5l4-11l2-5.5l1-2.7l1-2.7l2.1-5.5c0.3-0.9,0.7-1.8,1-2.7l1-2.7v0.1l0.3-3l0.2-1.5c0.1-0.5,0.1-1,0.2-1.5l0.2-1.5
						c0.1-0.5,0.1-1,0.2-1.5s0.1-1,0.2-1.5C79.2,32.6,79.3,32.1,79.3,31.6z"/>
				</g>
				<g>
					<path class="st1" d="M68,48.9c1.2-0.1,2.5,0,3.6,0.3c1.3,0.4,2.6,0.9,3.8,1.7c0.5,0.3,1,0.7,1.4,1.2c-1.1-0.3-2.2-0.7-3.4-1.2
						c-1.2-0.5-2.5-0.9-3.7-1.4C69.1,49.4,68.5,49.1,68,48.9z"/>
				</g>
				<g>
					<path class="st1" d="M64.3,58.8c1.2-0.1,2.5,0,3.6,0.3c1.3,0.4,2.6,0.9,3.8,1.7c0.5,0.3,1,0.7,1.4,1.2
						c-1.1-0.3-2.2-0.7-3.4-1.2c-1.2-0.5-2.5-0.9-3.7-1.4C65.4,59.3,64.8,59.1,64.3,58.8z"/>
				</g>
				<g>
					<path class="st1" d="M57.1,78.2c1.2-0.1,2.5,0,3.6,0.3c1.3,0.4,2.6,0.9,3.8,1.7c0.5,0.3,1,0.7,1.4,1.2
						c-1.1-0.3-2.2-0.7-3.4-1.2s-2.5-0.9-3.7-1.4C58.2,78.7,57.6,78.4,57.1,78.2z"/>
				</g>
				<g>
					<path class="st1" d="M38.7,127.6c1.1,0.3,2.2,0.7,3.4,1.2s2.5,0.9,3.7,1.4c0.6,0.2,1.2,0.4,1.7,0.7c-0.5,0.1-1,0.1-1.5,0
						c-0.7-0.1-1.4-0.2-2-0.3c-1.3-0.3-2.6-0.9-3.8-1.7C39.7,128.5,39.2,128.1,38.7,127.6z"/>
				</g>
				<g>
					<path class="st1" d="M39.6,125.4c1.1,0.3,2.2,0.7,3.4,1.2s2.5,0.9,3.7,1.4c0.6,0.2,1.2,0.4,1.7,0.7c-0.5,0.1-1,0.1-1.5,0
						c-0.7-0.1-1.4-0.2-2-0.3c-1.3-0.3-2.6-0.9-3.8-1.7C40.5,126.2,40,125.8,39.6,125.4z"/>
				</g>
				<g>
					<path class="st1" d="M40.4,123.1c1.1,0.3,2.2,0.7,3.4,1.2s2.5,0.9,3.7,1.4c0.6,0.2,1.2,0.4,1.7,0.7c-0.5,0.1-1,0.1-1.5,0
						c-0.7-0.1-1.4-0.2-2-0.3c-1.3-0.3-2.6-0.9-3.8-1.7C41.3,124,40.9,123.6,40.4,123.1z"/>
				</g>
				<g>
					<path class="st0" d="M76.3,52.9c-1.3-0.8-2.7-1.5-4.1-2c-1.5-0.5-3-1-4.5-1.2l0.1-0.8c1.6,0.3,3.2,0.7,4.7,1.2s2.9,1.2,4.2,2.1
						L76.3,52.9z"/>
				</g>
				<g>
					<path class="st0" d="M72.7,62.8c-1.3-0.8-2.7-1.5-4.1-2c-1.5-0.5-3-1-4.5-1.2l0.1-0.8c1.6,0.3,3.2,0.7,4.7,1.2s2.9,1.2,4.2,2.1
						L72.7,62.8z"/>
				</g>
				<g>
					<path class="st0" d="M65.5,82.2c-1.3-0.8-2.7-1.5-4.1-2c0,0,0,0-0.1,0c-1.4-0.5-2.9-0.9-4.5-1.2l0.1-0.8
						c1.6,0.3,3.2,0.7,4.7,1.2s2.9,1.2,4.2,2.1L65.5,82.2z"/>
				</g>
				<g>
					<path class="st0" d="M42.7,130.5c-1.5-0.6-3-1.3-4.4-2.1l0.4-0.7c1.4,0.8,2.8,1.5,4.3,2.1c1.5,0.5,3,0.9,4.5,1.2l-0.1,0.8
						C45.8,131.5,44.2,131.1,42.7,130.5L42.7,130.5z"/>
				</g>
				<g>
					<path class="st0" d="M43.5,128.2c-1.5-0.6-3-1.3-4.4-2.1l0.4-0.7c1.3,0.8,2.8,1.5,4.2,2.1c0,0,0,0,0.1,0c1.5,0.5,3,0.9,4.5,1.2
						l-0.1,0.8C46.7,129.2,45.1,128.8,43.5,128.2C43.6,128.2,43.5,128.2,43.5,128.2z"/>
				</g>
				<g>
					<path class="st0" d="M44.4,125.9c-1.5-0.6-3-1.3-4.4-2.1l0.4-0.7c1.3,0.8,2.8,1.5,4.2,2.1c0,0,0,0,0.1,0c1.5,0.5,3,0.9,4.5,1.2
						l-0.1,0.8C47.5,126.9,45.9,126.5,44.4,125.9C44.4,126,44.4,125.9,44.4,125.9z"/>
				</g>
				<path class="st0" d="M51,121l-1.3,3.5c0,0-1.9-0.1-4.9-1.2c-2.3-0.8-3.9-2.2-3.9-2.2l0.7-1.8L51,121z"/>
			</g>
		</g>
		<path class="st1" d="M62.5,122.5c0-0.1,0.1-0.2,0.1-0.3c0.4-1,0.8-2.8,1.3-5.4c0.7-3.7-0.4-6-1.1-7.5c-0.1-0.2-0.2-0.4-0.3-0.7
			c-0.3-0.7-0.8-1.6-1.5-3c-1-2-2.5-5-4.6-9.3c-2.6-5.6-1.8-9.1-1.3-11.4c0.1-0.5,0.2-0.9,0.3-1.3c0.4-2.6,3.9-20.7,4.4-23.1L60,60
			c2.2-6,1.9-17.1,1.8-18c0-0.1,0-0.3,0-0.4c-0.1-1.6-0.4-4.2-2.6-5c-2.2-0.8-4.1,1-5.2,2.1l0,0c-0.1,0.1-0.2,0.2-0.3,0.3
			c-0.8,0.6-8.2,8.7-10.5,14.8L43,54.3c-1.3,2.4-10.3,18.2-11.7,20.3c-0.2,0.4-0.4,0.8-0.7,1.2c-1.1,2.1-2.8,5.3-8.4,7.8
			c-4.3,1.9-7.5,3.2-9.6,4.1c-1.5,0.6-2.4,1-3.1,1.3c-0.2,0.1-0.4,0.2-0.7,0.3c-1.5,0.6-3.8,1.6-5.7,4.9c-1.3,2.3-2.2,3.9-2.5,4.9
			c0,0.1-0.1,0.2-0.1,0.3c-0.3,0.7-1.1,2.5,0.9,3.9c0.8,0.6,11.3,7,16.5,10.1l-0.8,2.2c-0.2,0.6-0.1,1.2,0.3,1.6l1.3,1.5l-0.3,2.5
			c-0.1,0.5,0.1,1,0.5,1.4c1,1,2.3,1.8,3.6,2.3l0,0c0.4,0.1,0.7,0.2,1.1,0.3c-1,3.8-1,4.6-0.1,5.4c0.2,0.1,0.3,0.2,0.5,0.3
			s0.4,0.1,0.6,0.1c1.2,0,1.8-0.6,3.4-4c0.5,0.2,0.9,0.4,1.4,0.6c1.3,0.4,2.8,0.5,4.2,0.3c0.5-0.1,0.9-0.3,1.1-0.7l1.4-2.1l2-0.3
			c0.6-0.1,1.1-0.5,1.3-1.1l0.8-2.2c7.1,1.2,18.1,3,19.1,3.1C61.7,125.1,62.2,123.2,62.5,122.5z"/>
		<g>
			<path class="st0" d="M61.6,122.2c0-0.1,0.1-0.2,0.1-0.4c0.4-0.9,0.8-2.7,1.2-5.2c0.6-3.4-0.3-5.4-1-6.9c-0.1-0.3-0.2-0.5-0.3-0.7
				c-0.3-0.6-0.7-1.5-1.4-2.9c-1-2-2.6-5.1-4.6-9.4c-2.8-5.9-1.9-9.6-1.3-12c0.1-0.5,0.2-0.9,0.3-1.3c0.5-2.6,4-21,4.4-23.2l0.2-0.5
				c2.2-5.9,1.9-16.7,1.8-17.6c0-0.1,0-0.3,0-0.4c-0.1-1.4-0.3-3.6-2-4.2c-1.7-0.6-3.2,0.9-4.2,1.9l0,0c-0.1,0.1-0.2,0.2-0.3,0.3
				c-0.7,0.7-8,8.6-10.2,14.5l-0.2,0.6c-1.1,2-10.4,18.1-11.7,20.4c-0.2,0.3-0.4,0.7-0.6,1.1c-1.2,2.2-3,5.6-8.9,8.2
				c-4.3,1.9-7.5,3.2-9.6,4.1c-1.4,0.6-2.4,1-3,1.3c-0.2,0.1-0.5,0.2-0.7,0.3c-1.5,0.6-3.5,1.5-5.3,4.5c-1.3,2.2-2.1,3.8-2.5,4.8
				c0,0.1-0.1,0.2-0.2,0.4c-0.3,0.7-0.8,1.8,0.6,2.8c0.8,0.6,12.9,8,17.1,10.5l-1.1,2.9c-0.1,0.2,0,0.5,0.1,0.7l1.5,1.8l-0.4,2.9
				c0,0.2,0,0.5,0.2,0.6c0.9,0.9,2.1,1.7,3.3,2.1l0,0c0.6,0.2,1.3,0.4,2,0.5c-1.3,4.6-1.2,5-0.7,5.4c0.1,0.1,0.2,0.1,0.3,0.2
				c0.1,0,0.2,0.1,0.3,0.1c0.6,0,1-0.2,3-4.4c0.6,0.5,1.3,0.8,2.1,1.1c1.2,0.4,2.5,0.5,3.7,0.3c0.2,0,0.4-0.2,0.5-0.3l1.6-2.4
				l2.4-0.4c0.3,0,0.5-0.2,0.6-0.5l1.1-2.9c4.8,0.8,18.7,3.1,19.8,3.2C61,124.1,61.4,122.9,61.6,122.2z"/>
			<g>
				<g>
					<path class="st1" d="M58,60c-0.4,2.1-4,20.7-4.4,23.2c-0.4,2.6-2.2,6.6,1.1,13.8c3.4,7.2,5.4,10.8,6,12.3s2,3.3,1.3,7.1
						c-0.5,2.6-0.9,4.2-1.2,5.1s-0.3,1.6-1.5,1.6c-1.2-0.1-20.9-3.4-20.9-3.4l-2.3-0.8L58,60z"/>
					<path class="st0" d="M38.3,120.1l-2.3-0.8c-0.2-0.1-0.3-0.3-0.3-0.6l21.8-58.9c0.1-0.2,0.3-0.3,0.5-0.3
						c0.2,0.1,0.3,0.3,0.3,0.5c-0.4,2-4,20.6-4.4,23.2c-0.1,0.4-0.2,0.8-0.3,1.3C53,87,52.2,90.8,55,96.8c2,4.3,3.6,7.4,4.6,9.4
						c0.7,1.4,1.2,2.3,1.4,2.9c0.1,0.2,0.2,0.5,0.3,0.7c0.7,1.4,1.6,3.3,1,6.6c-0.5,2.5-0.9,4.2-1.2,5.2c0,0.1-0.1,0.3-0.1,0.4
						c-0.2,0.7-0.5,1.5-1.8,1.4C58.2,123.4,39.2,120.3,38.3,120.1C38.4,120.1,38.3,120.1,38.3,120.1z M36.7,118.6l1.8,0.7
						c6.8,1.1,19.9,3.3,20.8,3.3c0.6,0,0.7-0.1,0.9-0.8c0-0.1,0.1-0.3,0.1-0.4c0.2-0.6,0.6-2,1.2-5c0.6-3-0.3-4.7-0.9-6
						c-0.1-0.3-0.3-0.5-0.4-0.8c-0.3-0.6-0.7-1.5-1.4-2.9c-1-2-2.6-5.1-4.6-9.4c-3-6.3-2-10.3-1.4-12.9c0.1-0.4,0.2-0.8,0.3-1.2
						c0.3-1.9,2.2-11.8,3.4-18.1L36.7,118.6z"/>
				</g>
				<g>
					<g>
						<path class="st0" d="M61.1,119.2c0.7-3.7-1.3-7.6-2-9.1c-0.6-1.5-2.6-5.1-6-12.3c-3.4-7.2-1.6-11.2-1.2-13.8
							c0.3-1.5,3.3-13.1,5.9-22.9C56.9,65.6,54,81,53.6,83.3c-0.4,2.6-2.2,6.6,1.1,13.8c3.4,7.2,5.4,10.8,6,12.3s2,3.3,1.3,7.1
							c-0.5,2.6-0.9,4.2-1.2,5.1c-0.2,0.5-0.3,1-0.6,1.3C60.5,121.9,60.8,120.7,61.1,119.2z"/>
					</g>
				</g>
				<g>
					<path class="st0" d="M51.1,116.5l0.7,0.2l9.6,3.2c-0.1,0.4-0.2,0.8-0.3,1.1l-9.7-2.8l-0.7-0.2L38,114.4l0.7-2L51.1,116.5z"/>
				</g>
				<g>
					<path class="st0" d="M49.5,121.5c0,0,0-0.1,0.1-0.4c0.1-0.2,0.2-0.6,0.3-1c0.1-0.2,0.1-0.4,0.2-0.7c0.1-0.2,0.2-0.5,0.2-0.8
						c0.2-0.5,0.4-1.1,0.6-1.6c0.1-0.3,0.2-0.6,0.3-0.8c0.1-0.3,0.2-0.5,0.3-0.8c0.2-0.5,0.4-1,0.5-1.4c0.2-0.4,0.3-0.8,0.4-1
						c0.1-0.2,0.1-0.4,0.1-0.4s0,0.1-0.1,0.4s-0.1,0.6-0.2,1c-0.1,0.4-0.2,0.9-0.3,1.5c-0.1,0.3-0.1,0.5-0.2,0.8
						c-0.1,0.3-0.1,0.6-0.2,0.9c-0.1,0.6-0.3,1.1-0.4,1.7c-0.1,0.3-0.1,0.5-0.2,0.8c-0.1,0.2-0.1,0.5-0.2,0.7
						c-0.1,0.4-0.2,0.8-0.3,1s-0.1,0.4-0.1,0.4L49.5,121.5z"/>
				</g>
				<g>
					<path class="st0" d="M20,112.9l-1.3,3.5l1.8,2.1l-0.4,3.2c0.5,0.5,1.5,1.4,3,1.9c1.5,0.6,2.9,0.6,3.6,0.5
						c0.4,0.5,1.5,1.6,3.3,2.2c1.5,0.5,2.7,0.4,3.4,0.3c0.6-0.9,1.2-1.8,1.8-2.7l2.7-0.4l1.3-3.5L20,112.9z"/>
					<path class="st0" d="M29.6,126.5c-1.4-0.5-2.4-1.4-3-2.1c-1.2,0.1-2.4-0.1-3.6-0.5l0,0c-1.2-0.4-2.2-1.1-3.1-2
						c-0.1-0.1-0.1-0.1-0.1-0.2l0.4-3.1l-1.7-2c-0.1-0.1-0.1-0.2,0-0.3l1.3-3.5c0.1-0.1,0.2-0.2,0.3-0.2l19.1,7.1
						c0.1,0.1,0.2,0.2,0.2,0.3l-1.3,3.5c0,0.1-0.1,0.2-0.2,0.2l-2.6,0.4l-1.7,2.6c0,0.1-0.1,0.1-0.2,0.1c-1.2,0.2-2.4,0.1-3.5-0.3
						C29.8,126.6,29.7,126.6,29.6,126.5z M26.8,123.9c0,0,0.1,0,0.1,0.1c0.6,0.7,1.6,1.6,3.2,2.1c1,0.3,2.1,0.4,3.1,0.3l1.7-2.6
						c0-0.1,0.1-0.1,0.2-0.1l2.5-0.4l1.2-3.1l-18.6-7l-1.2,3.1l1.7,2c0,0.1,0.1,0.1,0.1,0.2l-0.4,3.1c0.8,0.8,1.8,1.4,2.8,1.8l0,0
						c1.1,0.4,2.3,0.6,3.5,0.5C26.7,123.9,26.7,123.9,26.8,123.9z"/>
				</g>
				<g>
					<path class="st1" d="M36.6,117.8c6.4-17.2,20.1-54.1,21.7-58.5c2.1-5.7,1.8-16.1,1.7-17.2c-0.1-1.1-0.1-3.4-1.5-3.9
						c-1.3-0.5-2.8,1.2-3.6,2s-7.8,8.5-9.9,14.2c-1.4,3.9-21.7,58.4-21.7,58.4H20l19.1,7.1L36.6,117.8z"/>
					<path class="st0" d="M38.9,120.3l-19.1-7.1c-0.2-0.1-0.3-0.3-0.3-0.5s0.2-0.4,0.4-0.4h3l21.6-58.2c2.2-5.8,9.3-13.7,10-14.3
						c0.1-0.1,0.2-0.2,0.3-0.3c0.9-0.9,2.4-2.3,3.8-1.8c1.4,0.5,1.6,2.5,1.7,3.8c0,0.2,0,0.3,0,0.4c0.1,1,0.4,11.6-1.7,17.4
						L37,117.5l2.3,1.9c0.2,0.1,0.2,0.4,0.1,0.5S39.1,120.4,38.9,120.3z M22.4,113.3l14.6,5.4l-0.6-0.5c-0.1-0.1-0.2-0.3-0.1-0.5
						L58,59.2c2.1-5.7,1.8-16.1,1.7-17c0-0.1,0-0.3,0-0.5c-0.1-1-0.2-2.7-1.1-3.1c-0.9-0.3-2.1,0.9-2.9,1.6
						c-0.1,0.1-0.2,0.2-0.3,0.3c-0.7,0.6-7.7,8.3-9.8,14l-21.7,58.4c-0.1,0.2-0.2,0.3-0.4,0.3L22.4,113.3z"/>
				</g>
				<g>
					<g>
						<path class="st0" d="M50.5,56.7L50.5,56.7c-0.5-0.2-0.7-0.7-0.6-1.1l0.1-0.2c0.2-0.4,0.6-0.6,1-0.5h0.1c0.4,0.2,0.6,0.6,0.5,1
							l-0.1,0.2C51.4,56.7,51,56.9,50.5,56.7z"/>
					</g>
					<g>
						<path class="st0" d="M52.7,57.5L52.7,57.5c-0.5-0.2-0.7-0.7-0.6-1.1l0.1-0.2c0.2-0.4,0.6-0.6,1-0.5h0.1c0.4,0.2,0.6,0.6,0.5,1
							l-0.1,0.2C53.6,57.4,53.1,57.7,52.7,57.5z"/>
					</g>
				</g>
				<g>
					<path class="st0" d="M60,44.4c0-1.2,0-2-0.1-2.3c-0.1-1.1-0.1-3.4-1.5-3.9c-1.3-0.5-2.8,1.2-3.6,2c-0.2,0.2-0.8,0.8-1.6,1.7
						c0,0,0.7,0.1,1.6,0.3l-0.1,0.2c-0.1,0.2,0,0.4,0.2,0.4L58,44c0.2,0.1,0.4,0,0.4-0.2l0.1-0.2C59.4,44.1,60,44.4,60,44.4z"/>
				</g>
				<g>
					<path class="st0" d="M50.9,45.2v-0.7c1.7,0,3.5,0.3,5.1,0.9c1.6,0.6,3,1.5,4.2,2.6l-0.5,0.6c-1.2-1.1-2.5-1.9-4-2.4
						C54.2,45.5,52.6,45.2,50.9,45.2z"/>
				</g>
				<g>
					<path class="st0" d="M57.2,46.3l0.5-1.4c0.1-0.2,0-0.4-0.2-0.4l-2.3-0.9c-0.2-0.1-0.4,0-0.4,0.2l-0.5,1.4
						c0.5,0.1,1,0.3,1.6,0.5C56.4,45.9,56.8,46.1,57.2,46.3z"/>
				</g>
				<g>
					<ellipse transform="matrix(0.3477 -0.9376 0.9376 0.3477 -5.4682 81.7375)" class="st1" cx="56" cy="44.8" rx="0.3" ry="0.3"/>
				</g>
				<g>
					
						<ellipse transform="matrix(0.3477 -0.9376 0.9376 0.3477 -5.2568 82.7233)" class="st1" cx="56.8" cy="45.1" rx="0.3" ry="0.3"/>
				</g>
				<g>
					
						<ellipse transform="matrix(0.3477 -0.9376 0.9376 0.3477 -5.7829 80.7715)" class="st1" cx="55.2" cy="44.5" rx="0.3" ry="0.3"/>
				</g>
				<g>
					
						<rect x="18.4" y="80.2" transform="matrix(0.3478 -0.9376 0.9376 0.3478 -47.6941 92.6322)" class="st0" width="48.6" height="0.7"/>
				</g>
				<g>
					<polygon class="st2" points="30.9,122.8 24.3,120.4 27.3,115.6 31.8,117.2 					"/>
				</g>
				<g>
					<path class="st0" d="M23.3,118.9C23.2,118.9,23.2,118.9,23.3,118.9l-3.4-3.3c-0.1-0.1-0.1-0.1-0.1-0.2s0-0.2,0.1-0.2l2.3-1.6
						c0.1-0.1,0.2-0.1,0.3,0L26,115c0.1,0,0.1,0.1,0.2,0.2c0,0.1,0,0.2,0,0.2l-2.5,3.5c0,0.1-0.1,0.1-0.2,0.1
						C23.3,119,23.3,119,23.3,118.9z M20.5,115.5l2.8,2.8l2.1-3l-3-1.2L20.5,115.5z"/>
				</g>
				<g>
					<path class="st1" d="M35.8,105.2c0.5-0.5,1.2-0.7,1.8-0.5l2.3,0.9c0.7,0.3,1.5,1.3,1.7,2.7c0.2,1.4-0.1,4.7-1.3,8.1
						c-1.3,3.4-1.3,3.5-1.3,3.5l-8.2-3c0,0,3.1-8.4,3.6-9.7C34.8,106.5,35.3,105.8,35.8,105.2z"/>
					<path class="st0" d="M38.9,120.3l-8.2-3c-0.2-0.1-0.3-0.3-0.3-0.6L34,107c0.2-0.6,0.7-1.3,1.4-2.1c0.6-0.6,1.5-0.9,2.3-0.6
						l2.3,0.9c0.8,0.3,1.8,1.4,2,3c0.2,1.7-0.2,5-1.4,8.3l-1.3,3.5C39.4,120.3,39.1,120.4,38.9,120.3z M31.4,116.7l7.4,2.7l1.2-3.1
						c1.3-3.5,1.5-6.6,1.3-7.9c-0.2-1.2-0.9-2.1-1.5-2.4l-2.3-0.9c-0.5-0.2-1,0-1.4,0.3c-0.6,0.7-1,1.3-1.2,1.8L31.4,116.7z"/>
				</g>
				<g>
					<g>
						<path class="st1" d="M27.2,116.3c0.7,0.1,1.5,0.4,2.2,0.6c0.7,0.3,1.4,0.5,2.1,0.9c-0.7-0.1-1.5-0.4-2.2-0.6
							C28.5,117,27.8,116.7,27.2,116.3C27.9,116.4,27.8,116.7,27.2,116.3z"/>
					</g>
					<g>
						<path class="st1" d="M26.5,117.5c0.8,0.2,1.6,0.4,2.4,0.7c0.8,0.3,1.6,0.6,2.3,1c-0.8-0.1-1.6-0.4-2.4-0.7
							C28,118.2,27.2,117.9,26.5,117.5C27.1,117.6,26.8,117.6,26.5,117.5z"/>
					</g>
					<g>
						<path class="st1" d="M25.8,118.6c0.7,0.1,1.4,0.4,2,0.6c0.7,0.2,1.3,0.5,2,0.8c0.4,0.2,0.7,0.3,1.1,0.5
							c-0.7-0.1-1.3-0.4-2-0.6s-1.3-0.5-2-0.8C26.5,119,26.2,118.8,25.8,118.6C26.5,118.7,26.1,118.8,25.8,118.6z"/>
					</g>
					<g>
						<path class="st1" d="M25.2,119.7c0.7,0.2,1.5,0.4,2.2,0.6c0.7,0.3,1.5,0.5,2.2,0.8c0.4,0.2,0.8,0.3,1.2,0.6
							c-0.7-0.2-1.5-0.4-2.2-0.6c-0.7-0.3-1.5-0.5-2.2-0.8C25.9,120.1,25.5,119.9,25.2,119.7C25.9,119.9,25.5,119.9,25.2,119.7z"/>
					</g>
					<g>
						<path class="st1" d="M24.5,120.9c0.8,0.2,1.6,0.4,2.4,0.7c0.8,0.3,1.5,0.6,2.3,0.9c0.4,0.2,0.9,0.4,1.3,0.6
							c-0.8-0.2-1.6-0.4-2.4-0.7c-0.8-0.3-1.5-0.6-2.3-0.9C25.3,121.3,24.9,121.1,24.5,120.9C25.2,121,24.8,121,24.5,120.9z"/>
					</g>
				</g>
				<g>
					<g>
						<path class="st1" d="M22.8,114.1c0.5,0.2,0.9,0.6,1.4,0.9c0.4,0.3,0.8,0.7,1.1,1.1c-0.5-0.2-0.9-0.6-1.4-0.9
							C23.5,114.9,23.1,114.6,22.8,114.1C23.3,114.4,23.1,114.6,22.8,114.1z"/>
					</g>
					<g>
						<path class="st1" d="M22.2,114.7c0.5,0.3,1,0.6,1.5,1c0.4,0.4,0.9,0.7,1.2,1.2c-0.5-0.3-1-0.6-1.5-1
							C23,115.5,22.5,115.1,22.2,114.7C22.7,114.9,22.5,115.1,22.2,114.7z"/>
					</g>
					<g>
						<path class="st1" d="M21.5,115.2c0.6,0.3,1.1,0.7,1.6,1.1s1,0.8,1.3,1.3c-0.6-0.3-1.1-0.7-1.6-1.1
							C22.4,116.1,21.9,115.7,21.5,115.2C22.1,115.5,21.9,115.7,21.5,115.2z"/>
					</g>
					<g>
						<path class="st1" d="M20.9,115.8c0.6,0.3,1.2,0.8,1.7,1.2c0.5,0.4,1,0.9,1.5,1.4c-0.6-0.3-1.2-0.8-1.7-1.2
							C21.8,116.7,21.3,116.3,20.9,115.8C21.5,116.1,21.3,116.3,20.9,115.8z"/>
					</g>
					<g>
						<path class="st1" d="M20.3,116.3c0.7,0.4,1.3,0.8,1.9,1.3s1.1,0.9,1.6,1.5c-0.7-0.4-1.3-0.8-1.9-1.3S20.7,116.8,20.3,116.3
							C20.9,116.6,20.7,116.9,20.3,116.3z"/>
					</g>
				</g>
				<g>
					<g>
						<path class="st1" d="M35.9,119c-0.5,0.1-1,0.1-1.5,0.1s-1.1,0-1.6-0.2c0.5-0.1,1-0.1,1.5-0.1C34.8,118.8,35.4,118.8,35.9,119
							C35.4,119.1,35.4,118.9,35.9,119z"/>
					</g>
					<g>
						<path class="st1" d="M36.1,119.8c-0.6,0.1-1.1,0.1-1.7,0.1c-0.6,0-1.2-0.1-1.8-0.2c0.6-0.1,1.1-0.1,1.7-0.1
							C34.9,119.6,35.5,119.7,36.1,119.8C35.5,120,35.5,119.7,36.1,119.8z"/>
					</g>
					<g>
						<path class="st1" d="M36.2,120.7c-0.6,0.1-1.2,0.1-1.9,0.1c-0.6,0-1.3-0.1-1.9-0.2c0.6-0.1,1.2-0.1,1.9-0.1
							C34.9,120.5,35.6,120.5,36.2,120.7C35.6,120.8,35.6,120.5,36.2,120.7z"/>
					</g>
					<g>
						<path class="st1" d="M36.3,121.5c-0.7,0.1-1.4,0.1-2,0.1c-0.7,0-1.4-0.1-2.1-0.2c0.7-0.1,1.4-0.1,2-0.1
							C34.9,121.3,35.7,121.3,36.3,121.5C35.7,121.6,35.7,121.3,36.3,121.5z"/>
					</g>
					<g>
						<path class="st1" d="M36.5,122.3c-0.7,0.1-1.4,0.1-2.2,0.1s-1.5-0.1-2.3-0.2c0.7-0.1,1.4-0.1,2.2-0.1S35.7,122.1,36.5,122.3
							C35.7,122.4,35.8,122.1,36.5,122.3z"/>
					</g>
				</g>
				<g>
					<path class="st1" d="M20.3,121.4c0.7,0.5,1.5,0.9,2.3,1.3s1.7,0.6,2.5,0.8c0.4,0.1,0.9,0.1,1.3,0.2c-1.8,0.2-3.7-0.3-5.1-1.4
						C20.9,122,20.6,121.7,20.3,121.4z"/>
				</g>
				<g>
					<path class="st1" d="M27.1,123.9c0.7,0.5,1.5,0.9,2.3,1.3s1.7,0.6,2.5,0.8c0.4,0.1,0.9,0.1,1.3,0.2c-1.8,0.2-3.7-0.3-5.1-1.4
						C27.8,124.6,27.4,124.3,27.1,123.9z"/>
				</g>
				<g>
					<path class="st1" d="M34.4,103.4c-0.4-0.1-1.9,1.4-4.2,7.5c-1.7,4.5-6,18.3-5.5,18.7c0.6,0,6.4-13.3,8-17.8
						C34.9,105.7,34.8,103.5,34.4,103.4z"/>
					<path class="st0" d="M24.5,130c0,0-0.1,0-0.1-0.1c-0.3-0.2-0.6-0.5,1.8-8.3c1.2-4,2.7-8.6,3.6-10.9c1.9-5.2,3.7-8.1,4.7-7.7
						c0.2,0.1,0.7,0.3,0.4,2.4c-0.2,1.6-0.9,3.8-1.9,6.5c-0.8,2.3-2.7,6.7-4.4,10.6c-3.3,7.5-3.7,7.5-4,7.5
						C24.6,130,24.6,130,24.5,130z M34.2,103.9c-0.5,0.5-1.8,2.3-3.6,7.1c-1.4,3.8-4.2,12.7-5.2,16.6c1.8-3.6,5.5-12.2,6.9-16
						C34.1,106.8,34.3,104.6,34.2,103.9z"/>
				</g>
				<g>
					<path class="st1" d="M44.7,55.1C43.6,57,34.3,73.3,32.9,75.6c-1.3,2.2-2.6,6.5-9.9,9.7S11.9,90,10.4,90.7s-3.7,1.2-5.6,4.5
						c-1.3,2.3-2.1,3.8-2.4,4.6c-0.3,0.9-0.8,1.5,0.1,2.2s18,11.1,18,11.1l2.3,0.8L44.7,55.1z"/>
					<path class="st0" d="M22.7,114.3l-2.3-0.8h-0.1c-0.7-0.4-17.1-10.4-18.1-11.1c-1.1-0.8-0.7-1.6-0.4-2.3
						c0.1-0.1,0.1-0.3,0.2-0.4c0.3-0.9,1.2-2.5,2.4-4.7c1.7-2.9,3.6-3.7,5-4.3c0.3-0.1,0.5-0.2,0.7-0.3c0.6-0.3,1.5-0.7,3-1.3
						c2.1-0.9,5.2-2.2,9.6-4.1c6.1-2.7,7.9-6.2,9.1-8.5c0.2-0.4,0.4-0.8,0.6-1.1c1.4-2.3,10.8-18.7,11.8-20.5
						c0.1-0.2,0.4-0.3,0.6-0.2c0.2,0.1,0.3,0.3,0.2,0.5l-21.8,58.9C23.2,114.3,22.9,114.4,22.7,114.3z M20.8,112.7l1.8,0.7
						l19.9-53.6c-3.2,5.6-8.2,14.3-9.2,16c-0.2,0.3-0.4,0.7-0.6,1.1c-1.3,2.4-3.2,6-9.5,8.8c-4.4,2-7.5,3.3-9.6,4.1
						c-1.4,0.6-2.4,1-2.9,1.3c-0.2,0.1-0.5,0.2-0.8,0.3c-1.4,0.6-3.1,1.3-4.6,4c-1.6,2.7-2.2,4-2.4,4.6c-0.1,0.2-0.1,0.3-0.2,0.4
						c-0.3,0.7-0.3,0.9,0.1,1.2C3.5,102.2,14.9,109.1,20.8,112.7z"/>
				</g>
				<g>
					<g>
						<path class="st0" d="M3.9,98.2c2.3-3.3,5.6-4.3,7.1-5s5.2-1.9,12.5-5.2c7.3-3.2,9.3-8.4,10.7-10.6C35,76.1,39.8,65.2,44.3,56
							C42,60,34.2,73.5,33,75.6c-1.3,2.3-2.6,6.5-9.9,9.7S12,90,10.5,90.7s-3.7,1.2-5.6,4.5c-1.3,2.3-2.1,3.8-2.4,4.6
							c-0.2,0.5-0.5,0.9-0.4,1.4C2.4,100.4,3,99.4,3.9,98.2z"/>
					</g>
				</g>
				<g>
					<path class="st0" d="M11.9,106.8c4.5,2.8,9,5.5,9,5.5l2.3,0.8l1.2-3.3l-11.6-5.3L11.9,106.8z"/>
				</g>
				<g>
					<path class="st0" d="M10.3,106.9c0,0,0.1-0.1,0.2-0.4c0.1-0.2,0.3-0.6,0.5-1c0.1-0.2,0.2-0.4,0.3-0.6s0.2-0.5,0.3-0.7
						c0.2-0.5,0.5-1,0.8-1.5c0.1-0.3,0.3-0.5,0.4-0.8c0.1-0.3,0.3-0.5,0.4-0.8c0.3-0.5,0.5-0.9,0.7-1.3s0.4-0.7,0.5-0.9
						c0.1-0.2,0.2-0.4,0.2-0.4s0,0.1-0.1,0.4c-0.1,0.2-0.2,0.6-0.4,1s-0.3,0.9-0.5,1.4c-0.1,0.3-0.2,0.5-0.3,0.8s-0.2,0.5-0.3,0.8
						c-0.2,0.5-0.4,1.1-0.6,1.6c-0.1,0.3-0.2,0.5-0.3,0.7s-0.2,0.5-0.3,0.7c-0.2,0.4-0.3,0.7-0.4,1c-0.1,0.2-0.2,0.4-0.2,0.4
						L10.3,106.9z"/>
				</g>
				<g>
					<path class="st0" d="M7.5,102l-0.6,0.3c-0.4,0.2-0.7,0.5-1,0.9c1.2,0.8,2.7,1.7,4.2,2.6l1-2.1L7.5,102z"/>
				</g>
				<g>
					<path class="st0" d="M12.3,101.6l0.3-0.6c-0.5,0-1.1,0.1-1.6,0.1L12.3,101.6z"/>
				</g>
				<g>
					<path class="st0" d="M25.9,92.7c-1.7,3.7-4,7.6-9.1,8.1c-0.7,0.1-1.6,0.1-2.6,0.1l-0.5,1.3l11.8,4.8l19.2-51.9
						C43.3,57.9,27.6,89.1,25.9,92.7z"/>
				</g>
				<g>
					<path class="st0" d="M13.1,102.4l-0.6-0.3l-9.4-3.8c-0.2,0.4-0.3,0.7-0.5,1l9.2,4.2l0.7,0.3l12,5.5l0.7-2L13.1,102.4z"/>
				</g>
				<g>
					<g>
						<path class="st0" d="M49.5,52.7h-1.2c-0.1,0-0.1,0-0.2,0c-0.1,0-0.2-0.1-0.3-0.2c-0.1-0.1-0.1-0.3-0.1-0.5l0.7-1.9
							c0.1-0.3,0.5-0.5,0.7-0.5l2.5-0.7h0.1c0.8-1.3,1.6-2.6,2.4-3.9c0.1-0.1,0.3,0,0.3-0.1c0.1-0.2,0.1-0.6,0.3-0.8
							c1.5-2.3,3-4.4,4-5.7c-0.1,0-0.1-0.1-0.2-0.1c-1.3-0.5-2.8,1.2-3.6,2s-7.8,8.5-9.9,14.2c-1.4,3.9-21.7,58.4-21.7,58.4H20
							l3.3,1.2h3.3c0,0,20.2-54.5,21.7-58.4c0.3-0.9,0.8-1.9,1.4-3C49.5,52.7,49.5,52.7,49.5,52.7z"/>
					</g>
				</g>
				<g>
					<path class="st1" d="M47.6,57.5c-0.6-0.4-1.3-0.7-1.9-1c0.7,0.1,1.4,0.3,2.1,0.5C47.8,57.2,47.7,57.4,47.6,57.5z"/>
				</g>
				<g>
					<path class="st1" d="M43.3,69.3c-0.6-0.4-1.3-0.7-1.9-1c0.7,0.1,1.4,0.3,2.1,0.5C43.4,69,43.3,69.2,43.3,69.3z"/>
				</g>
				<g>
					<path class="st1" d="M38.9,81.1c-0.6-0.4-1.3-0.7-1.9-1c0.7,0.1,1.4,0.3,2.1,0.5C39,80.7,39,80.9,38.9,81.1z"/>
				</g>
				<g>
					<path class="st1" d="M34.5,92.8c-0.6-0.4-1.3-0.7-1.9-1c0.7,0.1,1.4,0.3,2.1,0.5C34.7,92.5,34.6,92.7,34.5,92.8z"/>
				</g>
				<g>
					<g>
						<path class="st0" d="M44.3,56.3c0.4-0.1,0.8-0.1,1.1-0.1c0.5,0,1,0,1.5,0.1c1,0.1,1.9,0.3,2.9,0.6c1.9,0.5,3.8,1.4,5.5,2.4
							c0.5,0.3,0.9,0.6,1.3,0.9c0.3,0.3,0.7,0.6,1,0.9c-0.7-0.5-1.4-0.9-2.2-1.2c-0.9-0.4-1.8-0.8-2.7-1.2c-1.8-0.7-3.7-1.4-5.6-1.9
							C46.2,56.6,45.2,56.4,44.3,56.3z"/>
					</g>
					<g>
						<path class="st0" d="M39.9,68c0.4-0.1,0.8-0.1,1.1-0.1c0.5,0,1,0,1.5,0.1c1,0.1,1.9,0.3,2.9,0.6c1.9,0.5,3.8,1.4,5.5,2.4
							c0.5,0.3,0.9,0.6,1.3,0.9c0.3,0.3,0.7,0.6,1,0.9c-0.7-0.5-1.4-0.9-2.2-1.2c-0.9-0.4-1.8-0.8-2.7-1.2c-1.8-0.7-3.7-1.4-5.6-1.9
							C41.8,68.4,40.9,68.2,39.9,68z"/>
					</g>
					<g>
						<path class="st0" d="M35.5,79.8c0.4-0.1,0.8-0.1,1.1-0.1c0.5,0,1,0,1.5,0.1c1,0.1,1.9,0.3,2.9,0.6c1.9,0.5,3.8,1.4,5.5,2.4
							c0.5,0.3,0.9,0.6,1.3,0.9c0.3,0.3,0.7,0.6,1,0.9c-0.7-0.5-1.4-0.9-2.2-1.2c-0.9-0.4-1.8-0.8-2.7-1.2c-1.8-0.7-3.7-1.4-5.6-1.9
							C37.4,80.1,36.5,79.9,35.5,79.8z"/>
					</g>
					<g>
						<path class="st0" d="M31.2,91.6c0.4-0.1,0.8-0.1,1.1-0.1c0.5,0,1,0,1.5,0.1c1,0.1,1.9,0.3,2.9,0.6c1.9,0.5,3.8,1.4,5.5,2.4
							c0.5,0.3,0.9,0.6,1.3,0.9c0.3,0.3,0.7,0.6,1,0.9c-0.7-0.5-1.4-0.9-2.2-1.2c-0.9-0.4-1.8-0.8-2.7-1.2c-1.8-0.7-3.7-1.4-5.6-1.9
							C33.1,91.9,32.1,91.7,31.2,91.6z"/>
					</g>
				</g>
				<g>
					<path class="st1" d="M27.6,101.4c0.2-0.7,0.5-1.3,0.7-2c0.7-1.8,1.3-3.5,2-5.3c0.8-2.3,1.7-4.5,2.5-6.8
						c0.9-2.4,1.8-4.9,2.7-7.3c0.9-2.5,1.9-5,2.8-7.5c1-2.5,1.9-5.1,2.9-7.6c0.9-2.5,1.9-5,2.8-7.5c0.2-0.6,0.5-1.2,0.7-1.8
						s0.5-1.2,0.7-1.8c0.5-1.2,1.2-2.3,1.9-3.4c1.3-2.1,2.8-4.2,4.4-6.2c0.8-1,1.5-1.9,2.3-2.8c0.7-0.8,1.5-1.6,2.4-2.4
						c0.3-0.3,0.7-0.5,1.1-0.7c-0.4,0.2-0.8,0.5-1.1,0.8c-0.4,0.4-0.8,0.8-1.2,1.2c-0.8,0.9-1.6,1.8-2.3,2.7c-1.6,2-3,4-4.4,6.1
						c-0.7,1.1-1.4,2.3-2,3.4c-0.3,0.6-0.6,1.2-0.9,1.8c-0.2,0.6-0.5,1.3-0.7,1.9c-0.9,2.5-1.9,5-2.8,7.6c-1,2.6-1.9,5.2-2.9,7.8
						c-0.9,2.6-1.9,5.1-2.8,7.7c-0.9,2.5-1.8,5-2.8,7.5c-0.9,2.3-1.7,4.6-2.6,6.9c-0.7,1.9-1.4,3.7-2.1,5.6
						c-0.2,0.5-0.4,1.1-0.6,1.6c-0.1,0.1-0.1,0.3-0.2,0.4c0,0,0,0.2-0.1,0.2c0,0-0.1,0-0.2-0.1C27.8,101.5,27.7,101.4,27.6,101.4z"
						/>
				</g>
				<g>
					<path class="st1" d="M32.1,103.9c0-0.7-0.5-1.3-1.1-1.5l-2.3-0.9c-0.7-0.3-2,0-3.1,0.9c-1.1,1-3,3.6-4.2,7
						c-1.3,3.4-1.3,3.5-1.3,3.5l8.2,3c0,0,3.1-8.4,3.6-9.7C32,105.5,32.1,104.6,32.1,103.9z"/>
					<path class="st0" d="M28,116.3l-8.2-3c-0.2-0.1-0.3-0.3-0.3-0.6l1.3-3.5c1.2-3.2,3.1-6.1,4.4-7.2s2.7-1.3,3.5-1l2.3,0.9
						c0.8,0.3,1.4,1.1,1.4,1.9c0,1-0.1,1.8-0.3,2.5l-3.6,9.7C28.5,116.3,28.3,116.4,28,116.3z M20.5,112.6l7.4,2.7l3.5-9.3
						c0.2-0.5,0.3-1.3,0.3-2.1c0-0.5-0.3-1-0.8-1.2l-2.3-0.9c-0.6-0.2-1.7,0-2.6,0.8c-1,0.8-2.8,3.3-4.1,6.8L20.5,112.6z"/>
				</g>
				<g>
					<path class="st1" d="M40.6,62.7c-0.5,1-1,1.9-1.5,2.9c-0.8,1.5-1.6,3-2.4,4.5c-0.8,1.6-1.6,3.1-2.4,4.7
						c-0.4,0.8-0.9,1.6-1.3,2.4c-0.4,0.8-0.8,1.6-1.4,2.4c-1,1.4-2.2,2.7-3.6,3.7s-2.9,1.9-4.4,2.6c-1.6,0.8-3.3,1.5-4.9,2.2
						c-1.7,0.7-3.3,1.4-5,2.1c-0.8,0.3-1.7,0.7-2.5,1c-0.4,0.2-0.8,0.4-1.2,0.5c-0.4,0.2-0.8,0.3-1.2,0.5C8,92.5,7.3,93,6.6,93.5
						c-0.6,0.5-1.1,1-1.5,1.6c-0.2,0.2-0.3,0.5-0.5,0.7c0.7-1.2,1.6-2.3,2.8-3.1c0.7-0.5,1.5-0.9,2.3-1.2c0.8-0.3,1.5-0.7,2.3-1
						c1.6-0.7,3.2-1.4,4.8-2c1.6-0.7,3.3-1.4,4.9-2.1s3.1-1.4,4.6-2.3c1.4-0.9,2.7-1.9,3.8-3.2c0.6-0.6,1.1-1.4,1.6-2.1
						c0.5-0.8,0.9-1.6,1.3-2.4c0.8-1.5,1.7-3.1,2.5-4.6s1.6-2.9,2.5-4.4c0.8-1.4,1.6-2.7,2.4-4.1C40.4,63.1,40.5,62.9,40.6,62.7z"/>
				</g>
				<g>
					<path class="st1" d="M53.8,46c-0.6-0.3-1.2-0.5-1.9-0.7c0.7,0,1.4,0.1,2.1,0.2C53.9,45.7,53.8,45.9,53.8,46z"/>
				</g>
				<g>
					<path class="st0" d="M21.2,112.3l6.4,2.4l0.7-1.8c-1.3-0.9-3.5-2.8-2.9-5.3s1.6-4.1,2.5-5.3c-0.4,0-1.1,0.2-1.7,0.8
						c-0.9,0.8-2.7,3.2-4,6.6L21.2,112.3z"/>
				</g>
				<g>
					<path class="st0" d="M38.4,106.2C38.4,106.2,38.4,106.1,38.4,106.2l-1.1-0.5c-0.3-0.1-0.6,0-0.8,0.2c-0.5,0.6-0.9,1.2-1.1,1.6
						l-3.3,8.8l1.7,0.6c0.8-2.2,2.9-7.8,3.3-8.8C37.3,107.4,37.9,106.7,38.4,106.2z"/>
				</g>
				<g>
					<path class="st0" d="M49,50.2l-0.7,1.9h1.2c0.2,0,0.3-0.1,0.3-0.2l0.2-0.5c0.1-0.2,0-0.3-0.1-0.4L49,50.2z"/>
				</g>
				<g>
					<path class="st0" d="M51.8,49.4l-2.6,0.7l0.9,0.7c0.1,0.1,0.2,0.1,0.3,0.1l0.8-0.3c0.1,0,0.2-0.1,0.3-0.2L51.8,49.4z"/>
				</g>
				<g>
					<path class="st0" d="M56.4,53.7l-0.2,0.6c-0.1,0.1,0,0.3,0.1,0.4l0.9,0.8l0.7-1.9l-1.2-0.1C56.6,53.5,56.5,53.6,56.4,53.7z"/>
				</g>
				<g>
					<path class="st0" d="M57.8,53.2l-1.5-2.1L55.9,52c0,0.1,0,0.2,0,0.3l0.4,0.6c0.1,0.1,0.2,0.2,0.3,0.2L57.8,53.2z"/>
				</g>
				<g>
					<path class="st0" d="M51.9,51.2l3.2,1.2c0.2,0.1,0.4,0,0.5-0.2l0,0l0.6-1.4c-0.2-0.2-0.9-0.8-1.8-1.2c-0.9-0.3-1.9-0.3-2.2-0.3
						l-0.5,1.4l0,0C51.6,50.9,51.7,51.1,51.9,51.2z"/>
				</g>
				<g>
					<path class="st0" d="M30.2,110.8c-1.7,4.5-6,18.3-5.5,18.7l9.7-26.2C34,103.2,32.4,104.7,30.2,110.8z"/>
				</g>
				<g>
					<g>
						
							<ellipse transform="matrix(0.3477 -0.9376 0.9376 0.3477 -2.0848 80.9263)" class="st1" cx="57.1" cy="42" rx="0.7" ry="0.4"/>
					</g>
					<g>
						<path class="st1" d="M56.4,41C56.4,40.9,56.4,40.9,56.4,41c-0.2-0.1-0.5,0.1-0.7,0.5s-0.2,0.7,0,0.8s0.5-0.1,0.7-0.5
							S56.6,41,56.4,41z"/>
					</g>
					<g>
						<path class="st1" d="M58.4,41.7L58.4,41.7c-0.2-0.1-0.5,0.2-0.5,0.6c-0.1,0.4,0,0.7,0.2,0.8l0,0c0.1,0,0.2,0,0.3-0.1
							s0.2-0.3,0.2-0.5C58.7,42.1,58.6,41.7,58.4,41.7z"/>
					</g>
				</g>
			</g>
		</g>
	</g>
	<g class="st3">
		<path d="M47.9,137.9l0.5-5.8l32.6-88c0-0.1,0.1-0.2,0.1-0.3l0.5-12.3c0-0.9-0.5-1.6-1.3-1.9s-1.7-0.1-2.2,0.6l-7.3,9.1l4.3-11.7
			c3.8-10.3,0.6-21.8-1-26.1c-0.2-0.6-0.7-1.1-1.3-1.3c-0.6-0.2-1.3-0.2-1.9,0.2c-4.1,2.3-14,9-17.8,19.1L48.9,31l0.4-11.6
			c0-0.9-0.5-1.6-1.3-1.9s-1.7-0.1-2.2,0.6l-7.7,9.7C38,27.9,38,28,37.9,28.1L5.2,116l-3.4,4.8c-0.2,0.2-0.2,0.5-0.2,0.8
			s0.2,0.5,0.4,0.7c1.8,1.3,3.8,2.3,5.9,3l0.2,0.1c2,0.7,4.1,1.2,6.2,1.4c0.3,0,0.6-0.1,0.8-0.2c0.2-0.2,0.4-0.4,0.4-0.7l0.5-5.8
			l3.7-10.1l21.4,8l-3.7,10.1l-3.4,4.8c-0.2,0.2-0.2,0.5-0.2,0.8s0.2,0.5,0.4,0.7c1.8,1.3,3.8,2.3,5.9,3l0.2,0.1
			c2,0.7,4.1,1.2,6.2,1.4c0.3,0,0.6-0.1,0.8-0.2C47.7,138.5,47.8,138.2,47.9,137.9z"/>
		<g>
			<g>
				<g>
					<path d="M53.8,19.5c-4.7,12.7-33.3,90-33.3,90l20.7,7.8c0,0,28.4-76.5,33.3-90c3.7-10.2,0.5-21.4-1-25.7
						c-0.3-0.9-1.4-1.3-2.3-0.8C67.4,3,57.5,9.5,53.8,19.5z"/>
				</g>
				<g>
					<path d="M71.2,1.5c0,0-0.4,0.3-1.1,0.8s-1.7,1.3-3,2.3s-2.8,2.3-4.4,4c-1.6,1.6-3.3,3.6-4.8,6c-0.7,1.2-1.5,2.5-2.1,3.8
						c-0.2,0.3-0.3,0.7-0.4,1c-0.1,0.4-0.3,0.7-0.4,1.1c-0.3,0.7-0.5,1.5-0.8,2.2c-1.1,3-2.3,6.2-3.5,9.6c-0.6,1.6-1.2,3.3-1.9,5
						c-0.6,1.7-1.3,3.4-1.9,5.1c-1.3,3.5-2.6,7-3.9,10.6c-2.6,7-5.3,14.2-7.8,20.7c-2.5,6.6-4.8,12.8-6.8,18.1
						c-4,10.6-6.6,17.7-6.6,17.7s2.6-7.1,6.4-17.7c1.9-5.3,4.2-11.6,6.6-18.2c2.4-6.6,5-13.8,7.7-20.8c1.3-3.5,2.6-7,3.9-10.6
						c0.6-1.7,1.3-3.5,1.9-5.2c0.6-1.7,1.2-3.4,1.9-5c1.2-3.3,2.4-6.5,3.5-9.6c0.3-0.8,0.6-1.5,0.8-2.2c0.1-0.4,0.3-0.7,0.4-1.1
						c0.1-0.4,0.3-0.7,0.5-1.1c0.3-0.7,0.7-1.4,1-2c0.4-0.6,0.7-1.3,1.1-1.9c0.8-1.2,1.6-2.3,2.4-3.3c0.8-1,1.7-1.9,2.5-2.7
						c1.6-1.6,3.2-2.9,4.5-3.9S69.3,2.5,70,2C70.8,1.8,71.2,1.5,71.2,1.5z"/>
				</g>
				<g>
					<path d="M73.2,1.9c0,0,0.1,0.5,0.4,1.3c0.2,0.9,0.6,2.1,0.9,3.7s0.7,3.6,0.9,5.9c0.1,1.1,0.1,2.4,0.1,3.7
						c0,1.3-0.1,2.7-0.3,4.1c-0.1,0.7-0.2,1.4-0.4,2.1c-0.2,0.7-0.3,1.5-0.6,2.2c-0.1,0.4-0.2,0.7-0.4,1.1c-0.1,0.4-0.3,0.7-0.4,1.1
						c-0.3,0.7-0.5,1.5-0.8,2.2c-1.1,3-2.3,6.2-3.5,9.6c-0.6,1.7-1.2,3.3-1.9,5c-0.6,1.7-1.3,3.4-1.9,5.2c-1.3,3.5-2.6,7-3.9,10.6
						c-2.6,7-5.3,14.2-7.9,20.8C51,87.4,48.7,93.7,46.6,99c-4,10.7-6.6,17.7-6.6,17.7s2.6-7.1,6.4-17.8c1.9-5.3,4.2-11.6,6.6-18.2
						c2.4-6.6,5-13.8,7.7-20.9c1.3-3.5,2.6-7.1,3.9-10.6c0.6-1.7,1.3-3.5,1.9-5.2s1.3-3.4,1.9-5c1.2-3.3,2.4-6.5,3.6-9.6
						c0.3-0.8,0.6-1.5,0.8-2.2c0.1-0.4,0.3-0.7,0.4-1.1c0.1-0.4,0.2-0.7,0.4-1.1c0.4-1.4,0.7-2.9,0.9-4.3c0.4-2.8,0.4-5.4,0.3-7.7
						c-0.1-2.3-0.4-4.3-0.7-5.9c-0.3-1.6-0.6-2.9-0.8-3.7C73.3,2.4,73.2,1.9,73.2,1.9z"/>
				</g>
				<g>
					<path d="M72,1.1c0,0,0,0.1-0.1,0.3c0,0.2-0.1,0.6-0.2,1s-0.2,1-0.3,1.6c-0.1,0.3-0.1,0.6-0.2,1S71.1,5.8,71,6.2
						c0,0.9-0.2,1.7-0.4,2.7s-0.5,2-0.7,3.1c-0.1,0.5-0.3,1.1-0.4,1.7c-0.2,0.6-0.3,1.2-0.5,1.8c-0.1,0.3-0.2,0.6-0.3,0.9
						c-0.1,0.3-0.2,0.6-0.3,0.9c-0.1,0.3-0.2,0.6-0.3,1c-0.1,0.3-0.2,0.7-0.3,1c-0.2,0.7-0.4,1.3-0.7,2c-0.1,0.2-0.1,0.3-0.2,0.5
						s-0.1,0.3-0.2,0.5c-0.1,0.3-0.2,0.7-0.4,1.1c-0.5,1.4-1,2.9-1.6,4.4c-0.3,0.7-0.6,1.5-0.8,2.3c-0.3,0.8-0.6,1.5-0.9,2.3
						c-0.6,1.6-1.2,3.2-1.8,4.8c-1.2,3.3-2.5,6.6-3.8,10.2C56,51,54.7,54.5,53.4,58c-2.6,6.9-5.2,14-7.8,20.5
						c-2.5,6.5-4.8,12.7-6.7,17.9c-2,5.2-3.6,9.6-4.8,12.7c-1.2,3-1.8,4.8-1.8,4.8s0.6-1.7,1.7-4.8c1.1-3.1,2.7-7.5,4.6-12.8
						c1.9-5.2,4.1-11.4,6.5-18c2.4-6.5,4.9-13.6,7.6-20.6c1.3-3.5,2.6-7,3.8-10.5c1.3-3.4,2.5-6.8,3.7-10.2c0.6-1.6,1.2-3.2,1.8-4.8
						c0.3-0.8,0.6-1.6,0.9-2.3c0.3-0.8,0.6-1.5,0.9-2.3c0.6-1.5,1.1-2.9,1.6-4.3s1-2.8,1.4-4.1c0.1-0.3,0.2-0.7,0.3-1
						c0.1-0.3,0.2-0.6,0.3-1c0.1-0.3,0.2-0.6,0.3-0.9c0.1-0.3,0.2-0.6,0.3-0.9c0.2-0.6,0.4-1.2,0.5-1.8c0.2-0.6,0.3-1.1,0.5-1.7
						c0.3-1.1,0.6-2.1,0.9-3c0.3-0.9,0.5-1.8,0.7-2.6c0.2-0.8,0.4-1.5,0.5-2.1c0.3-0.6,0.4-1.2,0.5-1.6s0.2-0.7,0.2-1
						C72,1.2,72,1.1,72,1.1z"/>
				</g>
				<g>
					<path d="M68.3,24.6c-4.7,12.7-33.4,90.2-33.4,90.2l3,1.1c0,0,28.5-76.7,33.4-90.2c4.1-11.1,1.3-24.6,1.3-24.3
						C72.5,5.7,72.3,13.6,68.3,24.6z"/>
				</g>
			</g>
			<g>
				<g>
					<path d="M15.1,119.9l32.7-88.1l0.5-12.3c0-0.9-1.1-1.3-1.7-0.6L39,28.5l-32.8,88l-3.5,4.9c1.4,1,3.3,2.1,5.8,3
						c2.3,0.8,4.4,1.2,6,1.4C14.7,123.8,14.9,121.9,15.1,119.9z"/>
					<path d="M8.2,124.8c-2-0.7-3.9-1.7-5.7-3c-0.1-0.1-0.2-0.2-0.2-0.3c0-0.1,0-0.2,0.1-0.3l3.5-4.8l32.6-88.1c0,0,0-0.1,0.1-0.1
						l7.7-9.7c0.4-0.5,1-0.6,1.5-0.4c0.6,0.2,0.9,0.7,0.9,1.3l-0.5,12.3v0.1l-32.6,88.1l-0.5,5.9c0,0.1-0.1,0.2-0.2,0.3
						c-0.1,0.1-0.2,0.1-0.3,0.1c-2.1-0.2-4.1-0.7-6.1-1.4C8.3,124.8,8.3,124.8,8.2,124.8z M3.2,121.4c1.6,1.1,3.4,2,5.2,2.6
						c0.1,0,0.1,0,0.2,0.1c1.8,0.6,3.6,1.1,5.5,1.3l0.5-5.5v-0.1l32.6-88.1l0.5-12.3c0-0.3-0.2-0.5-0.3-0.5s-0.4-0.1-0.6,0.2
						l-7.7,9.6l-32.7,88c0,0,0,0.1-0.1,0.1L3.2,121.4z"/>
				</g>
				<g>
					<path d="M41.4,29.3l6.1-10.9c-0.3-0.1-0.7,0-1,0.3l-7.7,9.7L6.2,116.5l-3.5,4.9l3.2,1.9l2.8-5.8L41.4,29.3z"/>
				</g>
				<g>
					<path d="M47,19c-0.3,0.4-0.6,0.8-0.9,1.2l-0.9,1.2l-0.9,1.2l-0.9,1.3l-1.8,2.4l-1.8,2.4v-0.1c-0.7,1.8-1.3,3.7-2,5.5l-2,5.5
						l-1,2.7l-1,2.7l-2,5.5l-4.1,11l-2,5.5l-1,2.7l-1,2.7l-8.2,22.1c-0.7,1.8-1.4,3.6-2,5.5l-2,5.5c-0.7,1.8-1.4,3.6-2.1,5.5
						c-0.7,1.8-1.4,3.6-2.1,5.4l0,0l0,0l-1,1.3l-0.9,1.2l-0.9,1.2l-1,1.2l0.8-1.2l0.8-1.2l0.8-1.2l0.9-1.2l0,0
						c0.6-1.8,1.3-3.7,2-5.5s1.3-3.7,2-5.5l2-5.5c0.7-1.8,1.3-3.7,2-5.5l8.2-22.1l1-2.7l1-2.7l2-5.5l4-11l2-5.5l1-2.7l1-2.7l2-5.5
						c0.7-1.8,1.4-3.6,2.1-5.5l0,0c0,0,0,0,0-0.1l1.9-2.4l1.9-2.4l0.9-1.2l1-1.2l1-1.2C46.3,19.7,46.7,19.3,47,19z"/>
				</g>
				<g>
					<path d="M47.4,19.1c0,0.5,0,1-0.1,1.5c0,0.5,0,1-0.1,1.5c0,0.5-0.1,1-0.1,1.5L47,25.1c0,0.5-0.1,1-0.1,1.5l-0.1,1.5l-0.2,3v0.1
						l0,0l-1,2.7c-0.3,0.9-0.7,1.8-1,2.7l-2,5.5l-1,2.7l-1,2.7l-2,5.5l-4.1,11l-2,5.5l-1,2.7l-1,2.7l-4,11l-2,5.5l-2,5.5
						c-0.7,1.8-1.4,3.6-2,5.5l-2.1,5.5c-0.7,1.8-1.4,3.6-2.1,5.4c-0.4,0.9-0.7,1.8-1.1,2.7c-0.4,0.9-0.7,1.8-1.1,2.7v-0.1l-0.1,1.4
						l-0.1,1.4l-0.1,1.4c0,0.5-0.1,0.9-0.1,1.4c0-0.5,0-0.9-0.1-1.4v-1.4v-1.4v-1.4c0,0,0,0,0-0.1l0,0c0.3-0.9,0.6-1.8,0.9-2.8
						c0.3-0.9,0.6-1.8,1-2.8c0.6-1.8,1.3-3.7,2-5.5l2-5.5c0.7-1.8,1.3-3.7,2-5.5l2-5.5l2-5.5l4.1-11l1-2.7l1-2.7l2-5.5l4-11.1l2-5.5
						l1-2.7l1-2.7l2.1-5.5c0.3-0.9,0.7-1.8,1-2.7l1-2.7v0.1l0.3-3l0.2-1.5c0.1-0.5,0.1-1,0.2-1.5l0.2-1.5c0.1-0.5,0.1-1,0.2-1.5
						c0.1-0.5,0.1-1,0.2-1.5C47.3,20.1,47.4,19.6,47.4,19.1z"/>
				</g>
				<g>
					<path d="M36.1,36.5c1.2-0.1,2.5,0,3.6,0.3c1.3,0.4,2.6,0.9,3.8,1.7c0.5,0.3,1,0.7,1.4,1.2c-1.1-0.3-2.2-0.7-3.4-1.2
						s-2.5-0.9-3.7-1.4C37.2,37,36.6,36.7,36.1,36.5z"/>
				</g>
				<g>
					<path d="M32.3,46.5c1.2-0.1,2.5,0,3.6,0.3c1.3,0.4,2.6,0.9,3.8,1.7c0.5,0.3,1,0.7,1.4,1.2c-1.1-0.3-2.2-0.7-3.4-1.2
						c-1.2-0.5-2.5-0.9-3.7-1.4C33.4,47,32.8,46.8,32.3,46.5z"/>
				</g>
				<g>
					<path d="M25.1,66c1.2-0.1,2.5,0,3.6,0.3c1.3,0.4,2.6,0.9,3.8,1.7c0.5,0.3,1,0.7,1.4,1.2c-1.1-0.3-2.2-0.7-3.4-1.2
						c-1.2-0.5-2.5-0.9-3.7-1.4C26.2,66.5,25.7,66.2,25.1,66z"/>
				</g>
				<g>
					<path d="M6.7,115.7c1.1,0.3,2.2,0.7,3.4,1.2s2.5,0.9,3.7,1.4c0.6,0.2,1.2,0.4,1.7,0.7c-0.5,0.1-1,0.1-1.5,0
						c-0.7-0.1-1.4-0.2-2-0.3c-1.3-0.3-2.6-0.9-3.8-1.7C7.6,116.6,7.1,116.2,6.7,115.7z"/>
				</g>
				<g>
					<path d="M7.5,113.5c1.1,0.3,2.2,0.7,3.4,1.2s2.5,0.9,3.7,1.4c0.6,0.2,1.2,0.4,1.7,0.7c-0.5,0.1-1,0.1-1.5,0
						c-0.7-0.1-1.4-0.2-2-0.3c-1.3-0.3-2.6-0.9-3.8-1.7C8.4,114.3,7.9,113.9,7.5,113.5z"/>
				</g>
				<g>
					<path d="M8.3,111.2c1.1,0.3,2.2,0.7,3.4,1.2s2.5,0.9,3.7,1.4c0.6,0.2,1.2,0.4,1.7,0.7c-0.5,0.1-1,0.1-1.5,0
						c-0.7-0.1-1.4-0.2-2-0.3c-1.3-0.3-2.6-0.9-3.8-1.7C9.3,112.1,8.8,111.7,8.3,111.2z"/>
				</g>
				<g>
					<path d="M44.5,40.5c-1.3-0.8-2.7-1.5-4.1-2c-1.5-0.5-3-1-4.5-1.2l0.1-0.8c1.6,0.3,3.2,0.7,4.7,1.2s2.9,1.2,4.2,2.1L44.5,40.5z"
						/>
				</g>
				<g>
					<path d="M40.8,50.5c-1.3-0.8-2.7-1.5-4.1-2c-1.5-0.5-3-1-4.5-1.2l0.1-0.8c1.6,0.3,3.2,0.7,4.7,1.2c1.5,0.5,2.9,1.2,4.2,2.1
						L40.8,50.5z"/>
				</g>
				<g>
					<path d="M33.5,70c-1.3-0.8-2.7-1.5-4.1-2c-1.5-0.5-3-1-4.5-1.2L25,66c1.6,0.3,3.1,0.7,4.6,1.2c0,0,0,0,0.1,0
						c1.5,0.5,2.9,1.2,4.2,2.1L33.5,70z"/>
				</g>
				<g>
					<path d="M10.6,118.7c-1.5-0.6-3-1.3-4.4-2.1l0.4-0.7c1.4,0.8,2.8,1.5,4.3,2.1c1.5,0.5,3,0.9,4.5,1.2l-0.1,0.8
						C13.7,119.7,12.2,119.3,10.6,118.7L10.6,118.7z"/>
				</g>
				<g>
					<path d="M11.4,116.3c-1.5-0.6-3-1.3-4.4-2.1l0.4-0.7c1.3,0.8,2.8,1.5,4.2,2.1c0,0,0,0,0.1,0c1.5,0.5,3,0.9,4.5,1.2l-0.1,0.8
						C14.6,117.3,13,116.9,11.4,116.3C11.5,116.3,11.5,116.3,11.4,116.3z"/>
				</g>
				<g>
					<path d="M12.3,114c-1.5-0.6-3-1.3-4.4-2.1l0.4-0.7c1.3,0.8,2.8,1.5,4.2,2.1c0,0,0,0,0.1,0c1.5,0.5,3,0.9,4.5,1.2l-0.1,0.8
						C15.4,115,13.8,114.6,12.3,114C12.3,114.1,12.3,114.1,12.3,114z"/>
				</g>
				<path d="M9.9,106.4l-1.3,3.5c0,0,1.5,1.2,4.5,2.3c2.3,0.8,4.4,0.9,4.4,0.9l0.7-1.8L9.9,106.4z"/>
			</g>
			<g>
				<g>
					<path d="M47.3,131.9l32.7-88.1l0.5-12.3c0-0.9-1.1-1.3-1.7-0.6l-7.7,9.7l-32.7,88.1l-3.5,4.9c1.4,1,3.3,2.1,5.8,3
						c2.3,0.8,4.4,1.2,6,1.4C47,135.8,47.2,133.9,47.3,131.9z"/>
					<path d="M40.5,136.8c-2-0.7-3.9-1.7-5.7-3c-0.1-0.1-0.2-0.2-0.2-0.3s0-0.2,0.1-0.3l3.5-4.8l32.6-88.1c0,0,0-0.1,0.1-0.1
						l7.7-9.7c0.4-0.5,1-0.6,1.5-0.4c0.6,0.2,0.9,0.7,0.9,1.3l-0.5,12.3v0.1l-32.6,88.1l-0.5,5.9c0,0.1-0.1,0.2-0.2,0.3
						s-0.2,0.1-0.3,0.1c-2.1-0.2-4.1-0.7-6.1-1.4C40.6,136.8,40.6,136.8,40.5,136.8z M35.6,133.4c1.6,1.1,3.4,2,5.2,2.6
						c0.1,0,0.1,0,0.2,0.1c1.8,0.6,3.6,1.1,5.5,1.3l0.5-5.5v-0.1l32.6-88.1l0.5-12.3c0-0.3-0.2-0.5-0.3-0.5c-0.1,0-0.4-0.1-0.6,0.2
						l-7.7,9.6L39,128.7c0,0,0,0.1-0.1,0.1L35.6,133.4z"/>
				</g>
				<g>
					<path d="M73.7,41.3l6.1-10.9c-0.3-0.1-0.7,0-1,0.3l-7.7,9.7l-32.7,88.1l-3.5,4.9l3.2,1.9l2.8-5.8L73.7,41.3z"/>
				</g>
				<g>
					<path d="M79.4,30.8c-0.3,0.4-0.6,0.8-0.9,1.2l-0.9,1.2l-0.9,1.4l-0.9,1.2l-1.8,2.4l-1.8,2.4v-0.1c-0.7,1.8-1.3,3.7-2,5.5
						l-2,5.5l-1,2.7l-1,2.7l-2,5.5l-4.1,11l-2,5.5l-1,2.7l-1,2.7l-8.2,22.1c-0.7,1.8-1.4,3.6-2,5.5l-2,5.5c-0.7,1.8-1.4,3.6-2.1,5.5
						c-0.7,1.8-1.4,3.6-2.1,5.4l0,0l0,0l-0.9,1.2l-0.9,1.2l-0.9,1.2l-0.9,1.2l0.8-1.2l0.8-1.2l0.8-1.2l0.9-1.2l0,0
						c0.6-1.8,1.3-3.7,2-5.5s1.3-3.7,2-5.5l2-5.5c0.7-1.8,1.3-3.7,2-5.5l8.2-22.1l1-2.7l1-2.7l2-5.5l4-11l2-5.5l1-2.7l1-2.7l2-5.5
						c0.7-1.8,1.4-3.6,2.1-5.5l0,0c0,0,0,0,0-0.1l2-2.3l1.9-2.4l0.9-1.2l1-1.2l1-1.2C78.7,31.7,79,31.2,79.4,30.8z"/>
				</g>
				<g>
					<path d="M79.8,31c0,0.5,0,1-0.1,1.5c0,0.5,0,1-0.1,1.5s-0.1,1-0.1,1.5l-0.1,1.5c0,0.5-0.1,1-0.1,1.5l-0.1,1.5l-0.2,3v0.1l0,0
						L78,46c-0.3,0.9-0.7,1.8-1,2.7l-2,5.5l-1,2.7l-1,2.7l-2,5.5l-4,11.2l-2,5.5l-1,2.7l-1,2.7l-4,11l-2,5.5l-2,5.5
						c-0.7,1.8-1.4,3.6-2,5.5l-2.1,5.5c-0.7,1.8-1.4,3.6-2.1,5.4c-0.4,0.9-0.7,1.8-1.1,2.7c-0.4,0.9-0.7,1.8-1.1,2.7v-0.1l-0.1,1.4
						l-0.1,1.4l-0.1,1.4c0,0.5-0.1,0.9-0.1,1.4c0-0.5,0-0.9-0.1-1.4v-1.4v-1.4v-1.4c0,0,0,0,0-0.1l0,0c0.3-0.9,0.6-1.8,0.9-2.8
						c0.3-0.9,0.6-1.8,1-2.8c0.6-1.8,1.3-3.7,2-5.5l2-5.5c0.7-1.8,1.3-3.7,2-5.5l2-5.5l2-5.5l4.1-11l1-2.7l1-2.7l2-5.5l4-11.1l2-5.5
						l1-2.7l1-2.7l2.1-5.5c0.3-0.9,0.7-1.8,1-2.7l1-2.7v0.1l0.3-3l0.2-1.5c0.1-0.5,0.1-1,0.2-1.5l0.2-1.5c0.1-0.5,0.1-1,0.2-1.5
						s0.1-1,0.2-1.5C79.7,32.1,79.8,31.6,79.8,31z"/>
				</g>
				<g>
					<path d="M68.4,48.5c1.2-0.1,2.5,0,3.6,0.3c1.3,0.4,2.6,0.9,3.8,1.7c0.5,0.3,1,0.7,1.4,1.2c-1.1-0.3-2.2-0.7-3.4-1.2
						c-1.2-0.5-2.5-0.9-3.7-1.4C69.5,49,68.9,48.7,68.4,48.5z"/>
				</g>
				<g>
					<path d="M64.7,58.4c1.2-0.1,2.5,0,3.6,0.3c1.3,0.4,2.6,0.9,3.8,1.7c0.5,0.3,1,0.7,1.4,1.2c-1.1-0.3-2.2-0.7-3.4-1.2
						c-1.2-0.5-2.5-0.9-3.7-1.4C65.8,58.9,65.2,58.7,64.7,58.4z"/>
				</g>
				<g>
					<path d="M57.4,78c1.2-0.1,2.5,0,3.6,0.3c1.3,0.4,2.6,0.9,3.8,1.7c0.5,0.3,1,0.7,1.4,1.2c-1.1-0.3-2.2-0.7-3.4-1.2
						s-2.5-0.9-3.7-1.4C58.5,78.5,57.9,78.2,57.4,78z"/>
				</g>
				<g>
					<path d="M38.9,127.7c1.1,0.3,2.2,0.7,3.4,1.2s2.5,0.9,3.7,1.4c0.6,0.2,1.2,0.4,1.7,0.7c-0.5,0.1-1,0.1-1.5,0
						c-0.7-0.1-1.4-0.2-2-0.3c-1.3-0.3-2.6-0.9-3.8-1.7C39.9,128.6,39.4,128.2,38.9,127.7z"/>
				</g>
				<g>
					<path d="M39.8,125.5c1.1,0.3,2.2,0.7,3.4,1.2s2.5,0.9,3.7,1.4c0.6,0.2,1.2,0.4,1.7,0.7c-0.5,0.1-1,0.1-1.5,0
						c-0.7-0.1-1.4-0.2-2-0.3c-1.3-0.3-2.6-0.9-3.8-1.7C40.7,126.3,40.2,125.9,39.8,125.5z"/>
				</g>
				<g>
					<path d="M40.6,123.2c1.1,0.3,2.2,0.7,3.4,1.2s2.5,0.9,3.7,1.4c0.6,0.2,1.2,0.4,1.7,0.7c-0.5,0.1-1,0.1-1.5,0
						c-0.7-0.1-1.4-0.2-2-0.3c-1.3-0.3-2.6-0.9-3.8-1.7C41.5,124.1,41.1,123.7,40.6,123.2z"/>
				</g>
				<g>
					<path d="M76.7,52.5c-1.3-0.8-2.7-1.5-4.1-2c-1.5-0.5-3-1-4.5-1.2l0.1-0.8c1.6,0.3,3.2,0.7,4.7,1.2s2.9,1.2,4.2,2.1L76.7,52.5z"
						/>
				</g>
				<g>
					<path d="M73.1,62.5c-1.3-0.8-2.7-1.5-4.1-2c-1.5-0.5-3-1-4.5-1.2l0.1-0.8c1.6,0.3,3.2,0.7,4.7,1.2s2.9,1.2,4.2,2.1L73.1,62.5z"
						/>
				</g>
				<g>
					<path d="M65.9,82c-1.3-0.8-2.7-1.5-4.1-2c0,0,0,0-0.1,0c-1.4-0.5-2.9-0.9-4.5-1.2l0.1-0.8c1.6,0.3,3.2,0.7,4.7,1.2
						s2.9,1.2,4.2,2.1L65.9,82z"/>
				</g>
				<g>
					<path d="M42.9,130.6c-1.5-0.6-3-1.3-4.4-2.1l0.4-0.7c1.4,0.8,2.8,1.5,4.3,2.1c1.5,0.5,3,0.9,4.5,1.2l-0.1,0.8
						C46,131.6,44.4,131.2,42.9,130.6L42.9,130.6z"/>
				</g>
				<g>
					<path d="M43.7,128.3c-1.5-0.6-3-1.3-4.4-2.1l0.4-0.7c1.3,0.8,2.8,1.5,4.2,2.1c0,0,0,0,0.1,0c1.5,0.5,3,0.9,4.5,1.2l-0.1,0.8
						C46.9,129.3,45.3,128.9,43.7,128.3C43.8,128.3,43.7,128.3,43.7,128.3z"/>
				</g>
				<g>
					<path d="M44.6,126c-1.5-0.6-3-1.3-4.4-2.1l0.4-0.7c1.3,0.8,2.8,1.5,4.2,2.1c0,0,0,0,0.1,0c1.5,0.5,3,0.9,4.5,1.2l-0.1,0.8
						C47.7,127,46.1,126.6,44.6,126C44.6,126.1,44.6,126,44.6,126z"/>
				</g>
				<path d="M51.3,121.1l-1.3,3.5c0,0-1.9-0.1-4.9-1.2c-2.3-0.8-3.9-2.2-3.9-2.2l0.7-1.8L51.3,121.1z"/>
			</g>
		</g>
		<path d="M62.9,122.6c0-0.1,0.1-0.2,0.1-0.3c0.4-1,0.8-2.8,1.3-5.4c0.7-3.7-0.4-6-1.1-7.6c-0.1-0.2-0.2-0.4-0.3-0.7
			c-0.3-0.7-0.8-1.6-1.5-3c-1-2-2.5-5-4.6-9.4c-2.6-5.6-1.8-9.2-1.3-11.5c0.1-0.5,0.2-0.9,0.3-1.3c0.4-2.6,3.9-20.8,4.4-23.3
			l0.2-0.5c2.2-6,1.9-17.2,1.8-18.1c0-0.1,0-0.3,0-0.4c-0.1-1.6-0.4-4.2-2.6-5c-2.2-0.8-4.1,1-5.2,2.1l0,0c-0.1,0.1-0.2,0.2-0.3,0.3
			c-0.8,0.6-8.3,8.8-10.6,14.9l-0.2,0.5c-1.3,2.4-10.4,18.3-11.8,20.4c-0.2,0.4-0.4,0.8-0.7,1.2c-1.1,2.1-2.8,5.3-8.5,7.9
			c-4.3,1.9-7.6,3.2-9.7,4.1c-1.5,0.6-2.4,1-3.1,1.3c-0.2,0.1-0.4,0.2-0.7,0.3c-1.5,0.6-3.8,1.6-5.7,4.9C1.7,96.4,0.8,98,0.5,99
			c0,0.1-0.1,0.2-0.1,0.3c-0.3,0.7-1.1,2.5,0.9,3.9c0.8,0.6,11.4,7,16.6,10.2l-0.8,2.2c-0.2,0.6-0.1,1.2,0.3,1.6l1.3,1.5l-0.3,2.5
			c-0.1,0.5,0.1,1,0.5,1.4c1,1,2.3,1.8,3.6,2.3l0,0c0.4,0.1,0.7,0.2,1.1,0.3c-1,3.8-1,4.6-0.1,5.4c0.2,0.1,0.3,0.2,0.5,0.3
			s0.4,0.1,0.6,0.1c1.2,0,1.8-0.6,3.4-4c0.5,0.2,0.9,0.4,1.4,0.6c1.3,0.4,2.8,0.5,4.2,0.3c0.5-0.1,0.9-0.3,1.1-0.7l1.4-2.1l2-0.3
			c0.6-0.1,1.1-0.5,1.3-1.1l0.8-2.2c7.1,1.2,18.2,3,19.2,3.1C62,125.2,62.5,123.3,62.9,122.6z"/>
		<g>
			<path d="M61.9,122.3c0-0.1,0.1-0.2,0.1-0.4c0.4-0.9,0.8-2.7,1.2-5.2c0.6-3.4-0.3-5.4-1-6.9c-0.1-0.3-0.2-0.5-0.3-0.7
				c-0.3-0.6-0.7-1.5-1.4-2.9c-1-2-2.6-5.1-4.6-9.5c-2.8-5.9-1.9-9.7-1.3-12.1c0.1-0.5,0.2-0.9,0.3-1.3c0.5-2.6,4-21.1,4.4-23.4
				l0.2-0.5c2.2-5.9,1.9-16.8,1.8-17.7c0-0.1,0-0.3,0-0.4c-0.1-1.4-0.3-3.6-2-4.2c-1.7-0.6-3.2,0.9-4.2,1.9l0,0
				c-0.1,0.1-0.2,0.2-0.3,0.3c-0.7,0.7-8.1,8.7-10.3,14.6l-0.2,0.6c-1.1,2-10.5,18.2-11.8,20.5c-0.2,0.3-0.4,0.7-0.6,1.1
				c-1.2,2.2-3,5.6-9,8.3c-4.3,1.9-7.6,3.2-9.7,4.1c-1.4,0.6-2.4,1-3,1.3c-0.2,0.1-0.5,0.2-0.7,0.3c-1.5,0.6-3.5,1.5-5.3,4.5
				c-1.3,2.2-2.1,3.8-2.5,4.8c0,0.1-0.1,0.2-0.2,0.4c-0.3,0.7-0.8,1.8,0.6,2.8c0.8,0.6,13,8.1,17.2,10.6l-1.1,2.9
				c-0.1,0.2,0,0.5,0.1,0.7l1.5,1.8l-0.4,2.9c0,0.2,0,0.5,0.2,0.6c0.9,0.9,2.1,1.7,3.3,2.1l0,0c0.6,0.2,1.3,0.4,2,0.5
				c-1.3,4.6-1.2,5-0.7,5.4c0.1,0.1,0.2,0.1,0.3,0.2c0.1,0,0.2,0.1,0.3,0.1c0.6,0,1-0.2,3-4.4c0.6,0.5,1.3,0.8,2.1,1.1
				c1.2,0.4,2.5,0.5,3.7,0.3c0.2,0,0.4-0.2,0.5-0.3l1.6-2.4l2.4-0.4c0.3,0,0.5-0.2,0.6-0.5L40,121c4.8,0.8,18.8,3.1,19.9,3.2
				C61.3,124.2,61.7,123,61.9,122.3z"/>
			<g>
				<g>
					<path d="M58.3,59.6c-0.4,2.1-4,20.8-4.4,23.4c-0.4,2.6-2.2,6.6,1.1,13.9c3.4,7.3,5.4,10.9,6,12.4s2,3.3,1.3,7.1
						c-0.5,2.6-0.9,4.2-1.2,5.1s-0.3,1.6-1.5,1.6c-1.2-0.1-21-3.4-21-3.4l-2.3-0.8L58.3,59.6z"/>
					<path d="M38.5,120.2l-2.3-0.8c-0.2-0.1-0.3-0.3-0.3-0.6l22-59.3c0.1-0.2,0.3-0.3,0.5-0.3c0.2,0.1,0.3,0.3,0.3,0.5
						c-0.4,2-4,20.7-4.4,23.4c-0.1,0.4-0.2,0.8-0.3,1.3c-0.6,2.5-1.4,6.3,1.4,12.4c2,4.3,3.6,7.5,4.6,9.5c0.7,1.4,1.2,2.3,1.4,2.9
						c0.1,0.2,0.2,0.5,0.3,0.7c0.7,1.4,1.6,3.3,1,6.6c-0.5,2.5-0.9,4.2-1.2,5.2c0,0.1-0.1,0.3-0.1,0.4c-0.2,0.7-0.5,1.5-1.8,1.4
						C58.5,123.5,39.4,120.4,38.5,120.2C38.6,120.2,38.5,120.2,38.5,120.2z M36.9,118.7l1.8,0.7c6.8,1.1,20,3.3,20.9,3.3
						c0.6,0,0.7-0.1,0.9-0.8c0-0.1,0.1-0.3,0.1-0.4c0.2-0.6,0.6-2,1.2-5c0.6-3-0.3-4.7-0.9-6c-0.1-0.3-0.3-0.5-0.4-0.8
						c-0.3-0.6-0.7-1.5-1.4-2.9c-1-2-2.6-5.1-4.6-9.5c-3-6.3-2-10.4-1.4-13c0.1-0.4,0.2-0.8,0.3-1.2c0.3-1.9,2.2-11.9,3.4-18.2
						L36.9,118.7z"/>
				</g>
				<g>
					<g>
						<path d="M61.4,119.3c0.7-3.7-1.3-7.7-2-9.2c-0.6-1.5-2.6-5.1-6-12.4c-3.4-7.3-1.6-11.3-1.2-13.9c0.3-1.5,3.3-13.2,5.9-23.1
							c-0.9,4.5-3.8,20-4.2,22.4c-0.4,2.6-2.2,6.6,1.1,13.9c3.4,7.3,5.4,10.9,6,12.4s2,3.3,1.3,7.1c-0.5,2.6-0.9,4.2-1.2,5.1
							c-0.2,0.5-0.3,1-0.6,1.3C60.8,122,61.1,120.8,61.4,119.3z"/>
					</g>
				</g>
				<g>
					<path d="M51.4,116.5l0.7,0.2l9.7,3.2c-0.1,0.4-0.2,0.8-0.3,1.1l-9.8-2.8l-0.7-0.2l-12.8-3.6l0.7-2L51.4,116.5z"/>
				</g>
				<g>
					<path d="M49.8,121.6c0,0,0-0.1,0.1-0.4c0.1-0.2,0.2-0.6,0.3-1c0.1-0.2,0.1-0.4,0.2-0.7c0.1-0.2,0.2-0.5,0.2-0.8
						c0.2-0.5,0.4-1.1,0.6-1.6c0.1-0.3,0.2-0.6,0.3-0.8c0.1-0.3,0.2-0.5,0.3-0.8c0.2-0.5,0.4-1,0.5-1.4c0.2-0.4,0.3-0.8,0.4-1
						c0.1-0.2,0.1-0.4,0.1-0.4s0,0.1-0.1,0.4s-0.1,0.6-0.2,1c-0.1,0.4-0.2,0.9-0.3,1.5c-0.1,0.3-0.1,0.5-0.2,0.8
						c-0.1,0.3-0.1,0.6-0.2,0.9c-0.1,0.6-0.3,1.1-0.4,1.7c-0.1,0.3-0.1,0.5-0.2,0.8c-0.1,0.2-0.1,0.5-0.2,0.7
						c-0.1,0.4-0.2,0.8-0.3,1s-0.1,0.4-0.1,0.4L49.8,121.6z"/>
				</g>
				<g>
					<path d="M20.1,112.9l-1.3,3.5l1.8,2.1l-0.4,3.2c0.5,0.5,1.5,1.4,3,1.9c1.5,0.6,2.9,0.6,3.6,0.5c0.4,0.5,1.5,1.6,3.3,2.2
						c1.5,0.5,2.7,0.4,3.4,0.3c0.6-0.9,1.2-1.8,1.8-2.7l2.7-0.4l1.3-3.5L20.1,112.9z"/>
					<path d="M29.7,126.6c-1.4-0.5-2.4-1.4-3-2.1c-1.2,0.1-2.4-0.1-3.6-0.5l0,0c-1.2-0.4-2.2-1.1-3.1-2c-0.1-0.1-0.1-0.1-0.1-0.2
						l0.4-3.1l-1.7-2c-0.1-0.1-0.1-0.2,0-0.3l1.3-3.5c0.1-0.1,0.2-0.2,0.3-0.2l19.2,7.1c0.1,0.1,0.2,0.2,0.2,0.3l-1.3,3.5
						c0,0.1-0.1,0.2-0.2,0.2l-2.6,0.4l-1.7,2.6c0,0.1-0.1,0.1-0.2,0.1c-1.2,0.2-2.4,0.1-3.5-0.3C29.9,126.7,29.8,126.7,29.7,126.6z
						 M26.9,124c0,0,0.1,0,0.1,0.1c0.6,0.7,1.6,1.6,3.2,2.1c1,0.3,2.1,0.4,3.1,0.3l1.7-2.6c0-0.1,0.1-0.1,0.2-0.1l2.5-0.4l1.2-3.1
						l-18.7-7l-1.2,3.1l1.7,2c0,0.1,0.1,0.1,0.1,0.2l-0.4,3.1c0.8,0.8,1.8,1.4,2.8,1.8l0,0c1.1,0.4,2.3,0.6,3.5,0.5
						C26.8,124,26.8,124,26.9,124z"/>
				</g>
				<g>
					<path d="M36.8,117.9c6.4-17.3,20.2-54.5,21.9-58.9c2.1-5.7,1.8-16.2,1.7-17.3c-0.1-1.1-0.1-3.4-1.5-3.9c-1.3-0.5-2.8,1.2-3.6,2
						s-7.9,8.6-10,14.3c-1.4,3.9-21.9,58.8-21.9,58.8h-3.3l19.2,7.1L36.8,117.9z"/>
					<path d="M39.1,120.4l-19.2-7.1c-0.2-0.1-0.3-0.3-0.3-0.5s0.2-0.4,0.4-0.4h3l21.8-58.6c2.2-5.8,9.4-13.8,10.1-14.4
						c0.1-0.1,0.2-0.2,0.3-0.3c0.9-0.9,2.4-2.3,3.8-1.8c1.4,0.5,1.6,2.5,1.7,3.8c0,0.2,0,0.3,0,0.4c0.1,1,0.4,11.7-1.7,17.5
						l-21.8,58.6l2.3,1.9c0.2,0.1,0.2,0.4,0.1,0.5S39.3,120.5,39.1,120.4z M22.5,113.3l14.7,5.4l-0.6-0.5c-0.1-0.1-0.2-0.3-0.1-0.5
						l21.9-58.9c2.1-5.7,1.8-16.2,1.7-17.1c0-0.1,0-0.3,0-0.5c-0.1-1-0.2-2.7-1.1-3.1C58,37.8,56.8,39,56,39.7
						c-0.1,0.1-0.2,0.2-0.3,0.3c-0.7,0.6-7.8,8.4-9.9,14.1L24,112.9c-0.1,0.2-0.2,0.3-0.4,0.3L22.5,113.3z"/>
				</g>
				<g>
					<g>
						<path d="M50.8,56.3L50.8,56.3c-0.5-0.2-0.7-0.7-0.6-1.1l0.1-0.2c0.2-0.4,0.6-0.6,1-0.5h0.1c0.4,0.2,0.6,0.6,0.5,1l-0.1,0.2
							C51.7,56.3,51.3,56.5,50.8,56.3z"/>
					</g>
					<g>
						<path d="M53,57.1L53,57.1c-0.5-0.2-0.7-0.7-0.6-1.1l0.1-0.2c0.2-0.4,0.6-0.6,1-0.5h0.1c0.4,0.2,0.6,0.6,0.5,1L54,56.5
							C53.9,57,53.4,57.3,53,57.1z"/>
					</g>
				</g>
				<g>
					<path d="M60.3,43.9c0-1.2,0-2-0.1-2.3c-0.1-1.1-0.1-3.4-1.5-3.9c-1.3-0.5-2.8,1.2-3.6,2c-0.2,0.2-0.8,0.8-1.6,1.7
						c0,0,0.7,0.1,1.6,0.3L55,41.9c-0.1,0.2,0,0.4,0.2,0.4l3.1,1.2c0.2,0.1,0.4,0,0.4-0.2l0.1-0.2C59.7,43.6,60.3,43.9,60.3,43.9z"
						/>
				</g>
				<g>
					<path d="M51.2,44.7V44c1.7,0,3.5,0.3,5.1,0.9c1.6,0.6,3,1.5,4.2,2.6L60,48.2c-1.2-1.1-2.5-1.9-4-2.4
						C54.5,45,52.9,44.7,51.2,44.7z"/>
				</g>
				<g>
					<path d="M57.5,45.9l0.5-1.4c0.1-0.2,0-0.4-0.2-0.4l-2.3-0.9c-0.2-0.1-0.4,0-0.4,0.2l-0.5,1.4c0.5,0.1,1,0.3,1.6,0.5
						C56.7,45.4,57.1,45.6,57.5,45.9z"/>
				</g>
				<g>
					<ellipse transform="matrix(0.3477 -0.9376 0.9376 0.3477 -4.8095 81.7652)" cx="56.4" cy="44.3" rx="0.3" ry="0.3"/>
				</g>
				<g>
					<ellipse transform="matrix(0.3477 -0.9376 0.9376 0.3477 -4.5965 82.7579)" cx="57.2" cy="44.7" rx="0.3" ry="0.3"/>
				</g>
				<g>
					<ellipse transform="matrix(0.3477 -0.9376 0.9376 0.3477 -5.1263 80.7924)" cx="55.5" cy="44.1" rx="0.3" ry="0.3"/>
				</g>
				<g>
					<rect x="18.5" y="80" transform="matrix(0.3478 -0.9376 0.9376 0.3478 -47.3317 92.7364)" width="48.9" height="0.7"/>
				</g>
				<g>
					<polygon points="31,122.9 24.4,120.5 27.4,115.6 31.9,117.2 					"/>
				</g>
				<g>
					<path d="M23.4,119C23.3,119,23.3,119,23.4,119l-3.4-3.3c-0.1-0.1-0.1-0.1-0.1-0.2s0-0.2,0.1-0.2l2.3-1.6c0.1-0.1,0.2-0.1,0.3,0
						l3.5,1.4c0.1,0,0.1,0.1,0.2,0.2c0,0.1,0,0.2,0,0.2l-2.5,3.5c0,0.1-0.1,0.1-0.2,0.1C23.4,119.1,23.4,119.1,23.4,119z
						 M20.6,115.5l2.8,2.8l2.1-3l-3-1.2L20.6,115.5z"/>
				</g>
				<g>
					<path d="M36,105.2c0.5-0.5,1.2-0.7,1.8-0.5l2.3,0.9c0.7,0.3,1.5,1.3,1.7,2.7c0.2,1.4-0.1,4.7-1.3,8.2c-1.3,3.4-1.3,3.5-1.3,3.5
						l-8.3-3c0,0,3.1-8.5,3.6-9.8C35,106.5,35.5,105.8,36,105.2z"/>
					<path d="M39.1,120.4l-8.3-3c-0.2-0.1-0.3-0.3-0.3-0.6l3.6-9.8c0.2-0.6,0.7-1.3,1.4-2.1c0.6-0.6,1.5-0.9,2.3-0.6l2.3,0.9
						c0.8,0.3,1.8,1.4,2,3c0.2,1.7-0.2,5-1.4,8.4l-1.3,3.5C39.6,120.4,39.3,120.5,39.1,120.4z M31.5,116.7l7.5,2.7l1.2-3.1
						c1.3-3.5,1.5-6.6,1.3-8c-0.2-1.2-0.9-2.1-1.5-2.4l-2.3-0.9c-0.5-0.2-1,0-1.4,0.3c-0.6,0.7-1,1.3-1.2,1.8L31.5,116.7z"/>
				</g>
				<g>
					<g>
						<path d="M27.3,116.3c0.7,0.1,1.5,0.4,2.2,0.6c0.7,0.3,1.4,0.5,2.1,0.9c-0.7-0.1-1.5-0.4-2.2-0.6
							C28.6,117,27.9,116.7,27.3,116.3C28,116.4,27.9,116.7,27.3,116.3z"/>
					</g>
					<g>
						<path d="M26.6,117.6c0.8,0.2,1.6,0.4,2.4,0.7c0.8,0.3,1.6,0.6,2.3,1c-0.8-0.1-1.6-0.4-2.4-0.7C28.1,118.3,27.3,118,26.6,117.6
							C27.2,117.7,26.9,117.7,26.6,117.6z"/>
					</g>
					<g>
						<path d="M25.9,118.7c0.7,0.1,1.4,0.4,2,0.6c0.7,0.2,1.3,0.5,2,0.8c0.4,0.2,0.7,0.3,1.1,0.5c-0.7-0.1-1.3-0.4-2-0.6
							s-1.3-0.5-2-0.8C26.6,119.1,26.3,118.9,25.9,118.7C26.6,118.8,26.2,118.9,25.9,118.7z"/>
					</g>
					<g>
						<path d="M25.3,119.8c0.7,0.2,1.5,0.4,2.2,0.6c0.7,0.3,1.5,0.5,2.2,0.8c0.4,0.2,0.8,0.3,1.2,0.6c-0.7-0.2-1.5-0.4-2.2-0.6
							c-0.7-0.3-1.5-0.5-2.2-0.8C26,120.2,25.6,120,25.3,119.8C26,120,25.6,120,25.3,119.8z"/>
					</g>
					<g>
						<path d="M24.6,121c0.8,0.2,1.6,0.4,2.4,0.7c0.8,0.3,1.5,0.6,2.3,0.9c0.4,0.2,0.9,0.4,1.3,0.6c-0.8-0.2-1.6-0.4-2.4-0.7
							c-0.8-0.3-1.5-0.6-2.3-0.9C25.4,121.4,25,121.2,24.6,121C25.3,121.1,24.9,121.1,24.6,121z"/>
					</g>
				</g>
				<g>
					<g>
						<path d="M22.9,114.1c0.5,0.2,0.9,0.6,1.4,0.9c0.4,0.3,0.8,0.7,1.1,1.1c-0.5-0.2-0.9-0.6-1.4-0.9
							C23.6,114.9,23.2,114.6,22.9,114.1C23.4,114.4,23.2,114.6,22.9,114.1z"/>
					</g>
					<g>
						<path d="M22.3,114.7c0.5,0.3,1,0.6,1.5,1c0.4,0.4,0.9,0.7,1.2,1.2c-0.5-0.3-1-0.6-1.5-1C23.1,115.5,22.6,115.1,22.3,114.7
							C22.8,114.9,22.6,115.1,22.3,114.7z"/>
					</g>
					<g>
						<path d="M21.6,115.2c0.6,0.3,1.1,0.7,1.6,1.1s1,0.8,1.3,1.3c-0.6-0.3-1.1-0.7-1.6-1.1C22.5,116.1,22,115.7,21.6,115.2
							C22.2,115.5,22,115.7,21.6,115.2z"/>
					</g>
					<g>
						<path d="M21,115.8c0.6,0.3,1.2,0.8,1.7,1.2c0.5,0.4,1,0.9,1.5,1.4c-0.6-0.3-1.2-0.8-1.7-1.2C21.9,116.7,21.4,116.3,21,115.8
							C21.6,116.1,21.4,116.3,21,115.8z"/>
					</g>
					<g>
						<path d="M20.4,116.3c0.7,0.4,1.3,0.8,1.9,1.3s1.1,0.9,1.6,1.5c-0.7-0.4-1.3-0.8-1.9-1.3S20.8,116.8,20.4,116.3
							C21,116.6,20.8,116.9,20.4,116.3z"/>
					</g>
				</g>
				<g>
					<g>
						<path d="M36.1,119.1c-0.5,0.1-1,0.1-1.5,0.1s-1.1,0-1.6-0.2c0.5-0.1,1-0.1,1.5-0.1C35,118.9,35.6,118.9,36.1,119.1
							C35.6,119.2,35.6,119,36.1,119.1z"/>
					</g>
					<g>
						<path d="M36.3,119.9c-0.6,0.1-1.1,0.1-1.7,0.1c-0.6,0-1.2-0.1-1.8-0.2c0.6-0.1,1.1-0.1,1.7-0.1
							C35.1,119.7,35.7,119.8,36.3,119.9C35.7,120.1,35.7,119.8,36.3,119.9z"/>
					</g>
					<g>
						<path d="M36.4,120.8c-0.6,0.1-1.2,0.1-1.9,0.1c-0.6,0-1.3-0.1-1.9-0.2c0.6-0.1,1.2-0.1,1.9-0.1
							C35.1,120.6,35.8,120.6,36.4,120.8C35.8,120.9,35.8,120.6,36.4,120.8z"/>
					</g>
					<g>
						<path d="M36.5,121.6c-0.7,0.1-1.4,0.1-2,0.1c-0.7,0-1.4-0.1-2.1-0.2c0.7-0.1,1.4-0.1,2-0.1C35.1,121.4,35.9,121.4,36.5,121.6
							C35.9,121.7,35.9,121.4,36.5,121.6z"/>
					</g>
					<g>
						<path d="M36.7,122.4c-0.7,0.1-1.4,0.1-2.2,0.1s-1.5-0.1-2.3-0.2c0.7-0.1,1.4-0.1,2.2-0.1S35.9,122.2,36.7,122.4
							C35.9,122.5,36,122.2,36.7,122.4z"/>
					</g>
				</g>
				<g>
					<path d="M20.4,121.5c0.7,0.5,1.5,0.9,2.3,1.3s1.7,0.6,2.5,0.8c0.4,0.1,0.9,0.1,1.3,0.2c-1.8,0.2-3.7-0.3-5.1-1.4
						C21,122.1,20.7,121.8,20.4,121.5z"/>
				</g>
				<g>
					<path d="M27.2,124c0.7,0.5,1.5,0.9,2.3,1.3s1.7,0.6,2.5,0.8c0.4,0.1,0.9,0.1,1.3,0.2c-1.8,0.2-3.7-0.3-5.1-1.4
						C27.9,124.7,27.5,124.4,27.2,124z"/>
				</g>
				<g>
					<path d="M34.6,103.4c-0.4-0.1-1.9,1.4-4.2,7.6c-1.7,4.5-6,18.4-5.5,18.8c0.6,0,6.4-13.4,8.1-17.9
						C35.1,105.7,35,103.5,34.6,103.4z"/>
					<path d="M24.6,130.1c0,0-0.1,0-0.1-0.1c-0.3-0.2-0.6-0.5,1.8-8.4c1.2-4,2.7-8.7,3.6-11c1.9-5.2,3.7-8.2,4.7-7.8
						c0.2,0.1,0.7,0.3,0.4,2.4c-0.2,1.6-0.9,3.8-1.9,6.5c-0.8,2.3-2.7,6.7-4.4,10.7c-3.3,7.6-3.7,7.6-4,7.6
						C24.7,130.1,24.7,130.1,24.6,130.1z M34.4,103.9c-0.5,0.5-1.8,2.3-3.6,7.1c-1.4,3.8-4.2,12.8-5.2,16.7
						c1.8-3.6,5.5-12.3,6.9-16.1C34.3,106.8,34.5,104.6,34.4,103.9z"/>
				</g>
				<g>
					<path d="M44.9,54.7C43.8,56.6,34.5,73,33,75.4c-1.3,2.2-2.6,6.5-10,9.8s-11.2,4.7-12.7,5.4s-3.7,1.2-5.6,4.5
						c-1.3,2.3-2.1,3.8-2.4,4.6c-0.3,0.9-0.8,1.5,0.1,2.2s18.1,11.2,18.1,11.2l2.3,0.8L44.9,54.7z"/>
					<path d="M22.8,114.3l-2.3-0.8h-0.1c-0.7-0.4-17.2-10.5-18.2-11.2c-1.1-0.8-0.7-1.6-0.4-2.3c0.1-0.1,0.1-0.3,0.2-0.4
						c0.3-0.9,1.2-2.5,2.4-4.7c1.7-2.9,3.6-3.7,5-4.3c0.3-0.1,0.5-0.2,0.7-0.3c0.6-0.3,1.5-0.7,3-1.3c2.1-0.9,5.2-2.2,9.7-4.1
						c6.1-2.7,8-6.2,9.2-8.6c0.2-0.4,0.4-0.8,0.6-1.1c1.4-2.3,10.9-18.8,11.9-20.6c0.1-0.2,0.4-0.3,0.6-0.2c0.2,0.1,0.3,0.3,0.2,0.5
						l-22,59.3C23.3,114.3,23,114.4,22.8,114.3z M20.9,112.7l1.8,0.7l20-54c-3.2,5.6-8.3,14.4-9.3,16.1c-0.2,0.3-0.4,0.7-0.6,1.1
						c-1.3,2.4-3.2,6-9.6,8.9c-4.4,2-7.6,3.3-9.7,4.1c-1.4,0.6-2.4,1-2.9,1.3c-0.2,0.1-0.5,0.2-0.8,0.3c-1.4,0.6-3.1,1.3-4.6,4
						c-1.6,2.7-2.2,4-2.4,4.6c-0.1,0.2-0.1,0.3-0.2,0.4c-0.3,0.7-0.3,0.9,0.1,1.2C3.4,102.1,14.9,109.1,20.9,112.7z"/>
				</g>
				<g>
					<g>
						<path d="M3.8,98.1c2.3-3.3,5.6-4.3,7.1-5s5.2-1.9,12.6-5.2c7.4-3.2,9.4-8.5,10.8-10.7c0.8-1.3,5.6-12.3,10.2-21.6
							c-2.3,4-10.2,17.6-11.4,19.7c-1.3,2.3-2.6,6.5-10,9.8S12,89.9,10.5,90.6s-3.7,1.2-5.6,4.5c-1.3,2.3-2.1,3.8-2.4,4.6
							c-0.2,0.5-0.5,0.9-0.4,1.4C2.3,100.3,2.9,99.3,3.8,98.1z"/>
					</g>
				</g>
				<g>
					<path d="M11.9,106.8c4.5,2.8,9.1,5.5,9.1,5.5l2.3,0.8l1.2-3.3l-11.7-5.3L11.9,106.8z"/>
				</g>
				<g>
					<path d="M10.3,106.9c0,0,0.1-0.1,0.2-0.4c0.1-0.2,0.3-0.6,0.5-1c0.1-0.2,0.2-0.4,0.3-0.6s0.2-0.5,0.3-0.7
						c0.2-0.5,0.5-1,0.8-1.5c0.1-0.3,0.3-0.5,0.4-0.8c0.1-0.3,0.3-0.5,0.4-0.8c0.3-0.5,0.5-0.9,0.7-1.3c0.2-0.4,0.4-0.7,0.5-0.9
						c0.1-0.2,0.2-0.4,0.2-0.4s0,0.1-0.1,0.4c-0.1,0.2-0.2,0.6-0.4,1s-0.3,0.9-0.5,1.4c-0.1,0.3-0.2,0.5-0.3,0.8s-0.2,0.5-0.3,0.8
						c-0.2,0.5-0.4,1.1-0.6,1.6c-0.1,0.3-0.2,0.5-0.3,0.7s-0.2,0.5-0.3,0.7c-0.2,0.4-0.3,0.7-0.4,1c-0.1,0.2-0.2,0.4-0.2,0.4
						L10.3,106.9z"/>
				</g>
				<g>
					<path d="M7.5,101.9l-0.6,0.3c-0.4,0.2-0.7,0.5-1,0.9c1.2,0.8,2.7,1.7,4.2,2.6l1-2.1L7.5,101.9z"/>
				</g>
				<g>
					<path d="M12.3,101.5l0.3-0.6c-0.5,0-1.1,0.1-1.6,0.1L12.3,101.5z"/>
				</g>
				<g>
					<path d="M26,92.6c-1.7,3.7-4,7.7-9.2,8.2c-0.7,0.1-1.6,0.1-2.6,0.1l-0.5,1.3l11.9,4.8l19.3-52.3C43.5,57.5,27.7,89,26,92.6z"/>
				</g>
				<g>
					<path d="M13.1,102.3l-0.6-0.3L3,98.2c-0.2,0.4-0.3,0.7-0.5,1l9.3,4.2l0.7,0.3l12.1,5.5l0.7-2L13.1,102.3z"/>
				</g>
				<g>
					<g>
						<path d="M49.8,52.3h-1.2c-0.1,0-0.1,0-0.2,0c-0.1,0-0.2-0.1-0.3-0.2c-0.1-0.1-0.1-0.3-0.1-0.5l0.7-1.9
							c0.1-0.3,0.5-0.5,0.7-0.5l2.5-0.7H52c0.8-1.3,1.6-2.6,2.4-3.9c0.1-0.1,0.3,0,0.3-0.1c0.1-0.2,0.1-0.6,0.3-0.8
							c1.5-2.3,3-4.4,4-5.7c-0.1,0-0.1-0.1-0.2-0.1c-1.3-0.5-2.8,1.2-3.6,2s-7.9,8.6-10,14.3c-1.4,3.9-21.9,58.8-21.9,58.8h-3.3
							l3.3,1.2h3.3c0,0,20.3-54.9,21.9-58.8c0.3-0.9,0.8-1.9,1.4-3C49.8,52.3,49.8,52.3,49.8,52.3z"/>
					</g>
				</g>
				<g>
					<path d="M47.8,57.1c-0.6-0.4-1.3-0.7-1.9-1c0.7,0.1,1.4,0.3,2.1,0.5C48,56.8,47.9,57,47.8,57.1z"/>
				</g>
				<g>
					<path d="M43.5,69c-0.6-0.4-1.3-0.7-1.9-1c0.7,0.1,1.4,0.3,2.1,0.5C43.6,68.7,43.5,68.9,43.5,69z"/>
				</g>
				<g>
					<path d="M39.1,80.9c-0.6-0.4-1.3-0.7-1.9-1c0.7,0.1,1.4,0.3,2.1,0.5C39.2,80.5,39.2,80.7,39.1,80.9z"/>
				</g>
				<g>
					<path d="M34.7,92.7c-0.6-0.4-1.3-0.7-1.9-1c0.7,0.1,1.4,0.3,2.1,0.5C34.9,92.4,34.8,92.6,34.7,92.7z"/>
				</g>
				<g>
					<g>
						<path d="M44.5,55.9c0.4-0.1,0.8-0.1,1.1-0.1c0.5,0,1,0,1.5,0.1c1,0.1,1.9,0.3,2.9,0.6c1.9,0.5,3.8,1.4,5.5,2.4
							c0.5,0.3,0.9,0.6,1.3,0.9c0.3,0.3,0.7,0.6,1,0.9c-0.7-0.5-1.4-0.9-2.2-1.2c-0.9-0.4-1.8-0.8-2.7-1.2c-1.8-0.7-3.7-1.4-5.6-1.9
							C46.4,56.2,45.4,56,44.5,55.9z"/>
					</g>
					<g>
						<path d="M40.1,67.7c0.4-0.1,0.8-0.1,1.1-0.1c0.5,0,1,0,1.5,0.1c1,0.1,1.9,0.3,2.9,0.6c1.9,0.5,3.8,1.4,5.5,2.4
							c0.5,0.3,0.9,0.6,1.3,0.9c0.3,0.3,0.7,0.6,1,0.9c-0.7-0.5-1.4-0.9-2.2-1.2c-0.9-0.4-1.8-0.8-2.7-1.2c-1.8-0.7-3.7-1.4-5.6-1.9
							C42,68.1,41.1,67.9,40.1,67.7z"/>
					</g>
					<g>
						<path d="M35.7,79.6c0.4-0.1,0.8-0.1,1.1-0.1c0.5,0,1,0,1.5,0.1c1,0.1,1.9,0.3,2.9,0.6c1.9,0.5,3.8,1.4,5.5,2.4
							c0.5,0.3,0.9,0.6,1.3,0.9c0.3,0.3,0.7,0.6,1,0.9c-0.7-0.5-1.4-0.9-2.2-1.2c-0.9-0.4-1.8-0.8-2.7-1.2c-1.8-0.7-3.7-1.4-5.6-1.9
							C37.6,79.9,36.7,79.7,35.7,79.6z"/>
					</g>
					<g>
						<path d="M31.3,91.5c0.4-0.1,0.8-0.1,1.1-0.1c0.5,0,1,0,1.5,0.1c1,0.1,1.9,0.3,2.9,0.6c1.9,0.5,3.8,1.4,5.5,2.4
							c0.5,0.3,0.9,0.6,1.3,0.9c0.3,0.3,0.7,0.6,1,0.9c-0.7-0.5-1.4-0.9-2.2-1.2c-0.9-0.4-1.8-0.8-2.7-1.2c-1.8-0.7-3.7-1.4-5.6-1.9
							C33.2,91.8,32.2,91.6,31.3,91.5z"/>
					</g>
				</g>
				<g>
					<path d="M27.7,101.3c0.2-0.7,0.5-1.3,0.7-2c0.7-1.8,1.3-3.5,2-5.3c0.8-2.3,1.7-4.5,2.5-6.8c0.9-2.4,1.8-4.9,2.7-7.4
						c0.9-2.5,1.9-5,2.8-7.6c1-2.5,1.9-5.1,2.9-7.7c0.9-2.5,1.9-5,2.8-7.6c0.2-0.6,0.5-1.2,0.7-1.8s0.5-1.2,0.7-1.8
						c0.5-1.2,1.2-2.3,1.9-3.4c1.3-2.1,2.8-4.2,4.4-6.2c0.8-1,1.5-1.9,2.3-2.8c0.7-0.8,1.5-1.6,2.4-2.4c0.3-0.3,0.7-0.5,1.1-0.7
						c-0.4,0.2-0.8,0.5-1.1,0.8c-0.4,0.4-0.8,0.8-1.2,1.2c-0.8,0.9-1.6,1.8-2.3,2.7c-1.6,2-3,4-4.4,6.1c-0.7,1.1-1.4,2.3-2,3.4
						c-0.3,0.6-0.6,1.2-0.9,1.8c-0.2,0.6-0.5,1.3-0.7,1.9c-0.9,2.5-1.9,5-2.8,7.7c-1,2.6-1.9,5.2-2.9,7.9c-0.9,2.6-1.9,5.1-2.8,7.8
						c-0.9,2.5-1.8,5-2.8,7.6c-0.9,2.3-1.7,4.6-2.6,6.9c-0.7,1.9-1.4,3.7-2.1,5.6c-0.2,0.5-0.4,1.1-0.6,1.6
						c-0.1,0.1-0.1,0.3-0.2,0.4c0,0,0,0.2-0.1,0.2c0,0-0.1,0-0.2-0.1C27.9,101.4,27.8,101.3,27.7,101.3z"/>
				</g>
				<g>
					<path d="M32.2,103.9c0-0.7-0.5-1.3-1.1-1.5l-2.3-0.9c-0.7-0.3-2,0-3.1,0.9c-1.1,1-3,3.6-4.2,7c-1.3,3.4-1.3,3.5-1.3,3.5l8.3,3
						c0,0,3.1-8.5,3.6-9.8C32.1,105.5,32.2,104.6,32.2,103.9z"/>
					<path d="M28.1,116.3l-8.3-3c-0.2-0.1-0.3-0.3-0.3-0.6l1.3-3.5c1.2-3.2,3.1-6.1,4.4-7.3c1.3-1.1,2.7-1.3,3.5-1l2.3,0.9
						c0.8,0.3,1.4,1.1,1.4,1.9c0,1-0.1,1.8-0.3,2.5l-3.6,9.8C28.6,116.3,28.4,116.4,28.1,116.3z M20.6,112.6l7.5,2.7l3.5-9.4
						c0.2-0.5,0.3-1.3,0.3-2.1c0-0.5-0.3-1-0.8-1.2l-2.3-0.9c-0.6-0.2-1.7,0-2.6,0.8c-1,0.8-2.8,3.3-4.1,6.8L20.6,112.6z"/>
				</g>
				<g>
					<path d="M40.8,62.4c-0.5,1-1,1.9-1.5,2.9c-0.8,1.5-1.6,3-2.4,4.5c-0.8,1.6-1.6,3.1-2.4,4.7c-0.4,0.8-0.9,1.6-1.3,2.4
						c-0.4,0.8-0.8,1.6-1.4,2.4c-1,1.4-2.2,2.7-3.6,3.7s-2.9,1.9-4.4,2.6c-1.6,0.8-3.3,1.5-4.9,2.2c-1.7,0.7-3.3,1.4-5,2.1
						c-0.8,0.3-1.7,0.7-2.5,1c-0.4,0.2-0.8,0.4-1.2,0.5c-0.4,0.2-0.8,0.3-1.2,0.5c-0.8,0.3-1.5,0.8-2.2,1.3C6,93.9,5.5,94.4,5,95
						c-0.2,0.2-0.3,0.5-0.5,0.7c0.7-1.2,1.6-2.3,2.8-3.1c0.7-0.5,1.5-0.9,2.3-1.2c0.8-0.3,1.5-0.7,2.3-1c1.6-0.7,3.2-1.4,4.8-2
						c1.6-0.7,3.3-1.4,4.9-2.1s3.1-1.4,4.6-2.3c1.4-0.9,2.7-1.9,3.8-3.2c0.6-0.6,1.1-1.4,1.6-2.1c0.5-0.8,0.9-1.6,1.3-2.4
						c0.8-1.5,1.7-3.1,2.5-4.6s1.6-2.9,2.5-4.4c0.8-1.4,1.6-2.7,2.4-4.1C40.6,62.8,40.7,62.6,40.8,62.4z"/>
				</g>
				<g>
					<path d="M54.1,45.5c-0.6-0.3-1.2-0.5-1.9-0.7c0.7,0,1.4,0.1,2.1,0.2C54.2,45.2,54.1,45.4,54.1,45.5z"/>
				</g>
				<g>
					<path d="M21.3,112.3l6.4,2.4l0.7-1.8c-1.3-0.9-3.5-2.8-2.9-5.3s1.6-4.1,2.5-5.3c-0.4,0-1.1,0.2-1.7,0.8c-0.9,0.8-2.7,3.2-4,6.6
						L21.3,112.3z"/>
				</g>
				<g>
					<path d="M38.6,106.2C38.6,106.2,38.6,106.1,38.6,106.2l-1.1-0.5c-0.3-0.1-0.6,0-0.8,0.2c-0.5,0.6-0.9,1.2-1.1,1.6l-3.3,8.9
						l1.7,0.6c0.8-2.2,2.9-7.9,3.3-8.9C37.5,107.4,38.1,106.7,38.6,106.2z"/>
				</g>
				<g>
					<path d="M49.3,49.8l-0.7,1.9h1.2c0.2,0,0.3-0.1,0.3-0.2l0.2-0.5c0.1-0.2,0-0.3-0.1-0.4L49.3,49.8z"/>
				</g>
				<g>
					<path d="M52.1,49l-2.6,0.7l0.9,0.7c0.1,0.1,0.2,0.1,0.3,0.1l0.8-0.3c0.1,0,0.2-0.1,0.3-0.2L52.1,49z"/>
				</g>
				<g>
					<path d="M56.7,53.3l-0.2,0.6c-0.1,0.1,0,0.3,0.1,0.4l0.9,0.8l0.7-1.9L57,53.1C56.9,53.1,56.8,53.2,56.7,53.3z"/>
				</g>
				<g>
					<path d="M58.1,52.8l-1.5-2.1l-0.4,0.9c0,0.1,0,0.2,0,0.3l0.4,0.6c0.1,0.1,0.2,0.2,0.3,0.2L58.1,52.8z"/>
				</g>
				<g>
					<path d="M52.2,50.8l3.2,1.2c0.2,0.1,0.4,0,0.5-0.2l0,0l0.6-1.4c-0.2-0.2-0.9-0.8-1.8-1.2c-0.9-0.3-1.9-0.3-2.2-0.3L52,50.3l0,0
						C51.9,50.5,52,50.7,52.2,50.8z"/>
				</g>
				<g>
					<path d="M30.3,110.8c-1.7,4.5-6,18.4-5.5,18.8l9.8-26.4C34.2,103.2,32.5,104.7,30.3,110.8z"/>
				</g>
				<g>
					<g>
						<ellipse transform="matrix(0.3477 -0.9376 0.9376 0.3477 -1.4023 80.9483)" cx="57.5" cy="41.5" rx="0.7" ry="0.4"/>
					</g>
					<g>
						<path d="M56.7,40.5C56.7,40.4,56.7,40.4,56.7,40.5c-0.2-0.1-0.5,0.1-0.7,0.5s-0.2,0.7,0,0.8s0.5-0.1,0.7-0.5
							S56.9,40.5,56.7,40.5z"/>
					</g>
					<g>
						<path d="M58.7,41.2L58.7,41.2c-0.2-0.1-0.5,0.2-0.5,0.6c-0.1,0.4,0,0.7,0.2,0.8l0,0c0.1,0,0.2,0,0.3-0.1s0.2-0.3,0.2-0.5
							C59,41.6,58.9,41.2,58.7,41.2z"/>
					</g>
				</g>
			</g>
		</g>
	</g>
</g>
</svg>
