<?xml version="1.0" encoding="utf-8"?>
<!-- Generator: Adobe Illustrator 21.0.2, SVG Export Plug-In . SVG Version: 6.00 Build 0)  -->
<svg version="1.1" id="Layer_1" xmlns="http://www.w3.org/2000/svg" xmlns:xlink="http://www.w3.org/1999/xlink" x="0px" y="0px"
	 viewBox="0 0 80.9 138.1" style="enable-background:new 0 0 80.9 138.1;" xml:space="preserve">
<style type="text/css">
	.st0{fill:#2D2C2C;}
	.st1{fill:#FFFFFF;}
	.st2{fill:none;}
</style>
<g>
	<path class="st0" d="M47.5,137.1l0.5-5.8l32.4-87.4c0-0.1,0.1-0.2,0.1-0.3l0.5-12.2c0-0.9-0.5-1.6-1.3-1.9
		c-0.8-0.3-1.7-0.1-2.2,0.6l-7.2,9l4.3-11.6c3.8-10.2,0.6-21.6-1-25.9c-0.2-0.6-0.7-1.1-1.3-1.3c-0.6-0.2-1.3-0.2-1.9,0.2
		c-4.1,2.3-13.9,8.9-17.7,19L48.4,31l0.4-11.5c0-0.9-0.5-1.6-1.3-1.9c-0.8-0.3-1.7-0.1-2.2,0.6l-7.6,9.6c-0.1,0.1-0.1,0.2-0.2,0.3
		L5.1,115.4l-3.4,4.8c-0.2,0.2-0.2,0.5-0.2,0.8c0,0.3,0.2,0.5,0.4,0.7c1.8,1.3,3.8,2.3,5.9,3l0.2,0.1c2,0.7,4.1,1.2,6.2,1.4
		c0.3,0,0.6-0.1,0.8-0.2c0.2-0.2,0.4-0.4,0.4-0.7l0.5-5.8l3.7-10l21.3,7.9l-3.7,10l-3.4,4.8c-0.2,0.2-0.2,0.5-0.2,0.8
		c0,0.3,0.2,0.5,0.4,0.7c1.8,1.3,3.8,2.3,5.9,3l0.2,0.1c2,0.7,4.1,1.2,6.2,1.4c0.3,0,0.6-0.1,0.8-0.2
		C47.3,137.7,47.4,137.4,47.5,137.1z"/>
	<g>
		<g>
			<g>
				<path class="st0" d="M53.3,19.5c-4.7,12.6-33.1,89.4-33.1,89.4l20.6,7.7c0,0,28.2-76,33.1-89.4c3.7-10.1,0.5-21.3-1-25.5
					c-0.3-0.9-1.4-1.3-2.3-0.8C66.8,3.1,57,9.6,53.3,19.5z"/>
			</g>
			<g>
				<path class="st1" d="M70.6,1.7c0,0-0.4,0.3-1.1,0.8c-0.7,0.5-1.7,1.3-3,2.3c-1.3,1-2.8,2.3-4.4,4c-1.6,1.6-3.3,3.6-4.8,6
					c-0.7,1.2-1.5,2.5-2.1,3.8c-0.2,0.3-0.3,0.7-0.4,1c-0.1,0.4-0.3,0.7-0.4,1.1c-0.3,0.7-0.5,1.5-0.8,2.2c-1.1,3-2.3,6.2-3.5,9.5
					c-0.6,1.6-1.2,3.3-1.9,5c-0.6,1.7-1.3,3.4-1.9,5.1c-1.3,3.5-2.6,7-3.9,10.5c-2.6,7-5.3,14.1-7.7,20.6c-2.5,6.6-4.8,12.7-6.8,18
					c-4,10.5-6.6,17.6-6.6,17.6s2.6-7.1,6.4-17.6c1.9-5.3,4.2-11.5,6.6-18.1c2.4-6.6,5-13.7,7.6-20.7c1.3-3.5,2.6-7,3.9-10.5
					c0.6-1.7,1.3-3.5,1.9-5.2c0.6-1.7,1.2-3.4,1.9-5c1.2-3.3,2.4-6.5,3.5-9.5c0.3-0.8,0.6-1.5,0.8-2.2c0.1-0.4,0.3-0.7,0.4-1.1
					c0.1-0.4,0.3-0.7,0.5-1.1c0.3-0.7,0.7-1.4,1-2c0.4-0.6,0.7-1.3,1.1-1.9c0.8-1.2,1.6-2.3,2.4-3.3c0.8-1,1.7-1.9,2.5-2.7
					c1.6-1.6,3.2-2.9,4.5-3.9c1.3-1,2.4-1.7,3.1-2.2C70.2,2,70.6,1.7,70.6,1.7z"/>
			</g>
			<g>
				<path class="st1" d="M72.6,2.1c0,0,0.1,0.5,0.4,1.3c0.2,0.9,0.6,2.1,0.9,3.7c0.3,1.6,0.7,3.6,0.9,5.9c0.1,1.1,0.1,2.4,0.1,3.7
					c0,1.3-0.1,2.7-0.3,4.1c-0.1,0.7-0.2,1.4-0.4,2.1c-0.2,0.7-0.3,1.5-0.6,2.2c-0.1,0.4-0.2,0.7-0.4,1.1c-0.1,0.4-0.3,0.7-0.4,1.1
					c-0.3,0.7-0.5,1.5-0.8,2.2c-1.1,3-2.3,6.2-3.5,9.5c-0.6,1.7-1.2,3.3-1.9,5c-0.6,1.7-1.3,3.4-1.9,5.2c-1.3,3.5-2.6,7-3.9,10.5
					c-2.6,7-5.3,14.1-7.8,20.7c-2.5,6.6-4.8,12.8-6.8,18.1c-4,10.6-6.6,17.6-6.6,17.6s2.6-7.1,6.4-17.7c1.9-5.3,4.2-11.5,6.6-18.1
					c2.4-6.6,5-13.7,7.6-20.8c1.3-3.5,2.6-7.1,3.9-10.5c0.6-1.7,1.3-3.5,1.9-5.2c0.6-1.7,1.3-3.4,1.9-5c1.2-3.3,2.4-6.5,3.6-9.5
					c0.3-0.8,0.6-1.5,0.8-2.2c0.1-0.4,0.3-0.7,0.4-1.1c0.1-0.4,0.2-0.7,0.4-1.1c0.4-1.4,0.7-2.9,0.9-4.3c0.4-2.8,0.4-5.4,0.3-7.6
					c-0.1-2.3-0.4-4.3-0.7-5.9c-0.3-1.6-0.6-2.9-0.8-3.7C72.7,2.6,72.6,2.1,72.6,2.1z"/>
			</g>
			<g>
				<path class="st1" d="M71.4,1.3c0,0,0,0.1-0.1,0.3c0,0.2-0.1,0.6-0.2,1c-0.1,0.4-0.2,1-0.3,1.6c-0.1,0.3-0.1,0.6-0.2,1
					c-0.1,0.4-0.1,0.7-0.2,1.1C70.4,7.2,70.2,8,70,9c-0.2,1-0.5,2-0.7,3.1c-0.1,0.5-0.3,1.1-0.4,1.7c-0.2,0.6-0.3,1.2-0.5,1.8
					c-0.1,0.3-0.2,0.6-0.3,0.9c-0.1,0.3-0.2,0.6-0.3,0.9c-0.1,0.3-0.2,0.6-0.3,1c-0.1,0.3-0.2,0.7-0.3,1c-0.2,0.7-0.4,1.3-0.7,2
					c-0.1,0.2-0.1,0.3-0.2,0.5c-0.1,0.2-0.1,0.3-0.2,0.5c-0.1,0.3-0.2,0.7-0.4,1.1c-0.5,1.4-1,2.9-1.6,4.4c-0.3,0.7-0.6,1.5-0.8,2.3
					c-0.3,0.8-0.6,1.5-0.9,2.3c-0.6,1.6-1.2,3.2-1.8,4.8c-1.2,3.3-2.5,6.6-3.8,10.1c-1.3,3.4-2.6,6.9-3.9,10.4
					c-2.6,6.9-5.2,13.9-7.7,20.4c-2.5,6.5-4.8,12.6-6.7,17.8c-2,5.2-3.6,9.5-4.8,12.6c-1.2,3-1.8,4.8-1.8,4.8s0.6-1.7,1.7-4.8
					c1.1-3.1,2.7-7.4,4.6-12.7c1.9-5.2,4.1-11.3,6.5-17.9c2.4-6.5,4.9-13.5,7.5-20.5c1.3-3.5,2.6-7,3.8-10.4
					c1.3-3.4,2.5-6.8,3.7-10.1c0.6-1.6,1.2-3.2,1.8-4.8c0.3-0.8,0.6-1.6,0.9-2.3c0.3-0.8,0.6-1.5,0.9-2.3c0.6-1.5,1.1-2.9,1.6-4.3
					c0.5-1.4,1-2.8,1.4-4.1c0.1-0.3,0.2-0.7,0.3-1c0.1-0.3,0.2-0.6,0.3-1c0.1-0.3,0.2-0.6,0.3-0.9c0.1-0.3,0.2-0.6,0.3-0.9
					c0.2-0.6,0.4-1.2,0.5-1.8c0.2-0.6,0.3-1.1,0.5-1.7c0.3-1.1,0.6-2.1,0.9-3c0.3-0.9,0.5-1.8,0.7-2.6c0.2-0.8,0.4-1.5,0.5-2.1
					C70.9,3.6,71,3,71.1,2.6c0.1-0.4,0.2-0.7,0.2-1C71.4,1.4,71.4,1.3,71.4,1.3z"/>
			</g>
			<g>
				<path class="st1" d="M67.7,24.6c-4.7,12.6-33.2,89.6-33.2,89.6l3,1.1c0,0,28.3-76.2,33.2-89.6C74.8,14.7,72,1.3,72,1.6
					C71.9,5.8,71.7,13.7,67.7,24.6z"/>
			</g>
		</g>
		<g>
			<g>
				<path class="st1" d="M14.9,119.2l32.5-87.5l0.5-12.2c0-0.9-1.1-1.3-1.7-0.6l-7.6,9.6L6,115.9l-3.5,4.9c1.4,1,3.3,2.1,5.8,3
					c2.3,0.8,4.4,1.2,6,1.4C14.5,123.1,14.7,121.2,14.9,119.2z"/>
				<path class="st0" d="M8,124.1c-2-0.7-3.9-1.7-5.7-3c-0.1-0.1-0.2-0.2-0.2-0.3c0-0.1,0-0.2,0.1-0.3l3.5-4.8l32.4-87.5
					c0,0,0-0.1,0.1-0.1l7.6-9.6c0.4-0.5,1-0.6,1.5-0.4c0.6,0.2,0.9,0.7,0.9,1.3l-0.5,12.2c0,0,0,0.1,0,0.1l-32.4,87.5l-0.5,5.9
					c0,0.1-0.1,0.2-0.2,0.3c-0.1,0.1-0.2,0.1-0.3,0.1c-2.1-0.2-4.1-0.7-6.1-1.4C8.1,124.1,8.1,124.1,8,124.1z M3.1,120.7
					c1.6,1.1,3.4,2,5.2,2.6c0.1,0,0.1,0,0.2,0.1c1.8,0.6,3.6,1.1,5.5,1.3l0.5-5.5c0,0,0-0.1,0-0.1l32.4-87.5l0.5-12.2
					c0-0.3-0.2-0.5-0.3-0.5c-0.1,0-0.4-0.1-0.6,0.2l-7.6,9.5L6.4,116c0,0,0,0.1-0.1,0.1L3.1,120.7z"/>
			</g>
			<g>
				<path class="st0" d="M41,29.3l6.1-10.8c-0.3-0.1-0.7,0-1,0.3l-7.6,9.6L6,115.9l-3.5,4.9l3.2,1.9l2.8-5.8L41,29.3z"/>
			</g>
			<g>
				<path class="st1" d="M46.6,19c-0.3,0.4-0.6,0.8-0.9,1.2l-0.9,1.2l-0.9,1.2L43,23.9l-1.8,2.4l-1.8,2.4l0-0.1
					c-0.7,1.8-1.3,3.7-2,5.5l-2,5.5l-1,2.7l-1,2.7l-2,5.5l-4.1,10.9l-2,5.5l-1,2.7l-1,2.7l-8.1,21.9c-0.7,1.8-1.4,3.6-2,5.5l-2,5.5
					c-0.7,1.8-1.4,3.6-2.1,5.5c-0.7,1.8-1.4,3.6-2.1,5.4l0,0c0,0,0,0,0,0L6,117.4l-0.9,1.2l-0.9,1.2L3.2,121l0.8-1.2l0.8-1.2
					l0.8-1.2l0.9-1.2l0,0c0.6-1.8,1.3-3.7,2-5.5c0.7-1.8,1.3-3.7,2-5.5l2-5.5c0.7-1.8,1.3-3.7,2-5.5l8.1-21.9l1-2.7l1-2.7l2-5.5
					l4-10.9l2-5.5l1-2.7l1-2.7l2-5.5c0.7-1.8,1.4-3.6,2.1-5.5l0,0c0,0,0,0,0-0.1l1.9-2.4l1.9-2.4l0.9-1.2l1-1.2l1-1.2
					C45.9,19.7,46.3,19.3,46.6,19z"/>
			</g>
			<g>
				<path class="st0" d="M47,19.1c0,0.5,0,1-0.1,1.5c0,0.5,0,1-0.1,1.5c0,0.5-0.1,1-0.1,1.5l-0.1,1.5c0,0.5-0.1,1-0.1,1.5l-0.1,1.5
					l-0.2,3c0,0,0,0.1,0,0.1l0,0l-1,2.7c-0.3,0.9-0.7,1.8-1,2.7l-2,5.5l-1,2.7l-1,2.7l-2,5.5l-4.1,10.9l-2,5.5l-1,2.7l-1,2.7
					l-4,10.9l-2,5.5l-2,5.5c-0.7,1.8-1.4,3.6-2,5.5l-2.1,5.5c-0.7,1.8-1.4,3.6-2.1,5.4c-0.4,0.9-0.7,1.8-1.1,2.7
					c-0.4,0.9-0.7,1.8-1.1,2.7l0-0.1l-0.1,1.4l-0.1,1.4l-0.1,1.4c0,0.5-0.1,0.9-0.1,1.4c0-0.5,0-0.9-0.1-1.4l0-1.4l0-1.4l0-1.4
					c0,0,0,0,0-0.1l0,0c0.3-0.9,0.6-1.8,0.9-2.8c0.3-0.9,0.6-1.8,1-2.8c0.6-1.8,1.3-3.7,2-5.5l2-5.5c0.7-1.8,1.3-3.7,2-5.5l2-5.5
					l2-5.5l4.1-10.9l1-2.7l1-2.7l2-5.5l4-11l2-5.5l1-2.7l1-2.7l2.1-5.5c0.3-0.9,0.7-1.8,1-2.7l1-2.7l0,0.1l0.3-3l0.2-1.5
					c0.1-0.5,0.1-1,0.2-1.5l0.2-1.5c0.1-0.5,0.1-1,0.2-1.5c0.1-0.5,0.1-1,0.2-1.5C46.9,20.1,47,19.6,47,19.1z"/>
			</g>
			<g>
				<path class="st1" d="M35.7,36.4c1.2-0.1,2.5,0,3.6,0.3c1.3,0.4,2.6,0.9,3.8,1.7c0.5,0.3,1,0.7,1.4,1.2c-1.1-0.3-2.2-0.7-3.4-1.2
					c-1.2-0.5-2.5-0.9-3.7-1.4C36.8,36.9,36.2,36.6,35.7,36.4z"/>
			</g>
			<g>
				<path class="st1" d="M32,46.3c1.2-0.1,2.5,0,3.6,0.3c1.3,0.4,2.6,0.9,3.8,1.7c0.5,0.3,1,0.7,1.4,1.2c-1.1-0.3-2.2-0.7-3.4-1.2
					c-1.2-0.5-2.5-0.9-3.7-1.4C33.1,46.8,32.5,46.6,32,46.3z"/>
			</g>
			<g>
				<path class="st1" d="M24.8,65.7c1.2-0.1,2.5,0,3.6,0.3c1.3,0.4,2.6,0.9,3.8,1.7c0.5,0.3,1,0.7,1.4,1.2c-1.1-0.3-2.2-0.7-3.4-1.2
					c-1.2-0.5-2.5-0.9-3.7-1.4C25.9,66.2,25.4,65.9,24.8,65.7z"/>
			</g>
			<g>
				<path class="st1" d="M6.5,115.1c1.1,0.3,2.2,0.7,3.4,1.2c1.2,0.5,2.5,0.9,3.7,1.4c0.6,0.2,1.2,0.4,1.7,0.7c-0.5,0.1-1,0.1-1.5,0
					c-0.7-0.1-1.4-0.2-2-0.3c-1.3-0.3-2.6-0.9-3.8-1.7C7.4,116,6.9,115.6,6.5,115.1z"/>
			</g>
			<g>
				<path class="st1" d="M7.3,112.9c1.1,0.3,2.2,0.7,3.4,1.2c1.2,0.5,2.5,0.9,3.7,1.4c0.6,0.2,1.2,0.4,1.7,0.7c-0.5,0.1-1,0.1-1.5,0
					c-0.7-0.1-1.4-0.2-2-0.3c-1.3-0.3-2.6-0.9-3.8-1.7C8.2,113.7,7.7,113.3,7.3,112.9z"/>
			</g>
			<g>
				<path class="st1" d="M8.1,110.6c1.1,0.3,2.2,0.7,3.4,1.2c1.2,0.5,2.5,0.9,3.7,1.4c0.6,0.2,1.2,0.4,1.7,0.7c-0.5,0.1-1,0.1-1.5,0
					c-0.7-0.1-1.4-0.2-2-0.3c-1.3-0.3-2.6-0.9-3.8-1.7C9.1,111.5,8.6,111.1,8.1,110.6z"/>
			</g>
			<g>
				<path class="st0" d="M44.1,40.4c-1.3-0.8-2.7-1.5-4.1-2c-1.5-0.5-3-1-4.5-1.2l0.1-0.8c1.6,0.3,3.2,0.7,4.7,1.2
					c1.5,0.5,2.9,1.2,4.2,2.1L44.1,40.4z"/>
			</g>
			<g>
				<path class="st0" d="M40.4,50.3c-1.3-0.8-2.7-1.5-4.1-2c-1.5-0.5-3-1-4.5-1.2l0.1-0.8c1.6,0.3,3.2,0.7,4.7,1.2
					c1.5,0.5,2.9,1.2,4.2,2.1L40.4,50.3z"/>
			</g>
			<g>
				<path class="st0" d="M33.2,69.7c-1.3-0.8-2.7-1.5-4.1-2c-1.5-0.5-3-1-4.5-1.2l0.1-0.8c1.6,0.3,3.1,0.7,4.6,1.2c0,0,0,0,0.1,0
					c1.5,0.5,2.9,1.2,4.2,2.1L33.2,69.7z"/>
			</g>
			<g>
				<path class="st0" d="M10.4,118c-1.5-0.6-3-1.3-4.4-2.1l0.4-0.7c1.4,0.8,2.8,1.5,4.3,2.1c1.5,0.5,3,0.9,4.5,1.2l-0.1,0.8
					C13.5,119,12,118.6,10.4,118C10.4,118,10.4,118,10.4,118z"/>
			</g>
			<g>
				<path class="st0" d="M11.2,115.7c-1.5-0.6-3-1.3-4.4-2.1l0.4-0.7c1.3,0.8,2.8,1.5,4.2,2.1c0,0,0,0,0.1,0c1.5,0.5,3,0.9,4.5,1.2
					l-0.1,0.8C14.4,116.7,12.8,116.3,11.2,115.7C11.3,115.7,11.3,115.7,11.2,115.7z"/>
			</g>
			<g>
				<path class="st0" d="M12.1,113.4c-1.5-0.6-3-1.3-4.4-2.1l0.4-0.7c1.3,0.8,2.8,1.5,4.2,2.1c0,0,0,0,0.1,0c1.5,0.5,3,0.9,4.5,1.2
					l-0.1,0.8C15.2,114.4,13.6,114,12.1,113.4C12.1,113.5,12.1,113.5,12.1,113.4z"/>
			</g>
			<path class="st0" d="M9.7,105.8l-1.3,3.5c0,0,1.5,1.2,4.5,2.3c2.3,0.8,4.4,0.9,4.4,0.9l0.7-1.8L9.7,105.8z"/>
		</g>
		<g>
			<g>
				<path class="st1" d="M46.9,131.1l32.5-87.5l0.5-12.2c0-0.9-1.1-1.3-1.7-0.6l-7.6,9.6l-32.5,87.5l-3.5,4.9c1.4,1,3.3,2.1,5.8,3
					c2.3,0.8,4.4,1.2,6,1.4C46.6,135,46.8,133.1,46.9,131.1z"/>
				<path class="st0" d="M40.1,136c-2-0.7-3.9-1.7-5.7-3c-0.1-0.1-0.2-0.2-0.2-0.3c0-0.1,0-0.2,0.1-0.3l3.5-4.8l32.4-87.5
					c0,0,0-0.1,0.1-0.1l7.6-9.6c0.4-0.5,1-0.6,1.5-0.4c0.6,0.2,0.9,0.7,0.9,1.3l-0.5,12.2c0,0,0,0.1,0,0.1l-32.4,87.5l-0.5,5.9
					c0,0.1-0.1,0.2-0.2,0.3s-0.2,0.1-0.3,0.1c-2.1-0.2-4.1-0.7-6.1-1.4C40.2,136,40.2,136,40.1,136z M35.2,132.6
					c1.6,1.1,3.4,2,5.2,2.6c0.1,0,0.1,0,0.2,0.1c1.8,0.6,3.6,1.1,5.5,1.3l0.5-5.5c0,0,0-0.1,0-0.1L79,43.5l0.5-12.2
					c0-0.3-0.2-0.5-0.3-0.5c-0.1,0-0.4-0.1-0.6,0.2l-7.6,9.5l-32.4,87.5c0,0,0,0.1-0.1,0.1L35.2,132.6z"/>
			</g>
			<g>
				<path class="st0" d="M73.1,41.2l6.1-10.8c-0.3-0.1-0.7,0-1,0.3l-7.6,9.6l-32.5,87.5l-3.5,4.9l3.2,1.9l2.8-5.8L73.1,41.2z"/>
			</g>
			<g>
				<path class="st1" d="M78.7,30.8c-0.3,0.4-0.6,0.8-0.9,1.2l-0.9,1.2L76,34.6l-0.9,1.2l-1.8,2.4l-1.8,2.4l0-0.1
					c-0.7,1.8-1.3,3.7-2,5.5l-2,5.5l-1,2.7l-1,2.7l-2,5.5l-4.1,10.9l-2,5.5l-1,2.7l-1,2.7l-8.1,21.9c-0.7,1.8-1.4,3.6-2,5.5l-2,5.5
					c-0.7,1.8-1.4,3.6-2.1,5.5c-0.7,1.8-1.4,3.6-2.1,5.4l0,0c0,0,0,0,0,0l-0.9,1.2l-0.9,1.2l-0.9,1.2l-0.9,1.2l0.8-1.2l0.8-1.2
					l0.8-1.2l0.9-1.2l0,0c0.6-1.8,1.3-3.7,2-5.5c0.7-1.8,1.3-3.7,2-5.5l2-5.5c0.7-1.8,1.3-3.7,2-5.5l8.1-21.9l1-2.7l1-2.7l2-5.5
					l4-10.9l2-5.5l1-2.7l1-2.7l2-5.5c0.7-1.8,1.4-3.6,2.1-5.5l0,0c0,0,0,0,0-0.1L73,38l1.9-2.4l0.9-1.2l1-1.2l1-1.2
					C78,31.6,78.3,31.2,78.7,30.8z"/>
			</g>
			<g>
				<path class="st0" d="M79.1,31c0,0.5,0,1-0.1,1.5c0,0.5,0,1-0.1,1.5s-0.1,1-0.1,1.5l-0.1,1.5c0,0.5-0.1,1-0.1,1.5l-0.1,1.5
					l-0.2,3c0,0,0,0.1,0,0.1l0,0l-1,2.7c-0.3,0.9-0.7,1.8-1,2.7l-2,5.5l-1,2.7l-1,2.7l-2,5.5L66.3,76l-2,5.5l-1,2.7l-1,2.7l-4,10.9
					l-2,5.5l-2,5.5c-0.7,1.8-1.4,3.6-2,5.5l-2.1,5.5c-0.7,1.8-1.4,3.6-2.1,5.4c-0.4,0.9-0.7,1.8-1.1,2.7c-0.4,0.9-0.7,1.8-1.1,2.7
					l0-0.1l-0.1,1.4l-0.1,1.4l-0.1,1.4c0,0.5-0.1,0.9-0.1,1.4c0-0.5,0-0.9-0.1-1.4l0-1.4l0-1.4l0-1.4c0,0,0,0,0-0.1l0,0
					c0.3-0.9,0.6-1.8,0.9-2.8c0.3-0.9,0.6-1.8,1-2.8c0.6-1.8,1.3-3.7,2-5.5l2-5.5c0.7-1.8,1.3-3.7,2-5.5l2-5.5l2-5.5l4.1-10.9l1-2.7
					l1-2.7l2-5.5l4-11l2-5.5l1-2.7l1-2.7l2.1-5.5c0.3-0.9,0.7-1.8,1-2.7l1-2.7l0,0.1l0.3-3l0.2-1.5c0.1-0.5,0.1-1,0.2-1.5l0.2-1.5
					c0.1-0.5,0.1-1,0.2-1.5c0.1-0.5,0.1-1,0.2-1.5C79,32,79.1,31.5,79.1,31z"/>
			</g>
			<g>
				<path class="st1" d="M67.8,48.3c1.2-0.1,2.5,0,3.6,0.3c1.3,0.4,2.6,0.9,3.8,1.7c0.5,0.3,1,0.7,1.4,1.2c-1.1-0.3-2.2-0.7-3.4-1.2
					c-1.2-0.5-2.5-0.9-3.7-1.4C68.9,48.8,68.3,48.5,67.8,48.3z"/>
			</g>
			<g>
				<path class="st1" d="M64.1,58.2c1.2-0.1,2.5,0,3.6,0.3c1.3,0.4,2.6,0.9,3.8,1.7c0.5,0.3,1,0.7,1.4,1.2c-1.1-0.3-2.2-0.7-3.4-1.2
					c-1.2-0.5-2.5-0.9-3.7-1.4C65.2,58.7,64.6,58.5,64.1,58.2z"/>
			</g>
			<g>
				<path class="st1" d="M56.9,77.6c1.2-0.1,2.5,0,3.6,0.3c1.3,0.4,2.6,0.9,3.8,1.7c0.5,0.3,1,0.7,1.4,1.2c-1.1-0.3-2.2-0.7-3.4-1.2
					c-1.2-0.5-2.5-0.9-3.7-1.4C58,78.1,57.4,77.8,56.9,77.6z"/>
			</g>
			<g>
				<path class="st1" d="M38.5,127c1.1,0.3,2.2,0.7,3.4,1.2c1.2,0.5,2.5,0.9,3.7,1.4c0.6,0.2,1.2,0.4,1.7,0.7c-0.5,0.1-1,0.1-1.5,0
					c-0.7-0.1-1.4-0.2-2-0.3c-1.3-0.3-2.6-0.9-3.8-1.7C39.5,127.9,39,127.5,38.5,127z"/>
			</g>
			<g>
				<path class="st1" d="M39.4,124.8c1.1,0.3,2.2,0.7,3.4,1.2c1.2,0.5,2.5,0.9,3.7,1.4c0.6,0.2,1.2,0.4,1.7,0.7
					c-0.5,0.1-1,0.1-1.5,0c-0.7-0.1-1.4-0.2-2-0.3c-1.3-0.3-2.6-0.9-3.8-1.7C40.3,125.6,39.8,125.2,39.4,124.8z"/>
			</g>
			<g>
				<path class="st1" d="M40.2,122.5c1.1,0.3,2.2,0.7,3.4,1.2c1.2,0.5,2.5,0.9,3.7,1.4c0.6,0.2,1.2,0.4,1.7,0.7
					c-0.5,0.1-1,0.1-1.5,0c-0.7-0.1-1.4-0.2-2-0.3c-1.3-0.3-2.6-0.9-3.8-1.7C41.1,123.4,40.7,123,40.2,122.5z"/>
			</g>
			<g>
				<path class="st0" d="M76.1,52.3c-1.3-0.8-2.7-1.5-4.1-2c-1.5-0.5-3-1-4.5-1.2l0.1-0.8c1.6,0.3,3.2,0.7,4.7,1.2
					c1.5,0.5,2.9,1.2,4.2,2.1L76.1,52.3z"/>
			</g>
			<g>
				<path class="st0" d="M72.5,62.2c-1.3-0.8-2.7-1.5-4.1-2c-1.5-0.5-3-1-4.5-1.2l0.1-0.8c1.6,0.3,3.2,0.7,4.7,1.2
					c1.5,0.5,2.9,1.2,4.2,2.1L72.5,62.2z"/>
			</g>
			<g>
				<path class="st0" d="M65.3,81.6c-1.3-0.8-2.7-1.5-4.1-2c0,0,0,0-0.1,0c-1.4-0.5-2.9-0.9-4.5-1.2l0.1-0.8
					c1.6,0.3,3.2,0.7,4.7,1.2c1.5,0.5,2.9,1.2,4.2,2.1L65.3,81.6z"/>
			</g>
			<g>
				<path class="st0" d="M42.5,129.9c-1.5-0.6-3-1.3-4.4-2.1l0.4-0.7c1.4,0.8,2.8,1.5,4.3,2.1c1.5,0.5,3,0.9,4.5,1.2l-0.1,0.8
					C45.6,130.9,44,130.5,42.5,129.9C42.5,129.9,42.5,129.9,42.5,129.9z"/>
			</g>
			<g>
				<path class="st0" d="M43.3,127.6c-1.5-0.6-3-1.3-4.4-2.1l0.4-0.7c1.3,0.8,2.8,1.5,4.2,2.1c0,0,0,0,0.1,0c1.5,0.5,3,0.9,4.5,1.2
					l-0.1,0.8C46.5,128.6,44.9,128.2,43.3,127.6C43.4,127.6,43.3,127.6,43.3,127.6z"/>
			</g>
			<g>
				<path class="st0" d="M44.2,125.3c-1.5-0.6-3-1.3-4.4-2.1l0.4-0.7c1.3,0.8,2.8,1.5,4.2,2.1c0,0,0,0,0.1,0c1.5,0.5,3,0.9,4.5,1.2
					l-0.1,0.8C47.3,126.3,45.7,125.9,44.2,125.3C44.2,125.4,44.2,125.3,44.2,125.3z"/>
			</g>
			<path class="st0" d="M50.8,120.4l-1.3,3.5c0,0-1.9-0.1-4.9-1.2c-2.3-0.8-3.9-2.2-3.9-2.2l0.7-1.8L50.8,120.4z"/>
		</g>
	</g>
	<path class="st1" d="M62.3,121.9c0-0.1,0.1-0.2,0.1-0.3c0.4-1,0.8-2.8,1.3-5.4c0.7-3.7-0.4-6-1.1-7.5c-0.1-0.2-0.2-0.4-0.3-0.7
		c-0.3-0.7-0.8-1.6-1.5-3c-1-2-2.5-5-4.6-9.3c-2.6-5.6-1.8-9.1-1.3-11.4c0.1-0.5,0.2-0.9,0.3-1.3c0.4-2.6,3.9-20.7,4.4-23.1l0.2-0.5
		c2.2-6,1.9-17.1,1.8-18c0-0.1,0-0.3,0-0.4c-0.1-1.6-0.4-4.2-2.6-5c-2.2-0.8-4.1,1-5.2,2.1l0,0c-0.1,0.1-0.2,0.2-0.3,0.3
		C52.7,39,45.3,47.1,43,53.2l-0.2,0.5C41.5,56.1,32.5,71.9,31.1,74c-0.2,0.4-0.4,0.8-0.7,1.2c-1.1,2.1-2.8,5.3-8.4,7.8
		c-4.3,1.9-7.5,3.2-9.6,4.1c-1.5,0.6-2.4,1-3.1,1.3c-0.2,0.1-0.4,0.2-0.7,0.3c-1.5,0.6-3.8,1.6-5.7,4.9c-1.3,2.3-2.2,3.9-2.5,4.9
		c0,0.1-0.1,0.2-0.1,0.3c-0.3,0.7-1.1,2.5,0.9,3.9c0.8,0.6,11.3,7,16.5,10.1l-0.8,2.2c-0.2,0.6-0.1,1.2,0.3,1.6l1.3,1.5l-0.3,2.5
		c-0.1,0.5,0.1,1,0.5,1.4c1,1,2.3,1.8,3.6,2.3l0,0c0.4,0.1,0.7,0.2,1.1,0.3c-1,3.8-1,4.6-0.1,5.4c0.2,0.1,0.3,0.2,0.5,0.3
		c0.2,0.1,0.4,0.1,0.6,0.1c1.2,0,1.8-0.6,3.4-4c0.5,0.2,0.9,0.4,1.4,0.6c1.3,0.4,2.8,0.5,4.2,0.3c0.5-0.1,0.9-0.3,1.1-0.7l1.4-2.1
		l2-0.3c0.6-0.1,1.1-0.5,1.3-1.1l0.8-2.2c7.1,1.2,18.1,3,19.1,3.1C61.5,124.5,62,122.6,62.3,121.9z"/>
	<g>
		<path class="st0" d="M61.4,121.6c0-0.1,0.1-0.2,0.1-0.4c0.4-0.9,0.8-2.7,1.2-5.2c0.6-3.4-0.3-5.4-1-6.9c-0.1-0.3-0.2-0.5-0.3-0.7
			c-0.3-0.6-0.7-1.5-1.4-2.9c-1-2-2.6-5.1-4.6-9.4c-2.8-5.9-1.9-9.6-1.3-12c0.1-0.5,0.2-0.9,0.3-1.3c0.5-2.6,4-21,4.4-23.2l0.2-0.5
			c2.2-5.9,1.9-16.7,1.8-17.6c0-0.1,0-0.3,0-0.4c-0.1-1.4-0.3-3.6-2-4.2c-1.7-0.6-3.2,0.9-4.2,1.9l0,0c-0.1,0.1-0.2,0.2-0.3,0.3
			c-0.7,0.7-8,8.6-10.2,14.5l-0.2,0.6c-1.1,2-10.4,18.1-11.7,20.4c-0.2,0.3-0.4,0.7-0.6,1.1c-1.2,2.2-3,5.6-8.9,8.2
			c-4.3,1.9-7.5,3.2-9.6,4.1c-1.4,0.6-2.4,1-3,1.3c-0.2,0.1-0.5,0.2-0.7,0.3c-1.5,0.6-3.5,1.5-5.3,4.5c-1.3,2.2-2.1,3.8-2.5,4.8
			c0,0.1-0.1,0.2-0.2,0.4c-0.3,0.7-0.8,1.8,0.6,2.8c0.8,0.6,12.9,8,17.1,10.5l-1.1,2.9c-0.1,0.2,0,0.5,0.1,0.7l1.5,1.8l-0.4,2.9
			c0,0.2,0,0.5,0.2,0.6c0.9,0.9,2.1,1.7,3.3,2.1l0,0c0.6,0.2,1.3,0.4,2,0.5c-1.3,4.6-1.2,5-0.7,5.4c0.1,0.1,0.2,0.1,0.3,0.2
			c0.1,0,0.2,0.1,0.3,0.1c0.6,0,1-0.2,3-4.4c0.6,0.5,1.3,0.8,2.1,1.1c1.2,0.4,2.5,0.5,3.7,0.3c0.2,0,0.4-0.2,0.5-0.3l1.6-2.4
			l2.4-0.4c0.3,0,0.5-0.2,0.6-0.5l1.1-2.9c4.8,0.8,18.7,3.1,19.8,3.2C60.8,123.5,61.2,122.3,61.4,121.6z"/>
		<g>
			<g>
				<path class="st1" d="M57.8,59.4c-0.4,2.1-4,20.7-4.4,23.2c-0.4,2.6-2.2,6.6,1.1,13.8c3.4,7.2,5.4,10.8,6,12.3
					c0.6,1.5,2,3.3,1.3,7.1c-0.5,2.6-0.9,4.2-1.2,5.1c-0.3,0.9-0.3,1.6-1.5,1.6c-1.2-0.1-20.9-3.4-20.9-3.4l-2.3-0.8L57.8,59.4z"/>
				<path class="st0" d="M38.1,119.5l-2.3-0.8c-0.2-0.1-0.3-0.3-0.3-0.6l21.8-58.9c0.1-0.2,0.3-0.3,0.5-0.3c0.2,0.1,0.3,0.3,0.3,0.5
					c-0.4,2-4,20.6-4.4,23.2c-0.1,0.4-0.2,0.8-0.3,1.3c-0.6,2.5-1.4,6.3,1.4,12.3c2,4.3,3.6,7.4,4.6,9.4c0.7,1.4,1.2,2.3,1.4,2.9
					c0.1,0.2,0.2,0.5,0.3,0.7c0.7,1.4,1.6,3.3,1,6.6c-0.5,2.5-0.9,4.2-1.2,5.2c0,0.1-0.1,0.3-0.1,0.4c-0.2,0.7-0.5,1.5-1.8,1.4
					C58,122.8,39,119.7,38.1,119.5C38.2,119.5,38.1,119.5,38.1,119.5z M36.5,118l1.8,0.7c6.8,1.1,19.9,3.3,20.8,3.3
					c0.6,0,0.7-0.1,0.9-0.8c0-0.1,0.1-0.3,0.1-0.4c0.2-0.6,0.6-2,1.2-5c0.6-3-0.3-4.7-0.9-6c-0.1-0.3-0.3-0.5-0.4-0.8
					c-0.3-0.6-0.7-1.5-1.4-2.9c-1-2-2.6-5.1-4.6-9.4c-3-6.3-2-10.3-1.4-12.9c0.1-0.4,0.2-0.8,0.3-1.2c0.3-1.9,2.2-11.8,3.4-18.1
					L36.5,118z"/>
			</g>
			<g>
				<g>
					<path class="st0" d="M60.9,118.6c0.7-3.7-1.3-7.6-2-9.1c-0.6-1.5-2.6-5.1-6-12.3C49.5,90,51.3,86,51.7,83.4
						c0.3-1.5,3.3-13.1,5.9-22.9c-0.9,4.5-3.8,19.9-4.2,22.2c-0.4,2.6-2.2,6.6,1.1,13.8c3.4,7.2,5.4,10.8,6,12.3
						c0.6,1.5,2,3.3,1.3,7.1c-0.5,2.6-0.9,4.2-1.2,5.1c-0.2,0.5-0.3,1-0.6,1.3C60.3,121.3,60.6,120.1,60.9,118.6z"/>
				</g>
			</g>
			<g>
				<path class="st0" d="M50.9,115.9l0.7,0.2l9.6,3.2c-0.1,0.4-0.2,0.8-0.3,1.1l-9.7-2.8l-0.7-0.2l-12.7-3.6l0.7-2L50.9,115.9z"/>
			</g>
			<g>
				<path class="st0" d="M49.3,120.9c0,0,0-0.1,0.1-0.4c0.1-0.2,0.2-0.6,0.3-1c0.1-0.2,0.1-0.4,0.2-0.7c0.1-0.2,0.2-0.5,0.2-0.8
					c0.2-0.5,0.4-1.1,0.6-1.6c0.1-0.3,0.2-0.6,0.3-0.8c0.1-0.3,0.2-0.5,0.3-0.8c0.2-0.5,0.4-1,0.5-1.4c0.2-0.4,0.3-0.8,0.4-1
					c0.1-0.2,0.1-0.4,0.1-0.4s0,0.1-0.1,0.4c-0.1,0.3-0.1,0.6-0.2,1c-0.1,0.4-0.2,0.9-0.3,1.5c-0.1,0.3-0.1,0.5-0.2,0.8
					c-0.1,0.3-0.1,0.6-0.2,0.9c-0.1,0.6-0.3,1.1-0.4,1.7c-0.1,0.3-0.1,0.5-0.2,0.8c-0.1,0.2-0.1,0.5-0.2,0.7c-0.1,0.4-0.2,0.8-0.3,1
					c-0.1,0.2-0.1,0.4-0.1,0.4L49.3,120.9z"/>
			</g>
			<g>
				<path class="st0" d="M19.8,112.3l-1.3,3.5l1.8,2.1l-0.4,3.2c0.5,0.5,1.5,1.4,3,1.9c1.5,0.6,2.9,0.6,3.6,0.5
					c0.4,0.5,1.5,1.6,3.3,2.2c1.5,0.5,2.7,0.4,3.4,0.3c0.6-0.9,1.2-1.8,1.8-2.7l2.7-0.4l1.3-3.5L19.8,112.3z"/>
				<path class="st0" d="M29.4,125.9c-1.4-0.5-2.4-1.4-3-2.1c-1.2,0.1-2.4-0.1-3.6-0.5l0,0c-1.2-0.4-2.2-1.1-3.1-2
					c-0.1-0.1-0.1-0.1-0.1-0.2L20,118l-1.7-2c-0.1-0.1-0.1-0.2,0-0.3l1.3-3.5c0.1-0.1,0.2-0.2,0.3-0.2l19.1,7.1
					c0.1,0.1,0.2,0.2,0.2,0.3l-1.3,3.5c0,0.1-0.1,0.2-0.2,0.2l-2.6,0.4l-1.7,2.6c0,0.1-0.1,0.1-0.2,0.1c-1.2,0.2-2.4,0.1-3.5-0.3
					C29.6,126,29.5,126,29.4,125.9z M26.6,123.3c0,0,0.1,0,0.1,0.1c0.6,0.7,1.6,1.6,3.2,2.1c1,0.3,2.1,0.4,3.1,0.3l1.7-2.6
					c0-0.1,0.1-0.1,0.2-0.1l2.5-0.4l1.2-3.1L20,112.6l-1.2,3.1l1.7,2c0,0.1,0.1,0.1,0.1,0.2l-0.4,3.1c0.8,0.8,1.8,1.4,2.8,1.8l0,0
					c1.1,0.4,2.3,0.6,3.5,0.5C26.5,123.3,26.5,123.3,26.6,123.3z"/>
			</g>
			<g>
				<path class="st1" d="M36.4,117.2c6.4-17.2,20.1-54.1,21.7-58.5c2.1-5.7,1.8-16.1,1.7-17.2c-0.1-1.1-0.1-3.4-1.5-3.9
					c-1.3-0.5-2.8,1.2-3.6,2c-0.8,0.8-7.8,8.5-9.9,14.2c-1.4,3.9-21.7,58.4-21.7,58.4l-3.3,0l19.1,7.1L36.4,117.2z"/>
				<path class="st0" d="M38.7,119.7l-19.1-7.1c-0.2-0.1-0.3-0.3-0.3-0.5c0-0.2,0.2-0.4,0.4-0.4l3,0l21.6-58.2
					c2.2-5.8,9.3-13.7,10-14.3c0.1-0.1,0.2-0.2,0.3-0.3c0.9-0.9,2.4-2.3,3.8-1.8c1.4,0.5,1.6,2.5,1.7,3.8c0,0.2,0,0.3,0,0.4
					c0.1,1,0.4,11.6-1.7,17.4l-21.6,58.2l2.3,1.9c0.2,0.1,0.2,0.4,0.1,0.5S38.9,119.8,38.7,119.7z M22.2,112.7l14.6,5.4l-0.6-0.5
					c-0.1-0.1-0.2-0.3-0.1-0.5l21.7-58.5c2.1-5.7,1.8-16.1,1.7-17c0-0.1,0-0.3,0-0.5c-0.1-1-0.2-2.7-1.1-3.1
					c-0.9-0.3-2.1,0.9-2.9,1.6c-0.1,0.1-0.2,0.2-0.3,0.3c-0.7,0.6-7.7,8.3-9.8,14l-21.7,58.4c-0.1,0.2-0.2,0.3-0.4,0.3L22.2,112.7z"
					/>
			</g>
			<g>
				<g>
					<path class="st0" d="M50.3,56.1L50.3,56.1c-0.5-0.2-0.7-0.7-0.6-1.1l0.1-0.2c0.2-0.4,0.6-0.6,1-0.5l0.1,0
						c0.4,0.2,0.6,0.6,0.5,1l-0.1,0.2C51.2,56.1,50.8,56.3,50.3,56.1z"/>
				</g>
				<g>
					<path class="st0" d="M52.5,56.9L52.5,56.9c-0.5-0.2-0.7-0.7-0.6-1.1l0.1-0.2c0.2-0.4,0.6-0.6,1-0.5l0.1,0
						c0.4,0.2,0.6,0.6,0.5,1l-0.1,0.2C53.4,56.8,52.9,57.1,52.5,56.9z"/>
				</g>
			</g>
			<g>
				<path class="st0" d="M59.8,43.8c0-1.2,0-2-0.1-2.3c-0.1-1.1-0.1-3.4-1.5-3.9c-1.3-0.5-2.8,1.2-3.6,2c-0.2,0.2-0.8,0.8-1.6,1.7
					c0,0,0.7,0.1,1.6,0.3l-0.1,0.2c-0.1,0.2,0,0.4,0.2,0.4l3.1,1.2c0.2,0.1,0.4,0,0.4-0.2l0.1-0.2C59.2,43.5,59.8,43.8,59.8,43.8z"
					/>
			</g>
			<g>
				<path class="st0" d="M50.7,44.6l0-0.7c1.7,0,3.5,0.3,5.1,0.9c1.6,0.6,3,1.5,4.2,2.6l-0.5,0.6c-1.2-1.1-2.5-1.9-4-2.4
					C54,44.9,52.4,44.6,50.7,44.6z"/>
			</g>
			<g>
				<path class="st0" d="M57,45.7l0.5-1.4c0.1-0.2,0-0.4-0.2-0.4L55,43c-0.2-0.1-0.4,0-0.4,0.2l-0.5,1.4c0.5,0.1,1,0.3,1.6,0.5
					C56.2,45.3,56.6,45.5,57,45.7z"/>
			</g>
			<g>
				
					<ellipse transform="matrix(0.3477 -0.9376 0.9376 0.3477 -5.0247 81.2422)" class="st1" cx="55.9" cy="44.2" rx="0.3" ry="0.3"/>
			</g>
			<g>
				
					<ellipse transform="matrix(0.3477 -0.9376 0.9376 0.3477 -4.7699 82.2289)" class="st1" cx="56.7" cy="44.5" rx="0.3" ry="0.3"/>
			</g>
			<g>
				<ellipse transform="matrix(0.3477 -0.9376 0.9376 0.3477 -5.2821 80.2458)" class="st1" cx="55" cy="43.9" rx="0.3" ry="0.3"/>
			</g>
			<g>
				
					<rect x="18.3" y="79.6" transform="matrix(0.3478 -0.9376 0.9376 0.3478 -47.2001 92.1321)" class="st0" width="48.6" height="0.7"/>
			</g>
			<g>
				<polygon class="st2" points="30.7,122.2 24.1,119.8 27.1,115 31.6,116.6 				"/>
			</g>
			<g>
				<path class="st0" d="M23.1,118.3C23,118.3,23,118.3,23.1,118.3l-3.4-3.3c-0.1-0.1-0.1-0.1-0.1-0.2c0-0.1,0-0.2,0.1-0.2L22,113
					c0.1-0.1,0.2-0.1,0.3,0l3.5,1.4c0.1,0,0.1,0.1,0.2,0.2c0,0.1,0,0.2,0,0.2l-2.5,3.5c0,0.1-0.1,0.1-0.2,0.1
					C23.1,118.4,23.1,118.4,23.1,118.3z M20.3,114.9l2.8,2.8l2.1-3l-3-1.2L20.3,114.9z"/>
			</g>
			<g>
				<path class="st1" d="M35.6,104.6c0.5-0.5,1.2-0.7,1.8-0.5l2.3,0.9c0.7,0.3,1.5,1.3,1.7,2.7c0.2,1.4-0.1,4.7-1.3,8.1
					c-1.3,3.4-1.3,3.5-1.3,3.5l-8.2-3c0,0,3.1-8.4,3.6-9.7C34.6,105.9,35.1,105.2,35.6,104.6z"/>
				<path class="st0" d="M38.7,119.7l-8.2-3c-0.2-0.1-0.3-0.3-0.3-0.6l3.6-9.7c0.2-0.6,0.7-1.3,1.4-2.1c0.6-0.6,1.5-0.9,2.3-0.6
					l2.3,0.9c0.8,0.3,1.8,1.4,2,3c0.2,1.7-0.2,5-1.4,8.3l-1.3,3.5C39.2,119.7,38.9,119.8,38.7,119.7z M31.2,116.1l7.4,2.7l1.2-3.1
					c1.3-3.5,1.5-6.6,1.3-7.9c-0.2-1.2-0.9-2.1-1.5-2.4l-2.3-0.9c-0.5-0.2-1,0-1.4,0.3c-0.6,0.7-1,1.3-1.2,1.8L31.2,116.1z"/>
			</g>
			<g>
				<g>
					<path class="st1" d="M27,115.7c0.7,0.1,1.5,0.4,2.2,0.6c0.7,0.3,1.4,0.5,2.1,0.9c-0.7-0.1-1.5-0.4-2.2-0.6
						C28.3,116.4,27.6,116.1,27,115.7C27.7,115.8,27.6,116.1,27,115.7z"/>
				</g>
				<g>
					<path class="st1" d="M26.3,116.9c0.8,0.2,1.6,0.4,2.4,0.7c0.8,0.3,1.6,0.6,2.3,1c-0.8-0.1-1.6-0.4-2.4-0.7
						C27.8,117.6,27,117.3,26.3,116.9C26.9,117,26.6,117,26.3,116.9z"/>
				</g>
				<g>
					<path class="st1" d="M25.6,118c0.7,0.1,1.4,0.4,2,0.6c0.7,0.2,1.3,0.5,2,0.8c0.4,0.2,0.7,0.3,1.1,0.5c-0.7-0.1-1.3-0.4-2-0.6
						c-0.7-0.2-1.3-0.5-2-0.8C26.3,118.4,26,118.2,25.6,118C26.3,118.1,25.9,118.2,25.6,118z"/>
				</g>
				<g>
					<path class="st1" d="M25,119.1c0.7,0.2,1.5,0.4,2.2,0.6c0.7,0.3,1.5,0.5,2.2,0.8c0.4,0.2,0.8,0.3,1.2,0.6
						c-0.7-0.2-1.5-0.4-2.2-0.6c-0.7-0.3-1.5-0.5-2.2-0.8C25.7,119.5,25.3,119.3,25,119.1C25.7,119.3,25.3,119.3,25,119.1z"/>
				</g>
				<g>
					<path class="st1" d="M24.3,120.3c0.8,0.2,1.6,0.4,2.4,0.7c0.8,0.3,1.5,0.6,2.3,0.9c0.4,0.2,0.9,0.4,1.3,0.6
						c-0.8-0.2-1.6-0.4-2.4-0.7c-0.8-0.3-1.5-0.6-2.3-0.9C25.1,120.7,24.7,120.5,24.3,120.3C25,120.4,24.6,120.4,24.3,120.3z"/>
				</g>
			</g>
			<g>
				<g>
					<path class="st1" d="M22.6,113.5c0.5,0.2,0.9,0.6,1.4,0.9c0.4,0.3,0.8,0.7,1.1,1.1c-0.5-0.2-0.9-0.6-1.4-0.9
						C23.3,114.3,22.9,114,22.6,113.5C23.1,113.8,22.9,114,22.6,113.5z"/>
				</g>
				<g>
					<path class="st1" d="M22,114.1c0.5,0.3,1,0.6,1.5,1c0.4,0.4,0.9,0.7,1.2,1.2c-0.5-0.3-1-0.6-1.5-1
						C22.8,114.9,22.3,114.5,22,114.1C22.5,114.3,22.3,114.5,22,114.1z"/>
				</g>
				<g>
					<path class="st1" d="M21.3,114.6c0.6,0.3,1.1,0.7,1.6,1.1c0.5,0.4,1,0.8,1.3,1.3c-0.6-0.3-1.1-0.7-1.6-1.1
						C22.2,115.5,21.7,115.1,21.3,114.6C21.9,114.9,21.7,115.1,21.3,114.6z"/>
				</g>
				<g>
					<path class="st1" d="M20.7,115.2c0.6,0.3,1.2,0.8,1.7,1.2c0.5,0.4,1,0.9,1.5,1.4c-0.6-0.3-1.2-0.8-1.7-1.2
						C21.6,116.1,21.1,115.7,20.7,115.2C21.3,115.5,21.1,115.7,20.7,115.2z"/>
				</g>
				<g>
					<path class="st1" d="M20.1,115.7c0.7,0.4,1.3,0.8,1.9,1.3c0.6,0.5,1.1,0.9,1.6,1.5c-0.7-0.4-1.3-0.8-1.9-1.3
						C21.1,116.7,20.5,116.2,20.1,115.7C20.7,116,20.5,116.3,20.1,115.7z"/>
				</g>
			</g>
			<g>
				<g>
					<path class="st1" d="M35.7,118.4c-0.5,0.1-1,0.1-1.5,0.1c-0.5,0-1.1,0-1.6-0.2c0.5-0.1,1-0.1,1.5-0.1
						C34.6,118.2,35.2,118.2,35.7,118.4C35.2,118.5,35.2,118.3,35.7,118.4z"/>
				</g>
				<g>
					<path class="st1" d="M35.9,119.2c-0.6,0.1-1.1,0.1-1.7,0.1c-0.6,0-1.2-0.1-1.8-0.2c0.6-0.1,1.1-0.1,1.7-0.1
						C34.7,119,35.3,119.1,35.9,119.2C35.3,119.4,35.3,119.1,35.9,119.2z"/>
				</g>
				<g>
					<path class="st1" d="M36,120.1c-0.6,0.1-1.2,0.1-1.9,0.1c-0.6,0-1.3-0.1-1.9-0.2c0.6-0.1,1.2-0.1,1.9-0.1
						C34.7,119.9,35.4,119.9,36,120.1C35.4,120.2,35.4,119.9,36,120.1z"/>
				</g>
				<g>
					<path class="st1" d="M36.1,120.9c-0.7,0.1-1.4,0.1-2,0.1c-0.7,0-1.4-0.1-2.1-0.2c0.7-0.1,1.4-0.1,2-0.1
						C34.7,120.7,35.5,120.7,36.1,120.9C35.5,121,35.5,120.7,36.1,120.9z"/>
				</g>
				<g>
					<path class="st1" d="M36.3,121.7c-0.7,0.1-1.4,0.1-2.2,0.1c-0.8,0-1.5-0.1-2.3-0.2c0.7-0.1,1.4-0.1,2.2-0.1
						C34.8,121.5,35.5,121.5,36.3,121.7C35.5,121.8,35.6,121.5,36.3,121.7z"/>
				</g>
			</g>
			<g>
				<path class="st1" d="M20.1,120.8c0.7,0.5,1.5,0.9,2.3,1.3c0.8,0.4,1.7,0.6,2.5,0.8c0.4,0.1,0.9,0.1,1.3,0.2
					c-1.8,0.2-3.7-0.3-5.1-1.4C20.7,121.4,20.4,121.1,20.1,120.8z"/>
			</g>
			<g>
				<path class="st1" d="M26.9,123.3c0.7,0.5,1.5,0.9,2.3,1.3c0.8,0.4,1.7,0.6,2.5,0.8c0.4,0.1,0.9,0.1,1.3,0.2
					c-1.8,0.2-3.7-0.3-5.1-1.4C27.6,124,27.2,123.7,26.9,123.3z"/>
			</g>
			<g>
				<path class="st1" d="M34.2,102.8c-0.4-0.1-1.9,1.4-4.2,7.5c-1.7,4.5-6,18.3-5.5,18.7c0.6,0,6.4-13.3,8-17.8
					C34.7,105.1,34.6,102.9,34.2,102.8z"/>
				<path class="st0" d="M24.3,129.4c0,0-0.1,0-0.1-0.1c-0.3-0.2-0.6-0.5,1.8-8.3c1.2-4,2.7-8.6,3.6-10.9c1.9-5.2,3.7-8.1,4.7-7.7
					c0.2,0.1,0.7,0.3,0.4,2.4c-0.2,1.6-0.9,3.8-1.9,6.5c-0.8,2.3-2.7,6.7-4.4,10.6c-3.3,7.5-3.7,7.5-4,7.5
					C24.4,129.4,24.4,129.4,24.3,129.4z M34,103.3c-0.5,0.5-1.8,2.3-3.6,7.1c-1.4,3.8-4.2,12.7-5.2,16.6c1.8-3.6,5.5-12.2,6.9-16
					C33.9,106.2,34.1,104,34,103.3z"/>
			</g>
			<g>
				<path class="st1" d="M44.5,54.5C43.4,56.4,34.1,72.7,32.7,75c-1.3,2.2-2.6,6.5-9.9,9.7c-7.3,3.2-11.1,4.7-12.6,5.4
					s-3.7,1.2-5.6,4.5c-1.3,2.3-2.1,3.8-2.4,4.6c-0.3,0.9-0.8,1.5,0.1,2.2c0.9,0.7,18,11.1,18,11.1l2.3,0.8L44.5,54.5z"/>
				<path class="st0" d="M22.5,113.7l-2.3-0.8c0,0-0.1,0-0.1,0c-0.7-0.4-17.1-10.4-18.1-11.1c-1.1-0.8-0.7-1.6-0.4-2.3
					c0.1-0.1,0.1-0.3,0.2-0.4c0.3-0.9,1.2-2.5,2.4-4.7c1.7-2.9,3.6-3.7,5-4.3c0.3-0.1,0.5-0.2,0.7-0.3c0.6-0.3,1.5-0.7,3-1.3
					c2.1-0.9,5.2-2.2,9.6-4.1c6.1-2.7,7.9-6.2,9.1-8.5c0.2-0.4,0.4-0.8,0.6-1.1c1.4-2.3,10.8-18.7,11.8-20.5
					c0.1-0.2,0.4-0.3,0.6-0.2c0.2,0.1,0.3,0.3,0.2,0.5l-21.8,58.9C23,113.7,22.7,113.8,22.5,113.7z M20.6,112.1l1.8,0.7l19.9-53.6
					c-3.2,5.6-8.2,14.3-9.2,16c-0.2,0.3-0.4,0.7-0.6,1.1c-1.3,2.4-3.2,6-9.5,8.8c-4.4,2-7.5,3.3-9.6,4.1c-1.4,0.6-2.4,1-2.9,1.3
					c-0.2,0.1-0.5,0.2-0.8,0.3c-1.4,0.6-3.1,1.3-4.6,4c-1.6,2.7-2.2,4-2.4,4.6c-0.1,0.2-0.1,0.3-0.2,0.4c-0.3,0.7-0.3,0.9,0.1,1.2
					C3.3,101.6,14.7,108.5,20.6,112.1z"/>
			</g>
			<g>
				<g>
					<path class="st0" d="M3.7,97.6c2.3-3.3,5.6-4.3,7.1-5c1.5-0.7,5.2-1.9,12.5-5.2c7.3-3.2,9.3-8.4,10.7-10.6
						c0.8-1.3,5.6-12.2,10.1-21.4c-2.3,4-10.1,17.5-11.3,19.6c-1.3,2.3-2.6,6.5-9.9,9.7c-7.3,3.2-11.1,4.7-12.6,5.4
						s-3.7,1.2-5.6,4.5c-1.3,2.3-2.1,3.8-2.4,4.6c-0.2,0.5-0.5,0.9-0.4,1.4C2.2,99.8,2.8,98.8,3.7,97.6z"/>
				</g>
			</g>
			<g>
				<path class="st0" d="M11.7,106.2c4.5,2.8,9,5.5,9,5.5l2.3,0.8l1.2-3.3l-11.6-5.3L11.7,106.2z"/>
			</g>
			<g>
				<path class="st0" d="M10.1,106.3c0,0,0.1-0.1,0.2-0.4c0.1-0.2,0.3-0.6,0.5-1c0.1-0.2,0.2-0.4,0.3-0.6c0.1-0.2,0.2-0.5,0.3-0.7
					c0.2-0.5,0.5-1,0.8-1.5c0.1-0.3,0.3-0.5,0.4-0.8c0.1-0.3,0.3-0.5,0.4-0.8c0.3-0.5,0.5-0.9,0.7-1.3c0.2-0.4,0.4-0.7,0.5-0.9
					c0.1-0.2,0.2-0.4,0.2-0.4s0,0.1-0.1,0.4c-0.1,0.2-0.2,0.6-0.4,1c-0.2,0.4-0.3,0.9-0.5,1.4c-0.1,0.3-0.2,0.5-0.3,0.8
					c-0.1,0.3-0.2,0.5-0.3,0.8c-0.2,0.5-0.4,1.1-0.6,1.6c-0.1,0.3-0.2,0.5-0.3,0.7c-0.1,0.2-0.2,0.5-0.3,0.7c-0.2,0.4-0.3,0.7-0.4,1
					c-0.1,0.2-0.2,0.4-0.2,0.4L10.1,106.3z"/>
			</g>
			<g>
				<path class="st0" d="M7.3,101.4l-0.6,0.3c-0.4,0.2-0.7,0.5-1,0.9c1.2,0.8,2.7,1.7,4.2,2.6l1-2.1L7.3,101.4z"/>
			</g>
			<g>
				<path class="st0" d="M12.1,101l0.3-0.6c-0.5,0-1.1,0.1-1.6,0.1L12.1,101z"/>
			</g>
			<g>
				<path class="st0" d="M25.7,92.1c-1.7,3.7-4,7.6-9.1,8.1c-0.7,0.1-1.6,0.1-2.6,0.1l-0.5,1.3l11.8,4.8l19.2-51.9
					C43.1,57.3,27.4,88.5,25.7,92.1z"/>
			</g>
			<g>
				<path class="st0" d="M12.9,101.8l-0.6-0.3l-9.4-3.8c-0.2,0.4-0.3,0.7-0.5,1l9.2,4.2l0.7,0.3l12,5.5l0.7-2L12.9,101.8z"/>
			</g>
			<g>
				<g>
					<path class="st0" d="M49.3,52.1l-1.2,0c-0.1,0-0.1,0-0.2,0c-0.1,0-0.2-0.1-0.3-0.2c-0.1-0.1-0.1-0.3-0.1-0.5l0.7-1.9
						c0.1-0.3,0.5-0.5,0.7-0.5l2.5-0.7c0,0,0.1,0,0.1,0c0.8-1.3,1.6-2.6,2.4-3.9c0.1-0.1,0.3,0,0.3-0.1c0.1-0.2,0.1-0.6,0.3-0.8
						c1.5-2.3,3-4.4,4-5.7c-0.1,0-0.1-0.1-0.2-0.1c-1.3-0.5-2.8,1.2-3.6,2c-0.8,0.8-7.8,8.5-9.9,14.2c-1.4,3.9-21.7,58.4-21.7,58.4
						l-3.3,0l3.3,1.2l3.3,0c0,0,20.2-54.5,21.7-58.4c0.3-0.9,0.8-1.9,1.4-3C49.3,52.1,49.3,52.1,49.3,52.1z"/>
				</g>
			</g>
			<g>
				<path class="st1" d="M47.4,56.9c-0.6-0.4-1.3-0.7-1.9-1c0.7,0.1,1.4,0.3,2.1,0.5C47.6,56.6,47.5,56.8,47.4,56.9z"/>
			</g>
			<g>
				<path class="st1" d="M43.1,68.7c-0.6-0.4-1.3-0.7-1.9-1c0.7,0.1,1.4,0.3,2.1,0.5C43.2,68.4,43.1,68.6,43.1,68.7z"/>
			</g>
			<g>
				<path class="st1" d="M38.7,80.5c-0.6-0.4-1.3-0.7-1.9-1c0.7,0.1,1.4,0.3,2.1,0.5C38.8,80.1,38.8,80.3,38.7,80.5z"/>
			</g>
			<g>
				<path class="st1" d="M34.3,92.2c-0.6-0.4-1.3-0.7-1.9-1c0.7,0.1,1.4,0.3,2.1,0.5C34.5,91.9,34.4,92.1,34.3,92.2z"/>
			</g>
			<g>
				<g>
					<path class="st0" d="M44.1,55.7c0.4-0.1,0.8-0.1,1.1-0.1c0.5,0,1,0,1.5,0.1c1,0.1,1.9,0.3,2.9,0.6c1.9,0.5,3.8,1.4,5.5,2.4
						c0.5,0.3,0.9,0.6,1.3,0.9c0.3,0.3,0.7,0.6,1,0.9c-0.7-0.5-1.4-0.9-2.2-1.2c-0.9-0.4-1.8-0.8-2.7-1.2c-1.8-0.7-3.7-1.4-5.6-1.9
						C46,56,45,55.8,44.1,55.7z"/>
				</g>
				<g>
					<path class="st0" d="M39.7,67.4c0.4-0.1,0.8-0.1,1.1-0.1c0.5,0,1,0,1.5,0.1c1,0.1,1.9,0.3,2.9,0.6c1.9,0.5,3.8,1.4,5.5,2.4
						c0.5,0.3,0.9,0.6,1.3,0.9c0.3,0.3,0.7,0.6,1,0.9c-0.7-0.5-1.4-0.9-2.2-1.2c-0.9-0.4-1.8-0.8-2.7-1.2c-1.8-0.7-3.7-1.4-5.6-1.9
						C41.6,67.8,40.7,67.6,39.7,67.4z"/>
				</g>
				<g>
					<path class="st0" d="M35.3,79.2c0.4-0.1,0.8-0.1,1.1-0.1c0.5,0,1,0,1.5,0.1c1,0.1,1.9,0.3,2.9,0.6c1.9,0.5,3.8,1.4,5.5,2.4
						c0.5,0.3,0.9,0.6,1.3,0.9c0.3,0.3,0.7,0.6,1,0.9c-0.7-0.5-1.4-0.9-2.2-1.2c-0.9-0.4-1.8-0.8-2.7-1.2c-1.8-0.7-3.7-1.4-5.6-1.9
						C37.2,79.5,36.3,79.3,35.3,79.2z"/>
				</g>
				<g>
					<path class="st0" d="M31,91c0.4-0.1,0.8-0.1,1.1-0.1c0.5,0,1,0,1.5,0.1c1,0.1,1.9,0.3,2.9,0.6c1.9,0.5,3.8,1.4,5.5,2.4
						c0.5,0.3,0.9,0.6,1.3,0.9c0.3,0.3,0.7,0.6,1,0.9c-0.7-0.5-1.4-0.9-2.2-1.2c-0.9-0.4-1.8-0.8-2.7-1.2c-1.8-0.7-3.7-1.4-5.6-1.9
						C32.9,91.3,31.9,91.1,31,91z"/>
				</g>
			</g>
			<g>
				<path class="st1" d="M27.4,100.8c0.2-0.7,0.5-1.3,0.7-2c0.7-1.8,1.3-3.5,2-5.3c0.8-2.3,1.7-4.5,2.5-6.8c0.9-2.4,1.8-4.9,2.7-7.3
					c0.9-2.5,1.9-5,2.8-7.5c1-2.5,1.9-5.1,2.9-7.6c0.9-2.5,1.9-5,2.8-7.5c0.2-0.6,0.5-1.2,0.7-1.8c0.2-0.6,0.5-1.2,0.7-1.8
					c0.5-1.2,1.2-2.3,1.9-3.4c1.3-2.1,2.8-4.2,4.4-6.2c0.8-1,1.5-1.9,2.3-2.8c0.7-0.8,1.5-1.6,2.4-2.4c0.3-0.3,0.7-0.5,1.1-0.7
					c-0.4,0.2-0.8,0.5-1.1,0.8c-0.4,0.4-0.8,0.8-1.2,1.2c-0.8,0.9-1.6,1.8-2.3,2.7c-1.6,2-3,4-4.4,6.1c-0.7,1.1-1.4,2.3-2,3.4
					c-0.3,0.6-0.6,1.2-0.9,1.8c-0.2,0.6-0.5,1.3-0.7,1.9c-0.9,2.5-1.9,5-2.8,7.6c-1,2.6-1.9,5.2-2.9,7.8c-0.9,2.6-1.9,5.1-2.8,7.7
					c-0.9,2.5-1.8,5-2.8,7.5c-0.9,2.3-1.7,4.6-2.6,6.9c-0.7,1.9-1.4,3.7-2.1,5.6c-0.2,0.5-0.4,1.1-0.6,1.6c-0.1,0.1-0.1,0.3-0.2,0.4
					c0,0,0,0.2-0.1,0.2c0,0-0.1,0-0.2-0.1C27.6,100.9,27.5,100.8,27.4,100.8z"/>
			</g>
			<g>
				<path class="st1" d="M31.9,103.3c0-0.7-0.5-1.3-1.1-1.5l-2.3-0.9c-0.7-0.3-2,0-3.1,0.9c-1.1,1-3,3.6-4.2,7
					c-1.3,3.4-1.3,3.5-1.3,3.5l8.2,3c0,0,3.1-8.4,3.6-9.7C31.8,104.9,31.9,104,31.9,103.3z"/>
				<path class="st0" d="M27.8,115.7l-8.2-3c-0.2-0.1-0.3-0.3-0.3-0.6l1.3-3.5c1.2-3.2,3.1-6.1,4.4-7.2c1.3-1.1,2.7-1.3,3.5-1
					l2.3,0.9c0.8,0.3,1.4,1.1,1.4,1.9c0,1-0.1,1.8-0.3,2.5l-3.6,9.7C28.3,115.7,28.1,115.8,27.8,115.7z M20.3,112l7.4,2.7l3.5-9.3
					c0.2-0.5,0.3-1.3,0.3-2.1c0-0.5-0.3-1-0.8-1.2l-2.3-0.9c-0.6-0.2-1.7,0-2.6,0.8c-1,0.8-2.8,3.3-4.1,6.8L20.3,112z"/>
			</g>
			<g>
				<path class="st1" d="M40.4,62.1c-0.5,1-1,1.9-1.5,2.9c-0.8,1.5-1.6,3-2.4,4.5c-0.8,1.6-1.6,3.1-2.4,4.7
					c-0.4,0.8-0.9,1.6-1.3,2.4c-0.4,0.8-0.8,1.6-1.4,2.4c-1,1.4-2.2,2.7-3.6,3.7c-1.4,1-2.9,1.9-4.4,2.6c-1.6,0.8-3.3,1.5-4.9,2.2
					c-1.7,0.7-3.3,1.4-5,2.1c-0.8,0.3-1.7,0.7-2.5,1c-0.4,0.2-0.8,0.4-1.2,0.5c-0.4,0.2-0.8,0.3-1.2,0.5c-0.8,0.3-1.5,0.8-2.2,1.3
					c-0.6,0.5-1.1,1-1.5,1.6c-0.2,0.2-0.3,0.5-0.5,0.7C5.1,94,6,92.9,7.2,92.1c0.7-0.5,1.5-0.9,2.3-1.2c0.8-0.3,1.5-0.7,2.3-1
					c1.6-0.7,3.2-1.4,4.8-2c1.6-0.7,3.3-1.4,4.9-2.1c1.6-0.7,3.1-1.4,4.6-2.3c1.4-0.9,2.7-1.9,3.8-3.2c0.6-0.6,1.1-1.4,1.6-2.1
					c0.5-0.8,0.9-1.6,1.3-2.4c0.8-1.5,1.7-3.1,2.5-4.6c0.8-1.5,1.6-2.9,2.5-4.4c0.8-1.4,1.6-2.7,2.4-4.1
					C40.2,62.5,40.3,62.3,40.4,62.1z"/>
			</g>
			<g>
				<path class="st1" d="M53.6,45.4c-0.6-0.3-1.2-0.5-1.9-0.7c0.7,0,1.4,0.1,2.1,0.2C53.7,45.1,53.6,45.3,53.6,45.4z"/>
			</g>
			<g>
				<path class="st0" d="M21,111.7l6.4,2.4l0.7-1.8c-1.3-0.9-3.5-2.8-2.9-5.3c0.6-2.5,1.6-4.1,2.5-5.3c-0.4,0-1.1,0.2-1.7,0.8
					c-0.9,0.8-2.7,3.2-4,6.6L21,111.7z"/>
			</g>
			<g>
				<path class="st0" d="M38.2,105.6C38.2,105.6,38.2,105.5,38.2,105.6l-1.1-0.5c-0.3-0.1-0.6,0-0.8,0.2c-0.5,0.6-0.9,1.2-1.1,1.6
					l-3.3,8.8l1.7,0.6c0.8-2.2,2.9-7.8,3.3-8.8C37.1,106.8,37.7,106.1,38.2,105.6z"/>
			</g>
			<g>
				<path class="st0" d="M48.8,49.6l-0.7,1.9l1.2,0c0.2,0,0.3-0.1,0.3-0.2l0.2-0.5c0.1-0.2,0-0.3-0.1-0.4L48.8,49.6z"/>
			</g>
			<g>
				<path class="st0" d="M51.6,48.8L49,49.5l0.9,0.7c0.1,0.1,0.2,0.1,0.3,0.1L51,50c0.1,0,0.2-0.1,0.3-0.2L51.6,48.8z"/>
			</g>
			<g>
				<path class="st0" d="M56.2,53.1L56,53.7c-0.1,0.1,0,0.3,0.1,0.4l0.9,0.8l0.7-1.9l-1.2-0.1C56.4,52.9,56.3,53,56.2,53.1z"/>
			</g>
			<g>
				<path class="st0" d="M57.6,52.6l-1.5-2.1l-0.4,0.9c0,0.1,0,0.2,0,0.3l0.4,0.6c0.1,0.1,0.2,0.2,0.3,0.2L57.6,52.6z"/>
			</g>
			<g>
				<path class="st0" d="M51.7,50.6l3.2,1.2c0.2,0.1,0.4,0,0.5-0.2l0,0l0.6-1.4c-0.2-0.2-0.9-0.8-1.8-1.2c-0.9-0.3-1.9-0.3-2.2-0.3
					l-0.5,1.4l0,0C51.4,50.3,51.5,50.5,51.7,50.6z"/>
			</g>
			<g>
				<path class="st0" d="M30,110.2c-1.7,4.5-6,18.3-5.5,18.7l9.7-26.2C33.8,102.6,32.2,104.1,30,110.2z"/>
			</g>
			<g>
				<g>
					<ellipse transform="matrix(0.3477 -0.9376 0.9376 0.3477 -1.6732 80.4099)" class="st1" cx="57" cy="41.4" rx="0.7" ry="0.4"/>
				</g>
				<g>
					<path class="st1" d="M56.2,40.4C56.2,40.3,56.2,40.3,56.2,40.4c-0.2-0.1-0.5,0.1-0.7,0.5c-0.2,0.4-0.2,0.7,0,0.8
						c0.2,0.1,0.5-0.1,0.7-0.5C56.4,40.8,56.4,40.4,56.2,40.4z"/>
				</g>
				<g>
					<path class="st1" d="M58.2,41.1C58.2,41.1,58.2,41.1,58.2,41.1c-0.2-0.1-0.5,0.2-0.5,0.6c-0.1,0.4,0,0.7,0.2,0.8c0,0,0,0,0,0
						c0.1,0,0.2,0,0.3-0.1c0.1-0.1,0.2-0.3,0.2-0.5C58.5,41.5,58.4,41.1,58.2,41.1z"/>
				</g>
			</g>
		</g>
	</g>
</g>
</svg>
