<?xml version="1.0" encoding="utf-8"?>
<!-- Generator: Adobe Illustrator 21.0.2, SVG Export Plug-In . SVG Version: 6.00 Build 0)  -->
<svg version="1.1" id="Emblem" xmlns="http://www.w3.org/2000/svg" xmlns:xlink="http://www.w3.org/1999/xlink" x="0px" y="0px"
	 viewBox="0 0 269.5 458.4" style="enable-background:new 0 0 269.5 458.4;" xml:space="preserve">
<style type="text/css">
	.st0{fill:#2D2C2C;}
</style>
<g>
	<path class="st0" d="M268.1,159.4l-0.1-0.2c-0.5-1.7-1.2-3.3-2.1-4.8l-0.3-0.6l0.1-0.7c0.3-3.3-0.7-6.4-3-9.3l-0.3-0.4l-0.1-0.6
		c-0.3-2.3-1.3-5.9-3.9-10.2c-1.7-2.9-4-5.4-6.9-7.6l-0.5-0.4l-0.2-0.6c-0.7-2.3-2.1-4.5-3.5-6.6c-0.6-0.9-1.1-1.7-1.4-2.2l-0.4-0.7
		l0.2-0.8c1-4.2-1.8-8.1-5.1-10.1l-1.1-0.7l-0.3-0.5c-0.2-0.3-0.5-0.8-1.2-2.6c-0.2-0.5-0.5-1.1-0.7-1.6l-0.5-0.9l0.4-1
		c6.2-13.4,3.8-23.4,0.8-29.5c-5-10-15.2-15.5-22.9-17.3l-2-0.5l-1.3-2.1l0.8-1.2c0.4-0.6,0.8-1.3,1-2c1.2-3.6,0.7-7.8,0.3-11.3
		c-0.1-0.6-0.1-1.2-0.2-1.7c-0.5-4.9-4.4-8.4-11.9-10.5c-5.6-1.6-16.6-3.8-21-4.7l-0.7-0.1l-0.5-0.5c-8.9-9.4-20.5-14.7-32.9-15
		c-13.6-0.2-25.9,5.5-34.5,16.1l-0.5,0.6l-0.8,0.1c-15.5,2.7-24.6,7.1-26.4,12.8c-0.1,0.4-0.2,0.8-0.3,1.1l-0.2,1l-0.9,0.4
		c-4.1,2.1-4.8,5.2-5.1,8.6l0,0.3c-1,9.8-0.7,16,1,19.4l0.4,0.9l-0.4,0.9c-1.1,2.5-1,10.6,0.6,15.5c0.3,0.9,0.7,1.6,1.1,2.3l0.8,1.2
		l-0.8,1.2c-0.6,0.9-0.9,1.8-0.9,2.9c-0.1,1.2-0.1,6.7,0.6,11.4l0.2,1.3l-1.1,0.7c-0.3,0.2-0.6,0.4-0.8,0.6c-1.6,1.1-5.6,4-8.6,7.3
		l-2.2,2.3l-1.3-2.9c-2.1-4.6-4.8-9.1-6.9-11.6c-0.9-1-1.9-1.9-3.1-2.7l-1.1-0.7l0.1-1.3c0.6-6.3,0.9-12.6-4-15.5
		c-1-0.6-2.1-0.9-3.1-0.9l-0.1,0c-1,0-2.5,0.3-4.1,1.6l-1.8,1.5l-1.3-2c-0.8-1.3-1.8-2.7-2.7-4.1c-4.6-7-7.7-11.6-12.3-11.7l-0.1,0
		c-1.2,0-2.5,0.4-3.7,1.1c-1,0.6-1.7,1.4-2.2,2.3l-0.9,1.6l-1.7-0.6c-0.8-0.3-1.6-0.5-2.4-0.5l-0.1,0c-1.8,0-3.4,0.7-4.7,2.1
		c-0.6,0.7-1.5,1.8-1.8,3.5l-0.2,1.3L7,69.8c-1.2,0.4-2.2,1.1-3.1,2.1c-1.9,2.5-1.8,5.2-1.6,6.7l0.2,1.1l-0.7,0.8
		c-0.3,0.3-0.5,0.6-0.8,0.9c-3,4.5,1.2,10.1,4.6,14c0.7,0.8,4.6,5,8.6,8.8l1,1l-0.5,1.3c-1.3,3.4-1.7,7.1-1.3,11.1
		c0.9,8,2.6,14.7,4.8,19.4c0.6,1.2,1.9,4.1,4.6,6.2l0.8,0.6l0,1c0,2.3,0.3,4.3,0.9,5.8c0.9,2.1,2.9,4.6,5.9,7.2l0.3,0.3l0.2,0.4
		c5.2,11.4,12.1,18.2,14,20c5.2,4.8,15.3,8.2,21.5,8.3l0.3,0c1.3,0,2.4-0.1,3.4-0.4c2.4-0.7,4.5-1.6,6.6-2.9l8.6-5.2l-5.7,8.3
		c-3.3,4.7-5,9.4-5.1,13.9c-0.1,4.1,1.1,10.1,7.4,15.5c2,1.7,4.3,2.9,7.1,3.6l2.3,0.6l-0.9,2.2c-0.9,2.2-1,4.3-0.5,6.3
		c0.8,3.1,2.5,5,3.8,6.3l1,0.9l-0.4,1.3c-0.5,1.5-0.6,3.3-0.3,5l0.1,0.7l-0.3,0.6c-1.3,2.7-1.6,6.8-0.9,11.8l0.1,0.4l-0.1,0.4
		c-0.9,3.9-2.9,13.8-1.2,20.2l0.2,0.8l-0.4,0.7c-2.9,5.1-4,10.3-3.7,17.6c0.2,5.3,1.3,11.4,3,16l0.3,0.8l-0.4,0.8
		c-2.3,4.6-3.6,10-3.7,15.4c-0.1,5,1.1,9.7,3.7,14.4l0.6,1l-0.6,1.2c-2.2,3.9-5.4,9.7-5.5,14.5c-0.1,3.7,1,6.9,1.9,8.9l0.4,0.9
		l-0.5,0.9c-0.8,1.6-1.3,3-1.5,4.3c-0.2,1.9,0.5,3.8,2,5.6L88,381l-0.1,0.9c-0.5,4.2-0.7,7.5-0.7,9.7c0.1,2.9,0.8,4.5,1.3,6
		c0.4,1,0.8,2,1.1,3.7c0.3,2,0.1,4.5,0,7.2c-0.2,2.7-0.4,5.5-0.1,8.2c0,0.5,0.1,1,0.2,1.4l0.1,1l-1,1.2c-3.2,3.5-7.1,7.8-8.3,13.4
		c-1,4.6-2.4,15.9,5.2,19.8c3.4,1.7,10.3,3.8,18.5,3.9c5.4,0.1,10.3-0.7,14.3-2.3c10.9-4.4,21.5-16.8,22.7-21.3
		c1-3.9,0.4-10.6,0.1-13.3l0-0.2l0-0.2c0.3-3.4,0-8.9-0.5-14.7l-0.2-2.1l0.3-0.5c0.9-1.8,1.7-4.9,1.1-8.2l-0.1-0.8l0.4-0.7
		c0.4-0.6,1.1-1.5,1.7-2.3c1.5-1.9,3.2-4,3.6-6.6c0.3-2.2-0.1-4-0.3-5.4c-0.3-1.5-0.4-2.3-0.2-3.3c0.2-0.7,0.4-1.6,0.7-2.7l0-0.1
		c1.2-4.1,2.8-9.8,2.3-13.8c-0.5-4.4-0.3-7-0.1-8.4l-0.3-0.4l0.9-1.2c2.4-3.3,3.9-7.7,4.8-14.8c0.8-5.7,0.9-9.8,0.5-12.5l-0.1-0.6
		l0.2-0.5c1.3-3.3,1-7,0.6-9.6l-0.2-1.1l0.8-0.8c0.9-0.9,1.7-1.7,2.2-2.5l3-4.2l0.8,5.1c0.1,0.9,0.4,1.8,0.8,2.8l0.2,0.5l0,0.5
		c0,0.4-0.1,1-0.2,1.6c-0.4,2.7-1,6.4,0.3,12l0.1,0.6l-0.2,0.6c-1.2,3.8-1.5,8.6-1.6,12.1c-0.1,5.4,1.7,10.4,3.4,13.4l0.3,0.5l0,0.6
		c0,1.9,0.9,3.7,1.8,5.4c0.4,0.8,1,1.9,1.7,3.3c1.7,3.7,1.5,7.2,0.2,14.9c-1.2,7,1.9,11.2,4,13.9c0.8,1.1,1.2,1.7,1.4,2.2l0.1,0.3
		c0.2,0.9,0.1,2.2-0.4,4.6c-0.4,2.2-0.9,4.5-0.6,7c0.2,2.1,1.1,3.8,2.5,4.8l0.9,0.7l0,1.1c-0.2,4.2,0.3,10,1.7,13.8l0.2,0.5
		l-0.1,0.5c-1.4,10.3,0.4,12.4,1.1,13.2c1.6,1.9,5.8,5.5,12.9,11.6c7.8,6.6,19.6,8.2,25.9,8.5c0.4,0,0.8,0,1.2,0
		c8.9,0,12.8-5.1,14-7.3c2-3.5,1.8-8,1.3-15.1c-0.3-4.7-3.3-8.9-5.5-11.9c-0.4-0.5-0.7-1-1.1-1.5l-0.6-0.8l0.3-1
		c1.7-5.9-0.1-11.2-1.3-14.7c-0.4-1.2-0.8-2.2-0.9-2.8l0-0.2l0-0.2c0.1-2.4-0.3-6.5-1.2-11.3l-0.1-0.4l0.1-0.4
		c0.4-1.7,1.4-6.1,2.3-11.2c1.1-5.5,0.6-11.6,0.3-15.3l0-0.1c-0.1-1.2-0.1-2-0.1-2.4c0-0.5,0-1.1,0.1-1.9l0-0.2
		c0.1-1.9,0.2-4.3,0.1-6.6l0-0.6l0.3-0.5c2.3-4.6,2.4-9.5,2.1-13.4c-0.3-5.1-1.6-8.9-2.7-12.3c-0.2-0.6-0.4-1.2-0.6-1.8l-0.1-0.4
		l0-0.4c0.2-1.9,0.7-3.7,1.2-5.7c0.8-2.9,1.8-6.4,2.3-11.6c0.6-7.4-1.1-13.4-2.5-18.3c-1.1-3.8-2-6.8-1.6-9.6
		c0.7-4.6-0.4-8-1.4-11.1c-0.9-2.9-1.6-4.9-0.9-7.6c2.1-7.9-0.2-15-2.2-19.6c-0.6-1.4-0.8-2.2-1-3.3c-0.2-1-0.5-2.1-1-3.5l-0.3-1
		l0.5-0.9c1.2-1.9,3.2-5.1,1.5-10.6c-0.7-2.3-1.9-5.9-2.9-8.5l-0.2-0.7l0.2-0.7c0.5-1.5,0.6-3.1,0.5-4.6l-0.2-2.8l2.7,0.5
		c0.1,0,0.3,0,0.4,0.1l0.9,0.1l0.5,0.8c0.6,0.9,1.4,1.7,2.4,2.4c0.8,0.6,1.9,0.9,3,0.9l0.1,0c2.3,0,4.9-1.2,7.6-2.5
		c0.6-0.3,1.2-0.6,1.8-0.8c3-1.3,6.1-2.8,8.7-4.7l0.3-0.2c0.8-0.5,1.6-0.9,2.2-1.3c9.7-6.4,13.1-13.3,15.3-17.9l0.2-0.4
		C270.9,170.6,269.8,163.5,268.1,159.4z M82.5,208.5c-0.2-0.3-0.5-0.5-0.7-0.9c-0.2-0.3-0.5-0.7-0.7-1c-0.1-0.2-0.2-0.4-0.3-0.6
		c-0.1-0.2-0.2-0.4-0.3-0.6c-0.2-0.4-0.3-0.9-0.5-1.4c-0.3-1-0.5-2-0.5-3.1c0-1.1,0-2.3,0.3-3.4c0.2-1.1,0.6-2.2,1-3.3
		c0.5-1.1,1-2.1,1.6-3.1c0.6-1,1.2-1.9,1.9-2.7c0.6-0.9,1.3-1.6,2-2.3c0.7-0.7,1.3-1.4,1.9-1.9c1.2-1.1,2.4-2,3.2-2.6
		c0.4-0.3,0.7-0.5,0.9-0.6c0.2-0.1,0.3-0.2,0.3-0.2s-0.4,0.4-1,1.1c-0.7,0.7-1.6,1.7-2.7,3c-0.5,0.6-1.1,1.3-1.7,2.1
		c-0.6,0.7-1.2,1.6-1.7,2.4c-0.6,0.8-1.1,1.7-1.7,2.7c-0.5,0.9-1,1.9-1.4,2.9c-0.8,2-1.4,4-1.4,6c0,1,0.1,1.9,0.2,2.8
		c0.1,0.4,0.2,0.9,0.3,1.3c0.1,0.2,0.1,0.4,0.2,0.6c0.1,0.2,0.2,0.4,0.2,0.6c0.1,0.4,0.3,0.7,0.5,1c0.2,0.3,0.3,0.6,0.5,0.9
		c0.3,0.6,0.7,1,1,1.4c0.6,0.8,1,1.2,1,1.2s-0.1-0.1-0.3-0.2c-0.2-0.2-0.5-0.4-0.9-0.7C83.4,209.5,82.9,209.1,82.5,208.5z M218,55
		c0.9,0.3,2,0.8,3,1.3c1.1,0.6,2.2,1.2,3.4,2c1.1,0.8,2.3,1.7,3.4,2.8c1.1,1.1,2.2,2.2,3.2,3.5c1,1.3,1.9,2.7,2.7,4.1
		c0.7,1.5,1.4,3,1.8,4.6c0.3,0.8,0.4,1.6,0.6,2.3c0.1,0.8,0.3,1.6,0.3,2.3c0.1,0.8,0.2,1.5,0.1,2.3c0,0.4,0,0.7,0,1.1
		c0,0.4,0,0.7-0.1,1.1c0,0.4,0,0.7-0.1,1c0,0.3-0.1,0.7-0.1,1c0,0.3-0.1,0.6-0.1,1c-0.1,0.3-0.1,0.6-0.2,0.9
		c-0.2,1.2-0.6,2.3-0.8,3.2c-0.3,0.9-0.6,1.7-0.9,2.4c-0.6,1.3-0.9,2-0.9,2s0.2-0.8,0.6-2.1c0.2-0.7,0.3-1.5,0.6-2.4
		c0.2-1,0.4-2,0.5-3.2c0-0.3,0.1-0.6,0.1-0.9c0-0.3,0-0.6,0.1-0.9c0-0.3,0-0.6,0.1-1c0-0.3,0-0.7,0-1c0-0.3,0-0.7,0-1
		c0-0.3,0-0.7-0.1-1c0-0.7-0.1-1.4-0.2-2.1c-0.1-0.7-0.3-1.4-0.4-2.2c-0.1-0.4-0.2-0.7-0.3-1.1c-0.1-0.4-0.2-0.7-0.3-1.1
		c-0.4-1.5-1.1-2.9-1.8-4.3c-0.7-1.4-1.6-2.7-2.5-3.9c-0.9-1.2-1.9-2.4-2.9-3.4c-1-1-2.1-2-3.1-2.8c-1.1-0.8-2.1-1.6-3.1-2.2
		c-1-0.6-1.9-1.2-2.8-1.6c-0.9-0.4-1.6-0.8-2.3-1c-0.6-0.2-1.2-0.4-1.5-0.5c-0.4-0.1-0.6-0.2-0.6-0.2s0.2,0,0.6,0.1
		c0.4,0,0.9,0.1,1.6,0.3C216.2,54.4,217,54.6,218,55z M235.4,201.3c-1.9,0.9-4.3,2-5.4,2c-0.1,0-0.1,0-0.1,0c0,0,0,0,0,0
		c-0.6-0.5-1.4-1.2-1.5-2c-0.1-0.7,0.3-1.3,0.3-1.3c0,0,0,0,0-0.1c0.1-0.1,0.1-0.2,0.2-0.3c0.1-0.1,0.3-0.3,0.4-0.5
		c0.5-0.6,1.1-1.5,1.7-2.4c1.2-1.8,2.1-3.6,2.1-3.6s-1.6,1.4-3.2,2.6c-0.8,0.6-1.7,1.2-2.3,1.5c-0.2,0.1-0.3,0.2-0.4,0.2
		c-0.1,0-0.2,0.1-0.2,0.1c-0.1,0-0.1,0.1-0.2,0.1c-0.1,0.1-0.2,0.1-0.2,0.1l0,0c0,0-0.1,0-0.1,0.1c-0.3,0.3-1.5,1.1-2.6,1.1
		c-0.4,0-0.8-0.2-1.1-0.5c-1.3-1.4,0.7-4,0.7-4c0,0,0,0,0-0.1c0.2-0.2,0.4-0.5,0.8-0.9c0.6-0.7,1.4-1.7,2.1-2.6c1.5-1.9,3-3.9,3-3.9
		s-2,1.4-4,2.8c-1,0.7-2,1.3-2.8,1.8c-0.5,0.3-0.9,0.6-1.1,0.7c0,0-0.1,0-0.1,0c-0.3,0.2-1.4,0.9-2.4,0.9c-0.4,0-0.7-0.2-1-0.5
		c-1.4-1.9,1-3.7,1.3-3.9c0,0,0,0,0.1-0.1c0.2-0.2,0.6-0.5,1.1-1c0.7-0.7,1.7-1.6,2.6-2.5c0.9-0.9,1.8-1.9,2.4-2.7
		c0.6-0.7,1-1.3,1-1.3s-0.5,0.4-1.3,0.9c-0.8,0.5-1.9,1.2-3,1.8c-1.1,0.6-2.2,1.2-3.1,1.6c-0.5,0.3-0.9,0.4-1.2,0.6c0,0,0,0-0.1,0
		c-0.4,0.2-1.6,0.6-2.6,0.6c-0.2,0-0.6,0-0.7-0.2c-0.6-0.9-1.8-2.8,2.3-6.1c0,0,0.1,0,0.1-0.1c0.5-0.3,1.1-0.8,1.8-1.2
		c1.3-0.9,2.5-1.8,2.5-1.8s-1.5,0.3-3,0.5c-0.4,0-0.7,0.1-1,0.1c-0.1-0.1-0.3-0.4-0.8-0.9c-0.1-0.1-0.2-0.3-0.1-0.6
		c0-0.3,0.3-1.3,2.1-2.5c1.1-0.7,4.1-1.6,6.7-2.3c0.4-0.1,0.8-0.2,1.3-0.4c3-0.1,5.4,0.7,7.3,2.1c0.1,0,0.2,0.1,0.3,0.2
		c0.2,0.1,0.3,0.2,0.5,0.3c0.2,0.1,0.3,0.2,0.5,0.3c0.4,0.2,0.8,0.6,1.2,0.9c0.2,0.2,0.4,0.4,0.7,0.6c0.2,0.2,0.4,0.4,0.7,0.6
		c0.2,0.2,0.4,0.5,0.7,0.7c0.2,0.3,0.4,0.5,0.6,0.8c0.2,0.3,0.4,0.5,0.6,0.8c0.2,0.3,0.4,0.6,0.6,0.9c0.2,0.3,0.4,0.6,0.5,0.9
		c0.2,0.3,0.3,0.6,0.5,1c0.3,0.7,0.6,1.3,0.7,2c0.1,0.3,0.2,0.7,0.3,1c0.1,0.3,0.1,0.7,0.2,1c0.2,0.6,0.2,1.3,0.3,1.8
		c0,0.3,0.1,0.6,0.1,0.9c0,0.3,0,0.5,0,0.8c0,0.5,0.1,1,0.1,1.4c0,0.4,0,0.8,0,1.1c0,0.6,0,0.9,0,0.9s0-0.3-0.1-0.9
		c0-0.3-0.1-0.7-0.1-1.1c-0.1-0.4-0.2-0.9-0.3-1.4c0-0.2-0.1-0.5-0.2-0.8c-0.1-0.3-0.1-0.5-0.2-0.8c-0.2-0.6-0.3-1.1-0.5-1.7
		c-0.1-0.3-0.2-0.6-0.3-0.9c-0.1-0.3-0.3-0.6-0.4-0.9c-0.3-0.6-0.6-1.2-0.9-1.7c-0.2-0.3-0.4-0.5-0.5-0.8c-0.2-0.3-0.4-0.5-0.6-0.8
		c0,0,0,0-0.1-0.1c0.3,0.8,0.6,1.7,0.9,2.6c0.8,2.6,3,9.7-3.2,17.6C236,201,235.7,201.2,235.4,201.3z M175.3,376.5
		c1.3-7.3,1.9-12.5-0.6-17.9c-0.7-1.5-1.3-2.7-1.8-3.6c-0.5-0.9-0.8-1.4-1-1.9c0.4,0.1,0.7,0.3,1.1,0.4c0.6,0.2,1.3,0.4,2,0.6
		c2.7,0.7,5.4,1,5.4,1s-2.5-1.1-4.9-2.4c-0.6-0.3-1.1-0.7-1.7-1c-0.5-0.3-1-0.7-1.3-1c-0.2-0.1-0.3-0.3-0.4-0.4
		c-0.1-0.1-0.1-0.1-0.2-0.2c-0.1-0.1-0.1-0.1-0.2-0.2c-0.1-0.1-0.1-0.1-0.1-0.1c0,0,0,0,0-0.1c-1.6-1.8-3.8-6.7-3.7-12.1
		c0.1-4,0.5-7.4,1.1-9.8c1.3,0.8,2.9,1.5,4.6,1.8c3.7,0.8,7.3,0.7,7.3,0.7s-0.9-0.1-2.2-0.5c-1.3-0.3-3-0.9-4.6-1.6
		c-0.8-0.4-1.6-0.8-2.2-1.2c-0.3-0.2-0.6-0.4-0.9-0.7c-0.3-0.2-0.5-0.4-0.7-0.7c-0.2-0.2-0.3-0.4-0.4-0.5c0-0.2,0-0.4-0.1-0.5
		c-1.7-5.5-1.1-8.8-0.7-11.5c0.1-0.8,0.3-1.6,0.3-2.4c0.1,0,0.3,0.1,0.4,0.1c0.6,0.1,1.2,0.2,1.8,0.3c1.2,0.1,2.4,0.1,3.2,0
		c0.9-0.1,1.4-0.2,1.4-0.2s-0.6-0.1-1.4-0.3c-0.8-0.2-1.9-0.5-2.9-0.9c-0.5-0.2-1-0.5-1.4-0.7c-0.2-0.1-0.4-0.2-0.6-0.4
		c-0.2-0.1-0.4-0.2-0.5-0.4c-0.1-0.1-0.3-0.2-0.4-0.3c-0.1-0.1-0.1-0.1-0.2-0.2c-0.8-1.9-0.5-2.7-0.2-3.6c0.1-0.4,0.2-0.8,0.3-1.2
		c0.1,0,0.1,0,0.1,0.1c0.3,0.1,0.6,0.2,0.9,0.3c0.3,0.1,0.6,0.2,0.9,0.3c0.6,0.2,1.3,0.3,2,0.5c0.7,0.1,1.4,0.2,2.2,0.3
		c0.7,0.1,1.5,0.1,2.2,0.1c3,0,5.8-0.5,8-0.9c2.1-0.4,3.5-0.9,3.5-0.9s-1.4,0.3-3.6,0.4c-2.1,0.2-5,0.2-7.8-0.1
		c-0.7-0.1-1.4-0.2-2.1-0.3c-0.7-0.1-1.3-0.3-1.9-0.5c-0.6-0.2-1.2-0.4-1.7-0.6c-0.3-0.1-0.5-0.2-0.7-0.4c-0.2-0.1-0.5-0.3-0.7-0.4
		c-0.4-0.3-0.8-0.5-1.1-0.8c-0.3-0.2-0.5-0.5-0.7-0.6c-0.2-0.2-0.4-0.4-0.5-0.5c-2.2-4-5.5-14-5.1-16.8c0.2-1.7,0.1-3.3-0.3-4.6
		c1.8-1.9,5.4-6.1,5.6-10.4c-0.5,1.7-5.6,6.4-8.7,8c-0.2,0-0.4,0.1-0.6,0.2c-0.2,0.1-0.4,0.3-0.6,0.4c-3.9,1.4-13,1.7-21.8-6.5
		c2.2,7.1,6.1,10.4,6.1,10.4s2.1,8.4-1.7,10.2c-3.9,1.8-12.7,1.4-18.1,0.3c2.5,3.1,12.6,4.3,16.7,4.4c4.4,0.1,6.4-0.1,12.8-1.1
		c-4.3,2.8-11,3.3-11,3.8c0,1.4-0.8,3-3.2,3.1c-4.5,0.3-8.3-0.9-8.3-0.9s2.4,2.3,7.5,3.2c2.5,0.4,1,3.1,0.6,6.1
		c-0.3,2.5-0.5,5.7-5.3,6.3c-9.6,1-23.7-3.8-23.7-3.8s7.7,6.8,22.4,8.5c4.4,0.5,8.4,0.3,13-0.7c-3.5,3.8-10.6,3.4-10.5,6
		c0.1,3.9-0.9,8.2-1.5,10.8c-2.1,9.2-11.2,11.7-23.1,10c4,2.5,13.7,4.2,17.8,4.1c4.2-0.1,7.1,0,13.5-2c-4.8,4.2-11,4.9-10.9,5.5
		c1,3.5,1.1,8.9,0.5,11.4c-1.6,7.7-0.7,16.8-6.8,17.1c-4.9,0.2-10.5-1.1-14.4-2.1c4,3.3,10.9,5.4,16.6,5.7c5.7,0.3,7.7-0.5,11.1-1
		c-1.2,1.9-7.9,3.6-7.8,3.9c0.5,3.1-2.1,7.8-7.2,8.5c-7.8,1-13.2,0.1-17.4-2.3c2,2.4,8.1,6,15.4,6.4c7.3,0.4,6.9,4,5.4,5.7
		c-1.5,1.6-10.2,0.4-11.8-0.5c4.1,2.8,6.7,5.7,10.7,5c3.1-0.5,3.2,7.7,0.8,11.5c-2.6-0.6-5.5-1.5-8.5-2.5c-5-1.7-10.3-3.4-14.9-3.5
		c-1.2,0-2.2,0.1-3.2,0.3c-1.2,0.2-2.3,0.9-3.1,1.4c0,0-0.1,0.1-0.1,0.1c-0.1-0.4-0.2-1-0.2-1.9c-0.2-2.3-0.1-4.9,0.1-7.4
		c0.2-3,0.4-5.8,0-8.3c-0.3-2.2-0.9-3.6-1.4-4.8c-0.5-1.3-0.9-2.3-1-4.2c-0.1-2.8,0.4-7.4,0.8-10c0,0,0,0,0,0
		c0.3,0.1,0.6,0.2,0.9,0.3c0.3,0.1,0.7,0.2,1.1,0.3c0.7,0.2,1.5,0.5,2.3,0.7c1.6,0.4,3.1,0.8,4.3,1c1.2,0.3,2,0.4,2,0.4
		s-0.7-0.3-1.8-0.8c-1.1-0.5-2.5-1.2-3.9-2c-0.7-0.4-1.4-0.8-2-1.1c-0.3-0.2-0.6-0.4-0.9-0.6c-0.3-0.2-0.6-0.3-0.8-0.5
		c-0.5-0.3-0.9-0.6-1.2-0.8c-0.1-0.1-0.2-0.1-0.3-0.2c0,0,0,0-0.1-0.1c-0.7-0.5-2.3-1.9-2.2-3c0.1-1.1,0.9-2.6,1.6-3.6
		c0.8,0.6,1.9,1.1,2.9,1.6c1.3,0.6,2.6,1,3.6,1.2c0.5,0.1,0.9,0.2,1.2,0.3c0.1,0,0.1,0,0.2,0l0,0c0,0,0,0,0,0c0.1,0,0-0.1,0-0.1l0,0
		l0,0l0,0c-0.1,0-0.1-0.1-0.2-0.1c-0.3-0.1-0.6-0.3-1.1-0.6c-0.9-0.5-2-1.2-3-2.1c-1-0.8-1.9-1.7-2.5-2.5c-0.2-0.2-0.3-0.4-0.4-0.6
		c0,0,0,0,0-0.1c0,0-2.8-4.1-2.7-9.1c0.1-3.5,3-8.9,4.8-12.1c0.4-0.7,0.6-1.2,0.9-1.6c1,0.8,2.2,1.7,3.5,2.5c1.5,1,3.1,1.8,4.3,2.3
		c0.6,0.3,1.1,0.5,1.5,0.6c0.4,0.1,0.6,0.2,0.6,0.2s-0.2-0.1-0.5-0.3c-0.3-0.2-0.8-0.5-1.3-0.9c-1.1-0.8-2.4-1.9-3.6-3.1
		c-1.2-1.2-2.4-2.5-3.1-3.5c-0.2-0.3-0.3-0.5-0.5-0.7c-0.1-0.2-0.2-0.4-0.3-0.5c-0.1-0.1-0.1-0.2-0.2-0.3c-0.1-0.3-0.3-0.6-0.5-0.9
		c-1.3-2.3-3.7-6.4-3.6-12.8c0.1-5.4,1.6-10.2,3.3-13.5c0.2,0.2,0.4,0.4,0.6,0.6c0.3,0.3,0.6,0.7,1,1c0.4,0.3,0.7,0.7,1.1,1
		c0.4,0.3,0.8,0.7,1.1,1c3.1,2.7,6.5,5,6.5,5s-0.7-0.7-1.8-1.8c-1-1.1-2.4-2.6-3.6-4.2c-0.3-0.4-0.6-0.8-0.9-1.2
		c-0.3-0.4-0.6-0.8-0.8-1.2c-0.3-0.4-0.5-0.8-0.7-1.1c-0.2-0.4-0.4-0.7-0.6-1c-0.2-0.3-0.3-0.6-0.4-0.8c-0.1-0.1-0.1-0.2-0.1-0.3
		c0-0.1-0.1-0.2-0.1-0.4c-1.8-3.9-3.3-10.9-3.6-16.6c-0.2-6.4,0.7-10.8,3.3-15.3c0.1,0.1,0.2,0.3,0.4,0.4c0.1,0.2,0.3,0.3,0.4,0.5
		c0.2,0.2,0.3,0.3,0.5,0.5c0.3,0.4,0.7,0.7,1.1,1.1c0.4,0.4,0.8,0.7,1.2,1.1c0.4,0.4,0.9,0.7,1.3,1c0.4,0.3,0.9,0.7,1.4,1
		c0.4,0.3,0.9,0.6,1.4,0.9c0.9,0.5,1.7,1,2.5,1.3c1.5,0.7,2.5,1.1,2.5,1.1s-1-0.5-2.3-1.5c-0.7-0.5-1.4-1.1-2.2-1.7
		c-0.4-0.3-0.8-0.7-1.2-1c-0.4-0.4-0.8-0.7-1.1-1.1c-0.4-0.4-0.7-0.8-1.1-1.2c-0.4-0.4-0.7-0.8-1-1.2c-0.3-0.4-0.6-0.8-0.8-1.2
		c-0.1-0.2-0.2-0.4-0.4-0.5c-0.1-0.2-0.2-0.3-0.3-0.5c-0.2-0.3-0.4-0.6-0.5-0.9c-0.2-0.3-0.3-0.6-0.4-0.8c-0.2-0.4-0.3-0.7-0.3-0.7
		l0,0c0,0,0,0,0,0c-2-3-1-11.1,0-16.6c0,0,0,0.1,0.1,0.1c0.4,0.7,0.9,1.4,1.5,2c0.5,0.7,1.1,1.3,1.6,1.9c0.5,0.6,1.1,1.1,1.5,1.5
		c0.9,0.9,1.6,1.4,1.6,1.4s-0.5-0.6-1.2-1.7c-0.3-0.5-0.7-1.1-1.1-1.8c-0.4-0.7-0.8-1.4-1.1-2.1c-0.4-0.7-0.7-1.5-0.9-2.2
		c-0.1-0.3-0.3-0.7-0.3-1c-0.1-0.3-0.2-0.6-0.3-0.9c-0.1-0.3-0.1-0.5-0.2-0.7c0-0.2-0.1-0.5-0.1-0.6c0-0.1,0-0.2-0.1-0.3
		c0,0,0-0.1,0-0.1c-0.7-3.9-0.7-8.4,0.3-10c0.6,0.6,1.4,1.2,2.1,1.7c2,1.5,4.1,2.7,4.1,2.7s-1.6-1.8-3-3.7c-0.7-1-1.3-1.9-1.7-2.7
		c0-0.1-0.1-0.1-0.1-0.1c0-0.2-0.1-0.3-0.2-0.5c-1-1.7-0.6-4.1-0.3-4.5c0.3-0.4,0.5-0.8,0.7-1.2c4.1,4.5,7.2,5.5,9.6,6.1
		c-2.6-1.9-6.4-4.1-8.4-8.9c-1.5-3.6-1.8-7.4-0.8-9.8c1.1-1.8,3-2.3,5-2.2c1.8,0.6,4.1,1.2,6.7,1.8l0,0v0c8.3,1.8,20.1,3.3,29.9,3.9
		l0,0.2c0,1.8,1.4,3.3,3.2,3.3l16.8,0.3c1.8,0,3.3-1.4,3.3-3.2l0-0.6c6.3-0.5,12-1.4,18.1-3.1c0,0,13.4-2.6,19.8-5.2
		c-5,3.7-18,9.3-42.6,12.8c10.6,1.4,19.4,0.5,27.4-1.3c-0.3,1.3-0.5,2.4-0.4,3.5c0.3,4.8-2.8,9.2-7.5,10.1c-6.8,1.3-15,1.9-28.5,1.6
		c-21.5-0.4-27.3-2.9-27.3-2.9s10,5.3,27.2,5.9c17.2,0.5,31.8,1.2,42.6-0.8c-2.9,4.1-19.2,5.7-29.1,5c7.1,1.1,11.6,2.6,11.6,2.6
		s5.9,3.9,1.9,6.4c-4,2.5-10.6,0.7-10.6,0.7s5.5,4.2,23.7,2.7c11-0.9,19.3-3.9,19.3-3.9s-6.8,6-33.2,9.9c15.9,1.1,21.7,0.5,21.7,0.5
		s6.2,6.7,2,10.5c-4.1,3.6-10.6,5.7-14.9,6.6c7.5,0.1,12.1-1,14.7,0.2c2.7,1.2,5.1,3.7,4.6,7.4c-0.9,6.5-6,1.3-2.5,9.9
		c1.7,4,0.9,10-4.2,12.2c-5.9,2.5-13.4,2.8-13.4,2.8s5.8,1.1,15.7,0c1.8-0.2,9.9-0.9,17.6-7.3c-5.6,9-13.4,9.4-13.1,10.4
		c1,3.2,1.4,8.4,1.5,10.9c0.3,4.8,1.2,10.4-0.9,13.6c-2.3,3.4-7.1,3.6-14.7,4.1c4.9,2.2,9.2,2.3,11.7,2.2c5.9-0.3,11.3-1.9,16.7-6.2
		c-1.9,3.4-5.6,7.8-14.7,9.2c0.4,3.1,0.5,8.5,0.5,9.8c0,5.1-1.5,13.4,2.4,13.2c-4.1,3.8-11.3,4-17.6,5c5.5,0.3,12.7,0.7,17.5-0.6
		c-1,1.7,2.4,6.2-7.3,8.8c9.5-0.9,8.8,0.8,9.2,4.2c1.1,8.4-5.4,10.9-12.4,11.5c4,0.1,6.3,0.6,13.7-0.9c3,0.1,2.4,4.8,0.6,7.3
		c-1.6,0-3.3,0.1-4.9,0.4c-4,0.7-8,2.4-11.5,3.9c-3.4,1.5-6.6,2.8-8.7,2.8c-0.8,0-1.4-0.2-1.8-0.7c-0.1-0.1-0.3-0.3-0.4-0.5
		c-2.1-3.6-2.2-14-1.5-15.5c0,0,0,0,0,0l10-1.5l-11-1.3c-0.3-0.1-0.7-0.2-1-0.2c-1-0.2-1.5-0.3-1.7-1.7c-0.2-1.7,0.2-3.6,0.5-5.4
		c0.4-2.2,0.8-4.4,0.4-6.5c0.3,0.1,0.7,0.2,1,0.3c0.6,0.1,1.1,0.3,1.7,0.3c0.6,0.1,1.2,0.2,1.9,0.2c0.6,0.1,1.3,0.1,1.9,0.2
		c1.3,0.1,2.6,0.1,3.7,0.1c1.2,0,2.3,0,3.3,0c1.9-0.1,3.2-0.2,3.2-0.2s-1.3-0.1-3.1-0.3c-0.9-0.1-2-0.3-3.2-0.4
		c-1.2-0.2-2.4-0.4-3.6-0.7c-0.6-0.1-1.2-0.3-1.8-0.4c-0.6-0.1-1.2-0.3-1.7-0.5c-0.6-0.2-1.1-0.4-1.6-0.5c-0.5-0.2-0.9-0.4-1.3-0.6
		c-0.4-0.2-0.7-0.4-1-0.5c-0.1-0.1-0.3-0.1-0.4-0.2c-0.1-0.1-0.3-0.2-0.4-0.3c-0.2-0.1-0.3-0.2-0.4-0.3c-0.2-0.3-0.4-0.6-0.7-0.9
		C176.4,383.9,174.5,381.3,175.3,376.5z M135,395.5c0-0.1,0-0.2-0.1-0.4l-0.1-0.4c-0.1-0.2-0.1-0.6-0.1-0.9c0-1.3,0.4-2.5,1-3.5
		c0.6-1,1.2-1.9,1.9-2.8c0.7-0.9,1.4-1.7,2-2.5c0.3-0.4,0.6-0.8,0.7-1.3c0.1-0.2,0.1-0.4,0.2-0.5c0-0.3,0-0.5,0.1-0.7
		c0-1-0.2-2-0.4-3c-0.2-1.1-0.4-2.2-0.4-3.4c0-0.6,0.1-1.2,0.2-1.7l0.1-0.4c0-0.2,0.1-0.3,0.1-0.4l0.2-0.8l0.9-3.1
		c0.6-2.1,1.1-4.1,1.5-6.2c0.2-1,0.3-2.1,0.3-3.1c0-0.9-0.2-2.1-0.3-3.2c-0.2-2.2-0.3-4.4,0-6.7c0.1-1.1,0.3-2.3,0.8-3.4
		c0.2-0.6,0.5-1.1,0.8-1.6l0.5-0.7c0.2-0.2,0.3-0.4,0.4-0.6c1-1.7,1.6-3.7,2.1-5.8c0.5-2.1,0.8-4.2,1.1-6.3c0.3-2.1,0.5-4.3,0.6-6.4
		c0-1.1,0-2.1-0.1-3.1c-0.1-0.5-0.1-1-0.3-1.3c-0.2-0.3-0.3-0.8-0.2-1.2c0-0.2,0.1-0.4,0.1-0.6c0-0.1,0.1-0.2,0.1-0.3
		c0,0,0.1-0.1,0.1-0.1l0-0.1l0,0c0.1-0.2,0.3-0.5,0.4-0.7c0.1-0.2,0.2-0.4,0.3-0.6c0.2-0.4,0.3-0.9,0.4-1.4c0.2-1,0.2-2,0.2-3.1
		c-0.1-1-0.2-2.1-0.4-3.1c-0.1-0.3-0.1-0.5-0.2-0.8c0-0.1-0.1-0.3-0.1-0.4c0-0.1-0.1-0.2-0.1-0.4c-0.1-0.7,0.2-1.5,0.8-1.9
		c0.9-0.6,1.7-1.2,2.6-1.9c0.4-0.3,0.8-0.7,1.2-1.1c0.4-0.4,0.8-0.8,1-1.3c-0.1,0.5-0.5,1-0.8,1.4c-0.3,0.4-0.7,0.9-1.1,1.3
		c-0.7,0.8-1.5,1.6-2.4,2.3c-0.3,0.3-0.4,0.7-0.3,1c0,0.1,0.1,0.2,0.1,0.3c0,0.1,0.1,0.3,0.1,0.4c0.1,0.3,0.2,0.5,0.2,0.8
		c0.3,1.1,0.5,2.2,0.7,3.3c0.1,1.1,0.2,2.3,0,3.4c-0.1,0.6-0.2,1.2-0.4,1.7c-0.1,0.3-0.2,0.6-0.4,0.9c-0.1,0.3-0.3,0.5-0.4,0.7
		l-0.1,0.1c0,0,0,0,0,0c0,0,0,0,0,0.1c0,0.1,0,0.1,0,0.2c0,0.1,0,0.2,0.1,0.3c0.3,0.7,0.4,1.3,0.5,1.8c0.1,1.2,0.2,2.3,0.1,3.4
		c0,2.2-0.2,4.4-0.5,6.6c-0.3,2.2-0.6,4.3-1.1,6.5c-0.5,2.2-1.2,4.3-2.4,6.3c-0.2,0.3-0.3,0.5-0.5,0.7l-0.4,0.6
		c-0.2,0.4-0.5,0.8-0.6,1.3c-0.3,0.9-0.6,1.9-0.7,2.9c-0.2,2.1-0.2,4.2,0,6.3c0.1,1.1,0.3,2.1,0.3,3.3c0,1.2-0.2,2.3-0.4,3.4
		c-0.4,2.2-1,4.3-1.6,6.4l-0.9,3.1l-0.2,0.8c0,0.1-0.1,0.3-0.1,0.4l-0.1,0.4c-0.1,0.5-0.1,1-0.2,1.5c0,1,0.1,2,0.3,3
		c0.2,1,0.4,2.2,0.4,3.4c0,0.3,0,0.6-0.1,0.9c-0.1,0.4-0.2,0.7-0.3,1c-0.3,0.6-0.6,1.1-0.9,1.5c-0.7,0.9-1.4,1.8-2,2.6
		c-0.7,0.8-1.3,1.7-1.8,2.5c-0.5,0.9-0.8,1.8-0.8,2.7c0,0.2,0,0.4,0.1,0.7l0,0.2l0,0.2c0,0.1,0.1,0.3,0.1,0.4
		c0.1,0.6,0.1,1.2,0.1,1.8c-0.1,1.2-0.3,2.3-0.8,3.5l-0.1,0.3l-0.3,0.1l0,0c-0.1,0-0.1,0.1-0.2,0.1c0,0-0.2,0.2-0.2,0.2
		c0,0,0,0-0.1,0.1c0,0.1,0,0.2-0.1,0.3c0,0.6,0,1.2,0,1.8l0,1.8l0,1.9l0.1,7.4l-0.9-7.3l-0.2-1.8l-0.2-1.8c-0.1-0.6-0.2-1.2-0.2-1.9
		c0-0.2,0-0.4,0-0.6c0-0.2,0.1-0.5,0.3-0.7c0.1-0.1,0.1-0.2,0.2-0.3c0-0.1,0.1-0.1,0.2-0.2c0.1-0.1,0.2-0.1,0.2-0.2
		c0.3-0.8,0.5-1.8,0.5-2.7C135.1,396.4,135.1,396,135,395.5z M94.2,435.4c1.5,3.5,7.8,5.4,4.3,5.9c-3.5,0.5-9.6-0.5-11.1-6.1
		c-0.6-2.5,2-6.9,4.6-7.5C98.6,426.1,93.2,433,94.2,435.4z M104.9,437.6c1.2,0,2.1,1,2.1,2.2c0,1.2-1,2.1-2.2,2.1
		c-1.2,0-2.1-1-2.1-2.2C102.8,438.5,103.7,437.5,104.9,437.6z M88.6,447c1.4,0.5,3.5,1.1,6,1.5c1.3,0.2,2.6,0.4,4.1,0.6
		c1.5,0.1,3,0.2,4.6,0.1c1.6,0,3.2-0.2,4.9-0.5c1.6-0.3,3.3-0.7,4.9-1.2l0.3-0.1l0.3-0.1l0.6-0.2l1.2-0.4c0.8-0.3,1.5-0.6,2.3-1
		c0.8-0.4,1.5-0.7,2.2-1.1c0.7-0.4,1.4-0.8,2.1-1.2c1.4-0.8,2.6-1.7,3.8-2.6c0.6-0.4,1.2-0.9,1.7-1.3c0.5-0.4,1-0.9,1.5-1.3
		c1-0.9,1.8-1.7,2.5-2.4c0.7-0.8,1.3-1.4,1.8-2c0.5-0.6,0.9-1,1.1-1.4c0.3-0.3,0.4-0.5,0.4-0.5s-0.1,0.2-0.3,0.5
		c-0.2,0.4-0.5,0.9-0.9,1.5c-0.2,0.3-0.4,0.7-0.7,1.1c-0.3,0.4-0.6,0.8-0.9,1.2c-0.3,0.4-0.7,0.9-1.1,1.3c-0.4,0.4-0.8,0.9-1.3,1.4
		c-0.9,1-1.9,2-3.1,2.9c-0.6,0.5-1.2,1-1.8,1.5c-0.7,0.5-1.3,1-2,1.4c-0.7,0.5-1.4,0.9-2.2,1.3c-0.7,0.4-1.5,0.8-2.3,1.2
		c-0.8,0.4-1.6,0.7-2.4,1.1c-0.8,0.3-1.6,0.6-2.5,0.9c-1.7,0.5-3.4,0.9-5.2,1.2c-1.7,0.2-3.5,0.3-5.1,0.3c-1.7,0-3.3-0.2-4.8-0.4
		c-1.5-0.2-2.9-0.5-4.2-0.9c-2.5-0.7-4.6-1.5-5.9-2.2c-0.7-0.3-1.2-0.6-1.6-0.8c-0.4-0.2-0.5-0.3-0.5-0.3S87.1,446.5,88.6,447z
		 M100,374.7L100,374.7L100,374.7L100,374.7z M28.9,143.3c0.1,0,0.1,0,0.2,0c0.3,0.1,0.6,0.1,1,0.1c0.3,0,0.7,0.1,1.1,0.1
		c0.7,0,1.5,0,2.3,0c1.6,0,3.1-0.2,4.3-0.4c1.1-0.2,1.9-0.3,1.9-0.3s-0.8,0-1.9-0.1c-1.1-0.1-2.7-0.3-4.1-0.6
		c-0.7-0.2-1.5-0.3-2.1-0.5c-0.3-0.1-0.7-0.2-1-0.3c-0.3-0.1-0.6-0.2-0.8-0.3c-0.2-0.1-0.5-0.2-0.7-0.3c-0.2-0.1-0.4-0.2-0.5-0.2
		c-0.2-0.1-0.3-0.1-0.4-0.2c0,0,0,0-0.1,0c-3.1-1.1-4.5-4-5.1-5.4c-1.4-3-3.3-8.5-4.4-17.8c-0.4-3.8,0.2-7.3,1.7-10.3
		c0.1,0.1,0.2,0.2,0.4,0.3c-0.5,2.8-0.1,4.7-0.1,4.7c0.1,0.2,0.2,0.4,0.3,0.6c0.2,0.2,4.4,5.1,11.8,5.3h0c2.5,0,5.1-0.5,7.7-1.5
		c12.2-4.9,15.5-12.2,14.8-15.7c-0.4-1.9-1.5-3-2.6-3.5c0.1-0.4,0.2-0.7,0.3-1.1c1.2,0.6,2.2,1.3,3,2.2c0.6,0.7,1.3,1.6,1.9,2.7
		c0.6,7.2-4.9,14.7-16.9,18.6c6.8,1.3,13.1-2.1,15.7-4c-2.2,4.7-7.6,9.2-17.3,13.3c5-0.4,11.8-2.7,14-4c2.3-1.4,3,2.5,3.7,4.2
		c0.6,1.3,3.1-0.6,5.3-2.9c0.1,1-0.7,3.2-5.1,6.4c-3.5,2.5-9,5.6-16.7,5.8c8.2,1.1,16.3-2,16.3-2s5.9,6.1,3.9,10.6
		c-0.9,1.9-7,5.1-15.5,4.3c7.4,2,22.5,1,25.1-4.3c-3.5,7.2-11.8,8.3-11.8,8.3s5.9,1.2,6.8,5.3c0.9,4.1,3.1,10.5-6,12.8
		c-7.6,2-12.6-0.8-16.2-4.4c-2-2.6-4.2-5.9-6.2-10c0.4,0.1,0.8,0.3,1.2,0.4c0.9,0.3,1.8,0.6,2.8,0.9c1.9,0.6,3.8,1,5.3,1.4
		c1.4,0.3,2.4,0.5,2.4,0.5s-0.9-0.4-2.3-1c-1.3-0.6-3.1-1.4-4.9-2.3c-0.9-0.4-1.7-0.9-2.5-1.3c-0.8-0.4-1.5-0.9-2.1-1.2
		c-0.3-0.2-0.6-0.4-0.8-0.5c-0.2-0.1-0.5-0.3-0.6-0.4c-0.1-0.1-0.2-0.2-0.3-0.2c-2.8-2.4-4.8-4.6-5.4-6.1
		C28.8,147.3,28.8,144.9,28.9,143.3z M21.8,85.6C21.8,85.6,21.8,85.6,21.8,85.6c0.1,0.3,0.3,0.5,0.6,0.7c1.2,0.6,2.4,0.3,3.2-0.8
		c0.7-0.9,1-2.5,0.2-3.4c-0.1-0.1-0.3-0.2-0.5-0.3c-0.2-0.3-0.6-0.6-1-0.8c-1.2-0.5-2.2-1.4-3.3-2c-0.8-0.4-1.5-0.8-2.2-1.3
		c-0.6-0.4-1.3-0.8-1.8-1.3c-3-3.8-4.1-6.7-2.9-8c0.4-0.5,0.8-0.5,1-0.5c2.2,0,6.2,4.3,10.7,9.2c1.1,1.1,2.2,2.3,3.4,3.6
		c0.2,0.3,0.6,0.4,0.9,0.4c0.5,0.4,1.1,0.7,1.8,0.5c0.7-0.2,1.5-0.9,1.6-1.6c0.4-0.7,0.3-1.6-0.6-2.2c-1.8-1-3.5-2.9-4.6-4.5
		c-1.2-1.6-1.8-3.8-3.1-5.3c-0.4-1.2-0.6-2.2-0.4-2.9c0.1-0.4,0.3-0.6,0.4-0.7c0.4-0.3,0.8-0.4,1.1-0.4c1.7,0,4.3,3.7,8.1,9.4
		c2,3,3.7,5.6,5.1,7.7c-4.9,1-9.9,5-10.9,10c0,0.1,0.1,0.2,0.2,0.1c2.9-4.1,7.3-6.1,12.3-5.6c0.5,0,0.8,0,1.2-0.2
		c0.1,0.1,0.1,0.2,0.1,0.2c0.3,0.5,0.9,0.8,1.5,0.7c0.6-0.1,1-0.5,1.2-1.1c0.7-3,2.4-6.4,3.6-6.4c0.9,2.8,0.4,5.8,0.3,8.7
		c-0.1,1.9-0.6,3.7-1.1,5.4c-0.9,1.5-2.1,2.7-3.9,3.5c-1.8,0.8-5.2,1.9-7.6,1.4c-0.7-0.3-1.3-0.7-2-1.1c-0.1-0.1-0.1-0.1-0.2-0.2
		c0,0-0.1,0-0.1,0c-0.3-0.2-0.5-0.4-0.8-0.6c0,0,0,0,0,0c0,1.7,1.6,2.8,2.8,3.8c0.5,0.4,1,0.8,1.5,1.2c-5,4.4-11.1,0.8-16.2-1.7
		c-2.8-1.4-5.6-2.7-8.2-4.5c-2.9-2.1-4.9-5-7.2-7.7c-0.1-0.2-0.2-0.4-0.2-0.5c0,0,0-0.1,0-0.1c2.5-0.9,5.9,3.2,9,4.9
		c1.1,0.8,2.5,1.4,3.8,1.8c2.3,0.6,3.3-2.8,1-3.5c-0.6-0.2-1.2-0.4-1.8-0.5c-0.8-0.8-1.8-1.8-2.8-2.7c-2.7-2.6-6-5.9-6.6-6.5
		c-0.6-0.6-1.3-3-0.2-4.4c0.3-0.4,0.5-0.4,0.8-0.4c1.9,0,5.8,3.7,7.1,5C18.7,83,21.7,85.5,21.8,85.6z M87.7,35.9
		c0.1,0,0.2-0.1,0.4-0.2c0.4-0.2,0.9-0.4,1.6-0.6c1.3-0.5,3.1-1.2,4.9-1.9c3.6-1.3,7.2-2.6,7.2-2.6s-3.8,0.6-7.6,1.2
		c-1.8,0.3-3.5,0.6-4.9,0.8c0-0.4,0.1-0.8,0.3-1.4c1.3-4.1,12.1-7.4,21.2-9.1c-3.1,4.9-5.4,10.5-6.8,16.7c-0.1,0-0.2,0.1-0.3,0.1
		l-4.1,2.3c-2.1,1.2-3.3,3.6-3.2,6.2L97,62.1c0.1,2.6,1.6,5,3.7,5.9l3.9,1.8c0.9,2.8,2,5.5,3.3,8c-0.1,0.1-0.2,0.3-0.2,0.4l-2.7,11
		c-0.1,0-0.2,0-0.3,0.1c-0.3,0.1-0.7,0.2-1,0.3c-0.2,0.1-0.4,0.1-0.6,0.2c-0.5,0.1-1,0.3-1.4,0.5c-0.3,0.1-0.7,0.2-1,0.4
		c-0.2,0.1-0.4,0.1-0.6,0.2c-0.4,0.1-0.8,0.3-1.2,0.5c-0.1,0-0.2,0.1-0.3,0.1c-2.6,1-5.3,2.3-7.9,3.6c-0.5-2.6-0.2-6.1,0.2-7
		c0.5-1,5.2-3.3,5.2-3.3s0,0-4.8,0.2c-4.8,0.2-4.7,2.4-4.7,3.9c0,1.1,0.1,4.5,0.7,8.1c-0.5,0.3-1,0.6-1.5,0.9
		c-0.7-3.5-0.9-9.3-0.8-12c0-0.7,1.2-1.3,2.1-1.7c0.5-0.3,1-0.5,1.5-0.9c0.1,0,0.1,0,0.2,0c1.1,0.1,2.5,0.1,3.9,0.2
		c2.8,0.1,5.5,0,5.5,0s-2.6-0.8-5.2-1.7c-1.3-0.5-2.5-0.9-3.5-1.3c-0.5-0.2-0.8-0.3-1.1-0.5c0,0,0,0,0,0c-0.3-0.2-0.6-0.4-0.7-0.5
		c-0.2-0.1-0.4-0.2-0.6-0.3c-1.1-0.6-2.1-1.1-2.7-2.7c-1.5-4.3-1.1-10.8-0.8-11.7c0.3-0.7,1.1-1.4,1.5-1.7c0.9,0.3,2,0.5,3.2,0.7
		c1.2,0.2,2.5,0.4,3.4,0.5c0.5,0,0.9,0.1,1.1,0.1c0.3,0,0.4,0,0.4,0S93.3,64,93,64c-0.3-0.1-0.6-0.2-1-0.4c-0.9-0.3-2-0.9-3-1.4
		c-1.1-0.6-2.1-1.2-2.9-1.7c-0.2-0.1-0.3-0.2-0.4-0.3c-0.2-0.2-0.7-0.6-1.5-1.2c-0.6-0.4-2.5-3-1-17.3l0-0.3
		c0.3-2.9,0.5-3.8,3.1-4.8C86.9,36.3,87.3,36.1,87.7,35.9z M146.7,5.2c11.9,0.2,22.5,5.7,30.2,14.4c0,0-0.1-0.1-0.1-0.1
		c-7.4-6.1-13.8-10.4-26.3-12.3c3.8,1.7,5.3,3.9,3,5.4c-2.6,1.6-6.6,1.1-11.6,1.5c-10.8,1-24.7,7-31.6,19.4c5.5-7.6,20.3-17.3,35-17
		c14.7,0.3,25.7,4.7,34.9,15.8c0,0.2,0.1,0.5,0.2,0.9c-7.5-8.1-19.2-13.4-32.6-13.7c-16.7-0.3-31.3,7.5-38.1,18.9
		c-1,4.2-1.5,8.6-1.6,13.1c-0.1,5.9,0.6,11.7,2,17c6.8,10.9,20.5,18.5,36.5,18.8c9.8,0.2,18.8-2.4,26-6.9l0,0l-4.5,2.8
		c0,0-9.7,6.4-23,6.1c-4.5-0.1-9-0.7-13.5-2c0,0,0,0,0,0c0.3,0.1,1.6,0.7,1.5,2.2c-0.3,4.6-12-3.2-15.4-5.9
		c4.5,5.8,11,9.7,16.4,11.7c4.8,1.8,9.5,2.5,13.6,2.7c-0.5,0-0.9,0-1.4,0c-24.4-0.5-41.7-19.7-41.2-45.7
		C105.7,24.6,123.2,4.7,146.7,5.2z M223.7,290.1c0.9,3.3,1.8,6.7,2.1,10.3c0.3,3.6,0,7.1-0.7,10.6c-0.3,1.7-0.8,3.5-1.3,5.1
		c-0.5,1.7-1,3.3-1.3,5c-0.2,0.8-0.3,1.6-0.3,2.5c0,0.2,0,0.4,0,0.6l0,0.3c0,0.1,0,0.1,0,0.2c0,0,0.1,0.3,0.1,0.5l0.2,0.6
		c0.3,0.8,0.5,1.7,0.8,2.4c0.3,0.8,0.5,1.6,0.8,2.5c0.5,1.7,0.9,3.4,1.2,5.1c0.1,0.9,0.2,1.7,0.3,2.6c0.1,0.9,0.1,1.7,0.1,2.6
		c0.1,3.4-0.2,7-2,10.1c-0.2,0.3-0.5,0.8-0.5,0.8c0,0.1,0,0.2,0,0.2c0,0.2,0.1,0.4,0.1,0.6c0.1,0.9,0.1,1.7,0.1,2.5
		c0,1.7-0.2,3.2-0.2,4.8c0,0.4,0,0.8-0.1,1.2l0,0.3l0,0.1l0,0.1l0,0.5c0,0.7,0.1,1.5,0.1,2.3c0.1,1.5,0.2,3.1,0.3,4.6
		c0.1,3,0,6-0.5,8.9c-0.5,2.8-1.1,5.4-1.6,8c-0.3,1.3-0.6,2.5-0.8,3.7c-0.1,0.3-0.1,0.6-0.2,0.9l-0.1,0.2c0,0,0,0.1,0,0.1
		c0,0,0,0.1,0,0.1c0,0,0,0.1,0,0.2c0.1,0.6,0.2,1.2,0.3,1.8c0.4,2.4,0.7,4.6,0.9,6.8c0,0.5,0.1,1.1,0.1,1.6c0,0.6,0,1.1,0,1.5
		c0,0.9,0.2,1.8,0.4,2.6c0.2,0.9,0.5,1.7,0.8,2.5c0.3,0.8,0.5,1.6,0.7,2.3c0.8,3,0.8,5.5,0.4,7.1c-0.2,0.8-0.4,1.4-0.5,1.8
		c-0.2,0.4-0.2,0.6-0.2,0.6s0-0.2,0.1-0.6c0.1-0.4,0.2-1,0.2-1.8c0-0.8,0-1.8-0.1-2.9c-0.2-1.1-0.5-2.4-0.9-3.9
		c-0.5-1.4-1.1-3-1.7-4.8c-0.3-0.9-0.5-1.9-0.5-3c0-0.5,0-1,0-1.5c0-0.5,0-1-0.1-1.5c-0.2-2.1-0.5-4.3-0.9-6.6
		c-0.1-0.6-0.2-1.2-0.3-1.8c0-0.1,0-0.2,0-0.3c0-0.1,0-0.2,0-0.3c0-0.1,0-0.2,0-0.3l0.1-0.2c0.1-0.3,0.1-0.6,0.2-0.9
		c0.3-1.2,0.5-2.5,0.8-3.7c0.5-2.5,1.1-5.2,1.5-8c0.4-2.7,0.5-5.6,0.4-8.5c-0.1-1.5-0.2-3-0.3-4.5c-0.1-0.8-0.1-1.5-0.2-2.3
		c0-0.2,0-0.4,0-0.6l0-0.2l0-0.2l0-0.3c0-0.4,0-0.8,0.1-1.2c0.1-1.6,0.2-3.2,0.2-4.7c0-0.8,0-1.5-0.1-2.3c0-0.2-0.1-0.3-0.1-0.6
		c0-0.4,0-0.7,0.1-1c0.1-0.3,0.3-0.6,0.4-0.8l0.3-0.5c0.4-0.6,0.7-1.3,0.9-2.1c0.2-0.7,0.4-1.5,0.6-2.3c0.3-1.6,0.3-3.2,0.3-4.8
		c0-1.7-0.2-3.3-0.4-4.9c-0.3-1.6-0.7-3.2-1.1-4.9c-0.2-0.8-0.5-1.6-0.8-2.4c-0.3-0.8-0.5-1.6-0.8-2.5l-0.2-0.6
		c-0.1-0.2-0.1-0.3-0.2-0.7c0-0.2,0-0.4,0-0.5l0-0.3c0-0.2,0-0.5,0-0.7c0.1-0.9,0.2-1.8,0.3-2.7c0.3-1.8,0.8-3.5,1.3-5.1
		c0.5-1.7,0.9-3.3,1.2-5c0.6-3.4,0.9-6.8,0.6-10.1c-0.3-3.4-1.1-6.7-2-9.9c-0.9-3.3-2-6.6-2.1-10.1c0-0.9,0-1.8,0.1-2.7
		c0.1-0.8,0.2-1.6,0.2-2.3c0-1.5-0.4-3.1-0.8-4.6c-0.4-1.5-1-3.1-1.4-4.7c-0.4-1.6-0.6-3.3-0.5-5c0-0.8,0.2-1.7,0.3-2.5
		c0.1-0.4,0.2-0.8,0.3-1.1l0.1-0.6l0.1-0.5c0.2-1.4,0.3-2.9,0.2-4.3c-0.2-2.9-0.9-5.6-1.9-8.2c-0.2-0.7-0.5-1.3-0.8-1.9
		c-0.3-0.7-0.5-1.3-0.7-2c-0.4-1.4-0.6-2.7-1-3.9c-0.2-0.6-0.4-1.2-0.6-1.8c-0.1-0.3-0.2-0.6-0.4-0.9c-0.1-0.2-0.2-0.5-0.2-0.7
		c0-0.1,0-0.1,0-0.2l0-0.2l0-0.2c0.1-1.5,0.9-2.7,1.5-3.7c0.7-1,1.2-1.9,1.3-2.8c0.2-0.9,0-2-0.2-2.9c-0.5-2-1.2-3.9-1.7-5.6
		c-0.6-1.7-1.1-3.3-1.5-4.8c-0.2-0.4-0.2-1,0-1.4c0.2-0.4,0.3-0.7,0.4-1c0.3-0.6,0.4-1.2,0.5-1.7c0.2-1.1,0.2-2.1,0-2.9
		c-0.2-0.8-0.4-1.3-0.6-1.7c-0.2-0.4-0.3-0.5-0.3-0.5s0.2,0.1,0.4,0.5c0.3,0.3,0.6,0.9,0.9,1.7c0.3,0.8,0.5,1.8,0.4,3.1
		c-0.1,0.6-0.2,1.3-0.4,1.9c-0.1,0.3-0.2,0.7-0.4,1c-0.1,0.2-0.1,0.5,0.1,0.7c0.6,1.4,1.2,3,1.8,4.7c0.7,1.7,1.3,3.6,1.9,5.7
		c0.3,1.1,0.5,2.3,0.3,3.6c-0.2,1.3-0.9,2.5-1.5,3.4c-0.6,1-1.1,2-1.2,3l0,0.2l0,0.1l0,0.1c0,0.1,0,0.1,0.1,0.2
		c0.1,0.3,0.2,0.6,0.4,0.9c0.2,0.6,0.5,1.2,0.7,1.9c0.4,1.3,0.6,2.6,1,3.9c0.2,0.6,0.4,1.2,0.7,1.9c0.3,0.6,0.5,1.3,0.8,2
		c1,2.7,1.8,5.6,2,8.7c0.1,1.6,0,3.1-0.2,4.7l-0.1,0.6l-0.1,0.6c-0.1,0.4-0.2,0.8-0.3,1.1c-0.2,0.7-0.3,1.4-0.3,2.2
		c-0.1,1.5,0.1,2.9,0.5,4.4c0.4,1.5,0.9,3,1.4,4.6c0.5,1.6,0.8,3.3,0.9,5.1c0,0.9-0.1,1.8-0.2,2.6c-0.1,0.8-0.1,1.6-0.1,2.4
		C221.8,283.6,222.8,286.8,223.7,290.1z M229.2,441.8c0-1-0.1-2.1-0.2-3.1c-0.1-1-0.2-2-0.4-2.9c-0.2-0.9-0.4-1.8-0.7-2.7
		c-0.3-0.8-0.5-1.6-0.8-2.3c-0.3-0.7-0.6-1.4-0.9-1.9c-0.3-0.6-0.6-1.1-0.8-1.4c-0.5-0.8-0.8-1.2-0.8-1.2s0.1,0.1,0.3,0.3
		c0.2,0.2,0.5,0.4,0.8,0.8c0.3,0.3,0.7,0.8,1.1,1.3c0.4,0.5,0.8,1.1,1.2,1.8c0.4,0.7,0.8,1.5,1.2,2.4c0.3,0.9,0.7,1.8,0.9,2.8
		c0.2,1,0.5,2,0.6,3.1c0.1,1.1,0.2,2.1,0.2,3.2c0,0.3,0,0.5,0,0.8l-0.1,0.9c0,0.3-0.1,0.6-0.1,0.8c0,0.3-0.1,0.6-0.1,0.8
		c-0.1,0.3-0.1,0.5-0.2,0.8c-0.1,0.3-0.2,0.5-0.3,0.8c-0.1,0.3-0.2,0.5-0.3,0.8c-0.1,0.3-0.2,0.5-0.4,0.7c-0.2,0.2-0.3,0.5-0.5,0.7
		c-0.2,0.2-0.3,0.4-0.5,0.6c-0.2,0.2-0.4,0.4-0.6,0.5c-0.1,0.1-0.2,0.2-0.3,0.2l-0.3,0.2c-0.8,0.6-1.7,0.9-2.5,1.1
		c-0.4,0.1-0.8,0.1-1.2,0.2c-0.4,0-0.7,0-1.1,0.1c-0.7,0-1.2-0.1-1.7-0.1c-0.9-0.2-1.5-0.3-1.5-0.3s0.5,0,1.5-0.1
		c0.5-0.1,1-0.1,1.6-0.2c0.3-0.1,0.6-0.1,1-0.2c0.3-0.1,0.7-0.2,1-0.3c0.7-0.3,1.4-0.6,2-1.2c0.6-0.5,1.2-1.2,1.6-2
		c0.4-0.8,0.7-1.7,0.9-2.6c0.1-0.2,0.1-0.5,0.1-0.7c0-0.2,0.1-0.5,0.1-0.7l0-0.7C229.2,442.3,229.2,442,229.2,441.8z M204.4,436
		c0.8,0,1.4,0.7,1.4,1.5c0,0.8-0.7,1.4-1.5,1.4c-0.8,0-1.4-0.7-1.4-1.5C202.9,436.6,203.5,436,204.4,436z M209.9,428.2
		c2.2,0,3.9,1.8,3.9,4c0,2.2-1.8,3.9-4,3.9c-2.2,0-3.9-1.8-3.9-4C205.9,429.9,207.7,428.2,209.9,428.2z M224.9,135.9
		c2.2,0.9,12.3-1,12,2c-0.2,1.6-10.4,5.1-11.9,12.2c5.9-7,14.9-7.2,19.5-3.9c-5.2,0-10.7,3.1-12.3,6.4c6.1-5.1,12.9,0,14.2,3.8
		c1.8,5.2,0.9,10.8-0.2,13.1c-0.7-0.5-1.4-0.9-2.2-1.3c-2.6-1.2-5.7-1.5-7.9-1.6c-2.6,0-5.2,0.3-6.5,0.8c-0.3,0.1-0.6,0.2-1,0.4
		c0.9-3.6,4.9-10.7-4.6-11.3c-3.9-0.2-3.8-6.6-2.3-10c1.1-2.7,3.9-6.6,8.4-7.6c-3.2,0-8.4,1.4-12.6,5.8c-2.4,2.5,0.7-4.5,2.5-9
		c1.2-2.9-9.6-0.8-8.2-2c2.3-1.9,6.4-4.6,12.7-4.4C225.8,129.4,223.8,135.4,224.9,135.9z M211.7,150.5c0.3,0.4,0.7,0.8,1.1,1.3
		c0.4,0.5,1,1,1.4,1.7c0.4,0.7,0.7,1.5,0.8,2.3c0,0.2,0,0.4,0.1,0.6c0,0.2,0,0.4,0,0.6c0,0.4,0,0.7,0.1,1.1c0.1,0.7,0.2,1.4,0.5,2
		c0.3,0.6,0.6,1.2,1,1.8c0.4,0.6,0.8,1.1,1.2,1.6c0.4,0.5,0.7,1.1,1,1.6c0.5,1.1,0.7,2.1,0.7,2.7c0,0.3,0,0.6,0,0.8
		c0,0.2,0,0.3,0,0.3s0-0.1-0.1-0.3c0-0.2-0.1-0.4-0.2-0.7c-0.1-0.3-0.2-0.7-0.4-1.1c-0.2-0.4-0.4-0.9-0.7-1.3
		c-0.6-0.9-1.5-1.8-2.5-2.9c-0.5-0.6-1-1.2-1.3-1.9c-0.4-0.7-0.6-1.5-0.8-2.3c-0.1-0.4-0.1-0.8-0.2-1.2c0-0.4-0.1-0.7-0.2-1
		c-0.2-0.6-0.4-1.2-0.7-1.7c-0.3-0.5-0.7-1-1.1-1.5c-0.4-0.5-0.8-1.1-1.1-1.7c-0.3-0.6-0.4-1.2-0.5-1.7c-0.1-0.5,0-0.9,0-1.3
		c0.1-0.3,0.1-0.6,0.2-0.8c0.1-0.2,0.1-0.3,0.1-0.3s0,0.1,0.1,0.3c0,0.2,0.1,0.4,0.2,0.8c0.1,0.3,0.2,0.7,0.4,1.1
		C211.2,149.7,211.4,150.1,211.7,150.5z M261,178.3c0.5-1.5,1-3.1,1.3-4.6c0.3-1.6,0.5-3.2,0.5-4.7c0-1.6-0.1-3.2-0.5-4.7
		c-0.3-1.5-0.9-3-1.6-4.4c-0.4-0.7-0.8-1.3-1.3-1.9c-0.2-0.3-0.5-0.6-0.8-0.9c-0.1-0.1-0.4-0.4-0.5-0.7c-0.1-0.3-0.2-0.5-0.2-0.8
		c0-0.3,0.1-0.6,0.1-0.8c0.1-0.2,0.1-0.4,0.1-0.5c0.1-0.4,0.1-0.7,0.1-1.1c0-0.7-0.1-1.5-0.3-2.2c-0.2-0.7-0.6-1.4-1-2
		c-0.2-0.3-0.4-0.6-0.7-0.9c-0.1-0.1-0.3-0.3-0.4-0.4c-0.1-0.1-0.2-0.2-0.4-0.4c-0.1-0.1-0.1-0.1-0.2-0.2c-0.2-0.1-0.3-0.3-0.5-0.5
		c-0.2-0.2-0.4-0.3-0.6-0.5c-0.2-0.2-0.5-0.4-0.8-0.6c-0.5-0.4-1.1-0.8-1.7-1.1c-1.2-0.7-2.5-1.3-3.5-1.7c-1-0.4-1.7-0.6-1.7-0.6
		s0.7,0.1,1.7,0.4c1,0.3,2.4,0.7,3.8,1.3c0.7,0.3,1.3,0.6,1.9,0.9c0.3,0.2,0.6,0.3,0.9,0.5c0,0,0.1,0,0.1,0.1c0-0.3,0-0.5-0.1-0.8
		c-0.1-0.8-0.3-1.5-0.5-2.3c-0.4-1.5-1.1-2.9-1.8-4.3c-0.2-0.3-0.4-0.7-0.6-1l-0.1-0.3l-0.1-0.1l-0.1-0.1l-0.3-0.5
		c-0.4-0.6-0.9-1.3-1.4-1.9c-1-1.2-2.1-2.3-3.3-3.3c-0.3-0.2-0.6-0.5-0.9-0.7c-0.2-0.2-0.5-0.4-0.7-0.6l0,0c0,0,0,0-0.1-0.1
		c-0.1,0-0.2-0.1-0.3-0.2c-0.1-0.1-0.2-0.1-0.4-0.2c-0.2-0.1-0.4-0.2-0.6-0.3c-0.9-0.4-2.2-0.7-3.6-0.9c-0.7-0.1-1.4-0.2-2-0.2
		c-0.6,0-1.2,0-1.8,0c-0.3,0-0.5,0-0.7,0.1c-0.2,0-0.4,0-0.5,0.1c-0.3,0.1-0.5,0.1-0.5,0.1s0.2-0.1,0.5-0.2c0.1-0.1,0.3-0.1,0.5-0.2
		c0.2-0.1,0.4-0.1,0.7-0.2c0.5-0.1,1.1-0.2,1.8-0.3c0.7-0.1,1.4-0.1,2.1-0.1c1.3,0,2.6,0.1,3.6,0.3l0-0.2c0-0.1,0-0.3-0.1-0.4
		c-0.4-1.3-1.2-2.7-2-4.1c-0.8-1.4-1.7-2.7-2.5-4.2c-0.2-0.3-0.4-0.8-0.5-1.2c-0.2-0.4-0.3-0.8-0.4-1.3c-0.1-0.4-0.2-0.9-0.1-1.4
		c0-0.5,0.1-0.9,0.4-1.4c0.3-0.7-0.1-1.7-0.8-2.5c-0.3-0.4-0.7-0.8-1.2-1.1l-0.3-0.2l-0.4-0.2c-0.3-0.2-0.5-0.3-0.8-0.5
		c-0.1-0.1-0.3-0.2-0.4-0.3l0,0.1c0,0-0.1-0.1-0.4-0.3c-0.1-0.1-0.3-0.2-0.5-0.3c-0.2-0.1-0.4-0.2-0.6-0.3c-0.5-0.2-1-0.5-1.6-0.7
		c-0.6-0.2-1.3-0.5-2-0.7c-2.7-0.9-5.6-1.5-5.6-1.5s2.9,0.1,5.8,0.6c0.7,0.1,1.4,0.3,2.1,0.4c0.3,0.1,0.5,0.1,0.8,0.2
		c-0.1-0.1-0.1-0.2-0.2-0.3c-0.3-0.6-0.5-1.1-0.8-1.7l-0.4-0.9c-0.1-0.2-0.2-0.6-0.4-0.8c-0.5-1-1.1-2-1.9-2.9
		c-0.8-0.8-1.7-1.6-2.7-2.1c-1-0.5-2.1-0.9-3.2-1.2c-1.1-0.3-2.3-0.4-3.5-0.6l-1.8-0.2l-0.5,0c-0.1,0-0.2,0-0.3,0
		c-0.3,0-0.8-0.1-1.5-0.1c-1-0.1-2.4-0.2-3.8-0.3c-2.8-0.2-5.6-0.3-5.6-0.3s2.8-0.1,5.6-0.2c1.3,0,2.5-0.1,3.5-0.1
		c-0.8-0.5-1.6-1-2.4-1.5c-2.1-1.1-4.4-1.9-6.7-2.6c-2.3-0.7-4.7-1.3-7.1-1.7c-1.2-0.2-2.4-0.4-3.6-0.4c-1.2-0.1-2.4-0.1-3.6,0.1
		c1.2-0.3,2.4-0.3,3.6-0.3c1.2,0,2.4,0.1,3.7,0.3c2.4,0.3,4.8,0.7,7.2,1.3c2.4,0.6,4.7,1.4,7,2.4c1.1,0.5,2.2,1.1,3.3,1.9l0.4,0.3
		c0.1,0.1,0.2,0.1,0.2,0.1c0.1,0,0.2,0,0.3,0.1l0.5,0l1.8,0.1c1.2,0.1,2.5,0.2,3.7,0.5c1.2,0.3,2.5,0.6,3.6,1.2
		c1.2,0.6,2.2,1.4,3.1,2.3c0.9,1,1.6,2,2.2,3.2c0.1,0.3,0.2,0.5,0.4,0.9l0.4,0.8c0.2,0.6,0.5,1.1,0.8,1.6c0.3,0.5,0.6,1,0.9,1.4
		c0.2,0.2,0.4,0.4,0.6,0.6c0.1,0,0.1,0,0.1,0l0,0c0.2,0.1,0.3,0.3,0.5,0.4c0.2,0.2,0.5,0.3,0.7,0.5l0.4,0.2l0.4,0.3
		c0.6,0.4,1.1,0.8,1.5,1.4c0.4,0.5,0.8,1.1,1.1,1.9c0.2,0.7,0.3,1.6,0,2.3l0,0.1l0,0.1c-0.2,0.4-0.3,1.1-0.1,1.7
		c0.1,0.3,0.2,0.7,0.3,1c0.1,0.3,0.3,0.7,0.5,1c0.7,1.3,1.6,2.7,2.5,4c0.8,1.4,1.7,2.8,2.2,4.6c0.1,0.2,0.1,0.5,0.1,0.7
		c0,0.2,0,0.4,0,0.5c0,0.1,0,0.1,0.1,0.2c0.1,0.1,0.1,0.2,0.3,0.3c0,0,0,0,0,0c0,0,0,0,0,0l0,0c0.2,0.2,0.6,0.4,0.9,0.7
		c0.3,0.3,0.6,0.5,1,0.8c1.3,1.1,2.5,2.2,3.5,3.5c0.5,0.6,1,1.3,1.5,2l0.3,0.5l0.1,0.1l0.1,0.1l0.2,0.3c0.2,0.4,0.4,0.7,0.6,1.1
		c0.8,1.5,1.4,3,1.8,4.6c0.2,0.8,0.4,1.6,0.5,2.5c0.1,0.4,0.1,0.8,0.1,1.3c0,0.3,0,0.3,0,0.4c0,0.1,0.1,0.2,0.1,0.3
		c0,0,0.2,0.2,0.3,0.4c0.1,0.2,0.3,0.3,0.4,0.5c0.3,0.3,0.5,0.7,0.8,1c0.5,0.7,0.9,1.5,1.1,2.3c0.3,0.8,0.4,1.7,0.3,2.6
		c0,0.4-0.1,0.9-0.2,1.3c-0.1,0.4-0.3,0.9-0.3,1.1c0,0.1,0,0.2,0.1,0.3c0.1,0.1,0.1,0.2,0.2,0.3c0.3,0.3,0.6,0.6,0.8,1
		c0.5,0.7,0.9,1.4,1.3,2.1c0.8,1.5,1.3,3.1,1.6,4.7c0.6,3.3,0.3,6.6-0.5,9.7c-0.4,1.6-0.9,3.1-1.5,4.6c-0.6,1.5-1.3,2.9-2.1,4.4
		C259.8,181.3,260.5,179.8,261,178.3z M112.9,214.1c-0.4-0.2-0.7-0.4-0.9-0.5c0,0,0,0,0,0c0,0,0,0,0,0c0,0,0,0,0,0
		C112.2,213.7,112.5,213.9,112.9,214.1c0.4,0.1,0.9,0.4,1.5,0.6c0.6,0.3,1.2,0.5,1.9,0.8c0.7,0.3,1.5,0.6,2.3,0.9
		c0.8,0.3,1.7,0.6,2.6,0.9c0.9,0.3,1.9,0.6,2.8,0.8c1,0.3,2,0.5,3,0.8c1,0.3,2,0.4,3,0.7c1,0.2,2,0.4,2.9,0.6
		c0.9,0.2,1.9,0.3,2.7,0.4c0.9,0.1,1.7,0.3,2.4,0.3c0.8,0.1,1.5,0.2,2.1,0.2c0.6,0.1,1.2,0.1,1.6,0.1c0.2,0,0.3,0,0.5,0l0,1.7
		c-0.2,0-0.4-0.1-0.6-0.1c-0.4-0.1-1-0.1-1.6-0.2c-0.6-0.1-1.3-0.2-2.1-0.4c-0.8-0.1-1.6-0.3-2.5-0.5c-0.9-0.2-1.8-0.4-2.7-0.6
		c-0.9-0.2-1.9-0.5-2.9-0.7c-1-0.3-2-0.5-3-0.8c-1-0.3-2-0.6-2.9-0.9c-1-0.3-1.9-0.7-2.8-1c-0.9-0.3-1.8-0.7-2.6-1
		c-0.8-0.3-1.6-0.7-2.3-1c-0.7-0.3-1.3-0.6-1.9-0.9C113.8,214.6,113.3,214.3,112.9,214.1z M52.5,177.7c0.3,0.1,0.9,0.3,1.5,0.5
		c0.7,0.2,1.5,0.5,2.4,0.8c0.5,0.1,1,0.3,1.5,0.4c0.5,0.1,1.1,0.3,1.6,0.4c1.2,0.2,2.4,0.5,3.7,0.6c1.3,0.1,2.7,0.1,4.1-0.1l0.5-0.1
		c0.2,0,0.3,0,0.5-0.1c0.4-0.1,0.7-0.2,1.1-0.3c0,0,0,0,0,0l0,0l0.1,0l0.1-0.1l0.2-0.1c0.2-0.1,0.3-0.2,0.5-0.2
		c0.3-0.2,0.6-0.4,1-0.6c1.3-0.8,2.5-1.8,3.6-2.8c1.2-1,2.3-2.1,3.4-3.2c1.1-1.1,2.2-2.2,3.3-3.2c2.1-2.1,4.2-4,6.1-5.5
		c1-0.7,1.9-1.4,2.7-1.9c0.8-0.5,1.6-0.9,2.3-1.1c0.3-0.1,0.6-0.2,0.9-0.3c0.3-0.1,0.5-0.1,0.7-0.2c0.4-0.1,0.6-0.1,0.6-0.1
		s-0.2,0.1-0.5,0.2c-0.4,0.1-0.8,0.4-1.4,0.7c-0.6,0.3-1.3,0.8-2.1,1.4c-0.8,0.6-1.6,1.3-2.5,2.1c-0.9,0.8-1.8,1.7-2.7,2.7
		c-1,1-1.9,2-3,3.1c-1,1.1-2.1,2.2-3.2,3.3c-1.1,1.1-2.3,2.2-3.5,3.3c-1.2,1.1-2.5,2.1-3.9,3c-0.4,0.2-0.7,0.4-1.1,0.6
		c-0.2,0.1-0.4,0.2-0.6,0.3l-0.3,0.1l-0.1,0.1l-0.1,0l0,0l-0.1,0l0,0c-0.4,0.1-0.7,0.2-1.1,0.3c-0.4,0.1-0.8,0.1-1.2,0.2
		c-1.6,0.2-3.1,0.1-4.5-0.1c-0.7-0.1-1.4-0.3-2-0.4c-0.6-0.2-1.2-0.3-1.8-0.5c-1.2-0.4-2.2-0.8-3.1-1.2c-0.9-0.4-1.7-0.8-2.3-1.1
		c-1.2-0.6-1.9-1.1-1.9-1.1S52.1,177.6,52.5,177.7z M71.2,134.8c0-0.4-0.1-0.8-0.1-1.1c-0.1-0.3-0.1-0.7-0.2-0.9
		c-0.1-0.3-0.1-0.5-0.2-0.7c-0.2-0.4-0.2-0.6-0.3-0.6c-0.5-0.7-1-1.5-1.4-2.2c-0.5-0.7-1-1.5-1.4-2.2c-0.2-0.4-0.5-0.8-0.7-1.1
		c-0.2-0.4-0.4-0.8-0.6-1.2c-0.8-1.6-1.4-3.1-1.8-4.6c-0.5-1.5-0.8-2.9-1.1-4.3c-0.3-1.3-0.6-2.5-0.8-3.6c-0.2-1.1-0.5-2-0.7-2.7
		c-0.2-0.7-0.4-1.3-0.6-1.7c-0.2-0.4-0.3-0.6-0.3-0.6s0.1,0.2,0.3,0.6c0.2,0.4,0.5,0.9,0.9,1.6c0.3,0.7,0.7,1.6,1,2.7
		c0.4,1,0.7,2.2,1.1,3.5c0.4,1.3,0.8,2.7,1.4,4.1c0.5,1.4,1.2,2.9,2,4.3c0.2,0.4,0.4,0.7,0.6,1.1c0.2,0.4,0.5,0.7,0.7,1.1
		c0.5,0.7,1,1.4,1.5,2.2c0.6,0.8,1.1,1.7,1.7,2.5l0,0c0,0,0,0,0,0.1c0.4,0.6,0.9,1.3,1.3,1.9c1,1.5,1.9,3.1,2.7,4.7
		c0.8,1.6,1.5,3.2,2.1,4.9c0.6,1.6,1.1,3.2,1.4,4.7c0.3,1.6,0.5,3.1,0.5,4.5c0,1.4-0.1,2.6-0.3,3.7c-0.2,1.1-0.4,2-0.6,2.8
		c-0.2,0.8-0.4,1.4-0.5,1.8c-0.1,0.4-0.2,0.6-0.2,0.6s0.2-0.9,0.4-2.5c0.2-1.6,0.4-3.8,0.2-6.4c-0.1-1.3-0.3-2.7-0.7-4.2
		c-0.1-0.4-0.2-0.8-0.3-1.1c-0.1-0.4-0.3-0.7-0.4-1.1c-0.1-0.4-0.3-0.8-0.4-1.1c-0.2-0.4-0.3-0.8-0.5-1.2c-0.6-1.5-1.4-3.1-2.2-4.6
		c-0.6-1.2-1.3-2.3-2-3.4c0,0.4-0.1,0.8-0.1,1.2c0,0.2-0.1,0.5-0.1,0.7c0,0.2-0.1,0.5-0.2,0.7c-0.1,0.5-0.3,1-0.5,1.5
		c-0.2,0.5-0.4,0.9-0.7,1.4c-0.1,0.2-0.3,0.4-0.4,0.6c-0.1,0.2-0.3,0.4-0.4,0.6c-0.3,0.4-0.6,0.7-0.9,1c-0.3,0.3-0.6,0.6-0.9,0.8
		c-0.3,0.2-0.6,0.5-0.8,0.6c-0.2,0.2-0.5,0.3-0.7,0.5c-0.4,0.2-0.6,0.4-0.6,0.4s0.2-0.2,0.5-0.4c0.2-0.1,0.4-0.3,0.6-0.5
		c0.2-0.2,0.5-0.5,0.7-0.7c0.2-0.3,0.5-0.6,0.8-0.9c0.2-0.4,0.5-0.7,0.8-1.1c0.1-0.2,0.2-0.4,0.4-0.6c0.1-0.2,0.2-0.4,0.3-0.6
		c0.2-0.4,0.4-0.9,0.5-1.3c0.1-0.5,0.3-0.9,0.3-1.4c0-0.2,0.1-0.5,0.1-0.7c0-0.2,0.1-0.5,0.1-0.7C71.2,135.7,71.2,135.2,71.2,134.8z
		 M128.6,187.3c0.5-0.8,0.9-1.7,1.4-2.5c0.5-0.8,0.8-1.7,1.2-2.5c0.4-0.8,0.7-1.6,1.1-2.4c0.6-1.6,1.2-3.1,1.7-4.5
		c0.5-1.4,0.9-2.7,1.3-3.9c0.2-0.6,0.3-1.1,0.5-1.6c0.1-0.5,0.3-1,0.4-1.4c0.5-1.7,0.8-2.7,0.8-2.7s-0.1,1-0.4,2.7
		c-0.1,0.4-0.2,0.9-0.2,1.4c-0.1,0.5-0.2,1.1-0.3,1.7c-0.3,1.2-0.6,2.6-1,4c-0.4,1.5-0.9,3-1.5,4.7c-0.3,0.8-0.7,1.6-1,2.5
		c-0.4,0.9-0.7,1.7-1.1,2.6c-0.4,0.9-0.9,1.7-1.3,2.6c-0.4,0.9-1,1.7-1.5,2.6c-0.3,0.4-0.5,0.9-0.8,1.3c-0.3,0.4-0.6,0.8-0.9,1.2
		c-0.6,0.8-1.2,1.7-1.8,2.5c-0.7,0.8-1.4,1.5-2,2.3c-0.3,0.4-0.7,0.7-1.1,1.1c-0.4,0.4-0.7,0.7-1.1,1.1c-0.4,0.3-0.7,0.7-1.1,1
		c-0.4,0.3-0.8,0.6-1.2,0.9c-0.8,0.6-1.5,1.3-2.3,1.8c-0.8,0.5-1.6,1.1-2.3,1.6c-0.8,0.5-1.6,0.9-2.4,1.3c-0.8,0.5-1.5,0.8-2.3,1.1
		c-0.4,0.2-0.7,0.3-1.1,0.5c-0.2,0.1-0.4,0.2-0.5,0.2c-0.2,0.1-0.4,0.1-0.5,0.2c-1.4,0.5-2.7,1.1-3.9,1.4c-1.2,0.3-2.2,0.7-3.1,0.8
		c-1.7,0.3-2.7,0.5-2.7,0.5s1-0.3,2.6-0.9c0.9-0.2,1.8-0.7,3-1.1c1.1-0.4,2.4-1,3.7-1.6c0.2-0.1,0.3-0.2,0.5-0.2
		c0.2-0.1,0.3-0.2,0.5-0.3c0.3-0.2,0.7-0.4,1-0.6c0.7-0.4,1.5-0.7,2.2-1.2c0.7-0.5,1.5-0.9,2.2-1.4c0.7-0.5,1.5-1.1,2.2-1.6
		c0.8-0.5,1.5-1.2,2.2-1.8c0.4-0.3,0.7-0.6,1.1-0.9c0.4-0.3,0.7-0.7,1-1c0.3-0.3,0.7-0.7,1-1c0.3-0.4,0.7-0.7,1-1.1
		c0.6-0.7,1.3-1.5,1.9-2.3c0.6-0.8,1.2-1.6,1.8-2.4c0.3-0.4,0.6-0.8,0.9-1.2c0.3-0.4,0.5-0.8,0.8-1.2c0.3-0.4,0.5-0.8,0.8-1.2
		C128.2,188.1,128.4,187.7,128.6,187.3z M107,204.3c-0.3-0.8-0.6-1.6-0.8-2.5c0.4-5.8-1-15.5,5.8-13.7c2.8,0.7,7.3,1.1,12.1,1.2
		C119.1,196.3,112.9,201.3,107,204.3z M99.9,194.9c-0.2,0.6-0.5,1-0.7,1.4c-0.5,0.8-1.1,1.4-1.5,2c-0.2,0.3-0.4,0.7-0.5,1
		c-0.1,0.3-0.2,0.7-0.3,1.1l-0.1,0.6l0,0.6c0,0.4,0,0.8,0,1.2c0.1,0.8,0.1,1.7,0.2,2.5c0.1,0.7,0.2,1.3,0.3,2
		c-0.6,0.1-1.2,0.1-1.7,0.1c-0.1-0.6-0.2-1.3-0.3-1.9c-0.1-0.9-0.2-1.7-0.2-2.6c0-0.5,0-0.9,0-1.4l0-0.7l0.1-0.6
		c0.1-0.5,0.2-1,0.4-1.5c0.2-0.5,0.4-0.9,0.6-1.3c0.5-0.8,1.1-1.5,1.6-2.1c0.2-0.3,0.4-0.6,0.5-0.9c0.1-0.2,0.1-0.4,0-0.7l-0.6-1.1
		c-0.2-0.4-0.4-0.8-0.5-1.2c-0.2-0.4-0.3-0.8-0.4-1.2c-0.1-0.4-0.3-0.8-0.4-1.3c-0.1-0.4-0.2-0.9-0.3-1.3c-0.1-0.4-0.1-0.9-0.2-1.3
		c-0.1-0.9-0.1-1.7-0.1-2.6c0-0.9,0-1.7,0.1-2.6l0.2-2.5c0.1-1.7,0.3-3.4,0.4-5.1c0.1,1.7,0.1,3.4,0.2,5.1c0,1.7,0.1,3.4,0.2,5.1
		L97,185l0.2,1.2c0.1,0.4,0.1,0.8,0.2,1.2c0.1,0.4,0.2,0.8,0.3,1.2c0.1,0.4,0.2,0.8,0.4,1.2c0.1,0.4,0.3,0.7,0.5,1.1
		c0.2,0.4,0.4,0.7,0.5,1.1l0.6,1.1l0,0l0,0.1C100,193.6,100.1,194.3,99.9,194.9z M96.7,218c0.3,0.6,0.6,1.1,1,1.6l0.1,0.1l0,0.1
		c0.1,0.7,0,1.3-0.2,1.9c-0.2,0.5-0.5,1-0.7,1.5c-0.5,0.9-0.9,1.8-1.1,2.8c-0.1,0.5-0.1,1,0,1.5c0,0.2,0.1,0.5,0.1,0.7
		c0.1,0.2,0.1,0.5,0.2,0.7c0.1,0.2,0.2,0.5,0.3,0.7c0.1,0.2,0.2,0.5,0.4,0.7c0.3,0.4,0.6,0.9,0.9,1.3c-0.4-0.4-0.7-0.7-1.1-1.2
		c-0.2-0.2-0.3-0.4-0.5-0.6c-0.2-0.2-0.3-0.5-0.4-0.7c-0.1-0.2-0.2-0.5-0.3-0.7c-0.1-0.3-0.2-0.5-0.2-0.8c-0.1-0.5-0.2-1.1-0.1-1.6
		c0.1-1.1,0.5-2.2,0.9-3.1c0.2-0.5,0.4-1,0.6-1.4c0.1-0.4,0.2-0.8,0.1-1.1c-0.4-0.5-0.8-1.1-1.2-1.7c-0.1-0.2-0.2-0.4-0.3-0.6
		C95.7,218.1,96.2,218,96.7,218C96.7,218,96.7,218,96.7,218z M147.7,216.5c2-0.1,4.1-0.2,6.1-0.2c1,0,2.1,0,3.1,0.1
		c1,0.1,2.1,0.1,3.1,0.3c-1,0.3-2,0.4-3,0.6c-1,0.2-2,0.3-3.1,0.4c-2,0.2-4.1,0.4-6.1,0.5l0,0l0,0c-0.2,0-0.4,0.1-0.6,0.2
		c-0.1,0.1-0.2,0.2-0.2,0.3c-0.1,0.1-0.1,0.2-0.2,0.3c0,0,0,0,0,0.1l0,0.2l0,0.3l-0.1,0.7l-0.2,1.3c-0.1,0.4-0.1,0.9-0.2,1.3
		c-0.1,0.4-0.1,0.9-0.2,1.3c-0.2,0.9-0.3,1.7-0.6,2.6c-0.1-0.9-0.2-1.8-0.2-2.6c0-0.4,0-0.9,0-1.3c0-0.4,0-0.9,0-1.3v-1.3l0-0.7
		l0-0.3l0-0.2c0-0.1,0-0.2,0-0.2c0.1-0.3,0.1-0.6,0.3-0.9c0.1-0.3,0.3-0.5,0.6-0.7C146.4,216.7,147.1,216.5,147.7,216.5L147.7,216.5
		z M165.5,221.7c0.2,0,0.3,0,0.6-0.1c0.9-0.1,2.2-0.2,3.8-0.4c0.8-0.1,1.6-0.2,2.5-0.3c0.9-0.1,1.8-0.3,2.8-0.4c2-0.3,4-0.7,6.1-1.1
		c1-0.2,2.1-0.4,3.1-0.7c1-0.2,2-0.5,3-0.7c1.9-0.5,3.7-1,5.2-1.5c0.7-0.3,1.4-0.5,2-0.7c0.6-0.2,1.1-0.4,1.5-0.6
		c0.4-0.2,0.8-0.3,1-0.5c0.2-0.1,0.3-0.2,0.3-0.2s-0.1,0.1-0.3,0.2c-0.2,0.1-0.5,0.3-1,0.5c-0.4,0.2-0.9,0.5-1.5,0.7
		c-0.6,0.3-1.3,0.5-2,0.8c-1.5,0.6-3.2,1.2-5.1,1.8c-1,0.3-1.9,0.6-2.9,0.9c-1,0.3-2,0.6-3.1,0.8c-2.1,0.5-4.1,1-6.1,1.4
		c-1,0.2-1.9,0.4-2.8,0.6c-0.9,0.2-1.8,0.3-2.5,0.5c-1.6,0.3-2.9,0.5-3.8,0.6c-0.3,0-0.6,0.1-0.8,0.1L165.5,221.7z M195.4,212.8
		c-0.6,0.1-1.3,0.3-2.1,0.6c-8.3,2.8-17.7,4.7-27.7,5.6l0-2.6c0-1.7-1.3-3.1-3-3.2l-17.1-0.3c-1.7,0-3.1,1.3-3.2,3l-0.1,3.1
		c-11.9-1.1-20.5-4.2-24.6-5.6c-1.1-0.4-2.2-0.8-3.2-1.3c6.3-3.7,12.2-8.8,16.9-15c0.1-0.2,0.3-0.4,0.4-0.6c0.6,0.1,1.2,0.2,1.8,0.3
		c0.8,0.1,1.8,0.3,2.7,0.4c1,0.1,2,0.2,3.1,0.3c1.1,0.1,2.2,0.2,3.3,0.2c1.1,0.1,2.3,0.1,3.4,0.1c1.1,0,2.3,0,3.4,0
		c1.1,0,2.2-0.1,3.3-0.2c1.1-0.1,2.1-0.2,3.1-0.3c1-0.1,1.9-0.2,2.7-0.4c0.8-0.1,1.6-0.3,2.3-0.4c0.7-0.1,1.3-0.3,1.8-0.4
		c1-0.2,1.5-0.4,1.5-0.4s-0.6,0-1.6-0.1c-1,0-2.4-0.1-4.1-0.1c-1.7,0-3.7-0.1-5.8-0.1c-2.1,0-4.4,0-6.6,0c-2.3,0-4.5,0-6.6,0
		c-2.1,0-4.1,0-5.8,0c-0.4,0-0.8,0-1.2,0c1.5-2.1,2.9-4.4,4.2-6.7c2.7-0.2,5-0.4,6.6-0.7c-2-0.4-3.9-0.8-5.6-1.1
		c1.3-2.6,2.4-5.3,3.4-8.1c0.5,0.1,1,0.1,1.6,0.2c0.7,0.1,1.4,0.1,2,0.2c0.7,0.1,1.3,0.1,2,0.2c1.3,0.1,2.6,0.1,3.8,0.1
		c1.2,0,2.3,0,3.4-0.1c0.5,0,1,0,1.5-0.1c0.5,0,0.9-0.1,1.4-0.1c0.8-0.1,1.6-0.2,2.2-0.3c1.2-0.2,1.9-0.3,1.9-0.3s-0.7-0.1-1.9-0.2
		c-0.6-0.1-1.3-0.2-2.2-0.3c-0.8-0.1-1.8-0.2-2.8-0.4c-1-0.1-2.1-0.3-3.3-0.5c-1.2-0.1-2.4-0.4-3.7-0.5c-1.3-0.2-2.6-0.4-3.9-0.6
		c-0.3-0.1-0.7-0.1-1-0.2c0.9-3.1,1.6-6.2,2.2-9.5c5.6,1.3,12.5,2.6,19.6,3.6c7.7,1.1,9.5,8.4,14,9c4.4,0.7,13.5-2.4,17.6-4.2
		c-6,5.3-17.3,8.8-17.3,8.8s0.6,5.6,4.9,9.5c7-0.2,21.7-5.7,21.7-5.7s-14.9,12.9-55.1,16c21.4,1.3,29,1.6,34.7-0.3
		c4-1.3,4.7,4.2,4.8,7.9c0,0.4,10-1,19.1-3.4C205,209.5,199.7,211.4,195.4,212.8z M131.7,161c-1.1,0-2.1-0.9-2.1-2.1l-0.8-28.8
		c0-0.6,0.2-1.1,0.6-1.5c0.4-0.4,0.9-0.7,1.5-0.7l40.7-1.2l0.1,0c1.1,0,2.1,0.9,2.1,2.1l0.8,28.8c0,1.2-0.9,2.2-2.1,2.2l-40.7,1.2
		L131.7,161z M103.7,66.1l-1.8-0.8c-1.1-0.5-1.9-1.9-2-3.4l-0.7-14.6c-0.1-1.5,0.6-3,1.7-3.6l2-1.1l0,1c-0.4,2.8-0.7,5.7-0.7,8.7
		C102.2,57.2,102.7,61.8,103.7,66.1z M171.5,88.5c1.6-1.2,3.2-2.6,4.6-4.2c1.4-1.5,2.7-3.1,3.8-4.8c0.6-0.8,1.1-1.7,1.6-2.6
		c0.5-0.9,1-1.7,1.4-2.6c0.9-1.7,1.5-3.5,2.1-5.2c0.3-0.9,0.6-1.7,0.8-2.5c0.2-0.8,0.5-1.6,0.6-2.4c0.1-0.4,0.2-0.8,0.3-1.1
		c0.1-0.4,0.1-0.7,0.2-1.1c0.1-0.7,0.3-1.4,0.4-2c0.2-1.3,0.3-2.4,0.4-3.3c0.1-0.9,0.1-1.6,0.2-2.1c0-0.5,0.1-0.8,0.1-0.8
		s0,0.3,0,0.8c0,0.5,0,1.2,0,2.1c0,0.9-0.1,2-0.2,3.3c0,0.6-0.1,1.3-0.2,2c-0.1,0.4-0.1,0.7-0.2,1.1c-0.1,0.4-0.1,0.8-0.2,1.1
		c-0.3,1.6-0.7,3.2-1.2,5c-0.6,1.7-1.2,3.6-2,5.4c-0.8,1.8-1.8,3.6-3,5.4c-1.2,1.7-2.5,3.5-3.9,5c-1.5,1.6-3.1,3-4.7,4.3
		c-1.7,1.3-3.5,2.3-5.2,3.3c-1.8,0.9-3.6,1.6-5.3,2.2c-0.9,0.3-1.7,0.5-2.6,0.8c-0.8,0.2-1.6,0.4-2.4,0.5c-1.6,0.3-3,0.5-4.3,0.6
		c-0.6,0-1.2,0.1-1.8,0.1c-0.6,0-1.1,0-1.5,0c-0.9,0-1.6,0-2.1,0c-0.5,0-0.8,0-0.8,0s0.3,0,0.8,0c0.5,0,1.2,0,2.1-0.1
		c0.5,0,1-0.1,1.5-0.1c0.6-0.1,1.1-0.1,1.8-0.2c1.3-0.2,2.7-0.4,4.2-0.8c0.8-0.2,1.5-0.4,2.4-0.6c0.8-0.3,1.6-0.5,2.5-0.8
		c1.7-0.6,3.4-1.4,5.1-2.3C168.2,90.8,169.9,89.7,171.5,88.5z M156.9,82.9c-3.2,0.6-6.4,0.9-9.7,0.8c-1.6,0-3.2-0.1-4.8-0.3
		c-1.6-0.2-3.2-0.4-4.8-0.7c-3.2-0.6-6.3-1.5-9.2-2.8c-3-1.3-5.8-2.9-8.4-4.8c-2.6-1.9-4.9-4.2-6.7-6.8c2,2.5,4.4,4.6,7,6.4
		c2.6,1.8,5.5,3.2,8.4,4.3c2.9,1.1,6,1.9,9.1,2.5c1.6,0.3,3.1,0.4,4.7,0.6c1.6,0.1,3.1,0.2,4.7,0.1c3.1-0.1,6.3-0.4,9.4-1
		c3.1-0.6,6.1-1.5,9-2.8c2.9-1.2,5.6-2.8,8.1-4.7c2.4-1.9,4.6-4.1,6.3-6.6c0.3-1,0.6-2.1,0.9-3.2c0.3-1.1,0.5-2.2,0.7-3.3
		c0.2-1.1,0.4-2.3,0.5-3.4c0.2-1.1,0.3-2.3,0.4-3.4l0.1-1.7c0-0.6,0.1-1.1,0.1-1.7c0-1.1,0-2.3,0-3.5c0-1.2-0.1-2.3-0.2-3.5
		c-0.1-1.2-0.2-2.3-0.4-3.5c0.6,2.2,1,4.5,1.3,6.9c0.1,1.2,0.2,2.3,0.3,3.5c0,0.6,0,1.2,0.1,1.8c0,0.6,0,1.2,0,1.8
		c0,1.2-0.1,2.3-0.2,3.5c-0.1,1.2-0.3,2.3-0.4,3.5c-0.2,1.2-0.4,2.3-0.7,3.5c-0.3,1.1-0.6,2.3-0.9,3.4c0,0.1-0.1,0.2-0.1,0.2l0,0
		c-1.8,2.7-4.2,5.1-6.8,7.1c-2.6,2-5.5,3.6-8.4,4.9C163.2,81.5,160.1,82.4,156.9,82.9z M167,72.6l-1.1,0.6c-1.5,0.8-3,1.5-4.6,2.1
		c-1.6,0.6-3.1,1-4.7,1.4c-1.5,0.3-3,0.6-4.5,0.7c-0.7,0.1-1.4,0.1-2.1,0.2c-0.7,0-1.3,0-1.9,0c-0.6,0-1.2,0-1.8,0
		c-0.6,0-1.1-0.1-1.6-0.1c-1-0.1-1.9-0.2-2.6-0.3c-0.7-0.1-1.3-0.2-1.6-0.3c-0.4-0.1-0.6-0.1-0.6-0.1s0.8-0.1,2.2-0.2
		c0.4,0,0.7-0.1,1.2-0.1c0.4,0,0.9-0.1,1.4-0.1c1-0.1,2.1-0.2,3.3-0.4c1.2-0.2,2.5-0.4,3.8-0.7c0.7-0.1,1.4-0.3,2-0.5
		c0.7-0.2,1.4-0.4,2.1-0.6c1.4-0.4,2.9-0.9,4.3-1.5c1.4-0.6,2.9-1.2,4.2-2l1.1-0.6l1-0.6c0.7-0.4,1.3-0.8,1.9-1.3
		c1.3-0.9,2.4-1.8,3.4-2.8c2-2,3.4-4.3,4.1-6.6c0.4-1.1,0.7-2.2,0.9-3.1c0.2-1,0.4-1.8,0.6-2.5c0.3-1.4,0.5-2.2,0.5-2.2s0,0.8,0,2.3
		c0,0.7,0,1.6-0.1,2.6c-0.1,1-0.2,2.1-0.4,3.4c-0.3,1.2-0.6,2.6-1.3,3.9c-0.6,1.4-1.5,2.7-2.6,3.9c-1.1,1.2-2.3,2.3-3.6,3.4
		c-0.7,0.5-1.4,1-2.1,1.4L167,72.6z M120.5,64.7c-2.3,0-4.2-1.5-4.2-3.2c0-1.7,1.9-3.1,4.3-3.1s4.2,1.5,4.2,3.2
		C124.7,63.4,122.8,64.8,120.5,64.7z M155.8,28.5c-0.8,0-1.4-0.6-1.3-1.4c0-0.8,0.6-1.4,1.4-1.3c0.8,0,1.4,0.6,1.3,1.4
		C157.2,27.9,156.6,28.5,155.8,28.5z M147.7,25.5c-9.5,1.3-15.1,5.2-19,10.1c-4,5-2.9,11.6-3.4,14.5c-0.4,2.9-3.4,4.4-5.3,4.3
		c-1.3,0-4.8-1.7-4.7-5.9c0.1-5.2,1.9-12.2,8.5-17C130.4,26.8,138.2,24.4,147.7,25.5z M206.1,49.5c0.3,0.2,0.6,0.3,0.8,0.6
		c0.3,0.2,0.5,0.4,0.7,0.7l0.3,0.4c0.1,0.1,0.2,0.3,0.3,0.4c0.2,0.3,0.4,0.6,0.5,0.9c0.1,0.3,0.3,0.6,0.4,0.9
		c0.2,0.6,0.4,1.2,0.5,1.7c0.2,0.6,0.2,1.1,0.3,1.6c0.1,0.5,0.1,1,0.2,1.5c0.1,0.9,0.1,1.7,0.1,2.2c0,0.5,0,0.8,0,0.8
		s-0.1-0.3-0.3-0.8c-0.1-0.3-0.2-0.6-0.3-0.9c-0.1-0.3-0.3-0.7-0.4-1.2c-0.1-0.4-0.3-0.9-0.5-1.4c-0.2-0.5-0.3-1-0.5-1.5
		c-0.1-0.3-0.2-0.5-0.3-0.8c-0.1-0.3-0.2-0.5-0.3-0.8c-0.1-0.3-0.3-0.5-0.4-0.7c-0.1-0.3-0.3-0.5-0.4-0.7c-0.1-0.1-0.1-0.2-0.2-0.3
		l-0.3-0.3c-0.1-0.1-0.2-0.2-0.3-0.3l-0.3-0.3c-0.2-0.2-0.4-0.3-0.6-0.5c-0.2-0.2-0.4-0.3-0.7-0.4c-0.2-0.1-0.5-0.3-0.7-0.4
		c-0.2-0.1-0.5-0.2-0.7-0.4c-0.5-0.2-0.9-0.4-1.3-0.6c-0.8-0.4-1.5-0.8-2-1c-0.5-0.3-0.7-0.4-0.7-0.4s0.3,0,0.8,0.1
		c0.5,0.1,1.3,0.2,2.2,0.4c0.4,0.1,0.9,0.2,1.4,0.4c0.3,0.1,0.5,0.2,0.8,0.3c0.3,0.1,0.5,0.2,0.8,0.3
		C205.5,49.2,205.8,49.3,206.1,49.5z M186.8,88.7c0.2,0.7,0.3,1.3,0.5,2c0,0.1,0,0.2,0,0.3l0,0c-0.1,0.3-0.3,0.6-0.4,0.9
		c-0.1,0.3-0.3,0.6-0.5,0.8c-0.3,0.5-0.7,1.1-1,1.6c-0.4,0.5-0.8,1-1.2,1.5c-0.2,0.2-0.4,0.5-0.6,0.7l-0.7,0.7
		c-0.5,0.4-0.9,0.9-1.4,1.3l-0.7,0.6l-0.8,0.6c-0.3,0.2-0.5,0.4-0.8,0.5l-0.8,0.5c-0.3,0.2-0.6,0.3-0.8,0.4l-0.8,0.4l0.7-0.6
		c0.2-0.2,0.5-0.4,0.7-0.6c0.5-0.4,0.9-0.8,1.4-1.2c0.5-0.4,0.9-0.8,1.3-1.3c0.2-0.2,0.4-0.4,0.6-0.7l0.6-0.7l0.6-0.7
		c0.2-0.2,0.4-0.5,0.6-0.7c0.4-0.5,0.8-1,1.1-1.4c0.3-0.5,0.7-1,1-1.5c0.2-0.3,0.3-0.5,0.4-0.8c0.1-0.2,0.2-0.4,0.3-0.7
		c-0.1-0.6-0.2-1.2-0.3-1.9c-0.1-0.7-0.2-1.4-0.3-2.1c-0.2-1.4-0.4-2.8-0.5-4.1c0.4,1.3,0.8,2.7,1.2,4
		C186.5,87.4,186.7,88,186.8,88.7z M107.8,90.3l2.2-9c7.7,11.9,20.7,19.4,36.3,19.7c11.8,0.2,22.2-3.7,30.1-10.7
		c-3.1,3.2-13.7,13.2-29.6,12.9c5.8,1,13-0.4,16-1.1c-3.9,2-8.2,3.3-12.7,3.7c4.6,0.4,9.2-0.1,13.6-1.5c-4.2,2.2-8.9,3.4-13.7,3.8
		c5,0.5,10.1,0,14.9-1.5c-5,2.1-11,3.7-18.2,4.1c-1.2,0.1-2.4,0.1-3.6,0.1l0,0C120.6,110.3,109.6,93.3,107.8,90.3z M183,25.6
		c-0.3-0.7-0.7-1.3-1.1-2c0.5,0.6,0.9,1.2,1.3,1.9c0.4,0.6,0.8,1.3,1.2,1.9c0.8,1.3,1.5,2.7,2.1,4.1c0.6,1.4,1.2,2.8,1.8,4.3
		c0.5,1.3,0.9,2.7,1.3,4.1l1.8,0.9l1,0.5c0.4,0.2,0.8,0.4,1.1,0.7c0.7,0.5,1.3,1.2,1.7,2c0.4,0.8,0.8,1.6,1,2.4
		c0.1,0.4,0.2,0.8,0.2,1.3c0,0.2,0,0.4,0,0.6l0,0.3l0,0.3l-0.1,2.3L196,56c-0.1,1.6-0.2,3.1-0.3,4.7l-0.2,2.3l0,0.6l-0.1,0.6
		c-0.1,0.4-0.2,0.8-0.3,1.3c-0.5,1.6-1.6,3.1-3,4.1c-0.7,0.5-1.5,0.7-2.3,1l-2,0.7c-0.5,1.2-1,2.5-1.7,3.7c-0.6,1.3-1.4,2.5-2.1,3.7
		c0.6-1.3,1.2-2.6,1.7-3.9c0.5-1.3,1-2.6,1.4-4c0,0,0,0,0,0c0-0.1,0.1-0.5,0.3-0.9c0.2-0.6,0.4-1.4,0.6-2.1c0.4-1.6,0.7-3.2,0.7-3.2
		s0,1.6-0.1,3.3c-0.1,0.8-0.2,1.6-0.2,2.2l1.2-0.5c0.7-0.3,1.4-0.6,2-1c1.1-0.8,2-2.1,2.3-3.5c0.1-0.3,0.1-0.7,0.2-1l0-0.5l0-0.6
		l0.1-2.3c0.1-1.6,0.1-3.1,0.2-4.7l0.2-4.7l0.1-2.3l0-0.3l0-0.1l0-0.1c0-0.2,0-0.4,0-0.5c0-0.3-0.1-0.7-0.1-1c-0.3-1.4-1-2.6-2-3.5
		c-0.3-0.2-0.5-0.4-0.8-0.6l-1-0.6l-0.5-0.3c0,0.3,0.1,0.7,0.1,1.2c0.1,1.6,0.2,3.8,0.2,6c0,2.2-0.2,4.3-0.4,5.9
		c-0.1,0.8-0.2,1.5-0.2,1.9c-0.1,0.5-0.1,0.7-0.1,0.7s0.1-1.1,0.1-2.7c0-1.6-0.1-3.7-0.2-5.9c-0.2-2.1-0.5-4.2-0.8-5.8
		c-0.1-0.8-0.3-1.4-0.4-1.9c-0.1-0.5-0.1-0.7-0.1-0.7l0,0c0,0,0,0,0,0c-0.3-1.5-0.7-2.9-1.1-4.4c-0.4-1.4-0.9-2.9-1.4-4.3
		c-0.3-0.7-0.5-1.4-0.8-2.1c-0.3-0.7-0.6-1.4-0.9-2.1C183.6,26.9,183.3,26.2,183,25.6z M225.7,87.8l-0.6,1.6l-1.7-0.2
		c-0.9-0.1-1.8-0.2-3-0.3l-0.5,0l-0.5-0.3c-0.9-0.6-1.9-1.2-3.1-1.7l-1.1-0.5l-0.1-1.2c-0.3-2.9-0.8-6.6-2.5-8.9l-0.9-1.2l0.8-1.2
		c1.1-1.7,1.9-3.9,2.3-6.8l0.5-3.1l2.7,1.6c2.4,1.4,5.6,3.8,7.5,7.6C227.7,77.2,227.8,82.2,225.7,87.8z M186.3,48.6c0,0,0-0.1,0-0.1
		C186.3,48.5,186.3,48.6,186.3,48.6C186.3,48.6,186.3,48.6,186.3,48.6z M209.6,38.9c0,0.2,0,0.3,0,0.3s-0.1-0.5-0.3-1.2
		c-0.1-0.4-0.2-0.9-0.4-1.4c-0.1-0.5-0.4-1.1-0.6-1.8c-0.2-0.6-0.5-1.3-0.8-2c-0.3-0.7-0.7-1.4-1.1-2.1c-0.1-0.2-0.2-0.3-0.3-0.5
		c-0.1-0.2-0.2-0.2-0.4-0.4l-0.1-0.1c0,0,0,0,0,0l0,0l0,0l0,0l-0.1,0c-0.1,0-0.1-0.1-0.2-0.1c-0.2-0.1-0.4-0.2-0.6-0.3
		c-0.8-0.4-1.6-0.8-2.4-1.1c-1.7-0.8-3.4-1.4-5-2.1c-0.8-0.3-1.6-0.6-2.3-0.9c-0.7-0.3-1.4-0.5-2.1-0.8c-0.7-0.2-1.2-0.5-1.8-0.6
		c-0.5-0.2-1-0.4-1.4-0.5c-0.8-0.3-1.2-0.4-1.2-0.4s0.5,0,1.3,0.1c0.8,0.1,2,0.2,3.4,0.5c0.7,0.1,1.4,0.3,2.2,0.5
		c0.8,0.2,1.6,0.4,2.4,0.7c0.8,0.3,1.7,0.6,2.6,0.9c0.9,0.3,1.7,0.7,2.6,1.1c0.9,0.4,1.7,0.8,2.5,1.3c0.2,0.1,0.4,0.3,0.6,0.4
		c0.1,0.1,0.2,0.2,0.3,0.2l0.1,0.1l0,0l0,0l0,0l0.1,0.1c0.1,0.1,0.4,0.4,0.5,0.6c0.1,0.2,0.3,0.4,0.4,0.6c0.5,0.8,0.8,1.6,1,2.4
		c0.3,0.8,0.4,1.5,0.6,2.2c0.3,1.4,0.3,2.6,0.3,3.4C209.6,38.3,209.6,38.7,209.6,38.9z M137.8,91.1c0,0.5-0.5,0.8-1.1,0.8
		c-0.6,0-1.1-0.4-1.1-0.9c0-0.5,0.5-0.8,1.1-0.8C137.3,90.3,137.8,90.7,137.8,91.1z M85.7,101.1C85.7,101.1,85.7,101.1,85.7,101.1
		c5.9-3.6,13.4-7.3,18.9-8.8c0.2,0,0.3-0.1,0.5-0.1c0.1,0,0.3-0.1,0.4-0.1c2.5,4.2,14.3,21.1,37.8,21.6c0,0,0,0,0,0
		c1.3,0,2.5,0,3.8-0.1c6.9-0.4,12.8-1.8,17.9-3.7c13.9,1,11.1,7.7,23,6.9c6.3-0.4,9.5-2.9,10.5-3.2c-0.8,1.2-3.3,4.1-9.1,6.3
		c-7.2,2.7-13.2-0.4-18.9,0.3c-0.1,0-0.2,0-0.2,0l-38.8,1.9c-0.4,0-0.8,0.2-1.1,0.5l-3.4,4.3c0,0,0,0.1-0.1,0.1
		c-0.7,0.9-1.1,2.1-1.1,3.3l0.8,28.8c0.1,2.7,2.3,4.9,5,4.9c0.1,0,0.2,0,0.2,0l0.5,0c0.4,0.1,0.9,0.2,1.4,0.4
		c-0.5,3.7-1.3,7.1-2.4,10.3c-0.1,0-0.3,0-0.4-0.1c-0.6-0.1-1.2-0.2-1.9-0.3c-0.6-0.1-1.2-0.2-1.8-0.3c-1.2-0.2-2.2-0.4-3.2-0.6
		c-1-0.2-1.9-0.4-2.7-0.6c-0.8-0.2-1.5-0.4-2.1-0.5c-1.2-0.3-1.9-0.5-1.9-0.5s0.6,0.4,1.6,1c0.5,0.3,1.2,0.7,2,1
		c0.8,0.4,1.6,0.8,2.6,1.2c1,0.4,2,0.8,3.2,1.2c0.6,0.2,1.2,0.4,1.8,0.6c0.6,0.2,1.2,0.3,1.9,0.5c0,0,0.1,0,0.1,0
		c-1.1,2.8-2.3,5.5-3.7,7.9c-9.6-2.1-14.1-4-17.1-9.8c-4.5-8.4-4.2-14.6-4.2-14.6s6.5-4.6,8.8-10.4c-2.9,1.1-5.6,4.7-9.3,4.6
		c3.9-8.9,7.5-31.2,3.6-35.8c-0.2,7.2-2.8,10.3-5.7,13c-0.6-2.8-1.7-6.3-4.2-7.9c2.8,4.2,0.5,9.5-0.9,12.4c-0.5,0.7-2.1,3.1-5.4,4.2
		c-2.9,0.9-6.2,1.7-7.5,0c0.1-4-1.3-8.1-4.1-10.7c1.1,4.1,1.6,5.8,0.1,10.1c-0.5-1.3-1-2.6-1.5-3.7c-2.1-4.2-3.9-6.6-5.6-8.7
		c-1.3-1.8-2.6-3.4-3.8-5.7c5-4,12.1-2.8,19.5,1.9c-2.7-4.9-9.6-9-16.8-7.4c2.4-2.3,6.7-3.1,15.1-1.4c-4-2.7-9.9-4.8-14.4-4.1
		c1.7-1.9,4.7-4.6,8.3-7.1C82.9,102.9,84.3,102,85.7,101.1z"/>
	<path class="st0" d="M90,65.3c-2.2-0.6-4.7-0.7-4.7-0.7s-0.7,2.2-0.6,3.9c0.1,1.7,0.9,7.1,1.5,7.9c1.1,1.7,5.4,3.7,7.8,4.5
		c-2.3-3-5-4-5.5-8.6C88,67.7,87.8,66.4,90,65.3z"/>
	<path class="st0" d="M225.8,180.1l-10.7,5c0.3,1.5,2.2,0.8,5.3-0.8C224.5,182.2,225.8,180.1,225.8,180.1z"/>
	<path class="st0" d="M223.6,190.4c4-2.4,5.1-5.4,5.1-5.4l-10.2,6.9C219,193.4,220.6,192.2,223.6,190.4z"/>
	<path class="st0" d="M228,194.7c-2.3,1.8-4.7,2.9-4.7,2.9c0.5,1.4,2.3,0.6,5.2-1.4c3.9-2.6,4.7-6,4.7-6S230.3,192.9,228,194.7z"/>
	<path class="st0" d="M234.3,198.9c-2.3,1.8-4.7,2.9-4.7,2.9c0.5,1.9,5-0.6,6.1-1.8c1.1-1.3,2.7-5.1,2.7-5.1
		S236.6,197.2,234.3,198.9z"/>
	<path class="st0" d="M116.6,21.4c-0.3,0.4-0.7,0.7-1,1.1c-0.3,0.4-0.6,0.8-0.9,1.1c-0.5,0.7-1,1.5-1.4,2.1
		c-0.2,0.3-0.3,0.6-0.5,0.9c-0.1,0.3-0.2,0.5-0.3,0.7c-0.2,0.4-0.2,0.6-0.2,0.6s0.2-0.2,0.4-0.5c0.3-0.3,0.7-0.8,1.1-1.3
		c0.5-0.5,1-1.2,1.6-1.9c0.6-0.7,1.2-1.4,1.9-2.1c0.3-0.4,0.6-0.7,1-1c0.3-0.3,0.6-0.7,1-1c0.6-0.6,1.2-1.2,1.7-1.8
		c1-1,1.7-1.7,1.7-1.7s-0.2,0.1-0.6,0.3c-0.4,0.2-0.9,0.5-1.5,0.9c-0.6,0.4-1.3,0.9-2,1.5C118,20,117.3,20.7,116.6,21.4z"/>
	<path class="st0" d="M149.8,255.5c-0.9-0.1-2-0.3-3-0.4c-1.1-0.1-2.2-0.3-3.4-0.5c-1.2-0.1-2.4-0.4-3.6-0.6
		c-1.2-0.2-2.4-0.4-3.7-0.7c-0.6-0.1-1.2-0.2-1.8-0.4c-0.6-0.1-1.2-0.3-1.8-0.4c-1.2-0.3-2.4-0.6-3.5-0.9c-0.6-0.2-1.1-0.3-1.7-0.5
		c-0.5-0.2-1.1-0.3-1.6-0.5c-0.5-0.1-1-0.3-1.5-0.5c-0.5-0.1-1-0.3-1.4-0.5c-0.9-0.3-1.7-0.6-2.4-0.9c-0.7-0.3-1.4-0.5-1.9-0.7
		c-1-0.4-1.6-0.6-1.6-0.6s0.1,0.1,0.4,0.3c0.2,0.2,0.6,0.4,1.1,0.7c0.5,0.3,1,0.7,1.7,1.1c0.3,0.2,0.7,0.4,1.1,0.6
		c0.4,0.2,0.8,0.4,1.2,0.6c0.8,0.5,1.8,0.9,2.8,1.3c0.5,0.2,1,0.4,1.6,0.7c0.5,0.2,1.1,0.4,1.7,0.6c0.6,0.2,1.2,0.4,1.7,0.6
		c0.6,0.2,1.2,0.4,1.8,0.5c0.6,0.2,1.2,0.3,1.9,0.5c0.6,0.1,1.3,0.3,1.9,0.4c1.3,0.2,2.5,0.4,3.8,0.6c1.3,0.1,2.5,0.3,3.7,0.4
		c1.2,0.1,2.4,0.1,3.4,0.2c1.1,0,2.1,0,3.1,0c1,0,1.8-0.1,2.6-0.1c0.8-0.1,1.4-0.1,2-0.2c1.1-0.1,1.7-0.2,1.7-0.2s-0.6-0.1-1.7-0.3
		C153.3,255.9,151.7,255.7,149.8,255.5z"/>
	<path class="st0" d="M90.8,31.6l7.5-1.4c0,0-0.9-2.1,0.8-4.1C98,26.4,90.8,29.5,90.8,31.6z"/>
	<path class="st0" d="M84.2,42.3c-0.4,3.4-0.5,9.2-0.4,11.7c0.1,2,0.6,2.8,1.1,3.8c0.5,0.9,4.9,3.4,5.6,3.7c-1.9-2.9-3-2.9-3.1-6.9
		c-0.1-4,0.4-13,0.9-14.4c0.5-1.5,1.3-2.6,3.7-4.6c-1.5,0.5-4.8,1.9-5.5,2.2C85.8,38.1,84.5,38.9,84.2,42.3z"/>
	<path class="st0" d="M27.2,127.7c-0.8-5.9,3.5-6.8,5.5-8.3c-4.7,0.3-10.4-1.7-12.8-5.3c0.5,7.4,3.6,18.6,4.8,20.8
		c1.7,3,3.4,3.9,8.5,5.6C29.4,138.4,27.7,130.9,27.2,127.7z"/>
	<path class="st0" d="M38.4,155.3c-1.5-1.9-4.3-4.9-3.3-7.1s4-3.7,4-3.7s-6.5,1-8.6,0.4C29.9,148.2,32.9,152.1,38.4,155.3z"/>
	<path class="st0" d="M45.9,162.3c-2.4-0.3-6.1-1.4-6.1-1.4s4.3,8.6,8.1,10C45.4,167.2,42.7,163.9,45.9,162.3z"/>
	<path class="st0" d="M82.1,108.2c-0.3-1.5,2.1-3.9,3.4-5.2c-4.2,2.1-9.4,6.8-9.4,6.8s4.5,0.3,9,2.3C83,110.3,82.4,109.5,82.1,108.2
		z"/>
	<path class="st0" d="M102.7,97.9c2.3,0.5,4.8,2.6,10.4,5.2c-4-3.3-8.4-9.3-8.4-9.3s-6.8,1.9-10.6,4.7
		C96.6,97.8,101.5,97.6,102.7,97.9z"/>
	<path class="st0" d="M117.9,100.2c-1.5-1.7-2.9-4.7-3.2-6.2c-0.3-2.1,0.4-2.5,2-2.7c-4.1-3.3-6.2-7.1-6.2-7.1l-1.3,5.8
		C109.2,90.1,112.9,96.4,117.9,100.2z"/>
	<path class="st0" d="M169,152.4c-0.2,0.9-0.9,1.6-1.8,1.7l-32.2,5.1l34.8-1.6c1.3,0,2.2-1.1,2.2-2.3l-0.2-19.9L169,152.4z"/>
	<path class="st0" d="M139.7,145.4c3.5,0.1,6.3-2.7,6.4-6.1c0-1.5-0.5-2.9-1.4-4.1c-1-2.3-3.2-4-5.9-4c-3.6-0.1-6.5,2.8-6.6,6.3
		c0,2.1,0.9,4,2.5,5.2C135.9,144.3,137.7,145.3,139.7,145.4z M142.3,137.7c0,2-1.7,3.5-3.6,3.5c-2,0-3.5-1.7-3.5-3.6
		c0-2,1.7-3.5,3.6-3.5C140.8,134.1,142.3,135.8,142.3,137.7z"/>
	<path class="st0" d="M150,135.7c0,2.4,1.9,4.4,4.3,4.4c2.4,0,4.4-1.9,4.4-4.3c0-2.4-1.9-4.4-4.3-4.4C152,131.4,150,133.3,150,135.7
		z M154.3,137.2c-0.8,0-1.4-0.7-1.4-1.4c0-0.8,0.7-1.4,1.4-1.4c0.8,0,1.4,0.7,1.4,1.4C155.7,136.6,155.1,137.2,154.3,137.2z"/>
	<path class="st0" d="M121.6,239.1c1.3,0.3,2.5,0.6,3.8,0.9c1.3,0.3,2.5,0.5,3.7,0.6c1.2,0.2,2.4,0.3,3.5,0.4
		c1.1,0.1,2.2,0.2,3.1,0.2c1.9,0.1,3.6,0.1,4.7,0c1.1,0,1.8-0.1,1.8-0.1s-0.6-0.1-1.7-0.4c-1.1-0.2-2.7-0.5-4.6-0.9
		c-0.9-0.2-2-0.4-3-0.6c-1.1-0.2-2.2-0.5-3.4-0.7c-2.3-0.5-4.8-1.1-7.3-1.7c-1.2-0.3-2.5-0.7-3.6-1c-1.2-0.4-2.4-0.7-3.5-1.1
		c-1.1-0.4-2.2-0.8-3.2-1.2c-0.5-0.2-1-0.4-1.4-0.6c-0.5-0.2-0.9-0.4-1.3-0.6c-0.4-0.2-0.8-0.5-1.2-0.7c-0.4-0.2-0.7-0.4-1-0.6
		c-0.6-0.4-1.2-0.8-1.6-1.2c-0.2-0.2-0.4-0.4-0.6-0.5c-0.2-0.1-0.3-0.3-0.4-0.4c-0.2-0.2-0.3-0.3-0.3-0.3s0.1,0.1,0.2,0.4
		c0.1,0.3,0.4,0.7,0.7,1.1c0.3,0.5,0.8,1,1.4,1.6c0.3,0.3,0.6,0.6,0.9,0.9c0.4,0.3,0.7,0.6,1.1,0.9c0.8,0.6,1.7,1.2,2.7,1.7
		c1,0.5,2.1,1.1,3.2,1.6c1.1,0.5,2.3,0.9,3.5,1.4C119.1,238.4,120.4,238.8,121.6,239.1z"/>
	<path class="st0" d="M100.6,239.9c-0.2,0.8-0.2,2.9,3.1,6.4c-0.9-2.8,0.5-3.6,1.2-3.1C102.2,241.6,100.6,239.9,100.6,239.9z"/>
	<path class="st0" d="M101.7,261.9c-1.3-6.8,1.4-8.2,11.8-4.9c-8.7-4.4-13.9-8.6-13.9-8.6C99.5,250.6,99.3,256.2,101.7,261.9z"/>
	<path class="st0" d="M98.4,264.2c-0.7,3.4-1.9,9.1,2.9,16.2c-0.3-10,10.7-5.8,10.7-5.8C106,271.9,99.9,266.9,98.4,264.2z"/>
	<path class="st0" d="M96.6,283.1c-3.2,5-2.3,15.3-1,21.7c0-2.3,0.4-10.5,2.6-12.4c2.2-1.9,9-0.3,12,0.1
		C101,288.8,96.6,283.1,96.6,283.1z"/>
	<path class="st0" d="M96.7,319.3c-2.4,3.2-4.7,14.2,1.1,21.8c-1.4-4.7-1.2-11.2,0.3-13.6c1.5-2.4,5.9-2.7,5.9-2.7
		C100.5,323.3,96.7,319.3,96.7,319.3z"/>
	<path class="st0" d="M93.1,365.4c0.9-5.2,1.3-13.1,9.5-13.1c-3-1.1-6.5-2.9-6.5-2.9S89.5,358.6,93.1,365.4z"/>
	<path class="st0" d="M94.9,396c0.1-3-0.1-7.7,1.9-8.9c1.5-0.9,4.9-2.2,4.9-2.2s-5.3-0.5-7.3-1.3C94.5,385.6,92.7,392.1,94.9,396z"
		/>
	<path class="st0" d="M170.8,331.7c-1,3.6-1.3,12.2,2.5,17c0-2.2-1.1-7,1.1-11.1c2.2-4.2,9.1-3.3,11-4.9
		C182.4,332.9,173.7,332.3,170.8,331.7z"/>
	<path class="st0" d="M183.6,394.3c-0.3,2.1-0.9,5.6-1.8,7.5c0.3-1.1,4.7-4.6,5.8-4.8c1.6-0.3,7.2-2.1,8.5-2.5
		C191.9,395,187.7,394.9,183.6,394.3z"/>
	<path class="st0" d="M187.4,360.6c1.2-0.8,4.4-2,5.7-2.5c-4.8,0.4-11.5,0.1-16.1-1.2c1.2,1.6,1.7,4.8,1.8,6.8c0.1,2-0.2,4-0.6,5.9
		C181,366.3,183.8,362.9,187.4,360.6z"/>
	<path class="st0" d="M174.8,313.3c-1.3,0.1-2.5,0.3-3.8,0.4c-0.5,2.9-0.5,6,0,8.9c-0.1-2.2,1.3-4.3,3-5.6c1.8-1.3,3.9-2,6-2.8
		c2.1-0.8,4.2-1.7,5.7-3.2C182.3,312.6,178.5,313,174.8,313.3z"/>
	<path class="st0" d="M170,269.9c-0.5,2.3-1.6,5.4-4.1,7.9c-0.2,0.2-0.6,0.4-0.7,0.7c-0.1,0.4,0.1,4.3,0.1,5.9
		c-0.1,1.5,0.5,2.9,1.1,4.3c0.9,2.2,1.8,4.3,2.7,6.5c-0.2-2.4-0.4-4.8-0.4-7.1c0-4.3-0.1-5.6,3.3-8.3c2.5-1.1,7.4-2.3,10.6-2.4
		c-4.2-0.7-6.3-0.9-9-2.5C172.6,274.2,170.5,272.2,170,269.9z"/>
	<path class="st0" d="M185.5,415.5c0.2,2.1,0.4,4.2,1.3,6.1c-0.1-2.6,0-6.3,1.2-8.5c1.4-2.6,3.9-4,6.6-5.6c-2,0.6-8,1.6-8.9,1.7
		C185.1,411.2,185.3,413.4,185.5,415.5z"/>
	<path class="st0" d="M182.9,340.2c-0.4,0-0.8,0-1.1,0.1c-0.6,0-1,0.1-1,0.1s0.3,0.2,0.9,0.4c0.3,0.1,0.6,0.2,1,0.4
		c0.4,0.1,0.9,0.2,1.4,0.4c0.5,0.1,1.1,0.2,1.7,0.3c0.6,0.1,1.2,0.2,1.9,0.2c0.7,0.1,1.3,0.1,2,0.1c0.7,0,1.4,0,2.1,0
		c0.7,0,1.4-0.1,2.1-0.2c0.7-0.1,1.3-0.2,2-0.3c1.3-0.3,2.5-0.6,3.5-0.9c1-0.3,1.8-0.7,2.4-0.9c0.6-0.3,0.9-0.5,0.9-0.5s-0.4,0-1,0
		c-0.6,0-1.5,0-2.5,0.1c-1,0-2.2,0.1-3.5,0.2c-1.3,0.1-2.6,0.1-3.9,0.2c-0.7,0.1-1.3,0.1-2,0.1c-0.7,0-1.3,0.1-1.9,0.1
		c-0.6,0-1.2,0.1-1.8,0.1c-0.6,0-1.1,0.1-1.6,0.1C183.7,340.1,183.3,340.2,182.9,340.2z"/>
	<ellipse transform="matrix(0.414 -0.9103 0.9103 0.414 -286.4379 309.1876)" class="st0" cx="96.9" cy="377.1" rx="1.5" ry="4.8"/>
</g>
</svg>
